<!-- by TradingView --><svg width="56" height="56" viewBox="0 0 56 56" xmlns="http://www.w3.org/2000/svg"><path fill="#F0F3FA" d="M0 0h56v56H0z"/><path d="m8.7 25 2.59 6.17c.12.31.35.61.71.63v.2H9.26v-.2c.62-.02.88-.2.62-.82L7.96 26.2l.17-.18-1.76 4.27c-.13.3-1.2 2.54-1.23 2.74-.07.62.38.76.92.77v.2H4v-.2c.45-.1.7-.52.87-.91L8.34 25h.36Zm1.11 4.17v.2H6.65l.1-.2h3.06ZM15.29 25c.4 0 .7.04.9.11.21.08.4.16.55.25l.21.1c.06.03.12.04.17.04.07 0 .12-.04.15-.1.04-.08.07-.18.1-.32h.25l-.03.4-.03.62v1h-.25c-.02-.31-.1-.62-.25-.9-.13-.3-.33-.54-.6-.72a1.7 1.7 0 0 0-1-.28c-.38 0-.7.1-.95.3a.92.92 0 0 0-.37.76c0 .28.08.51.24.7.17.19.4.36.67.53l.99.53c.37.2.7.41 1 .61.3.2.53.42.7.66.17.24.26.54.26.88 0 .41-.12.76-.35 1.03-.22.27-.52.47-.9.6s-.8.2-1.25.2a3.46 3.46 0 0 1-1.62-.35.9.9 0 0 0-.38-.14c-.07 0-.13.04-.17.1-.02.08-.05.18-.07.32H13l.02-.48.01-.75.01-1.15h.26c.03.4.11.76.25 1.1.14.35.35.63.63.84.3.2.68.3 1.15.3.26 0 .49-.04.7-.12.22-.09.4-.22.53-.4.13-.17.2-.4.2-.68 0-.26-.07-.5-.22-.69-.14-.2-.34-.38-.6-.54a8.96 8.96 0 0 0-.9-.53c-.35-.19-.67-.38-.98-.57-.3-.19-.55-.41-.74-.67a1.54 1.54 0 0 1-.26-.9c0-.39.1-.7.3-.96.22-.24.5-.43.83-.55.35-.12.71-.18 1.1-.18ZM25 25v2h-.24c-.08-.6-.23-1.25-.8-1.58a1.84 1.84 0 0 0-.92-.2h-.45v5.64c0 .78.34.91 1.07.94v.2h-3.32v-.2c.72-.03 1.07-.16 1.07-.94v-5.63h-.46c-.38 0-.69.06-.9.19-.6.33-.65.98-.73 1.58H19v-2h6ZM29.07 25c.68 0 1.28.14 1.79.4.52.28.93.67 1.21 1.19.29.5.43 1.12.43 1.85 0 .71-.15 1.33-.44 1.87-.3.53-.7.95-1.22 1.24-.52.3-1.12.45-1.78.45a3.8 3.8 0 0 1-1.8-.4 2.9 2.9 0 0 1-1.2-1.19 3.77 3.77 0 0 1-.44-1.85c0-.71.15-1.33.44-1.87a3.25 3.25 0 0 1 3-1.69Zm-.05.17c-.43 0-.8.14-1.12.43-.32.28-.57.68-.74 1.18a5.3 5.3 0 0 0-.26 1.74c0 .67.1 1.26.29 1.76.2.5.46.88.8 1.15.32.27.7.4 1.1.4.44 0 .81-.14 1.12-.43.32-.28.57-.68.74-1.18.19-.5.28-1.09.28-1.74 0-.68-.1-1.26-.3-1.76-.2-.5-.47-.87-.8-1.14-.33-.27-.7-.4-1.1-.4ZM33 25l3.13.01c1.07 0 2.77.29 2.77 1.69 0 .2-.04.41-.14.64-.43 1.07-1.88 1.27-2.87 1.27h-1.06v-.2h.95c1.07 0 1.78-.49 1.78-1.6 0-1.06-.62-1.62-1.66-1.62-.32 0-.53.06-.63.17a1 1 0 0 0-.27.67v4.8c0 .8.37.94 1 .98V32h-3v-.2c.63-.03 1-.3 1-.96v-4.81c0-.64-.37-.82-1-.84V25Zm1.85 3.44a18.68 18.68 0 0 1 1.9.14c.55.06.95.2 1.2.39s.43.49.52.89l.28.99c.06.27.13.47.2.59.09.11.2.17.36.17.12 0 .21-.03.28-.09.08-.05.17-.13.26-.23l.15.1c-.17.2-.34.36-.53.46-.18.1-.42.15-.73.15a1.5 1.5 0 0 1-.81-.21c-.22-.15-.38-.43-.48-.84l-.21-.97a5.1 5.1 0 0 0-.22-.71c-.08-.21-.2-.37-.34-.49s-.35-.17-.62-.17h-1.18l-.03-.17Z"/><path d="M43 25v.2c-.63.02-1 .2-1 .85v4.9c0 .66.37.82 1 .85v.2h-3v-.2c.64-.03 1-.19 1-.85v-4.9c0-.65-.36-.83-1-.85V25h3ZM47.7 25l3.59 8.17c.12.31.35.61.71.63v.2h-2.74v-.2c.62-.02.88-.2.62-.82l-2.92-6.78.17-.18-1.76 4.27c-.13.3-.2.54-.23.74-.07.62.38.76.92.77v.2H44v-.2c.45-.1.7-.52.87-.91L47.34 25h.36Zm1.11 4.17v.2h-3.16l.1-.2h3.06Z"/><path d="M10 35.5V35h35v.5H10ZM23.5 22H23v-2h.5v2ZM25 22h-.5v-4h.5v4ZM26.5 22H26v-6h.5v6ZM28 22h-.5v-8h.5v8ZM29.5 22H29v-6h.5v6ZM31 22h-.5v-4h.5v4ZM32.5 22H32v-2h.5v2Z" fill="#AD9557"/></svg>