<!-- by TradingView --><svg width="56" height="56" viewBox="0 0 56 56" xmlns="http://www.w3.org/2000/svg"><path fill="#F0F3FA" d="M0 0h56v56H0z"/><path d="M19.5 26a3.5 3.5 0 0 0 3.5-3.5h28V33H5V22.5h11a3.5 3.5 0 0 0 3.5 3.5Z" fill="#D9D9D9"/><path fill-rule="evenodd" d="M28.5 27.5v1h-2.01l-.13-.25a.41.41 0 0 0-.1-.04 1.87 1.87 0 0 0-.6-.08c-.23 0-.4.1-.52.24-.13.16-.22.4-.22.73 0 .36.07.65.2.84.1.16.25.27.54.27.56 0 .77-.3.8-.38l.12-.33h2.12l-.23.66c-.35 1-.93 1.61-1.6 1.95-.64.33-1.31.39-1.82.39a3.98 3.98 0 0 1-2.76-1.32v1.32h-9.76v-1.8l.28-.13a.45.45 0 0 0 .13-.12c.05-.07.06-.11.06-.13V28.7a.38.38 0 0 0-.09-.11c-.05-.05-.17-.12-.44-.12-.22 0-.37.1-.47.23v1.55l.04.1c.03.06.08.1.16.14l.3.13v1.88h-5v-1.74l.35-.11c.13-.04.34-.13.5-.24a.68.68 0 0 0 .15-.14V28a1.24 1.24 0 0 0-.19-.21c-.12-.11-.23-.15-.31-.15h-.5V25.5H12v.48c.48-.28 1.1-.47 1.89-.47.59 0 1.07.14 1.46.38.38.24.63.56.8.88.33.61.35 1.24.35 1.36v2.06l.14.14c.11.1.26.17.43.2l.28.03c.13-.05.32-.14.47-.25.16-.13.18-.2.18-.2v-.94a1.39 1.39 0 0 0-.2-.26c-.13-.12-.23-.16-.3-.16H17V26.5h4.5v2.47a3.6 3.6 0 0 1 3.45-3.42c.73 0 1.34.19 1.73.38a3.67 3.67 0 0 1 .52-.33c.1-.04.26-.1.43-.1.34 0 .56.2.69.37.11.17.16.35.18.48v.03-.88H30a.58.58 0 0 0 .1-.06c.08-.06.17-.15.26-.27.17-.24.32-.63.32-1.17v-.5H33v2h9v4.52c.06.1.14.2.23.3.14.16.24.19.27.19h.18v-.78h.95a2.1 2.1 0 0 1-1.13-1.85c0-.86.44-1.47.96-1.85.51-.36 1.13-.53 1.58-.53a2.54 2.54 0 0 1 1.3.4l.22-.4h1.8v2.7h-.84c.52.37.98.96.98 1.85 0 .9-.42 1.53-.97 1.92-.53.38-1.17.53-1.67.53a2.95 2.95 0 0 1-1.43-.4l-.17.32H43v.08h-4.5v-.26c-.4.16-.87.25-1.42.25-.59 0-1.07-.14-1.45-.38a2.28 2.28 0 0 1-.8-.88 2.82 2.82 0 0 1-.2-.49 3.7 3.7 0 0 1-.59.86c-.45.49-1.11.9-1.98.9-1.03 0-1.7-.4-2.1-.94a2.6 2.6 0 0 1-.48-1.5V27.5h-.98Zm6 .3v1.7h-1.45l-.05.19V27.5h1a.93.93 0 0 1 .5.3Zm3.5 2.02c.02.06.05.1.08.12.04.04.15.11.42.11v-2.27a.39.39 0 0 0-.22-.24L38 27.4v2.41Zm-16.5-.6V30a1.14 1.14 0 0 0 .2.18c-.12-.3-.19-.62-.2-.97Z" fill="#fff"/><path fill="#E27032" d="M5 33.5h46V36H5z"/><circle cx="19.5" cy="22.5" r="2.5" fill="#E8712D"/><path d="M22.96 22h28v-2H21.95c.54.53.9 1.22 1.01 2Zm-5.91-2H5.09v2h10.95a3.5 3.5 0 0 1 1.01-2Z" fill="#E87131"/><path opacity=".5" d="M29 34H7v1h22v-1Zm20 0H32v1h17v-1Z" fill="#fff"/><path d="M29 26v1h.98v3.06c0 .62.32 1.94 2.08 1.94 1.4 0 2.14-1.3 2.33-2h-.95c-.05.2-.25.5-.63.5-.3 0-.3-.17-.3-.32l-.01-.12V27h1v-1h-1v-2h-1.32c0 1.29-.74 1.93-1.1 2H29Zm13.5 5v1H39v-.6a3.1 3.1 0 0 1-1.92.6C35.04 32 35 30.03 35 29.86v-2.2c-.07-.2-.45-.6-1-.69V26h3.5v3.93c.08.2.26.62 1 .62.2 0 .36-.04.5-.12v-2.7a.88.88 0 0 0-.52-.66v-1.04h3.02v4.12c.13.24.51.86 1 .86ZM8 26v1.14c.49 0 .87.48 1 .71v2.44c0 .41-.67.73-1 .84V32h4v-1.05a.84.84 0 0 1-.5-.66v-1.74c.16-.29.47-.58.97-.58.74 0 .95.42 1.03.62v1.73c0 .31-.26.6-.47.7V32H17v-.98c-.55-.08-.93-.5-1-.7v-2.2c0-.16-.07-2.11-2.11-2.11-1.27 0-2.03.57-2.39 1.05V26H8Zm9.5 2.25V27H21v3.12c.02.17.41.55.8.72V32h-4.3v-.96c.34-.12 1-.47 1-.92v-1.08c-.13-.26-.5-.79-1-.79Zm9.3-.25H28v-1.59c-.02-.14-.11-.41-.37-.41s-.7.36-.9.55a3.2 3.2 0 0 0-1.78-.5c-1.13 0-2.95 1.04-2.95 3.05s2.09 2.9 3.05 2.9c.95 0 2.33-.22 2.95-2h-1.07c-.1.3-.52.71-1.27.71-.93 0-1.24-.8-1.24-1.61 0-.82.46-1.47 1.24-1.47.63 0 1.02.15 1.13.37Zm16.38 3.92v-1.69h1.28c.1.16.41.5.94.5.67 0 .72-.29.72-.5 0-.21-.34-.34-.96-.47-.62-.12-2.16-.54-2.16-1.88 0-1.33 1.34-1.88 2.04-1.88.57 0 1.22.4 1.47.6l.34-.6h1v1.7h-1.3c-.11-.19-.46-.55-.92-.55-.59 0-.68.24-.68.4 0 .14.26.28.91.47h.04c.67.2 2.1.62 2.1 2.03 0 1.44-1.32 1.95-2.14 1.95a3.1 3.1 0 0 1-1.63-.62l-.28.54h-.77Z" fill="#842440"/><path fill-rule="evenodd" d="M29.98 27v3.06c0 .62.32 1.94 2.08 1.94 1.27 0 2-1.08 2.27-1.8l.06-.2h-.95c-.05.2-.25.5-.63.5-.3 0-.3-.17-.3-.32l-.01-.12V27h1v-1h-1v-2h-1.32c0 1.29-.74 1.93-1.1 2H29v1h.98Zm-.78-.2h.98v3.26c0 .28.08.72.34 1.08.26.35.71.66 1.54.66.63 0 1.12-.3 1.47-.68.28-.29.47-.63.58-.92h-.54c-.1.23-.35.5-.76.5-.18 0-.34-.06-.43-.2-.07-.11-.07-.24-.07-.3V30.1l-.01-.03V26.8h1v-.6h-1v-2h-.92a2.64 2.64 0 0 1-.45 1.37c-.25.36-.56.58-.81.63h-.92v.6ZM39 32h3.5v-1c-.49 0-.87-.6-1-.85v-4.12h-3.02v1.04c.38.16.5.5.52.66v2.7c-.14.08-.3.12-.5.12-.74 0-.92-.41-1-.62V26H34v.98c.55.08.93.5 1 .7v2.2c0 .16.04 2.11 2.08 2.11A3.19 3.19 0 0 0 39 31.4v.6Zm-4.8-5.18c.24.06.45.18.6.3.2.16.34.34.39.49l.01.03v2.23c0 .07 0 .57.25 1.03.12.23.3.45.55.62.26.16.6.27 1.08.27.83 0 1.41-.25 1.8-.55l.32-.24v.8h3.1v-.62a1.25 1.25 0 0 1-.58-.37c-.19-.2-.33-.43-.4-.56l-.02-.04v-3.98h-2.62v.72c.37.21.5.57.52.76v2.84l-.1.06a1.3 1.3 0 0 1-.6.14c-.41 0-.7-.12-.88-.28a1.17 1.17 0 0 1-.3-.47l-.02-.03V26.2h-3.1v.62ZM11.5 26H8v1.14c.49 0 .87.48 1 .71v2.44c0 .41-.67.73-1 .84V32h4v-1.05a.84.84 0 0 1-.5-.66v-1.74c.16-.29.47-.58.97-.58.74 0 .95.42 1.03.62v1.73c0 .31-.26.6-.47.7V32H17v-.98c-.55-.08-.93-.5-1-.7v-2.2c0-.16-.07-2.11-2.11-2.11a2.98 2.98 0 0 0-2.39 1.05V26Zm5.3 5.18a1.64 1.64 0 0 1-.6-.3 1.23 1.23 0 0 1-.39-.49l-.01-.03v-2.23c0-.07-.02-.56-.27-1.03-.12-.23-.3-.45-.56-.62-.26-.16-.6-.27-1.08-.27-1.2 0-1.9.54-2.23.97l-.36.48V26.2H8.2v.76c.22.05.42.17.57.3.2.16.33.36.4.5l.03.04v2.49c0 .31-.24.55-.46.7a2.7 2.7 0 0 1-.54.28v.53h3.6v-.73a1.05 1.05 0 0 1-.5-.76V28.5l.03-.05c.18-.33.54-.68 1.14-.68.41 0 .7.12.9.28.18.16.27.35.32.47l.01.03v1.77c0 .21-.09.4-.2.55-.08.1-.17.2-.27.26v.67h3.57v-.62Zm4.2-1.06V27h-3.5v1.25c.5 0 .87.53 1 .79v1.08c0 .45-.66.8-1 .92V32h4.3v-1.16c-.39-.17-.78-.55-.8-.72Zm.6.85a2.45 2.45 0 0 1-.68-.57.56.56 0 0 1-.12-.26V27.2h-3.1v.88c.23.05.43.18.57.32.2.19.34.4.4.55l.03.04v1.13c0 .32-.23.58-.45.74-.18.14-.38.24-.55.31v.63h3.9v-.83Zm5.15-4.16-.13-.1a3 3 0 0 0-1.67-.46c-.51 0-1.2.24-1.77.72a2.74 2.74 0 0 0-.98 2.13c0 .93.48 1.6 1.08 2.04a3.3 3.3 0 0 0 1.77.66c.46 0 1-.05 1.5-.31.45-.23.86-.61 1.16-1.29h-.65c-.2.35-.66.71-1.4.71-.53 0-.9-.23-1.14-.59-.22-.34-.3-.8-.3-1.22 0-.45.12-.86.37-1.17.25-.31.62-.5 1.07-.5.33 0 .6.04.83.11.16.06.3.14.4.26h.91v-1.38c0-.04-.03-.1-.06-.15-.03-.05-.07-.07-.11-.07-.02 0-.07 0-.14.04l-.22.13c-.16.1-.3.24-.4.32l-.12.12Zm1.25-.4V28h-1.2c-.12-.22-.5-.37-1.14-.37-.78 0-1.24.65-1.24 1.47s.3 1.61 1.24 1.61c.75 0 1.16-.41 1.27-.71H28l-.08.2c-.65 1.6-1.95 1.8-2.87 1.8-.96 0-3.05-.89-3.05-2.9s1.82-3.05 2.95-3.05c.9 0 1.57.33 1.79.5.19-.19.63-.55.89-.55s.35.27.37.41Zm18.35.08a2.6 2.6 0 0 0-1.3-.49c-.71 0-2.05.55-2.05 1.88 0 1.34 1.54 1.76 2.16 1.88.62.13.96.26.96.47 0 .21-.05.5-.72.5a1.1 1.1 0 0 1-.94-.5h-1.28v1.69h.77l.28-.54.17.12c.33.21.91.5 1.46.5.82 0 2.14-.51 2.14-1.95 0-1.41-1.43-1.83-2.1-2.02l-.04-.01c-.65-.2-.91-.33-.91-.48 0-.15.1-.4.68-.4.46 0 .81.37.92.55h1.3V26h-1l-.34.6-.16-.11Zm.62-.29-.4.71-.18-.14c-.12-.1-.33-.24-.58-.36-.25-.12-.53-.21-.77-.21-.3 0-.78.12-1.17.4-.38.28-.67.7-.67 1.28 0 .58.33.96.75 1.23.44.27.95.4 1.25.46.31.06.57.13.76.21.17.08.36.22.36.45 0 .12-.01.31-.17.47-.15.15-.4.22-.75.22-.53 0-.88-.28-1.05-.49h-.97v1.29h.45l.33-.64.2.14c.11.1.35.24.62.37.28.12.6.21.88.21.38 0 .87-.12 1.26-.4.39-.27.68-.7.68-1.35a1.5 1.5 0 0 0-.71-1.3c-.41-.29-.9-.43-1.24-.53l-.04-.01c-.33-.1-.58-.18-.74-.27a.8.8 0 0 1-.22-.15.36.36 0 0 1-.1-.25c0-.12.04-.28.2-.4.14-.13.36-.2.68-.2.28 0 .53.12.71.25.13.1.24.2.32.3h1V26.2h-.69Z"/></svg>