<!-- by TradingView --><svg width="56" height="56" viewBox="0 0 56 56" fill="none" xmlns="http://www.w3.org/2000/svg">
<rect width="56" height="56" fill="#ED1C24"/>
<rect x="12" y="16" width="32" height="24" fill="#2A9A48"/>
<path d="M41 28C41 33.5228 39.0647 38 28 38C19.0388 38 15 33.5228 15 28C15 22.4772 19.4595 18 28 18C35.1797 18 41 20.1525 41 28Z" fill="#FAF6F8"/>
<path fill-rule="evenodd" clip-rule="evenodd" d="M38.9162 26H31.6966C31.076 24.4738 29.6617 24 28.0162 24C25.3777 24 24 25.7909 24 28C24 30.2092 25.2478 32 28.0162 32C30.3072 32 31.3313 31.1956 31.7576 30H38.965C38.4049 33.4505 35.9927 36 28.0545 36C20.4344 36 17 32.4183 17 28C17 23.5817 20.7922 20 28.0545 20C33.4536 20 37.9486 21.3467 38.9162 26Z" fill="#EC1A23"/>
</svg>
