<!-- by TradingView --><svg width="56" height="56" viewBox="0 0 56 56" xmlns="http://www.w3.org/2000/svg"><path fill="#F0F3FA" d="M0 0h56v56H0z"/><path d="M33 10v4.57c-.29 0-.58.01-.86.03l-.34-4.56c.4-.03.8-.04 1.2-.04ZM21.5 26c0-.29.01-.58.03-.86l-4.49-.34c-.03.4-.04.8-.04 1.2h4.5ZM31.29 14.7l-.68-4.52c-.8.12-1.57.3-2.33.53l1.35 4.37c.54-.17 1.1-.3 1.66-.38ZM28.82 15.36l-1.67-4.26c-.74.3-1.46.64-2.15 1.04l2.29 3.96c.49-.29 1-.53 1.53-.74ZM26.56 16.55 24 12.78c-.66.45-1.29.95-1.87 1.5l3.1 3.34c.43-.39.87-.74 1.34-1.07ZM24.62 18.23l-3.35-3.11c-.54.58-1.04 1.2-1.5 1.87l3.78 2.57c.33-.47.68-.91 1.07-1.33ZM23.1 20.29l-3.96-2.3c-.4.7-.74 1.42-1.04 2.16l4.26 1.67c.2-.53.45-1.04.74-1.53ZM22.08 22.63l-4.37-1.35a15.9 15.9 0 0 0-.53 2.33l4.52.68c.08-.57.21-1.12.38-1.66ZM21.5 26H17c0 8.28 7.72 16 16 16v-4.5c-6.5 0-11.5-5.5-11.5-11.5Z" fill="#307AC6"/><path d="M17 26h-4a20 20 0 0 0 20 20v-4c-8 0-16-8-16-16Z"/><path d="M33 14.5c-6.5 0-11.5 5.42-11.5 11.5 0 7 5.42 11.5 11.5 11.5v-6a5.5 5.5 0 0 1 0-11v-6Z" fill="#FFB035"/></svg>