<!-- by TradingView --><svg width="56" height="56" viewBox="0 0 56 56" xmlns="http://www.w3.org/2000/svg"><path fill="#F0F3FA" d="M0 0h56v56H0z"/><path d="M19.5 17A11.5 11.5 0 0 0 8.01 29h-1L7 28.5a12.5 12.5 0 1 1 24.99.5h-1l.01-.5A11.5 11.5 0 0 0 19.5 17Zm10.49 12 .01-.5a10.5 10.5 0 1 0-20.99.5h1l-.01-.5a9.5 9.5 0 1 1 18.99.5h1Zm-2 0 .01-.5a8.5 8.5 0 1 0-16.99.5h1a7.5 7.5 0 1 1 14.97 0h1Zm-2 0 .01-.5a6.5 6.5 0 1 0-12.98.5h1a5.5 5.5 0 1 1 10.96 0h1Zm-2.02 0a4.5 4.5 0 1 0-8.95 0h1.02a3.5 3.5 0 1 1 6.93 0h1Zm-2.02 0a2.51 2.51 0 0 0-2.45-3 2.5 2.5 0 0 0-2.45 3h1.04a1.5 1.5 0 1 1 2.82 0h1.04Z" fill="#2B2A29"/><path d="m23.01 28-.01.5a12.5 12.5 0 1 0 24.99-.5h-1l.01.5a11.5 11.5 0 1 1-22.99-.5h-1Zm2 0-.01.5a10.5 10.5 0 1 0 20.99-.5h-1l.01.5a9.5 9.5 0 1 1-18.99-.5h-1Zm2 0-.01.5a8.5 8.5 0 1 0 16.99-.5h-1l.01.5a7.5 7.5 0 1 1-14.98-.5h-1Zm2 0-.01.5a6.5 6.5 0 1 0 12.98-.5h-1l.02.5a5.5 5.5 0 1 1-10.98-.5h-1Zm2.02 0a4.5 4.5 0 1 0 8.94 0h-1a3.5 3.5 0 1 1-6.93 0h-1.01Zm2.02 0a2.51 2.51 0 0 0 2.45 3 2.5 2.5 0 0 0 2.45-3h-1.04a1.5 1.5 0 1 1-2.82 0h-1.04Z" fill="#2B2A29"/></svg>