<!-- by TradingView --><svg width="56" height="56" viewBox="0 0 56 56" xmlns="http://www.w3.org/2000/svg"><path fill="#F0F3FA" d="M0 0h56v56H0z"/><path d="M29 9.36s-4.54-.53-5.94 6.64c0 0-1.06-8.86 5.94-6.64ZM26 18s2.03 1.98 2 5c-.01.91-.6 1.92-1 3 0 0 3-1.33 3-3.87S26 18 26 18Z" fill="#CE1C0E"/><path d="M23.63 17.93s2.09-2.6 3.76-2.6S32 16.8 32 21c0 4.2-4.32 6.55-6.57 8.14-2.25 1.59-5.43 3.88-5.43 6.93C20 39.1 21 40 21 40s-.77-3.96.02-5.43c.79-1.48 3.47-3.93 6.82-5.83S33 23.9 33 21.06c0-2.82-1-4.06-1-4.06s2 2.43 2 5.17c0 2.73-.49 7.14-6 12.83 0 0 1.5 0 4-1 0 0 .5 2-4 4l3 .36s-.91 1.68-3.85 3.27S24 46 24 46s1.43-1.68 4.62-2.2c0 0-3.21 3.92.38 5.2 0 0-.97-.78-1-1.84 0-.17.02-.36.08-.54.45-1.33 3.97-3.62 3.97-3.62H28.5s2.69-1.64 3.46-3.14C32.74 38.36 34 36 34 36h-.5s1.38-2.04 1.5-6c0 0-.52-.4-1.5 1 0 0 2.5-4.23 2.5-8.8S32.55 13 28.23 13c-4.33 0-4.97 3.51-4.6 4.93Z" fill="#FEB70D"/></svg>