<!-- by TradingView --><svg width="56" height="56" viewBox="0 0 56 56" xmlns="http://www.w3.org/2000/svg"><path fill="#F0F3FA" d="M0 0h56v56H0z"/><path fill="#F4BDB8" d="M15 15h26v26H15z"/><path fill-rule="evenodd" d="m8 28 6-6v-8h8l6-6 6 6h8v8l6 6-6 6v8h-8l-6 6-6-6h-8v-8.14L8 28Zm7.06 0L19 24v-5h5l4-4 4 4h5v5l4 4-4 4v5h-5l-4 4-4-4h-5v-5l-3.94-4Z"/><path d="M19 26h18v4H19v-4Z" fill="#2D2321" fill-opacity=".7"/><path d="M16.2 19H15v-2.76c0-.68.56-1.24 1.24-1.24H19v1.2a2.8 2.8 0 0 1-2.8 2.8ZM13.18 30.1l-.85.9-1.96-2.07a1.38 1.38 0 0 1 0-1.86L12.33 25l.85.9a3.1 3.1 0 0 1 0 4.2ZM39.8 19H41v-2.76c0-.68-.56-1.24-1.24-1.24H37v1.2a2.8 2.8 0 0 0 2.8 2.8ZM30.1 13.18l.9-.85-2.07-1.96a1.38 1.38 0 0 0-1.86 0L25 12.33l.9.85a3.1 3.1 0 0 0 4.2 0ZM16.2 37H15v2.76c0 .68.56 1.24 1.24 1.24H19v-1.2a2.8 2.8 0 0 0-2.8-2.8ZM25.9 42.82l-.9.85 2.07 1.96c.51.5 1.35.5 1.86 0L31 43.67l-.9-.85a3.1 3.1 0 0 0-4.2 0ZM39.8 37H41v2.76c0 .68-.56 1.24-1.24 1.24H37v-1.2a2.8 2.8 0 0 1 2.8-2.8ZM42.82 25.9l.85-.9 1.96 2.07c.5.51.5 1.35 0 1.86L43.67 31l-.85-.9a3.1 3.1 0 0 1 0-4.2Z" fill="#D68D3F"/></svg>