<!-- by TradingView --><svg width="56" height="56" viewBox="0 0 56 56" xmlns="http://www.w3.org/2000/svg"><path fill="#F0F3FA" d="M0 0h56v56H0z"/><path d="m28 9-13 8v22.5c0 2.47 2.06 4.5 4.58 4.5H28V27h-6v5c.7 0 1 .56 1 1.24v4.52c0 .68-.57 1.24-1.26 1.24h-1.48c-.7 0-1.26-.56-1.26-1.24V23.72c0-2.05 1.27-3.72 3.35-3.72H23v2h5V9Z" fill="#30703F"/><path d="m30 9 11 8v15h-6.88A4.08 4.08 0 0 0 30 36v2c0 2.2 1.86 4 4.12 4H41v2H28V27h9.57c.79 0 1.43-.67 1.43-1.43v-2.24c0-.76-.64-1.33-1.43-1.33H30V9Z" fill="#88898D"/><path d="M36 34a3 3 0 1 1 0 6 3 3 0 0 1 0-6Z" fill="#30703F"/></svg>