<!-- by TradingView --><svg width="56" height="56" viewBox="0 0 56 56" xmlns="http://www.w3.org/2000/svg"><path fill="#F0F3FA" d="M0 0h56v56H0z"/><path d="M21 40.84c-.34-.2-.68-.4-1-.62V39h1v1.84Zm2 .93c-.34-.13-.67-.27-1-.42V38h1v3.77Zm2 .58a14.2 14.2 0 0 1-1-.25V37h1v5.35Zm2 .28a14.3 14.3 0 0 1-1-.1V36h1v6.63Zm2 0c-.33.03-.66.04-1 .04V35h1v7.63Zm2-.28c-.33.07-.66.13-1 .18V34h1v8.35Zm2-.58c-.33.12-.66.23-1 .33V32h1v9.77Zm2-.93c-.33.18-.66.35-1 .51V30h1v10.84Zm2-1.36c-.32.26-.66.51-1 .74V28h1v11.48Z" fill="url(#a3gspbsei)"/><path d="M28 9h1v9h-1V9Zm2 1h1v9h-1v-9Zm3 1h-1v8h1v-8Z" fill="url(#b3gspbsei)"/><path d="M26 19h1v15h-1V19Zm2 1h1v13h-1V20Zm3 1h-1v10h1V21Zm1 0h1v8h-1v-8Zm3-1h-1v7h1v-7Z" fill="url(#c3gspbsei)"/><path d="M27 12.03a16 16 0 1 0 7 1.13v1.09a15 15 0 1 1-7-1.22v-1Z" fill="#39B54A"/><defs><linearGradient id="a3gspbsei" x1="23.5" y1="30.5" x2="28" y2="40" gradientUnits="userSpaceOnUse"><stop stop-color="#D9D9D9" stop-opacity="0"/><stop offset="1" stop-color="#0060AE"/></linearGradient><linearGradient id="b3gspbsei" x1="30.5" y1="9" x2="30.5" y2="19" gradientUnits="userSpaceOnUse"><stop stop-color="#83D2F6" stop-opacity="0"/><stop offset="1" stop-color="#82D1F5"/></linearGradient><linearGradient id="c3gspbsei" x1="30.5" y1="17" x2="30.5" y2="27" gradientUnits="userSpaceOnUse"><stop stop-color="#01ABE8" stop-opacity="0"/><stop offset="1" stop-color="#00AAE7"/></linearGradient></defs></svg>