<!-- by TradingView --><svg width="56" height="56" viewBox="0 0 56 56" xmlns="http://www.w3.org/2000/svg"><path fill="#F0F3FA" d="M0 0h56v56H0z"/><path d="M17.2 31.72c-.13.45.07.27-.44.4.12-.59-.08-.35.43-.4Zm18.44-.26-.23.08.03-.32c.15-.35.3-.5.16-1a.98.98 0 0 0-.55-.22c-.34 0-.62.06-1.03.3.33-.5.17-.86-.12-.86-.18 0-.41.14-.62.45-.54.85-.44.63-1.35 1.07-.95.46-2.45 1.1-3.8 1.04.1-.53.29-.66.57-1 .78-.05 1.19.25 2.11-.05.76-.24 1.08-.65 1.07-1.01 0-.4-.42-.76-1.1-.76-.61 0-1.44.28-2.37 1.06-.71.59-2.25 1.6-3.28 1.76.29-1.62 3.23-4.74 4.36-6.06.5-.6 1.43-1.33 1.51-1.77a.82.82 0 0 0-.47-.17c-.58-.01-1.05.7-1.38 1.08-1 1.12-2.14 2.22-3.05 3.46-.41.57-.84 1.32-1.27 1.74-.4-.17-.66-.28-.92-.28-.35 0-.7.2-1.42.78-.54.43-1.53 1.22-2.17 1.36.34-1.9 2.6-4.66 3.68-6.18.37-.52 1-1.21 1-1.61a.27.27 0 0 0-.07-.2c-.1-.11-.21-.15-.31-.15-.44.02-.88.9-1.31 1.5-.41.56-.87 1.19-1.33 1.85-1.7 2.52-1.64 3.49-3.28 3.63-.08-1.09-.49-1.98-.94-1.98-.32 0-.66.18-.92.4-.55.5-.83 1.8-.84 2.46-.01.63.23 1.14.71 1.14.3 0 .68-.19 1.16-.65.46-.46.5-.66 1.68-.78 0 .6-.18 1.28.52 1.41.09.02.17.02.25.02.45-.02.84-.34 1.28-.48.23.25.46.47.8.48.16 0 .35-.05.59-.18.48-.26.76-.6 1.17-.81l.12.2c.23.47.5.78.8.79.58.02 1.32-.72 2.22-1 .29.65.76 1 1.32 1 1.01 0 2.26-.89 3.12-1.1l.38-.1-.09.33-.03.3c0 .26.08.55.3.57l.2-.01c.22-.04.48-.59.7-.81.4-.46.86-.89 1.46-1.18-.06.38-.2.44-.26.76-.08.51 0 .54.27.75.11.08.24.11.38.11.52-.01 1.13-.56 1.47-.78 1.36-.9 1.48-.34 1.48-1.3-.86-.31-1.72.6-2.36.92Zm-12.96.55c.22-.47.28-.43.68-.72.3-.23.35-.49.79-.5a4.43 4.43 0 0 1-1.47 1.22Zm-5.46-.88c.08-.54.18-1.3.75-1.36l-.1 1.41-.65-.05Zm12.32-.69c.2-.19.2-.22.53-.36.67-.28.61-.04.71.04-.46.28-.64.34-1.24.32ZM15.06 27.84c-.01.44-.19.48-.57.82l-2.25 1.96a28.54 28.54 0 0 1-3.52 2.66c-1.1.67-1.93.7-2.53.72-.93.03-1.19-.44-1.19-1.39a7.7 7.7 0 0 1 1-3.5c1.81-3.51 5.2-6.84 8.84-7.97a7.25 7.25 0 0 1 2.38-.45c1.32.07.66 1.42 1.62 1.31.1-.2.15-.4.16-.57.02-.8-.95-1.43-2.24-1.43-.46 0-.96.06-1.47.17-4.11.92-7.73 4.26-9.77 7.87-.56 1-1.5 3.03-1.52 4.47C3.98 34.1 4.76 35 6.2 35c.29 0 .61-.04.96-.13 2.97-.8 6.56-4.66 7.29-4.97-.38.87-1.4 2.2-1.9 3.1-.17.3-1.53 2.22-1.55 2.5l.1.39c.07.07.15.11.23.11.56 0 1.5-1.71 2.13-2.78.38-.67 2.54-3.64 2.54-5.13 0-.64-.34-1.08-1.26-1.09-.16 0-.35 0-.56.04-.73.1-1.32.28-1.95.48-1.06.34-1.4.27-1.58.8.65 1.05 3.09-1.03 4.41-.48Z" fill="#C08D31"/><path d="m42.35 23.44-2.6 6.02a37.2 37.2 0 0 0-1.67 5.16c-.04.18-.08.4-.08.62 0 .12.01.23.05.35.05.16.1.27.25.34.1.04.18.07.24.07.3 0 .11-.71.74-2.63a52.2 52.2 0 0 1 2.73-6.83c.23-.46 1.86-3.94 2.11-4.15.65-.55 4.07-.96 4.88-1.39-.01-.98-1.11-.46-1.74-.32-.7.15-1.42.35-2.15.46.1-.66.33-.7-.13-1.1-.72-.27-.95.9-1.44 1.43C43.1 21.94 38.48 23 37 24c.04.73.22.8.88.79.5-.31.07-.33.9-.6.78-.24 2.74-1.04 3.27-1.08l.45-.11-.15.44Z" fill="#C08D31"/><path d="M43.18 30.25c.38-.35.76-.5 1.43-.55-.22.48-.84.58-1.43.55Zm4.23.85c-.31-.66.4-1.72-.3-2.03a.68.68 0 0 0-.26-.07c-.48-.01-.34 1.14-.39 1.5a8.4 8.4 0 0 1-2.08 1.21c-.73.3-1.43.4-2.38.29.08-.46.08-.63.27-.97.93-.05 1.58.06 2.43-.35 1.36-.66 1.02-1.62-.09-1.68-.71-.04-1.75.29-2.85 1.31a3.02 3.02 0 0 0-.76 1.8c0 .5.34.88 1.17.89.62 0 1.53-.2 2.77-.73.29-.12 1.44-.82 1.66-.6.4.44-.95.81-.8 1.63.11.05.21.07.3.08.58.04.83-.66 1.31-.96.79-.18.93.84 3.89-.83.37-.21.63-.27.69-.56a.9.9 0 0 0 0-.27c-.9-.37-2.2 1.37-3.99 1.24.08-.57 1.37-2.15 1.66-2.79-.26-.17-.48-.23-.66-.21-.61.06-.9 1.71-1.59 2.1Z" fill="#C08D31"/></svg>