<!-- by TradingView --><svg width="56" height="56" viewBox="0 0 56 56" xmlns="http://www.w3.org/2000/svg"><path fill="#2E2E2C" d="M0 0h56v56H0z"/><path d="M40.5 38s-4.12 3-9.66 3c-7.54 0-13.82-5.01-13.82-13.06C17.02 19.13 23.3 16 28.96 16 33.66 16 40 19.3 40 26.72c0 7.41-6.54 10.1-10.99 10.28v1c.22.05.72.01 1.52 0 3.93-.06 13.5-1.19 13.5-11.7 0-12.43-9.5-15.3-15.35-15.3S12 14.16 12 27.65C12 40.23 23.3 44 29.11 44c4.32 0 7.93-1.56 11.9-5.53l-.5-.47Z" fill="url(#a24ys1v3k)"/><defs><linearGradient id="a24ys1v3k" x1="45.44" y1="25.14" x2="10.59" y2="29.85" gradientUnits="userSpaceOnUse"><stop stop-color="#FEBB10"/><stop offset=".8" stop-color="#F26722"/></linearGradient></defs></svg>