<!-- by TradingView --><svg width="56" height="56" viewBox="0 0 56 56" xmlns="http://www.w3.org/2000/svg"><path fill="#EAEAEA" d="M0 0h56v56H0z"/><path d="M13 20H6v16h7v-9.5s0-1.5 1.5-1.5 1.5 1.5 1.5 1.5V36h6v-9.66S22 25 23.5 25s1.5 1.5 1.5 1.5V36h6V25.4c0-4.36-3-5.4-5.5-5.4a7.42 7.42 0 0 0-4.76 1.6s-.86-1.6-4.09-1.6c-1.46 0-2.7.4-3.65.87V20Z" fill="#EE312F"/><path fill-rule="evenodd" d="M50 20h-6v2s-.91-2-4.13-2C36.66 20 33 22.32 33 27.5c0 5.19 5.12 7.5 7.5 7.5s3.5-2 3.5-2v2.6s-.46 1.4-2 1.4-2-1-2-1h-6c0 1.62.36 5 8 5s8-5 8-5V20Zm-6 10.1v-4.45s-1.64-1.69-2.6-1.65c-.94 0-2.4.33-2.4 3 0 2.68 1.57 4 2.92 4 1.35 0 2.08-.9 2.08-.9Z" fill="#1356A5"/><path d="m40 32-5-1s-.24 1-2.61 1C29.2 32 29 29 29 29h12v-.1c0-1.82.02-8.75-8.98-8.75-8.36 0-8.1 5.58-7.99 8.01l.02.62c0 1.89.37 7.22 8.49 7.22 8.1 0 7.46-4 7.46-4Zm-4-5h-7s.1-3 3.48-3S36 27 36 27Z" fill="#F0F3FA"/></svg>