<!-- by TradingView --><svg width="56" height="56" viewBox="0 0 56 56" xmlns="http://www.w3.org/2000/svg"><path fill="#F0F3FA" d="M0 0h56v56H0z"/><path d="M34.57 24.43a7.96 7.96 0 0 1 0 9.14L36 35l-2 2-1.43-1.43a7.96 7.96 0 0 1-9.14 0L22 37l-2-2 1.43-1.43a7.96 7.96 0 0 1 0-9.14L20 23l2-2 1.43 1.43a7.96 7.96 0 0 1 9.14 0L34 21l2 2-1.43 1.43Z" fill="#BEBFC7"/><path fill-rule="evenodd" d="M34.57 24.43a7.96 7.96 0 0 1 0 9.14L36 35l-2 2-1.43-1.43a7.96 7.96 0 0 1-9.14 0L22 37l-2-2 1.43-1.43a7.96 7.96 0 0 1 0-9.14L20 23l2-2 1.43 1.43a7.96 7.96 0 0 1 9.14 0L34 21l2 2-1.43 1.43Zm-2.04-2.39L34 20.58 36.42 23l-1.46 1.47a8.26 8.26 0 0 1 0 9.06L36.42 35 34 37.42l-1.47-1.46a8.26 8.26 0 0 1-9.06 0L22 37.42 19.58 35l1.46-1.47a8.26 8.26 0 0 1 0-9.06L19.58 23 22 20.58l1.47 1.46a8.26 8.26 0 0 1 9.06 0Z"/><path d="M18 28h1v-1h18v1h1v3h-1v1H19v-1h-1v-3Z" fill="url(#adsge3wbl)"/><path d="M17.7 27.7h1v-1h18.6v1h1v3.6h-1v1H18.7v-1h-1v-3.6ZM19 31v1h18v-1h1v-3h-1v-1H19v1h-1v3h1Z"/><path d="M17 29h1v1h-1v-1ZM38 29h1v1h-1v-1Z" fill="#2B2B2A"/><path d="M20 29h16v1H20v-1Z" fill="#BE6142" fill-opacity=".7"/><path d="M24 39h8l-2-19h-4l-2 19Z" fill="#FFFF80"/><path d="m23.67 39.3 2.06-19.6h4.54l2.06 19.6h-8.66ZM32 39l-2-19h-4l-2 19h8Z"/><path d="M24.32 36h7.36l-1.05-10h-5.26l-1.05 10Z" fill="gray"/><path d="m23.98 36.3 1.12-10.6h5.8l1.12 10.6h-8.04Zm7.7-.3-1.05-10h-5.26l-1.05 10h7.36Z"/><path d="M25.68 23h4.64l-.21-2h-4.22l-.2 2Z" fill="#837F7E"/><path d="M30.65 23.3h-5.3l.27-2.6h4.76l.27 2.6Zm-.33-.3-.21-2h-4.22l-.2 2h4.63Z"/><path fill-rule="evenodd" d="M30 20h-4v-.48c0-1.93.91-3.52 2.02-3.52 1.1 0 1.98 1.55 1.98 3.44V20Zm-.83 0h-2.34v-.29c0-1.17.53-2.13 1.18-2.13.64 0 1.16.94 1.16 2.08V20Z" fill="#828282"/><path fill-rule="evenodd" d="M25.7 20.3v-.78c0-1 .24-1.94.63-2.63.4-.69.98-1.19 1.7-1.19.7 0 1.27.5 1.65 1.16.39.68.62 1.6.62 2.58v.86h-4.6Zm1.13-.6v.3h2.34v-.34c0-1.14-.52-2.08-1.16-2.08-.65 0-1.18.95-1.18 2.12Zm2.04 0v-.04c0-.53-.12-1-.3-1.32-.19-.34-.4-.46-.56-.46-.16 0-.38.13-.57.47-.19.34-.31.81-.31 1.35h1.74ZM26 20v-.48c0-1.93.91-3.52 2.02-3.52 1.1 0 1.98 1.55 1.98 3.44V20h-4Z"/><path d="m16.2 11 9.8 4.59-.2.41-9.8-4.59.2-.41ZM17.15 14 26 16.54l-.15.46L17 14.46l.15-.46ZM25.91 18 12 15.48l.09-.48L26 17.52l-.09.48ZM26 18.53l-9.98.47-.02-.53 9.98-.47.02.53ZM40 11.41 30.2 16l-.2-.41L39.8 11l.2.41ZM39 14.46 30.15 17l-.15-.46L38.85 14l.15.46ZM30 17.52 43.91 15l.09.48L30.09 18l-.09-.48ZM30.02 18l10.98.47-.02.53L30 18.53l.02-.53Z" fill="#C3C3BA"/><path d="M24.93 43.2s.66-2.14-2.15-3.29c-2.81-1.14-6.07-3.47-7.37-10.22 0 0-1.43.9-2.12-2.69 0 0-.37 4.1-1.91 2.53 0 0-1.67 5.88 2.03 10.58 3.7 4.7 8.02 5.18 9.77 4.78 1.75-.4 1.75-1.7 1.75-1.7ZM31.07 43.2s-.66-2.14 2.15-3.29c2.81-1.14 6.07-3.47 7.37-10.22 0 0 1.43.9 2.12-2.69 0 0 .37 4.1 1.91 2.53 0 0 1.67 5.88-2.03 10.58-3.7 4.7-8.02 5.18-9.77 4.78-1.75-.4-1.75-1.7-1.75-1.7Z" fill="#DCEB02" fill-opacity=".7"/><defs><linearGradient id="adsge3wbl" x1="24.5" y1="27" x2="28" y2="33" gradientUnits="userSpaceOnUse"><stop stop-color="#FDFDFB"/><stop offset=".47" stop-color="#FBFFD5"/><stop offset="1" stop-color="#fff"/></linearGradient></defs></svg>