<!-- by TradingView --><svg width="56" height="56" viewBox="0 0 56 56" xmlns="http://www.w3.org/2000/svg"><path fill="#F0F3FA" d="M0 0h56v56H0z"/><path d="M26.15 25.62c-1.2 0-1.15-1.2-1.15-2 .9 0 1.62.04 2.3-.31-.08.99-.9 2.3-1.15 2.3Zm-.67-6.23c.68.33 1.83-.13 1.83 1.61-.55-.37-.48-.18-1.16-.3-.27-.05-.38.14-.6-.26-.16-.3-.07-.74-.07-1.05ZM20.38 21H16.2l-1.57 3H21v1h-6.38c-.48.7-1.09 3.08-1.16 4h7.5c.17.68.56.1.58 1h-8.65l-1.45 5H24v1H11c-.1 1.2-.98 2.84-1 4h13.85c.28.15.05.85.27 1.5.5 1.55 1.33 1.13 2.88 1.5v-4.78c0-.96.21-.82.74-1.22.26 1.12.26 2.15.26 3.53v6.88c0 1.44 1 1.8 2.55 1.44.87.77.63.12.54 1.15.73-.06 1.04-.4 1.1-1.12.09-.92.14-1.14-.19-1.64V35c1.15 0 .66.04 1.08-.53-.58-.58-1.58-.47-2.72-.47.28-.4-.1-.32.4-.47l-.43-1c-1.34-.04-1.88-.5-1.87-.9.01-.34.4-.65 1.36-.65.3-1.21.4.23.73-.98h-1.82c-1.33-.97.67-.4 1.34-.6 1.62-.48 1.58-.31 2.93 0v-.92c-1.68 0-1.67-.44-3-.48.38-.79.02-.55-.18-1.43-.11.04-.07-.33-.55.2 0-1.64-.13-1.28-.8-2.3.67-.47 1.15-.86 1.15-2.09-.22-1.34 0-1.17 0-2.53-.64-.17-1.44-.82-2.04-1.12-.9-.42-1.34-.42-2.58-.42v-1.93l2-.73c-1.48-3.08.48 1.3 2.27.08 0-1.17-.16-1.96.3-3l.43-.67c0 1.93-.1 2.98.55 4.32 1.18-.09.61-.42 1.93 0 .6 0 1.38-.13 1.82.16.5.33 1.86 2.78 2 3.46h.37c0-2.9 2.36-2.81 3.33-4.25-1.13-.55-.91.32-1.95-.97-.44-.53-.86-1.36-1.38-1.73-.7-.47-3.37-1.5-4.3-1.72 0-1.25.08-1.05-.45-1.84.3-.44.3-.18.45-.73-.37-.24-.45-.45-.91-.45-1.08 0-.92 1.07-1.46 1.73 0-1-.1-1.51-.91-1.73.5-1.07-.6-1.85-1.28-2.31-1.25.84-1.53 1.49-1.27 2.57-.88.59-1.1 1.62-1.1 3.12L20.35 15c.39.75.73 2.55.73 3.7h-.18c0-.78-.94-2.1-1.27-2.7-2.12.65-2.2.68-2.62 1.54 1.79-.02 3.06 2.06 3.38 3.46Z" fill="#BE9B60"/><path d="M34.42 22.15c.56.3.23.08.57.58l-.76-.16c.13-.18.19-.15.19-.42Zm-2.5-.15v.58h-.77c.37-.52-.04-.42.77-.58Zm-1.92.87c0 1.04 1.44-.2 4.96.6.7.17 3.36 1.35 1.23-.48-.7-.6-2.35-3.14-5-1.38-.15.09-1.19 1.2-1.19 1.26Z" fill="#BE9B60"/><path d="M30 19.45v.67c1.81.63 3.87-.9 5.15 0 .72.51 1.17 1.56 1.85 1.88-.02-.71-.51-1.28-.97-1.79-1.52-1.84-3.62-1.14-6.03-.76ZM29.78 26.77h.63l.36-.41c-.2-.39-.22-.6-.74-.74-.45.29-.53.55-.25 1.15Z" fill="#BE9B60"/></svg>