<!-- by TradingView --><svg width="56" height="56" viewBox="0 0 56 56" xmlns="http://www.w3.org/2000/svg"><path fill="#FEDB00" d="M0 0h56v56H0z"/><path d="M28 18c13.27 0 24 4.95 24 11.06S41.24 40 28 40C14.73 40 4 35.17 4 29.06 4 22.96 14.76 18 28 18Z" fill="#F0F3FA"/><path fill-rule="evenodd" d="M51 28.9c0-6.03-10.3-10.4-23-10.4S5 22.87 5 28.9c0 6.02 10.3 10.6 23 10.6 12.72 0 23-4.58 23-10.6Zm-2 .1c0-5.52-9.4-10-21-10S7 23.48 7 29s9.4 10 21 10 21-4.48 21-10Z" fill="url(#acio2exw5)"/><path d="M27 17.84s-3.9-2.55-6 1.24c-.03 0 3.61 2.74 6-1.24Z" fill="#E30613"/><path d="m28.35 17.53-.5.83a5.43 5.43 0 0 1-2.4 2.27c-.88.4-1.76.43-2.51.31a5.98 5.98 0 0 1-2.57-1.09l-.07-.06c-.01-.01-.07-.07-.13-.16a1.8 1.8 0 0 1-.09-.16 1.79 1.79 0 0 1-.08-.42c.01-.11.08-.28.17-.44l-.04-.02a4.93 4.93 0 0 1 2.29-2.22 4.62 4.62 0 0 1 2.5-.32 6.72 6.72 0 0 1 2.6.94h.02V17l-.54.84-.15-.09a6.16 6.16 0 0 0-.75-.36c-1.28-.5-3.63-.97-5.1 1.69 0 0 .32.25.82.48l.05.02c1.08.49 2.98.92 4.55-.92a5.49 5.49 0 0 0 .58-.82l.55-.84.8.53Z" fill="#F0F3FA"/><path d="M29 17.84s3.9-2.55 6 1.24c.03 0-3.61 2.74-6-1.24Z" fill="#E30613"/><path d="m28.45 17 .55.84a6.53 6.53 0 0 0 .58.82c1.57 1.84 3.47 1.4 4.55.92l.05-.02a4.2 4.2 0 0 0 .82-.48c-1.47-2.66-3.82-2.2-5.1-1.69-.34.14-.6.27-.75.36l-.15.1-.55-.85h.01l.02-.01a3.82 3.82 0 0 1 .2-.12 7.03 7.03 0 0 1 2.4-.82c.75-.1 1.63-.07 2.5.32.89.4 1.68 1.1 2.3 2.22l-.05.02c.09.16.16.33.17.44 0 .13-.05.34-.08.42l-.09.16c-.06.09-.12.15-.13.16l-.07.06a1.7 1.7 0 0 1-.23.17 5.86 5.86 0 0 1-2.34.92c-.75.12-1.63.09-2.52-.31a5.43 5.43 0 0 1-2.4-2.27l-.5-.83.81-.53Z" fill="#F0F3FA"/><path d="M28 18s2.02 1.59 2 3.68c0 1.03-.6 2.18-2 3.32-.33-.3-2.03-1.43-2-3.32.02-1.01.42-2.24 2-3.68Z" fill="#009640"/><path d="M10.53 27.4s-.51.57-.51 2.1c0 0-.12.5.28.5H13l.5-.6.5.6h5.6s.4-.75.4-2.13C20 26.5 19 26 19 26l-.59 1s.5 1.38.59 2h-4.75s-.5-1.63-.97-4l-.74 1.31L13 29h-2.25c.06-.03-.28.06-.22-1.6Z" fill="#E30613"/><path fill-rule="evenodd" d="M23 28c-.88.72-1.06.67-1.06.67L21.47 30H25v-1.15c0-.55-.7-1.16-.7-1.16.7-.7.7-1.5.7-1.5l.38.18.62-1.01c-1.18-.58-1.2-1.1-1.2-1.1l-.8 1.27c.68.72 0 1.73 0 1.73-1.91-2.54-3.38-2.74-3.38-2.74s-.62.78-.62 1.3.53.78.53.78l1.41.75.27-.35.79 1Zm1 1-.34-1-.66 1h1Z" fill="#E30613"/><path d="m27.8 27-.37 1s.92 1 .94 1.4c.05.43-1.83 1.66-2.12 1.6H25s.75 1 2 1 2-2.14 2-2.94c0-.8-.81-1.86-1.2-2.06ZM30.19 31.23c-.43.1-1.08-.23-1.08-.23-.08.06-.11.12-.11.2.08.38.8.8 1.57.8.93 0 2-2 2-2H39l.52-.47-.14-.53H33s-.7-2-1.3-2c-.6 0-1.7 1.32-1.7 2.14 0 .85 2 .86 2 .86a4.05 4.05 0 0 1-1.81 1.23ZM31.44 28c.3.04.56.95.56.95-.53.19-.97-.22-1-.44 0-.22.15-.51.44-.51Z" fill="#E30613"/><path d="M39.98 27s-.42 2 .05 2h1.26s-.09-.37.02-.62c.12-.25 1.37-2.38 2.26-2.38.9 0 1.93 2 1.93 2.3-.5-.3-1.34-.3-1.98-.3-.56 0-1 .03-1.02.31-.03.31.54.69.8.69H46l-.78 1h-5.24s-.98-.22-.98-1.33v-.76l.98-.9ZM17 25.22l.93-1.22 1.07.82-.78 1.18-1.22-.78ZM38.25 31.67l.99-.76.93.73-.85.73-1.07-.7Z" fill="#E30613"/><path fill-rule="evenodd" d="m17.02 33.3-.62 2.93 1.69.42s.96.28 1.19-.6c.22-.86-.48-.84-.48-.84s.64-.16.67-.64c.03-.48-.36-.85-.99-1.02l-1.46-.25Zm.87.6-.2.84s.71.25.8-.26c.08-.5-.6-.59-.6-.59Zm-.45 2.13.2-.84s.7.08.59.59c-.08.5-.79.25-.79.25Z" fill="#E30613"/><path d="m23.65 34.26.9.03-.08 2.08s.03.7.54.53c.53-.14.56-.28.59-.5l.08-2.06.63.03-.09 2.17s-.06.93-1.35.93c-1.3 0-1.39-.93-1.36-1.07.03-.09.14-2.14.14-2.14ZM31.16 34.43l.28 3.04s2.15-.14 2.15-.23c0-.08-.08-.5-.08-.5l-1.13.08-.26-2.56-.96.17ZM37 33.8l.68 2.93.56-.14-.42-2 1.83 1.75.63-.17-.63-2.95-.59.1.37 1.5-1.36-1.32-1.07.3Z" fill="#E30613"/><path fill-rule="evenodd" d="M40.89 36 40 33.14s1.1-.35 1.33-.46l.02-.01c.26-.1 1.2-.43 1.88.83.7 1.3-.86 1.98-.86 1.98L40.9 36Zm.75-.71-.62-2s1.1-.5 1.38.6c.29 1.1-.76 1.4-.76 1.4Z" fill="#E30613"/><path d="m34.32 37.21-.45.06.62-3.24.85-.08 1.7 2.81-1.05.23-.5-.88-.98.21-.19.9Zm.3-1.43.61-.12-.43-.76-.18.88Z" fill="#E30613"/><path fill-rule="evenodd" d="M27 37.6v-3.15h1.76c.37 0 1.15.26 1.15.93 0 .68-.78.88-.78.88L30 37.6h-1.24l-.75-1.5v1.5H27Zm1.04-1.74-.03-.93s.78-.08.84.45c.02.57-.81.48-.81.48ZM22.97 35.92c.15-.85-.34-1.72-1.18-1.92-.84-.2-1.59.29-1.76 1.21-.17.93.4 1.75 1.16 1.92.77.2 1.64-.34 1.78-1.21Zm-.81-.2c.07-.67-.08-1.15-.45-1.3-.4-.13-.81.2-.89.88-.07.67.08 1.32.45 1.46.4.14.81-.36.89-1.04ZM15.93 34.84c.25-.7-.17-1.49-.99-1.75-.79-.26-1.6.07-1.87.84-.25.76.22 1.5.96 1.75.74.24 1.65-.12 1.9-.84Zm-.79-.24c.15-.58.07-.98-.3-1.15-.37-.17-.84.05-.98.62-.15.58-.08 1.13.3 1.3.36.16.83-.2.98-.77Z" fill="#E30613"/><defs><linearGradient id="acio2exw5" x1="28" y1="18" x2="28" y2="40" gradientUnits="userSpaceOnUse"><stop stop-color="#1E4074"/><stop offset=".51" stop-color="#2B64A7"/><stop offset=".74" stop-color="#1B3D70"/><stop offset="1" stop-color="#356DAB"/></linearGradient></defs></svg>