<!-- by TradingView --><svg width="56" height="56" viewBox="0 0 56 56" xmlns="http://www.w3.org/2000/svg"><path fill="#F0F3FA" d="M0 0h56v56H0z"/><path d="M22.08 32.53a7.07 7.07 0 0 1-3.3-5.72c.7-.1 2.6.02 4.6 1.29 1.98 1.26 2.89 1.47 3.1 1.4-3.7-3.71-3.08-9.68-2.32-12.2 6.25 3.19 6.31 8.92 5.56 11.38 1.65-3.23 5.35-4.1 7-4.14.6 7.26-4.42 8.47-5.51 8.47-.88 0-1.55-.2-1.77-.29.2.57.62 2.18.62 4.09 0 1.9-1.1 5.27-1.65 6.2h-1.17c.65-.7 1.96-3.75 1.96-6.2s-.53-3.75-.79-4.09c-.86 1.36-3 1.85-6.33-.2Z" fill="#007F3D"/><path d="m18.32 26.4.4-.06c.81-.11 2.82.03 4.9 1.36.58.37 1.06.64 1.45.84A11.69 11.69 0 0 1 23.2 23c-.22-2.34.13-4.53.53-5.85l.16-.53.49.25c5.14 2.63 6.27 6.93 6.13 9.91a8.3 8.3 0 0 1 2.53-1.8c1.4-.65 2.8-.89 3.68-.9l.44-.02.03.44c.31 3.76-.83 6.03-2.27 7.35a6.08 6.08 0 0 1-3.7 1.63c-.41 0-.78-.03-1.1-.09.2.83.41 2.05.41 3.42 0 1.03-.05 2.24-.4 3.21-.35.98-1.02 2.74-1.31 3.24l-.14.23h-2.5l.73-.8c.6-.65 1.84-3.58 1.84-5.88a11.6 11.6 0 0 0-.44-3.24c-.52.48-1.24.77-2.12.8-1.18.04-2.63-.39-4.34-1.44a7.55 7.55 0 0 1-3.52-6.13v-.4Zm9.79 6.7c.11-.11.21-.24.3-.38.07.09.16.24.25.47.25.62.54 1.8.54 3.62 0 2.04-.9 4.79-1.58 5.73-.14.2-.27.36-.38.48h1.17c.55-.94 1.65-4.3 1.65-6.21a14.24 14.24 0 0 0-.62-4.09 5.75 5.75 0 0 0 1.77.3c1.1 0 6.11-1.22 5.51-8.48-1.44.03-4.46.7-6.3 3.04-.25.33-.49.7-.7 1.1.12-.36.2-.8.27-1.3.32-2.73-.47-7.13-5.41-9.86l-.42-.23-.13.47c-.65 2.58-1 7.66 1.92 11.17.17.2.34.4.53.58-.1.03-.35 0-.8-.18-.5-.19-1.25-.56-2.3-1.23a7.55 7.55 0 0 0-4.6-1.3c0 1.23.65 4.1 3.3 5.73 2.98 1.83 5.02 1.63 6.03.58Z" fill="#D51921"/><path d="M19.58 13.06 11.22 28h6.27c.43 1.67 2.45 5.42 7.12 7.03l-5.01 7.94.02.03h16.74l-4.8-8.57c4.34-1.59 6.1-4.78 6.5-6.43h6.72l-8.4-15-5.48 9.97c-2.3-5.34-6.03-6.85-7.6-6.94l-.86 2.44-2.86-5.41ZM19 12h18l9 16-9 16H19l-9-16 9-16Z" fill="#D51921"/></svg>