<!-- by TradingView --><svg width="56" height="56" viewBox="0 0 56 56" xmlns="http://www.w3.org/2000/svg"><path fill="#F0F3FA" d="M0 0h56v56H0z"/><path d="M28 10a18 18 0 0 1 17.87 20L31.04 45.64c-1.16.23-1.83.36-3.04.36a18 18 0 0 1 0-36Z" fill="url(#a4d1xpxsj)"/><path d="M28.02 12C36.86 12 44 19.15 44 28c0 1.84-.42 3.4-1 5.02l-8.6 8.83c-1.97.85-2.65 2.15-6.42 2.15A15.97 15.97 0 0 1 12 28c.04-8.85 7.23-16 16.02-16Z" fill="url(#b4d1xpxsj)"/><path d="M16.82 26c2.68 0 3.5 3.49 3.5 3.49L15.42 31s.29 1.24 1.8 1.24c1.2 0 1.5-1.24 1.5-1.24l1.88-.5S20.6 34 17.34 34C13.65 34 13 30.6 13 29.5a3.8 3.8 0 0 1 3.82-3.5Zm-1.78 4 2.96-.9s-.35-1.32-1.83-1.07c-1.48.26-1.13 1.97-1.13 1.97Z" fill="#F0F3FA"/><path d="M38 31s-7.66 6.39-17 4.7c0 0 2.65 2.43 7.52 2.3 3.21-.05 7.16-1.73 9.48-7Z" fill="#F7EC5B"/><path d="M27.84 23.34 30 31l2-.69-2.03-6.53s-.12-.76-.9-.78c-.44-.01-.83.2-1.23.34ZM27.13 20.91l.6 1.76 1.77-.66-.19-.7s-.16-.97-1.27-.66c-.54.13-.54.13-.9.26ZM30 20.43l2.72 8.44s.24 1.1 1.16 1.13c.13 0 .27-.01.43-.06 1.23-.31 1.69-.62 1.69-.62l-.53-1.57s-.32.26-.64.25c-.13 0-.23-.05-.27-.19L33 23.5s.95-.23 1-1.07c.01-.22-.06-.48-.2-.78l-1.27.36-.36-1.26s-.18-.9-1.1-.72c-.75.18-.76.27-1.07.4Z" fill="#F0F3FA"/><path fill-rule="evenodd" d="M25.28 21c-.34 0-.96.21-1.28.33l1 3.24s-.2-.39-1.5-.39c-1.53 0-2.5 1.86-2.5 3.84 0 2.25 1.5 4.65 3.5 4.65 3 0 3.5-1.9 3.5-3.27 0-.43-.25-1.54-.29-1.69-.46-1.74-.72-2.63-.93-3.32-.21-.72-.36-1.22-.6-2.23-.23-.99-.6-1.16-.9-1.16Zm.72 7.96c0-.98-.4-2.87-1.75-2.65 0 0-1.25.05-1.25 1.5 0 1.58.64 2.92 1.89 2.92 1 0 1.1-1 1.11-1.77Z" fill="#F0F3FA"/><path d="m37.05 22.46-2 .54a1.92 1.92 0 0 1-.05-.43C35 20.9 37.38 20 39 20c1.76 0 2.49.58 2.78 1.08.3.45 1.22 2.28 1.22 3.85 0 1.58-2.49 3.07-4.54 3.07-2 0-2.78-1.45-2.78-2.61 0-.97 1.95-1.89 3.1-2.43l.56-.27c.88-.5.2-1.32-.88-1.07-1.07.25-1.41.84-1.41.84ZM41 24.84c0-.62-.45-1.2-.45-1.2s-1.23.71-2.01 1.09c-.36.16-.55.46-.54.77 0 .15.05.3.15.43.14.25.44.54 1.36.29 1.01-.29 1.48-.85 1.49-1.38Z" fill="#F0F3FA"/><path d="M45.87 30 31.02 45.66s-.6-4.35 4.6-10.07C40.85 29.87 45.87 30 45.87 30Z" fill="url(#c4d1xpxsj)"/><defs><linearGradient id="a4d1xpxsj" x1="10" y1="21.65" x2="42.29" y2="35.94" gradientUnits="userSpaceOnUse"><stop offset=".32" stop-color="#fff"/><stop offset=".95" stop-color="#B1B6BB"/></linearGradient><linearGradient id="b4d1xpxsj" x1="12.06" y1="22.67" x2="40.27" y2="33.83" gradientUnits="userSpaceOnUse"><stop offset=".39" stop-color="#F6AF39"/><stop offset="1" stop-color="#F06C2A"/></linearGradient><linearGradient id="c4d1xpxsj" x1="35.34" y1="35.46" x2="38.61" y2="38.7" gradientUnits="userSpaceOnUse"><stop offset=".21" stop-color="#9DA1A8"/><stop offset=".51" stop-color="#FCFBFC"/><stop offset=".82" stop-color="#8A8F97"/></linearGradient></defs></svg>