<!-- by TradingView --><svg width="56" height="56" viewBox="0 0 56 56" xmlns="http://www.w3.org/2000/svg"><path fill="#F0F3FA" d="M0 0h56v56H0z"/><path d="M26 27h-9v2h9l-1-1 1-1Z" fill="#F16228"/><path d="M37 27h-8l-1 1 1 1h8v-2Z" fill="#7F5A98"/><path d="M36.5 23.5 39 21v-5l-9-1s-15 6.94-15 12c0 4.94 27 16.5 27 16.5l1-1.5S16.73 29.11 17 27c.27-2.05 11.2-9.83 14.07-10L37 18v2l-2 2 1.5 1.5Z" fill="#7F5A98"/><path d="M20 34.5 18 33s-2 2.17-2 5 1.89 5 4.93 5C23.9 43 39 37.5 39 30c0-9.27-28.05-16.32-28-15.99.1.72 26 9.71 26 15.99 0 7.05-11.95 10-14.5 10-1.74 0-3.5-1-3.5-2.5 0-1 .46-1.78 1-3Z" fill="#F16228"/></svg>