<!-- by TradingView --><svg width="56" height="56" viewBox="0 0 56 56" xmlns="http://www.w3.org/2000/svg"><path fill="#F0F3FA" d="M0 0h56v56H0z"/><path d="M14.32 14h27.36A2.32 2.32 0 0 1 44 16.3V35H12V16.3c0-1.26 1.04-2.3 2.32-2.3Z" fill="#112B64"/><path d="M25 16h4v4h-4v-4ZM25 23h4v10h-4V23ZM31 23h4v10h-4V23Z" fill="#F0F3FA"/><path d="M31 33h6.76c2.8 0 6.24-2.38 6.24-5.3v-6.4c0-2.92-3.2-5.3-6-5.3h-7v4h5.13c2.38 0 3.87 2.16 3.87 4.63C40 27.1 38.5 29 36.13 29H31v4ZM12 16h7.56A4.47 4.47 0 0 1 24 20.47v.06c0 2.46-2 4.47-4.44 4.47H12v-3h5.92c.73 0 1.08-.3 1.08-1.04 0-.58-.47-.96-1.05-.96H12v-4Z" fill="#F0F3FA"/><path d="M12 24h7.56A4.47 4.47 0 0 1 24 28.47v.06c0 2.46-2 4.47-4.44 4.47H12v-4h5.92c.73 0 1.08-.27 1.08-1 0-.58-.47-1-1.05-1H12v-3Z" fill="#F0F3FA"/><path d="M13.82 42c-1 0-1.82-.36-1.82-1.47 0-1.13.8-1.53 1.82-1.53H16c-.02-.6-.36-1-1-1h-3v-1h2.98c1.3 0 2.02.7 2.02 2.18V42h-3.18ZM16 40h-2.44c-.39 0-.56.07-.56.47 0 .4.17.53.56.53H16v-1ZM18 42v-5h1v5h-1ZM23 42v-5h4.04c.8 0 1.46.4 1.46 1.33 0 .42-.1.85-.5 1.06.7 0 1 .61 1 1.1 0 .96-.58 1.51-1.83 1.51H23Zm1-4v1h2.9c.36 0 .6-.07.6-.47 0-.39-.24-.53-.6-.53H24Zm0 2v1h3.36c.38 0 .64-.1.64-.51 0-.41-.26-.49-.64-.49H24ZM30.93 42c-.72 0-.93-.65-.93-1.27 0-.88.5-1.23 1.57-1.23H33c-.05-.37-.49-.5-.82-.5H30v-1h2.31c.3 0 .55.04.77.1.2.08.38.2.52.35.14.16.24.36.3.62.07.25.1.57.1.93v2h-3.07ZM33 40.32h-1.72c-.21 0-.28.13-.28.35 0 .24.07.33.28.33H33v-.68ZM37.08 42c-1.36 0-2.08-.81-2.08-2 0-1.18.72-2 2.08-2H39v-1h1v3.37c0 1.1-.56 1.63-1.59 1.63h-1.33ZM39 39h-2c-.59 0-1 .39-1 1s.4 1 1 1h1.37c.36 0 .63-.16.63-.53V39ZM41 42v-2.26c0-1.1.7-1.74 1.79-1.74H44v1h-.98c-.53 0-1.02.24-1.02.74V42h-1ZM20 39h2v1h-2v-1Z" fill="#FE0000"/></svg>