<!-- by TradingView --><svg width="56" height="56" viewBox="0 0 56 56" xmlns="http://www.w3.org/2000/svg"><path fill="#F0F3FA" d="M0 0h56v56H0z"/><path d="M44 33v7.12A2.86 2.86 0 0 1 41.17 43H14.83A2.86 2.86 0 0 1 12 40.12V30s1.13 4.08 7 5v1l1-1 .5 2 1.28-1.64.38.64.34-1s4.52-.76 7.54-3.94C33.07 27.87 34.24 24 38 24c3.75 0 5 4.65 5 6 0 1.35-1.9 4-4.73 4-2.84 0-5.27-1-7.77-1S28 34.5 28 34.5s2.86-.97 4.72.58c1.86 1.54 3.69 2.92 5.55 2.92 1.86 0 4.65-.82 5.73-5Z" fill="#98C740"/><path d="M14.83 13h26.34c1.56 0 2.83 1.3 2.83 2.88v9.67l-.5.45-.5-1.5-1 .5s-2.32-4-7-4-5 6-5 6h-1c-.31-1.61-2.03-3.45-4.48-4.72C22.07 21.02 21 19 21 19c0 1.27.3 3.34 2 5.37 1.71 2.03 3 4.1 3 6.13 0 2.03-2.5 3.5-5.66 3.5-3.17 0-5.34-2.32-5.34-4.5s1.9-3.74 3.72-6.24C20 21 20 19 20 19h-1c-.07 1.97-1.78 3.17-3.53 4.12C13.72 24.06 12 26 12 26V15.88A2.86 2.86 0 0 1 14.83 13Z" fill="#471861"/></svg>