<!-- by TradingView --><svg width="56" height="56" viewBox="0 0 56 56" xmlns="http://www.w3.org/2000/svg"><path fill="#F0F3FA" d="M0 0h56v56H0z"/><path fill-rule="evenodd" d="M28 13c-8.54 0-22 4.46-22 15s13.45 15 22 15c8.54 0 22-4.47 22-15 0-10.54-13.46-15-22-15Zm23 15c0-8.84-10.3-16-23-16-12.71 0-23 7.16-23 16s10.3 16 23 16 23-7.18 23-16Z" fill="#622300"/><path d="M17.76 21.6c-2.61 1.66-4.18 3.92-4.18 6.4 0 2.46 1.57 4.73 4.18 6.4C20.37 36.06 24 37.1 28 37.1c4 0 7.63-1.04 10.24-2.7 2.61-1.67 4.18-3.95 4.18-6.4 0-2.47-1.57-4.74-4.18-6.4C35.63 19.94 32 18.9 28 18.9c-4 0-7.63 1.03-10.24 2.7Zm-.27-.43c2.7-1.72 6.42-2.77 10.51-2.77s7.8 1.06 10.5 2.78c2.7 1.72 4.42 4.12 4.42 6.81 0 2.7-1.72 5.1-4.41 6.82-2.7 1.73-6.42 2.79-10.51 2.79s-7.8-1.06-10.5-2.78c-2.7-1.72-4.42-4.13-4.42-6.83s1.71-5.1 4.41-6.82Z" fill="#2B2A29"/><path d="M23.64 22.77c-.03.01-.35.17-.5.29-.22.16-.22.22-.5.29-.66.04-.22.1-1.35.32l-1.56 2.06c-.82 1.14-.82 1.68-1.1 2.09-.48.7.05.55-.7.83-.56.22-.2.22-.68.44l-.8.48c-.42.22-.33-.06-.7.28.17.17.11.22.52.19.52-.05.17-.03.34-.12.91-.53.44-.03 1.03-.35.3-.16.17-.28.63-.26.43.01.47.33 1.39 1 .05.06.12.13.18.16l1.62 1.03c.97.7 1.45.96 2.65 1.31.38.12.69.06 1.65.06.85 1.17 2.27.12 2.93.07.96-.07.85-.25 1.55-.44l1-.52c.54-.47.85-.7 1.66-1 .6-.11.6 0 1.15-.34l.3-.2.07-.05-1.05.03c-.1-.2-.1-.34-.2-.59-.18-.46.88.73.88.09 3.5-.13 2.45-2.42-4.48-6.32.3.06-4.24-.79-3.96-.96-.89.1-.83-.2-1.97.13Z" fill="#AC4301"/><path d="M23.64 22.77c.82-.24 1.26.4 1.1 1.24 1.86.06.64-.47 2.18-.4l.87 2.7c.6.56.96 1.03 2.31 1.07.5 0 2.05.01 2.46-.1.35-.09.29-.12.82-.13-.04.83-.48.68-.12 1.24.49-.2-.01-.46.7-.44.32.64 1.04 1.4.23 1.8-.68-.53.23-.59-1.2-.62.01.63 0 .23.16.7.1.25.1.38.2.59l1.06-.03c.35-.48.33-.32.79-.48l.71-.53c.68-.88 4.06-2.82 3.82-3.49-.57-.73-1.13-.53-1.85-1.12-1.4-1.14-1.83-.62-2.73-1.1-.36-.19-.24-.33-.74-.44-.95-.2-.4-.17-.94-.36-.8-.35-1.3-.38-1.95-.63-.38-.13-.32-.26-.93-.32-.65-.06-3.1-.09-3.76.07-.97.22-.28.41-2.22.37l-.56.01c-.61.1-.32.03-.41.4Z" fill="#8C2A00"/><path d="m21.26 28 .53.02c-.03-.36-.03-.29-.12-.52h-.58c-.15.19-.07.04-.2.32-.04.13-.03.16-.06.29-.15.73-.35.35-.93.73l.06.45c.57.28.6-.11 1.12.59l.6 1c-.5-.11-.66-.27-.98-.45.33.45.65.58 1.08.9.29.21-.1.36 1.5 1 .75.35 1.01.44 2.8.4.53.14.26.23.67.34.82.25.73-.33 1.62-.4l.68-.04c.44-.13 0 .02.23-.11l.67-.26c.03-.02.06-.03.1-.03 0-.02.05-.03.07-.05l-.38.02c-.87.16-.44.45-2.27.4.71-.74.64.34 1.02-.97l1.14-.03.41-.44c-.36-.32-.09-.17-.32-.52l-.74-.84c-1.57-1.65-.32-1.72-1.2-2.07-.27-.12-1.24.07-1.06.4-.55-.77-.08-.58.06-1.33.1-.57.35-.98.18-1.45-.15-.42-.04-.15-.24-.34-.43.2-.1-.07-.3.31-.16.26.15-.01-.39.72-.15.22-.47.78-.56 1.08l.55.45c-.64.04-1.31 0-1.85.15-.08.21-3.21.8-2.91.27Z" fill="#BB5301"/><path d="M24.02 28.14c-.35.48-.27.19-.58.47l-.1.13c-.22.27 0 .27-.37.4-.48-.45.2-1.02-.95-.86-.15-.26.22.06-.23-.27l-.53-.03c-.1.17-.1.28-.24.44-.81.97-.14.62.36 1.47l.66 1c.53-.24.38-.42.93-.7.49.4-.03.14.93.68.27-.13.18-.12.47-.22.72.89 1.28-.03 1.78 1.18l1.3.2c.03-.72.02-.53-.27-.96-.2-.29-.22-.46-.38-.73l-.89-1.2c-.08-.05-.46-.53-.52-.6l-.26-.56c-.16-.3-.96.1-1.11.16Z" fill="#CC6B02"/><path d="M23.26 27.1c-.22-.6.26-1.88.64-2.11.4.26.42.08.27 1.53-.75.29-.36.4-.91.58Zm1.48-3.1c-.13-.1-.03.04-.22-.26-.09-.16-.04-.1-.15-.27-.91-.06-.43.11-1.05.33-.12.05-.3.05-.44.1.2.43.24 0 .26.76.01.98.01 1.29-.7 1.45-.11-.57.04-1.07-.17-1.42l-.32-.01-.3 1.17c-.15.48-.09 1.02-.07 1.53.24.01.72-.02.91.03.45.09.17.2.86.22.73-.27.18-.34 1.28-.38.1-.53.29-.45 0-1-.38-.71-.21-.24-.03-.9-.3-.47-.35-.12-.34-.82l.92.02c-.23-.35-.38-.08-.44-.54Z" fill="#C46302"/><path d="M38.5 26.82c.13-.46.11-.3.5-.54l.04-.62-.5-.03-1.48-1.2c-.34-.22-.78-.13-1.2-.19-.77-.09-.37-.33-1.03-.3h-.42c-.31-.53-.37-.47-1.13-.4.29 1.07-.13.45-.13 1.5.52-.01.4-.07.84-.14l.03-.08c.1.27-.01-.14.2-.46.41.14.02.16 1.13.36 1.08.2 1.25.59 2.09 1.13.66.42.75-.08.75.84l.32.13Z" fill="#671A01"/><path d="M38.34 26.77c-.14.43.15-.02-.35.3l-.61.53c-.1-.16-.05.03-.1-.24a.83.83 0 0 1-.04-.2l-.01-.44c-.67-.07-1.85-.08-2.34.3-.5.39-.36.6-.23.9l.25.38c.4.07 1.02.16 1.36.04.62-.22.33-.71.8-.42-.15.13-.03.01-.18.1l-.21.15-.06.06-.26.29c-.32.4-.19.54-.41.83l-.72.53c-.46.16-.44 0-.8.48l.42.07c.23-.55.2-.19.7-.47.23-.13.37-.35.6-.42.05-.22.1-.44.2-.61a.6.6 0 0 1 .16-.2c.21-.17.1-.07.34-.12 0-.47-.2-.1.24-.44.49-.37 2.45-1.6 1.98-2.53l-.04.63c-.43.25-.57.01-.69.5Z" fill="#A43B01"/><path d="m30.58 23.73.29-.37.06-.07c.6.07.5.2 1.04-.17l-.13-.46c-1.86-.02-1.28-.8-3.03-.54-.86.14-1.08.9-1.02 1.32.1.71 1.66.17 1.78.14.8-.2.41.14 1 .15Z" fill="#671A01"/><path d="M25.7 29.03c-.12-.07-.25-.07-.45-.37-.13-.19-.15-.33-.24-.54-.56.05-.69.08-.84.49l1.27 1.46c.9.67.33 1.05 1.42 1.25-.05-.44-.13-.6-.42-1l-.1-.12-.06-.06c-.23-.3-.57-.72-.58-1.11Z" fill="#E29706"/><path d="M31.2 26.43c.44.15.22.19.84.25.12-1.24-.35-.6-.97-1-.77-.5.13-.7-1.29-.62-.09 1.25.03 1.49.64 1.4.45-.04.2-.22.78-.03Z" fill="#A43B01"/><path d="m23.09 32.15.33.02c.43.09.77.14 1.24.06-.18-.59-.15-.24-.4-.51-.18-.22-.12-.12-.16-.49-.7-.1-.52-.35-1.27-.42-.15.28-.3.37-.35.7.46.32.46-.03.6.64Z" fill="#AC4301"/><path d="m29.74 32.2.36-.03c.54-.03.17.06.52-.18l.3-.23c.02 0 .04-.03.05-.04.19-.59.16-.4.83-.59l-.16-1-.9-.05c.04.12.11.3.13.32l.09.76-.3.18-.3.27c-.18.12-.65.22-.85.32l.23.27Z" fill="#953201"/><path d="M29.04 28.28c.09.2-.05.1.24.33.05.04.25.14.3.16.28.14.42.2.81.2l-.24-1.53c0-.03-.01-.05-.03-.08-.58.14-.87.1-1.34-.18-.05-.03-.64-.76-.7.58.27.26.47.5.96.52Z" fill="#BD5B01"/><path d="M23.26 27.1c.55-.2.16-.3.91-.58.15-1.43.14-1.27-.27-1.53-.38.23-.86 1.53-.64 2.11ZM22.1 28.53c.2.46.38.34.04.82-.42-.12-.16.2-.44-.32-.06-.1-.1-.38-.14-.54l.54.04Zm0 0c-.02-.03-.02-.1-.03-.08l-.03-.1a.15.15 0 0 0-.03-.07l-.57-.02c-.07.13-.17.24-.24.33-.35.42-.14-.06-.28.45.23.16.19.14.7.14l.25.52c1.04-.03.6.15 1.19.2-.06-.9-.06.02-.61-1.05-.23-.46.04-.24-.35-.32Z" fill="#D88705"/><path d="M29.04 28.28c.62.03.33.33 1.08.44.1-.63-.14-.42-.1-1.14l-1.43-.1c.14.5.26.35.45.8Z" fill="#D47702"/><path d="m26.98 27.85.64 1c.36.34.14.41.67.59 0-.57-.32-.86-.35-.9-.43-.74-.34-.37-.44-.66l-.52-.03Z" fill="#CB7505"/><path d="M32.94 26.74c.38-.27.03-1.01.03-1.01-.01-.06-.04-.06-.06-.09-1.17.15-.4 1.39.03 1.1Z" fill="#771B00"/><path d="m22.1 28.53-.54-.04c.03.17.1.44.14.54.28.52.02.22.44.32.34-.47.16-.35-.04-.82Z" fill="#E29706"/><path d="M46.88 27c-.8-6.72-8.98-12-18.94-12S9.8 20.29 9.01 27h1c.74-6.16 8.49-11 17.93-11s17.18 4.84 17.94 11h1Z" fill="#622300" fill-opacity=".5"/><path d="M47.88 29c-.78 6.71-9.41 12-19.94 12C17.41 41 8.78 35.7 8 29h2.1c1.13 5.64 8.69 10 17.84 10s16.7-4.35 17.85-10h2.1Z" fill="#622300" fill-opacity=".3"/></svg>