<!-- by TradingView --><svg width="56" height="56" viewBox="0 0 56 56" xmlns="http://www.w3.org/2000/svg"><path fill="#F0F3FA" d="M0 0h56v56H0z"/><path d="M8 22.16V24h10v11h4v-.88c0-.32-.37-.58-.7-.58H21V24h5v9.54h-.38c-.33 0-.62.26-.62.58V35h5v-.88a.57.57 0 0 0-.57-.58H29V24h5v9.54c-.87 0-1 .26-1 .57V35h15v-1.06c0-.64-.54-.94-1.2-.94H38V22.16c0-.64-.48-1.16-1.14-1.16H9.2c-.66 0-1.2.52-1.2 1.16Z" fill="#1D1666"/><path d="M15.27 19h3.55c1.38-1.43 5.6-3.76 11.51-3.76 7.4 0 12.58 5.28 12.58 10.97-.07 1.18-.4 3.8-1.16 4.79h3.4c.43-.84.73-2.97.73-4.8 0-2.95-4.04-12.2-15.55-12.2-9.2 0-13.87 3.16-15.06 5Zm24.96 18h-3.55c-1.38 1.41-5.6 3.78-11.51 3.78-7.4 0-12.58-5.22-12.58-10.85.07-1.18.4-2.95 1.16-3.93h-3.4a8.82 8.82 0 0 0-.73 3.93C9.62 32.85 13.66 42 25.17 42c9.2 0 13.87-3.18 15.06-5Z" fill="#1C7C32"/></svg>