<!-- by TradingView --><svg width="56" height="56" viewBox="0 0 56 56" xmlns="http://www.w3.org/2000/svg"><path fill="#F0F3FA" d="M0 0h56v56H0z"/><path d="M24.35 32.23c-.02.04-.05.06-.06.14l-.15.25c-.86 1.4-.56 2.05.32 3.49l.76 1.2c-2.94-1.05-2.25-4.26-.87-5.08Zm1.77 5.58c-2.45-2.62-3-5.9 1.47-5.48-.35.84-.57.7-.69 1.76 1.52.14 1.95-.72 3.27-1.01-.17.75-.56.72-.57 1.18 0 .07 0 .15.02.25.19.08-.08.18.12.18l.56-.06c.54-.08 1.08-.6 1.36-.98-.87.26-.52.36-1.24.6.13-.62.2-1.12.2-1.63-1.02 0-1.92.5-2.8.77.26-.83.37-.14.39-1.3a3.46 3.46 0 0 0-1.56-.49c-.69 0-1.24.21-2.3.63l-.16-.63c-1.48.8-1.9 2.4-1.34 4.33-.88-.47-.54-2.69-.06-3.7.06-.12.22-.16.25-.26.08-.26.01-.32 0-.37a.77.77 0 0 0-.2-.02c-.54.01-.72.44-.9 1.23-.18.72-.2 1.57-.21 2.38-.22-.26-.35-.61-.36-1.02-.02-1.5 1.21-3.75 1.86-4.68.46-.67 1.3-1.7 1.8-2.19.2-.2 1.96-1.51 2.03-1.82.02-.08.08-.09.11-.13-1.8.7-3.3 2.57-4.5 3.99-.75.88-2.31 3.48-2.33 5.35 0 .19.01.36.04.53.92 1.07 4.07 2.43 5.74 2.59ZM18.24 21.74c1.65 1.95-.46 3.12 2.18 4.18 1.3.52 3.32.43 4.5-.15.61-.3.32-.19.57-.42-7.67.99-4.88-2.16-5.91-3.79-.89-1.4-7.4.58-10.42-2.5-.64-.67-.23-.64-1.16-.98.27 1.57 2.3 3.12 3.68 3.64 2.45.92 4.22-.28 6.56.02Z" fill="#EE990F"/><path d="M21.86 19.6c1.19 1.92-.3 3.1 1.79 4.12 2.08 1.02 3.03.49 4.92.06-.65-.39-1-.09-2.05-.06-4.34.13-3.02-3.37-3.45-4.18-1.46-1.32-4.33-.43-6.36-.87a7.87 7.87 0 0 1-2.55-1.01c-.79-.5-1.37-1.42-2.05-1.66.22 1.11.83 1.48 1.4 2.16 2.46 2.93 6.07 1.15 8.35 1.44ZM27.54 27.42c2.94-1.36 1.03-4.49 7.94-5.97 3.78-.8 8.73-.97 8.51-5.45-2.13 4.03-4.26 3.24-8.84 4.9-3.35 1.21-6.23 2.74-7.6 6.52ZM35.13 33.65c.58-.34.29-.36 1.02-.64l.59.41 1.09-.3c-1.05-.33-.55.1-1.97-.8l-.8.87c-.62-.37-.33-.24-.79-.96-.71-1.13-1.22-1.29-2.58-2.13 1.5-.89 2.43-.15 3.6-1.4l-.83-1.08c.75-1.3 1.72-.57 3.21-.38-.1-.13.06-.27-1.03-.6-1.35-.43-2.94-.4-3.06.8.22.82.32.6.75 1.12-1.36.88-3.54.02-3.7 1.8.87.87 3.12 1.25 3.84 3.23l.66.06Z" fill="#EE990F"/><path d="m37.6 27.05.91 1.41c.53-1.08.49-2.3-.37-2.9.52-1.56-.67-1.93-2.37-2.3.67.9 1.65.91 1.88 1.45.17 1.38-.06.7.8 1.62l-.02 1.33c-.47-.3-.31-.34-.84-.6Z" fill="#EE990F"/><path fill-rule="evenodd" d="m28.47 35.59-4.01 3.6 2.4-.76-1.4 1.3 5.1-1.73-2.15 2.05 7.27-2.47L44 43l-8.26-9.35-2.58 2.13-1.48-1.5-2.43 2.03-.78-.72Zm.1.4-1.64 1.37c1.2-.5 1.22-.03 1.22-.03l.86-.84-.43-.5Zm3.04-1.2 1.21 1.3-.23.33s-.49-.26-.81.02c-.33.27-.87.6-.87.6s-.65-.5-1.2-.18l-.2-.19 2.1-1.88Zm6.83 2.57L35.8 34.1l-1.04 1.02.92-.05c-.04.48.52 1.37.52 1.37l.6-.44 1.26 1.37h.4Z" fill="#000468"/></svg>