<!-- by TradingView --><svg width="56" height="56" viewBox="0 0 56 56" fill="none" xmlns="http://www.w3.org/2000/svg"><path fill="#F0F3FA" d="M0 0h56v56H0z"/><path d="m28 8-12 6.5V34h12V8Z" fill="url(#aez1rsikl)"/><path fill-rule="evenodd" d="M17 15v19h10V9.5L17 15Zm-1-.5v20h12V8l-12 6.5Z" fill="#181B1E"/><path d="m28 8 6 3.25 6 3.25V34H28V8Z" fill="url(#bez1rsikl)"/><path fill-rule="evenodd" d="M39 15 29 9.5V34h10V15ZM28 34.5h12V14.42l-12-6.5V34.5Z" fill="#181B1E"/><path d="M13 34v7l2-1 13 8 13-8 2 1v-7H13Z" fill="#181B1E"/><path d="M17 40.65v1.44l1.17.91 1.18-.78.65-1.7-2.48-.52-.52.65ZM20 42.63v1.5l1.23.87 1.63-.75.14-1.75-2.45-.5-.55.63ZM36 42.63v1.5l-1.23.87-1.63-.75L33 42.5l2.45-.5.55.63ZM24 45.5v1.63l1.23.87 1.63-.75.14-1.75-2.45-.5-.55.5ZM39 40.65v1.44l-1.17.91-1.18-.78-.65-1.7 2.35-.52.65.65ZM32 45.5v1.63l-1.23.87-1.63-.75L29 45.5l2.45-.5.55.5Z" fill="#181B1E"/><path d="m28 45-12-7.4V34h12v11Z" fill="url(#cez1rsikl)"/><path fill-rule="evenodd" d="M28 45V34H16v3.6L28 45Zm-.5-.9V35H16v2.32l11.5 6.78Z" fill="#181B1E"/><path d="m28 45 12-7.4V34H28v11Z" fill="url(#dez1rsikl)"/><path fill-rule="evenodd" d="M40 37.32 28.5 44.1V35H40v2.32ZM40 34v3.6L28 45V34h12Z" fill="#181B1E"/><path d="M26.5 17h-4l1 1v5.44s-4.5.94-4.5 4.88c0 3.95 3.2 4.68 3.2 4.68h4.49S30 31.75 30 28.32c0-3.42-4.5-4.88-4.5-4.88V18l1-1Z" fill="#F0F3FA"/><path fill-rule="evenodd" d="M25.5 23.44V18l1-1h-4l1 1v5.44s-4.5.94-4.5 4.88c0 3.95 3.2 4.68 3.2 4.68h4.49S30 31.75 30 28.32c0-3.42-4.5-4.88-4.5-4.88Zm1.09 9.06a3.37 3.37 0 0 0 .38-.19c.28-.15.66-.4 1.04-.73a4.24 4.24 0 0 0 1.49-3.26c0-1.47-.96-2.56-2.04-3.31a9 9 0 0 0-2.07-1.08l-.04-.01-.35-.11v-6.02l.3-.29h-1.6l.3.3v6.05l-.4.08h-.04a4.23 4.23 0 0 0-.6.2c-.4.13-.92.36-1.44.7a4.04 4.04 0 0 0-2.02 3.5c0 1.81.73 2.84 1.42 3.43a3.98 3.98 0 0 0 1.35.74h4.32Z" fill="url(#eez1rsikl)"/><path d="M32.96 14h-3.7l.76 1.15v4.29S25 20.59 25 24.56c0 3.98 3.6 5.44 3.6 5.44h4.58S37 28.01 37 24.67c0-3.35-4.9-5.13-4.9-5.13v-4.39l.86-1.15Z" fill="url(#fez1rsikl)"/><path d="M38 17v1.36l-14.95 4.08L37.89 22l-19.24 5.33V28L17 27.2l1.54-1.47.1.8 11-3.3-8.8-.45L38 17Z" fill="#D8222E"/><path d="M24 40h8s-1.43 3-4 3c-3.15 0-4-3-4-3Z" fill="#F0F3FA"/><path fill-rule="evenodd" d="M24 40s.06.2.2.5A4.1 4.1 0 0 0 28 43c1.9 0 3.18-1.65 3.72-2.5.18-.3.28-.5.28-.5h-8Zm.76.5c.1.2.26.45.45.69.53.66 1.4 1.31 2.79 1.31 1.08 0 1.95-.63 2.6-1.34.2-.22.38-.45.52-.66h-6.36Z" fill="url(#gez1rsikl)"/><path d="M28 36h1l1 4h-2v-4Z" fill="#F0F3FA"/><path fill-rule="evenodd" d="M28.77 36.3h-.47v3.4h1.32l-.85-3.4ZM29 36h-1v4h2l-1-4Z" fill="url(#hez1rsikl)"/><path d="M26.86 35.62 26 37.36h.54V39H28v-3h1s-.21-.99-.75-.99c-.54-.1-1.4.61-1.4.61Z" fill="url(#iez1rsikl)"/><defs><linearGradient id="aez1rsikl" x1="18" y1="13.5" x2="28" y2="34" gradientUnits="userSpaceOnUse"><stop stop-color="#343BE0"/><stop offset="1" stop-color="#3595FB"/></linearGradient><linearGradient id="bez1rsikl" x1="39.5" y1="13.5" x2="28" y2="34" gradientUnits="userSpaceOnUse"><stop stop-color="#288A07"/><stop offset="1" stop-color="#21C332"/></linearGradient><linearGradient id="cez1rsikl" x1="22" y1="34" x2="22" y2="43.5" gradientUnits="userSpaceOnUse"><stop stop-color="#2AAB2A"/><stop offset="1" stop-color="#327A0A"/></linearGradient><linearGradient id="dez1rsikl" x1="34" y1="34" x2="34" y2="44" gradientUnits="userSpaceOnUse"><stop offset=".08" stop-color="#3585EE"/><stop offset="1" stop-color="#2E3DF7"/></linearGradient><linearGradient id="eez1rsikl" x1="24.5" y1="17" x2="24.5" y2="33" gradientUnits="userSpaceOnUse"><stop stop-color="#181B1E"/><stop offset="1" stop-color="#181B1E"/></linearGradient><linearGradient id="fez1rsikl" x1="31" y1="14" x2="31" y2="30" gradientUnits="userSpaceOnUse"><stop stop-color="#181B1E"/><stop offset="1" stop-color="#181B1E"/></linearGradient><linearGradient id="gez1rsikl" x1="28" y1="40" x2="28" y2="43" gradientUnits="userSpaceOnUse"><stop stop-color="#181B1E"/><stop offset="1" stop-color="#181B1E"/></linearGradient><linearGradient id="hez1rsikl" x1="29" y1="36" x2="29" y2="40" gradientUnits="userSpaceOnUse"><stop stop-color="#181B1E"/><stop offset="1" stop-color="#181B1E"/></linearGradient><linearGradient id="iez1rsikl" x1="27.5" y1="35" x2="27.5" y2="39" gradientUnits="userSpaceOnUse"><stop stop-color="#181B1E"/><stop offset="1" stop-color="#181B1E"/></linearGradient></defs></svg>