<!-- by TradingView --><svg width="56" height="56" viewBox="0 0 56 56" xmlns="http://www.w3.org/2000/svg"><path fill="#F0F3FA" d="M0 0h56v56H0z"/><path d="M28 28s-5-6.61-5-11.1c0-4.6 2.65-5.9 5-5.9s5 1.77 5 5.67S28 28 28 28Z" fill="url(#anv4e1m4h)"/><path d="M28 31s-4 3.84-4 7.08S25.83 43 28 43s4-1.92 4-4.8-4-7.2-4-7.2Z" fill="url(#bnv4e1m4h)"/><path d="M26 28s-8.5 0-11.77-1.58c-2.4-1.33-3.23-2.83-3.23-4.2 0-.8.28-1.55.7-2.2a4.73 4.73 0 0 1 4-2.02c.98 0 2.07.25 3.21.86C22.33 20.72 26 28 26 28Z" fill="url(#cnv4e1m4h)"/><path d="M30 28s8.5 0 11.77-1.58c2.4-1.33 3.23-2.83 3.23-4.2 0-.8-.28-1.55-.7-2.2a4.73 4.73 0 0 0-4-2.02c-.98 0-2.07.25-3.21.86C33.67 20.72 30 28 30 28Z" fill="url(#dnv4e1m4h)"/><path d="M27 30s-6.12 3.08-9.54 7.46c0 0-.86 1.54-3.3 1.54-2.33 0-4.16-1.18-4.16-3.9 0-3.2 4.77-5.1 7.34-5.1H27Z" fill="url(#env4e1m4h)"/><path d="M29 30s6.12 3.08 9.54 7.46c0 0 .86 1.54 3.3 1.54 2.33 0 4.16-1.18 4.16-3.9 0-3.2-4.77-5.1-7.34-5.1H29Z" fill="url(#fnv4e1m4h)"/><defs><linearGradient id="anv4e1m4h" x1="28" y1="11" x2="28" y2="28" gradientUnits="userSpaceOnUse"><stop stop-color="#1BB2EA"/><stop offset=".25" stop-color="#5FC5F3"/><stop offset=".42" stop-color="#5DC4F2"/><stop offset="1" stop-color="#018DD1"/></linearGradient><linearGradient id="bnv4e1m4h" x1="28" y1="31" x2="28" y2="43" gradientUnits="userSpaceOnUse"><stop stop-color="#006EBB"/><stop offset=".4" stop-color="#024B9A"/><stop offset="1" stop-color="#05489A"/></linearGradient><linearGradient id="cnv4e1m4h" x1="16.5" y1="19" x2="18.5" y2="28" gradientUnits="userSpaceOnUse"><stop offset=".09" stop-color="#5EC6EE"/><stop offset=".56" stop-color="#06ABE8"/><stop offset=".95" stop-color="#007EB9"/></linearGradient><linearGradient id="dnv4e1m4h" x1="36" y1="18" x2="38" y2="28" gradientUnits="userSpaceOnUse"><stop offset=".19" stop-color="#039BDB"/><stop offset=".6" stop-color="#007BC7"/><stop offset="1" stop-color="#0158A7"/></linearGradient><linearGradient id="env4e1m4h" x1="18" y1="30" x2="18.5" y2="39" gradientUnits="userSpaceOnUse"><stop stop-color="#0290D8"/><stop offset=".53" stop-color="#0BABE3"/><stop offset="1" stop-color="#0184CA"/></linearGradient><linearGradient id="fnv4e1m4h" x1="37" y1="29.5" x2="38.5" y2="39.5" gradientUnits="userSpaceOnUse"><stop stop-color="#0085CB"/><stop offset=".39" stop-color="#0295DC"/><stop offset="1" stop-color="#0187CD"/></linearGradient></defs></svg>