<!-- by TradingView --><svg width="56" height="56" viewBox="0 0 56 56" xmlns="http://www.w3.org/2000/svg"><path fill="#F0F3FA" d="M0 0h56v56H0z"/><path d="M28 14a14 14 0 1 0 0 28 14 14 0 0 0 0-28ZM13 28a15 15 0 1 1 30 0 15 15 0 0 1-30 0Z" fill="#5F5F5F"/><path d="M28 12c-8.82 0-16 7.18-16 16s7.18 16 16 16 16-7.18 16-16-7.18-16-16-16ZM11 28a17 17 0 1 1 34 0 17 17 0 0 1-34 0Z" fill="#5F5F5F"/><path d="M40.95 29.07a13 13 0 1 0-25.9-2.14 13 13 0 0 0 25.9 2.14Z" fill="#E4E6E5"/><path d="M17.08 29.35a11.57 11.57 0 0 1 7.7-12.2l.2-.08c1.94-.44 2.02 1.25 2.02 1.25v7.3c0 1.05-.4 1.2-.56 1.45 0 0-6.34 3.93-7.75 3.93-1.37.04-1.6-1.65-1.6-1.65Z" fill="#DA2B28"/><path d="M38.92 29.35a11.57 11.57 0 0 0-7.7-12.2l-.2-.08c-1.94-.44-2.02 1.25-2.02 1.25v7.3c0 1.05.4 1.2.56 1.45 0 0 6.34 3.93 7.75 3.93 1.37.04 1.6-1.65 1.6-1.65Z" fill="#159CAD"/><path d="M20.87 36.46c.32.26.69.52 1.05.78a10.82 10.82 0 0 0 13.32-1.18c.04-.04.12-.08.16-.13 1.37-1.52-.04-2.52-.04-2.52l-6.3-4.05c-.92-.56-1.24-.3-1.52-.3 0 0-6.63 3.65-7.35 4.96-.68 1.3.68 2.44.68 2.44Z" fill="#58585A"/><path d="M24 23h-3v4h3v-1h-2v-.5h1.7v-.78H22V24h2v-1ZM36 23h-3v4h3v-1h-2v-.5h1.7v-.78H34V24h2v-1ZM29.04 34.49H30S29.7 33 28.04 33C26.4 33 26 34.1 26 34.9c0 .8.57 2.1 2 2.1 1.43 0 1.96-1.45 1.96-1.45h-1s-.26.65-.92.65c-.65 0-1.04-.63-1.04-1.2s.43-1.2 1.04-1.2c.61.04 1 .69 1 .69Z" fill="#F0F3FA"/></svg>