<!-- by TradingView --><svg width="56" height="56" viewBox="0 0 56 56" xmlns="http://www.w3.org/2000/svg"><path fill="#039" d="M0 0h56v56H0z"/><path fill-rule="evenodd" d="M31.75 24c.97 0 1.75-.67 1.75-1.5s-.78-1.5-1.75-1.5-1.75.67-1.75 1.5.78 1.5 1.75 1.5ZM4 31.17v-9.32c0-.43.35-.85.78-.85h2.43c.43 0 .79.42.79.85v7.97c0 .65.17 1.68 1.78 1.68 1.62 0 2.03-.67 2.22-1.14v-3.59c.06-.64 1.08-1.77 3.97-1.77 2.88 0 4.03 1.13 4.03 1.77v1.44a.8.8 0 0 1-.78.79H15.5v1.36c-.04.4.43 1.14 2.78 1.14 2.35 0 2.74-.74 2.72-1.14v-3.08c0-.82.9-2.28 4-2.28s3.94 1.13 4 1.77v1.44c0 .43-.33.79-.76.79H26.4c-.44 0-.9-.36-.9-.79v-1.73c0-.2 0-.48-.5-.48-.44 0-.51.32-.5.52v3.72c-.01.44.44 1.26 2.5 1.26s2.78-.82 3-1.26v-4.47c0-.42.39-.77.82-.77h1.94c.44 0 .74.34.74.77v5c0 .16.15.73.72.73.46 0 .76-.5.78-.72v-3.9c.02-.68.84-1.88 3.82-1.88s4.05 1.13 4.18 1.77v1.44c0 .43-.42.79-.86.79h-1.83a.81.81 0 0 1-.81-.79v-1.66c0-.3-.04-.55-.5-.55-.37 0-.48.35-.5.55v3.8c0 .33.18 1.15 2.55 1.15 1.9 0 2.7-.74 2.95-1.14v-3.47c0-.13.24-1.89 4.02-1.89 3.02 0 3.91 1.2 3.98 1.89v3.95c0 .54-1.23 2.16-3.98 2.16-2.2 0-3.5-1.03-3.87-1.55A8.23 8.23 0 0 1 39.53 33c-2.11 0-3.61-.96-4.1-1.43-.24.47-1.53 1.43-3.03 1.43-1.5 0-2.2-.96-2.36-1.43A7.7 7.7 0 0 1 25.5 33c-2.28 0-3.68-1.03-4.1-1.55-.45.52-1.73 1.55-4.27 1.55-2.54 0-4.31-.82-4.78-1.23-.97.98-2.96 1.23-3.93 1.23-3.26 0-4.3-1.22-4.42-1.83Zm11.5-3.61v-1.12c0-.24.2-.44.46-.44h.08c.25 0 .46.2.46.44v1.12c0 .24-.2.44-.46.44h-.08a.45.45 0 0 1-.46-.44Zm32-1.05c0-.28.2-.51.46-.51h.08c.25 0 .46.23.46.5v5c0 .27-.2.5-.46.5h-.08c-.25 0-.46-.23-.46-.5v-5Z" fill="#fff"/></svg>