<!-- by TradingView --><svg width="56" height="56" viewBox="0 0 56 56" fill="none" xmlns="http://www.w3.org/2000/svg"><path fill="#F0F3FA" d="M0 0h56v56H0z"/><path d="M17.97 20.53A12.23 12.23 0 0 1 21.5 17c.66.92 1.57 2.38 1.57 2.38s-2.99 2.85-3.21 2.55c-.13-.14-1.01-.78-1.88-1.4ZM16.27 29.5c-.18-.8-.27-1.53-.27-2.39 0-.9.1-1.77.29-2.61 1.16.35 3.52 1.13 3.52 1.13l-1.04 3.19-2.5.68ZM21.6 37a11.06 11.06 0 0 1-3.6-3.6l2.45-1.54 2.54 2.9L21.6 37ZM31 38.65c-.9.21-2.03.33-3 .33-.83 0-2.22-.08-3-.24.14-1.07.35-2.42.54-2.76l4.92-.48.54 3.15ZM38 33.18A11.32 11.32 0 0 1 34.63 37l-1.22-2.06.04-.33 2.47-2.93 2.08 1.5Z" fill="#181B1E"/><path d="M39.71 24.5a12.54 12.54 0 0 1 .08 5l-2.53-.56-.46-3.27 2.91-1.17Z" fill="url(#alni1x1ej)"/><path d="M34.39 16.99c1.44.9 2.67 2.1 3.61 3.5l-2.05 1.26-2.76-2.56 1.2-2.2Z" fill="url(#blni1x1ej)"/><path d="M24 18a9.9 9.9 0 0 0-6 9.09A9.95 9.95 0 0 0 28 37c5.53 0 10-4.43 10-9.91A9.9 9.9 0 0 0 32 18v2.22a7.9 7.9 0 0 1 4 6.87 7.95 7.95 0 0 1-8 7.93c-4.43 0-8-3.54-8-7.93a7.9 7.9 0 0 1 4-6.87V18Z" fill="url(#clni1x1ej)"/><path d="m25.13 15.83 1.17 1.38s.54 1.85 1.76 1.55V17.7s-.53-.56-1.46-.59l-1.32-1.48-.15.2Z" fill="url(#dlni1x1ej)"/><path d="m25.13 17.93 1.17 1.39s.54 1.84 1.76 1.55V19.8s-.53-.56-1.46-.59l-1.32-1.48-.15.2Z" fill="url(#elni1x1ej)"/><path d="m25.13 20.04 1.17 1.39s.54 1.84 1.76 1.54v-1.05s-.53-.56-1.46-.6l-1.32-1.47-.15.2Z" fill="url(#flni1x1ej)"/><path d="m25.13 22.15 1.17 1.38s.54 1.85 1.76 1.55v-1.05s-.53-.56-1.46-.6l-1.32-1.48-.15.2Z" fill="url(#glni1x1ej)"/><path d="m25.13 24.26 1.17 1.38s.54 1.85 1.76 1.55v-1.05s-.53-.56-1.46-.6l-1.32-1.48-.15.2Z" fill="url(#hlni1x1ej)"/><path d="m25.13 26.37 1.17 1.38s.54 1.84 1.76 1.55v-1.06s-.53-.56-1.46-.59l-1.32-1.48-.15.2Z" fill="url(#ilni1x1ej)"/><path d="m25.13 13.72 1.17 1.38s.54 1.85 1.76 1.55V15.6s-.53-.56-1.46-.6l-1.32-1.48-.15.2Z" fill="url(#jlni1x1ej)"/><path d="m25.13 11.58 1.17 1.4s.54 1.86 1.76 1.56v-1.03s-.53-.56-1.46-.6l-1.32-1.5-.15.17Z" fill="url(#klni1x1ej)"/><path d="m31 17.93-1.17 1.39s-.54 1.84-1.77 1.55V19.8s.54-.56 1.47-.59l1.32-1.48.15.2Z" fill="url(#llni1x1ej)"/><path d="m31 20.04-1.17 1.39s-.54 1.84-1.77 1.54v-1.05s.54-.56 1.47-.6l1.32-1.47.15.2Z" fill="url(#mlni1x1ej)"/><path d="m31 15.83-1.17 1.38s-.54 1.85-1.77 1.55V17.7s.54-.56 1.47-.59l1.32-1.48.15.2Z" fill="url(#nlni1x1ej)"/><path d="m31 24.26-1.17 1.38s-.54 1.85-1.77 1.55v-1.05s.54-.56 1.47-.6l1.32-1.48.15.2Z" fill="url(#olni1x1ej)"/><path d="m31 22.15-1.17 1.38s-.54 1.85-1.77 1.55v-1.05s.54-.56 1.47-.6l1.32-1.48.15.2Z" fill="url(#plni1x1ej)"/><path d="m31 26.37-1.17 1.38s-.54 1.84-1.77 1.55v-1.06s.54-.56 1.47-.59l1.32-1.48.15.2Z" fill="url(#qlni1x1ej)"/><path d="m31 13.72-1.17 1.38s-.54 1.85-1.77 1.55V15.6s.54-.56 1.47-.6l1.32-1.48.15.2Z" fill="url(#rlni1x1ej)"/><path d="m31 11.58-1.17 1.4s-.54 1.86-1.77 1.56v-1.03s.54-.56 1.47-.6l1.32-1.5.15.17Z" fill="url(#slni1x1ej)"/><path d="M27.5 29.02 27.84 9h.32l.34 20.02h-1Z" fill="#F5CC16"/><path d="m25 15.52 1.2 1.38s.54 1.85 1.8 1.55V17.4s-.55-.56-1.5-.6l-1.35-1.48-.15.2ZM25 17.63 26.2 19s.54 1.85 1.8 1.55v-1.05s-.55-.56-1.5-.6l-1.35-1.48-.15.2ZM25 19.74l1.2 1.38s.54 1.84 1.8 1.55V21.6s-.55-.56-1.5-.59l-1.35-1.48-.15.2ZM25 21.84l1.2 1.39s.54 1.84 1.8 1.55v-1.06s-.55-.56-1.5-.6l-1.35-1.47-.15.2ZM25 23.95l1.2 1.39s.54 1.84 1.8 1.54v-1.05s-.55-.56-1.5-.6l-1.35-1.48-.15.2ZM25 26.06l1.2 1.38S26.73 29.3 28 29v-1.05s-.55-.56-1.5-.6l-1.35-1.48-.15.2ZM25 13.41l1.2 1.39s.54 1.84 1.8 1.54V15.3s-.55-.56-1.5-.6l-1.35-1.47-.15.2ZM25 11.27l1.2 1.4s.54 1.87 1.8 1.57V13.2s-.55-.56-1.5-.6l-1.35-1.5-.15.17ZM31 17.63 29.8 19s-.54 1.85-1.8 1.55v-1.05s.55-.56 1.5-.6l1.35-1.48.15.2ZM31 19.74l-1.2 1.38s-.54 1.84-1.8 1.55V21.6s.55-.56 1.5-.59l1.35-1.48.15.2ZM31 15.52l-1.2 1.38s-.54 1.85-1.8 1.55V17.4s.55-.56 1.5-.6l1.35-1.48.15.2ZM31 23.95l-1.2 1.39s-.54 1.84-1.8 1.54v-1.05s.55-.56 1.5-.6l1.35-1.48.15.2ZM31 21.84l-1.2 1.39s-.54 1.84-1.8 1.55v-1.06s.55-.56 1.5-.6l1.35-1.47.15.2ZM31 26.06l-1.2 1.38S29.27 29.3 28 29v-1.05s.55-.56 1.5-.6l1.35-1.48.15.2ZM31 13.41l-1.2 1.39s-.54 1.84-1.8 1.54V15.3s.55-.56 1.5-.6l1.35-1.47.15.2ZM31 11.27l-1.2 1.4s-.54 1.87-1.8 1.57V13.2s.55-.56 1.5-.6l1.35-1.5.15.17Z" fill="#F5CC16"/><path d="m13.22 26.3-3.75.71s-.4.49-.19 1.16c.23.68.51 1.03.51 1.03s-.06 1.3.57 2.39c0 0 4.29-1.8 4.13-1.84-.16-.03-1.02-.26-1.02-.26l-1.65 1.1-.44-1.52.54-.45-.6-.19s-.73-1.06-.45-1.22c.29-.16 2.48-.55 2.48-.55l-.13-.36Z" fill="url(#tlni1x1ej)"/><path d="m12.83 31.59-1.42.95s-.2.14.04.6c.27.45.58.8.58.8s-.2.15 0 .53c.21.4 1 1.34 1 1.34l3.57-2.99s-.9.03-1.14.32c-.24.28-1.1 1.05-1.1 1.05l-.77-.98 1.32-1.38s-.66-.35-.8-.14c-.17.21-.73 1.13-.73 1.13s-.62-.78-.55-1.23Z" fill="url(#ulni1x1ej)"/><path d="m13.3 36.58 3.72-3.04s-.76 0-1.21.42l-2.86 2.55.35.07Z" fill="url(#vlni1x1ej)"/><path d="M16.55 35.81s-2.06 1.45-2.06 2.1c0 .65 2.4 2.13 2.4 2.13l1.82-2.82-.72.22-.3.8s-1.79-1.34-1.71-1.45c.03-.11.68-.76.57-.98Z" fill="url(#wlni1x1ej)"/><path d="M16.66 40.88s.82.85 1.9-.2c0 0-.26-1.04.56-1.27l.36-.43v.62l.75.56s.6-1.21 1.25-1.01c.64.2.4.81.04.75-.36-.07-.61.03-.54.3.07.25.5.48.5.48l-1 1.47-1.9-.88-.81.78c-.04 0-1.47.36-1.11-1.17Z" fill="url(#xlni1x1ej)"/><path fill-rule="evenodd" d="M25.35 40.92c-.06-.32.1-1.94.1-1.94-.46.07-.63 2.02-.6 2.34.03.32-.57.47-.57.47s-.4 1.22-.26 1.86c.13.62 5.24.62 5.24.62l-.06-3.24s-.8.72-1.07 1.12c-.27.39-1.5 0-1.5 0s.03-.47-.04-1.26c-.07-.83-1.24.03-1.24.03Zm-.33.97 1.07.18s-.27-1.69-1.07-.18Z" fill="url(#ylni1x1ej)"/><path d="M32.44 41.3s-.2 2.97 1.31 2.97c1.52 0 .83-1.67.83-1.67l2.07-.9-.2-1.82-.53.03s-.82-.93-1.34-.93c-.53 0 0 1.1 0 1.1s.56-.63.92.07l-1.19.66-.59-.53-.33.43.73 1.3s-.37.9-.83.73c-.52-.24-.85-1.43-.85-1.43Z" fill="url(#zlni1x1ej)"/><path d="m41.25 33.73.47.66.03.55 1.04.87s.66-.14.66-.26c0-.11-.12-.52-.12-.52l.56.3 1.2-1.69-1.67-.9s-1.04-.34-1.51.06c0 0-.76 0-.22-.6l-.6-.61s-.85 1.07.79 1.85c0 0 .37-.64 1.5-.32l-.68 1.13-1.45-.52Z" fill="url(#aalni1x1ej)"/><path d="M44.65 31.75c.18-.07.98-.07.98-.07l.65 1.2s.34.41-.03.75c0 0 .64.38.95-.65 0 0-.06-.62-.77-1.23L47.2 28l-2.74-.65.31.65.65.2-.74 2.78-.65.1.62.66Z" fill="url(#ablni1x1ej)"/><path d="M21.5 44.08c1.82-1.4 1.42-4.81 1.42-4.81s-1.36 1.81-1.44 2.72c-.06.9.73.66.73.66-.62 1.12-1.38.45-1.38.45-.06.88.68.98.68.98Zm1.2-3.9s.14.7-.26.9c-.37.25-.06-.9.25-.9Z" fill="url(#aclni1x1ej)"/><path d="M30.83 45.13c1.47-2.2-.5-5.1-.5-5.1s-.8 2.38-.44 3.21c.32.84 1.12.21 1.12.21-.22 1.33-1.4 1.12-1.4 1.12.32.87 1.22.56 1.22.56Zm-.4-4.12s.47.56.14.94c-.32.42-.5-.76-.14-.94Z" fill="url(#adlni1x1ej)"/><path fill-rule="evenodd" d="M35.6 37.48s1.42 2.78 2.46 4.02c0 0 3.22-2.6 3.33-2.63.1-.04.96-.18.96-.18l-.82-1.81-1.79-1.07-.43.32.54 1.67-.21.15-1.33-1s-.57.64-.6 1.03l-1.15-1.53-.4.5 1.3 1.78-.08.78-1.57-2.24-.22.21Zm2.71 1.39.9-.75s-1.47-.85-.9.75Zm1.83-2.13s.75.03.82.57c.07.53-.97-.22-.82-.57Z" fill="url(#aelni1x1ej)"/><path d="m13 26-3.74.71s-.42.49-.2 1.17c.23.68.51 1.04.51 1.04s-.06 1.3.58 2.4c0 0 4.28-1.82 4.12-1.85-.16-.03-1.01-.26-1.01-.26l-1.65 1.1-.45-1.52.54-.46-.6-.19s-.73-1.07-.45-1.23c.29-.16 2.48-.55 2.48-.55L13 26ZM12.61 31.32l-1.42.95s-.2.15.04.6c.28.47.59.82.59.82s-.21.14 0 .53c.2.4 1 1.35 1 1.35l3.57-3.01s-.9.03-1.14.32c-.25.28-1.11 1.06-1.11 1.06l-.76-1 1.31-1.38s-.66-.35-.8-.14c-.17.22-.72 1.14-.72 1.14s-.63-.78-.56-1.24ZM13.08 36.34l3.73-3.05s-.77 0-1.22.42c-.45.42-2.86 2.56-2.86 2.56l.35.07ZM16.33 35.57s-2.05 1.45-2.05 2.1c0 .66 2.4 2.15 2.4 2.15L18.5 37l-.72.22-.3.8s-1.8-1.35-1.72-1.46c.04-.1.69-.76.57-.98ZM16.45 40.67s.82.85 1.89-.2c0 0-.25-1.05.57-1.28l.36-.43v.62l.75.56s.6-1.21 1.25-1.02c.64.2.4.83.04.76-.36-.07-.61.03-.54.3.07.26.5.49.5.49l-1 1.48-1.9-.89-.82.8c-.03 0-1.46.35-1.1-1.2Z" fill="#ED1C24"/><path fill-rule="evenodd" d="M25.14 40.71c-.06-.32.1-1.95.1-1.95-.46.07-.63 2.02-.6 2.35.03.33-.57.47-.57.47s-.4 1.23-.26 1.88c.13.62 5.25.62 5.25.62l-.07-3.26s-.8.72-1.07 1.12c-.27.4-1.5 0-1.5 0s.03-.47-.04-1.26c-.07-.84-1.24.03-1.24.03Zm-.33.98 1.07.18s-.27-1.7-1.07-.18Z" fill="#ED1C24"/><path d="M32.23 41.1s-.2 2.98 1.32 2.98c1.51 0 .82-1.68.82-1.68l2.07-.9-.2-1.84-.52.04s-.82-.94-1.35-.94c-.53 0 0 1.1 0 1.1s.56-.63.92.07l-1.18.67-.6-.54-.32.44.72 1.3s-.36.9-.82.74c-.53-.24-.86-1.44-.86-1.44ZM41.05 33.47l.47.67.03.56 1.04.87s.66-.15.66-.26c0-.12-.13-.53-.13-.53l.57.3 1.2-1.7-1.67-.9s-1.04-.35-1.51.06c0 0-.76 0-.22-.61l-.6-.61s-.85 1.07.79 1.86c0 0 .37-.64 1.5-.32L42.5 34l-1.44-.53ZM44.45 31.48c.18-.07.98-.07.98-.07l.65 1.2s.34.42-.03.77c0 0 .64.37.95-.66 0 0-.06-.62-.77-1.24l.77-3.76-2.74-.66.31.66.65.2-.74 2.8-.65.1.62.66ZM21.3 43.9c1.8-1.41 1.41-4.85 1.41-4.85s-1.36 1.82-1.44 2.73c-.06.92.73.67.73.67-.62 1.13-1.39.46-1.39.46-.05.88.68.98.68.98Zm1.18-3.94s.15.7-.25.91c-.37.25-.06-.91.25-.91ZM30.62 44.94c1.48-2.2-.5-5.12-.5-5.12s-.8 2.39-.44 3.23c.33.84 1.12.2 1.12.2-.22 1.34-1.4 1.13-1.4 1.13.32.88 1.22.56 1.22.56Zm-.4-4.14s.47.56.15.95c-.33.42-.5-.77-.15-.95Z" fill="#ED1C24"/><path fill-rule="evenodd" d="M35.39 37.25s1.43 2.8 2.47 4.04c0 0 3.22-2.6 3.33-2.64.1-.04.96-.18.96-.18l-.82-1.83-1.79-1.07-.43.32.54 1.68-.22.15-1.32-1s-.57.64-.6 1.03l-1.15-1.54-.4.5 1.29 1.8-.07.78-1.58-2.25-.21.21Zm2.72 1.4.9-.76s-1.47-.85-.9.76Zm1.82-2.15s.76.04.83.57c.07.54-.97-.21-.83-.57Z" fill="#ED1C24"/><defs><linearGradient id="alni1x1ej" x1="28" y1="16.99" x2="28" y2="38.98" gradientUnits="userSpaceOnUse"><stop stop-color="#181B1E"/><stop offset="1" stop-color="#181B1E"/></linearGradient><linearGradient id="blni1x1ej" x1="28" y1="16.99" x2="28" y2="38.98" gradientUnits="userSpaceOnUse"><stop stop-color="#181B1E"/><stop offset="1" stop-color="#181B1E"/></linearGradient><linearGradient id="clni1x1ej" x1="28" y1="18" x2="28" y2="37" gradientUnits="userSpaceOnUse"><stop stop-color="#181B1E"/><stop offset="1" stop-color="#181B1E"/></linearGradient><linearGradient id="dlni1x1ej" x1="26.6" y1="15.63" x2="26.6" y2="18.79" gradientUnits="userSpaceOnUse"><stop stop-color="#181B1E"/><stop offset="1" stop-color="#181B1E"/></linearGradient><linearGradient id="elni1x1ej" x1="26.6" y1="17.74" x2="26.6" y2="20.9" gradientUnits="userSpaceOnUse"><stop stop-color="#181B1E"/><stop offset="1" stop-color="#181B1E"/></linearGradient><linearGradient id="flni1x1ej" x1="26.6" y1="19.85" x2="26.6" y2="23.01" gradientUnits="userSpaceOnUse"><stop stop-color="#181B1E"/><stop offset="1" stop-color="#181B1E"/></linearGradient><linearGradient id="glni1x1ej" x1="26.6" y1="21.95" x2="26.6" y2="25.11" gradientUnits="userSpaceOnUse"><stop stop-color="#181B1E"/><stop offset="1" stop-color="#181B1E"/></linearGradient><linearGradient id="hlni1x1ej" x1="26.6" y1="24.06" x2="26.6" y2="27.22" gradientUnits="userSpaceOnUse"><stop stop-color="#181B1E"/><stop offset="1" stop-color="#181B1E"/></linearGradient><linearGradient id="ilni1x1ej" x1="26.6" y1="26.17" x2="26.6" y2="29.33" gradientUnits="userSpaceOnUse"><stop stop-color="#181B1E"/><stop offset="1" stop-color="#181B1E"/></linearGradient><linearGradient id="jlni1x1ej" x1="26.6" y1="13.52" x2="26.6" y2="16.68" gradientUnits="userSpaceOnUse"><stop stop-color="#181B1E"/><stop offset="1" stop-color="#181B1E"/></linearGradient><linearGradient id="klni1x1ej" x1="26.6" y1="11.41" x2="26.6" y2="14.58" gradientUnits="userSpaceOnUse"><stop stop-color="#181B1E"/><stop offset="1" stop-color="#181B1E"/></linearGradient><linearGradient id="llni1x1ej" x1="29.53" y1="17.74" x2="29.53" y2="20.9" gradientUnits="userSpaceOnUse"><stop stop-color="#181B1E"/><stop offset="1" stop-color="#181B1E"/></linearGradient><linearGradient id="mlni1x1ej" x1="29.53" y1="19.85" x2="29.53" y2="23.01" gradientUnits="userSpaceOnUse"><stop stop-color="#181B1E"/><stop offset="1" stop-color="#181B1E"/></linearGradient><linearGradient id="nlni1x1ej" x1="29.53" y1="15.63" x2="29.53" y2="18.79" gradientUnits="userSpaceOnUse"><stop stop-color="#181B1E"/><stop offset="1" stop-color="#181B1E"/></linearGradient><linearGradient id="olni1x1ej" x1="29.53" y1="24.06" x2="29.53" y2="27.22" gradientUnits="userSpaceOnUse"><stop stop-color="#181B1E"/><stop offset="1" stop-color="#181B1E"/></linearGradient><linearGradient id="plni1x1ej" x1="29.53" y1="21.95" x2="29.53" y2="25.11" gradientUnits="userSpaceOnUse"><stop stop-color="#181B1E"/><stop offset="1" stop-color="#181B1E"/></linearGradient><linearGradient id="qlni1x1ej" x1="29.53" y1="26.17" x2="29.53" y2="29.33" gradientUnits="userSpaceOnUse"><stop stop-color="#181B1E"/><stop offset="1" stop-color="#181B1E"/></linearGradient><linearGradient id="rlni1x1ej" x1="29.53" y1="13.52" x2="29.53" y2="16.68" gradientUnits="userSpaceOnUse"><stop stop-color="#181B1E"/><stop offset="1" stop-color="#181B1E"/></linearGradient><linearGradient id="slni1x1ej" x1="29.53" y1="11.41" x2="29.53" y2="14.58" gradientUnits="userSpaceOnUse"><stop stop-color="#181B1E"/><stop offset="1" stop-color="#181B1E"/></linearGradient><linearGradient id="tlni1x1ej" x1="11.86" y1="26.3" x2="11.86" y2="31.59" gradientUnits="userSpaceOnUse"><stop stop-color="#181B1E"/><stop offset="1" stop-color="#181B1E"/></linearGradient><linearGradient id="ulni1x1ej" x1="13.97" y1="31.59" x2="13.97" y2="35.81" gradientUnits="userSpaceOnUse"><stop stop-color="#181B1E"/><stop offset="1" stop-color="#181B1E"/></linearGradient><linearGradient id="vlni1x1ej" x1="14.99" y1="33.54" x2="14.99" y2="36.58" gradientUnits="userSpaceOnUse"><stop stop-color="#181B1E"/><stop offset="1" stop-color="#181B1E"/></linearGradient><linearGradient id="wlni1x1ej" x1="16.6" y1="35.81" x2="16.6" y2="40.04" gradientUnits="userSpaceOnUse"><stop stop-color="#181B1E"/><stop offset="1" stop-color="#181B1E"/></linearGradient><linearGradient id="xlni1x1ej" x1="19.24" y1="38.98" x2="19.24" y2="42.15" gradientUnits="userSpaceOnUse"><stop stop-color="#181B1E"/><stop offset="1" stop-color="#181B1E"/></linearGradient><linearGradient id="ylni1x1ej" x1="26.63" y1="38.98" x2="26.63" y2="44.27" gradientUnits="userSpaceOnUse"><stop stop-color="#181B1E"/><stop offset="1" stop-color="#181B1E"/></linearGradient><linearGradient id="zlni1x1ej" x1="34.54" y1="38.98" x2="34.54" y2="44.27" gradientUnits="userSpaceOnUse"><stop stop-color="#181B1E"/><stop offset="1" stop-color="#181B1E"/></linearGradient><linearGradient id="aalni1x1ej" x1="42.98" y1="31.59" x2="42.98" y2="35.81" gradientUnits="userSpaceOnUse"><stop stop-color="#181B1E"/><stop offset="1" stop-color="#181B1E"/></linearGradient><linearGradient id="ablni1x1ej" x1="45.62" y1="27.36" x2="45.62" y2="33.7" gradientUnits="userSpaceOnUse"><stop stop-color="#181B1E"/><stop offset="1" stop-color="#181B1E"/></linearGradient><linearGradient id="aclni1x1ej" x1="21.89" y1="39.27" x2="21.89" y2="44.08" gradientUnits="userSpaceOnUse"><stop stop-color="#181B1E"/><stop offset="1" stop-color="#181B1E"/></linearGradient><linearGradient id="adlni1x1ej" x1="30.49" y1="40.03" x2="30.49" y2="45.18" gradientUnits="userSpaceOnUse"><stop stop-color="#181B1E"/><stop offset="1" stop-color="#181B1E"/></linearGradient><linearGradient id="aelni1x1ej" x1="38.97" y1="35.81" x2="38.97" y2="41.5" gradientUnits="userSpaceOnUse"><stop stop-color="#181B1E"/><stop offset="1" stop-color="#181B1E"/></linearGradient></defs></svg>