<!-- by TradingView --><svg width="56" height="56" viewBox="0 0 56 56" xmlns="http://www.w3.org/2000/svg"><path fill="#F0F3FA" d="M0 0h56v56H0z"/><path d="m18 23-1.98-3-4.33 2.43c-.18.1-2.15 1.57-2.19 3.79-.01.77 0 1.84.5 2.78l-3.14 2.2s-.63.29-1.15.3c-.38 0-.71-.25-.71-.76C5 29.54 7 26 7 26s-3 3.67-3 5.95A2.87 2.87 0 0 0 6.8 35c1.01 0 2.06-.37 3.29-1.1L21 27.25l-1.66-1.88s-.4-.37-1.1-.38c-.32 0-.7.06-1.14.27-1.39.67-2.87 1.5-2.87 1.5s-.39.23-.73.23c-.26 0-.5-.13-.5-.6 0-.7.8-1.08.8-1.08L18 23ZM30 23s-1.32-2-3.5-2c-2.17 0-4.5 2.34-4.5 3.82 0 1.1.92 1.18 1.3 1.18.39 0 2.28-.24 6.7-3ZM16.05 32 32 23s-1.08.78-1.03 1.32c.05.54.83 3.12-2.98 5.58-3.82 2.46-8.47 4.82-8.47 4.82s-.49.28-1.54.28c-.94 0-1.97-.52-1.98-2.29 0-.22.01-.45.05-.71Z" fill="#181B1E"/><path d="m42 24 4.07-2.48S46.87 21 48 21s4 1.57 4 4.5c0 2.95-1.75 4.07-2.77 4.73-1.02.65-7.08 3.96-7.08 3.96s-1.37.81-2.9.81c-1.54 0-2.3-1.1-2.25-3.49l-4.39 2.73s-.91.76-2.71.76c-1.8 0-2.9-1.13-2.9-2.54 0-1.42 1.13-3.44 1.13-3.44s-.67 2.52.02 2.52c.7 0 1.91-.6 3.1-1.34C32.41 29.47 39 26 39 26v3.8s0 .77.5.77 7.21-3.93 7.21-3.93.29-.14.29-.53c0-.38-.35-.61-.77-.61C45.82 25.5 42 28 42 28v-4Z" fill="#181B1E"/><path d="M31 22h2.5L32 24l-1-2ZM48.47 33.35c1.14 0 2.08.72 2.25 1.65h-1.05c-.14-.45-.63-.78-1.2-.78s-1.06.33-1.2.78h-1.05c.17-.93 1.1-1.65 2.25-1.65Z" fill="#773BFF"/><path d="M48 33h1v1h-1v-1ZM46.33 33.74l.95-.55.46.58-.95.55-.46-.58ZM50.66 33.74l-.95-.55-.47.58.96.55.46-.58ZM49.85 34.49H51V35h-1.15v-.51ZM46 34.49h1.15V35H46v-.51Z" fill="#773BFF"/></svg>