<!-- by TradingView --><svg width="56" height="56" viewBox="0 0 56 56" xmlns="http://www.w3.org/2000/svg"><path fill="#F0F3FA" d="M0 0h56v56H0z"/><path fill-rule="evenodd" d="M32.44 11.5H19.47c-1.51 0-2 1.08-2.16 1.63l-.05.23c-1.39 7-2.93 13.97-4.4 20.96l-.07.05c-2.07 1.5-2.4 2.74-2.28 3.56a2.3 2.3 0 0 0 .66 1.3h7.28l-.53.43c-.67.56-1.32 1.13-1.97 1.7-.37.33-.65.82-.1 1.14H40.57c.68.06.85-.38.85-.96l-.5-2.27h5.59V37c0-.86-.56-1.45-1.17-1.83A4.53 4.53 0 0 0 44 34.6l-.04-.13c.36-.1.07.05 0 0l-.91-3a5862.3 5862.3 0 0 0-5.52-18.18c-.25-.8-.76-1.22-1.6-1.48-.85-.26-2-.32-3.49-.32Zm11.95 22.7-.87-2.88C41.87 25.87 38.5 14.76 38 13.15a2.68 2.68 0 0 0-1.92-1.81 13.2 13.2 0 0 0-3.64-.34H19.47a2.64 2.64 0 0 0-2.7 2.26c-1.37 6.94-2.9 13.85-4.35 20.77-2.09 1.54-2.54 2.92-2.4 3.97a2.8 2.8 0 0 0 .89 1.66l.07.06h6.11l-.04.03-1.43 1.24c-.3.28-.5.54-.56.8-.15.52.2.9.42 1.05.06.05.13.09.2.12l.05.03h24.81c.4.04.7-.03.92-.18a1 1 0 0 0 .41-.57c.02-.04.03-.09.03-.13l-.37-2.35H47V37c0-1.1-.72-1.82-1.4-2.25a5.12 5.12 0 0 0-1.21-.55Z" fill="#2B2A29"/><path d="M19.85 13h14.6s1.61.38 2.12 2c.51 1.63 5.96 20.01 5.96 20.01S45 35.18 45 38H12.02s-.34-2.35 1.87-3.16l4.26-19.8c0 .05.55-2.04 1.7-2.04Z" fill="url(#agyhkgilr)"/><path d="M20.95 17h10.06s2.87.28 3.86 4C35.86 24.7 39 35 39 35H17l3.95-18Z" fill="#F0F3FA"/><path d="M27.1 20.44c-1 1.32-2.42 1.6-3.1 2.56 2.07 3.17.17 5.08 1.23 1.63l-.77-.14-.64-.55-.41.05C22 25.5 20.5 25.5 23.5 30.5h3c2.63 0 4.69 3.48 5.5 6 .64-.55.7-.53 1.62-.66-.14 1.6.18.63-.73.9.04.05.13.05.18.14l1.14.69c2.1.68 3 1.82 4.96 2.41l-.95-1c-1.14-.4-1.1-.27-1.78-1.23l-2.46-.87-.23-2.64-.68-5.6c1.32-1.37 2.1-.64 2.46-2.14.32-1.23-.21-3.13-.03-4.5-1-1-2 1-3.02-.47-1.05.68-.46 2.64-.46 4.33.1 1.28.54 5.54-.77 4.46-2.92-2.1-2.37-1.32-2.2-6.6.1-2.28-.26-2.7 1.33-3.47-.1-1.09-.14-1-.5-1.86l.87-.82c-.25-2.57-2.7 1.6-3.65 2.87Z" fill="#030303"/><path d="m23.23 28.82-1.19-.05.23 1.92c3.1 3.05.46 1.18 4.6 4.65.78.63.81 1.11 1.63 1.66 1.35.05 1 0 2.97.11l1.28-.27c-.5-.37-.1-.05-.36-.55-.46-1.41-2.51-4.37-3.42-5.88l-2.14-.18c-.37-1.91.04-.95-.96-2.1-.78-.86-.27-.72-1.5-1.18.45 2.74 1.55.14 1.91 3.42l-2.78.04-.27-1.59Z" fill="#FDFDFC"/><path d="M22.27 34.6c-1.69.78-.68.87-1.69 2.01-2.1 2.42-1.27 2.42-.68 3.7.73-3.29 1.46-4.15 3.42-5.66 1.77.46 1.41.73 2.5 1.78 1.23 1.23 1.78.55 1.92 2.5-2.14.32-2.7-.63-4.2 2.83l.69-.6c.86-.81 1.27-1.45 2.87-1.4 1.37.04 2.5 1 3.37 1.54l-1.18-1.64c1.73-.4.95.05 2.64.1.05 0 .14 0 .18-.05.05-.05.14-.05.18-.1-.77-1.54-3.64-.25-3.64-2.68-.82-.5-.96-.91-1.73-1.6-4.15-3.46-1.5-1.59-4.6-4.64-.69 0-.5-.18-.5.5.59 1.5.54 1.78.45 3.42Z" fill="#15131D"/><path d="M21.81 31.19c-.04-.68-.18-.5.5-.5l-.22-1.92 1.18.05c.05.05.14.1.14.14l.14.13c1.27 1.14.27.64 1.82 1-.69-1.09-.73-1.63-2.14-1.63.18-.82.18-.87.5-1.37l-1.32-.23c.73-.64-.19-1.23-.19-1.23 1.72-.57 3.06-.44 2.37-.68.37.59-.13.5 1.32.22l-1.68-2.64-1.32-.04c-.63.89-1.9 2.9-2.05 3.87-.18 1.23.27 3.87.95 4.83Z" fill="#727272"/><path d="M32.2 39.66c.23-.27-.86-.72.91-.36 1.14.23.55.36.69.46 1.73 1 .86.45 1.6-.1-.46-1.18 1-.9-1.33-1.04-.5-1.5-.18-.64-.04-.96l-1.14-.68c-.06-.12-2.12.02-2.4.02-.5 0 .16.07-1.82 0-.05.6-.25 1.02-.34 1.3l-.22.92 3.32-.28.14.13.36.37c.1-.05.23.13.27.22Z" fill="#757575"/><path d="M28.83 17.3s-.4 1.13-.55 1.36c-.22.4-.5.6-.63.77-.64.82-.19.05-.6 1-.86.46.28 1.97.32 4.43l1.6-4.88c.36-1 0-1.5.54-2 .49-.98.91-1.24 1.74-1.19-.64-.87-.19-.64-1.87-.91-.14 1.41-.18.87-.55 1.41Z" fill="#7D7D7E"/><path d="m33.11 20.48-.77 1.05c.27 1.32.32 2.05.64 3.19l1.05-1.6c.18-1.04-.1-.5.77-1l.68-.27c-.18-1.28-.32-1.1-.82-2.23-.04-.1-.36-.96-.4-1-.87-1.05.77-.42-1.2-.6l.74 2.05c-.28.5.95.46-.69.41Z" fill="#ADADAE"/><path d="M30.6 17.61c0 .05-.04 1.1 0 1.37.24 1.27.78.23.24 1.36l2.27.14c1.64 0 .41.1.82-.36l-.72-2.05c-1.64.5-1.74-.64-1.92-1.32l-.82-.05.14.91Z" fill="#030303"/><path d="M28.79 34.88c.95.73.36.36.54 0-.4-.77-.77-1.91-1.27-2.87l-2.65-.05c.64.55 1.23.55 1.92 1.19 1 .91.32.86 1.46 1.73Z" fill="#2C2C2C"/><path d="M31.12 30.6c.9.42-1.15.47 1.06.33.66-.78.17-.37.82-.92l-.5-3.9c-2.77-.19-.73-.19-1.38.46.33 1.47.65 2.89 0 4.04Z" fill="#898A8A"/><path d="M22.32 37.89c.22.64.13.32.22 1.14-.68.82-.9.86-1.4 1.6l2-.15c.13-1.54-.1-2.91-1.42-3.78l.6 1.19Z" fill="#1C1C1C"/><path d="M25.96 25.08c-1.41.32-.96.37-1.32-.22-.91.5-.55.18-1 1.04.82.55.77.64 2.18.73l.14-1.55Z" fill="#FCFCFC"/><path d="M28.76 34.83c.32 1.1.5 1.14.96 2.05l.73-.04.09-.78-1.18-1.23c-.36-.33-.65-.2-.6 0Z" fill="#6D6D6D"/><path d="M29.74 36.93c-.45.6-.45.14.05.73-.18-.18-1.41.6.68-.78l1.1 1.55-.05-1.32-.96-.95-.82.77Z" fill="#060606"/><path d="M23.18 25.22c.82-.46.27.27.32-.55 0-.22-.1-.5-.18-.73l-.96 1c.23.19-.36.14.82.28Z" fill="#F9F9FA"/><path d="m23.73 23.85.64.55c.13-2.37.09-.73-.41-1.28-.82.32-.55.05-.23.73Z" fill="#FEFEFE"/><path d="M20 14a1 1 0 0 1 1 1 1 1 0 0 1-1 1 1 1 0 0 1-1-1 1 1 0 0 1 1-1Z" fill="#F0F3FA"/><path d="m19 16.13-3.4 17.89s-.51 1.93-2.3 2.98l-.3-.57c1.49-.88 1.96-2.46 2-2.59L18.4 16l.6.13Z" fill="#3B73AD"/><defs><linearGradient id="agyhkgilr" x1="23" y1="23" x2="33" y2="17" gradientUnits="userSpaceOnUse"><stop stop-color="#293982"/><stop offset="1" stop-color="#1A1A26"/></linearGradient></defs></svg>