<!-- by TradingView --><svg width="56" height="56" viewBox="0 0 56 56" xmlns="http://www.w3.org/2000/svg"><path fill="#F0F3FA" d="M0 0h56v56H0z"/><path fill-rule="evenodd" d="M36 23.5c0-4.7-3.36-8.5-7.5-8.5-4.14 0-7.5 3.8-7.5 8.5s3.36 8.5 7.5 8.5c4.14 0 7.5-3.8 7.5-8.5Zm-2 .13c0-3.52-2.47-6.63-5.52-6.63-3.04 0-5.48 3.11-5.48 6.63S25.44 30 28.48 30c3.05 0 5.52-2.85 5.52-6.37Z" fill="#ED3F62"/><path d="M26.25 14.33c-.47.15-.93.34-1.37.57l.69 1.12a6.3 6.3 0 0 1 1.12-.46l-.44-1.23ZM28.5 14c-.26 0-.51.01-.77.04l.15 1.28c.42-.04.82-.04 1.24 0l.14-1.28c-.25-.03-.5-.04-.76-.04Zm-4.84 1.69a8.7 8.7 0 0 0-1.05.96l1.05.84c.27-.29.57-.57.9-.82l-.9-.98Zm-1.92 2.05c-.27.38-.5.79-.7 1.2l1.27.53c.17-.36.37-.7.6-1.04l-1.17-.69Zm-1.21 2.46c-.15.43-.26.86-.34 1.3l1.37.23c.08-.4.17-.77.3-1.16l-1.33-.37Zm-.5 2.64c-.04.44-.04.9 0 1.34l1.38-.08c-.03-.39-.03-.8 0-1.19l-1.39-.07Zm.16 2.68c.09.44.2.88.34 1.3l1.33-.38a8.85 8.85 0 0 1-.3-1.16l-1.37.24Zm.86 2.56c.2.4.44.83.7 1.2l1.17-.7a8.37 8.37 0 0 1-.6-1.03l-1.27.53Zm1.57 2.29c.32.34.68.67 1.06.96l.88-1a7.18 7.18 0 0 1-.89-.8l-1.05.84Zm2.28 1.74c.44.23.9.42 1.37.56l.43-1.22a6.44 6.44 0 0 1-1.12-.46l-.68 1.12Zm2.85.85c.5.05 1 .05 1.5 0l-.14-1.28c-.4.04-.81.04-1.22 0l-.14 1.28Zm2.98-.29c.48-.14.94-.34 1.37-.56l-.68-1.12c-.34.18-.75.35-1.12.46l.43 1.22Zm2.6-1.35c.38-.3.72-.6 1.05-.96l-1.05-.84a7 7 0 0 1-.9.81l.9 1Zm1.93-2.05c.25-.38.5-.79.7-1.2l-1.28-.52c-.17.35-.37.7-.6 1.03l1.18.69Zm1.2-2.45c.15-.43.26-.87.35-1.31l-1.37-.23c-.08.4-.17.78-.3 1.16l1.33.38Zm.52-2.64c.02-.44.03-.92 0-1.35l-1.39.08c.03.4.02.8 0 1.2l1.39.07Zm-.17-2.68c-.09-.44-.2-.88-.34-1.31l-1.33.38c.13.38.23.77.3 1.16l1.37-.23Zm-.86-2.57c-.2-.41-.43-.81-.7-1.2l-1.16.7c.22.33.43.68.6 1.04l1.26-.54Zm-1.57-2.29a8.84 8.84 0 0 0-1.05-.96l-.88 1c.32.25.61.51.89.8l1.04-.84Zm-2.27-1.75c-.44-.23-.9-.41-1.37-.56l-.43 1.23c.39.12.76.27 1.12.46l.68-1.13Z" fill="#ED3F62"/><path d="M23.53 34.81a5.25 5.25 0 0 0-2.82-.13c.7 1.1 2.35.35 3.59.66-.97-2.26-.4-2.9-1.46-3.48a6.02 6.02 0 0 0 .7 2.95Z" fill="#A98758"/><path d="M24.65 36.19c-.83-.45-2.11-.25-2.65.23 1.43.7 1.78.1 3.13.09-.3-1.03-.5-2.97-1.46-3.5.03 1.26.97 2.75.98 3.18Z" fill="#A98758"/><path d="m21.32 33.32-1.6-.53c-.86 0-.5.1-.65.23.6.93 1.7.83 2.72.85-.17-1.23.2-2.33-.38-3.22-.53.66-.2 1.9-.09 2.67Z" fill="#A88867"/><path d="M19.18 29.3c-.17-.1-1.67-1.32-1.81-1.5.7 1.83.64 1.54 2.22 2.58.04-1.1.25-2.78.1-3.76-.53.7-.48 1.77-.5 2.69ZM18.22 25c.47-.7 1.23-1.93 1.36-2.87-.73.31-.9 1.3-1.36 1.88l-1-2.35c-.4 1.17.3 2.5 1 3.34Z" fill="#B6914D"/><path d="M20.17 31.63c-.8-.42-1.05-.9-2.1-1.08.44 1.19 1.35 1.42 2.47 1.64-.02-1.2.4-2.09-.2-3.18-.47.86-.16 1.66-.17 2.62Z" fill="#A98758"/><path d="M18.75 28.33c-.03-1.85.65-2.3.57-3.77-.57.45-.7 1.5-.87 2.3-.5-.84-.74-1.52-1.45-2.27.39 3 1.65 2.32 1.75 3.74Z" fill="#A99558"/><path d="M18.25 22.7c1.06-2.41 1.6-1.4 1.62-2.99-.6.34-.93 1.02-1.39 1.6l-.68-2.38c-.58 1.07.36 2.6.45 3.77Z" fill="#B89566"/><path d="M18.62 19.97c.29-.24.36-.36.58-.54.69-.56 1.08-.58 1.28-1.6-1.07.32-.84.6-1.58 1.16l-.08-2.67c-.72.65-.32 2.71-.2 3.65Z" fill="#B78879"/><path d="M19.42 17.48c.7-.5 1.82-.68 1.89-1.46-.5 0-.97.38-1.43.64l.29-2.49c-.86.36-.73 2.39-.75 3.3Z" fill="#A77A74"/><path d="M20.44 15.65c.9-.47 1.68-.22 2.07-1.28l-1.42.34.35-1.7c-.9.65-.77 1.76-1 2.64Z" fill="#A77A74"/><path d="M21.82 13.86c.62-.08 1.38 0 1.72-.5-.53-.3-.45-.13-1.04-.1l.4-1.6c-.9.58-.8 1.16-1.08 2.2Z" fill="#A77A74"/><path d="m22.93 12.96 1.65-.24c-.15-.43.03-.22-.32-.4l-.24-.07-.1-.04a.67.67 0 0 1-.1-.05L24.3 11c-.74.15-1.24 1.16-1.37 1.96Z" fill="#B78879"/><path d="M24.43 11.97c.58-.03 1.38-.05 1.57-.73-.61-.38-1.46.12-1.57.73Z" fill="#B78879"/><path d="M33.38 34.81c1.1-.3 1.67-.35 2.82-.13-.7 1.1-2.34.35-3.58.66.96-2.26.4-2.9 1.45-3.48a6.02 6.02 0 0 1-.69 2.95Z" fill="#A98758"/><path d="M32.35 36.19c.83-.45 2.11-.25 2.65.23-1.43.7-1.78.1-3.13.09.3-1.03.5-2.97 1.46-3.5-.03 1.26-.97 2.75-.98 3.18Z" fill="#A98758"/><path d="m35.68 33.32 1.6-.53c.86 0 .5.1.65.23-.6.93-1.7.83-2.72.85.17-1.23-.2-2.33.38-3.22.53.66.2 1.9.09 2.67Z" fill="#A88867"/><path d="M37.82 29.3c.17-.1 1.67-1.32 1.81-1.5-.7 1.83-.64 1.54-2.22 2.58-.04-1.1-.25-2.78-.1-3.76.53.7.48 1.77.5 2.69ZM38.78 25c-.47-.7-1.23-1.93-1.36-2.87.73.31.9 1.3 1.36 1.88l1-2.35c.4 1.17-.3 2.5-1 3.34Z" fill="#B6914D"/><path d="M36.83 31.63c.8-.42 1.05-.9 2.1-1.08-.44 1.19-1.35 1.42-2.47 1.64.02-1.2-.4-2.09.2-3.18.47.86.16 1.66.17 2.62Z" fill="#A98758"/><path d="M38.25 28.33c.03-1.85-.65-2.3-.57-3.77.57.45.7 1.5.87 2.3.5-.84.74-1.52 1.45-2.27-.39 3-1.65 2.32-1.75 3.74Z" fill="#A99558"/><path d="M38.75 22.7c-1.06-2.41-1.6-1.4-1.62-2.99.6.34.93 1.02 1.39 1.6l.68-2.38c.58 1.07-.36 2.6-.45 3.77Z" fill="#B89566"/><path d="M38.38 19.97c-.3-.24-.36-.36-.58-.54-.69-.56-1.08-.58-1.28-1.6 1.07.32.83.6 1.58 1.16l.08-2.67c.72.65.32 2.71.2 3.65Z" fill="#B78879"/><path d="M37.58 17.48c-.7-.5-1.82-.68-1.89-1.46.5 0 .97.38 1.43.64l-.29-2.49c.86.36.73 2.39.75 3.3Z" fill="#A77A74"/><path d="M36.56 15.65c-.9-.47-1.68-.22-2.07-1.28l1.42.34-.35-1.7c.9.65.77 1.76 1 2.64Z" fill="#A77A74"/><path d="M35.18 13.86c-.62-.08-1.38 0-1.72-.5.53-.3.45-.13 1.04-.1l-.4-1.6c.9.58.8 1.16 1.08 2.2Z" fill="#A77A74"/><path d="m34.07 12.96-1.65-.24c.15-.43-.03-.22.32-.4l.24-.07.1-.04.1-.05L32.7 11c.74.15 1.24 1.16 1.37 1.96Z" fill="#B78879"/><path d="M32.57 11.97c-.58-.03-1.38-.05-1.57-.73.61-.38 1.46.12 1.57.73Z" fill="#B78879"/><path d="M16.85 41s.44-1.5 2.15-2.91c0 0-2.68-3.1-7.65-1.75 0 0 2.81.92 3.18 1.75 0 0-2.73.95-3.53 1.96 0 0 4.56-.13 5.85.95ZM40.33 40s-.6-1.93-2.33-3.35c0 0 2.42-2.83 6.54-1.08 0 0-2.9.2-3.08 1.4 0 0 3.69.5 4.54 2.33 0 0-4.37-.39-5.67.7Z" fill="#1E66AE"/><path d="M36.53 37s-3.23 3.12-7.67 3.12c-4.43 0-6.45-2.2-7.96-2.2-1.51 0-2.9 2.77-2.9 3.59 0 .82.42 2.08 1.24 2.08.81 0 1.08-.76.84-1.54 0 0 4.65 1.95 8.3 1.95 3.65 0 8.54-3.22 8.54-3.22s-.12 1.61.81 1.61c.94 0 1.27-.66 1.27-1.67 0-1-1.12-3.37-2.47-3.72Z" fill="#E3345B"/><path d="m25.73 28.15.1-1.33c-.35-.03-.23-1.5-.23-1.82l.02-1.91c0-.04.03-.1.04-.12 0-.03.02-.08.04-.11-.31-.46-.42-.51-.72-1.06a3.64 3.64 0 0 0-.74-1.08c-.69 1.04-.73 3.2-.36 4.48.26.92 1.06 2.98 1.85 2.95Z" fill="#D7A848"/><path d="M29.17 24.65v.5c-.54-.05-.4.02-.76-.35l-.06.4c.24 1.18-.16 1.39-.64 2.33.36.12.26.07.54.33l.2.1c.1-.1.3-.08.37-.48l.03-.8.16-1.5c.46.35.12.36 1.04.87l-.41 2.66v.11l.03.45c.35-.19.21-.04.36-.45.06-.16.2-.82.25-1.02a8 8 0 0 1 .05-2.2c.3.15.16.16.22.74 1.5-.09.17.3 1.26.16.26-.45.38-.22-.13-.8-.02-.03-.08-.04-.1-.1 0-.06-.06-.07-.08-.1.25-.2-.13-.06.52-.3-1.1 0-1.9-.74-2.85-.55Z" fill="#D97657"/><path d="M28.25 27.86c.08.1.83 1.42.86 1.53l.56-.12-.03-.45v-.1l.41-2.67c-.92-.51-.58-.52-1.04-.88l-.16 1.5-.03.8c-.08.4-.27.4-.37.5l-.2-.11Z" fill="#EC926F"/><path d="M25.83 26.82c.08-.47-.07-1.43.05-2.2l.9 1.13c.53.65.25.9.64 1.11 1.28-1.54-.47-1.72-1.72-4a.45.45 0 0 0-.04.11c-.01.03-.04.08-.04.12L25.6 25c0 .31-.12 1.79.23 1.82Z" fill="#BA7954"/><path d="M29.4 23.41c-.37.4-.33.54-.2 1.1l-.03.14c.96-.2 1.75.54 2.85.55l.04-.08c0-.33.1-.53-.13-.88-.26-.4-.02-.15-.38.14l-.12.08c-.02.02-.07.06-.12.08-.13-.19-.14-.2-.31-.37l-.45-.37-.75-.17c.38-.99 1.17-1.13 2.1-.76l.2-.72c-1.2.13-2.06.5-2.7 1.26Z" fill="#E7A466"/><path d="m25.83 26.82-.1 1.33a5.67 5.67 0 0 0 1.7-1.29c-.4-.22-.12-.46-.64-1.11l-.9-1.14c-.13.78.02 1.74-.06 2.21Z" fill="#B75655"/><path d="M27.66 24.51c.38-.27.54-.59.65-1.07.25-.33-.37-.26.42-.28 1.1-.3.66-.21.88-1.06.16-.63.35-.35.8-.97l1.15-.01-.22-.4c-.46-.85-.61-1-2.19-.5-.83.25-1 .4-1.62.74L25.89 22l.07.29 1.9-.2c.27.08.46.1.67.16.64.19.25-.08.53.29-.37.42-.05.24-.8.3l-.24-.23-1.78-.12c.17.43.38.68.62 1.04.15.23.17.3.33.5.14.17.36.35.47.48Zm.67-4.82c.44-.02.51-.1 1.05-.14l1.26-.35c-.07-.45-.06-.23-.18-.6-.24-.78-.05-.63.05-.78-.72-.18-2.02-.8-2.78-.14-1-.1-1.54.38-1.56.4l-.09.1-.09.09a4.2 4.2 0 0 0-1.45 1.64c.09.2.18.43.27.57l.14.2c.12.17.16.18.27.3l.41.78c.23-.5-.18-.06.4-.56l.6-.4c.5-.38.56-.53 1.05-.66l.65-.45Z" fill="url(#am4k50t4z)"/><path d="M26.67 28.34c.49.33.69.43.9.93.5.25.93.23 1.54.12-.03-.1-.78-1.42-.86-1.53-.28-.26-.18-.21-.54-.33-.49.27-.53.4-1.04.81Z" fill="#6F706F"/><path d="M31.9 22.87c-.35.61-.2.2-.03 1.05l-1.32-.12.45.37c.17.16.18.18.31.37.05-.02.1-.06.12-.08l.12-.08c.36-.3.12-.54.38-.14.23.35.13.55.13.88l.4.09.29-.54c-.97-2.32.15-.73-.66-2.52l-.19.72Z" fill="#D4AE8F"/><path d="m30.55 23.8 1.32.12c-.17-.85-.32-.44.03-1.05-.93-.37-1.72-.23-2.1.76l.75.17Z" fill="#8E706C"/><path d="m30.28 27.8.59-1.12c1.69-.43 1.05.62 1.59-1.47l-.4-.09-.04.07c-.65.25-.27.1-.52.3.02.04.07.05.09.1.01.07.07.08.09.1.51.6.39.36.13.8-1.09.15.25-.24-1.26-.15-.06-.58.09-.59-.22-.73a8 8 0 0 0-.05 2.2Z" fill="#B76656"/><path d="M32.8 22.25c.02-.04.06-.14.07-.12 0 .03.06-.08.07-.12.04-.15.08-.3.08-.46 0-.87-.32-.41-.53-1.16-.15-.51.28-.42-.85-1.47.2.6.21 1.14.4 1.72l.62 1.4.06.1.07.1Z" fill="#DAA767"/><path d="M27.66 24.51c.17.25.25.32.44.54l.7-.78.13-.08.15-.1c-.12.85-.05.11.12.43-.13-.57-.17-.7.2-1.11-.65.02-.45-.06-1.09.03-.1.48-.27.8-.65 1.07Z" fill="#B1906E"/><path d="m26.24 22.49 1.78.12.24.22c.75-.05.43.13.8-.3-.28-.36.11-.1-.53-.28-.21-.06-.4-.08-.66-.17l-1.9.2.27.2Z" fill="#6F706F"/><path d="m31.98 21.86-.25-.7c-.3.23.07.07-.41.22l-.94.23c-.41.23-.5.46-.51.96.58-.54 1.13-.7 2.11-.71ZM31.07 27.36c-.2.5-.2.84-.52 1.37.8-.08 1.04-.9 1.52-1.4l-1 .03Z" fill="#DA9769"/><path d="M31.02 19.16c0-.27.02-.3-.1-.63-.12-.33-.28-.53-.4-.71-.11.15-.3 0-.06.78.12.37.11.15.18.6l-1.26.35c-.54.05-.61.12-1.05.14l-.65.45c-.5.13-.56.28-1.05.65-.15.12-.57.39-.6.41-.58.5-.17.06-.4.56l.26.24 1.64-1.04c.62-.35.8-.49 1.62-.74 1.58-.5 1.73-.35 2.2.5l.21.4-1.15.01c-.45.62-.64.34-.8.97-.22.85.23.76-.88 1.06-.8.02-.17-.05-.42.28.64-.1.44-.01 1.1-.03.63-.76 1.5-1.13 2.68-1.26l-.1-.3c-.99.01-1.54.18-2.12.72 0-.5.1-.73.5-.96l.95-.23c.48-.15.12 0 .41-.22-.21-.45-.2-.51-.31-1l-.4-1Z" fill="#6E898F"/><path d="M27.57 29.27c-.21-.5-.41-.6-.9-.93l-.5.37c.44.4.79.48 1.4.56Z" fill="#C8B151"/><path d="m28.1 25.05.25.15.06-.4c.36.37.22.3.76.35v-.5l.03-.13c-.17-.32-.24.42-.12-.43-.05.04-.1.08-.15.1l-.14.08-.7.78Z" fill="#916F55"/><path d="M33.11 24.21c.03-.04.08-.13.08-.11 0 0 .47-.58-.07-1.48-.03.04-.07.05-.08.13-.01.08-.06.1-.08.13-.2.68-.06.77.15 1.33Z" fill="#F0CE71"/><path fill-rule="evenodd" d="M33.24 23.5c0-3.3-2.23-5.74-4.74-5.74-2.5 0-4.74 2.44-4.74 5.74 0 3.3 2.23 5.74 4.74 5.74 2.5 0 4.74-2.44 4.74-5.74Zm.76 0c0-3.59-2.46-6.5-5.5-6.5S23 19.91 23 23.5s2.46 6.5 5.5 6.5 5.5-2.91 5.5-6.5Z" fill="#F0F3FA"/><defs><linearGradient id="am4k50t4z" x1="31.56" y1="19.57" x2="26.06" y2="23.03" gradientUnits="userSpaceOnUse"><stop offset=".18" stop-color="#58C0E5"/><stop offset="1" stop-color="#3F6BBF"/></linearGradient></defs></svg>