<!-- by TradingView --><svg width="56" height="56" viewBox="0 0 56 56" xmlns="http://www.w3.org/2000/svg"><path fill="#F0F3FA" d="M0 0h56v56H0z"/><path d="m19.15 11.56 3.56-1.47c.51-.22 1.02 0 1.31.44l1.02 1.91c.14.3.14.6.07.89a.8.8 0 0 1-.58.58l-4 1.7a.92.92 0 0 1-.87 0 .93.93 0 0 1-.5-.67l-.59-2.13c-.14-.52.07-1.03.58-1.25ZM34.95 44.65l-3.56 1.47c-.5.22-1.01 0-1.3-.44l-1.02-1.91c-.15-.3-.15-.59-.07-.88a.8.8 0 0 1 .58-.6l4-1.69c.28-.14.57-.14.86 0 .3.15.44.37.51.67l.58 2.13c.15.52-.07 1.03-.58 1.25ZM10.1 22.58l1.7-3.45c.2-.44.77-.66 1.26-.5l1.98.72c.28.08.5.3.57.6.14.28.07.58-.07.87l-1.91 3.88a.9.9 0 0 1-.64.52c-.28.07-.56 0-.84-.15l-1.7-1.24c-.42-.22-.56-.81-.35-1.25ZM45.9 33.63l-1.7 3.45c-.2.44-.77.66-1.26.5l-1.98-.72a.78.78 0 0 1-.57-.59c-.14-.3-.07-.59.07-.88l1.91-3.88a.9.9 0 0 1 .64-.52c.28-.07.56 0 .84.15l1.7 1.25c.42.22.56.73.35 1.24ZM24.56 46.12l-3.52-1.54c-.5-.22-.72-.74-.58-1.25l.58-2.06c.07-.3.29-.52.57-.67a.9.9 0 0 1 .87 0l3.95 1.7c.29.14.5.36.58.66.07.3.07.59-.08.88l-1.15 1.84c-.21.44-.79.66-1.22.44ZM33.33 10.06l3.52 1.55c.5.22.72.74.58 1.26l-.58 2.07c-.07.3-.28.52-.57.67a.9.9 0 0 1-.86 0l-3.96-1.7c-.28-.15-.5-.38-.57-.67-.07-.3-.07-.6.07-.89l1.08-1.92c.21-.37.79-.52 1.3-.37ZM44.45 19.2l1.46 3.59c.22.5 0 1.02-.44 1.31l-1.9 1.03c-.3.14-.58.14-.88.07a.8.8 0 0 1-.58-.59l-1.68-4.02a.93.93 0 0 1 0-.87c.14-.3.36-.44.65-.51l2.13-.59c.5-.15 1.02.07 1.24.59ZM11.55 36.98l-1.46-3.57c-.22-.5 0-1.02.44-1.3l1.9-1.03c.29-.14.58-.14.88-.07.29.07.5.3.58.58l1.68 4c.15.3.15.59 0 .88a.93.93 0 0 1-.65.5l-2.13.6c-.5.2-1.02-.08-1.24-.6Z" fill="#90C440"/><path fill-rule="evenodd" d="M43 28c0-8.27-6.73-15-15-15s-15 6.66-15 15c0 8.27 6.73 15 15 15s15-6.73 15-15Zm-3-.03C40 21.36 34.57 16 27.97 16 21.36 16 15.93 21.36 16 27.97 16 34.64 21.36 40 27.97 40 34.64 40 40 34.57 40 27.97Z" fill="#90C440"/><path d="M21.29 33.82c1.14 0 2.92-1.9 2.92-1.9l-3.07-.52-2.61-2.34c0 .47-.48 4.76 2.76 4.76ZM33.9 32.87c-1.2 0-3.06-.95-3.06-.95l3.21-1.17 1.8-1.39.68-1.25s0 4.76-2.63 4.76Z" fill="#90C440"/><path d="M27.14 37h1.69l.11.03-.22 1.97H27.5l-.47-1.97.1-.03Zm.23 10.66c-7.4-8.89.13-8.66.13-8.66-.22-1.01-.48-1.97-.48-1.97h-.04a3.56 3.56 0 0 0-.37.12c-.23.09-.55.22-.9.41a5.23 5.23 0 0 0-2.16 2.1c-1.21 2.3-.6 5.67 3.7 10.52l.73.82.73-.82c4.35-4.84 4.96-8.21 3.73-10.52a5.26 5.26 0 0 0-2.17-2.1 6.46 6.46 0 0 0-1.29-.52l-.02-.01h-.01s-.01.96-.23 1.97c0 0 6.28 0 0 8.67l-.68.77a31.9 31.9 0 0 1-.67-.78Z" fill="#F0F3FA"/><path d="M28.03 18.58s6.33 4.85 0 8.57c-6.42-3.72-.08-8.57 0-8.57Z" fill="#90C440"/><path d="M27.25 38s-7.78 1.8.73 11c8.59-9.2.74-11 .74-11h-1.47Z" fill="#902232"/><path d="M27.05 38.59 28 21.43l.95 17.16h-1.9Z" fill="#902232"/><path d="m27.15 38.59-3.19-6.2s-4.27-.75-5.43-3.33c0 0 2.35 1.78 5.68 2.88l2.94 4.88 1.3-1.11 2.4-3.8s4.59-1.52 5.68-3.8c0 0 .47 2.38-5.33 4.35l-2.46 6.13h-1.6Z" fill="#902232"/></svg>