<!-- by TradingView --><svg width="56" height="56" viewBox="0 0 56 56" xmlns="http://www.w3.org/2000/svg"><path fill="#F0F3FA" d="M0 0h56v56H0z"/><path d="M29.67 11.03a16.9 16.9 0 0 1 3.86.84l.22.07-.12 2.05.72.33.5.23 1.47-1.43.2.11a17.02 17.02 0 0 1 3.44 2.64l.16.16-1 1.8.13.14.03.04.04.05.04.05.04.05h.01l.03.05.05.05.09.1.05.06.03.04.03.04.1.11.07.1.13.15 1.93-.66.14.2a17.04 17.04 0 0 1 1.8 3.46l.1.21-1.65 1.23.06.23.11.4.01.05V24c.07.2.12.4.18.61l2.04.2.04.23a17.09 17.09 0 0 1 .23 3.66v.24l-2 .47-.18 1.33 1.78 1-.05.22a16.82 16.82 0 0 1-1.28 3.55l-.1.2-2.02-.37-.1.17-.08.13-.1.15-.24.4-.19.3 1.24 1.63-.14.18a17.1 17.1 0 0 1-2.85 2.94l-.18.15-1.67-1.2-.16.11-.2.13h-.01v.01l-.23.15-.05.03-.01.01-.03.02-.03.02-.1.07-.08.04-.23.16.44 2-.2.1a16.88 16.88 0 0 1-3.04 1.25l-.22.07-1.1-1.74-.23.05-.15.03-.1.02h-.02l-.1.02-.48.1-.08.01-.16.04-.35 2.02-.23.02a17.27 17.27 0 0 1-4.2-.1l-.23-.04-.26-2.04-.54-.14-.26-.06-.5-.13-1.18 1.68-.22-.08a16.84 16.84 0 0 1-3.56-1.77l-.19-.13.61-1.95-.15-.13-.28-.22-.42-.33-.2-.16-1.76 1.03-.17-.16a17.1 17.1 0 0 1-2.15-2.55l-.14-.2 1.31-1.57-.17-.3-.01-.04-.03-.04-.17-.3-.01-.03-.26-.47-2.03.29-.1-.21a16.93 16.93 0 0 1-1.07-3.46l-.05-.23 1.83-.93-.1-.95c0-.13-.02-.26-.04-.39L11 28.27v-.3a17.17 17.17 0 0 1 .45-3.92l.06-.22 2.05-.09.07-.21.15-.45v-.02l.11-.3.1-.3-1.57-1.3.1-.22a16.97 16.97 0 0 1 2.15-3.53l.14-.19 1.9.8.93-.98-.87-1.85.18-.15a17.05 17.05 0 0 1 3.16-2.15l.2-.1 1.41 1.49.82-.34.03-.01.4-.16-.04-2.05.22-.07a16.84 16.84 0 0 1 3.24-.63l.23-.02.74 1.91h1.35l.73-1.9.23.02Zm1.83.9c-.55-.12-1.1-.2-1.66-.27l-.72 1.87h-2.18l-.72-1.88a16.4 16.4 0 0 0-2.67.52l.04 2-.79.32-.2.09-.2.08-.07.02-.77.32-1.37-1.46a16.4 16.4 0 0 0-2.67 1.81l.85 1.81-1.52 1.58-1.84-.77a16.5 16.5 0 0 0-1.84 3.01l1.53 1.29-.23.67-.06.2-.05.14-.15.45-.2.6-2.01.09a16.4 16.4 0 0 0-.39 3.38l1.93.53.22 2.18-1.79.9a16.27 16.27 0 0 0 .9 2.9l1.99-.28c.1.17.36.6.46.83l.01.02.07.12.1.19.03.04.01.03.38.68-1.28 1.54a16.5 16.5 0 0 0 1.78 2.1l1.72-1 .53.42c.14.1.28.22.42.34l.27.2v.01h.01v.01l.48.38-.6 1.91a16.42 16.42 0 0 0 3.02 1.5l1.15-1.63 1.15.29.97.24.25 1.99a16.32 16.32 0 0 0 3.59.1l.34-1.98.57-.12.15-.02.5-.1h.01l.9-.19 1.08 1.7a16.15 16.15 0 0 0 2.5-1.03l-.42-1.95.58-.39.04-.02.13-.09.04-.02.03-.02L36 40l.12-.08.72-.48 1.63 1.17a16.5 16.5 0 0 0 2.43-2.5l-1.2-1.6c.11-.18.29-.43.4-.64.1-.18.22-.4.34-.57l.07-.11.33-.54 1.97.37a16.34 16.34 0 0 0 1.08-2.98l-1.75-.97c.07-.5.13-1.01.21-1.5l.1-.67 1.94-.46v-.12a15.48 15.48 0 0 0-.05-1.78c-.04-.4-.09-.79-.15-1.18l-1.99-.2c-.06-.2-.22-.73-.28-1v-.02l-.3-1.08 1.6-1.2a16.39 16.39 0 0 0-1.53-2.93l-1.9.64-.38-.46-.09-.1-.08-.1-.04-.05-.03-.05-.05-.05-.09-.1-.04-.06-.04-.04-.03-.04-.02-.02-.03-.04-.05-.06-.03-.04-.4-.46.98-1.76a16.46 16.46 0 0 0-2.95-2.26l-1.43 1.4-1.98-.9.11-2c-.53-.18-1.06-.33-1.61-.45Z" fill="#2231E9"/><path d="M28 19.87s.4-.7 1.95-.87l.05.3c-1.35.15-1.67.7-1.67.7l-.33-.13ZM32 19.87s.4-.7 1.95-.87l.05.3c-1.35.15-1.67.7-1.67.7l-.33-.13ZM20 24.82s-1-.57-1-1.45c0-.77.96-.96 1.3-1 .13-.32.63-1.37 2-1.37 1.36 0 2.08 1 2.25 1.29.34.04 1.45.24 1.45 1.12 0 1-1.38 1.59-1.38 1.59l-.16-.24s1.2-.52 1.2-1.35c0-.78-1.23-.86-1.23-.86h-.1l-.04-.08s-.63-1.2-2-1.2c-1.34 0-1.7 1.26-1.7 1.26l-.02.1h-.12s-1.12.06-1.12.74c0 .74.86 1.23.86 1.23l-.19.22Z" fill="#2231E9"/><path d="M21.52 23.73s1.16.96 2.23-.28l.23.19c-1.27 1.47-2.65.32-2.65.32l.19-.23Z" fill="#2231E9"/><path d="M39.93 26.52a8.75 8.75 0 0 1-.26 3.48H15.33a8.74 8.74 0 0 1-.33-2.4c0-.86.13-1.8.37-2.6h3.74l.7 2H22v-2.83h1V27h2.37l.89-3h1l.61-3h.61v3l.38 2.63.9-2.63h.85l.6-3h.62v3H33v3h.99l.93-4h1.39l.7 2h1.08l.42 2 1.42-.48ZM34.3 27H37l-.92-3.7h-.93L34.3 27ZM23 40h10v1H23v-1Zm-6-8h22v1H17v-1Zm0 2h22v1H17v-1Zm1 2h20v1H18v-1Zm2 2.03h16V39H20v-.97Z" fill="#2231E9"/></svg>