<!-- by TradingView --><svg width="56" height="56" viewBox="0 0 56 56" fill="none" xmlns="http://www.w3.org/2000/svg"><path fill="#F0F3FA" d="M0 0h56v56H0z"/><path fill-rule="evenodd" d="M27 12h-3v-1h2.15s-.15-.5-.15-1 .21-2 2-2 2 1.5 2 2-.12 1-.12 1H32v1h-3v1h-2v-1Zm2-2a1 1 0 1 1-2 0 1 1 0 0 1 2 0ZM37.16 43.5s-1.96 2.22-7 3.02c-1.52.23-1.87 1.48-1.87 1.48h-.59s-.35-1.25-1.87-1.48c-5.04-.8-7-3.02-7-3.02s-1.14.61-1.59-.05c-.68-1-1.3-3.76-1.23-4.96.02-.36.12-.49.29-.49.11 0 .26 0 .42.26 1.92 3.11 3.92 3.22 3.92 3.22l-.01.26c3.83 1.66 7.35 1.34 7.35 1.34h.09s3.48.32 7.31-1.34l-.01-.26s2-.1 3.91-3.22c.16-.26.31-.26.42-.26.16 0 .27.13.3.5.07 1.2-.56 3.94-1.24 4.95-.45.66-1.6.05-1.6.05Zm-1.86-1.3c-.05.02-1.73.57-2.02.6-.3.01.41.59 1.23.43.82-.16 1.63-.5 1.37-.76-.25-.26-.33-.36-.58-.26Zm-14.6 0c.04.02 1.72.57 2 .6.3.01-.4.59-1.23.43-.82-.16-1.62-.5-1.37-.76.26-.26.35-.36.6-.26Zm3.04 1.9h8.36c.29 0 .5.23.5.5a.5.5 0 0 1-.5.5h-8.36a.5.5 0 0 1-.5-.5.5.5 0 0 1 .5-.5Z" fill="#181B1E"/><path d="m12 27 3.34 1.8L18 27.4l2 3.6h-6.36L12 27Zm.93.99 1.07 2.6h5.23L17.78 28l-2.45 1.28-2.4-1.3ZM44 27l-1.64 4H36l2-3.6 2.66 1.4L44 27Zm-.93.99-2.4 1.29L38.22 28l-1.45 2.6H42l1.07-2.61ZM12 31h6.4l.03.2v.01a2.35 2.35 0 0 0 .07.25 8.38 8.38 0 0 0 1.57 2.95c1.33 1.62 3.72 3.25 7.94 3.26 4.22 0 6.6-1.64 7.93-3.25a8.38 8.38 0 0 0 1.64-3.2v-.02l.04-.2H44l-1.29 3.99c.07.38.03.8-.03 1.13a5.3 5.3 0 0 1-.14.55v.03l-.01.01-.24-.07.24.08-.03.06-2.94 2.47-2.66 2.41-5.48 1.64-3.36.08-.1-.02-3.28-.08-5.82-1.71-2.4-2.33-2.95-2.47-.02-.06.23-.08-.23.08v-.01a2.32 2.32 0 0 1-.06-.17c-.03-.1-.07-.25-.1-.43a3.1 3.1 0 0 1-.03-1.13L12 31Zm1.93 5.49 2.8 2.34 2.31 2.6 5.73 1.77H31.33l5.38-1.66 2.57-2.7 2.8-2.34a4.35 4.35 0 0 0 .12-.47c.06-.32.1-.7.02-1l-.01-.07 1.12-3.47h-5.31a6.42 6.42 0 0 1-.3.88c-.25.64-.69 1.5-1.4 2.35-1.42 1.73-3.95 3.43-8.31 3.44-4.37-.01-6.9-1.71-8.32-3.44A8.87 8.87 0 0 1 18 31.5h-5.32l1.14 3.46-.02.07c-.07.3-.04.67.02 1a4.6 4.6 0 0 0 .12.47Z" fill="#181B1E"/><path fill-rule="evenodd" d="M22.06 26.17H20.4c-.21.11-.05.75.12 1.4.11.47.23.94.23 1.27 0 .77-.75 2.27-.75 2.27V34h15.7v-2.16c0-.8-.16-1.15-.69-1.77a3.9 3.9 0 0 1-1.08-2.6c-.07-.75.74-1.94 1.54-3.12.77-1.13 1.53-2.25 1.53-2.98 0-1.5-1.65-2.37-2.61-2.37-.97 0-1.25.23-1.25.23l-4.94 2.14h-2.65c-1.94.87-3.33 3.37-3.26 4.01.06.65-.23.8-.23.8Zm2.82 2.44-.32-.7c-.04-.12-.28.07-.97 1.03l-.14.18c-.18.23-.4.5-.43.92-.17 2.2.86 2.92.86 2.92s5.64.08 5.87 0c.23-.08.25-.57.25-.57a7.46 7.46 0 0 1-1.36-2.27l-.27-.58c-.3-.58-.34-1.21-.34-1.21s-.54-1.2-.8-1.31c-.24-.1-.78.25-.88.6-.04.2.05.47.13.74.08.25.17.5.15.7-.02.25-.18.44-.34.62-.1.13-.21.25-.26.39-.1.32.25 1.6.4 2.03.14.44-.16.75-.55.78-.34.03-.4-.34-.47-.83l-.03-.22c-.04-.23-.1-.47-.18-.72a4.82 4.82 0 0 1-.24-1.3c0-.71.2-.99.2-.99l-.28-.21Zm4.32-.95s.86-.66 1.31-.66c.46 0 1.49.1 2.04 1.56.27.7.45 1.5.45 2.25.01.81-.17 1.55-.64 2.04-.17.18-.27.16-.36.13a.48.48 0 0 0-.07-.01c-.33-.04-.25-.85-.09-1.15.15-.28-.1-.86-.27-1.23-.07-.15-.12-.27-.12-.31 0-.03 0-.06.02-.1.02-.11.04-.24-.14-.4-.18-.15-.22-.46-.25-.76l-.03-.24c-.06-.35-.17-.75-.42-.69-.27.07-.33.27-.3.49 0 .12-.03.2-.06.3-.04.08-.07.16-.09.29-.02.13-.11.23-.24.25-.13.01-.3-.04-.34-.14l-.02-.11c-.02-.1-.04-.23-.08-.34-.12-.3-.34-.59-.46-.73-.15-.22.16-.44.16-.44Zm-2.93-3.89.11-.07.21-.11c.2-.1.41-.21.41-.32-.01-.08-.06-.27-.37-.27-.97-.01-2.02 1.31-2.44 2.3-.18.42-.24.68-.14.7.04 0 .25-.07.4-.3.94-1.4 1.53-1.75 1.82-1.93ZM34.5 22a.5.5 0 1 0 0-1 .5.5 0 0 0 0 1Zm-4.97 1.03A6.16 6.16 0 0 0 26 25.82c-.01.07.05.26.24.14.03-.01.1-.08.19-.17.55-.53 2.15-2.08 3.97-2.44 2.13-.43 2.6-.79 2.6-.98 0-.2-.08-.3-.3-.35-.22-.06-.5.02-.55.24-.05.16-.21.2-1.13.41l-1.49.36Z" fill="#021E9B"/><path d="M41 34c-2.52 4.66-7.42 8-13.04 8-5.56 0-10.41-3.42-12.96-8 .55-.36 1.46-.64 2-1 2.15 4 6.14 6.83 10.96 6.83 4.87 0 8.9-2.77 11.04-6.83l2 1Z" fill="#021E9B" fill-opacity=".5"/><path d="M17 24.93s-1.5.86-1.36 2.97c0 0 1.76-.84 1.36-2.97ZM13.78 25.35s-.16 1.6 1.5 2.65c.02 0 .33-1.78-1.5-2.65ZM17.22 23.12s-1.48.49-1.76 2.35c0 0 1.7-.42 1.76-2.35Z" fill="#181B1E"/><path d="M14.05 22.66s-.4 1.49 1.04 2.73c0 0 .56-1.64-1.04-2.73Z" fill="url(#aedxs0uh2)"/><path d="M14.9 20.18s-.59 1.43.66 2.85c0 0 .78-1.55-.66-2.85Z" fill="url(#bedxs0uh2)"/><path d="M18.17 21.11s-1.55.14-2.24 1.88c0 0 1.74 0 2.24-1.88Z" fill="url(#cedxs0uh2)"/><path d="M16.38 18.06s-.97 1.13-.17 2.74c0 .01 1.2-1.2.17-2.74Z" fill="url(#dedxs0uh2)"/><path d="M18.88 19.57s-1.37-.06-2.18 1.4c0 0 1.54.18 2.18-1.4Z" fill="url(#eedxs0uh2)"/><path d="M17.86 16.37s-1.09.9-.6 2.52c0-.01 1.3-.93.6-2.52Z" fill="url(#fedxs0uh2)"/><path d="M20 18.04s-1.36-.24-2.37 1.1c0 0 1.5.38 2.36-1.1Z" fill="url(#gedxs0uh2)"/><path d="M21.23 16.94s-1.21-.42-2.32.66c.01 0 1.32.57 2.32-.66Z" fill="url(#hedxs0uh2)"/><path d="M19.4 15.1s-1.14.78-.75 2.31c0 0 1.36-.79.75-2.3Z" fill="url(#iedxs0uh2)"/><path d="M22.52 15.8s-1.08-.55-2.24.4c0-.02 1.16.71 2.24-.4Z" fill="url(#jedxs0uh2)"/><path d="M20.95 14.01s-.92.55-.74 1.87c.01-.01 1.1-.55.74-1.87Z" fill="url(#kedxs0uh2)"/><path d="M23.97 15.15s-.92-.7-2.18 0c0 0 .98.88 2.18 0Z" fill="url(#ledxs0uh2)"/><path d="M22.98 13.06s-1.12.33-1.28 1.74c0 0 1.29-.27 1.29-1.74Z" fill="url(#medxs0uh2)"/><path d="M25.56 14.8s-.76-.87-2.13-.46c0 0 .77 1.07 2.13.46Z" fill="url(#nedxs0uh2)"/><path d="M25.04 12.55s-1.16.06-1.65 1.4a1.7 1.7 0 0 0 1.65-1.4Z" fill="url(#oedxs0uh2)"/><path d="M27 13.41s-1.05-.51-2.13.41c0 0 1.13.68 2.13-.4Z" fill="url(#pedxs0uh2)"/><path d="M39 24.93s1.5.86 1.36 2.97c0 0-1.76-.84-1.36-2.97Z" fill="url(#qedxs0uh2)"/><path d="M42.22 25.35s.16 1.6-1.5 2.65c-.02 0-.33-1.78 1.5-2.65Z" fill="url(#redxs0uh2)"/><path d="M38.79 23.12s1.47.49 1.75 2.35c0 0-1.7-.42-1.75-2.35Z" fill="url(#sedxs0uh2)"/><path d="M41.95 22.66s.4 1.49-1.04 2.73c.01 0-.56-1.64 1.04-2.73Z" fill="url(#tedxs0uh2)"/><path d="M41.1 20.18s.59 1.43-.66 2.85c0 0-.78-1.55.66-2.85Z" fill="url(#uedxs0uh2)"/><path d="M37.83 21.11s1.55.14 2.24 1.88c0 0-1.75 0-2.24-1.88Z" fill="url(#vedxs0uh2)"/><path d="M39.62 18.06s.97 1.13.18 2.74c0 .01-1.2-1.2-.18-2.74Z" fill="url(#wedxs0uh2)"/><path d="M37.12 19.57s1.38-.06 2.19 1.4c0 0-1.54.18-2.19-1.4Z" fill="url(#xedxs0uh2)"/><path d="M38.14 16.37s1.09.9.61 2.52c-.01-.01-1.31-.93-.6-2.52Z" fill="url(#yedxs0uh2)"/><path d="M36.01 18.04s1.35-.24 2.36 1.1c-.01 0-1.5.38-2.36-1.1Z" fill="url(#zedxs0uh2)"/><path d="M34.76 16.94s1.22-.42 2.33.66c0 0-1.32.57-2.33-.66Z" fill="url(#aaedxs0uh2)"/><path d="M36.6 15.1s1.14.78.75 2.31c0 0-1.36-.79-.74-2.3Z" fill="url(#abedxs0uh2)"/><path d="M33.49 15.8s1.07-.55 2.23.4c0-.02-1.16.71-2.23-.4Z" fill="url(#acedxs0uh2)"/><path d="M35.05 14.01s.93.55.75 1.87c-.01-.01-1.1-.55-.75-1.87Z" fill="url(#adedxs0uh2)"/><path d="M32.04 15.15s.92-.7 2.18 0c-.01 0-.98.88-2.18 0Z" fill="url(#aeedxs0uh2)"/><path d="M33.02 13.06s1.13.33 1.29 1.74c0 0-1.29-.27-1.29-1.74Z" fill="url(#afedxs0uh2)"/><path d="M30.45 14.8s.76-.87 2.13-.46c0 0-.77 1.07-2.13.46Z" fill="url(#agedxs0uh2)"/><path d="M30.97 12.55a2 2 0 0 0 1.65 1.4 1.7 1.7 0 0 1-1.65-1.4Z" fill="url(#ahedxs0uh2)"/><path d="M29 13.41s1.05-.51 2.13.41c.01 0-1.12.68-2.13-.4Z" fill="url(#aiedxs0uh2)"/><defs><linearGradient id="aedxs0uh2" x1="14.59" y1="22.66" x2="14.59" y2="25.39" gradientUnits="userSpaceOnUse"><stop stop-color="#181B1E"/><stop offset="1" stop-color="#181B1E"/></linearGradient><linearGradient id="bedxs0uh2" x1="15.27" y1="20.18" x2="15.27" y2="23.03" gradientUnits="userSpaceOnUse"><stop stop-color="#181B1E"/><stop offset="1" stop-color="#181B1E"/></linearGradient><linearGradient id="cedxs0uh2" x1="17.05" y1="21.11" x2="17.05" y2="22.99" gradientUnits="userSpaceOnUse"><stop stop-color="#181B1E"/><stop offset="1" stop-color="#181B1E"/></linearGradient><linearGradient id="dedxs0uh2" x1="16.34" y1="18.06" x2="16.34" y2="20.8" gradientUnits="userSpaceOnUse"><stop stop-color="#181B1E"/><stop offset="1" stop-color="#181B1E"/></linearGradient><linearGradient id="eedxs0uh2" x1="17.79" y1="19.57" x2="17.79" y2="20.98" gradientUnits="userSpaceOnUse"><stop stop-color="#181B1E"/><stop offset="1" stop-color="#181B1E"/></linearGradient><linearGradient id="fedxs0uh2" x1="17.6" y1="16.37" x2="17.6" y2="18.89" gradientUnits="userSpaceOnUse"><stop stop-color="#181B1E"/><stop offset="1" stop-color="#181B1E"/></linearGradient><linearGradient id="gedxs0uh2" x1="18.81" y1="18.02" x2="18.81" y2="19.18" gradientUnits="userSpaceOnUse"><stop stop-color="#181B1E"/><stop offset="1" stop-color="#181B1E"/></linearGradient><linearGradient id="hedxs0uh2" x1="20.07" y1="16.86" x2="20.07" y2="17.73" gradientUnits="userSpaceOnUse"><stop stop-color="#181B1E"/><stop offset="1" stop-color="#181B1E"/></linearGradient><linearGradient id="iedxs0uh2" x1="19.06" y1="15.1" x2="19.06" y2="17.41" gradientUnits="userSpaceOnUse"><stop stop-color="#181B1E"/><stop offset="1" stop-color="#181B1E"/></linearGradient><linearGradient id="jedxs0uh2" x1="21.4" y1="15.65" x2="21.4" y2="16.42" gradientUnits="userSpaceOnUse"><stop stop-color="#181B1E"/><stop offset="1" stop-color="#181B1E"/></linearGradient><linearGradient id="kedxs0uh2" x1="20.6" y1="14.01" x2="20.6" y2="15.88" gradientUnits="userSpaceOnUse"><stop stop-color="#181B1E"/><stop offset="1" stop-color="#181B1E"/></linearGradient><linearGradient id="ledxs0uh2" x1="22.88" y1="14.84" x2="22.88" y2="15.54" gradientUnits="userSpaceOnUse"><stop stop-color="#181B1E"/><stop offset="1" stop-color="#181B1E"/></linearGradient><linearGradient id="medxs0uh2" x1="22.34" y1="13.06" x2="22.34" y2="14.8" gradientUnits="userSpaceOnUse"><stop stop-color="#181B1E"/><stop offset="1" stop-color="#181B1E"/></linearGradient><linearGradient id="nedxs0uh2" x1="24.49" y1="14.23" x2="24.49" y2="14.99" gradientUnits="userSpaceOnUse"><stop stop-color="#181B1E"/><stop offset="1" stop-color="#181B1E"/></linearGradient><linearGradient id="oedxs0uh2" x1="24.22" y1="12.55" x2="24.22" y2="13.95" gradientUnits="userSpaceOnUse"><stop stop-color="#181B1E"/><stop offset="1" stop-color="#181B1E"/></linearGradient><linearGradient id="pedxs0uh2" x1="25.93" y1="13.27" x2="25.93" y2="14.03" gradientUnits="userSpaceOnUse"><stop stop-color="#181B1E"/><stop offset="1" stop-color="#181B1E"/></linearGradient><linearGradient id="qedxs0uh2" x1="39.66" y1="24.93" x2="39.66" y2="27.9" gradientUnits="userSpaceOnUse"><stop stop-color="#181B1E"/><stop offset="1" stop-color="#181B1E"/></linearGradient><linearGradient id="redxs0uh2" x1="41.46" y1="25.35" x2="41.46" y2="28" gradientUnits="userSpaceOnUse"><stop stop-color="#181B1E"/><stop offset="1" stop-color="#181B1E"/></linearGradient><linearGradient id="sedxs0uh2" x1="39.66" y1="23.12" x2="39.66" y2="25.47" gradientUnits="userSpaceOnUse"><stop stop-color="#181B1E"/><stop offset="1" stop-color="#181B1E"/></linearGradient><linearGradient id="tedxs0uh2" x1="41.41" y1="22.66" x2="41.41" y2="25.39" gradientUnits="userSpaceOnUse"><stop stop-color="#181B1E"/><stop offset="1" stop-color="#181B1E"/></linearGradient><linearGradient id="uedxs0uh2" x1="40.73" y1="20.18" x2="40.73" y2="23.03" gradientUnits="userSpaceOnUse"><stop stop-color="#181B1E"/><stop offset="1" stop-color="#181B1E"/></linearGradient><linearGradient id="vedxs0uh2" x1="38.95" y1="21.11" x2="38.95" y2="22.99" gradientUnits="userSpaceOnUse"><stop stop-color="#181B1E"/><stop offset="1" stop-color="#181B1E"/></linearGradient><linearGradient id="wedxs0uh2" x1="39.66" y1="18.06" x2="39.66" y2="20.8" gradientUnits="userSpaceOnUse"><stop stop-color="#181B1E"/><stop offset="1" stop-color="#181B1E"/></linearGradient><linearGradient id="xedxs0uh2" x1="38.21" y1="19.57" x2="38.21" y2="20.98" gradientUnits="userSpaceOnUse"><stop stop-color="#181B1E"/><stop offset="1" stop-color="#181B1E"/></linearGradient><linearGradient id="yedxs0uh2" x1="38.4" y1="16.37" x2="38.4" y2="18.89" gradientUnits="userSpaceOnUse"><stop stop-color="#181B1E"/><stop offset="1" stop-color="#181B1E"/></linearGradient><linearGradient id="zedxs0uh2" x1="37.19" y1="18.02" x2="37.19" y2="19.18" gradientUnits="userSpaceOnUse"><stop stop-color="#181B1E"/><stop offset="1" stop-color="#181B1E"/></linearGradient><linearGradient id="aaedxs0uh2" x1="35.92" y1="16.86" x2="35.92" y2="17.73" gradientUnits="userSpaceOnUse"><stop stop-color="#181B1E"/><stop offset="1" stop-color="#181B1E"/></linearGradient><linearGradient id="abedxs0uh2" x1="36.94" y1="15.1" x2="36.94" y2="17.41" gradientUnits="userSpaceOnUse"><stop stop-color="#181B1E"/><stop offset="1" stop-color="#181B1E"/></linearGradient><linearGradient id="acedxs0uh2" x1="34.61" y1="15.65" x2="34.61" y2="16.42" gradientUnits="userSpaceOnUse"><stop stop-color="#181B1E"/><stop offset="1" stop-color="#181B1E"/></linearGradient><linearGradient id="adedxs0uh2" x1="35.4" y1="14.01" x2="35.4" y2="15.88" gradientUnits="userSpaceOnUse"><stop stop-color="#181B1E"/><stop offset="1" stop-color="#181B1E"/></linearGradient><linearGradient id="aeedxs0uh2" x1="33.13" y1="14.84" x2="33.13" y2="15.54" gradientUnits="userSpaceOnUse"><stop stop-color="#181B1E"/><stop offset="1" stop-color="#181B1E"/></linearGradient><linearGradient id="afedxs0uh2" x1="33.67" y1="13.06" x2="33.67" y2="14.8" gradientUnits="userSpaceOnUse"><stop stop-color="#181B1E"/><stop offset="1" stop-color="#181B1E"/></linearGradient><linearGradient id="agedxs0uh2" x1="31.52" y1="14.23" x2="31.52" y2="14.99" gradientUnits="userSpaceOnUse"><stop stop-color="#181B1E"/><stop offset="1" stop-color="#181B1E"/></linearGradient><linearGradient id="ahedxs0uh2" x1="31.79" y1="12.55" x2="31.79" y2="13.95" gradientUnits="userSpaceOnUse"><stop stop-color="#181B1E"/><stop offset="1" stop-color="#181B1E"/></linearGradient><linearGradient id="aiedxs0uh2" x1="30.07" y1="13.27" x2="30.07" y2="14.03" gradientUnits="userSpaceOnUse"><stop stop-color="#181B1E"/><stop offset="1" stop-color="#181B1E"/></linearGradient></defs></svg>