<!-- by TradingView --><svg width="56" height="56" viewBox="0 0 56 56" xmlns="http://www.w3.org/2000/svg"><path fill="#F0F3FA" d="M0 0h56v56H0z"/><path d="M38 39.86S30.58 45.57 24.9 37c0 .7-1.06 1.31-1.19 2 0 6.88 2.86 8 5.24 8 6.2 0 7.75-3.08 9.05-7.14Z" fill="url(#ablmk2nfz)"/><path d="M23.71 8S36.1 8 36.1 17.93c0 10.47-11.47 12.8-11.47 21.53 0 8.61 7.05 7.26 7.05 7.26S18.05 48.19 18 35.75c-.05-12.44 9.68-14.54 9.52-20.64-.06-2.65-1.63-5.72-3.8-7.11Z" fill="url(#bblmk2nfz)"/><path d="M35.3 14c-.92.73-.8 2.8-9.63 8.14a20.7 20.7 0 0 0-6.35 6.38c-.8 2.04-1.32 4.2-1.32 7.11C18 43.5 23.96 46.94 28.23 47c1.17.02 2.27 0 3.51-.27-2.17.12-7.07-1.23-7.07-7.45 0-8.75 11.43-9.9 11.43-21.88-.12-1.21-.35-2.3-.8-3.4Z" fill="url(#cblmk2nfz)"/><defs><linearGradient id="ablmk2nfz" x1="38.48" y1="41" x2="24.66" y2="40.09" gradientUnits="userSpaceOnUse"><stop offset=".11" stop-color="#763792"/><stop offset=".83" stop-color="#DC9BDB"/></linearGradient><linearGradient id="bblmk2nfz" x1="27.05" y1="8" x2="26" y2="26.49" gradientUnits="userSpaceOnUse"><stop stop-color="#2D3389"/><stop offset=".49" stop-color="#AEA6CB"/><stop offset=".96" stop-color="#9076AE"/></linearGradient><linearGradient id="cblmk2nfz" x1="26.57" y1="17.5" x2="27.1" y2="47" gradientUnits="userSpaceOnUse"><stop offset=".07" stop-color="#4F3F8A"/><stop offset=".29" stop-color="#7D5B98"/><stop offset=".55" stop-color="#7C3A91"/><stop offset=".69" stop-color="#BA51A0"/><stop offset=".78" stop-color="#C555A2"/><stop offset=".96" stop-color="#6F196C"/></linearGradient></defs></svg>