<!-- by TradingView --><svg width="56" height="56" viewBox="0 0 56 56" xmlns="http://www.w3.org/2000/svg"><path fill="#F0F3FA" d="M0 0h56v56H0z"/><path fill-rule="evenodd" d="M28 45a17 17 0 1 0 0-34 17 17 0 0 0 0 34Zm0-2a15 15 0 1 0 0-30 15 15 0 0 0 0 30Z" fill="#FCC62E"/><path fill-rule="evenodd" d="M17 30h1.53A3.56 3.56 0 0 0 22 26.44c0-1.9-1.57-3.44-3.49-3.44A3.5 3.5 0 0 0 15 26.47v5.27c.1 1.09.93 3.26 3.4 3.26 1.42 0 2.34-.73 2.63-1.09l-1.64-1.36c-.08.14-.4.45-.9.45-.64 0-1.49-.75-1.49-1.45V30Zm1.5-5c-.83 0-1.5.67-1.5 1.5V28h1.5a1.5 1.5 0 0 0 0-3Z" fill="#3D3D3D"/><path d="M33 20.5a1.5 1.5 0 1 0-1.5 1.5H33v-1.5Z" fill="#3D3D3D"/><path d="M36 20.5a1.5 1.5 0 1 0-1.5 1.5H36v-1.5ZM23 19v7.94A3 3 0 0 0 25.94 30H34v1.77c0 .65-.58 1.23-1.21 1.23-.5 0-1.08-.36-1.17-.49L30 33.98c.28.34 1.2 1.02 2.6 1.02 2.47 0 3.3-2.03 3.4-3.05V29h-1v-1h-8.71c-.65 0-1.29-.73-1.29-1.4V19.6a.6.6 0 0 0-.59-.61H23ZM37.02 31.77V19.02h1.39c.47 0 .59.38.59.85V31.9c0 .47.64 1.1 1.11 1.1H41v2.05h-.7a3.29 3.29 0 0 1-3.28-3.28Z" fill="#3D3D3D"/><path fill-rule="evenodd" d="M33.73 30h-1.26A3.5 3.5 0 1 1 36 26.53V30h-2.27Zm-1.23-5c.83 0 1.5.67 1.5 1.5V28h-1.5a1.5 1.5 0 0 1 0-3Z" fill="#FCC62E"/><path d="M22 32h6.65c.2 0 .35.14.35.3V34h-6.65c-.2 0-.35-.14-.35-.3V32ZM37.4 21c.1-.47.49-1.2 1.47-.95l-.24.55c-.19-.05-.55-.02-.65.4h.86v.64h-1.72V21h.27Z" fill="#FCC62E"/><path opacity=".3" fill="#3D3D3D" d="M22.5 32.28h6v1.5h-6z"/></svg>