<!-- by TradingView --><svg width="56" height="56" viewBox="0 0 56 56" xmlns="http://www.w3.org/2000/svg"><path fill="#F0F3FA" d="M0 0h56v56H0z"/><path d="M21.97 19 20 13.6l2.03-.6L24 18.4l-2.03.6Z" fill="#C493C2"/><path d="M32 15.53 33.2 14l1.8 1.47L33.8 17 32 15.53Z" fill="#AD3190"/><path d="M27 23v-3h2v3h-2Z" fill="#57C1E9"/><path d="M32 23.76 38.48 16 40 17.24 33.52 25 32 23.76Z" fill="#0083BF"/><path d="M38 23.96 43.43 22l.57 2.04L38.57 26 38 23.96Z" fill="#685AA7"/><path d="M32 28h9v2h-9v-2Z" fill="#9F58A3"/><path d="M22.6 26 18 20.45 19.4 19l4.6 5.55L22.6 26Z" fill="#00518A"/><path d="M17 27h-3v-2h3v2Z" fill="#005DA6"/><path d="M35.47 42 29 33.25 30.53 32 37 40.75 35.47 42Z" fill="#9279B7"/><path d="M39.93 38 36 35.62 37.07 34 41 36.38 39.93 38Z" fill="#F48474"/><path d="M26 42v-6h2v6h-2Z" fill="#CA5BA2"/><path d="M28 29 12.39 44 11 42.55l11-11.01L12 32v-1.97L28 29Z" fill="#4D5FAB"/><path d="m23 40-1 1 1 1 1-1-1-1Z" fill="#9E9ACB"/></svg>