<!-- by TradingView --><svg width="56" height="56" viewBox="0 0 56 56" xmlns="http://www.w3.org/2000/svg"><path fill="#F0F3FA" d="M0 0h56v56H0z"/><path d="M42.72 21c-2.62-5.33-8.15-9-14.55-9A16.09 16.09 0 0 0 12 28c0 8.84 7.24 16 16.17 16a16.2 16.2 0 0 0 14.01-8H23c1.65-2.48 1.67-5 1.67-7.5C24.67 24.33 23 21 23 21h19.72Z" fill="url(#auzigjjp1)"/><path d="M14 25h4.5c.75 0 6.5.79 6.5 5.87 0 2.7-.38 2.42-.38 2.42s-3.64-5.87-8.23-7.47c0 0 6.98 6.3 7.18 8.08 0 0-4.4.9-6.17-2.68-1.44-2.89-.54-3.77-3.4-6.22Z" fill="url(#buzigjjp1)"/><path d="M28.5 14c3.17 0 9.5 1.57 9.5 3.46 0 .35 0 .54-.51.54-1.07 0-4.53-1.33-8.99-1.33-5.03 0-7.18 1.34-8.64 1.33a1.5 1.5 0 0 1-.6-.11c-.2-.09-.28-.23-.26-.4.12-1.02 3.96-3.49 9.5-3.49Z" fill="url(#cuzigjjp1)"/><path d="M26.38 31.68s3.8-2 3.8-5.72c0-3.73-1.97-5.68-1.97-8.14 0-2.46.88-2.8.88-2.8s-6.13 3.87-7.18 10.02c0 0 3.2 1.95 3.45 4 0 0-.95-6.17 2.18-11.39 0 0-1.75 6.18-1.16 14.03Z" fill="url(#duzigjjp1)"/><path d="m25.65 33-.1-1.26c-.07-.92-.1-1.82-.12-2.7l-.88.13.81-.13v-.07c-.04-.24-.13-1.01-.13-2.12a18.23 18.23 0 0 1 2.31-9.2l-.04.17-.1.4a45.75 45.75 0 0 0-1.02 13.46l.38.74-1.11.58Zm.73-1.32.38.74.02-.01C29.1 31.13 31 28.7 31 25.96c0-2.9-1.96-5.35-1.96-8.14 0-1.56.48-2.24.4-3.82a7.4 7.4 0 0 0-1.83 1.06c-.61.48-1.44 1.18-2.31 2.09-1.72 1.8-3.64 4.44-4.2 7.75l-.1.56c1.42.86 3.25 1.88 3.54 3.63v.08l.82-.13v-.07c-.32-2.02-3.45-3.93-3.45-3.93.71-4.15 3.74-7.27 5.63-8.85.66-.55 1.18-.92 1.41-1.08-.18.16-.5.56-.66 1.53a7.69 7.69 0 0 0-.08 1.2c.02 2.82 1.96 5.22 1.96 8.12 0 3.73-3.8 5.72-3.8 5.72Zm2.7-16.66-.13.1a.53.53 0 0 1 .14-.1Z" fill="url(#euzigjjp1)"/><defs><linearGradient id="auzigjjp1" x1="27.52" y1="12" x2="27.52" y2="44" gradientUnits="userSpaceOnUse"><stop stop-color="#9CC23D"/><stop offset="1" stop-color="#376E43"/></linearGradient><linearGradient id="buzigjjp1" x1="22.25" y1="25.75" x2="18.92" y2="33.07" gradientUnits="userSpaceOnUse"><stop stop-color="#CAE080"/><stop offset="1" stop-color="#F3F8EB"/></linearGradient><linearGradient id="cuzigjjp1" x1="28.5" y1="14" x2="28.5" y2="18" gradientUnits="userSpaceOnUse"><stop stop-color="#FBFDFB"/><stop offset="1" stop-color="#CDE18D"/></linearGradient><linearGradient id="duzigjjp1" x1="29.35" y1="20.02" x2="23.5" y2="28.31" gradientUnits="userSpaceOnUse"><stop stop-color="#8FC33F"/><stop offset="1" stop-color="#3F7744"/></linearGradient><linearGradient id="euzigjjp1" x1="26" y1="14" x2="26" y2="33" gradientUnits="userSpaceOnUse"><stop stop-color="#E7EB93"/><stop offset="1" stop-color="#EDF0D5"/></linearGradient></defs></svg>