<!-- by TradingView --><svg width="56" height="56" viewBox="0 0 56 56" xmlns="http://www.w3.org/2000/svg"><path fill="#F0F3FA" d="M0 0h56v56H0z"/><path d="M4.75 22h4.5c.42 0 .75.4.75.9v.2c0 .5-.33.9-.75.9h-4.5c-.42 0-.75-.4-.75-.9v-.19c-.02-.5.33-.91.75-.91Z" fill="#008FC9"/><path d="M8 23.84v9.33c0 .46-.34.83-.77.83h-.46c-.43 0-.77-.37-.77-.83v-9.33c0-.47.34-.84.77-.84h.46c.43-.02.77.37.77.84Z" fill="#008FC9"/><path d="M26 21.8v6.4c0 .45-.34.8-.77.8h-.46a.78.78 0 0 1-.77-.8v-6.4c0-.45.34-.8.77-.8h.46c.43 0 .77.35.77.8Z" fill="#024768"/><path d="M26 30.84v2.32c0 .47-.34.84-.77.84h-.46c-.43 0-.77-.37-.77-.84v-2.32c0-.47.34-.84.77-.84h.46c.43 0 .77.37.77.84ZM43 24.83v8.34c0 .46-.34.83-.77.83h-.46c-.43 0-.77-.37-.77-.83v-8.34c0-.46.34-.83.77-.83h.46c.43-.02.77.37.77.83Z" fill="#008FC9"/><path d="M27.77 27h4.46c.43 0 .77.4.77.9v.2c0 .5-.34.9-.77.9h-4.46c-.43 0-.77-.4-.77-.9v-.2c0-.48.34-.9.77-.9ZM34.77 27h4.46c.43 0 .77.4.77.9v.2c0 .5-.34.9-.77.9h-4.46c-.43 0-.77-.4-.77-.9v-.2c0-.48.34-.9.77-.9Z" fill="#024768"/><path d="M40 26.88v1.24c0 .49-.34.88-.77.88h-.46c-.43 0-.77-.4-.77-.88v-1.24c0-.49.34-.88.77-.88h.46c.43 0 .77.4.77.88ZM27 28v-1.9s.12-2.1 3.02-2.1S33 26.24 33 26.24s.02.28-.38.28h-1.36s-.26-.06-.26-.24-.26-.7-1.02-.7-.98.4-.98.5v1.56L27 28Z" fill="#024768"/><path d="M27 30.45v1.03S27.12 34 30.02 34 33 30.89 33 30.89s.02-.33-.38-.33h-1.36s-.26.11-.26.33c0 .74-.26 1.23-1.02 1.23s-.98-.49-.98-.6v-1.07a.46.46 0 0 0-.14-.32.4.4 0 0 0-.3-.13h-1.11c-.26-.02-.45.2-.45.45ZM34 30.45v1.03S34.12 34 37.02 34 40 30.89 40 30.89s.02-.33-.38-.33h-1.36s-.26.11-.26.33c0 .74-.26 1.23-1.02 1.23s-.98-.49-.98-.6v-1.07a.46.46 0 0 0-.14-.32.4.4 0 0 0-.3-.13h-1.11c-.26-.02-.45.2-.45.45Z" fill="#008FC9"/><path d="M40 25.37c0 .2-.16.37-.37.37h-1.26a.37.37 0 0 1-.37-.37c0-.2.16-.37.37-.37h1.26c.2 0 .37.17.37.37ZM40 24.37c0 .2-.16.37-.37.37h-1.26a.37.37 0 0 1-.37-.37c0-.2.16-.37.37-.37h1.26c.2 0 .37.17.37.37Z" fill="#024768"/><path d="M42.46 25.02s.78-1 2.03-1c1.25 0 2.02 1.18 2.02 1.18s.91-1.2 2.14-1.2 2.35.97 2.35 1.81v7.3s-.02.87-.68.87h-.87s-.45-.1-.45-.88V27s0-1-1-1-1 .71-1 1v6.43s.02.57-.6.57h-.9s-.5-.07-.5-.65v-6.57s0-.78-1-.78c-.85 0-1.56.78-1.56.78s-1.48 1.32-1.44 1.2c.04-.13 1.46-2.96 1.46-2.96ZM34 26.5h2v-.23s.06-.6.5-.6h.13s.37-.07.37-.47v-.69s-.01-.51-.53-.51c-.5 0-2.47 0-2.47 2.5Z" fill="#008FC9"/><path d="M23 29.04 17 31s-.02-1.49 1.36-1.96C19.74 28.57 21 28 21 28v-.54s0-.46.57-.46h.93s.5-.02.5.52v1.52Z" fill="#024768"/><path d="M23 32.51v.83s0 .66-.59.66h-.87s-.54-.02-.54-.72v-.56c0-.13.1-.25.55-.4.43-.17 1.34-.72 1.45.2ZM19 31.2s-.11.8.57.8h.29s.14-.09.14.3v1.22s-.24.48-1.16.48c-.92 0-1.84-.7-1.84-2.37l1.71-.6c-.01-.02.29-.12.29.17ZM21 26h2s.04-2-2.91-2C17 24 17 25.85 17 25.85v.7s-.07.45.39.45h1.09s.52 0 .52-.48c0-.56 0-1.02 1-1.02s1 .5 1 .5Z" fill="#008FC9"/><path d="M22.99 30.88 23 31c0 .15-.1.3-.25.35l-1.28.4c-.18.06-.38-.05-.46-.24-.05-.18.06-.38.24-.46l1.28-.4c.2-.08.4.03.46.23ZM22.99 29.82l.01.12c0 .15-.1.3-.25.35l-1.28.4c-.18.06-.38-.05-.46-.24-.05-.18.06-.39.24-.46l1.28-.4c.2-.08.4.03.46.23Z" fill="#024768"/><path d="M13.03 24S10 23.95 10 25.95v.47s.02.58.74.58h.77s.48.03.48-.56c0-.6.01-.94 1.04-.94.97 0 .97.23.97.7s.17.74.42.67a11 11 0 0 0 1.23-.35c.02-.04.35-.07.35-.63s-.8-1.92-2.97-1.89Z" fill="#008FC9"/><path fill-rule="evenodd" d="M16 31.96v-4.54c-.17-.68-.85-.33-.85-.33l-3.46 1.43c-1.82.76-1.69 2.3-1.69 2.3v2.27c0 1 .6.9.6.9h.87c.58 0 .53-1 .53-1s.03 1 1.94 1c1.9 0 2.06-2.03 2.06-2.03Zm-2-.52v-2.1l-1.27.5c-.73.28-.73.65-.73.65v.92c0 .14.23.72 1.1.72.88 0 .9-.69.9-.69Z" fill="#024768"/></svg>