<!-- by TradingView --><svg width="56" height="56" viewBox="0 0 56 56" xmlns="http://www.w3.org/2000/svg"><path fill="#F0F3FA" d="M0 0h56v56H0z"/><path d="M15.6 11h24.8c.32 0 .6.29.6.6V40H15V11.57c0-.32.28-.57.6-.57Z" fill="#013780"/><path d="M15.6 45h24.8c.32 0 .6-.29.6-.61V41H15v3.35c0 .36.28.65.6.65Z" fill="#E52E1C"/><path fill-rule="evenodd" d="M16 39v-8h3.65s2.35.08 2.35 3.98S19.08 39 19.08 39H16Zm1-1v-6h2.41s1.57.04 1.57 2.98-2 3.02-2 3.02H17ZM25.6 33c2.4 0 2.4 3.44 2.4 3.44h-4S24.15 38 25.5 38s1.5-1 1.5-1h1s.07 2-2.46 2C23 39 23 36 23 36s0-3 2.6-3Zm1.4 2.5h-3s0-1.5 1.54-1.5C27 34 27 35.5 27 35.5Z" fill="#F0F3FA"/><path d="m30 31-1 .72V39h1v-8ZM34 39h-1.17S32 39 32 38v-4h-1v-1h1v-1l1-1v2h1l-.5 1H33v4h1v1ZM40 34.85v3.3l.5.1V39c-1.5 0-1.48-.81-1.48-.81-.3.59-1.56.81-2.1.81S35 38.89 35 37.07c0-1.81 4-2.07 4-2.07-.03-.74-.56-1-1.43-1-.91.11-1.43 1-1.43 1h-1s.5-2 2.43-2c2.37 0 2.43 1.44 2.43 1.85ZM37.35 38c1.96 0 1.63-2 1.63-2-2.37.33-2.98.78-2.98 1.15 0 .4.04.85 1.35.85Z" fill="#F0F3FA"/><path d="M21 15h15l-7.5 13L21 15Z" fill="#0084C7"/><path d="M22 14h13l-6.56 11L22 14Z" fill="#09C2F0"/><path d="M23 13h11l-5.54 10L23 13Z" fill="#fff"/><path opacity=".5" fill="#F0F3FA" d="M16 42h24v2H16z"/></svg>