<!-- by TradingView --><svg width="56" height="56" viewBox="0 0 56 56" xmlns="http://www.w3.org/2000/svg"><path fill="#F0F3FA" d="M0 0h56v56H0z"/><path d="M18 21v11h3v-5l2.5 5h2l2.5-5v5h3V21h-3.5l-3 6-3-6H18ZM32 21h3v11h-3V21Z" fill="#EE1D25"/><path d="M32 23.5V21h9v2.5h-9ZM32 32v-2.5h9V32h-9ZM32 28v-2.5h6.5L40 28h-8ZM42 21h3v11h-3V21Z" fill="#EE1D25"/><path fill-rule="evenodd" d="M48.05 21H42v6h6.05A2.98 2.98 0 0 0 51 24.02v-.04A2.98 2.98 0 0 0 48.05 21Zm-.87 2H45v2h2.18c.43 0 .82-.47.82-1s-.39-1-.82-1Z" fill="#EE1D25"/><path d="m45.5 27 3.17 5H52l-3.69-5.64-2.81.64ZM5 32l5.5-11h2L18 32h-3l-3.5-7.02L8 32H5Z" fill="#EE1D25"/><path d="M13.4 27h-.88c-2.03-.05-6.86-.47-7.64-5 0 0-.88.38-.88 1.62 0 1.3 1.92 6.15 8.31 6.37 2.91.1 3.69-.49 3.69-1.08 0-.76-1.14-1.86-1.14-1.91-.1-.16-1.46 0-1.46 0ZM5.03 22s1.5-2.67 5.02-2.67a9.8 9.8 0 0 1 3.95.95S12.73 18 9.35 18c-3.43-.05-4.56 3.11-4.32 4ZM15.5 19c.81 0 1.5.69 1.5 1.5s-.69 1.5-1.5 1.5-1.5-.69-1.5-1.5c0-.88.69-1.5 1.5-1.5Z" fill="#EE1D25"/><path d="M44 36c0 1.04-.72 2-2 2s-2-.96-2-2 .72-2 2-2 2 .96 2 2Zm-.66 0c0-.71-.42-1.46-1.34-1.46-.92 0-1.33.74-1.33 1.46s.41 1.46 1.33 1.46c.9 0 1.34-.74 1.34-1.46ZM36 38v-4h1.44c.78 0 1.4.44 1.4 1.25 0 .82-.63 1.24-1.4 1.24h-1.1v-.52h1.05c.47 0 .84-.22.84-.72s-.37-.73-.85-.73h-.77V38H36Zm2-1.8 1 1.8h-.7l-.98-1.8H38ZM49 38v-4h1.52c.84 0 1.48.48 1.48 1.3 0 .8-.65 1.3-1.48 1.3h-1.05v-.52h1c.51 0 .88-.28.88-.79 0-.5-.38-.77-.9-.77h-.8V38H49ZM47.43 34H48v2.59c0 .88-.7 1.41-1.5 1.41s-1.5-.54-1.5-1.41V34h.57v2.54c0 .55.41.92.93.92a.9.9 0 0 0 .93-.92V34ZM34.26 35.28c-.18-.46-.63-.74-1.2-.74-.94 0-1.37.75-1.37 1.46 0 .72.44 1.46 1.4 1.46.73 0 1.24-.36 1.24-.98H33V36h2v.44c0 .94-.81 1.56-1.91 1.56-1.34 0-2.09-.94-2.09-2 0-1.04.74-2 2.06-2 .91 0 1.75.5 1.9 1.28h-.7Z"/></svg>