<!-- by TradingView --><svg width="56" height="56" viewBox="0 0 56 56" xmlns="http://www.w3.org/2000/svg"><path fill="#F0F3FA" d="M0 0h56v56H0z"/><path d="M16 12v19.5h-2V12h2ZM19 12v19.5h-2V12h2ZM22 12v19.5h-2V12h2ZM25 12v19.5h-2V12h2Z" fill="#2B2A29"/><path d="M28 29.44V28s1.38.8 2.12.8c.75 0 1.26-.8 2.24-.8.97 0 1.37.8 2.23.8.86 0 1.5-.8 2.24-.8.69 0 1.43.8 2.35.8.92 0 1.37-.8 2.23-.8.86 0 1.32.7 2.13.7.85 0 2.46-.7 2.46-.7v1.3s-1.32.7-2.24.7c-.97 0-1.14-.6-2.17-.6-1.04 0-1.55.6-2.24.6-.69 0-1.55-.56-2.46-.56-.92 0-1.38.56-2.07.56s-1.2-.51-2.35-.51c-1.15 0-1.3.51-2.17.51-.86 0-2.3-.56-2.3-.56ZM28 34.4V33s1.38.77 2.12.77c.75 0 1.26-.77 2.24-.77.97 0 1.37.77 2.23.77.86 0 1.5-.77 2.24-.77.69 0 1.43.77 2.35.77.92 0 1.37-.77 2.23-.77.86 0 1.32.68 2.13.68A9 9 0 0 0 46 33v1.27s-1.32.73-2.24.73c-.97 0-1.14-.64-2.17-.64-1.04 0-1.55.64-2.24.64-.69 0-1.55-.6-2.46-.6-.92 0-1.38.6-2.07.6s-1.2-.55-2.35-.55c-1.15 0-1.26.55-2.12.55-.86 0-2.35-.6-2.35-.6ZM28 31.9v-1.4s1.38.77 2.12.77c.75 0 1.26-.77 2.24-.77.97 0 1.37.77 2.23.77.86 0 1.5-.77 2.24-.77.69 0 1.43.77 2.35.77.92 0 1.37-.77 2.23-.77.86 0 1.32.68 2.13.68.85 0 2.46-.68 2.46-.68v1.27s-1.32.73-2.24.73c-.97 0-1.14-.64-2.17-.64-1.04 0-1.55.64-2.24.64-.69 0-1.55-.6-2.46-.6-.92 0-1.38.6-2.07.6s-1.2-.55-2.35-.55c-1.15 0-1.26.55-2.12.55-.86 0-2.35-.6-2.35-.6Z" fill="#00AEEF"/><path d="M14 31.5A14.5 14.5 0 0 0 42.57 35h-2.06c-1.5 5.21-6.3 9-12.01 9C21.57 44 16 38.43 16 31.5h-2Zm12-12.25A12.46 12.46 0 0 1 40.5 28h2.07A14.5 14.5 0 0 0 26 17.21v2.04Z" fill="#2B2A29"/><path d="M17 31.5A11.5 11.5 0 0 0 39.46 35h-2.13A9.5 9.5 0 0 1 19 31.5h-2Zm9-9.17A9.51 9.51 0 0 1 37.33 28h2.13A11.5 11.5 0 0 0 26 20.27v2.06Z" fill="#2B2A29"/><path d="M20 31.5A8.5 8.5 0 0 0 36.25 35h-2.27A6.5 6.5 0 0 1 22 31.5h-2Zm6-6a6.48 6.48 0 0 1 7.98 2.5h2.27A8.5 8.5 0 0 0 26 23.37v2.13Z" fill="#2B2A29"/><path d="M23 31.5a5.5 5.5 0 0 0 9.74 3.5H28.5a3.5 3.5 0 0 1-3.5-3.5h-2Zm3-2.45A3.49 3.49 0 0 1 28.5 28h4.24A5.49 5.49 0 0 0 26 26.6v2.45Z" fill="#2B2A29"/></svg>