<!-- by TradingView --><svg width="56" height="56" viewBox="0 0 56 56" xmlns="http://www.w3.org/2000/svg"><path fill="#F0F3FA" d="M0 0h56v56H0z"/><path d="m14 39.48 7.69-.48 5.31.48V41l-5.37-.48L14 41v-1.52ZM14 37.48l7.69-.48 5.31.48V39l-5.37-.48L14 39v-1.52ZM14 35.48l7.69-.48 5.31.48V37l-5.37-.48L14 37v-1.52ZM14 33.48l9.46-.48 6.54.48V35l-6.6-.48L14 35v-1.52ZM20 25.75l5.1-.75 3.9.3v1.24l-3.94-.3L20 27v-1.25ZM20 23.75l5.1-.75 3.9.3v1.24l-3.94-.3L20 25v-1.25ZM20 21.75l5.1-.75 3.9.3v1.24l-3.94-.3L20 23v-1.25ZM23.8 19.69l3.25-.65 2.47.25v1.08l-2.5-.25-3.21.64V19.7Z" fill="#54623C"/><path d="m23.8 18.23 3.25-.65 2.47.25v1.08l-2.5-.25-3.21.65v-1.08ZM14 31.48l9.46-.48 6.54.48V33l-6.6-.48L14 33v-1.52ZM14 29.48l8.87-.48 6.13.48V31l-6.2-.48L14 31v-1.52ZM14 27.48l8.87-.48 6.13.48V29l-6.2-.48L14 29v-1.52ZM28 36h3a6 6 0 0 1 6 6h-9v-6Z" fill="#54623C"/><path d="M33.21 30c4.3 0 7.79 2.91 7.79 6.5S37.51 43 33.21 43c-.41 0-.81-.03-1.21-.08V42c3.91-.1 7.04-2.52 7.04-5.5S35.9 31.1 32 31v-.92c.4-.05.8-.08 1.21-.08ZM30 19h1v1h-1v-1ZM30 21h1v1h-1v-1ZM30 23h1v1h-1v-1ZM30 25h1v1h-1v-1ZM30 27h1v1h-1v-1ZM30 29h1v1h-1v-1Z" fill="#54623C"/><path d="M37 31h2v1h-2v-1ZM39 33h2v1h-2v-1ZM40 35h2v1h-2v-1ZM40 38h2v1h-2v-1ZM38 40h2v1h-2v-1ZM33 42h5v1h-5v-1ZM31 43V18h1v25h-1Z" fill="#54623C"/><path d="M31.53 23h3.78l.69 7h-5l.53-7ZM31.42 15h3.03l.55 7h-4l.42-7ZM31.94 9h2.04l.37 5h-2.7l.29-5ZM16.91 43a1.5 1.5 0 0 0-2.82 0h2.82Zm.18 0a1.5 1.5 0 0 1 2.82 0H17.1Zm11.82 0a1.5 1.5 0 0 0-2.82 0h2.82Zm-3 0a1.5 1.5 0 0 0-2.82 0h2.82Zm-3 0a1.5 1.5 0 0 0-2.82 0h2.82ZM15 28h1v12h-1zM18 28h1v12h-1zM21 28h1v12h-1z" fill="#54623C"/></svg>