<!-- by TradingView --><svg width="56" height="56" viewBox="0 0 56 56" xmlns="http://www.w3.org/2000/svg"><path fill="#F0F3FA" d="M0 0h56v56H0z"/><path d="M18.5 40c3.72 0 7.02-1.77 9.13-4.5-.62-.8-1.88-2.34-2.88-2.88A7.52 7.52 0 0 1 18.5 36a7.5 7.5 0 1 1 6.47-11.28c.13.2 3.6 5.28 11.11 5.28C38.8 30 40 28.98 40 27.74c0-1.24-.44-2.36-.44-2.36s-.75.67-2.75.62c-2.86-.07-6.24-.25-9.04-4.32A11.49 11.49 0 0 0 7 28.5 11.5 11.5 0 0 0 18.5 40Z" fill="url(#ak5ct3411)"/><path d="M37.5 17c-3.72 0-7.02 1.77-9.13 4.5.62.8 1.88 2.34 2.88 2.88A7.52 7.52 0 0 1 37.5 21a7.5 7.5 0 1 1-6.47 11.28c-.13-.2-3.6-5.28-11.11-5.28C17.2 27 16 28.02 16 29.26c0 1.24.44 2.36.44 2.36s.75-.67 2.75-.62c2.86.07 6.24.25 9.04 4.32A11.49 11.49 0 0 0 49 28.5 11.5 11.5 0 0 0 37.5 17Z" fill="url(#bk5ct3411)"/><defs><linearGradient id="ak5ct3411" x1="32.5" y1="20.5" x2="10" y2="37" gradientUnits="userSpaceOnUse"><stop stop-color="#57D9F2"/><stop offset="1" stop-color="#084E8C"/></linearGradient><linearGradient id="bk5ct3411" x1="41" y1="38" x2="32.5" y2="17" gradientUnits="userSpaceOnUse"><stop stop-color="#FF2D00"/><stop offset="1" stop-color="#DFBA49"/></linearGradient></defs></svg>