<!-- by TradingView --><svg width="56" height="56" viewBox="0 0 56 56" xmlns="http://www.w3.org/2000/svg"><path fill="#F0F3FA" d="M0 0h56v56H0z"/><path d="M41 31.55v3.02l-.04.1S40.42 36 38.58 36H38v-3.35S38 31 40.42 31H41v.55Zm-1 2.83v-2.2c-.75.14-1 .44-1 .51v2.13c.39-.1.92-.33 1-.44ZM33 20v5h-1v-5h1ZM36 25v-.5h-.44c-1.41 0-1.56-.84-1.56-.84V22.3C34 21 35.26 21 35.26 21H37v4.03s0 .97-3 .97v-1h2Zm0-1.34V22c-.24 0-1 0-1 .37v.87c0 .51.74.4 1 .42ZM16 22v3s-.56.82-1.2 1l-.26-1c.2-.06.44-.2.46-.32V22h1ZM19 22v2h-1v-2h1ZM16 24h4v1h-4v-1ZM22 24h8v-4h1v5h-9v-1Z" fill="#3599DC"/><path d="M29 22v2h-1v-2h1ZM23 21.55v3.02l-.04.1S22.42 26 20.58 26H20v-3.35S20 21 22.42 21H23v.55Zm-1 2.83v-2.2c-.75.14-1 .44-1 .51v2.13c.39-.1.92-.33 1-.44ZM25.51 22.93c-.07 0-.52.06-.48.19.07.27.34.55.55.74.2-.16.45-.37.35-.59-.1-.37-.42-.34-.42-.34Zm-1.49.37c-.24-1.14 1.39-1.3 1.39-1.3s1.1-.12 1.52 1c.41 1.1-1.14 1.85-1.14 1.85l-.31.15-.28-.19c.04 0-1-.7-1.18-1.5ZM26 20h1v1h-1v-1ZM28 20h1v1h-1v-1ZM16 26h1v1h-1v-1ZM18 26h1v1h-1v-1ZM9 32v2.54C9 34.69 8.97 36 7.43 36H6.15S5 36 5 34.72V33h1v1.64c0 .27.14.33.2.36h1.28c.52 0 .52-.54.52-.54V32h1ZM11 30v4h10v-2h1v3H10v-5h1Z" fill="#3599DC"/><path d="M20 32v2h-1v-2h1ZM18 33v1h-1v-1h1ZM15 33.2c-.03-.05-.15-.2-.6-.2H12v-1.51L14.27 30l.61.7L13 31.85V32h1.4c1.46 0 1.6 1.07 1.6 1.07V34h-1v-.8ZM27 30v5h-4v-1h3v-4h1Z" fill="#3599DC"/><path d="M25 30v4h-1v-4h1ZM6 30h1v1H6v-1ZM24 35.46c-.27-.04-.3.29-.44.54-1.25-.37-.02-1-.02-1l.46.46Z" fill="#3599DC"/><path d="M34.53 17 33 12.16l.47-.16L35 16.84l-.47.16ZM36.09 16.63l.22-4.64.5.02-.22 4.64-.5-.02ZM37.4 16.8l2.18-4.52.45.22-2.18 4.51-.45-.22ZM38.74 17.3l3.34-3.52.36.35-3.33 3.52-.37-.34ZM40 18.24 44.5 16l.21.45-4.49 2.23-.22-.44ZM41 19.73l4.93-.73.07.5-4.93.72-.07-.5ZM41.06 21l4.64.6-.06.5-4.64-.6.06-.5ZM41.23 23l4.38 2.3-.23.44-4.38-2.3.23-.44ZM40.37 25l2.73 3.07-.38.34L40 25.33l.37-.33Z" fill="#FCC35F"/><path d="M30 33v1.3c0 .5.46.7 1 .7.52 0 1-.2 1-.7V33h1v1.65c0 1.17-1 1.35-1 1.35h-1.32C29.13 36 29 34.71 29 34.71V33h1ZM38 35h-5v-1h5v1ZM37 32v2h-1v-2h1ZM40 34h8v-4h1v5h-9v-1Z" fill="#3599DC"/><path d="M47 31v3h-1v-3h1ZM45 32v2h-1v-2h1ZM43 33v1h-1v-1h1ZM51 30v5h-1v-5h1ZM43 30h1v1h-1v-1ZM45 30h1v1h-1v-1ZM44 29h1v1h-1v-1ZM35 32v2h-1v-2h1Z" fill="#3599DC"/></svg>