<!-- by TradingView --><svg width="56" height="56" viewBox="0 0 56 56" xmlns="http://www.w3.org/2000/svg"><path fill="#F0F3FA" d="M0 0h56v56H0z"/><path d="M41 25a13 13 0 1 1-23.89-7.1l.3.04h.88a12 12 0 1 0 1.86-2.02l-.1-.1.6-.57c.04-.04.57-.62.76-.98.1-.17.21-.43.31-.66A13 13 0 0 1 41 25Z" fill="#CE020C"/><path d="m18.87 32.79-4.96-.35 5.19 9.83 18.18-.23 3.5-6.17h-4.62l-17.3-3.08Z" fill="#CE020C"/><path d="M43 25.31c0 4.16-1.62 7.93-4.26 10.69h-2.08a14 14 0 0 0-14.5-23.73 1.82 1.82 0 0 0-.38-.9c1.9-.88 4-1.37 6.22-1.37 8.28 0 15 6.86 15 15.31ZM20.63 11.97a15.15 15.15 0 0 0-4.25 3.66c.26.14.7.18 1.05.19a14.07 14.07 0 0 1 3.07-2.64c.05-.11.1-.24.14-.38a1.3 1.3 0 0 0-.01-.83ZM13 25.31c0 2.64.65 5.12 1.8 7.29l1.51.1a13.94 13.94 0 0 1-.16-15.16l-.32-.03a1.3 1.3 0 0 1-.55-.32A15.47 15.47 0 0 0 13 25.31Z" fill="#49539B"/><path d="M16.12 18.47c-.85.7-.8 1.31-.66 1.53.09.07.31.2.45.2.15 0 .45-.13.58-.2l.72-.5.49-.6.35-.52v.77l.04 2.05.96-.66.72-.2c.02-.12.01-.47-.18-1.01-.23-.68-1.1-1.19-1.37-1.43-.21-.2-.17-.48-.13-.6-.3.1-1.13.47-1.97 1.17Z" fill="url(#amerydzhr)"/><path d="m39.54 34.94.52-.44h5.34l-1.83 2.35 1.83 2.65h-2.95v-3.14l-2.91-1.42Z" fill="#C0000B"/><path d="m39.56 34.77-.99 1.02 3.92.12-2.93-1.14Z" fill="#410A0F"/><path d="m46 33.5-.37.5h-5.36l.1-.5H46ZM46 40.5l-.37-.5h-5.36l.1.5H46Z" fill="#C0000B"/><path d="M12.06 34H8.3l.47.5h3.29V34Z" fill="url(#bmerydzhr)"/><path d="M12.05 35h-3.1l1.66 2.79-1.85 2.71h7.36l1.5.6-9.28-.1-.34.51h.03c2.33 0 8.44 0 10.96.1l-.52-2.36h-6.42V35Z" fill="#C1070A"/><path d="m19 41.62-5.85-2.25H19v2.25Z" fill="#4C050B"/><path d="M30.06 34.43a70.54 70.54 0 0 0-18.04-2.24v.62c7.9 0 12.67.89 17.86 2.23 4.15 1.07 10.12 1.34 12.58 1.35v-.57c-6 0-10.76-.93-12.4-1.4Zm0 1.21a70.54 70.54 0 0 0-18.04-2.24v4.93c7.9 0 12.67.9 17.86 2.23 4.15 1.08 10.12 1.35 12.58 1.35v-4.88c-6 0-10.76-.92-12.4-1.39ZM12.02 38.8c3.02-.08 10.86.27 18.04 2.24 1.64.46 6.4 1.4 12.4 1.4V43c-2.46 0-8.43-.28-12.58-1.35a64.39 64.39 0 0 0-17.86-2.23v-.62Z" fill="#CF000C"/><path d="M15.3 38.15h-1.93c-.1 0-.18-.1-.16-.2l.94-4.3a.16.16 0 0 1 .17-.13l1.85.07c.07 0 .13.05.15.12l.32 1.11.44-1.05c.02-.06.1-.1.16-.1l1.8.14c.07 0 .13.06.14.14l.63 4.27c.01.1-.07.2-.18.18l-1.87-.12a.16.16 0 0 1-.16-.15l-.08-.78-.28.7a.16.16 0 0 1-.15.1h-1.17a.16.16 0 0 1-.16-.12l-.21-.68-.08.65a.16.16 0 0 1-.17.15Z" fill="#F7F8F3"/><path d="M15.06 37.78h-1.54l.91-3.84h1.65l.48 2.11.74-2.1 1.56.07.58 3.98-1.51-.06-.13-2.15-.83 2.1-.96-.04-.59-2.16-.36 2.09Z" fill="#445299"/><path d="M20.15 34.5v4.25l2.66.16v-.76l-1.93-.11v-1.1l1.77.14v-.73l-1.77-.11v-.94l1.93.12v-.7l-2.66-.21Z"/><path d="M19.95 34.12v4.25l2.66.16v-.76l-1.94-.11v-1.1l1.78.14v-.74l-1.78-.1v-.95l1.94.13v-.7l-2.66-.22Z" fill="#F7F8F3"/><path d="m22.9 38.83 1.34-3.96.63.1 1.31 4.39-.77-.13-.35-1.25-1.1-.2-.37 1.13-.69-.08Zm1.27-1.68.7.15-.34-1.24-.36 1.09Z"/><path d="m22.69 38.52 1.33-3.97.63.12 1.32 4.37-.78-.13-.34-1.24-1.11-.2-.37 1.12-.68-.07Zm1.26-1.69.7.16-.34-1.25-.36 1.1Z" fill="#F7F8F3"/><path d="M25.6 35.16v.73l1.1.2v3.47l.69.16v-3.5l1.12.3v-.67l-2.9-.69Z"/><path d="M25.5 34.78v.73l1.1.2v3.47l.68.16v-3.5l1.12.3v-.68l-2.9-.68Z" fill="#F7F8F3"/><path d="M31.56 40v.67l-2.6-.66v-4.17l2.6.67v.78l-1.96-.52v.86l1.82.5v.73l-1.82-.45v1.13l1.96.47Z"/><path d="M31.26 39.61v.67l-2.6-.67v-4.16l2.6.67v.77l-1.96-.51v.86l1.82.5v.73l-1.82-.45v1.12l1.96.47Z" fill="#FBFFFF"/><path d="M31.89 40.72v-4.15l.74.18v3.34l1.6.45v.66l-2.34-.48Z"/><path d="M31.65 40.39v-4.14l.75.17v3.35l1.6.44v.66l-2.35-.48Z" fill="#FFFBFD"/><path d="M34.37 41.28v-4.17l.72.15v3.42l1.63.3v.72l-2.35-.42Z"/><path d="M34.24 40.92v-4.17l.72.14v3.43l1.63.3v.71l-2.35-.41Z" fill="#FFFBFD"/><path fill-rule="evenodd" d="M38.58 42.1c.96 0 1.73-1.03 1.73-2.3 0-1.25-.77-2.28-1.73-2.28-.95 0-1.72 1.03-1.72 2.29s.77 2.28 1.72 2.28Zm0-.8c.59 0 1.06-.67 1.06-1.5 0-.81-.47-1.48-1.06-1.48-.58 0-1.05.67-1.05 1.49s.47 1.49 1.05 1.49Z"/><path fill-rule="evenodd" d="M38.31 41.63c.96 0 1.73-1.02 1.73-2.28 0-1.27-.77-2.29-1.73-2.29-.95 0-1.73 1.02-1.73 2.29 0 1.26.78 2.28 1.73 2.28Zm0-.8c.59 0 1.06-.66 1.06-1.48 0-.83-.47-1.5-1.06-1.5-.58 0-1.05.67-1.05 1.5 0 .82.47 1.49 1.05 1.49Z" fill="#FFFBFD"/><path d="M25.46 32.43v-4.01c.35.51 2.1 1.54 6.32 1.54 4.23 0 6.05-1.03 6.43-1.54v4.01c-.14.47-1.6 1.41-6.43 1.41-4.82 0-6.22-.94-6.32-1.4Z" fill="url(#cmerydzhr)"/><path d="m25.6 28.92.28.73H24.6l.37-.73h.64Z" fill="#7B0009"/><path d="m25.78 33.7.1-4.05H24.6l.37 4.05h.8Z" fill="#D49140"/><path d="m31.29 30.38-.27.74h1.27l-.37-.74h-.63Z" fill="#7B0009"/><path d="m31.12 35.16-.1-4.04h1.27l-.37 4.04h-.8Z" fill="#D49140"/><path d="m37.84 29-.27.74h1.27l-.36-.74h-.64Z" fill="#7B0009"/><path d="m37.67 35.8-.1-6.06h1.27l-.36 6.05h-.8Z" fill="#D49140"/><ellipse cx="31.83" cy="28.41" rx="6.37" ry="1.55" fill="url(#dmerydzhr)"/><path d="m22.89 31.01.31.28" stroke="#000" stroke-width=".5"/><path d="m17.42 18.35.64-.36v.36l-.24.37-.68.87-.44.24-.36-.05-.03-.2.4-.65.7-.58Z" fill="#F0B223"/><path d="m17.72 16.06.39.7.2-.15c.07-.06.24-.2.35-.26.1-.07.28-.03.36 0 .1-.1.33-.29.44-.34.13-.07.35-.1.39-.1h.28l.1-.28a8.04 8.04 0 0 0-.5-.77l-.14-.47c0-.02-.05-.05-.07-.07l-.56.03-.57.23-.38.31-.45.55v.23l.16.39Z" fill="url(#emerydzhr)"/><path d="m20.54 16.43-.25-.45c.5-.56 1.75-1.66 2.75-1.57 1.24.12.85.92.73 1.13-.09.16-.18.24-.21.25-.08-.14-.4-.41-1-.42-.6 0-1.23.45-1.47.67l-.35.41-.2-.02Z" fill="url(#fmerydzhr)"/><path d="M22.38 15.45c-.57.1-1.28.67-1.57.94.45.08 1.48.18 1.95-.05.47-.23.73-.42.8-.48-.08-.21-.46-.55-1.18-.41Z" fill="#EEAB1C"/><path d="M17.78 22.16c0-.4.33-1.28 1.49-1.66.74-.25 1.03-.33 1.12-.34.23-.77 1.03-2.26 2.45-2.26.51.02 1.54.4 1.54 1.69 0 1.3-1.18 2.7-1.77 3.24-.5.42-1.71 1.26-2.63 1.26-1.15 0-2.2-.9-2.2-1.93Z" fill="#EEAF16"/><path d="M23.4 20.18c.11-.33.02-.66-.21-.74-.23-.08-.51.13-.62.46-.12.33-.02.66.21.74.23.08.5-.12.62-.46Zm-4.47 2.67c.41 0 .75-.22.75-.5 0-.27-.34-.49-.75-.49-.42 0-.76.22-.76.5 0 .27.34.49.76.49Z" fill="#610000"/><path d="M21.12 24.7c-1.16 0-1.86-.56-2.07-.84l-.63-.37c1.26 2.07 2.47 2.35 2.92 2.23 2.7 0 3.46-2.06 3.5-3.1l-.29-1.15-.21-1.15-.34.71c.02 2.33-1.42 3.68-2.88 3.68Z" fill="#EEAF16"/><path d="M25.87 19c0-.87.55-1.48.82-1.67.77-.08 2.58-.15 3.72.25.13.35.38.59.64.83.38.36.78.73.78 1.54 0 1.08-.95 1.38-1.43 1.4-1.86 0-2.1-1.14-2-1.71-.25.24-.87.73-1.34.73-.58 0-1.2-.26-1.2-1.36Zm-1.05 4.08c.27.1.82.49.82 1.2 0 .68-.12.88-.18.9.4-.09 1.2-.04 1.2.9 0 .24-.12.78-.5.9-.4-.06-1.3-.12-1.79.18l-.34.4v3.57c-.04.12-.17.35-.37.35-.2 0-.4-.2-.46-.3v-1.33c-.17-.1-.51-.4-.51-.79l.1-.31.26-.13-.18-.88.1-.5c-.03-.16-.1-.51-.1-.57 0-.05-.12-.35-.18-.49l-.38-.4-.16-.05c.47-.14 1.5-.52 1.82-1.02l.18-.29c.34-.5.63-.94.67-1.34Zm7.5-1.12c-.1.69-.45 2.25-1.03 3.02l-.68-.16c-.03-.03-.1-.23-.1-.8 0-.58.4-.88.6-.96-.38-.18-.47-.37-.47-.44-.03-.67 1.1-.72 1.67-.66Zm-4.25 4.44-.06.73c.17.03.76.05 1.82-.13 1.05-.19 1.31-1.42 1.31-2.02l-1.2-.26-1.87 1.68Zm5.77-4.6c.13-.07.47-.22.74-.24l-.1.6-.54 1.41c-.2-.1-.58-.32-.59-.41 0-.05.08-.23.18-.45.15-.35.36-.8.3-.91Z" fill="#700107"/><path d="M35.36 22.66c0 .87.75.89.81.9-.04-.07-.04-.23.23-.24.26-.01.28.25.25.37.1.09.4.18.9-.13.6-.38.52-1.52.52-1.78 0-.22-.03-.49-.05-.6l.11-1.71-.06-.05c-.13.58-1.08 1.62-1.5 2.07-.43.44-1.22.3-1.21 1.17Z" fill="url(#gmerydzhr)"/><path fill-rule="evenodd" d="M19.8 11.7c.08-.1.19-.2.31-.3.22-.17.48-.3.8-.3.38 0 .65.2.82.47.17.27.24.61.24.89 0 .27-.14.86-.45 1.48-.28.56-.7 1.15-1.26 1.53l-.49-.73a.42.42 0 0 1-.08-.2.5.5 0 0 1 0-.16l.02-.05-.04-.03c.2-.15.42-.43.61-.75.22-.37.38-.82.38-1.25a.66.66 0 0 0-.12-.42.53.53 0 0 0-.3-.18c-.14-.03-.3-.02-.43 0Zm-.27 2.55-.02-.03c.18-.12.42-.4.63-.75.2-.36.36-.78.36-1.17a.5.5 0 0 0-.09-.31.36.36 0 0 0-.21-.13c-.18-.04-.4 0-.56.06l-.2.08.1-.2c.08-.14.24-.35.47-.53.23-.18.54-.33.9-.33.45 0 .76.23.96.54.19.3.27.68.27.98 0 .3-.16.92-.47 1.55-.3.58-.73 1.2-1.32 1.6l.02.02-.2.27.06.04c.22-.27.6-.65 1.05-.97a3.08 3.08 0 0 1 1.7-.61c.38 0 .66.11.83.3.16.2.2.46.13.72-.15.51-.72 1.03-1.65 1.13l-1.43.04 1.4 1.34a1.67 1.67 0 0 1 1.75.44c.1.11.19.24.26.39.37-.6 1.49-1.52 3.62-1.52 1.42 0 2.5.15 3.25.54a2.27 2.27 0 0 1 1.16 1.39c.39 0 .93.06 1.4.3.5.24.93.67.97 1.4a4.48 4.48 0 0 1-.46 2.32l-.02.05-.1.24c-.08.19-.13.33-.13.47 0 .3.03.53.13.68.1.15.29.24.67.24.36 0 .67-.2.9-.46.21-.23.36-.5.43-.72a.87.87 0 0 1-.46-.08c-.22-.11-.38-.34-.38-.74 0-.24.05-.43.13-.58.08-.15.2-.25.32-.34.11-.07.24-.13.36-.18l.03-.02a2 2 0 0 0 .36-.2c.21-.15.55-.51.87-.94.31-.43.6-.91.7-1.3l.16.02-.1 1.96c.07.47.1 1.16-.07 1.7-.09.29-.22.53-.43.7-.2.16-.51.22-.85.17v.09a.6.6 0 0 1-.04.18l-.1.24c-.1.17-.24.37-.43.56a2.4 2.4 0 0 1-1.74.73c-.38 0-.67-.08-.88-.22a1.08 1.08 0 0 1-.42-.49 1.47 1.47 0 0 1-.12-.72v-.02c0-.03 0-.06.02-.1a4.03 4.03 0 0 1 .14-.6c.1-.34.24-.77.42-1.11.17-.32.27-.73.26-1.1a1.2 1.2 0 0 0-.46-.95c-.45-.34-.8-.39-.95-.37.13 1.77-.12 3.86-1.13 5.2l-.13-.1c1.01-1.35 1.25-3.52 1.07-5.32-.04-.45-.16-.81-.35-1.11a2.1 2.1 0 0 0-.82-.72 7.15 7.15 0 0 0-3.18-.53c-2.23 0-3.29 1.04-3.54 1.55a2.28 2.28 0 0 1 .04 1.31h.01c.07.4.2 1.23.45 2.1.16.59-.06 1.46-.61 2.2a3.25 3.25 0 0 1-1.9 1.25c.4.23.58.62.64.98.08.4.03.77 0 .87l.01.17a5.35 5.35 0 0 0 .11.84l.02.07-.07.02c-.06.03-.2.14-.23.4v.1c.02.12.08.22.16.32s.19.19.26.23l.04.03v1.45a.7.7 0 0 0 .12.1c.07.04.15.07.22.07s.13-.03.2-.09a.6.6 0 0 0 .1-.14v-3.37a.8.8 0 0 1 .23-.58c.14-.14.34-.23.54-.28a3 3 0 0 1 1.2 0c.18 0 .77-.07 1.73-.43.47-.17.92-.5 1.29-.83.37-.34.66-.68.8-.9l.14.1c-.16.22-.45.58-.83.92-.38.35-.85.68-1.35.87-.97.36-1.6.44-1.8.43-.31-.06-.77-.1-1.14 0a.97.97 0 0 0-.46.23.63.63 0 0 0-.18.47v3.2c.21.06.35.18.43.32.09.14.12.3.11.4v.43l-.02.03a3.48 3.48 0 0 1-.75.58.7.7 0 0 1-.29.07c-.32 0-.58-.11-.68-.17l-.03-.03a2 2 0 0 1-1.05.02l-.06-.02v-1.18l.3-.38v-1.16a.58.58 0 0 1-.09-.02.4.4 0 0 1-.19-.13.4.4 0 0 1-.07-.25c0-.33.17-.5.3-.58l-.1-3.12-.28.01a3.5 3.5 0 0 1-3.2-2.23 2.39 2.39 0 0 1-.4-.4L18 23.2a2.05 2.05 0 0 1-.32-1.13c0-.3.1-.62.34-.9a17.8 17.8 0 0 0-.03-2.03l-.02-.51c-.12.2-.28.42-.45.64-.29.36-.65.7-1.03.86-.47.2-.77.18-.95.05-.19-.12-.23-.35-.23-.5 0-.32.2-.8.88-1.38a8.13 8.13 0 0 1 1.83-1.03l.02-.12.03-.2c-.78.5-1.64.7-2.33.56a1.51 1.51 0 0 1-.9-.5 1.7 1.7 0 0 1-.35-1.12c0-1.47.6-2.2.93-2.38l.15-.09-.03.17a2.3 2.3 0 0 0 .23 1.48c.14.23.34.41.62.52.28.1.64.13 1.1.05a.59.59 0 0 1 .09-.37c.19-.3.77-.9 1.57-1.04a1.78 1.78 0 0 1 .37.02Zm-1.34 2.41.04-.07c.12-.2.31-.36.6-.36a.5.5 0 0 1 .21.05c.07-.08.17-.19.28-.28.14-.1.32-.2.5-.2.07 0 .13 0 .2.03l.14-.2-.04-.06c-.15-.25-.39-.61-.48-.73a.58.58 0 0 1-.1-.27c-.02-.06-.02-.1-.01-.15a1.64 1.64 0 0 0-.35-.03 2.4 2.4 0 0 0-1.46.97c-.05.06-.13.32.09.72a4.06 4.06 0 0 0 .38.58Zm-.16.8c-.46.18-1.26.57-1.73.97-.66.55-.81 1-.81 1.25 0 .14.03.29.15.37.12.08.35.11.8-.07l.11-.06H16.38a.17.17 0 0 1-.08-.05c-.08-.07-.09-.2-.03-.37.05-.17.18-.4.44-.66a5.5 5.5 0 0 1 1.36-.95.92.92 0 0 1 .04-.08.96.96 0 0 1-.08-.36Zm.18.52c-.02.08-.05.18-.06.3h.02l-.03.06v.1c0 .12 0 .37.02.68A128.67 128.67 0 0 1 18.2 21l.3-.22c.69-.4 1.33-.6 1.82-.66.07-.5.4-1.05.84-1.5a3 3 0 0 1 .93-.65l-1.44-1.38a1 1 0 0 1 .03.22c0 .29-.23.52-.5.63a.8.8 0 0 1-.75-.05c-.02.15-.06.3-.1.38a.96.96 0 0 1-.41.4c-.18.08-.38.08-.58-.07a.6.6 0 0 1-.13-.1Zm2.38-1.59h.12c.21-.28.82-.87 1.6-1.03.47-.1.8-.06 1 .06.14.08.23.18.27.3.1-.13.16-.26.2-.38a.6.6 0 0 0-.1-.57c-.12-.14-.35-.25-.7-.25-.57 0-1.13.26-1.6.59-.45.3-.81.67-1.03.93a1.07 1.07 0 0 1 .24.35Zm-3.07-.59c-.48.09-.87.06-1.17-.06a1.38 1.38 0 0 1-.7-.58 2.37 2.37 0 0 1-.29-1.4c-.28.27-.7.92-.7 2.13 0 .44.13.77.32 1 .2.24.47.4.8.46.66.13 1.52-.08 2.3-.58a4.21 4.21 0 0 1-.4-.6 1.38 1.38 0 0 1-.16-.37Zm6.57 15.43v-.03c.14.04.24.13.3.22.06.11.08.24.08.31v.38a3.34 3.34 0 0 1-.68.52.54.54 0 0 1-.22.06c-.25 0-.45-.08-.55-.13v-.8l.23-.31.07.04c.08.05.19.1.3.1.13 0 .23-.07.3-.14a.76.76 0 0 0 .16-.2v-.02Zm-.98.09.02.01-.28.38v.77c-.35.13-.73.09-.94.04v-1l.24-.3a.96.96 0 0 0 .37.06c.16.01.27-.04.33-.11a.29.29 0 0 0 .06-.22l-.06-1.31c.08.1.18.2.26.25v1.43Zm-.18-2.72a.52.52 0 0 0-.1.1 9.13 9.13 0 0 1 .02-.64v.03l.08.51Zm-.1-1.82c.04.24.03.47.02.63a.52.52 0 0 0-.08.15 4.45 4.45 0 0 0-.1.74 10.83 10.83 0 0 0 0 1.07l.08 1.6c0 .02 0 .06-.03.1-.02.02-.07.06-.2.06a.81.81 0 0 1-.26-.04.2.2 0 0 1-.04-.01v-1.14l.14-.01-.03-.16a.63.63 0 0 1-.31-.01.24.24 0 0 1-.12-.08.23.23 0 0 1-.04-.15c0-.3.18-.42.25-.44l.07-.02-.1-3.26h.07l-.02.04c.44.18.62.56.7.93Zm-4.65-5.53c-.23.26-.32.55-.33.83-.01.4.15.8.3 1.03.2.27.62.62 1.18.8a2.5 2.5 0 0 0 2.05-.28 6.5 6.5 0 0 0 2.2-2.03c.5-.73.72-1.44.72-1.94s-.15-.93-.41-1.22a1.5 1.5 0 0 0-1.16-.46c-.48 0-1.02.3-1.46.75-.4.41-.7.92-.78 1.36h.49c.04.01.07.05.07.1-.01.04-.06.07-.1.07a2.57 2.57 0 0 0-.55 0c-.47.06-1.12.24-1.81.65-.16.1-.3.21-.4.32v.02Zm-1.35-2.3a5.1 5.1 0 0 1 1.18-.84l-.03.18a5.72 5.72 0 0 1-1.06 1.38l-.01-.02a1.04 1.04 0 0 1-.49.1c-.02 0-.04-.06 0-.2.05-.14.16-.34.4-.6Zm5.45-2.6-1.35.03c.25-.28.78-.73 1.41-.86.46-.1.73-.05.9.04.14.08.2.2.2.3a2 2 0 0 1-1.16.48Zm11.2 3.83c-.47-.35-.86-.42-1.06-.4l-.01-.08a3.28 3.28 0 0 0-.07-.41c.37 0 .86.07 1.28.28.47.23.85.62.89 1.27a4.32 4.32 0 0 1-.45 2.25l-.02.04c-.04.09-.08.17-.1.25-.08.19-.14.36-.14.53 0 .3.02.57.16.77.14.21.4.32.8.32.42 0 .77-.23 1.03-.52.26-.28.43-.63.48-.89l.01-.02v-.02a.16.16 0 0 1 0-.1c0-.03.03-.06.13-.06.05 0 .08.01.1.03.02.02.03.05.04.1l.02.17v.22l-.03.13-.1.2c-.09.17-.22.36-.4.54-.35.36-.89.68-1.62.68-.36 0-.62-.08-.8-.2a.92.92 0 0 1-.35-.41c-.12-.28-.1-.56-.1-.66v-.08a3.99 3.99 0 0 1 .14-.59c.1-.34.24-.76.41-1.08.19-.35.3-.78.28-1.2a1.37 1.37 0 0 0-.52-1.06Zm-.31 3.98Zm2.93-.67.03-.12c.04-.09.14-.15.28-.15a.3.3 0 0 1 .2.08c.06.05.09.11.1.18.02.05.02.11.02.17.31.05.58 0 .75-.13.17-.14.3-.35.37-.61.16-.52.14-1.19.07-1.64v-.01l.07-1.47a5.93 5.93 0 0 1-1.45 1.86c-.12.1-.26.16-.39.21l-.02.02c-.13.05-.24.1-.34.17-.11.07-.2.16-.27.28-.06.12-.1.28-.1.5 0 .35.13.51.28.6.13.06.28.07.4.06Zm-11.97-2.51c.06-.14.12-.28.16-.42.08.45.2 1.12.4 1.8.14.52-.05 1.35-.58 2.05a3.06 3.06 0 0 1-2.49 1.27 3.32 3.32 0 0 1-2.94-1.9c.17.12.38.21.6.28h.01l-.02.02c.15.26.74.7 1.96.7.79 0 1.56-.48 2.1-1.2.56-.71.9-1.66.8-2.6Zm-.15.29a5.56 5.56 0 0 1-.87 1.2l.4.55c.3-.53.47-1.14.47-1.75Zm-1.87 2.09c.33-.24.62-.5.88-.76l.43.58a3.8 3.8 0 0 1-.75.86l-.56-.68Zm.43.78-.56-.69a7.07 7.07 0 0 1-.8.47l.39.67c.34-.07.67-.22.97-.45Zm-3.02-.01c.44.09.95.07 1.5-.15l.37.63h-.16c-.96 0-1.49-.28-1.71-.48Zm-.34-7.75c.06-.08.14-.17.25-.25.12-.1.26-.17.39-.17.16 0 .34.1.47.26.14.16.23.37.23.58 0 .2-.17.38-.4.48-.23.1-.5.08-.68-.1l-.03-.3a1.02 1.02 0 0 0-.17-.44.61.61 0 0 0-.06-.06Zm-.97.8c.01-.14.06-.34.16-.5.1-.16.25-.28.45-.28.13 0 .22.05.29.14.07.1.12.23.14.37.03.15.03.31.01.45a.87.87 0 0 1-.08.32.8.8 0 0 1-.33.33c-.12.06-.26.06-.42-.05a.57.57 0 0 1-.22-.38c-.03-.15-.02-.3 0-.4Zm1.6 0a.21.21 0 1 0 0-.43.21.21 0 0 0 0 .43Zm-.96.48a.21.21 0 1 0 0-.43.21.21 0 0 0 0 .43Z"/><path d="m29.14 26.97.62-2.3 4.2 1.71-.64 1.98-1.07.14c-.91-.17-2.45-1.09-3.1-1.53Z" fill="url(#hmerydzhr)"/><path d="m31.28 27.72-1.75-.94 1.97.76-.22.18ZM32.75 27.72 31 26.78l1.97.76-.22.18ZM31.96 27l-1.75-.94 1.97.75-.22.18ZM29.99 24.22l-.12.59 1.92.9c1.29.6 2.38.59 2.43.5.05-.06-.02-.17-.05-.22-1.3-.1-3.33-1.22-4.18-1.77Z"/><path d="M30.01 24.09c.07.3-.14.7-.26.86-.74-.24-2.9-1.57-3.89-2.2-.1-.45.23-.74.42-.84.8.81 2.82 1.8 3.73 2.18Z" fill="url(#imerydzhr)"/><defs><linearGradient id="amerydzhr" x1="18.44" y1="17.8" x2="17.3" y2="20.86" gradientUnits="userSpaceOnUse"><stop offset=".14" stop-color="#7A0317"/><stop offset="1" stop-color="#480B11"/></linearGradient><linearGradient id="bmerydzhr" x1="9.48" y1="34.5" x2="12.21" y2="34.5" gradientUnits="userSpaceOnUse"><stop offset=".43" stop-color="#C50208"/><stop offset="1" stop-color="#A00005"/></linearGradient><linearGradient id="cmerydzhr" x1="26.03" y1="30.83" x2="37.61" y2="30.83" gradientUnits="userSpaceOnUse"><stop stop-color="#996011"/><stop offset=".33" stop-color="#E7AD6A"/><stop offset=".63" stop-color="#E7AE69"/><stop offset="1" stop-color="#9B6214"/></linearGradient><linearGradient id="dmerydzhr" x1="31.83" y1="26.86" x2="31.83" y2="29.96" gradientUnits="userSpaceOnUse"><stop offset=".06" stop-color="#CC8938"/><stop offset="1" stop-color="#DBA867"/></linearGradient><linearGradient id="emerydzhr" x1="17.68" y1="15.11" x2="18.89" y2="16.75" gradientUnits="userSpaceOnUse"><stop offset=".04" stop-color="#3E0D13"/><stop offset=".48" stop-color="#830207"/><stop offset=".96" stop-color="#3E0D13"/></linearGradient><linearGradient id="fmerydzhr" x1="20.92" y1="15.9" x2="23.72" y2="15.15" gradientUnits="userSpaceOnUse"><stop offset=".1" stop-color="#870D1A"/><stop offset="1" stop-color="#2D0609"/></linearGradient><linearGradient id="gmerydzhr" x1="38.18" y1="23.23" x2="36.22" y2="22.78" gradientUnits="userSpaceOnUse"><stop offset=".41" stop-color="#490208"/><stop offset=".98" stop-color="#830109"/></linearGradient><linearGradient id="hmerydzhr" x1="30.22" y1="25.44" x2="32.85" y2="28.11" gradientUnits="userSpaceOnUse"><stop stop-color="#BDBCBA"/><stop offset="1" stop-color="#FAFFFF"/></linearGradient><linearGradient id="imerydzhr" x1="28.77" y1="23.59" x2="28.43" y2="24.21" gradientUnits="userSpaceOnUse"><stop stop-color="#58060C"/><stop offset="1" stop-color="#E6A237"/></linearGradient></defs></svg>