<!-- by TradingView --><svg width="56" height="56" viewBox="0 0 56 56" xmlns="http://www.w3.org/2000/svg"><path fill="#F0F3FA" d="M0 0h56v56H0z"/><path d="m11 41 4.44-8.13S19.94 28 27.34 28c7.41 0 13.28 5.85 13.28 5.85L45 40.98s-4 .02-9.9-4.57c-2.76-2.08-5.23-2.76-7.28-2.73-3 .04-5.23 1.92-6.16 2.81C19.72 38.35 11 41 11 41Z" fill="#004E90"/><path d="M37.19 37.87C42.55 41.4 45 41 45 41l-4.38-7.14S34.75 28 27.35 28c-2.29 0-4.3.46-5.98 1.1 1.9-.16 4.57-.06 6.77 1.2 2.08 1.2 5.9 4.61 9.05 7.57Z" fill="url(#auoqzaxhz)"/><path d="m28 9 12 23s-7.34-6.95-13.5-6.95c-6.15 0-7.5 1.56-7.5 1.56l3.14-6.58s3.95 0 5.86 1.2L24.42 16 28 9Z" fill="url(#buoqzaxhz)"/><path d="M24.42 16 33 24l-5-2.78L24.42 16Z" fill="url(#cuoqzaxhz)"/><defs><linearGradient id="auoqzaxhz" x1="22" y1="29" x2="45.5" y2="41.5" gradientUnits="userSpaceOnUse"><stop stop-color="#078AD1"/><stop offset=".83" stop-color="#004D8E"/></linearGradient><linearGradient id="buoqzaxhz" x1="21" y1="25" x2="37.5" y2="21.5" gradientUnits="userSpaceOnUse"><stop stop-color="#0260A4"/><stop offset="1" stop-color="#0783C9"/></linearGradient><linearGradient id="cuoqzaxhz" x1="24.5" y1="16" x2="32.5" y2="24" gradientUnits="userSpaceOnUse"><stop stop-color="#0781C7"/><stop offset=".76" stop-color="#0264A7"/></linearGradient></defs></svg>