<!-- by TradingView --><svg width="56" height="56" viewBox="0 0 56 56" xmlns="http://www.w3.org/2000/svg"><path fill="#F0F3FA" d="M0 0h56v56H0z"/><circle cx="28" cy="28" r="17" fill="#BBBEC0"/><path d="M28 12a15.99 15.99 0 1 1 0 32 15.99 15.99 0 1 1 0-32Z" fill="#F0F3FA"/><path d="M25.76 12.94c9.4 0 17.05 7.6 17.05 17.05 0 2.33-.47 4.62-1.31 6.66a16.03 16.03 0 0 1-29.5-8.7c0-6.26 3.28-11.32 8.5-13.95 1.59-.45 3.57-1.06 5.26-1.06Z" fill="url(#ajv1epxoc)"/><path d="M29.99 12.6C37.34 14.5 43 21.1 43 29.04c0 2.34-.3 4.96-1.15 7a16.43 16.43 0 0 1-5.47 5.64c-7.06-1.69-12.9-8.66-12.9-16.21 0-5.32 2.53-9.94 6.5-12.87Z" fill="url(#bjv1epxoc)"/><path d="M26.04 12.11c6.66 0 12.27 3.98 15.03 9.52a15.91 15.91 0 0 1-14.75 9.9 15.82 15.82 0 0 1-13.73-7.86A16.11 16.11 0 0 1 21 13.6c1.48-.69 3.38-1.49 5.05-1.49Z" fill="url(#cjv1epxoc)"/><path d="M41.06 21.5a16.03 16.03 0 0 1-16.43 9.95A16.02 16.02 0 0 1 30 12.6a17.04 17.04 0 0 1 11.06 8.92Z" fill="url(#djv1epxoc)"/><path d="M28 16h9.5l3.92 4.84L42.5 24 40 32v-7l-7 12 5-14-11 7 10-9-13 2 12-4-8-3Z" fill="#F0F3FA"/><defs><linearGradient id="ajv1epxoc" x1="13" y1="24" x2="36" y2="44" gradientUnits="userSpaceOnUse"><stop stop-color="#0095D9"/><stop offset="1" stop-color="#063072"/></linearGradient><linearGradient id="bjv1epxoc" x1="25" y1="27.06" x2="43" y2="35.56" gradientUnits="userSpaceOnUse"><stop stop-color="#00BAEF"/><stop offset="1" stop-color="#0BABEF"/></linearGradient><linearGradient id="cjv1epxoc" x1="31.57" y1="13.31" x2="13.28" y2="25.25" gradientUnits="userSpaceOnUse"><stop stop-color="#00C3EF"/><stop offset=".92" stop-color="#02A1E8"/></linearGradient><linearGradient id="djv1epxoc" x1="41" y1="21.5" x2="23" y2="24" gradientUnits="userSpaceOnUse"><stop stop-color="#D1E2EA"/><stop offset=".94" stop-color="#5DC6F3"/></linearGradient></defs></svg>