<!-- by TradingView --><svg width="56" height="56" viewBox="0 0 56 56" xmlns="http://www.w3.org/2000/svg"><path fill="#F0F3FA" d="M0 0h56v56H0z"/><path d="M9 38h38v3H9v-3ZM29.84 16h5.63l4.51 9.5-4.82 1.46L32.5 21l-3.92 6.96S26.48 29.85 22 30c-.05.05 7.84-14 7.84-14ZM41 29l3.38 7h-4.41s-.94 0-1.4-.93c-.47-.92-1.57-3.45-1.57-3.45L41 29Z" fill="#0A7251"/><path d="M48 14v3.5s-5.06 2.88-6.42 3.35c0 0-.36.16-.78.15-.41-.02-.89-.2-1.14-.9-.52-1.4-.66-1.73-.66-1.73s.56 0 1.5-.41C41.44 17.54 48 14 48 14Z" fill="#EA222C"/><path d="M48 19v4S28.54 36 19.23 36C9.9 36 8 30.23 8 27.29c0-2.94 3.88-10.42 14.8-12.27 1.34-.2 2.63 1.25 3.2 3.98-1 0-4.34.5-7.29 1.95C14.88 22.8 11 26 11 29.3c0 1.8 1.97 2.7 5.1 2.7 2.8 0 6.53-.73 10.63-2.14C32.58 27.8 39.77 23.7 48 19Z" fill="#169C9F"/></svg>