<!-- by TradingView --><svg width="56" height="56" viewBox="0 0 56 56" xmlns="http://www.w3.org/2000/svg"><path fill="#F0F3FA" d="M0 0h56v56H0z"/><path d="m32 24.66-8-3.16v12l8-3.12v-5.72ZM25 32v-9l6 2.19v4.69L25 32Z" fill="#B38B3F"/><path fill-rule="evenodd" d="M32 22V6l-8 3.51v9.25L20 17v19.32l-4 1.79V45h9v-3.79L31 39v6h9V28.1l-3.99 1.63-.01-6.05L32 22ZM31 8l-6 2.5v8.74l2 .76v-8l2-.58v9.4l2 .72V8ZM21 19l14 5.54v5.82L21 36V19Zm-4 25v-5l22-9v14h-7v-9.82l-1 .65V38l-6 2.15V37l-1 .67V44h-7Z" fill="#B38B3F"/></svg>