<!-- by TradingView --><svg width="56" height="56" viewBox="0 0 56 56" xmlns="http://www.w3.org/2000/svg"><path fill="#F0F3FA" d="M0 0h56v56H0z"/><path d="M28 15v1c-5.97.05-7.97 4.56-8 9.18-.01 1.59.27 3.18.62 4.6l-.9.22c-.37-1.5-.74-3.16-.72-4.82.06-5.09 2.47-10.16 9-10.18Z" fill="#26304E"/><path d="M32.82 16.16c.12.11.19.47.18.72-.01.35-.2.9-.47 1.79.58.68 2.84 3 4.33 4.46.12.12.14.42.14.42 0 .95-1.08 1.86-2.65 2.42a.48.48 0 0 1-.41-.04l-2.77-1.43c-.3.14-.9.49-1.52.5-1.5.03-2.65-1.54-2.65-3.05 0-.4.1-.58.36-.95l.85.31c-.16.23-.22.48-.21.72.06.97.74 1.94 1.61 1.97.58.02 1.01-.42 1.56-.44.1 0 .18.02.27.07L34.18 25c.76-.35 1.51-.68 1.82-1.45 0 0-3.96-4-4.37-4.48a.46.46 0 0 1-.08-.43c.2-.67.4-1.13.45-1.44-1.17.51-2.23.68-3.47.8-4.36.1-6.65 3.13-6.58 7.36.04 2.5.6 4.99 1.53 7.3l-.88.34a21.63 21.63 0 0 1-1.6-7.62c-.08-4.88 2.94-8.42 7.53-8.38a9.62 9.62 0 0 0 3.7-.94.5.5 0 0 1 .6.1Z" fill="#26304E"/><path d="M36 33.65c0 1.61-1.44 3.35-2.61 3.35H23v-1h10.26c.78-.52 1.74-1.41 1.74-2.35 0-2.36-5.95-4.87-6-8.45 0-.28.03-.57.12-.87l.88.25c-.07.2-.06.47-.06.68C29.92 28.12 36 30 36 33.66ZM35 40H21v-1h14v1Z" fill="#26304E"/><path d="M22.38 26h-4.91a.47.47 0 0 0-.47.47V37h-3.53a.47.47 0 0 0-.47.48v5.06c0 .25.21.46.47.46h19.48C37.84 42.82 43 39.98 43 34.5c0-4.42-3.85-8.42-8.23-8.5h-4.9v1h4.82c4.02 0 7.31 3.5 7.31 7.5 0 4.97-4.7 7.32-9.07 7.5H14v-4h3.28c.26 0 .72-.27.72-.53V27h4.38v-1Z" fill="#26304E"/><path d="M13.47 13c-.26 0-.47.2-.47.44v4.09c0 .12.05.23.13.31.1.09.21.14.34.14L17 18v8.56c0 .24.2.44.47.44h4.9v-1H18v-8.56c0-.24-.2-.44-.47-.44H14v-3h18.3c3.68.13 8.7 1.64 8.7 6.09 0 3.74-4.1 5.91-6.94 5.91h-4.19v1h4.2c3.82-.08 7.93-2.77 7.93-6.91 0-4.96-5.5-6.97-9.68-7.09H13.47Z" fill="#26304E"/></svg>