<!-- by TradingView --><svg width="56" height="56" viewBox="0 0 56 56" xmlns="http://www.w3.org/2000/svg"><path fill="#181B1E" d="M0 0h56v56H0z"/><path d="M41 25.93V37H29.92c-2.3-2.3-3.6-3.7-5.92-6l4.5-4.48L35 33v-3l-5-5 5-5 6 5.93Z" fill="#6F6F6F"/><path d="M30 12h11v11a1300.8 1300.8 0 0 0-11-11Z" fill="#F9883C"/><path d="M18 12h9.3l6.2 6.5-5 5L18 12Z" fill="#A7A5A6"/><path d="M27 37h-9l4.46-4.5L27 37ZM27 25l-5 5-1-1.03V31l-6 6V12l12 13ZM15 44v-5h1l3 3.5V39h1v5h-1l-3-3.5.02 3.5H15ZM21 44l2-5h1l2 5h-1l-1.5-3.5L22 44h-1Z" fill="#F0F3FA"/><path d="M22 43h3v-1h-3v1ZM28 39h-1v5h3v-1h-2v-1h2v-1h-2v-1h2v-1h-2ZM32 39h-1v5h3v-1h-2v-1h2v-1h-2v-1h2v-1h-2ZM35 44v-5h1.5l1.5 3.5 1.5-3.5H41v5h-1v-3.5L38.5 44h-1L36 40.5V44h-1Z" fill="#F0F3FA"/></svg>