<!-- by TradingView --><svg width="56" height="56" viewBox="0 0 56 56" xmlns="http://www.w3.org/2000/svg"><path fill="#F0F3FA" d="M0 0h56v56H0z"/><path fill-rule="evenodd" d="M12 22v19h25.05v-9.5H44V14H22v8H12Zm11 9V14.5h20V31H23Zm-1-6h-3v8h9v-1.5h-6V25Zm-6 4h2v5h6v1h-8v-6Zm-2 8v-5h1.5v4h4.94v1H14Z" fill="url(#axos2ueua)"/><path d="M31.07 16.24c-.19.21-.56.75-.56 1.17 0 .54.9.6.9.6v.4c.13-.07.44-.23.61-.4.08-.08.19-.1.29-.12.17-.02.34-.05.34-.4 0-.45-.2-.65-.3-.69-.09.23-.34.69-.68.69-.44 0-.6-.74-.6-1.25Zm-6.17.12c-.1.28-.29.92-.29 1.25 0 .34.5.4.75.39a.8.8 0 0 0 .78.53c.5 0 .84-.36.94-.53h2.45c.2 0 .6-.06.6-.49 0-.42-.53-.73-.8-.84v.67h-1.09l-.2-.32-.32.32h-1.04c-.05.19-.22.56-.54.56-.32 0-.36-.37-.34-.56h-.9v-.98Zm8 2.05v-.82c.03-.13.2-.39.59-.39.37 0 .5-.19.51-.29v.58h1.44v-.95l.69.7a.53.53 0 0 0-.34.5c.01.06-.08.26-.54.26h-1.92c-.15.02-.44.07-.44.41ZM34 16.9v.01-.01Zm3-.48v1.32c.03.09.2.26.64.26h.42c.2-.03.56-.14.33-.36a2.8 2.8 0 0 1-.48-.88v.72c-.16.12-.48.22-.48-.3 0-.53-.29-.73-.43-.76Zm2.18 1.03c-.3 0-.57.68-.67 1.03.46-.41.76-.5.86-.48H41v-1h-.5v.45H40V17h-.51v.45h-.3Zm-12.21 2.89c-.06-.01-.46.66.47.66h4.03c.15-.52.24-1.55-.53-1.55-.48 0-.6.2-.71.4-.11.2-.23.4-.7.4-.77 0-1.47-.57-1.73-.85.16.34.22 1.01-.83.94Zm5.03.42V20h.39v.76c0 .3-.46.47-.69.52l.3-.52Zm1.47.52a.91.91 0 0 0 .53-.87v-.7h.6v.7h.38l.54-.94h.25c-.07.16-.03.46.67.53h-.84c-.05.1-.14.35-.08.4h2.04c.26-.03.7-.14.36-.28-.34-.13-.32-.49-.26-.65h.5c.09.18.34.57.6.74.2.12.22.41.23.63L39 21h-4.74c-.13.1-.47.28-.8.28ZM25.6 28.06c.02.04.03.08.03.14 0 .06-.01.12-.05.17a.32.32 0 0 1-.15.12.63.63 0 0 1-.25.05 1 1 0 0 1-.24-.03.5.5 0 0 1-.18-.08.39.39 0 0 1-.12-.15.94.94 0 0 1-.04-.3H24c0 .17.03.37.1.5.07.11.16.21.27.29.12.08.24.14.38.17a1.63 1.63 0 0 0 .86 0 1 1 0 0 0 .33-.15.7.7 0 0 0 .29-.6.75.75 0 0 0-.25-.58 1.29 1.29 0 0 0-.3-.2 2.64 2.64 0 0 0-.41-.16 2.62 2.62 0 0 1-.43-.19.4.4 0 0 1-.12-.11.26.26 0 0 1-.03-.14c0-.06.01-.12.05-.17.03-.06.09-.1.15-.13a.61.61 0 0 1 .26-.05c.11 0 .2.02.27.06.07.04.13.09.16.15.04.07.05.23.05.31h.6c0-.17-.05-.41-.14-.54a.9.9 0 0 0-.37-.32 1.52 1.52 0 0 0-1-.06c-.12.04-.23.1-.33.16a.76.76 0 0 0-.22.26c-.05.1-.08.21-.08.33a.7.7 0 0 0 .29.58c.09.07.2.14.3.19l.38.14.3.11.16.1c.05.04.07.08.09.13ZM30 29v-.48h-1.39v-.83h1.18v-.47h-1.18v-.74H30V26H28v2.41a.5.5 0 0 0-.5-.41.5.5 0 0 0-.5.5.5.5 0 0 0 1 .09V29h2Zm3.87-1h.63a1.02 1.02 0 0 1-.6.87c-.17.09-.39.13-.64.13-.2 0-.37-.03-.52-.1a1.12 1.12 0 0 1-.65-.72 1.83 1.83 0 0 1-.09-.58v-.2c0-.21.03-.4.09-.58a1.14 1.14 0 0 1 .66-.72c.15-.07.33-.1.52-.1.25 0 .47.04.64.13a1.09 1.09 0 0 1 .59.87h-.63c0-.12-.03-.2-.07-.27a.4.4 0 0 0-.2-.19.75.75 0 0 0-.33-.06c-.1 0-.2.02-.28.05a.5.5 0 0 0-.2.17.82.82 0 0 0-.12.3 1.9 1.9 0 0 0-.03.4v.2c0 .15 0 .29.03.4.03.12.06.21.11.3a.5.5 0 0 0 .2.17c.08.04.17.06.28.06.14 0 .24-.03.33-.07.09-.04.15-.1.2-.17a.64.64 0 0 0 .08-.29ZM41 26v3h-.67v-3H41Zm-4 .48v.72h1.17v.46H37V29h-.63v-3h2v.48H37ZM31.5 29a.5.5 0 1 0 0-1 .5.5 0 0 0 0 1Zm4.5-.5a.5.5 0 1 1-1 0 .5.5 0 0 1 1 0Zm3.5.5a.5.5 0 1 0 0-1 .5.5 0 0 0 0 1Z" fill="#B21816"/><defs><linearGradient id="axos2ueua" x1="28" y1="14" x2="28" y2="41" gradientUnits="userSpaceOnUse"><stop stop-color="#4996B4"/><stop offset=".49" stop-color="#0A3DB2"/><stop offset=".76" stop-color="#55B2DD"/><stop offset="1" stop-color="#0A3CB2"/></linearGradient></defs></svg>