<!-- by TradingView --><svg width="56" height="56" viewBox="0 0 56 56" xmlns="http://www.w3.org/2000/svg"><path fill="#F0F3FA" d="M0 0h56v56H0z"/><path fill-rule="evenodd" d="M43 13H13v30h30V13Zm-3 3H16v24h24V16Z" fill="#002650"/><path fill-rule="evenodd" d="M39 17H17v22h22V17Zm-3 3H20v16h16V20Z" fill="#001E61"/><path fill-rule="evenodd" d="M35 21H21v14h14V21Zm-3 3h-8v8h8v-8Z" fill="#013B85"/><path d="M25 25h6v6h-6v-6Z" fill="#0065AB"/><path d="M43 43H28V28h15v15Z" fill="#0C3A25"/><path d="M40 40h-9v-9h9v9Z" fill="#F0F3FA"/></svg>