<!-- by TradingView --><svg width="56" height="56" viewBox="0 0 56 56" xmlns="http://www.w3.org/2000/svg"><path fill="#F0F3FA" d="M0 0h56v56H0z"/><path fill-rule="evenodd" d="M34.8 22c-.17-.39-1.27-.53-1.8-.55 0-.78.31-1 .59-1.1.13-.05.23-.06.35-.06.12 0 .28-.01.56-.08.28-.06.46-.05.63-.05.15.01.28.02.46-.03l.59-.13.11 1.02c.08.14.28.64.47 1.46.23 1.03.97 1.08 1.18.97.08-.04.26-.22.49-.44.44-.43 1.03-1 1.27-1 .13 0 .37-.26.68-.59.55-.57 1.3-1.35 2.01-1.35.9 0 2.5 1.39 3.18 2.08.72.66 2.19 2.1 2.3 2.58.08.4-.15.83-.35 1.2-.1.2-.2.38-.23.53a5.66 5.66 0 0 0 .34 2.08c.13.33.3.8.36 1.11.06.28-.18.73-.4 1.14-.12.23-.24.45-.3.63-.14.4-.13 1.21-.1 1.57h-1.24c.01-.12.1-.4.37-.57.22-.14.38-.7.52-1.22.08-.27.15-.54.23-.73.23-.56-.55-2-.63-1.38-.09.62-.87 2.33-1.04 2.71-.14.3-.23.92-.26 1.19h-1.1c0-.18.21-.3.43-.4l.11-.05c.24-.12.98-2.28 1-2.69 0-.28-.1-.51-.23-.86a205.73 205.73 0 0 0-1.24-3.25c-1.8 1.28-3.36 1.23-3.92 1.05.03.66.05 2.1-.08 2.57-.16.57.01 2.24.08 2.6.06.27.08.8.08 1.03h-1.16c0-.07.03-.26.23-.45.17-.16.17-.25.17-.55 0-.14 0-.32.03-.57.04-.64-.12-2.44-.2-3.26-.12.69-.39 2.28-.5 3.15-.13.86-.16 1.48-.16 1.68H37.85c-.18.02-.21.02-.21-.22 0-.13.07-.2.17-.29.13-.12.3-.28.4-.68.18-.7.37-3.97.37-5.25 0-.8-.52-.82-1.15-.83-.37 0-.78 0-1.14-.18-.73-.34-1.08-1.87-1.3-2.83a5.45 5.45 0 0 0-.2-.7Zm12.52 2.35c.09.24.21.8 0 1.1-.21.3-.09-.61 0-1.1ZM8 30v-6h2.04c1.17 1.5 3.46 4.51 3.46 4.51V24H15v6h-1.93L9.5 25.61V30H8Zm8.5-6v6h5.48c.61 0 1.78-.59 1.78-1.62 0-.83-.7-1.2-1.04-1.28a1.68 1.68 0 0 0 1.04-1.37c0-1.36-1.18-1.72-1.78-1.73H16.5Zm4.75 1H18v1.5h3.25a.75.75 0 0 0 0-1.5Zm0 2.5H18V29h3.25a.75.75 0 0 0 0-1.5ZM27 24h-1.5v6H27v-2.91L30.68 30h1.82l-3.42-2.97L32.5 24h-1.82L27 26.98V24Z" fill="#004B8D"/><path d="M47.52 33C24.61 33 10.96 36.33 7 38c11.12-2.97 32.63-3.78 42-3.8L47.52 33Z" fill="#E03036"/></svg>