<!-- by TradingView --><svg width="56" height="56" viewBox="0 0 56 56" xmlns="http://www.w3.org/2000/svg"><path fill="#F0F3FA" d="M0 0h56v56H0z"/><path d="M18.63 22.65c-1.27-4.61 1.46-8.35 2.98-9.65h19.78c.89 0 1.61.73 1.61 1.63V43h-5.11s2.72-4.7 2.72-7.17c0-2.47-1.21-5.43-1.21-8.35 0-2.91-3.23-11.15-11.2-11.15-6.37 0-9.03 4.22-9.57 6.32Z" fill="url(#ays0f5cdm)"/><path d="m37.89 43 .23-.38c.66-1.1 2.5-4.76 2.5-6.79 0-1.18-.29-2.48-.58-3.83-.31-1.47-.64-3-.64-4.52 0-2.91-3.23-11.15-11.2-11.15-5.74 0-8.47 3.42-9.35 5.64-.1.25-.17.47-.22.68a9.32 9.32 0 0 1-.17-.71c-.82-4.29 1.7-7.71 3.15-8.94h19.78c.89 0 1.61.73 1.61 1.63V43h-5.11Zm.67-.38h4.06V14.63c0-.69-.55-1.25-1.23-1.25H21.75a9.57 9.57 0 0 0-3 7.91c1.12-2.3 3.98-5.34 9.45-5.34 4.13 0 7.03 2.14 8.89 4.63 1.84 2.48 2.68 5.35 2.68 6.9a20.55 20.55 0 0 0 .64 4.46c.3 1.33.58 2.67.58 3.9 0 .67-.19 1.45-.45 2.22-.26.77-.6 1.56-.95 2.26-.35.7-.7 1.72-.95 2.17l-.08.13Z" fill="url(#bys0f5cdm)"/><path d="M14.07 13H19c-1.08 1.16-3.25 4.15-3.25 6.94s.97 5.2 1.45 6.06c0 8.25 4.19 13.3 10.86 13.3 5.34 0 8.88-4.02 9.98-6.03 1.1 5.25-1.91 8.68-3.55 9.73h-20.4c-.6 0-1.08-.49-1.08-1.09V14.1c0-.6.48-1.08 1.07-1.08Z" fill="url(#cys0f5cdm)"/><path fill-rule="evenodd" d="M18.16 13.39h-4.09a.7.7 0 0 0-.7.7v27.82c0 .4.32.7.7.7h20.3a8.89 8.89 0 0 0 3.45-8.3c-1.53 2.18-4.93 5.37-9.77 5.37-3.44 0-6.26-1.3-8.22-3.7-1.94-2.35-3-5.74-3.02-9.88a14.16 14.16 0 0 1-1.45-6.16c0-1.49.58-3 1.27-4.27.49-.9 1.05-1.68 1.53-2.28ZM14.07 13c-.59 0-1.07.48-1.07 1.08v27.82c0 .6.48 1.09 1.07 1.09h20.4a9.28 9.28 0 0 0 3.56-9.73l-.29.48c-1.36 2.1-4.76 5.54-9.7 5.54-6.66 0-10.85-5.04-10.85-13.29a13.66 13.66 0 0 1-1.45-6.06c0-2.52 1.77-5.21 2.91-6.55.12-.15.24-.27.34-.38h-4.92Z" fill="#041542"/><path d="M38 28a10 10 0 1 1-20 0 10 10 0 0 1 20 0Z" fill="#3F82C3"/><path fill-rule="evenodd" d="M28 37.72a9.72 9.72 0 1 0 0-19.44 9.72 9.72 0 0 0 0 19.44Zm0 .28a10 10 0 1 0 0-20 10 10 0 0 0 0 20Z" fill="#08163E"/><path d="M35.57 28a7.57 7.57 0 1 1-15.14 0 7.57 7.57 0 0 1 15.14 0Z" fill="#7499CE"/><path d="M32.78 28a4.78 4.78 0 1 1-9.56 0 4.78 4.78 0 0 1 9.56 0Z" fill="#A8BBDD"/><path d="M30.75 28a2.75 2.75 0 1 1-5.5 0 2.75 2.75 0 0 1 5.5 0Z" fill="#C0CDE6"/><path d="m23.7 23.95.22.08c.15.05.3.2.42.34.29.29.53.54.8-.17.12-.3.2-.58.27-.8.15-.53.23-.77.47-.52.19.19.2.32.21.5.02.13.03.3.16.54.14.23-.02.33-.24.47-.25.15-.57.36-.63.88-.07.62.25 1.3.52 1.9.16.35.3.66.35.91.13.69 1.23 1.55 1.33 1.6.11.04 1.14-.2 1.58-.51.43-.31.39-1.2 0-1.58-.11-.1-.25-.2-.38-.3-.36-.28-.7-.54-.45-.74.35-.26.26-.84.13-1.13-.04-.09-.14-.24-.25-.43-.27-.42-.63-1-.63-1.27 0-.4.1-1.02.42-.84.33.17.72 1.4.72 2.08 0 .68.22 1.48.33 1.6l.04.03c.16.18.63.7 1.46.78.92.1 1.73.29 1.75.71.02.42.1 1.6.37 1.7.26.12.79.1.9-.46.1-.55.48-1.84.8-2.3.33-.47.79.09 1.07.57.29.5.83 1 1.05 1 .22 0 .3-1.55.22-2.04-.03-.14-.02-.28-.02-.44.01-.35.02-.77-.33-1.53l-.32-.7c-.24-.55-.35-.8-.6-1.14-.32-.46-3.3-3.43-5.06-3.43-1.12 0-1.93.53-2.5.91-.33.22-.58.39-.78.37-.23-.02-.4-.21-.56-.4-.2-.24-.38-.45-.66-.3-.3.15-.33.43-.36.69-.03.17-.04.33-.14.43-.07.08-.11.15-.16.23-.12.2-.25.44-.82.66-.35.14-.63.2-.87.25-.3.06-.54.11-.75.28-.18.15-.5.2-.76.25-.26.05-.45.08-.33.2.47.53 1.44.87 2 1.07Zm-4.37 4.37c.37-1.16 1.24-3.47 1.84-3.36.37.06.68.39 1.02.72.33.34.68.7 1.12.83.43.13.78.08 1.04.04s.43-.07.48.14c.04.12.05.29.06.48.03.45.07 1.01.4 1.35.3.3.98 1.08 1.51 1.7l.7.78c.12.13.07.29-.02.55a4.2 4.2 0 0 0-.16.52c-.05.25-.22.63-.38 1.02-.23.52-.46 1.05-.43 1.28.07.4-.45 1.29-.93 1.57l-.1.06c-.43.26-.75.46-1.3.21-.59-.27-2.82-4.2-2.82-4.43 0-.12-.23-.46-.5-.86-.25-.36-.53-.78-.72-1.13-.15-.3-.37-.5-.56-.66-.28-.26-.49-.44-.25-.8Z" fill="url(#dys0f5cdm)"/><path d="M30.38 19.46c-1.07 0-1.84.5-2.42.89l-.45.28a.79.79 0 0 1-.42.11.71.71 0 0 1-.4-.17c-.1-.09-.18-.2-.26-.28a1.3 1.3 0 0 0-.27-.27.2.2 0 0 0-.1-.03c-.02 0-.06 0-.1.03-.23.12-.26.31-.3.58 0 .08-.02.17-.04.26a.6.6 0 0 1-.13.26c-.05.05-.09.12-.14.2-.06.1-.13.23-.27.35-.14.13-.33.25-.63.37-.36.14-.65.2-.9.25-.3.07-.5.11-.67.26-.12.1-.27.15-.41.2l-.42.08-.17.03c.22.21.52.4.84.55.37.17.74.3 1.02.4l.23.08c.1.03.19.1.27.16l.2.2.01.01c.07.08.13.14.2.19.05.04.09.06.11.06 0 0 .03 0 .07-.04.05-.05.1-.15.17-.32.11-.3.2-.57.26-.8l.11-.34c.03-.1.07-.19.12-.25.05-.07.13-.14.25-.13.1 0 .18.07.25.14.1.1.17.2.2.31.04.1.05.2.05.27.02.15.03.29.14.5.04.07.07.14.07.22 0 .08-.02.15-.06.2a.6.6 0 0 1-.14.14l-.16.1c-.24.16-.51.33-.56.77-.03.28.02.59.12.9.1.32.25.63.39.93v.02c.16.33.3.65.36.92.03.15.1.3.22.48a3.69 3.69 0 0 0 .82.86 3.1 3.1 0 0 0 .21.14c.04 0 .08 0 .14-.02a4.35 4.35 0 0 0 1.28-.47c.16-.11.25-.35.25-.63s-.1-.56-.27-.7c-.1-.1-.23-.2-.37-.3v-.02a2.83 2.83 0 0 1-.48-.41.47.47 0 0 1-.11-.26c0-.12.05-.22.15-.29.12-.1.18-.25.18-.44s-.04-.38-.1-.5a5.17 5.17 0 0 0-.24-.42c-.13-.21-.3-.46-.42-.7a3.12 3.12 0 0 1-.16-.34.92.92 0 0 1-.07-.31c0-.2.03-.48.1-.69.03-.1.09-.2.18-.28a.3.3 0 0 1 .17-.06c.07 0 .13.02.19.05a.9.9 0 0 1 .31.37 4.4 4.4 0 0 1 .49 1.85 4.61 4.61 0 0 0 .27 1.45l.01.04.05.04c.15.18.6.66 1.37.73.46.05.9.12 1.24.24.17.06.32.13.43.23.12.1.2.23.2.38a9.76 9.76 0 0 0 .2 1.41l.07.14.02.03c.1.04.26.06.4.01.12-.04.24-.14.29-.37.05-.28.18-.75.33-1.2.14-.45.32-.9.5-1.16.1-.14.23-.23.38-.24a.6.6 0 0 1 .38.14c.22.16.42.44.56.69a3.08 3.08 0 0 0 .79.86l.09.05a5.62 5.62 0 0 0 .12-1.85c-.04-.16-.03-.32-.03-.46v-.02c0-.33.02-.73-.32-1.46l-.32-.7a5.81 5.81 0 0 0-.58-1.11 17.69 17.69 0 0 0-1.96-1.86c-.5-.4-1.04-.78-1.56-1.06a3.21 3.21 0 0 0-1.42-.45Zm-2.58.63c.58-.38 1.41-.93 2.58-.93.48 0 1.02.2 1.56.49s1.1.68 1.6 1.08a17.94 17.94 0 0 1 2.03 1.93c.25.35.36.61.6 1.15l.33.7c.36.8.35 1.24.34 1.6 0 .16 0 .29.02.42a5.85 5.85 0 0 1-.16 2.06.33.33 0 0 1-.07.1.2.2 0 0 1-.14.05.6.6 0 0 1-.3-.11 3.37 3.37 0 0 1-.88-.96 2.1 2.1 0 0 0-.47-.6c-.09-.06-.15-.08-.2-.08-.03 0-.08.02-.14.11-.15.22-.32.63-.47 1.08-.15.45-.26.9-.32 1.17a.74.74 0 0 1-.49.6.9.9 0 0 1-.6-.03.36.36 0 0 1-.17-.14.96.96 0 0 1-.09-.2 3.16 3.16 0 0 1-.11-.5c-.06-.37-.09-.78-.1-1 0-.04-.03-.1-.1-.16a1.1 1.1 0 0 0-.34-.18c-.3-.1-.72-.17-1.17-.22-.9-.08-1.4-.64-1.56-.82a1.57 1.57 0 0 0-.04-.04.43.43 0 0 1-.07-.11 3.44 3.44 0 0 1-.15-.46.8.8 0 0 1-.3.58.1.1 0 0 0-.03.03c0 .01 0 .04.05.1.08.1.24.22.43.36.13.1.28.22.39.33.23.22.35.58.36.91 0 .33-.1.7-.38.89a4.65 4.65 0 0 1-1.57.54h-.06c-.02 0-.05 0-.08-.02a5.6 5.6 0 0 1-1.15-1.12 1.62 1.62 0 0 1-.27-.58 4.4 4.4 0 0 0-.34-.87c-.14-.3-.3-.63-.4-.97-.1-.33-.18-.68-.14-1.02.07-.6.45-.83.7-.99a2.22 2.22 0 0 0 .21-.16l.01-.03s0-.04-.03-.08a1.34 1.34 0 0 1-.18-.6.78.78 0 0 0-.03-.2.54.54 0 0 0-.18-.25 7.85 7.85 0 0 0-.18.5c-.07.23-.15.5-.27.82-.07.18-.14.32-.23.41-.09.1-.2.15-.32.14a.53.53 0 0 1-.28-.13 2.47 2.47 0 0 1-.21-.2v-.01a2.91 2.91 0 0 0-.2-.19.61.61 0 0 0-.18-.11l-.21-.08c-.29-.1-.67-.23-1.05-.41a3.2 3.2 0 0 1-1.02-.7c-.04-.04-.1-.11-.07-.21.02-.1.1-.14.14-.16l.16-.04.19-.04c.13-.02.26-.04.39-.08a.82.82 0 0 0 .3-.13c.23-.2.5-.26.79-.32h.02c.23-.05.5-.1.84-.24.28-.1.43-.21.54-.3.1-.1.15-.2.21-.3.05-.08.1-.16.18-.25a.3.3 0 0 0 .06-.13l.04-.22v-.01c.03-.25.07-.6.44-.8a.51.51 0 0 1 .27-.06.5.5 0 0 1 .24.08c.12.07.23.2.32.3l.01.02c.08.1.16.18.24.25.08.06.15.1.23.1.05 0 .13-.01.25-.08.12-.06.26-.15.43-.26Zm.79 5.26a4.08 4.08 0 0 1-.02-.4 4.11 4.11 0 0 0-.45-1.7c-.08-.15-.15-.22-.2-.24l-.03-.02c-.02.02-.05.06-.08.14a2 2 0 0 0-.08.59l.05.2.15.31c.12.23.27.47.4.68l.01.02.25.42Zm-7.74-.45c.1-.07.22-.11.34-.09.22.04.42.15.6.3.17.13.34.3.5.46.34.35.67.67 1.06.8.4.12.72.07.97.03h.02c.12-.02.25-.04.35-.02.07 0 .13.03.18.08.06.05.09.12.1.19.05.13.06.31.07.5.01.23.03.48.08.7.05.23.14.43.28.57.3.3.98 1.08 1.5 1.7h.01l.7.78c.1.1.12.22.1.34 0 .1-.04.23-.09.34v.02l-.15.5c-.06.27-.23.66-.4 1.03v.02a13.08 13.08 0 0 0-.4 1.03.5.5 0 0 0 0 .17c.01.13-.01.29-.06.44-.06.16-.14.33-.23.49a2.38 2.38 0 0 1-.82.85h-.01c-.21.13-.41.26-.64.31-.24.06-.5.04-.8-.1a.69.69 0 0 1-.16-.1 6.79 6.79 0 0 1-.58-.7 36.34 36.34 0 0 1-2.12-3.6.85.85 0 0 1-.02-.09.26.26 0 0 1-.02-.07l-.02-.06-.1-.18-.36-.54c-.25-.36-.53-.78-.72-1.14a2.19 2.19 0 0 0-.53-.62l-.01-.01c-.13-.12-.28-.25-.35-.4a.5.5 0 0 1-.04-.28c.02-.1.05-.2.12-.29.18-.59.49-1.45.83-2.16.17-.36.35-.69.53-.92.1-.11.19-.21.29-.28Zm-.55 1.33c-.34.7-.64 1.56-.82 2.14l-.01.02-.01.02a.45.45 0 0 0-.08.18c0 .04 0 .08.02.11.04.1.13.18.28.32.2.16.43.38.6.7.17.34.45.75.7 1.11l.36.55.12.2a.5.5 0 0 1 .05.19l.02.04.06.15.26.5a35.97 35.97 0 0 0 1.76 2.89 6.48 6.48 0 0 0 .54.66c.04.04.07.06.09.06.25.12.43.12.6.08.17-.04.34-.14.56-.28l.1-.05c.2-.13.44-.4.62-.7.09-.14.16-.3.2-.42a.7.7 0 0 0 .05-.3.77.77 0 0 1 .02-.28 13.34 13.34 0 0 1 .41-1.09c.17-.4.32-.76.38-1 .04-.22.1-.4.16-.53l.08-.29c0-.05 0-.07-.03-.1l-.69-.78-.01-.02c-.54-.6-1.22-1.39-1.5-1.68-.2-.2-.3-.46-.36-.71-.06-.25-.07-.52-.09-.74a2.62 2.62 0 0 0-.07-.5h-.03c-.05-.01-.13 0-.27.02-.27.04-.64.1-1.1-.05a2.98 2.98 0 0 1-1.18-.85l-.01-.01a5.32 5.32 0 0 0-.48-.45c-.16-.13-.3-.2-.46-.23-.02 0-.06 0-.12.04-.07.04-.14.11-.22.22-.16.2-.33.5-.5.86Zm1.21 5.53Z"/><defs><linearGradient id="ays0f5cdm" x1="18.3" y1="21.36" x2="43.88" y2="21.36" gradientUnits="userSpaceOnUse"><stop stop-color="#080506"/><stop offset="1" stop-color="#A6A8AB"/></linearGradient><linearGradient id="bys0f5cdm" x1="17.39" y1="19.82" x2="47.92" y2="20.69" gradientUnits="userSpaceOnUse"><stop/><stop offset="1" stop-opacity="0"/></linearGradient><linearGradient id="cys0f5cdm" x1="37.64" y1="35.39" x2="13.63" y2="35.39" gradientUnits="userSpaceOnUse"><stop stop-color="#06072A"/><stop offset="1" stop-color="#115D9E"/></linearGradient><linearGradient id="dys0f5cdm" x1="21.43" y1="31.33" x2="33.84" y2="21.85" gradientUnits="userSpaceOnUse"><stop stop-color="#A0E393"/><stop offset=".47" stop-color="#FDFFFE"/><stop offset="1" stop-color="#94D78D"/></linearGradient></defs></svg>