<!-- by TradingView --><svg width="56" height="56" viewBox="0 0 56 56" xmlns="http://www.w3.org/2000/svg"><path fill="#F0F3FA" d="M0 0h56v56H0z"/><path fill-rule="evenodd" d="m23.16 19.47 2.34 1.24v2.48l1-.53v-2.4l-2.38-1.71-.96.92Zm4.59 3.03H27v-2.46l-2.17-1.54h2.92v4Zm1.5.5h-2.33l-5.42 2.89v2.73l1.92 1.1v3.19L22 34.55v5.12l1 .57v-4.97l4-3.79V28h-3l.62.5h.87v.5h-1.22l-1.77-1.5h5v4.18l-1.25 1.19L28 34.72l1.75-1.86-1.24-1.18V27.5h5L31.73 29h-1.22v-.5h.86L32 28h-3v3.48l4 3.79v4.97l1-.57v-4.88l-1.5-1.88v-3.2l2-1.12v-2.7L29.26 23Zm-1.58 12.07-.75-.8L25 36.34v7.48l1 .56v-7.53l1.67-1.77Zm-1.07-1.14-.7-.74-2.4 2.27v6.09l1 .59v-6l2.1-2.2Zm1.4 1.5 1.5 1.6v7.6l-1.25.67V37h-.5v8.36l-1.25-.7v-7.63l1.5-1.6Zm2 8.92v-7.51l-1.67-1.77.72-.78L31 36.33v7.47l-1 .55Zm-.63-10.4.72-.77 2.41 2.28v6.09l-1 .59v-6l-2.13-2.19Zm2.13 10.14v-1.46l.02.04 1.48-.83v-1.06l2.5-1.4v-.54l1.5-.97V27.74l2.26-1.27.7-3.66L42 21.64l.55-3.46 1.92-1.1L45 13l-11.7 6.23L32.1 18h-8.13l-1.25 1.24L11 13l.52 4.07 1.92 1.1.55 3.47 2.05 1.17.7 3.66L19 27.74v10.13l1.5.9v.61l2.5 1.38v1.08l1.49.83.01-.02v1.49L27.95 46l3.55-1.91Zm3-8.67v3.96l.5-.28v-3.05l-.5-.63Zm2.6-10.96 2.32-1.34-.28 1.45L35 26.6v-.98l-1.49-.83 8.26-4.62-.19 1.18-4.72 2.7.23.42ZM35 27.13l4.03-1.98-.2 1.01L35 28.31v-1.18Zm-2 2.86 1.5-.85v2.77l2 2.5v3.2l-1 .66v-2.4L33 32.74v-2.75Zm3.5-1.97-1.5.84v2.87l1.5 1.91v-5.62Zm5.54-9.55-.18 1.1-8.83 4.95L31 23.4v-.91l13.2-6.86-.14 1.15-6.96 3.99.22.41 4.72-2.7Zm2.4-4.64-.16 1.23L31 21.96V21l13.43-7.17ZM30.5 23.12v-2.4l2.36-1.26-.96-.96-2.4 1.77v2.3l1 .55ZM29 22.5h-.75v-4h2.88L29 20.04v2.46Zm-8 13.2.5-.57v4.25l-.5-.28v-3.4Zm4-13.25v1.01l-2.01 1.08-8.85-4.97-.18-1.1 4.73 2.71.22-.41-6.97-4-.14-1.14L25 22.45Zm-10.77-2.29 8.27 4.64-1.5.8v1.04l-4.14-2.07-.28-1.45 2.33 1.34.23-.41-4.72-2.7-.19-1.19Zm2.74 4.99L21 27.13v1.2l-1.5-.84-2.34-1.33-.2-1.01Zm2.53 2.88 1.5.85v2.85l-1.5 1.9v-5.6Zm0 9.58v-3.22l2-2.48v-2.75l1.46.83v2.75l-2.46 2.8v2.67l-1-.6ZM25 21v.93l-13.28-6.87-.15-1.23L25 21Z" fill="#C5872F"/></svg>