<!-- by TradingView --><svg width="56" height="56" viewBox="0 0 56 56" xmlns="http://www.w3.org/2000/svg"><path fill="#F0F3FA" d="M0 0h56v56H0z"/><path fill-rule="evenodd" d="M12 23h-1v6.41c0 .83-.5 1.74-1.2 2.16-.37.21-.8.32-1.3.32s-.93-.1-1.3-.32A2.47 2.47 0 0 1 6 29.41V23H5v6.5c0 .68.14 1.28.43 1.8.3.53.7.94 1.22 1.25.53.3 1.14.45 1.85.45.7 0 1.32-.15 1.85-.45.52-.3.93-.72 1.21-1.24.3-.53.44-1.13.44-1.8V23Zm2 1v-1h7v1h-3v9h-1v-9h-3Zm15.48 6.66A6.3 6.3 0 0 0 30 28a6.3 6.3 0 0 0-.52-2.66 4.1 4.1 0 0 0-1.42-1.73A3.6 3.6 0 0 0 26 23c-.77 0-1.46.2-2.06.6-.6.41-1.08 1-1.42 1.74A6.3 6.3 0 0 0 22 28c0 1.03.17 1.91.52 2.66a4.1 4.1 0 0 0 1.42 1.73c.6.4 1.29.61 2.06.61s1.46-.2 2.06-.6a4.1 4.1 0 0 0 1.42-1.74ZM26 24c2.06 0 3 2.2 3 4 0 1.78-.9 4-3 4-2.06 0-3-2.2-3-4 0-1.79.9-4 3-4Zm7 9h-1V23h3c1.82 0 3 1.17 3 3 0 1.77-1.12 3-3 3h-2v4Zm1.97-5H33v-4h1.96c1.28 0 1.99.78 1.99 2 0 1.24-.73 2-1.98 2ZM41 23h-1v10h1V23Zm2 10h1.18l1-3h3.65l.99 3H51l-3.42-10h-1.16L43 33Zm5.5-4-1.46-4.42h-.08L45.5 29h3Z"/></svg>