<!-- by TradingView --><svg width="56" height="56" viewBox="0 0 56 56" xmlns="http://www.w3.org/2000/svg"><path fill="#F0F3FA" d="M0 0h56v56H0z"/><path fill-rule="evenodd" d="M45 28a17 17 0 1 0-34 0 17 17 0 0 0 34 0Zm-5 0a12 12 0 1 0-24 0 12 12 0 0 0 24 0Z" fill="#1B236C"/><path d="M37 31v1h-3v-1h3Zm-5 0v1h-3v-1h3Zm-7 0v1h-3v-1h3Zm-5 0v1h-3v-1h3ZM38 33h-3v1h3v-1Zm-6 0v1h-3v-1h3Zm-6 0v1h-3v-1h3Zm-5 0v1h-3v-1h3ZM35 35v1h-3v-1h3Zm-7 0v1h-3v-1h3Zm-5 0v1h-3v-1h3ZM34 37h-1v1h1v-1Zm-3 0v1h-3v-1h3Zm-6 0v1h-3v-1h3ZM36 28h1v3h-1v-3ZM26 24h4l-.2 1-3.8-1ZM21 24h-5l.25 1L21 24ZM18.52 22 21 23h-3l.52-1ZM26 22.72l2.38-.72.62 1-3-.28ZM27.69 21H29l-3 1 1.69-1ZM25.5 21h.5l-1 1 .5-1ZM22.17 21l.95 1.06L21 21h1.17ZM19.52 19.5l1.89 2.18-2.97-1.8 1.08-.38ZM23.54 18s-.07.55.02 1.05c.08.5.44.87.44 1.56 0 .68-.34 1.2-.51 1.39 0 0-.49-1.08-.49-2.05 0-.98.54-1.95.54-1.95ZM20 31l1.02-1h4.33l.65 1h-6Z" fill="#1B236C"/><path fill-rule="evenodd" d="M23.75 23h-1.06l-1.07 7h3.2l-1.07-7Zm-.35 4.42h-.6l-.33 2.56h.93v-2.56ZM22.94 25h.59v1.64h-.59V25Zm.6-1.77h-.56l-.05 1.42h.62v-1.42Z" fill="#1B236C"/><path d="m34 28.5.5-.5.5.5-.5.5-.5-.5ZM34 29.5l.5-.5.5.5-.5.5-.5-.5ZM36 26l-1.5.67L33 26v.33l1.5.67 1.5-.67V26ZM36 25l-1.5.67L33 25v.33l1.5.67 1.5-.67V25ZM36 24l-1.5.67L33 24v.33l1.5.67 1.5-.67V24ZM36 23l-1.5.67L33 23v.33l1.5.67 1.5-.67V23ZM36 22l-1.5.67L33 22v.33l1.5.67 1.5-.67V22ZM34 21l.5-1 .5 1-.5 1-.5-1Z" fill="#1B236C"/><path opacity=".5" d="M28 13a15 15 0 0 1 13.75 21h-1.1a14 14 0 1 0-25.3 0h-1.1A15 15 0 0 1 28 13Z" fill="#F0F3FA"/></svg>