<!-- by TradingView --><svg width="56" height="56" viewBox="0 0 56 56" xmlns="http://www.w3.org/2000/svg"><path fill="#F0F3FA" d="M0 0h56v56H0z"/><path d="M39 25h13v5H39v-5Z" fill="#9ECA11"/><path d="M6.9 30c-.41 0-.78-.01-1.08-.03-.31-.02-.57-.07-.79-.13a1.45 1.45 0 0 1-.52-.26 1.1 1.1 0 0 1-.32-.44c-.07-.18-.12-.4-.15-.66a9.04 9.04 0 0 1-.04-.92v-.12c0-.35.01-.66.04-.92s.08-.47.15-.65c.08-.18.18-.33.32-.45.13-.11.3-.2.52-.26.22-.06.48-.1.79-.13.3-.02.67-.03 1.09-.03h.19c.42 0 .78.01 1.1.03.3.02.56.07.77.13.22.06.4.15.53.26.13.12.23.27.3.45.08.18.13.4.16.65.03.26.04.57.04.92v.12c0 .35-.01.66-.04.92s-.08.48-.15.66c-.08.18-.18.33-.31.44-.14.11-.31.2-.53.26-.21.06-.47.1-.78.13-.3.02-.67.03-1.1.03h-.18Zm.16-1.3c.34 0 .61-.01.8-.03.2-.02.34-.08.43-.16.1-.08.16-.2.18-.35.02-.16.03-.37.03-.65v-.05c0-.27 0-.48-.03-.64a.54.54 0 0 0-.18-.36.8.8 0 0 0-.43-.15c-.19-.02-.46-.03-.8-.03h-.1c-.35 0-.62.01-.81.03a.81.81 0 0 0-.44.15c-.1.08-.15.2-.17.36a5.2 5.2 0 0 0-.03.64v.05c0 .28.01.5.03.65.02.15.08.27.17.35.1.08.24.14.44.16.19.02.46.03.8.03h.11ZM14.02 30c-.45 0-.84 0-1.17-.03-.32-.01-.6-.04-.82-.08-.22-.05-.4-.1-.54-.18a.84.84 0 0 1-.31-.27.93.93 0 0 1-.15-.38 3.39 3.39 0 0 1-.03-.51v-.18h1.64v.1c0 .07.02.13.05.18.02.05.08.09.17.11.09.03.22.05.39.07l.66.01h.2l.72-.01c.18-.02.31-.04.4-.07.09-.02.14-.06.16-.11a.49.49 0 0 0 .03-.19v-.04a.38.38 0 0 0-.03-.18c-.03-.05-.09-.09-.19-.12s-.23-.05-.42-.06c-.2-.02-.45-.02-.78-.02-.44 0-.83-.01-1.15-.03a6.2 6.2 0 0 1-.81-.1 1.8 1.8 0 0 1-.53-.17.83.83 0 0 1-.3-.28 1.02 1.02 0 0 1-.14-.4 3.71 3.71 0 0 1-.04-.54v-.08c0-.28.04-.5.1-.69.07-.18.2-.33.39-.44.19-.11.46-.19.8-.24.34-.05.78-.07 1.33-.07h.29c.43 0 .8 0 1.12.03.32.02.58.05.8.09.21.04.39.1.52.17s.23.16.3.26c.07.1.11.23.14.38.02.14.03.3.03.5v.1h-1.6v-.05a.4.4 0 0 0-.02-.16c-.02-.04-.06-.08-.13-.1a1.33 1.33 0 0 0-.34-.07 6.8 6.8 0 0 0-.61-.02h-.21l-.72.01c-.18.01-.31.03-.4.06-.09.03-.15.07-.17.11a.4.4 0 0 0-.03.18v.04c0 .07 0 .13.03.17.02.05.09.08.19.1.1.03.25.05.45.06l.86.02c.61 0 1.1.02 1.48.06.37.05.66.13.87.24.2.11.34.26.4.46.07.19.1.43.1.73v.1c0 .29-.03.53-.1.73-.06.2-.2.35-.4.47-.2.11-.47.2-.83.25-.36.05-.83.08-1.42.08h-.23ZM20.9 30c-.41 0-.78-.01-1.08-.03-.31-.02-.57-.07-.79-.13a1.45 1.45 0 0 1-.52-.26 1.1 1.1 0 0 1-.32-.44c-.07-.18-.12-.4-.15-.66a9.04 9.04 0 0 1-.04-.92v-.12c0-.35.01-.66.04-.92s.08-.47.15-.65c.08-.18.18-.33.32-.45.13-.11.3-.2.52-.26.22-.06.48-.1.79-.13.3-.02.67-.03 1.09-.03h.19c.42 0 .78.01 1.1.03.3.02.56.07.77.13.22.06.4.15.53.26.13.12.23.27.3.45.08.18.13.4.16.65.03.26.04.57.04.92v.12c0 .35-.01.66-.04.92s-.08.48-.15.66c-.08.18-.18.33-.31.44-.14.11-.31.2-.53.26-.21.06-.47.1-.78.13-.3.02-.67.03-1.1.03h-.18Zm.16-1.3c.34 0 .61-.01.8-.03.2-.02.34-.08.43-.16.1-.08.16-.2.18-.35.02-.16.03-.37.03-.65v-.05c0-.27 0-.48-.03-.64a.54.54 0 0 0-.18-.36.8.8 0 0 0-.43-.15c-.19-.02-.46-.03-.8-.03h-.1c-.35 0-.62.01-.81.03a.81.81 0 0 0-.44.15c-.1.08-.15.2-.17.36a5.2 5.2 0 0 0-.03.64v.05c0 .28.01.5.03.65.02.15.08.27.17.35.1.08.24.14.44.16.19.02.46.03.8.03h.11ZM27.9 30c-.41 0-.78-.01-1.08-.03-.31-.02-.57-.07-.79-.13a1.45 1.45 0 0 1-.52-.26 1.1 1.1 0 0 1-.32-.44c-.07-.18-.12-.4-.15-.66a9.14 9.14 0 0 1-.04-.92v-.12c0-.35.01-.66.04-.92s.08-.47.15-.65c.08-.18.18-.33.32-.45.13-.11.3-.2.52-.26.22-.06.48-.1.79-.13.3-.02.67-.03 1.09-.03h.19c.42 0 .78.01 1.1.03.3.02.56.07.77.13.22.06.4.15.53.26.13.12.23.27.3.45.08.18.13.4.16.65.03.26.04.57.04.92v.12c0 .35-.01.66-.04.92s-.08.48-.15.66c-.08.18-.18.33-.31.44-.14.11-.31.2-.53.26-.21.06-.47.1-.78.13-.3.02-.67.03-1.1.03h-.18Zm.16-1.3c.34 0 .61-.01.8-.03.2-.02.34-.08.43-.16.1-.08.16-.2.18-.35.02-.16.03-.37.03-.65v-.05c0-.27 0-.48-.03-.64a.54.54 0 0 0-.18-.36.8.8 0 0 0-.43-.15c-.19-.02-.46-.03-.8-.03h-.1c-.35 0-.62.01-.81.03a.81.81 0 0 0-.44.15c-.1.08-.15.2-.17.36a5.2 5.2 0 0 0-.03.64v.05c0 .28 0 .5.03.65.02.15.08.27.17.35.1.08.24.14.44.16.19.02.46.03.8.03h.11ZM38 30h-6v-5h1.68v3.66H38V30ZM42 29h-2v-3h2v.72h-1.4v.43H42v.68h-1.4v.44H42V29ZM43 29h-.52v-.47H43V29ZM45 29c-.14 0-.27 0-.38-.02-.11 0-.2-.02-.28-.05a.42.42 0 0 1-.28-.27.86.86 0 0 1-.05-.22l-.01-.31V28h.55v.08l.01.11c.01.03.03.05.06.07.03.02.07.03.13.04h.53c.06-.01.1-.02.13-.04a.1.1 0 0 0 .05-.07l.01-.11v-.03a.4.4 0 0 0 0-.1.12.12 0 0 0-.07-.08.37.37 0 0 0-.14-.04 2.4 2.4 0 0 0-.26 0l-.38-.02a1.2 1.2 0 0 1-.27-.06.46.46 0 0 1-.18-.1.44.44 0 0 1-.1-.17.98.98 0 0 1-.05-.24v-.38c0-.16 0-.3.02-.4.03-.12.07-.2.13-.27a.55.55 0 0 1 .27-.15c.11-.03.26-.04.44-.04h.1a3.5 3.5 0 0 1 .64.07c.07.03.13.06.17.1.05.05.08.1.1.16.03.07.04.14.05.23l.01.37V27h-.53v-.21a.11.11 0 0 0-.05-.06.28.28 0 0 0-.12-.04l-.2-.01h-.31c-.06.01-.1.02-.13.04a.11.11 0 0 0-.06.07.4.4 0 0 0-.01.1v.03l.01.1c0 .03.03.05.06.06l.15.04h.29c.2 0 .37.02.5.05.12.02.21.07.28.14a.5.5 0 0 1 .14.27c.02.12.03.26.03.44v.06c0 .17-.01.32-.03.44a.55.55 0 0 1-.13.28.57.57 0 0 1-.28.15c-.12.03-.28.05-.48.05h-.07ZM48 29v-3h1.35c.11 0 .2.02.28.05a.4.4 0 0 1 .19.14c.04.07.08.15.1.25a1.88 1.88 0 0 1-.02.76.57.57 0 0 1-.13.23v.01c.08.05.13.13.17.23a1.98 1.98 0 0 1 .03.86.7.7 0 0 1-.11.27.42.42 0 0 1-.19.15.72.72 0 0 1-.27.05H48Zm1.33-.69c.05 0 .1-.02.12-.06a.48.48 0 0 0 .03-.2.45.45 0 0 0-.03-.2c-.03-.04-.07-.06-.12-.06h-.8v.52h.8Zm-.02-1.15a.1.1 0 0 0 .1-.06c.02-.04.02-.1.02-.18 0-.1 0-.16-.03-.2a.1.1 0 0 0-.09-.05h-.78v.49h.78ZM47 29h-.52v-.47H47V29ZM51.02 29h-.52v-.47h.52V29Z" fill="#003E20"/></svg>