<!-- by TradingView --><svg width="56" height="56" viewBox="0 0 56 56" xmlns="http://www.w3.org/2000/svg"><path fill="#6A6A6A" d="M0 0h56v56H0z"/><path d="m12.29 31.1-.13.9H5.75c.27-.62.25-.97.25-1.42v-6.16c0-.43.02-.82-.25-1.42H12v.92c-.1-.04-.07-.08-.17-.13-.27-.1-.55-.16-.84-.17h-3.5V27h4.1l-.2.7h-3.9v3.66h3.7c.62 0 1.12-.34 1.12-.34l-.02.08Zm9.77.9c.1-.44.1-1.07.02-1.58l-.58-4.24L18.33 32h-.4l-3.14-6.08-.63 4.6c-.06.52-.08 1.2-.03 1.48H13c.22-.46.27-.66.38-1.42L14.4 23h.52l3.47 7.07L22.15 23h.4l1.05 7.56c.1.76.19.98.4 1.44h-1.95.01Zm9.75 0-1.51-3.3h-3.03l-1.5 3.3H24.6c.37-.46.5-.68.76-1.26L28.88 23h.4l3.46 7.53c.37.73.54.97 1.07 1.47h-2Zm9.41 0-1.51-3.3h-3.05L35.18 32H34c.37-.46.5-.68.77-1.26L38.28 23h.4l3.47 7.53c.37.73.54.97 1.07 1.47h-2Zm8.93 0a36.62 36.62 0 0 1-3.56-3.63 1.58 1.58 0 0 0-1.11-.56v2.77c0 .44 0 .8.25 1.42h-1.94c.28-.62.21-.97.21-1.42v-6.16c0-.44.07-.82-.2-1.42h1.9c1.34 0 4.71-.12 4.71 2.47 0 1.36-1.1 2.1-2.38 2.28l-.38.04L52 32h-1.85Zm-2.37-4.76a1.84 1.84 0 0 0 1.21-1.77c-.03-.65-.64-2.05-3.5-1.94v3.83s1.8.1 2.25-.1l.04-.02ZM36.99 28h2.4l-1.21-2.6-1.19 2.6Zm-9.41 0H30l-1.23-2.6-1.19 2.6Z" fill="#fff"/></svg>