<!-- by TradingView --><svg width="56" height="56" viewBox="0 0 56 56" xmlns="http://www.w3.org/2000/svg"><path fill="#F0F3FA" d="M0 0h56v56H0z"/><path d="M10 34h36v1H10v-1Z" fill="#181B1E"/><path d="M31 12v19s-14.31-.26-21 7l21-26Z" fill="#181B1E"/><path d="M35 17v7h5l-5-7Z" fill="#E4DB58"/><path d="M33 16v10h7l-7-10Z" fill="#F1DD38"/><path d="M31 16v12h8l-8-12Z" fill="#F4ED16"/><path d="M30.5 20c1.96 0 3.5 1.54 3.5 3.5S32.46 27 30.5 27a3.46 3.46 0 0 1-3.5-3.5c0-1.96 1.54-3.5 3.5-3.5ZM17 42v-6h4v1h-2.5v1.4h2.3v1.19h-2.3V41H21v1h-4ZM22 36h1.6l1.37 3.71h.06L26.4 36H28v6h-1.26v-3.69h-.05L25.4 42h-.8l-1.3-3.7h-.04V42H22v-6ZM29 42v-6h2.66c1.24 0 2.34.75 2.34 2.08 0 1.35-1.14 1.92-2.4 1.92h-1.63v-1h1.35c.57 0 1.07-.3 1.07-.92 0-.62-.5-1.08-1.07-1.08h-.82v5H29ZM40 38h-1.33c-.07-.57-.48-.76-1.05-.76-.8 0-1.28.64-1.28 1.76 0 .81.3 1.76 1.27 1.76.55 0 .97-.21 1.06-.76H40c-.11 1.25-1.2 2-2.42 2C35.9 42 35 40.56 35 39c0-1.55.9-3 2.58-3 1.3 0 2.3.7 2.42 2Z" fill="#EF2623"/></svg>