<!-- by TradingView --><svg width="56" height="56" viewBox="0 0 56 56" xmlns="http://www.w3.org/2000/svg"><path fill="#F0F3FA" d="M0 0h56v56H0z"/><path d="M33.95 22a3 3 0 0 1 2.05.77l-.57.76a2.09 2.09 0 0 0-1.48-.53A1.9 1.9 0 0 0 32 25.01C32 26.4 33 27 33.86 27c.6 0 1.12-.12 1.6-.49l.54.78c-.64.5-1.34.71-2.14.71-1.74 0-2.86-1.36-2.86-2.98C31 23.4 32.2 22 33.95 22ZM28.07 22c.67 0 1.34.25 1.81.62l-.39.88c-.44-.37-.89-.5-1.42-.5-.54 0-1.07.2-1.07.66 0 .45.63.65 1.07.8 1.17.4 1.93.58 1.93 1.81 0 1.24-1.08 1.73-2.09 1.73-.74 0-1.54-.33-2.11-.8 0 0 .39-.91.38-.93.44.37 1.03.73 1.73.73.43 0 1.09 0 1.09-.73 0-.54-.68-.7-1.2-.85-1.09-.3-1.8-.71-1.8-1.76 0-1.22 1.05-1.66 2.07-1.66ZM50 22v6h-1v-4l-2 2.28L45 24v4h-1v-6h.38L47 24.95 49.65 22H50ZM25 28l-2.8-6h-.4L19 28h1.08l.45-1h2.88l.45 1H25Zm-2-2h-2l1-2.36L23 26ZM15.23 22c1.26 0 2.37.58 2.37 2 0 1.19-.6 1.67-1.24 1.9L18 28h-1.2l-1.62-2H14v2h-1v-6h2.23ZM14 25h1.43c.75 0 1.17-.44 1.17-1 0-.88-.78-1-1.37-1H14v2Z" fill="#103A71"/><path d="m41.62 22.36.35.28-1.96 2.02-1.97-2.02.1-.09c.07-.07.14-.13.24-.19l1.63 1.65 1.6-1.65ZM40 23.38l-1.2-1.2.1-.04c.12-.06.23-.1.36-.14l.74.77c.3-.31.7-.77.69-.77.15.04.27.09.41.15l.07.03-1.17 1.2Zm1.6 4.26.36-.28-1.96-2.02-1.97 2.02.1.09c.07.07.14.13.24.19l1.63-1.65 1.6 1.65Zm-1.6-1.02-1.2 1.2.1.04c.12.06.23.1.36.14l.74-.77c.3.31.7.77.69.77.15-.04.27-.09.41-.15l.07-.03-1.17-1.2Zm-2.37-3.59-.28.36L39.01 25l-1.65 1.62c.06.1.12.17.2.25l.08.1L39.66 25l-2.02-1.97Zm-.46 3.16 1.2-1.19-1.2-1.17-.03.07c-.06.13-.11.25-.15.4 0 0 .46.4.77.7l-.77.73c.03.14.08.25.14.36l.04.1Zm5.46-2.8-.28-.36L40.34 25l2.02 1.97.09-.1c.07-.08.13-.15.19-.25L40.99 25l1.65-1.6ZM41.62 25l1.2 1.19.04-.1c.06-.11.1-.22.14-.36l-.77-.73c.31-.3.77-.7.77-.7a2.2 2.2 0 0 0-.18-.47L41.62 25Z" fill="#C19A3D"/><path fill-rule="evenodd" d="M8 28a3 3 0 1 0 0-6 3 3 0 0 0 0 6Zm0-1a2 2 0 1 0 0-4 2 2 0 0 0 0 4Z" fill="#103A71"/><path d="M7.3 34H6v-4h1.3c.44-.02.87.16 1.2.5.16.18.29.4.37.65.09.27.13.56.13.85 0 .64-.17 1.14-.5 1.5-.33.34-.76.52-1.2.5Zm-.8-3.5v3h.75c.84 0 1.26-.68 1.25-1.48.01-.8-.4-1.52-1.25-1.52H6.5ZM13 30.5h-2v1.23h2v.5h-2v1.27h2v.5h-2.5v-4H13v.5ZM20.5 30.5h-2v1.23h2v.5h-2v1.27h2v.5H18v-4h2.5v.5ZM42 30.5h-2v1.23h2v.5h-2v1.27h2v.5h-2.5v-4H42v.5ZM16.67 30h.56l-1.58 4h-.09L14 30h.66l.95 2.67L16.67 30ZM22.5 33.5h1.78v.5H22v-4h.5v3.5ZM27 34a1.98 1.98 0 0 1-1.74-1c-.17-.3-.26-.65-.26-1a2.02 2.02 0 0 1 .97-1.73c.31-.18.67-.27 1.02-.27a2 2 0 0 1 1.75 1c.17.3.26.65.26 1s-.09.7-.26 1c-.17.3-.42.56-.72.73-.3.18-.66.27-1.03.27Zm0-3.5c-.84 0-1.5.67-1.5 1.5 0 .8.67 1.5 1.5 1.5.82 0 1.5-.7 1.5-1.5 0-.84-.66-1.5-1.5-1.5ZM30.22 30h1.46c.2 0 .4.03.58.1.5.2.74.76.74 1.28 0 .5-.25 1.04-.75 1.24-.18.07-.37.1-.57.1h-.96V34h-.5v-4Zm.5 2.2h1c.5 0 .78-.35.78-.82 0-.49-.29-.89-.81-.88h-.97v1.7ZM35 34h-.5v-4h.08l1.67 2.33L37.92 30H38v4h-.5v-2.6l-1.25 1.77L35 31.39V34ZM46.5 30v4h-.08L44 31.23V34h-.5v-4h.1l2.4 2.78V30h.5ZM50 30v.5h-1V34h-.5v-3.5h-1v-.49H50Z" fill="#103A71"/></svg>