<!-- by TradingView --><svg width="56" height="56" viewBox="0 0 56 56" xmlns="http://www.w3.org/2000/svg"><path fill="#F0F3FA" d="M0 0h56v56H0z"/><path d="m25.86 14 .42 3.69h.52L26.64 14h-.78Zm-3.04 4.4-1.79-3.36 1.8-.49 1.4 3.43-1.4.43Zm-2.18 1-1.15.8-3.09-2.88 1.49-.93 2.75 3.02Zm-10.1 5.29 4.51.61.7-1.79-4.1-1.35a8.58 8.58 0 0 0-1.12 2.53Zm4.13 3.5-4.58.48a8.8 8.8 0 0 1 .12-3.13l4.46.59v2.06Zm.73 2.12-3.45 4.03a38.1 38.1 0 0 1-1.85-4.57l4.55-1.1.75 1.64Zm-2.55-9.95 3.9 2.06 1.1-1.12-3.55-2.33c-.36.3-1.16.99-1.45 1.39Z" fill="#5070A7"/><path d="m30.14 14-.42 3.69h-.52l.16-3.69h.78Zm3.04 4.4 1.79-3.36-1.8-.49-1.4 3.43 1.4.43Zm2.18 1 1.15.8 3.09-2.88-1.49-.93-2.75 3.02Zm10.1 5.29-4.51.61-.7-1.79 4.1-1.35c.28.32.71 1.26 1.12 2.53Zm-4.13 3.5 4.58.48a8.8 8.8 0 0 0-.12-3.13l-4.46.59v2.06Zm-2.7 5.42h5.34c.47-.76 1.5-2.63 1.93-3.84l-5.06-.8-2.2 4.64Zm4.52-13.25-3.9 2.06-1.1-1.12 3.55-2.33c.36.3 1.16.99 1.45 1.39ZM14.38 34l5.3-7h4.82l-4.82 7h-5.3Zm11.52 0 5.3-7h4.82l-4.82 7h-5.3Z" fill="#FE9F1F"/><path d="m22.58 30.67 2.35-3.23 1.97 2.3-2.37 3.42-1.95-2.5Zm11.29 0 2.34-3.23 1.97 2.3-2.37 3.42-1.94-2.5Z" fill="#5070A7"/><path fill-rule="evenodd" d="m10.67 39 2.94-4h1.76l1.6 2.5 2.15-2.5h1.9l1.5 2.5 1.82-2.5h1.72l2.44 3.13V35h3.29c.69 0 1.21.78 1.21 1.5 0 .42-.18.87-.48 1.17L33.4 39h-1.8l-.56-1H30v1h-3.11l-.6-1h-2.4l-.74 1H21.5l-1.62-2.61L17.83 39h-2.01l-1.55-2.5-1.71 2.5h-1.89Zm14.53-2.8.48.8h-1.06l.58-.8Zm5.78.8H30v-1h.98c.25 0 .46.22.46.5s-.2.5-.46.5ZM35.06 37.62h-1.42c0 .37.45 1.38 2.18 1.38H39.6l.66-1h2.13l.65 1h1.86l-2.75-4h-1.42l-2.14 3.02h-.65c.04-.11.06-.21.06-.3 0-.4-.55-1.08-1.55-1.17-.8-.08-.98-.19-1.05-.3-.01-.16.01-.43.7-.43s.83.3.83.54h1.34c-.22-.88-1.12-1.36-2.38-1.36-1.25 0-1.94.62-1.94 1.14 0 .52.66.85 1.6 1.03.94.18.97.45.97.56 0 .1-.14.27-.7.27-.44 0-.7-.2-.76-.38Zm6.67-.62-.4-.63-.42.63h.82Z" fill="#4C5358"/></svg>