<!-- by TradingView --><svg width="56" height="56" viewBox="0 0 56 56" xmlns="http://www.w3.org/2000/svg"><path fill="#F0F3FA" d="M0 0h56v56H0z"/><path d="m27.8 11-6.16 3.53 7.36 4.2v2.04l4.8 3.04 1.2-.63v-8.02L27.8 11ZM13 19.7v7.06l7.2-3.95 1.71 1.12L27 20.95V19.7l-6.8-4.03L13 19.7Zm0 17.03 6 3.53V32.1l2-.92v-6.01l-.9-.63-7.1 4v8.19Zm20.91 4.74L27.74 45 21 40.84v-8.02l.75-.63L27 35.23v2.04l6.91 4.2ZM43 36.56v-7.07l-7.2 3.96-1.71-1.12L29 35.3v1.26l6.8 4.03 7.2-4.03ZM37 16l6 3.53v8.2l-7.1 3.98-.9-.63v-6.01l2-.92V16Zm-6 10.25-3-1.75-3 1.75v3.5l3 1.75 3-1.75v-3.5Z" fill="#BE1522"/></svg>