<!-- by TradingView --><svg width="56" height="56" viewBox="0 0 56 56" xmlns="http://www.w3.org/2000/svg"><path fill="#00A4AA" d="M0 0h56v56H0z"/><path d="M40 25c.83 0 1.5-.45 1.5-1s-.67-1-1.5-1-1.5.45-1.5 1 .67 1 1.5 1ZM14.08 30.3c-.3.7-.84 1.26-1.66 1.7h1.93c.33-.16.6-.34.82-.54.23-.21.43-.52.62-.9l1.74-3.32c.18-.33.35-.57.47-.75.15-.18.3-.33.5-.49h-2.58c.05.1.1.18.1.28 0 .08-.03.16-.05.24l-.7 1.83-.7-1.73c-.07-.18-.12-.31-.1-.41 0-.08 0-.13.03-.21h-3a3.9 3.9 0 0 1 1.02 1.24l1.56 3.05ZM21.1 30.58c-.05-.17-.1-.36-.1-.64v-2.15c0-.37.2-.56.59-.56.1 0 .19 0 .29.03.12.02.22.08.34.1.24.15.43.29.53.43a6.16 6.16 0 0 1 .32-1.62.8.8 0 0 0-.22-.11 1.65 1.65 0 0 0-.4-.06c-.43 0-.84.2-1.23.59-.1.08-.17.2-.22.33V26h-2.3c.24.22.3.59.3.98v2.9c0 .45-.06.87-.3 1.12h2.67s-.25-.35-.27-.42ZM31.48 31c-.05-.03-.07-.08-.1-.14a1.5 1.5 0 0 1-.38-.94v-2.64c.14-.05.39-.22.53-.22.2-.06.4-.02.48.22l-.01.16v2.5c0 .28-.02.48-.06.64a.84.84 0 0 1-.32.42h2.75c-.03-.03-.05-.08-.1-.11-.1-.11-.15-.25-.2-.39a1.77 1.77 0 0 1-.07-.56v-2.63c0-.34.6-.33.8-.25.05.02.1.05.12.08.05.06.08.17.08.25v2.5c0 .44-.15.86-.42 1.11h2.92c-.12-.11-.37-.28-.42-.42a2.15 2.15 0 0 1-.08-.66v-2.5c0-.95-.46-1.42-1.72-1.42-.17 0-.36.03-.56.08-.24.3-.33.59-.62.84a.73.73 0 0 0-.12-.17c-.39-.5-.83-.75-1.54-.75h-.26c-.15 0-.3.03-.46.06-.22.33-.36.58-.72.8V26h-2.45c.28.26.45.65.45 1.03v2.91c0 .39-.16.79-.45 1.06h2.93ZM38 29.92v.65a.95.95 0 0 1-.27.43h2.57a1.62 1.62 0 0 1-.3-.43v-3.63c0-.29.03-.57.2-.83l.07-.11H37.7c.12.11.2.26.27.4.05.14.03.34.03.57v2.95ZM44.52 26.11c-.25-.06-.5-.08-.73-.08-.23-.03-.44-.03-.62-.03-.2 0-.39.03-.57.05-.48.09-.87.25-1.17.53-.3.27-.43.6-.43.96 0 .3.1.58.3.85.2.3.48.55.8.77.32.2.76.37.91.74 0 .28-.18.41-.55.41a1.83 1.83 0 0 1-.87-.38 2.6 2.6 0 0 1-.38-.36l-.12-.16c.02.27.05.52.05.8 0 .21 0 .4-.03.6.35.08.67.14.99.16.23.03.43.03.61.03 1.51 0 2.29-.52 2.29-1.48 0-.74-.47-1.2-1.05-1.6l-.66-.46c-.12-.11-.26-.22-.26-.39.03-.22.19-.33.48-.33.1 0 .21.03.35.06.27.1.57.27.84.5l.19.16c-.07-.3-.1-.58-.1-.88v-.36a1.7 1.7 0 0 0-.27-.11ZM49 28.66v1.23c0 .19-.34.16-.48.16-.3 0-.47-.08-.54-.25-.1-.13-.14-.4-.17-.76 0-.24.15-.35.44-.35l.75-.03Zm-2.42-1.38c.48-.06 2.42-.6 2.42.21 0 .52-1.35.62-1.72.74-.41.1-.73.24-.95.4a1.5 1.5 0 0 0-.5.55c-.05.08-.08.19-.1.27-.03.11-.03.2-.03.27 0 .36.17.66.49.9.31.24.77.35 1.38.38.2 0 .36-.05.53-.1.17-.06.3-.12.42-.2.26-.19.38-.27.4-.3l-.09.6h2.67c-.3-.26-.5-.77-.5-1.14v-2.47c0-.47-.13-.8-.5-1.04A4.06 4.06 0 0 0 48.6 26c-.24 0-.49 0-.78.03-.41.02-.85.08-1.3.19a3.1 3.1 0 0 1-.15.6c-.05.21-.15.4-.24.62l.46-.16ZM26 28.66v1.23c0 .19-.34.16-.48.16-.3 0-.47-.08-.54-.25-.1-.13-.14-.4-.17-.76 0-.24.15-.35.44-.35l.75-.03Zm-2.42-1.38c.48-.06 2.42-.6 2.42.21 0 .52-1.35.62-1.72.74-.41.1-.73.24-.95.4a1.5 1.5 0 0 0-.5.55c-.05.08-.08.19-.1.27-.03.11-.03.2-.03.27 0 .36.17.66.49.9.31.24.77.35 1.38.38.2 0 .36-.05.53-.1.17-.06.3-.12.42-.2.26-.19.38-.27.4-.3l-.09.6h2.67c-.3-.26-.5-.77-.5-1.14v-2.47c0-.47-.13-.8-.5-1.04A4.06 4.06 0 0 0 25.6 26c-.24 0-.49 0-.78.03-.41.02-.85.08-1.3.19a3.1 3.1 0 0 1-.15.6c-.05.21-.15.4-.24.62l.46-.16ZM8 27c.53 0 1.15.13 1.23.58.05.18.05.35.05.5 0 .37-.1.63-.29.8-.17.18-.7.12-.99.12v-2Zm.4 5c-.03 0-.07-.07-.16-.14A1.13 1.13 0 0 1 8 31.1v-1.63l.44.03c.68 0 1.6-.1 2.04-.31.37-.16.64-.4.83-.66.18-.26.27-.54.27-.85 0-.37-.16-.7-.44-1-.24-.24-.57-.4-.97-.53A6.29 6.29 0 0 0 8.53 26H5.6c.26.21.4.5.4.85v4.26c0 .23 0 .4-.07.54a.98.98 0 0 1-.33.35h2.8Z" fill="#fff"/></svg>