<!-- by TradingView --><svg width="56" height="56" viewBox="0 0 56 56" xmlns="http://www.w3.org/2000/svg"><path fill="#F0F3FA" d="M0 0h56v56H0z"/><path d="M5.5 24a.5.5 0 0 0-.5.52c0 .29.22.48.5.48H7.4c.27 0 .5-.2.5-.48a.5.5 0 0 0-.5-.52H5.5Zm3.82 0a.5.5 0 0 0-.5.52c0 .29.23.48.5.48h2.37c1.83 0 3.31 1.59 3.31 3.5S13.52 32 11.7 32H9.31c-.27 0-.5.2-.5.48 0 .29.23.52.5.52h2.37A4.4 4.4 0 0 0 16 28.5a4.4 4.4 0 0 0-4.3-4.5H9.31Zm-2.01 2c-.28 0-.5.23-.5.52 0 .3.22.48.5.48h4.33c.75 0 1.36.7 1.36 1.5s-.6 1.5-1.36 1.5h-.47c-.27 0-.5.19-.5.48s.23.52.5.52h.47c1.3 0 2.36-1.12 2.36-2.5S12.94 26 11.64 26H7.3ZM4.5 30c-.28 0-.5.19-.5.48s.22.52.5.52h4.75c.27 0 .5-.23.5-.52 0-.3-.23-.48-.5-.48H4.5Zm.5-1.5c0-.28.23-.5.51-.5h5.98a.5.5 0 0 1 .51.5.5.5 0 0 1-.51.5H5.5a.5.5 0 0 1-.51-.5Zm13-3.98a.5.5 0 0 0-.5-.52.5.5 0 0 0-.5.52v7.96c0 .29.22.52.5.52a.5.5 0 0 0 .5-.52v-7.96ZM28.5 24c.28 0 .5.23.5.52v7.96a.5.5 0 0 1-.5.52.5.5 0 0 1-.5-.52v-7.96a.5.5 0 0 1 .5-.52Zm8.5.52a.5.5 0 0 0-.5-.52.5.5 0 0 0-.5.52v7.96c0 .29.22.52.5.52a.5.5 0 0 0 .5-.52v-7.96ZM30.1 24c-.27 0-.49.2-.49.48 0 .29.22.52.5.52H32v7.48c0 .29.22.52.5.52a.5.5 0 0 0 .5-.52V25h2a.5.5 0 0 0 .49-.52A.48.48 0 0 0 35 24h-4.9Zm8.46 0a.5.5 0 0 0-.49.52c0 .28.22.48.5.48h5.14l-5.51 7.16a.54.54 0 0 0-.06.54c.08.19.25.3.44.3h6.17a.5.5 0 0 0 .49-.52.48.48 0 0 0-.5-.48h-5.13l5.51-7.16a.54.54 0 0 0 .07-.54.49.49 0 0 0-.44-.3h-6.19Zm7.44.52c0-.29.23-.52.5-.52h4c.27 0 .5.23.5.52 0 .28-.23.48-.5.48H47v3h2.62c.28 0 .5.21.5.5a.5.5 0 0 1-.5.5H47v3h3.5c.27 0 .5.2.5.48 0 .29-.23.52-.5.52h-4a.51.51 0 0 1-.5-.52v-7.96ZM19.99 28.5c0-1.91 1.47-3.5 3.29-3.5.88 0 1.8.4 2.4 1 .2.2.5.18.7-.02a.54.54 0 0 0-.02-.74A4.45 4.45 0 0 0 23.28 24 4.4 4.4 0 0 0 19 28.5a4.4 4.4 0 0 0 4.28 4.5c2.1 0 3.63-1.39 3.98-3.43a.54.54 0 0 0-.1-.42c-.1-.12-.24-.15-.39-.15h-2.42c-.28 0-.5.2-.5.48 0 .29.22.52.5.52h1.78c-.44 1.28-1.5 1.96-2.85 1.96a3.38 3.38 0 0 1-3.29-3.46Z" fill="url(#afkr1acfe)"/><defs><linearGradient id="afkr1acfe" x1="4" y1="28.45" x2="50.94" y2="28.45" gradientUnits="userSpaceOnUse"><stop stop-color="#0161E7"/><stop offset="1" stop-color="#00C1FF"/></linearGradient></defs></svg>