<!-- by TradingView --><svg width="56" height="56" viewBox="0 0 56 56" xmlns="http://www.w3.org/2000/svg"><path fill="#F0F3FA" d="M0 0h56v56H0z"/><path d="M4 31v-5h3v1H5v1h2v1H5v2H4ZM9 26v5H8v-5h1ZM9.56 27v-1h3.87v1H12v4h-1v-4H9.56ZM18 26v5h-1l-2-2.93V31h-1v-5h.8l2.2 3.22V26h1ZM19 31v-5h3v1h-2v1h2v1h-2v1h2v1h-3ZM25.2 27.47a.6.6 0 0 0-.23-.45.92.92 0 0 0-.57-.16c-.16 0-.3.02-.4.07a.58.58 0 0 0-.27.2.47.47 0 0 0-.08.27c0 .1.01.17.05.23.04.07.1.12.16.17.07.05.15.09.24.12l.3.09.41.1c.21.05.4.11.57.2.17.07.32.17.45.28.12.12.22.26.29.41.07.16.1.34.1.54 0 .3-.07.56-.21.78-.15.21-.36.38-.63.5s-.6.18-.98.18-.71-.06-1-.18c-.28-.12-.5-.3-.65-.54a1.64 1.64 0 0 1-.25-.88h.96c.02.17.06.3.14.41.08.11.19.2.32.25.14.05.3.08.47.08.17 0 .31-.03.44-.08a.67.67 0 0 0 .29-.21.5.5 0 0 0 .1-.31c0-.11-.03-.2-.1-.28a.71.71 0 0 0-.26-.19 2.7 2.7 0 0 0-.44-.14l-.51-.13c-.4-.1-.71-.26-.94-.47a1.1 1.1 0 0 1-.34-.86c0-.3.07-.55.22-.77.16-.22.37-.4.64-.51.27-.13.58-.19.92-.19.35 0 .65.06.91.19.27.12.47.3.62.51.14.22.22.48.22.77h-.95ZM29.45 27.47a.6.6 0 0 0-.24-.45.92.92 0 0 0-.56-.16c-.17 0-.3.02-.42.07a.58.58 0 0 0-.25.2.47.47 0 0 0-.1.27c0 .1.02.17.06.23.04.07.1.12.17.17.06.05.14.09.23.12l.3.09.42.1c.2.05.4.11.56.2.17.07.32.17.45.28.12.12.22.26.3.41.06.16.1.34.1.54 0 .3-.08.56-.22.78a1.4 1.4 0 0 1-.63.5c-.27.12-.6.18-.98.18s-.71-.06-1-.18c-.27-.12-.5-.3-.65-.54a1.64 1.64 0 0 1-.25-.88h.97c0 .17.05.3.13.41.08.11.2.2.33.25.13.05.29.08.46.08.17 0 .31-.03.44-.08a.67.67 0 0 0 .3-.21.5.5 0 0 0 .1-.31c0-.11-.04-.2-.1-.28a.71.71 0 0 0-.27-.19 2.7 2.7 0 0 0-.44-.14l-.5-.13c-.4-.1-.72-.26-.95-.47a1.1 1.1 0 0 1-.34-.86c0-.3.07-.55.23-.77.15-.22.36-.4.63-.51.27-.13.58-.19.92-.19.35 0 .66.06.92.19a1.4 1.4 0 0 1 .84 1.28h-.96ZM33 31v-5h1.69c.96 0 1.69.78 1.69 1.71 0 .97-.63 1.64-1.72 1.64h-1.02v-.9h.86c.59 0 .85-.26.85-.73 0-.5-.28-.72-.85-.72H34v4h-1ZM37 31v-5h1.69c.94 0 1.68.72 1.68 1.66 0 .64-.27 1.11-.78 1.36a2.1 2.1 0 0 1-.93.19H37.6v-.9h.91c.57 0 .85-.18.85-.65 0-.49-.28-.66-.85-.66H38v4h-1Zm2.37-2.28L40.54 31h-1.1l-1.14-2.28h1.07ZM42 26v5h-1v-5h1ZM43 26h1.29l1.2 3.33h.06L46.77 26H48v5h-1v-3l-1.15 3h-.65L44 28v3h-1v-5ZM49 31v-5h3v1h-2v1h2v1h-2v1h2v1h-3Z"/></svg>