<!-- by TradingView --><svg width="56" height="56" viewBox="0 0 56 56" xmlns="http://www.w3.org/2000/svg"><path fill="#1963AE" d="M0 0h56v56H0z"/><path d="M5 22v12h4v-4h4.75c.71 0 1.25.55 1.25 1.2v1.62c0 .65.61 1.18 1.32 1.18h6.9l3.22-6.75L29.68 34h1.37l-1.53-3h3c.35 0 .58-.33.44-.62L28.86 22h-4.93L19 32.44v-.98c0-1.67-.95-2.57-1.8-2.82.72-.28 1.8-1.31 1.8-3.15 0-2.71-1.85-3.46-2.97-3.49H5Zm4 3h4.55c.8 0 1.45.67 1.45 1.5s-.65 1.5-1.45 1.5H9v-3Zm29-3h-6l3 5.4 3-5.4Zm-3.23 12c.34-.03 1.1-.3 1.5-1.18.47-1.1 5.11-10.82 5.11-10.82h4.84L52 34h-4.91l-3.23-6.72-3.3 6.72h-5.79Z" fill="#fff"/></svg>