<!-- by TradingView --><svg width="56" height="56" viewBox="0 0 56 56" xmlns="http://www.w3.org/2000/svg"><path fill="#F0F3FA" d="M0 0h56v56H0z"/><path fill="#F58C29" d="M11 33h39v2H11z"/><path fill="#FFB71B" d="M8 33h6v2H8z"/><path fill="#F6E344" d="M4 33h4v2H4z"/><path d="M9.7 24c-2.16 0-3.66 2.88-3.7 4.81-.04 1.14.79 1.19 1.72 1.19h3.04L10 32H6.96C5.3 32 4 31.45 4 29.48 4 26.18 6.15 22 9.96 22H13l-.64 2H9.7Z" fill="#131F6B"/><path d="M14.02 32c-1.73 0-3.07-1.12-3.02-2.95.07-2.65 2.25-5.05 4.98-5.05 1.8 0 3.09 1.25 3.02 3.03-.11 2.62-2.3 4.97-4.98 4.97Zm.48-1.66c1.4-.04 2.46-1.74 2.5-3 .02-.75-.38-1.64-1.27-1.64C14 25.7 13 27.34 13 28.82c0 .89.65 1.54 1.5 1.52ZM21 24h2v.4l.54-.4h1.25c1.05 0 2.22.33 2.21 1.55 0 .38-.08.83-.2 1.37L25.5 32h-2.03l1.21-4.26c.06-.27.1-.55.1-.82 0-.5-.42-.92-1.11-.92-.27 0-.8-.03-1.03.22-.3.36-1.49 5.13-1.64 5.78h-2l2-8ZM29.03 23H31l-.34 1h1.9L32 26h-2l-.88 3.36c-.08.26-.12.47-.12.64 0 .28.22.45.41.52.43.16 1.12.16 1.59.16 0 .32-.26 1.12-.3 1.32h-1.93c-.9 0-1.77-.37-1.77-1.37 0-.22.03-.45.1-.71 1-3.64 1-3.64 1.93-6.92ZM48.03 23H50l-.34 1h1.9L51 26h-2l-.88 3.36c-.08.26-.12.47-.12.64 0 .28.22.45.41.52.43.16 1.12.16 1.59.16 0 .32-.26 1.12-.3 1.32h-1.93c-.9 0-1.77-.37-1.77-1.37 0-.22.03-.45.1-.71 1-3.64 1-3.64 1.93-6.92ZM34.47 24h3.42c1.33.03 2.11.52 2.11 1.76 0 .35-.06.76-.2 1.24l-1.45 5h-1.74l-.13-.42L36 32h-2.43c-1.15 0-1.6-.71-1.58-1.58A3.57 3.57 0 0 1 35.58 27h2.35c.05-.15.07-.28.08-.4.02-.6-.53-.6-1.28-.6H34l.47-2Zm2.52 6.42.47-1.67h-2.22c-.64 0-1.27.49-1.24 1.18.02.36.28.49.73.49h2.26ZM44.6 26c-1.63 0-2.52 1.37-2.6 2.9-.04.9.5 1.1 1.21 1.1h2.07l-.55 2H42.4c-1.67 0-2.75-1.57-2.31-3.69.44-2.23 2.2-4.31 4.59-4.31H47l-.64 2h-1.75Z" fill="#131F6B"/></svg>