<!-- by TradingView --><svg width="56" height="56" viewBox="0 0 56 56" xmlns="http://www.w3.org/2000/svg"><path fill="#F0F3FA" d="M0 0h56v56H0z"/><path d="M11.33 37h17.04L34 27.34v-5.87c0-1.36-1.04-2.47-2.33-2.47H11.33C10.04 19 9 20.1 9 21.47v13.06C9 35.89 10.04 37 11.33 37Z" fill="#000FE0"/><circle cx="15" cy="28" r="7" fill="#F70504"/><path fill="#F0F3FA" d="m13.14 25.16 7.95-7.5 1.2 1.3-7.94 7.5zM13.65 28.64l12.28-11.58 1.21 1.3-12.28 11.59zM17.2 30.27 31.28 17l1.2 1.3-14.07 13.28z"/><path fill-rule="evenodd" d="M33.5 19c.32.24.97.88 1.03 1.53l.4 6.44-5.35 9.4c-.15.28.03.63.32.63h13.2c.29 0 .47-.34.32-.61l-5.09-9.42.33-6.44c.06-.36.35-1.16.99-1.53h-6.16Zm2 15.2c.9 0 1.63-.78 1.63-1.75 0-.96-.73-1.74-1.62-1.74-.9 0-1.62.78-1.62 1.74 0 .97.72 1.75 1.62 1.75Zm2.78 1.05c.63 0 1.14-.55 1.14-1.23 0-.68-.51-1.23-1.14-1.23-.64 0-1.15.55-1.15 1.23 0 .68.51 1.23 1.15 1.23Zm-1.3-.1c0 .43-.33.78-.74.78-.4 0-.73-.35-.73-.78 0-.44.33-.8.73-.8.4 0 .74.36.74.8Z" fill="#91FE05"/><path d="m44.4 36.3-5.3-9.22.36-6.05c.07-1.14.96-2.03 2.03-2.03h4.48c1.12 0 2.03.97 2.03 2.17V35.1c0 1.05-.8 1.9-1.77 1.9h-.64c-.48 0-.93-.27-1.18-.7Z" fill="#000FE0"/></svg>