<!-- by TradingView --><svg width="56" height="56" viewBox="0 0 56 56" xmlns="http://www.w3.org/2000/svg"><path fill="#F0F3FA" d="M0 0h56v56H0z"/><path d="m29 17 13 19.5-8 3.5-5-23Z" fill="#D9D399"/><path d="M12 39.75 17.31 37l17.24 3.68 5.51-3.22.94.18S34.77 42 34.5 42c-.27 0-22.5-2.25-22.5-2.25Z" fill="#679692"/><path d="m36 18.34 2.71-.34S41 19.97 41 22.42 38.71 28 28.9 28c-5.5 0-4.88-.56-4.88-.56s2.9.08 4.98.08c2.09 0 10-1.19 10-5.14-.03-2.97-3-4.04-3-4.04Z" fill="#9D9E9E"/><path d="M40.65 18h2.8S45 19.82 45 22.6c0 2.76-2.58 6.4-13.98 6.4-7.93 0-8.02-.7-8.02-.7s3.62.44 7.46.22C34.29 28.29 43 27.29 43 22.94c0-3.21-2.35-4.94-2.35-4.94ZM13.85 30l.23 1.52 1.92.3-1.78.64.25 1.54-1.32-1.14-1.78.66.97-1.35L11 31.05l1.9.3.95-1.35ZM21.23 23l-.47 1.14L22 25l-1.53-.01-.48 1.01-.46-1.01H18l1.24-.85-.47-1.14 1.22.7 1.24-.7ZM20.42 17l-.34 1.14.92.72h-1.15L19.5 20l-.36-1.14H18l.92-.72-.34-1.14.92.71.92-.71ZM12.42 19.17l.99.6.87-.77-.26 1.14.98.6-1.14.1-.25 1.16-.45-1.09-1.16.11.87-.77-.45-1.08ZM14.5 26a.5.5 0 1 0 0-1 .5.5 0 0 0 0 1ZM22.5 21a.5.5 0 1 0 0-1 .5.5 0 0 0 0 1ZM16.41 22.83c.23 0 .4-.18.4-.41a.41.41 0 0 0-.4-.42.41.41 0 0 0-.41.42c0 .23.18.41.41.41ZM15.4 15.83c.24 0 .42-.18.42-.41a.41.41 0 0 0-.41-.42c-.23 0-.41.19-.41.42 0 .23.18.41.4.41ZM13.4 13.83c.24 0 .42-.18.42-.41a.41.41 0 0 0-.41-.42c-.23 0-.41.19-.41.42 0 .23.18.41.4.41ZM23.41 14.83c.23 0 .4-.18.4-.41a.41.41 0 0 0-.4-.42.41.41 0 0 0-.41.42c0 .23.18.41.41.41ZM30 33.66c.11-.07 5.72-1.05 8.17-2.9L39 32s-6.37 2.05-9 1.66ZM31 32.33s4.8-.53 6-3.33l.76 1.14s-3.32 2.59-6.76 2.19Z" fill="#9D9E9E"/></svg>