<!-- by TradingView --><svg width="56" height="56" viewBox="0 0 56 56" xmlns="http://www.w3.org/2000/svg"><path fill="#F0F3FA" d="M0 0h56v56H0z"/><path d="M14.26 25c.81.02 1.74.15 1.74 1.1v.06c-.02 1.1-.35 2.24-1.52 2.52.44 0 .82.34.81.8 0 .51-.19 1.03-.3 1.52h-1.63l.2-.9c.11-.3-.03-.67-.4-.67h-1.2L11.64 31H10l1.24-6h3.02Zm-.41 1.5h-1.17c-.1.51-.31.99-.42 1.5h1.17c.57 0 .95-.66.9-1.22-.01-.26-.27-.28-.48-.28ZM7.63 25c1.09 0 1.7.17 2.06.56l.03.04c.28.33.35.82.22 1.5l-.02.08-.35 1.65C9.19 30.63 8 31 6.37 31c-1.12 0-1.75-.18-2.1-.6-.27-.34-.34-.83-.2-1.5l.01-.09.35-1.64c.38-1.8 1.56-2.17 3.2-2.17Zm-.32 1.5c-.76 0-1.03.07-1.24.85l-.01.06-.25 1.19c-.07.4-.07.6.04.73.12.14.38.17.81.17.77 0 1.06-.07 1.25-.86v-.06l.26-1.19c.07-.37.08-.57-.03-.72-.12-.14-.38-.17-.83-.17ZM35.63 25c1.09 0 1.7.17 2.06.56l.03.04c.27.33.35.82.22 1.5l-.02.08-.35 1.65C37.19 30.63 36 31 34.37 31c-1.12 0-1.75-.18-2.1-.6-.27-.34-.34-.83-.2-1.5l.01-.09.35-1.64c.38-1.8 1.56-2.17 3.2-2.17Zm-.32 1.5c-.76 0-1.03.07-1.24.85l-.01.06-.25 1.19c-.07.4-.07.6.04.73.12.14.38.17.81.17.77 0 1.06-.07 1.25-.86v-.06l.26-1.19c.07-.37.08-.57-.03-.72-.12-.14-.38-.17-.83-.17ZM25.47 27h1.41c.06-.28.12-.59.12-.87 0-1-.85-1.13-1.76-1.13h-.21c-1.36 0-2.2.15-2.52 1.81-.05.27-.07.5-.07.69 0 .27.06.48.16.64.26.38.79.42 1.51.47.19.02.93 0 1.04.16.06.08.03.18 0 .36-.08.45-.26.5-.93.5-.39 0-.6-.02-.7-.14-.12-.16-.02-.31-.02-.49h-1.42c0 .28-.08.52-.08.8 0 .33.07.57.2.76.33.44 1.03.44 1.77.44 1.79 0 2.78-1.04 2.73-2.66a.91.91 0 0 0-.14-.5c-.23-.33-.73-.44-1.58-.5-.17-.02-.87.01-1-.17a.47.47 0 0 1 0-.34c.05-.3.12-.46.86-.46h.11c.26 0 .43.02.5.11.08.12.06.25.02.47V27ZM30.41 27h1.47c.06-.3.11-.39.12-.7.03-1.15-.74-1.3-1.82-1.3-1.56 0-2.48.36-2.82 2.24-.13.75-.36 1.55-.36 2.32 0 1.26 1 1.44 2.1 1.44 1.45 0 2.23-.32 2.48-1.77l.04-.23h-1.47c-.1.57-.29.5-.96.5-.67 0-.7-.8-.58-1.47.14-.79.13-1.73 1.17-1.73.72 0 .74.13.63.7ZM44 25l-2 3.5c0-.2-.47-3.12-.5-3.5h-2.27L38 31h1.62c.25-1.47.49-2.95.77-4.42.18 1.47.44 2.95.61 4.42h1.29l2.32-4.42L43.55 31H45l1-4-.2.16c-.33-.43-.66-.91-.97-1.35l.97-.81H44ZM22 31l-.5-6H19l-3 6h3.52v-1h-1.17L20 26.61c.25 1.79.24 1.82.5 4.39H22Z" fill="#023879"/><path d="m47.18 24 .65.97-.83.88.5.68.26-.74c.08-.21.2-.4.37-.55h.33V25h.03c.24.05.9.26 1.05.93a.2.2 0 0 1 .06-.01c-.1-.4-.32-.7-.65-.92h.31c.16.14.51.47.53.87h.06s.03-.32-.44-.87c.11.02.22.06.31.1.17.21.27.46.3.75h.06c-.02-.27-.1-.52-.25-.73l.21.1c.13.18.2.4.19.63h.06c0-.2-.04-.4-.14-.57l.19.14c.16.19.06.54.06.54l.14.37-.04.06.32.7-.1.08c-.03.04-.03.13-.03.13l.2.97-.5-.07v.45l.73-.26L52 31h-6.2l1.54-4h.13l-.71-.95-.8.83-.8-1.1L47.19 24Zm-.21 1.9h-.02c-.04.04-.11.15-.06.22l2.8 3.88.16-.13-.34-.64.72-.4v-.67l-.62-.05s-.08-.06-.04-.11l1.18.1-.16-.82s-.06-.19.09-.23l-.26-.62a.1.1 0 0 0 .04-.11l-.13-.36s-.82-.07-1.23.47l-.04 2.37-2.1-2.9Zm3.35.44s.05.04.01.06l-.05.04c0 .09-.08.16-.16.16 0 0-.15.04-.2-.08a.75.75 0 0 0-.23.07c-.02.03-.1.11-.14.08h-.01l-.02-.14.8-.19Zm-.14.1-.18.04c.06.07.11.05.11.05.07 0 .07-.1.07-.1Z" fill="#9C9897"/></svg>