<!-- by TradingView --><svg width="56" height="56" viewBox="0 0 56 56" xmlns="http://www.w3.org/2000/svg"><path fill="#F0F3FA" d="M0 0h56v56H0z"/><path d="M16 42v-7.38l8.17 5.6c1.07.16 5.11.36 8.01-.68 2.9-1.03 5.13-5.06 6.03-6.6l1.27-7.58L35.12 16H42v26H16Z" fill="#007F3D"/><path fill-rule="evenodd" d="M26.5 41c8 0 14.5-6.94 14.5-15.5C41 16.94 34.5 10 26.5 10S12 16.94 12 25.5C12 34.06 18.5 41 26.5 41Zm1-1C33.3 40 38 35.08 38 29s-4.7-11-10.5-11S17 22.92 17 29s4.7 11 10.5 11Z" fill="#B8292F"/><path d="M25.6 22h6.72l-1.6 3H36v1h-5.8l-3.67 6.9c-.34.9-.53 2.7 1.41 2.7 1.95 0 4.92-2.45 6.16-3.6h1.95c-1.14 1.61-4.82 5-10.45 5-6.85 0-5.52-3.13-4.36-5.86l.1-.25c.5-1.2 1.4-3.08 2.28-4.89H20v-1h4.1l1.5-3Z" fill="#007E3C"/></svg>