<!-- by TradingView --><svg width="56" height="56" viewBox="0 0 56 56" xmlns="http://www.w3.org/2000/svg"><path fill="#F0F3FA" d="M0 0h56v56H0z"/><path d="M18.66 17.56c-4.13-2.06-5.96-5.47-6.2-6.56-.37 2.74.14 4.38.45 4.86L11 14.37c.2 2.24 2.29 4.54 3.31 5.41l-2.7-1.02c1.37 3.17 6.55 6.46 8.98 7.72l-1.08.2 5.16 2.45-3.8.83c-1.77.39-2.57 1.32-2.75 1.74H19l.51.89 1.57-.68-.9 1.06 3.72 1.38 1.11-1.18-.51 1.18c.46.23 2.25.36 3.1.4l.73-.93c-.04.28-.05.82.25.82s.56-.19.65-.29c1.2-2.57.16-3.9 6.38-3.9 4.98 0 7.99-1.36 8.87-2.04l-.9-.19c1.27-.14 2.38-1.22 2.78-1.74-.63.24-1.2.29-1.42.28 1.31-.66 2.59-2.37 3.06-3.14-1.8 1.4-4.75 1.73-5.54 1.73-.63 0-1.99.29-2.59.43l-4.56.79c1.01.4 3.03 1.28 3.03 1.65 0 .38-.4.68-.6.78-.15-.2-.6-.6-1.3-.6-.88 0-1.64.31-2.8.93-.93.5-1.8.7-2.13.73.23-.15.68-.59.68-1.06 0-.6-.94-1.28-.94-1.41 0-.14.72-.39 1.19-.6.37-.17.3-.41.22-.51l-5.68-2.86c-5.2-2.62-3.16-3.48-8.32-6.06Z" fill="#272E63"/><path d="M23.75 20.34 26.48 16l3.06 4h2.96l3.16 5.71c-2.33.6-5.53-1.13-7.64-2.27l-.95-.5a14.95 14.95 0 0 1-3.32-2.6Zm-4.47 7.1L12 39h31l-4.33-7.83c-1.3-.02-3.92 0-5.41.02-.7-.03-2.22.3-2.86 1.96l-.13.34c-.67 1.76-.75 1.97-2.82 1.97-2.2 0-9.11-1.46-10.1-3.97-.37-1.33 2.97-2.35 4.69-2.69l-2.76-1.36Z" fill="#CACDCC"/></svg>