<!-- by TradingView --><svg width="56" height="56" viewBox="0 0 56 56" xmlns="http://www.w3.org/2000/svg"><path fill="#F0F3FA" d="M0 0h56v56H0z"/><path fill-rule="evenodd" d="M28 44a16 16 0 1 0 0-32 16 16 0 0 0 0 32ZM14.5 31.5a.12.12 0 0 1-.04-.12l.04.12Zm1.17-6.09c1.17-.1 2.54-.24 2.83-.41.5-.28 0 1-1.5 1.5-.57.2-1 .24-1.36.27-.6.07-1.02.11-1.64.73.5-.17 1.8-.4 3 0 .7.23.96-.18 1.29-.68.39-.6.86-1.32 2.21-1.32 2.5 0 6 2 4.5 4a8.3 8.3 0 0 0-4.5-1.5c-.5.17-1.8.5-3 .5-.5 0-.83-.11-1.11-.2-.56-.19-.89-.3-1.89.7.67-.5 2.1-1.1 2.5.5-.5.5-1.5 1-2 1-.52 0-.65.42-.54.88.05-.17.4-.38 1.04-.38.5 0 1-.38 1.5-.75.5-.38 1-.75 1.5-.75H20c1.33.5 3.9 2 3.5 4l-.2.96c-.52 2.55-1.24 6.1-.8 6.54.5.5 2.5 1.5 3 1.5.4 0 .83-.33 1-.5.17.33.7 1 1.5 1s1.33-.33 1.5-.5c.33.17 1.2.4 2 0 .33-.17.78-.28 1.22-.39.9-.22 1.78-.44 1.78-1.11 0-.31-.1-.97-.22-1.76-.26-1.76-.62-4.2-.28-5.24.5-1.5 2-4 3.5-4 .83 0 1.2.3 1.53.58.27.22.52.42.97.42 1 0 1.5.5 2 1s0-.5-.5-1c-.25-.25-.5-.38-.75-.5-.25-.13-.5-.25-.75-.5-.2-.2-.45-.3-.68-.41-.37-.16-.63-.28-.32-.59.29-.29.41-.41.56-.46.1-.04.23-.04.44-.04.25 0 .5.25.75.5s.5.5.75.5c.4 0 .83-.33 1-.5h-1c-.5 0-1.5-.5-1-1 .25-.25.5-.25.75-.25s.5 0 .75-.25c.4-.4.5-.83.5-1-.17.17-.8.5-2 .5-.78 0-.88.27-1.01.6-.12.3-.27.66-.99.9-.6.2-1.11.24-1.61.28a4.4 4.4 0 0 0-2.39.72c-.57.38-1 .91-1.36 1.36-.6.73-1.02 1.26-1.64.64-1-1 3-6 4-6 .45 0 .8.1 1.18.21.47.14 1 .29 1.82.29.83 0 1.05.15 1.24.29.16.1.31.21.76.21.8 0 1.33-.33 1.5-.5-.67.33-1.9.8-1.5 0 .5-1 1-1 1.5-1s-1-.5-1.5 0-1 .5-2 .5-2 0-1.5-1c.38-.75.75-.66 1.13-.56.12.03.24.06.37.06.14 0 .32.04.53.09.53.11 1.25.27 1.97-.09-.83 0-2.4-.1-2-.5.4-.4 1.5-.83 2-1-.5-.17-1.7-.4-2.5 0-.2.1-.5.28-.86.5-1.44.86-3.84 2.3-4.64 1.5-1-1 0-2 .5-2 .15 0 .3.05.47.1.38.11.83.25 1.53-.1.4-.2.71-.47 1.01-.73.46-.4.88-.77 1.49-.77h2c-.67 0-2-.1-2-.5s.67-1.17 1-1.5c-.83.33-2.6 1.2-3 2-.33.65-.44.88-.62.96-.1.04-.2.04-.38.04-.5 0-2 0-1.5-.5.2-.2.3-.38.41-.55.16-.26.28-.45.59-.45h1c.33-.5 1.1-1.5 1.5-1.5.4 0 .83-.67 1-1-.17.17-.6.5-1 .5-.5 0-1.5.5-2 1s-1 1-1 0c0-.59.34-.83.63-1.03.2-.14.37-.26.37-.47v-2c0 .33-.1 1.1-.5 1.5-.5.5-1 1-1 1.5s0 1.5-1 1.5-1.5-1.5-1-1.5 1-.5 1-1 0-1.5 1-2c-.17-.17-.6-.4-1 0-.18.18-.3.49-.41.8-.22.58-.45 1.2-1.09 1.2v-1.5c.33-.33.8-1.2 0-2 0 .83-.1 2.3-.5 1.5-.4-.8-.5-1.33-.5-1.5-.17.17-.4.7 0 1.5.5 1 .5 2.5 0 2.5s-1.5 0-1.5-1c0-.41 0-.57-.04-.72l-.1-.32c-.08-.18-.2-.46-.36-.96a3.72 3.72 0 0 1-.22-1.01L28 14c-.1 0-.23.12-.22.49-.14.35-.28.75-.28 1.01 0 .17.06.44.11.72.11.56.22 1.11-.11.78L25 14.5c1.17 1.5 3.5 4.6 3.5 5 0 .5 0 1.5-.5 1-.2-.2-.5-.33-.84-.47-.49-.2-1.07-.44-1.66-1.03-.69-.69-.9-1.62-1.13-2.62-.1-.45-.22-.92-.37-1.38 0 .83-.1 2.4-.5 2L22 15.5c.5.67 1.6 2.1 2 2.5.5.5.5 1 0 1-.3 0-.62-.2-1.05-.45-.26-.17-.57-.36-.95-.55a5 5 0 0 0-2-.5c.5.17 1.6.6 2 1 .22.22.34.53.45.82.15.36.27.68.55.68.5 0 2 0 3 .5s2 1 1 2c-.53.53-.92.08-1.39-.46-.42-.48-.9-1.04-1.61-1.04-.43 0-.77.04-1.07.07-.75.1-1.21.15-1.93-.57-.3-.3-.5-.54-.67-.75-.42-.5-.62-.75-1.33-.75-.55 0-.95-.3-1.2-.5-.2-.15-.3-.22-.3 0 0 .5.5 1 1 1s1 .5.5.5c-.4 0-1.83.33-2.5.5.5.17 1.6.5 2 .5.15 0 .4-.05.66-.1.61-.11 1.34-.25 1.34.1 0 .5-1 1-1.5 1-.15 0-.3-.05-.47-.1-.38-.11-.83-.25-1.53.1-1 .5-.5.5.5.5h2c.5 0 .75-.13 1-.25.25-.13.5-.25 1-.25 1 0 2 0 2.5.5.17.17.44.33.72.5.56.33 1.11.67.78 1-.25.25-.88.25-1.63.25-.75 0-1.62 0-2.37.25-.62.2-.9.41-1.08.55-.26.2-.33.24-.92-.05a9.55 9.55 0 0 1-.84-.5c-.75-.47-1.57-1-2.66-1-1.2 0-1.5.67-1.5 1 .33-.33 1.2-.8 2 0 .53.53-.08.8-.83.91Zm0 0ZM29.5 21c0-.4.67-1.17 1-1.5.81.81.64 2.28.54 3.08L31 23c0 .5-1.5-1.5-1.5-2ZM28 26c0-1.2.33-2.5.5-3 .5-1 1.5 2 1.5 3s-.5 2.5-1 2.5-1-1-1-2.5Z" fill="#00985F"/><path fill-rule="evenodd" d="M14.5 31.5a1.55 1.55 0 0 1-.04-.12c.03-.1.15-.2.37-.28.17-.06.4-.1.67-.1.5 0 1-.38 1.5-.75.5-.38 1-.75 1.5-.75H20c1.33.5 3.9 2 3.5 4l-.2.96c-.52 2.55-1.24 6.1-.8 6.54.5.5 2.5 1.5 3 1.5.24 0 .48-.12.68-.25.14-.09.25-.18.32-.25.05.1.12.21.23.34.26.32.7.66 1.27.66.8 0 1.33-.33 1.5-.5.33.17 1.2.4 2 0 .33-.17.78-.28 1.22-.39.9-.22 1.78-.44 1.78-1.11 0-.31-.1-.97-.22-1.76-.26-1.76-.62-4.2-.28-5.24.5-1.5 2-4 3.5-4 .83 0 1.2.3 1.53.58.27.22.52.42.97.42.58 0 .99.17 1.33.4.2.15.38.31.55.48L42 32c.25.25.25.12.13-.13a4 4 0 0 0-.63-.88c-.25-.24-.5-.37-.75-.49-.25-.13-.5-.25-.75-.5-.2-.2-.45-.3-.68-.41-.37-.16-.63-.28-.32-.59.29-.29.41-.41.56-.46.1-.04.23-.04.44-.04.25 0 .5.25.75.5.13.13.26.26.39.35.12.1.24.15.36.15.14 0 .28-.04.42-.1.25-.11.47-.3.58-.4h-1c-.06 0-.12 0-.19-.02a1.78 1.78 0 0 1-.4-.13c-.34-.15-.61-.4-.53-.66a.47.47 0 0 1 .12-.19c.25-.25.5-.25.75-.25s.5 0 .75-.25c.14-.14.25-.29.32-.42.14-.25.18-.47.18-.58a1.4 1.4 0 0 1-.47.26c-.34.13-.84.24-1.53.24-.78 0-.88.27-1.01.6-.12.3-.27.66-.99.9-.6.2-1.11.24-1.61.28a4.4 4.4 0 0 0-2.39.72c-.57.38-1 .91-1.36 1.36-.6.73-1.02 1.26-1.64.64-1-1 3-6 4-6 .45 0 .8.1 1.18.21.47.14 1 .29 1.82.29.83 0 1.05.15 1.24.29.1.06.18.12.31.16.11.03.25.05.45.05.8 0 1.33-.33 1.5-.5-.48.24-1.25.55-1.5.4-.08-.04-.1-.14-.04-.3 0-.03.02-.06.04-.1.22-.44.44-.68.65-.82.19-.12.37-.16.55-.17L42 25c.15 0 .12-.04 0-.1a2.36 2.36 0 0 0-.97-.12.87.87 0 0 0-.53.22c-.5.5-1 .5-2 .5s-2 0-1.5-1c.38-.75.75-.66 1.13-.56.12.03.24.06.37.06a7.01 7.01 0 0 1 .53.09c.53.11 1.25.27 1.97-.09-.59 0-1.53-.05-1.9-.22-.09-.03-.14-.08-.16-.12-.02-.05 0-.1.06-.16.27-.27.84-.55 1.34-.75l.66-.25a4.52 4.52 0 0 0-.7-.17 3.13 3.13 0 0 0-1.8.17c-.2.1-.5.28-.86.5-1.44.86-3.84 2.3-4.64 1.5-1-1 0-2 .5-2 .15 0 .3.05.47.1.38.11.83.25 1.53-.1.4-.2.71-.47 1.01-.73.43-.38.82-.72 1.37-.76L38 21h2c-.6 0-1.77-.08-1.97-.4a.18.18 0 0 1-.03-.1c0-.2.17-.5.38-.79.21-.28.46-.55.62-.71-.24.1-.55.23-.88.4-.84.42-1.83 1.03-2.12 1.6-.33.65-.44.88-.62.96-.1.04-.2.04-.38.04-.5 0-2 0-1.5-.5.2-.2.3-.38.41-.55.16-.26.28-.45.59-.45h1c.33-.5 1.1-1.5 1.5-1.5a.6.6 0 0 0 .36-.15c.28-.22.52-.62.64-.85-.14.14-.48.4-.83.48A3.8 3.8 0 0 0 35 19.5c-.5.5-1 1-1 0 0-.59.34-.83.63-1.03.2-.14.37-.26.37-.47v-2c0 .3-.08.97-.4 1.38l-.1.12c-.5.5-1 1-1 1.5s0 1.5-1 1.5-1.5-1.5-1-1.5 1-.5 1-1c0-.43 0-1.24.65-1.77.1-.09.21-.16.35-.23a.79.79 0 0 0-.43-.21.66.66 0 0 0-.57.21c-.18.18-.3.49-.41.8-.17.44-.34.9-.69 1.1a.8.8 0 0 1-.4.1v-1.5c.07-.07.14-.16.21-.27.18-.29.31-.7.17-1.13a1.5 1.5 0 0 0-.38-.6 11.2 11.2 0 0 1-.1 1.39l-.05.16c-.03.1-.07.16-.12.18h-.03c-.05 0-.12-.07-.2-.23a2.7 2.7 0 0 1-.5-1.5c-.12.12-.27.42-.2.86.02.2.08.4.2.64.5 1 .5 2.5 0 2.5s-1.5 0-1.5-1c0-.41 0-.57-.04-.72l-.1-.32a15.68 15.68 0 0 1-.43-1.18c-.1-.34-.14-.6-.15-.8L28 14c-.1 0-.23.12-.22.49a4.36 4.36 0 0 0-.28 1.01c0 .17.06.44.11.72l.08.4a4.17 4.17 0 0 1 .02.17c.03.28 0 .42-.21.21L25 14.5c.47.6 1.14 1.48 1.76 2.33.91 1.24 1.74 2.43 1.74 2.67 0 .5 0 1.5-.5 1-.2-.2-.5-.33-.84-.47-.49-.2-1.07-.44-1.66-1.03-.69-.69-.9-1.62-1.13-2.62l-.04-.14c-.09-.4-.19-.82-.33-1.24 0 .36-.02.85-.07 1.27-.05.36-.12.67-.23.76-.06.05-.12.05-.2-.03L22 15.5a70.46 70.46 0 0 0 1.52 1.95c.2.24.37.44.48.55.5.5.5 1 0 1-.3 0-.62-.2-1.05-.45A7.62 7.62 0 0 0 22 18a5 5 0 0 0-2-.5 8 8 0 0 1 1.85.87l.15.13c.22.22.34.53.45.82.15.36.27.68.55.68.5 0 2 0 3 .5s2 1 1 2c-.53.53-.92.08-1.39-.46-.42-.48-.9-1.04-1.61-1.04-.43 0-.77.04-1.07.07-.75.1-1.21.15-1.93-.57-.3-.3-.5-.54-.67-.75-.42-.5-.62-.75-1.33-.75-.48 0-.84-.23-1.09-.41l-.03-.03-.08-.05v-.01c-.2-.15-.3-.22-.3 0a.83.83 0 0 0 .07.33c.16.37.54.67.93.67a.95.95 0 0 1 .5.15c.23.15.32.35 0 .35l-.17.01h-.01a17.75 17.75 0 0 0-2.32.49l.75.23c.48.14 1 .27 1.25.27.15 0 .4-.05.66-.1.61-.11 1.34-.25 1.34.1 0 .5-1 1-1.5 1-.15 0-.3-.05-.47-.1-.38-.11-.83-.25-1.53.1a6.64 6.64 0 0 0-.25.13c-.46.26-.34.34.09.36a4.8 4.8 0 0 0 .66.01h2c.5 0 .75-.13 1-.25.25-.13.5-.25 1-.25 1 0 2 0 2.5.5.17.17.44.33.72.5.56.33 1.11.67.78 1-.25.25-.88.25-1.63.25-.75 0-1.62 0-2.37.25-.62.2-.9.41-1.08.55l-.08.05c-.15.1-.24.15-.49.06L19.5 25a7.13 7.13 0 0 1-.68-.4l-.16-.1c-.75-.47-1.57-1-2.66-1-.49 0-.83.11-1.06.26a.92.92 0 0 0-.44.74c.13-.13.36-.3.63-.38.4-.12.9-.1 1.37.38.16.16.22.3.2.42-.06.26-.5.41-1.03.5a55.67 55.67 0 0 1 1.28-.13 11.3 11.3 0 0 0 1.34-.21c.1-.03.16-.05.21-.08.06-.03.1-.05.14-.04l.03.02c.03.04.02.13-.04.25a1.24 1.24 0 0 1-.1.2c-.25.35-.76.81-1.53 1.07-.57.2-1 .24-1.36.27a3.3 3.3 0 0 0-.78.15c-.27.1-.54.26-.86.58a4.97 4.97 0 0 1 3 0c.7.23.96-.18 1.29-.68.31-.48.69-1.05 1.54-1.25.19-.04.4-.07.64-.07h.03c2.36 0 5.6 1.78 4.7 3.66a2 2 0 0 1-.2.34 8.3 8.3 0 0 0-4.5-1.5c-.5.17-1.8.5-3 .5a2.95 2.95 0 0 1-1.11-.2c-.56-.19-.89-.3-1.89.7.44-.33 1.22-.7 1.8-.46.14.06.25.14.36.26.14.16.26.39.34.7-.5.5-1.5 1-2 1-.29 0-.45.13-.53.32a.96.96 0 0 0 0 .56c-.02.04 0 .09.03.12Zm2.7-2.61c.08.15.14.32.19.51l.02.07.14-.08c.28-.16.6-.29.95-.29h1.57l.07.03c.7.26 1.72.78 2.53 1.51.8.73 1.46 1.73 1.22 2.94l-.2.96c-.25 1.28-.56 2.79-.75 4.04-.1.63-.16 1.17-.17 1.58a2.82 2.82 0 0 0 .03.58 11.29 11.29 0 0 0 2.66 1.36.5.5 0 0 0 .03 0h.01c.1 0 .23-.04.39-.13.14-.09.27-.2.33-.25l.39-.4.25.5c.06.12.2.33.4.5.21.16.46.28.74.28.7 0 1.13-.3 1.22-.38l.2-.2.26.12a2 2 0 0 0 1.64 0c.37-.18.85-.3 1.28-.41h.03a6 6 0 0 0 1.14-.37c.28-.14.33-.25.33-.36 0-.27-.09-.89-.21-1.7v-.01c-.13-.87-.3-1.94-.37-2.9-.05-.5-.07-.97-.06-1.4a4 4 0 0 1 .16-1.12c.26-.79.78-1.83 1.44-2.68.33-.42.7-.81 1.1-1.1.4-.29.85-.49 1.34-.49.47 0 .82.09 1.12.22.28.13.5.3.65.44h.01c.27.23.42.34.72.34h.11a2.47 2.47 0 0 1-.4-.32 1.88 1.88 0 0 0-.55-.32h-.01l-.27-.14a.95.95 0 0 1-.28-.22.57.57 0 0 1-.12-.49.68.68 0 0 1 .09-.21c-.62.2-1.16.24-1.64.28h-.01a4 4 0 0 0-2.2.65c-.51.35-.9.83-1.27 1.28l-.44.52c-.14.15-.3.3-.48.4a.97.97 0 0 1-.67.13 1.25 1.25 0 0 1-.64-.38c-.24-.24-.3-.56-.28-.85.02-.3.12-.62.25-.94A15 15 0 0 1 34.03 26c.26-.25.52-.47.74-.62.12-.08.23-.15.35-.2a.96.96 0 0 1 .38-.09c.4 0 .72.07 1.02.15a.82.82 0 0 1-.02-.06c-.08-.29 0-.58.14-.87.09-.17.18-.31.28-.44-.54.31-1.12.63-1.69.86-.45.2-.91.34-1.33.38-.41.04-.86-.01-1.18-.34-.3-.3-.47-.62-.53-.95-.05-.33.01-.63.14-.88.12-.25.3-.46.5-.6.12-.09.27-.17.42-.21a.54.54 0 0 1-.25-.52.7.7 0 0 1 .22-.4 2.42 2.42 0 0 0 .36-.5c.07-.1.16-.26.29-.38a.61.61 0 0 1-.15-.19c-.09.19-.21.37-.4.51a1.49 1.49 0 0 1-1.9-.25l.09.6c.05.61-.02 1.21-.07 1.6v.01l-.04.38c0 .06 0 .2-.11.33a.45.45 0 0 1-.43.14.62.62 0 0 1-.22-.1 4.74 4.74 0 0 1-.71-.76 7.9 7.9 0 0 1-.74-1.21c-.04-.11-.09-.26-.09-.4 0-.2.08-.39.15-.54.08-.16.2-.32.3-.47.23-.3.49-.6.67-.77l.28-.29.28.29.13.13v-.14a.7.7 0 0 1 .13-.4.57.57 0 0 1 .46-.21.6.6 0 0 0 .4-.2.6.6 0 0 0 .2-.4v-.26l-.07.12c-.22.3-.55.54-1.03.54h-.35c-.08.21-.28.5-.65.5h-.02c-.24 0-.68 0-1.07-.15-.2-.09-.41-.22-.57-.44-.16-.22-.24-.49-.24-.81a23 23 0 0 0 0-.34.47.47 0 0 1-.36.33 27.77 27.77 0 0 1 1.01 1.56l.1.2a.7.7 0 0 1 .05.25v.02c0 .24 0 .65-.07.95-.02.08-.06.18-.1.26a.6.6 0 0 1-.28.26c-.32.14-.6-.07-.73-.2a2.2 2.2 0 0 0-.72-.4 5 5 0 0 1-1.78-1.1 3.3 3.3 0 0 1-.45-.56c0 .17-.07.35-.23.49a.81.81 0 0 1-.54.18 1.5 1.5 0 0 1-.65-.17c-.19-.09-.39-.21-.6-.34l-.05-.03a6.3 6.3 0 0 1 .13.31 2.28 2.28 0 0 0 .2.43c.26 0 .76 0 1.33.06.58.07 1.26.2 1.82.48.25.13.51.26.75.4.23.14.46.31.63.52.18.22.3.5.24.84-.05.31-.24.6-.52.88-.16.17-.35.3-.57.34a.9.9 0 0 1-.6-.1c-.17-.08-.31-.2-.44-.32a7.24 7.24 0 0 1-.35-.39 4.57 4.57 0 0 0-.65-.65 1.1 1.1 0 0 0-.67-.26c-.4 0-.72.04-1.02.07h-.04c-.35.05-.7.09-1.07.01a2.13 2.13 0 0 1-.97-.53V21c0 .26-.13.47-.26.63-.07.08-.15.15-.24.22.26-.12.57-.25 1.1-.25h.02c.48 0 1 0 1.47.07.47.06.95.2 1.3.55.12.12.34.26.64.44l.03.01c.25.16.57.34.77.55.1.1.23.26.26.46a.68.68 0 0 1-.2.6c-.24.23-.58.3-.87.34-.3.03-.67.03-1.03.03h-.02c-.76 0-1.57 0-2.24.23-.26.08-.45.17-.6.25 1.21.11 2.53.6 3.46 1.3.54.4.98.9 1.17 1.47.2.6.1 1.24-.34 1.84l-.24.32-.32-.24a7.92 7.92 0 0 0-4.2-1.42 11.2 11.2 0 0 1-3.36.49Zm3.16-8.49-.34-.4c-.22-.26-.33-.4-.46-.48a.63.63 0 0 0-.18-.08l.03.03c.05.05.1.12.15.2a.5.5 0 0 1 .02.38.5.5 0 0 1-.29.3c-.1.04-.2.05-.29.05a14.93 14.93 0 0 0-.89.14c.18.04.31.06.39.06.1 0 .3-.04.59-.09h.02c.29-.06.65-.13.94-.13.1 0 .2 0 .3.02Zm3.95-2.65a8.53 8.53 0 0 1-.18-.64.67.67 0 0 1-.18.23 6.46 6.46 0 0 0 .36.41Zm10.19.32a2.6 2.6 0 0 0 .1-.09v-.01l-.1.1Zm.46 2.03h.33c.17-.24.39-.52.62-.78-.25.14-.47.3-.63.46l-.32.32Zm1.23 1.42.06-.05.04-.04c.35-.3.77-.67 1.33-.79a.59.59 0 0 1-.02-.14c0-.15.04-.3.1-.42a9.33 9.33 0 0 0-.92.62c-.22.19-.36.35-.42.48l-.01.02-.16.32Zm1.41 1.97c.24-.04.46.02.6.05h.02a1.22 1.22 0 0 0 .32.06c0-.17.1-.3.18-.38.2-.2.5-.38.8-.54-.31 0-.6.06-.84.18-.18.09-.47.26-.83.48h-.02l-.23.15Zm2.17 2.34c.08.04.14.09.2.13l.1.06c.01-.07.04-.14.07-.2l.07-.13c-.14.06-.29.1-.44.14Zm-.08 2.28.27-.01H40a.86.86 0 0 1 .23-.38c.18-.19.38-.28.55-.33l-.27.01c-.35 0-.47.06-.5.1-.04.02-.07.06-.14.24v.02l-.17.35Zm1.6-.76a1 1 0 0 0 .24-.02c.03 0 .06-.02.09-.04-.1.03-.21.04-.33.06Zm-22.02-2.02a5.72 5.72 0 0 1-.2-.11 1.04 1.04 0 0 1-.13.3c.1-.07.21-.13.33-.19ZM18.1 26.4a3.75 3.75 0 0 1-1.39.6c.15.04.29.07.43.12.24.08.35.04.42-.01.12-.09.23-.24.4-.51l.02-.02.12-.18Zm.62-1.06Zm-.5-.65a4.62 4.62 0 0 0-1.78-.76c.12.08.24.17.35.29a.96.96 0 0 1 .32.65 19.92 19.92 0 0 0 1.1-.18Zm12.25-8.73Zm-2.33 6.89.01-.03c.09-.17.24-.37.5-.41.27-.05.47.1.58.2.23.23.43.6.59.99.16.4.3.85.41 1.27.1.42.18.83.18 1.13 0 .55-.14 1.23-.34 1.77-.1.26-.22.52-.37.72-.14.18-.37.41-.69.41a.93.93 0 0 1-.65-.3c-.16-.16-.3-.38-.4-.63A5.12 5.12 0 0 1 27.6 26c0-1.26.35-2.6.52-3.13v-.02Zm2.48-.04c-.44-.48-1.11-1.48-1.11-1.81 0-.3.4-.83.73-1.2l.27-.3c.1.1.18.2.25.32.52.83.37 2.06.29 2.76A23.53 23.53 0 0 0 31 23c0 .11-.08.1-.2 0a1.79 1.79 0 0 1-.19-.19Zm.47-.1ZM28.5 23c.5-1 1.5 2 1.5 3s-.5 2.5-1 2.5-1-1-1-2.5c0-1.2.33-2.5.5-3Z" fill="#080808"/><path d="M31 32v-2c0 .5.28 1.28.5 1.5.8.8 2-.67 2.5-1.5-.17.67-.6 2.1-1 2.5-.5.5-.5 0-1 1s0 1.5 0 2-.5.5 0 1 .5 2.5 0 2.5 0-1.5-1-2.5-.5-1 0-1.5-1-1-.5-1.5.5-.5.5-1.5Z"/><path d="M29 28.5c-.4 0-.83-.17-1-.5-.5.5 0 2 .5 3S27 35 27 36c0 .8.67 1.33 1 1.5-.5 1-1.5 3.1-1.5 3.5 0 .5.5 1.5 1.5 1.5 1.12 0 2.5-1 2.5-1.5s-2.5 1-3 0c-.4-.8 2-3.5 1.5-4-.5-1-1 0-1-1 0-.5 1-5 1.5-6s1.5-1.5 1.5-2c0-.4-.33-1.17-.5-1.5 0 .5-1 2-1.5 2ZM24.5 30c0-.4-1.67-1.17-2.5-1.5 1.6 0 2.67 1 3 1.5.8 0 .67-1.67.5-2.5.5.67 1.5 2.1 1.5 2.5 0 .5-1 3-1 3.5s.5.5.5 1-1 1-.5 1.5 0 .5 0 1 0 2.5-.5 2.5 0-3.5-.5-4.5 1.5-4 1-4.5c-.4-.4-.5.17-.5.5-.33-.17-1-.6-1-1ZM29.5 23c-.4-.4-1-.17-1-.5l1-1.5c0 1 1 1.5 1 2s1 1 .5 1.5c-.32.32-.28 1.67-.5 1-.5-1.5-.5-2-1-2.5ZM25.5 19.5c-.4-.4-.83-.17-1 0 .67.33 1.6 1 2 1 .5 0 .5.5 1 .5.7 0 .5 0 0-.5s-1.5-.5-2-1ZM24 25c-.4 0-.83-.33-1-.5 2.5 0 3-.5 3-1s1 .5.5 1-.5 1-1 .5-1 0-1.5 0Z"/></svg>