<!-- by TradingView --><svg width="56" height="56" viewBox="0 0 56 56" xmlns="http://www.w3.org/2000/svg"><path fill="#F0F3FA" d="M0 0h56v56H0z"/><path d="M14.83 26c1.3 0 2.16.66 2.16 2h-3.8l-.01-.14h2.36c.02-.51-.04-1.67-.78-1.67-.84 0-1.26 1.19-1.26 1.81 0 1 .5 2.25 1.74 2.25.61 0 1.15-.26 1.53-.74l.2.06c-.37.94-1.33 1.43-2.3 1.43-1.52 0-2.67-.87-2.67-2.45C12 26.9 13.26 26 14.83 26ZM36 29.84c0-1.07 1.27-1.28 2.08-1.52.2-.06.92-.3.92-.58V27c0-.32-.3-.59-.55-.72a.92.92 0 0 0-.47-.1c-.13 0-.27.01-.41.05a.74.74 0 0 0-.34.17c.2.06.34.16.44.29.11.12.17.26.17.42a.6.6 0 0 1-.25.5.9.9 0 0 1-.57.2c-.25 0-.43-.08-.57-.21a.75.75 0 0 1-.18-.51c0-.18.05-.33.14-.45.1-.12.25-.23.43-.33.19-.1.42-.18.69-.24.27-.05.57-.08.89-.08 1.24 0 2.07.36 2.07 1.63L40.5 30c0 .3.04.66.21.66.13 0 .24-.08.38-.16l.1.16c-.14.1-.31.2-.5.26A2.6 2.6 0 0 1 40 31c-.5 0-1-.17-1-.75-.17.23-.53.42-.77.55-.23.13-.5.19-.76.2-.97 0-1.47-.35-1.47-1.16Zm2.1.57c.3 0 .7-.12.9-.39v-1.9c-.13.19-.6.35-.8.48-.42.25-.73.57-.73 1.09 0 .48.25.72.64.72ZM24 29.84c0-1.07 1.27-1.28 2.08-1.52.2-.06.92-.3.92-.58V27c0-.32-.3-.59-.55-.72a.92.92 0 0 0-.47-.1c-.13 0-.27.01-.41.05a.74.74 0 0 0-.34.17c.2.06.34.16.44.29.11.12.17.26.17.42a.6.6 0 0 1-.25.5.9.9 0 0 1-.57.2c-.25 0-.43-.08-.57-.21a.75.75 0 0 1-.18-.51c0-.18.05-.33.14-.45.1-.12.25-.23.43-.33.19-.1.42-.18.69-.24.27-.05.57-.08.89-.08 1.24 0 2.07.36 2.07 1.63L28.5 30c0 .3.04.66.21.66.13 0 .24-.08.38-.16l.1.16c-.14.1-.31.2-.5.26A2.6 2.6 0 0 1 28 31c-.5 0-1-.17-1-.75-.17.23-.53.42-.77.55-.23.13-.5.19-.76.2-.97 0-1.47-.35-1.47-1.16Zm2.1.57c.3 0 .7-.12.9-.39v-1.9c-.13.19-.6.35-.8.48-.42.25-.73.57-.73 1.09 0 .48.25.72.64.72ZM18 29.84c0-1.07 1.27-1.28 2.08-1.52.2-.06.92-.3.92-.58V27c0-.32-.3-.59-.55-.72a.92.92 0 0 0-.47-.1c-.13 0-.27.01-.41.05a.74.74 0 0 0-.34.17c.2.06.34.16.44.29.11.12.17.26.17.42a.6.6 0 0 1-.25.5.9.9 0 0 1-.57.2c-.25 0-.43-.08-.57-.21a.75.75 0 0 1-.18-.51c0-.18.05-.33.14-.45.1-.12.25-.23.43-.33.19-.1.42-.18.69-.24.27-.05.57-.08.89-.08 1.24 0 2.07.36 2.07 1.63L22.5 30c0 .3.04.66.21.66.13 0 .24-.08.38-.16l.1.16c-.14.1-.31.2-.5.26A2.6 2.6 0 0 1 22 31c-.5 0-1-.17-1-.75-.17.23-.53.42-.77.55-.23.13-.5.19-.76.2-.97 0-1.47-.35-1.47-1.16Zm2.1.57c.3 0 .7-.12.9-.39v-1.9c-.13.19-.6.35-.8.48-.42.25-.73.57-.73 1.09 0 .48.25.72.64.72ZM31.78 33c-.57 0-2.35 0-2.35-.91 0-.2.1-.38.3-.54.21-.15.52-.27.92-.36l.1.15c-.14.1-.24.2-.31.31a.77.77 0 0 0-.09.35c0 .74 1.04.84 1.57.84.66 0 1.73-.18 1.73-1.03 0-.63-.74-.81-1.21-.81h-.68c-.55 0-1.5.04-1.5-.7 0-.27.12-.5.37-.7.24-.21.6-.52 1.07-.7l.11.08c-.14.07-.27.27-.4.36a.38.38 0 0 0-.17.33c0 .2.17.33.46.33h1.2c.83 0 2.1.17 2.1 1.24 0 1.5-2.13 1.76-3.22 1.76Zm.11-4c-.97 0-2.19-.3-2.19-1.48 0-1.17 1.21-1.52 2.19-1.52s2.19.35 2.19 1.52S32.86 29 31.89 29Zm0-.13c.63 0 .63-.92.63-1.35 0-.42 0-1.35-.63-1.35s-.63.93-.63 1.35c0 .43 0 1.35.63 1.35Zm1.71-2.05-.22-.06c.27-.6.73-.76 1.33-.76.24 0 .41.06.53.17.13.11.19.25.19.43 0 .2-.06.34-.18.43a.64.64 0 0 1-.4.14.6.6 0 0 1-.34-.12.46.46 0 0 1-.18-.34c-.02-.16.05-.37.19-.61l.07.05c-.47.15-.74.2-.99.67ZM46.5 25v5.07c0 .44.05.66.5.66V31h-2v-5.1c0-.45-.05-.66-.51-.66V25h2.01Zm-2.44 2c.27 0 .5.04.7.11.22.07.38.2.5.36l-.11.09a.65.65 0 0 0-.33-.26 1.04 1.04 0 0 0-.41-.08c-.9 0-1.02 1.06-1.02 1.72 0 .6.03 1.74.87 1.74.2 0 .4-.07.56-.2a.73.73 0 0 0 .27-.56l.05.27c-.1.26-.25.47-.46.6-.2.14-.47.21-.8.21-1.23 0-1.88-.9-1.88-2.07 0-1.22.84-1.93 2.06-1.93ZM49.86 26c.4 0 .9.06 1.25.28.24.15.39.04.45-.28h.22v1.55h-.22a1.7 1.7 0 0 0-.68-1.14 1.15 1.15 0 0 0-.72-.2c-.6 0-.97.58-.53 1.07.25.27.68.5 1.11.78.57.38 1.26.82 1.26 1.58 0 1-1.18 1.36-2 1.36a2.7 2.7 0 0 1-1.25-.3 2.22 2.22 0 0 0-.22-.09c-.14-.03-.25.16-.3.39H48v-2h.26c.09.65.3 1.28.69 1.58a1.24 1.24 0 0 0 1.09.14.6.6 0 0 0 .39-.58c0-.27-.1-.5-.3-.67-.6-.54-1.43-.88-1.9-1.56-.12-.2-.19-.4-.19-.64 0-.93 1.04-1.27 1.82-1.27Z" fill="#BD0C22"/><path d="M8.5 30.34c.5-2.18 3.17-4.23 4-4.75-1.2 0-3.17 2.1-4 3.17C9 24.53 11.5 24 13 24c1.2 0 1.83.35 2 .53-1.33 2.11-3.5 5.81-4.5 6.34-.9.47-1.5 0-2-.53Z" fill="#8CC63F"/><path d="M8.85 33c-.4-3.73-2.77-5.34-3.9-5.68l.1-.3c1.2.37 3.7 2.07 4.1 5.95l-.3.03Z" fill="#8CC63F"/><path d="M8.31 30.66H6.78v-.32h1.53v.32ZM7.15 27.17l.35 1.59h-.3l-.35-1.59h.3Z" fill="#8CC63F"/><ellipse cx="5.5" cy="30.34" rx="1.5" ry="1.06" fill="#BF1E2E"/><ellipse rx="1.58" ry="1.01" transform="matrix(.31256 .9499 -.93863 .34492 6.62 25.9)" fill="#BF1E2E"/></svg>