<!-- by TradingView --><svg width="56" height="56" viewBox="0 0 56 56" xmlns="http://www.w3.org/2000/svg"><path fill="#F0F3FA" d="M0 0h56v56H0z"/><path d="M28 21a1.5 1.5 0 1 0 0-3 1.5 1.5 0 0 0 0 3ZM47.5 24a1.5 1.5 0 1 0 0-3 1.5 1.5 0 0 0 0 3ZM8.5 24a1.5 1.5 0 1 0 0-3 1.5 1.5 0 0 0 0 3Z" fill="#FEC767"/><path fill-rule="evenodd" d="m43 36 3-11.5c-11 2-17.98-2.5-17.98-2.5C20 26.5 10 24.5 10 24.5L13 36h30Zm-6.99-1h1.36l.62-3.63c.04-.2-.09-.37-.25-.37h-2.82c-.12 0-.23.1-.26.25L34 35h1.3l.52-3.12c.03-.2.18-.34.34-.34.22 0 .38.24.34.5L36.01 35Zm-6.94-4L29 35h1.39l.61-1.76V35h1.72s1.1-1.05 1.28-4h-.91s.2 1.3-.43 2.5h-.16l-.16-2.5h-1.07l-.91 2.25V31h-1.29Zm-3 0h2.38c.35 0 .61.35.54.72l-.52 2.8c-.05.28-.27.48-.54.48h-2.38c-.35 0-.6-.35-.54-.73l.52-2.8c.05-.27.28-.47.54-.47Zm1.22 2.85.25-1.9c.02-.19-.1-.35-.27-.35-.26 0-.48.2-.51.49l-.24 1.8c-.02.18.1.35.27.35h.1c.2 0 .37-.17.4-.4ZM22 35h1.32l.45-3.27s.05-.39.31-.24c0 0 .2.1.32.9 0 0 .28.46.45-.06 0 0 .34-1.3 0-1.33h-2.07c-.12 0-.22.1-.24.25L22 35Zm-2.9-4h2.57c.71-.09.05 1.4.05 1.4-.18.47-.42.1-.42.1l-.7-.89c-.44-.4-.54.14-.54.14s-.4 2.36-.4 2.43c0 .46.4.2.4.2l1.09-.76c.57-.29.35.64.35.64-.1.83-.38.74-.38.74H18.3a.3.3 0 0 1-.29-.35l.53-3.14c.05-.3.3-.5.58-.5Z" fill="#2D2B72"/><path d="M9 23.52s12.5 2.5 19-2.52c0 0 6.04 5 19 2.5l-1 1C33.83 26.59 28 22 28 22c-6.97 4.63-17.96 2.5-17.96 2.5L9 23.52Z" fill="url(#aghezys05)"/><path d="M47 23.5 44 37l-1-1 3-11.5 1-1Z" fill="url(#bghezys05)"/><path d="M9 23.5 12 37l1-1-3-11.5-1-1Z" fill="url(#cghezys05)"/><path d="M43 36H12.89L12 37h32l-1-1Z" fill="#FDBE4F"/><path d="M22.23 25H31l-.94 4H21.4s-.51.08-.38-.56l.48-2.73s.08-.8.73-.7Z" fill="#CD141A"/><path d="M35 25.13v2.93l-.83.75s-.37.43-.85 0l-1.23-1.24s-.33-.41-.75.03l-1.17 1.12s-.28.41-.68.02l-1.47-1.34s-.28-.35-.7.03l-1.43 1s-.4.45-.94-.15l-.87-1.04s-.27-.27.18-.58l1.56-1.27s.41-.31.7.02l1.46 1.17s.2.22.47-.02l2.03-1.43s.26-.29.59 0l1.54 1.42s.35.37.73.04l1.07-1.16s.2-.35.59-.3Z" fill="#DDB456"/><defs><linearGradient id="aghezys05" x1="9" y1="23" x2="47" y2="23" gradientUnits="userSpaceOnUse"><stop offset=".05" stop-color="#FDCB71"/><stop offset=".5" stop-color="#FFF9EF"/><stop offset=".5" stop-color="#FDBE4F"/><stop offset="1" stop-color="#fff"/></linearGradient><linearGradient id="bghezys05" x1="43.08" y1="29.86" x2="47" y2="29.86" gradientUnits="userSpaceOnUse"><stop stop-color="#fff"/><stop offset="1" stop-color="#FDBE58"/></linearGradient><linearGradient id="cghezys05" x1="9.05" y1="29.87" x2="12.87" y2="29.87" gradientUnits="userSpaceOnUse"><stop stop-color="#fff"/><stop offset="1" stop-color="#FDBE4F"/></linearGradient></defs></svg>