<!-- by TradingView --><svg width="56" height="56" viewBox="0 0 56 56" xmlns="http://www.w3.org/2000/svg"><path fill="#F0F3FA" d="M0 0h56v56H0z"/><path d="M9 29.5 8.76 31h-3.7l.25-1.5H9ZM7 24l-1.24 7H4l1.23-7H7Zm2.2 2.5L8.8 28H5.6l.4-1.5h3.2ZM10 24l-.3 1.5H6l.3-1.5H10ZM21 29.5l-.24 1.5h-3.7l.25-1.5H21ZM19.05 24l-1.23 7H16l1.23-7h1.82Zm2.16 2.5-.4 1.5h-3.22l.41-1.5h3.2ZM22 24l-.3 1.5H18l.3-1.5H22ZM32.98 29.5l-.22 1.5h-3.7l.24-1.5h3.68ZM31.05 24l-1.23 7H28l1.23-7h1.82Zm2.16 2.5-.4 1.5h-3.22l.41-1.5h3.2ZM34 24l-.23 1.5h-3.7l.23-1.5H34ZM12 29l2-5h2l-3.2 7h-1.15l.35-2Zm0-5 .5 5-.28 2h-1.1L10 24h2ZM23.2 24h2.54c1.24.02 2.34.73 2.25 2.07-.07 1.08-.74 1.73-1.69 2.15l-.58.3h-2.3l.22-1.52 1.56.01c.6-.01 1.07-.18 1.16-.78.07-.48-.1-.7-.62-.73h-.71L24 31h-2l1.2-7Zm2.3 7-1-3h1.86l1.07 3H25.5ZM37.5 25.5 35 31h-2l3.4-7h1.06l.04 1.5Zm-.48 5.5-.52-5.5.31-1.5h1L39 31h-1.98Zm.98-2.5-.21 1.5h-3.2l.21-1.5H38ZM42.3 31h-1.6l.24-1.51 1.42.01c1.16 0 1.49-.83 1.64-1.87l.03-.3c.12-.81.3-1.8-.76-1.83h-1.6l.22-1.5h1.43c1.81.04 2.85 1.63 2.65 3.34l-.03.3A3.73 3.73 0 0 1 42.3 31Zm.7-7-1.22 7H40l1.21-7H43ZM48 24l.5 2.5L50 24h2l-2.59 4.56L49 31h-2.06l.45-2.6L46 24h2Z" fill="#EC1D25"/></svg>