<!-- by TradingView --><svg width="56" height="56" viewBox="0 0 56 56" xmlns="http://www.w3.org/2000/svg"><path fill="#8CC642" d="M0 0h56v56H0z"/><path d="M33.55 28.62s.16-1.06-.17-1.43c-.33-.37-.99-.95-.6-1.59.38-.63 1.26-.42 1.42-.63.17-.21.94-1.43 1.21-1.49.27-.05.88-.05.6.7-.16.42-1.2.84-1.2 1.16 0 .32-.06 1.37-.44 1.53 0 0-.05 1.06-.11 1.32-.06.27-.5.7-.71.43ZM29.04 26.34s-.98-.95.11-2.17c.44-.31.72 1.6.44 2.01l-.1 1.17s-.56-.1-.56-.27c0-.16.11-.74.11-.74Z" fill="#08486B"/><path fill-rule="evenodd" d="M22.02 45H16s-.01-11.09.04-12.42c.05-1.32 1.42-2.8 1.42-2.8-.21.26-.1.74-.1.74.22-.21 1.59-1.9.98-2.06-.6-.16-2.3 2.17-2.3 2.17v-2.54c.07-.11.5-.44.98-.82.7-.54 1.53-1.19 1.6-1.4.1-.38-.66.05-1.2.68-.56.64-1 .27-1 .27.26-.61 1.1-1.05 1.8-1.41.5-.26.93-.49 1-.7.17-.54-.99.2-1.2.36-.22.16-.72.27-.55-.05.49-1.16 2.74-1.48 2.74-1.48s.5-.16.16-.37c-1.8-.45-2.82 1.15-3.26 1.83l-.08.12c-.39.59-1.03.38-1.03.38V12h22.7c.33-.05.44.9.44.9s-.38-.1.06.21c.44.32 2.09 2.12 1.76 3.86-.3 1.54-1.47 2.17-2.05 2.48l-.2.12c-.44.26-.28-.4-.18-.88l.01-.02c.11-.48-.88-.48-1.32-.27-.37.18-.35-.48-.33-.91v-.2c0-.27-.67-.15-1.14-.06-.17.03-.32.06-.4.06-.1 0-.19-.05-.27-.09-.16-.07-.27-.13-.27.14 0 .43.71.85 1.37.96.65.1.6.15.34.46l-.01.01c-.28.32-.06 1.22.16 1.59.18.3.1.97.04 1.58l-.04.43c-.05.69-1.64.85-2.14.85-.3 0-.38.16-.44.3-.04.08-.08.16-.16.18-.22.05-.44.15-.77.52-.3.35-.47-.32-.53-.58l-.02-.05c-.02-.08-.07-.1-.13-.13-.1-.06-.21-.11-.14-.45.1-.46-.38-.05-.76.27l-.17.15c-.39.32-.66.16-.66.16-.05-.85-.5-1.06-.93-1.06-.28 0-.32.35-.35.67-.02.18-.03.35-.1.44-.14.24-.7-.18-1.14-.5a19.2 19.2 0 0 0-.17-.13c-.44-.32-.6.05-.6.58 0 .53-.33.7-.66.7s-.22.47-.06.73c.17.27.22.32 1 .21.6.08.47.35.33.64-.06.13-.12.25-.12.37 0 .14.19.36.4.62.35.4.78.91.64 1.33-.17.56-.74.3-1.12.11l-.25-.1c-.2-.07-.14.16-.07.4.05.16.1.33.07.44-.05.27.22.48.44.27.22-.22.82-.43 1.15-.38.33.06 1.2.16 1.7.06s.83-.27.83-.27.32.64.43.27c.11-.37.5-.32.77.05s-.06 1.06-.5 1.22c-.43.15-1.26.95-1.36 1.21-.11.27-.72 1.43-.72 1.43s-.6.27-.77 0c-1.72-2.68-2.4-2.53-2.94-2.42l-.24.04c-.6.05-1.92 1.64-2.08 2.06-.17.43 0 .7.38.48.39-.21.6-.05.6.16 0 .1-.1.21-.2.34a1.22 1.22 0 0 0-.33.52c-.1.27-.19.51.1.51.18 0 .2-.11.2-.22.02-.09.03-.18.13-.2.21-.05.49-.53.6-.74.04-.08.13-.1.24-.12.17-.03.39-.07.58-.36.33-.47 1.1.27.66.37-.3.1-.34.28-.37.45-.02.13-.03.25-.18.3a.46.46 0 0 1-.28-.02c-.15-.04-.25-.07-.32.39-.06.33-.17.34-.32.35-.15.02-.34.03-.5.44-.33.8.54 0 .54 0 .83-.1.17.58.17.58-.27.96.38.16.6-.2.22-.38.72-.33.72-.33l-.03.18-.01.08c.01.01.04 0 .1-.03.08-.05.23-.13.48-.23.52-.19 1.07-1 1.41-1.5.13-.2.23-.34.3-.4.21-.21.82-.1.93.05 0 .02.02.04.05.07.22.33.98 1.48 1.37 1.62.15.06.4.07.67.1.56.03 1.2.08 1.2.43 0 .53-.66.48-.66.48-1.1-.8-2.2-.69-3.78-.53a3.85 3.85 0 0 0-2.69 1.66l-.11.14c-.44.53-.17 1 .33.42.49-.58 1.2-.31.87.1-.82 1.28-.6 1.7-.43 1.65.05-.02.18-.17.32-.34.3-.36.68-.81.72-.46.13.75.74.78 1.17.8.27.02.46.03.42.21-.33 2.86-3.46 5.19-3.46 5.19h-1.75c.27 0 .71-.53.82-.74.06-.12-.1-.19-.22-.24-.1-.05-.18-.09-.1-.13.01-.02.04-.03.07-.05.26-.14.85-.47.8-1.17-.04-.56-.13-.36-.26-.08-.06.12-.12.25-.18.34-.22.32-.28-.2-.28-.2-.05-.32-.22-.54-.27-.38l-.04.12c-.1.37-.4 1.43-.84 1.9-.49.52-.6.31-.55.05.03-.12.13-.3.26-.52.16-.27.34-.6.4-.86.11-.47-.33-.95-.5-.53-.16.42-1.86 2.52-1.86 2.52Zm2.96-24.27c-.76.06-.87.74-.87.74.06.07.19.05.38.02.28-.05.7-.12 1.26.04.8.22 1.15-.5 1.37-.95l.11-.22c.22-.37.33.37.33.9s.82.64.99-.8c.16-1.42-1.65-1.9-1.87-1.42-.44.85-.93 1.64-1.7 1.7Zm-8.23-4.6s.44-1 1.1-1.06h.04c.7-.06 2.53-.21 4.95 2.17 0 0-.22.27-1.37-.05a8.94 8.94 0 0 1-1.88-.95c-.68-.41-1.24-.75-1.36-.59l-.08.14c-.13.21-.18.28-.68.24-.05.04-.4.35-.72.1Zm5.27-.95c-.1-.58-1.59-1.96-1.59-1.96s0-.53 1.82.05c1.75.57 2.52 2.32 2.72 2.77l.02.04c.16.37 1.04 1.21 1.04 1.21-.34-.2-.36-.08-.39.01 0 .06-.02.12-.1.1a1.8 1.8 0 0 1-.94-.8c-.22-.42-.93-1.74-1.2-2.16-.28-.43-.83-.22-.39.26.66.69.88 1.9.55 1.75-.3-.15-.87-1.25-1.18-1.85l-.08-.16c-.28-.54-.28.74-.28.74Zm10.48 6.77s-1.2-1.43-.22-2.75c.44-.53 1.48.1 1.76.58a3.46 3.46 0 0 0 1.76 1.32c.7.22.65.9.05.74-.4-.1-.76-.11-1.08-.12l-.46-.04c-.38-.05-.87-.63-.98-.9l-.44-.05s-.22.53-.06.74c.16.21-.1.64-.33.48Zm-7.24 1.8c-.39.1-.93-.74-.93-.74.16-.08.37.02.6.15l.22.11c.16.08.32.04.5 0s.4-.08.65 0c.5.16.16.53-.16.42-.32-.1-.48-.05-.83.04l-.05.02Z" fill="#08486B"/></svg>