<!-- by TradingView --><svg width="56" height="56" viewBox="0 0 56 56" xmlns="http://www.w3.org/2000/svg"><path fill="#F0F3FA" d="M0 0h56v56H0z"/><path d="M36 23h5c-.67 0-2.1.5-2.5 2.5-.4 2-1.17 5.17-1.5 6.5h3c.6 0 1.83-.33 2.35-1.57l.15-.43c-.04.16-.09.3-.15.43L41.5 33H33c.5 0 1.7-.5 2.5-2.5s1.33-4.83 1.5-6c0-.5-.2-1.5-1-1.5Z" fill="#E81E27"/><path d="M30.8 23.37c-1.8 0-3.04 2.15-3.7 3.6-.52 1.16-1.5 5.66 1.02 5.66 1.79 0 3.17-2.06 3.8-3.52.5-1.1 1.24-5.74-1.13-5.74Zm-5.94 3.02A7.15 7.15 0 0 1 30.94 23c3.98 0 4.99 3.93 3.23 6.67A7.3 7.3 0 0 1 27.98 33c-3.98 0-4.88-3.88-3.12-6.61ZM23 21h-6.5c1.6 0 1.67 1.67 1.5 2.5l-1.5 6c-.8 3.2-1 3-2.5 3.5h6c-2-.5-2.17-1.33-2-2l1.5-6c.8-3.2 2.67-4 3.5-4Z" fill="#E81E27"/><path d="M47 27.92c0 6.97-8.43 9.74-14 10.43v.5c7 0 15-5.16 15-10.93C48 21.34 39.05 16 28 16S8 21.34 8 27.92c0 11.32 18 11.43 23 10.93-6 0-22-1.4-22-10.93C9 19.52 21.71 17 28 17c6.29 0 19 2.52 19 10.93Z" fill="#E81E27"/><path d="M29.5 20.97H24c2 0 .17 1.98-1 2.98l-3.5 2.98c3 6.95 9.5 11.88 13.5 11.92a48.53 48.53 0 0 0 7-1.99c-2.4.8-4.3 1.13-6 1-6.5-.5-11.5-7.79-12.5-10.93 1.33-1.16 4.2-3.68 5-4.47.8-.8 2.33-1.33 3-1.5Z" fill="#E81E27"/></svg>