<!-- by TradingView --><svg width="56" height="56" viewBox="0 0 56 56" xmlns="http://www.w3.org/2000/svg"><path fill="#EB204D" d="M0 0h56v56H0z"/><path d="M6 23v-3h8.67c2.9 0 7.33.67 7.33 8s-5.4 8-7.33 8H6v-9.33l3-1.34V33h5.73c1.77 0 4.27-.5 4.27-5s-2.5-5-4.27-5H6Z" fill="#fff"/><path fill-rule="evenodd" d="M36 20h9.38c1.87 0 4.62 1.17 4.62 4.5 0 2-1 2.47-2 3 .63 0 3 .98 3 3.5 0 3.33-1.88 5-5 5H36V20Zm3 3h6c.63 0 2 0 2 1.5S45.62 26 45 26h-3.5L40 29h6c.63 0 2 .4 2 2s-1.38 2-2 2h-7V23Z" fill="#FEFBFF"/><path d="M22 23v-3h13v3H22ZM30 24.67 27 26v10h3V24.67Z" fill="#fff"/></svg>