<!-- by TradingView --><svg width="56" height="56" viewBox="0 0 56 56" xmlns="http://www.w3.org/2000/svg"><path fill="#F0F3FA" d="M0 0h56v56H0z"/><path d="m10.33 34.2.03-.09c.1-.3.08-.59-.3-.59-.3 0-.58.15-.69.5-.08.3 0 .42.36.56l.42.17c.5.19.66.5.48 1.1-.25.8-.93 1.15-1.68 1.15-.93 0-1.08-.44-.86-1.18l.04-.14h.66l-.03.12c-.13.44-.06.68.37.68.4 0 .67-.21.78-.56.08-.29-.01-.47-.24-.56l-.54-.22c-.5-.2-.65-.49-.46-1.1.21-.7.81-1.04 1.58-1.04.94 0 .98.56.84 1.04l-.05.17h-.7ZM13.3 34.9c-.22.15-.64.24-.88.35-.24.1-.39.33-.47.61-.09.32-.02.57.28.57.43 0 .74-.34.9-.9l.18-.64Zm.33 1.2c-.04.15 0 .28.1.28.05 0 .1 0 .13-.02l-.14.5c-.1.03-.24.08-.38.08-.31 0-.54-.13-.45-.5h-.01c-.3.38-.63.56-1.05.56-.56 0-.82-.34-.6-1.07.24-.84.63-1.02 1.16-1.19l.6-.17c.27-.07.45-.15.55-.48.1-.35.05-.57-.33-.57-.47 0-.64.37-.74.73h-.67c.23-.8.67-1.25 1.6-1.25.62 0 1.05.26.85.93l-.62 2.18ZM15.44 33h.7l-.13.56h.02c.29-.35.7-.56 1.05-.56.53 0 .67.27.69.6.32-.38.66-.6 1.1-.6.53 0 .83.28.6 1.04L18.62 37h-.75l.79-2.67c.15-.51.06-.7-.24-.7s-.67.25-.82.75L16.83 37h-.75l.79-2.67c.15-.51.06-.7-.25-.7-.3 0-.66.25-.8.75L15.03 37h-.74l1.14-4ZM21.82 34.57l.07-.2c.14-.48.1-.85-.32-.85-.48 0-.77.48-.92.98l-.02.07h1.2m-1.36.53-.07.22c-.15.5-.28 1.16.28 1.16.53 0 .78-.62.85-.85h.7c-.25.84-.91 1.37-1.72 1.37-.6 0-1.3-.18-.77-1.94.3-1 .83-2.06 2-2.06 1.03 0 1.12.64.8 1.7l-.11.3h-1.95M24.98 34.57l.06-.2c.14-.48.1-.85-.32-.85-.47 0-.76.48-.91.98l-.03.07h1.2m-1.36.43-.06.32c-.16.5-.29 1.16.27 1.16.53 0 .78-.62.85-.85h.7c-.25.84-.9 1.37-1.72 1.37-.6 0-1.3-.18-.77-1.94.3-1 .83-2.06 2-2.06 1.03 0 1.11.64.8 1.7l-.13.3h-1.94ZM27.07 33h.79l-.2.71h.02c.31-.43.7-.71 1.14-.71.09 0 .13.01.18.03l-.25.8a1.2 1.2 0 0 0-.31-.05c-.36 0-.84.16-1.07.88L26.64 37h-.79l1.22-4Z" fill="#ED2224"/><path d="M31.16 34.9c-.23.15-.65.24-.9.35-.23.1-.38.33-.46.61-.1.32-.02.57.28.57.42 0 .73-.34.9-.9l.18-.64Zm.32 1.2c-.04.15 0 .28.1.28.05 0 .1 0 .13-.02l-.14.5c-.1.03-.24.08-.38.08-.31 0-.54-.13-.45-.5h-.01c-.3.38-.63.56-1.04.56-.57 0-.83-.34-.62-1.07.25-.84.64-1.02 1.17-1.19l.6-.17c.27-.07.45-.15.55-.48.1-.35.05-.57-.32-.57-.48 0-.65.37-.75.73h-.67c.23-.8.66-1.25 1.6-1.25.62 0 1.05.26.85.93l-.62 2.18ZM33.22 33.83h-.57l.19-.56h.56l.12-.34c.23-.71.68-.93 1.34-.93.18 0 .33 0 .44.02l-.2.58h-.22c-.3 0-.47.1-.55.35l-.11.32h.66l-.19.56h-.66L32.96 37h-.81l1.07-3.17ZM35.47 33h.79l-.2.71h.02c.31-.43.7-.71 1.14-.71.09 0 .13.01.18.03l-.25.8a1.2 1.2 0 0 0-.32-.05c-.35 0-.84.16-1.06.88L35.04 37h-.79l1.22-4ZM38.13 32h.68l-.2.75h-.7l.22-.75Zm-.36 1.27h.68L37.4 37h-.69l1.06-3.73ZM41.16 35.52c-.33.9-.8 1.48-1.73 1.48-1.08 0-1.14-.82-.78-2 .35-1.18.91-2 2-2 1.11-.01 1 .9.86 1.36h-.75c.1-.35.15-.8-.29-.8-.54 0-.82.6-1.07 1.44-.26.84-.34 1.43.2 1.43.41.01.68-.34.85-.91h.7ZM43.76 34.9c-.23.15-.65.24-.9.35-.23.1-.38.33-.46.61-.09.32-.02.57.28.57.42 0 .73-.34.9-.9l.18-.64Zm.32 1.2c-.04.15 0 .28.1.28.05 0 .1 0 .13-.02l-.14.5c-.1.03-.24.08-.38.08-.31 0-.54-.13-.45-.5h-.01c-.3.38-.63.56-1.04.56-.57 0-.83-.34-.62-1.07.24-.84.64-1.02 1.17-1.19l.6-.17c.27-.07.45-.15.55-.48.1-.35.05-.57-.33-.57-.47 0-.64.37-.74.73h-.67c.23-.8.66-1.25 1.6-1.25.62 0 1.05.26.85.93l-.62 2.18ZM20.87 31h-.63l4.4-12h.62l-4.4 12Z" fill="#020303"/><path d="M20.87 31h1.83l4.4-12h-1.84l-4.4 12Z" fill="#ED2224"/><path d="M26.95 31H22.7l4.4-12h4.25l-4.4 12Z" fill="#A41D21"/><path d="M39.15 31H34.9l4.4-12h4.25l-4.4 12Z" fill="#4E4E4E"/><path d="M31.85 31h-4.58l4.4-12h4.58l-4.4 12Z" fill="#020303"/><path d="M34.71 31h-2.43l4.4-12h2.43l-4.4 12ZM44.6 31H42l4.4-12H49l-4.4 12ZM19.76 31H8.05l4.4-12h11.71l-4.4 12Z" fill="#ED2224"/></svg>