<!-- by TradingView --><svg width="56" height="56" viewBox="0 0 56 56" xmlns="http://www.w3.org/2000/svg"><path fill="#F0F3FA" d="M0 0h56v56H0z"/><path d="m20.37 22 .77 2.09L22.56 22H24l-2.2 3.03L23.05 28H21.7l-.8-2.13L19.47 28H18l2.26-3.08L19.04 22h1.33ZM26.62 26h-1.5l.16-1h1.38c.59 0 1.07-.46 1.15-1.05.08-.5-.17-.93-.7-.95H26l-.84 5H24l1-6h2.14c1.1.03 1.94.81 1.85 1.94-.1 1.25-1.19 2.06-2.37 2.06ZM30.03 22h2.09c1.05.02 1.95.64 1.87 1.77-.1 1.22-.47 1.73-1.9 2.23h-1.94l.17-1h1.32c.58 0 1.07-.54 1.15-1.13.07-.5-.2-.85-.71-.87h-1.02l-.87 5H29l1.03-6Zm2.22 6-.86-2.67 1.2-.01.93 2.61V28h-1.27ZM38.13 27l-.18 1h-3.13l.17-1h3.14Zm-1.86-5-1.05 6H34l1.05-6h1.22Zm1.67 2.5-.16 1h-2.73l.17-1h2.72ZM39 22l-.17 1H35.7l.17-1H39ZM42.3 26.36c.1-.55-.51-.77-.94-.91-.8-.3-1.78-.8-1.71-1.8.08-1.17 1.38-1.67 2.4-1.65 1.05.02 1.98.89 1.95 2h-1.22c.04-.53-.26-.99-.78-1-.47 0-1.05.15-1.13.66-.1.52.59.7.95.84.85.29 1.76.82 1.7 1.85-.1 1.19-1.32 1.66-2.37 1.65-1.12-.02-2.18-.77-2.15-2h1.23c-.05.64.31.99.92 1 .47 0 1.06-.13 1.14-.64ZM47.3 26.36c.1-.55-.51-.77-.94-.91-.8-.3-1.78-.8-1.71-1.8.08-1.17 1.38-1.67 2.4-1.65 1.05.02 1.98.89 1.95 2h-1.22c.04-.53-.26-.99-.78-1-.47 0-1.05.15-1.13.66-.1.52.59.7.95.84.85.29 1.76.82 1.7 1.85-.1 1.19-1.32 1.66-2.37 1.65-1.12-.02-2.18-.77-2.15-2h1.23c-.05.64.31.99.92 1 .47 0 1.06-.13 1.14-.64Z" fill="#E61B22"/><path d="m19.47 29-.74 2H18l.75-2h.72ZM22 29l-2.06.97-1.16.5v-.38l.83-.4 1.46-.69H22Zm-1.52 2-1.04-.96.56-.22L21.29 31h-.81ZM24.46 30.73l-.1.27h-1.91l.09-.27h1.92ZM23.38 29l-.64 2H22l.65-2h.73Zm1.11.84-.08.26h-1.67l.09-.26h1.66ZM25 29l-.09.27h-1.9l.09-.27H25ZM29 29l-.74 2h-.69l-1.33-1.45-.52 1.45H25l.74-2h.69l1.33 1.45.53-1.45H29ZM30.65 29l.52.95 1.12-.95H33l-1.5 1.28-.23.72h-.73l.24-.75L30 29h.65ZM35.8 29.28 33.83 31H33l2.43-2h.54l-.17.28Zm.43 1.72-.64-1.75.04-.25h.5l.87 2h-.77Zm.22-.74-.11.27h-2.4l.12-.27h2.39ZM40.58 30.26h-.93l.08-.28h.87c.14 0 .26-.01.37-.04a.8.8 0 0 0 .28-.11.32.32 0 0 0 .14-.2.2.2 0 0 0-.02-.18.35.35 0 0 0-.18-.12.96.96 0 0 0-.3-.05h-.63L39.73 31H39l.62-2h1.28c.22 0 .42.03.59.08.17.05.3.12.4.21.09.1.12.2.1.33a.52.52 0 0 1-.23.36c-.13.1-.3.16-.51.2-.2.05-.43.08-.67.08ZM45 30.73l-.11.27h-2.32l.12-.27H45ZM43.62 29l-.82 2H42l.82-2h.8ZM47.85 30.34h.81c-.05.14-.18.26-.37.36-.2.1-.44.17-.73.23a5.17 5.17 0 0 1-1.77-.01 1.52 1.52 0 0 1-.52-.22.65.65 0 0 1-.24-.29.48.48 0 0 1 0-.33l.06-.16a.93.93 0 0 1 .24-.35c.12-.1.28-.2.47-.3a3 3 0 0 1 .69-.2 4.7 4.7 0 0 1 1.76.02c.24.06.42.13.54.23.13.1.2.22.21.35h-.82a.3.3 0 0 0-.08-.2.53.53 0 0 0-.26-.15 2.6 2.6 0 0 0-1.1 0c-.16.04-.3.09-.41.15a.96.96 0 0 0-.27.22.81.81 0 0 0-.14.23l-.06.16a.62.62 0 0 0-.04.21c0 .07.03.14.07.21.05.07.13.12.25.16a2.82 2.82 0 0 0 1.08.03c.16-.03.3-.08.4-.14.1-.06.18-.13.23-.2Z"/><path d="M6.48 22.8c0-3.3 7.5-3.36 11.5-1.85-1.85.36-7 .2-7 1.85 0 1.65 4.8 2.16 7 2.16-3.54 1.1-8 2.5-8 5.52 0 4.23 22.82 3.32 41.02 1.67C48.47 33.8 26.4 36 16.98 36 13.95 36 5 35.48 5 31.05c0-3.58 3.38-4.17 6.98-5.59-3.1-.59-5.5-.46-5.5-2.66Z" fill="url(#azgrbae0j)"/><defs><linearGradient id="azgrbae0j" x1="4.98" y1="29.29" x2="48.95" y2="29.29" gradientUnits="userSpaceOnUse"><stop stop-color="#E0E1E5"/><stop offset=".33" stop-color="#999B9F"/><stop offset="1" stop-color="#4C5356"/></linearGradient></defs></svg>