<!-- by TradingView --><svg width="56" height="56" viewBox="0 0 56 56" xmlns="http://www.w3.org/2000/svg"><path fill="#F0F3FA" d="M0 0h56v56H0z"/><path d="M37.56 38.26a3.1 3.1 0 0 1 .92 4.32 3.2 3.2 0 0 1-4.39.91l-10.9-6.96s-3.62-2.35-3.9-2.51a5.39 5.39 0 0 1-1.9-2.08s-.95-1.63.1-4.25c.03-.08.36-.88.99-1.69l19.08 12.26Z" fill="#31D700"/><path d="m21.47 14.77-1.58 1.01c-.28.22-1.85 1.42-1.89 4.16 0 .16-.08 2.6 2.25 4.2.27.2 5.14 3.24 5.14 3.24l9.9 6.2L37.54 35s1.65-1.93 1.44-4.3c-.02-.23.02-1.58-1.9-3.21-.17-.16-1.96-1.27-1.96-1.27l-4.85-3.03-3.84-2.41-1.49-.94 5.64-3.54c.8-.5 1.51-.87 1.87-1.36.08-.12.88-1.01.61-2.47-.03-.14-.13-.76-.71-1.4 0 0-.65-.9-2.14-1.05 0 0-.67-.12-1.58.26l-1.34.81-2.53 1.6-3.29 2.08Z" fill="#0675EB"/><path d="m30 20 3.1 1.91c.29.16.9.56 1.19.71a3.3 3.3 0 0 0 4.05-.79c.06-.07.66-.75.66-1.82 0-.1.05-1-.72-1.91-.07-.08-.7-.85-1.98-1.07a3.43 3.43 0 0 0-2.32.52l-2.27 1.4L30 20Z" fill="#38D200"/><path d="m26 41-3.1-1.91c-.28-.16-.9-.56-1.19-.71a3.3 3.3 0 0 0-4.05.79c-.06.07-.66.75-.66 1.82 0 .1-.05 1 .72 1.91.07.08.7.85 1.98 1.07.2.03 1.24.16 2.31-.52l2.27-1.4L26 41Z" fill="#0375F2"/></svg>