<!-- by TradingView --><svg width="56" height="56" viewBox="0 0 56 56" xmlns="http://www.w3.org/2000/svg"><path fill="#F0F3FA" d="M0 0h56v56H0z"/><path d="M44.3 18.34c.64 1.03.76 2.13.28 2.47-.48.33-1.38-.22-2.01-1.25-.64-1.02-.76-2.13-.28-2.46.49-.34 1.39.22 2.02 1.24ZM45.7 20.56c-.64 1.03-.76 2.13-.28 2.47.48.33 1.38-.23 2.01-1.25.64-1.02.76-2.13.28-2.46-.49-.34-1.39.22-2.02 1.24ZM44.3 27.22c.64 1.02.76 2.13.28 2.46-.48.34-1.38-.22-2.01-1.24-.64-1.03-.76-2.13-.28-2.47.49-.33 1.39.23 2.02 1.25ZM45.7 29.44c-.64 1.02-.76 2.13-.28 2.46.48.34 1.38-.22 2.01-1.24.64-1.03.76-2.13.28-2.47-.49-.33-1.39.22-2.02 1.25ZM44.3 22.78c.64 1.03.76 2.13.28 2.47-.48.33-1.38-.23-2.01-1.25-.64-1.03-.76-2.13-.28-2.46.49-.34 1.39.22 2.02 1.24ZM45.7 25c-.64 1.03-.76 2.13-.28 2.46.48.34 1.38-.22 2.01-1.24.64-1.03.76-2.13.28-2.47-.49-.33-1.39.23-2.02 1.25Z" fill="#DC890D"/><path d="M37 30.5V21h1v9.5c0 1.5 1 2.5 2 2.5h1v1h-1c-2 0-3-1.5-3-3.5ZM25 29.5a3.5 3.5 0 1 1-7 0 3.5 3.5 0 0 1 7 0Zm0 2.83V34h1v-4.5a4.5 4.5 0 1 0-1 2.83ZM28 29.5a3.5 3.5 0 1 1 7 0 3.5 3.5 0 0 1-7 0Zm0-2.83V21h-1v8.5a4.5 4.5 0 1 0 1-2.83ZM14.19 31.74a3.5 3.5 0 1 1 .77-1.74h1.01a4.5 4.5 0 1 0-.83 2.14l-.95-.4Z" fill="#AB2D2A"/><path d="M7.5 29h7.46l1.04.5v.5H7.5v-1Z" fill="#AB2D2A"/></svg>