<!-- by TradingView --><svg width="56" height="56" viewBox="0 0 56 56" xmlns="http://www.w3.org/2000/svg"><path fill="#F0F3FA" d="M0 0h56v56H0z"/><path d="M12 32.04v-15c0-1.35.83-4.04 4.15-4.04.6 0 2.01.23 2.96 1.15.95.92 8.18 6.61 11.35 9.32l.04.03-.04-.03c-.25-.2-1.11-.47-2.46-.47-1.78 0-5 1.3-5 5v13l-11-8.96Z" fill="#0776BB"/><path d="M44 23.96v15c0 1.35-.83 4.04-4.15 4.04-.6 0-2.01-.23-2.96-1.15-.95-.92-8.18-6.61-11.35-9.32a.39.39 0 0 1-.04-.03l.04.03c.25.2 1.11.47 2.46.47 1.78 0 5-1.3 5-5V15l11 8.96Z" fill="#0776BB"/></svg>