<!-- by TradingView --><svg width="56" height="56" viewBox="0 0 56 56" xmlns="http://www.w3.org/2000/svg"><path fill="#F0F3FA" d="M0 0h56v56H0z"/><circle cx="42" cy="20" r="3" fill="#AB3C1F"/><path d="M42 24.5a4.5 4.5 0 0 0 4.1-6.37 5 5 0 1 1-8.19 0A4.48 4.48 0 0 0 42 24.5Z" fill="#706D6E"/><path d="M11 30.44c0 .7-.15 1.31-.44 1.84-.3.54-.7.96-1.24 1.27-.53.3-1.16.45-1.88.45s-1.33-.15-1.84-.44c-.52-.3-.91-.7-1.2-1.23a3.77 3.77 0 0 1-.4-1.77c0-.69.15-1.3.44-1.83.3-.54.7-.97 1.24-1.27.53-.3 1.16-.46 1.88-.46.71 0 1.32.15 1.83.44.52.3.91.7 1.2 1.23.27.51.41 1.1.41 1.77Zm-1.24.1c0-.4-.04-.78-.12-1.15-.08-.37-.2-.7-.39-1.01-.17-.3-.4-.54-.68-.71a1.93 1.93 0 0 0-1.05-.27 2 2 0 0 0-1.07.27c-.28.18-.52.41-.7.7-.17.3-.3.64-.38 1a5.24 5.24 0 0 0 0 2.24c.08.37.22.7.4 1 .17.3.41.55.7.73.3.18.66.27 1.08.27a1.93 1.93 0 0 0 1.72-.95c.18-.3.3-.63.37-1 .08-.36.12-.74.12-1.12ZM12 34v-.32c.67-.07 1-.06 1-.8v-4.63c0-.8-.25-.87-1-.93V27h3v.32c-.68.05-1 .06-1 .8v5.45h1.67c.58 0 1-.12 1.29-.37.23-.21.72-1.2.72-1.2H18l-.2 1.18-.13.81L12 34ZM22.76 28.4l-1.3 2.62v1.73c0 .74.14.86.87.93.02.1 0 .32 0 .32H19.6s-.02-.2 0-.32c.64-.07.88-.1.88-.8v-1.76l-1.35-2.77c-.1-.23-.2-.4-.26-.53-.2-.37-.47-.45-.87-.5V27h2.62s.02.2 0 .32c-.32.03-.81.05-.65.48l.13.28 1.16 2.44 1.17-2.43c.31-.65-.04-.69-.65-.77V27H24v.32c-.43.05-.71.14-.94.53a6.8 6.8 0 0 0-.3.56ZM29.51 32.45l2.1-5.45H34v.3c-.58 0-1 .2-1 .8v4.64c0 .78.24.86 1 .92V34h-3v-.34c.57 0 1-.18 1-.8v-5.31L29.4 34h-.46l-2.32-6.25v5.12c-.02.68.13.71.76.8V34H25v-.34c.7-.09.98-.18 1-.92V27.6c-.1-.3-.77-.28-1-.3V27h2.5l2.01 5.45ZM38 31h-1v2c0 .5 1.2.66 1.55.68V34H35v-.32c.69-.06.99-.02.99-.8v-4.63c0-.83-.2-.86-.99-.92L35 27h3.36c1.2 0 2.64.41 2.64 1.84 0 1.62-1.5 2.16-3 2.16Zm-1-.6c.1.03.56.05.68.07.12.02.24.03.38.03.94 0 1.58-.67 1.58-1.6 0-.94-.57-1.5-1.7-1.5-.14 0-.72.01-.94.04v2.97ZM43 28.12v4.63c0 .71.27.87 1 .93V34h-3v-.32c.66-.07 1-.07 1-.8v-4.63c0-.77-.26-.87-1-.93V27h3v.32c-.66.06-1 .09-1 .8ZM45 34v-.32c.43-.04.74-.12.94-.52.07-.15.16-.35.25-.6L48.27 27h.51l2.07 5.65.23.56c.17.4.52.43.92.47V34h-3v-.32c.22-.02.95.02.95-.32a8.84 8.84 0 0 0-.1-.43l-.56-1.52h-2.16l-.48 1.36-.1.32c-.14.56.38.55.8.6V34H45Zm2.27-3h1.88l-.94-2.64-.94 2.64Z"/></svg>