<!-- by TradingView --><svg width="56" height="56" viewBox="0 0 56 56" xmlns="http://www.w3.org/2000/svg"><path fill="#F0F3FA" d="M0 0h56v56H0z"/><path d="M19 34.03v4.32L16 34v.03h-2V42h2v-4.28L19 42h2v-7.97h-2ZM27.5 39.2c-.35.49-.9.8-1.52.8A1.93 1.93 0 0 1 24 38c0-1.27.94-2 1.98-2 .64 0 1.2.33 1.54.83L29 35.52A3.89 3.89 0 0 0 25.92 34 3.96 3.96 0 0 0 22 38c0 2.2 1.76 4 3.92 4 1.23 0 2.33-.58 3.05-1.48l-1.48-1.31ZM34.06 37.7a1.91 1.91 0 0 0 1.51-1.82c0-1.04-.9-1.88-2.03-1.88H30v8h3.65c1.3 0 2.35-.97 2.35-2.17 0-1.07-.84-1.96-1.94-2.13ZM32 35.9h.76c.4.01.7.3.7.66 0 .35-.3.64-.7.65H32v-1.3Zm.95 4.29H32v-1.53H32.99c.45.02.8.36.8.77 0 .41-.37.76-.84.76ZM41.77 42H44l-2.96-7.97.01-.03h-2.1v.03L36 42h2.23l.45-1.28h2.64l.45 1.28Zm-2.47-3 .7-2.01.7 2.01h-1.4ZM22 11l1.55 1.95 1.56-1.9.89.84L23.56 15 21 11.8l1-.8ZM23 20.82l1.16-1.32-3.16.04L22 18h6l-4 4-1-1.18ZM29 11v6h-1.56v-2.21L25.3 17H23l6-6ZM30 13v6l4-1.71-.99-1.06-1.51.77v-2.34L30 13ZM32 19h6l-6 5v-1.77l2.42-1.76-2.42.03V19ZM30 20v5l-1.33-.58v-1.77l-1.28 1.08-1.39-.78L30 20ZM28 25.56 23.76 23 23 24.28l2.24 1.28-2.21 1.19.81 1.25L28 25.56ZM30 27l4-2v1.67l-2.35 1.15v3.39L30 32v-5ZM29 27v5.12l-1.57.88v-3.59l-1.6 1.03-.83-1.3L29 27ZM23 16h-7l.98-1.45h2.73l-1.43-1.57 1.17-.98L23 16ZM22 17h-6l.76 1.52h2.28l-1.11 1.57 1.06.91L22 17Z" fill="#493833"/></svg>