<!-- by TradingView --><svg width="56" height="56" viewBox="0 0 56 56" xmlns="http://www.w3.org/2000/svg"><path fill="#F0F3FA" d="M0 0h56v56H0z"/><path fill-rule="evenodd" d="M19.8 19.92c-6.76 4.6-8.4 11.35-5.06 16.32 3.34 4.96 11.84 5.76 18.6 1.16 6.76-4.61 9.47-12.37 6.13-17.34-3.34-4.96-12.9-4.75-19.67-.14Zm0-3.84C11.91 20.18 9 28.54 12.41 35.22c3.43 6.68 12.6 8.78 20.5 4.68 7.88-4.1 11.3-12.52 8.13-19.14-3.17-6.61-13.35-8.78-21.24-4.68Z" fill="#E30613"/><path d="M35.58 18.6c.92-.89 1.33-.87 1.59.56.53 2.9-.72 5.16-3.06 6.96a14.36 14.36 0 0 1-6.73 2.36C34.7 33.94 37.4 38.55 45 35.1c-.28 3.1-1.23 7.17-8.97 5.5-4.86-1.04-8.35-5.29-10.64-10.12-.36-.75-.64-1.43-1.18-.25-.62 1.35-.8 2.8-.94 4.2-.05.46.23.87.57 1.38.34.52.04.71-.7.67-1.3-.06-2.6.03-3.9.05-1.75-1.6-1.36-4.06-.58-6.39.85-2.5 2.17-4.8 3.14-7.26.23-.58-.03-.7-.53-.8-.55-.1-.48-.61.12-.96a12.98 12.98 0 0 1 5.8-1.9c1.13-.08 1.4.23.89 1.43-.55 1.31-1.06 2.64-1.6 3.95 3.2-1.8 6.5-3.47 9.1-6Z" fill="#E30613"/></svg>