<!-- by TradingView --><svg width="56" height="56" viewBox="0 0 56 56" xmlns="http://www.w3.org/2000/svg"><path fill="#C31C3A" d="M0 0h56v56H0z"/><path d="m15 26-2 2v2.5c0 1.5 1.17 2.5 2.92 2.5 1.4 0 1.89-.39 2.08-.58V33h2v-7l-2 2v2.5c0 .5-.57 1-1.5 1s-1.5-.5-1.5-1V26Z" fill="#FFFCFD"/><path d="M12 30.5V19l-2 2v9.5c0 .5-.57 1-1.5 1S7 31 7 30.5V27l-2 2v1.5C5 31.58 6.5 33 8.5 33s3.5-1 3.5-2.5Z" fill="#FFF7FD"/><path d="m21 22 2 2v4.05c.33-.37 1.2-1.05 2-1.05 1.5 0 3 .85 3 3 0 1.65-1 3-3 3-1.6 0-2-.92-2-1.1V33h-2V22Zm3.5 9.5c.83 0 1.5-.59 1.5-1.5s-.67-1.5-1.5-1.5-1.5.59-1.5 1.5.67 1.5 1.5 1.5Z" fill="#FFFDFF"/><path d="M29 33v-5.1l2-1.9v7h-2ZM32 33v-8.8l2-2.2v11h-2Z" fill="#FFFEFF"/><path d="m38 29-.5 1H42c0-2.92-1.17-4-3.5-4S35 27.17 35 29.5s2 3.5 3.5 3.5 2.5-.5 2.92-1.17L40.25 31c-.3.35-.67.5-1.75.5-1.5 0-1.5-1.42-1.5-2 0-.5 0-2 1.5-2S40 28.53 40 29h-2ZM46 29l-.5 1H50c0-2.92-1.17-4-3.5-4S43 27.17 43 29.5s2 3.5 3.5 3.5 2.5-.5 2.92-1.17L48.25 31c-.3.35-.67.5-1.75.5-1.5 0-1.5-1.42-1.5-2 0-.5 0-2 1.5-2S48 28.53 48 29h-2Z" fill="#FBFFFF"/></svg>