<!-- by TradingView --><svg width="56" height="56" viewBox="0 0 56 56" xmlns="http://www.w3.org/2000/svg"><path fill="#F0F3FA" d="M0 0h56v56H0z"/><path d="M9 19h6v2.73L27 14l21 15H38l-11-7.5L15 29H9.02L9 19Z" fill="#AC1F24"/><path d="M9 38v-7h5v1.56h-3.31v1.18H13v1.57h-2.31v1.14h3.3V38H9ZM29 31v4.24c0 .93-.25 1.62-.74 2.08-.5.45-1.25.68-2.25.68-1.01 0-1.77-.23-2.27-.68-.5-.46-.74-1.15-.74-2.08V31h1.5v4.01s0 1.49 1.5 1.49c1.6 0 1.5-1.49 1.5-1.49V31H29ZM31 38v-7h1.5v7H31ZM37.28 32.5V38h-1.5v-5.5H34V31h5v1.5h-1.72ZM45.05 31H47l-2.68 3.67V38h-1.63v-3.38L40 31h1.97l1.53 2 1.55-2ZM22 38l-1.1-1.4c.4-.58.65-1.31.65-2.1 0-1.93-1.47-3.5-3.27-3.5-1.81 0-3.28 1.57-3.28 3.5s1.47 3.5 3.28 3.5a3.1 3.1 0 0 0 1.53-.4l.27.4H22Zm-3.72-1.52c-1.03 0-1.86-.89-1.86-1.98 0-1.1.83-1.98 1.86-1.98 1.02 0 1.85.89 1.85 1.98 0 .34-.08.65-.22.93l-1.25-1.5-1.06 1.03 1.2 1.44c-.16.05-.34.08-.52.08Z"/></svg>