<!-- by TradingView --><svg width="56" height="56" viewBox="0 0 56 56" xmlns="http://www.w3.org/2000/svg"><path fill="#F0F3FA" d="M0 0h56v56H0z"/><path d="M20 30h-2v-.22c.15-.07.34-.12.5-.16v-3.06L17.48 30h-.26L16 26.55v3.07c.14.03.22.08.37.16V30H15v-.22c.12-.06.32-.16.47-.2v-3.2a1.45 1.45 0 0 1-.47-.16V26h1.53l1.03 2.6.94-2.6H20v.22c-.12.07-.35.13-.5.16v3.24c.16.03.39.1.5.16V30ZM9 30H7v-.22c.15-.07.34-.12.5-.16v-3.06L6.48 30h-.26L5 26.55v3.07c.14.03.22.08.37.16V30H4v-.22c.12-.06.32-.16.47-.2v-3.2a1.45 1.45 0 0 1-.47-.16V26h1.53l1.03 2.6.94-2.6H9v.22c-.12.07-.35.13-.5.16v3.24c.16.03.39.1.5.16V30ZM10 28.5v-1.87l-.5-.06v-.3c.49-.18.98-.27 1.5-.27v2c0 .44 0 1.5.5 1.5.32 0 .83-.35 1-.87v-2l-.58-.06v-.3c.48-.19 1.06-.27 1.58-.27v3.37l.5.06v.26c-.39.17-.83.26-1.25.31h-.25v-.92c-.13.55-.52.92-1.07.92-.96 0-1.43-.65-1.43-1.5ZM36 28.5v-1.87l-.5-.06v-.3c.49-.18.98-.27 1.5-.27v2c0 .44 0 1.5.5 1.5.32 0 .83-.35 1-.87v-2l-.58-.06v-.3c.48-.19 1.06-.27 1.58-.27v3.37l.5.06v.26c-.39.17-.83.26-1.25.31h-.25v-.92c-.13.55-.52.92-1.07.92-.96 0-1.43-.65-1.43-1.5ZM22.5 30h-2v-.22c.16-.08.33-.1.5-.13V26.4a1.64 1.64 0 0 1-.5-.2V26h2v.22c-.14.08-.33.14-.5.16v3.24c.2.03.32.06.5.16V30ZM24.37 30H23v-.21c.12-.08.26-.14.4-.17L24.81 26h.41l1.4 3.62a1 1 0 0 1 .37.17V30h-1.7v-.21c.15-.07.32-.14.47-.17l-.32-.89H24.2l-.32.9c.17.02.33.07.48.16V30Zm-.02-1.63h.98l-.47-1.56-.51 1.56ZM27.93 29.48c.05.04.11.07.2.11.08.03.2.05.33.05.47 0 .8-.23.8-.6 0-.46-.66-.67-1-.82-.5-.22-1-.56-1-1.16 0-.8.8-1.06 1.47-1.06a4.75 4.75 0 0 1 1.3.2c-.01.33-.06.68-.16 1h-.26l-.29-.75c-.1-.05-.31-.1-.53-.1-.35 0-.63.17-.63.48 0 .48.67.7 1.02.87.49.2 1.03.56 1.03 1.15 0 .73-.57 1.15-1.68 1.15-.39 0-.99-.02-1.32-.26.02-.36.1-.74.2-1.08h.26l.26.82ZM32.72 29.48c.05.04.11.07.2.11.08.03.2.05.33.05a1 1 0 0 0 .57-.15.5.5 0 0 0 .24-.45.45.45 0 0 0-.15-.34c-.1-.09-.22-.18-.38-.25a7.86 7.86 0 0 0-.48-.23 3.15 3.15 0 0 1-.48-.27 1.5 1.5 0 0 1-.38-.36.93.93 0 0 1-.15-.53.94.94 0 0 1 .42-.8c.14-.09.3-.15.48-.2a4.75 4.75 0 0 1 1.9.13 3.5 3.5 0 0 1-.07.54 4.34 4.34 0 0 1-.11.47h-.26l-.29-.75a1.6 1.6 0 0 0-.53-.09.79.79 0 0 0-.44.12.4.4 0 0 0-.18.35c0 .14.05.26.15.36.1.1.22.19.37.27a9 9 0 0 0 .5.24c.18.08.34.17.5.27.14.1.27.23.37.37.1.13.15.3.15.5 0 .37-.14.66-.43.86-.28.2-.7.3-1.24.3a3.87 3.87 0 0 1-1.12-.17.76.76 0 0 1-.21-.09l.03-.27a48.18 48.18 0 0 1 .11-.57l.07-.24h.26l.25.82ZM43.66 29.68a3.8 3.8 0 0 1-1.45.32c-1.3 0-2.21-.71-2.21-2 0-1.21.91-2 2.16-2 .53 0 1.04.07 1.32.2 0 .34-.05.72-.15 1.05h-.25l-.34-.84c-.1-.03-.3-.05-.47-.05-.94 0-1.27.87-1.27 1.64 0 .74.38 1.64 1.29 1.64.17 0 .19-.01.33-.14v-1.1s-.12-.03-.29-.1V28H44v.3c-.07.06-.15.1-.34.14v1.24ZM45.36 30H44v-.21c.12-.08.26-.14.39-.17L45.81 26h.4l1.38 3.62c.14.03.3.1.41.17V30h-1.72v-.21c.14-.07.31-.14.46-.17l-.32-.89H45.2l-.32.9c.17.02.33.07.48.16V30Zm-.03-1.63h.97l-.46-1.56-.5 1.56ZM49.5 29.62c.17.04.36.1.5.17V30h-1.84v-.21c.17-.1.19-.14.34-.17v-3.2c-.2-.04-.38-.1-.5-.16V26h2c.7 0 1.44.33 1.44 1.13 0 .54-.28.88-.75 1.06.15.23.31.48.49.73.17.24.35.48.54.7l.28.19V30h-.96l-.25-.19c-.18-.2-.33-.44-.47-.71-.14-.28-.25-.55-.36-.81h-.46v1.33Zm.28-3.25a1 1 0 0 0-.28.03V28h.34c.46 0 .7-.41.7-.84 0-.32-.13-.64-.46-.75a.96.96 0 0 0-.3-.04Z"/><path d="M29 20h-2l-4 5h2l4-5ZM32 20h-2l-4 5h2l4-5ZM35 20h-2l-4 5h2l4-5ZM38 20h-2l-4 5h2l4-5Z" fill="#018F43"/><path d="M20 31h-2l-4 5h2l4-5ZM23 31h-2l-4 5h2l4-5ZM26 31h-2l-4 5h2l4-5ZM29 31h-2l-4 5h2l4-5Z" fill="#175FA6"/></svg>