<!-- by TradingView --><svg width="56" height="56" viewBox="0 0 56 56" xmlns="http://www.w3.org/2000/svg"><path fill="#219648" d="M0 0h56v56H0z"/><path d="M7.25 24.17c0 1.4 1.24 2.15 2.3 2.82 1.18.74 2.45 1.54 2.45 3.1C12 31.99 10.39 33 8.65 33c-.83 0-1.6-.2-2.29-.6a.3.3 0 0 1-.11-.11 1.93 1.93 0 0 1-.04-.2l-.2-2.32c-.02-.04 0-.07.06-.08.06-.01.1 0 .11.05.17.82.5 1.52.96 2.1.48.6 1.1.89 1.89.89 1.17 0 1.93-.79 1.93-1.95 0-.9-.41-1.7-1.12-2.24-1.37-1.13-3.54-1.79-3.54-3.9C6.3 22.99 7.76 22 9.32 22c.64 0 1.27.14 1.9.4.16.06.24.16.24.3l.12 1.95c0 .04-.03.07-.08.07-.06 0-.1-.03-.1-.07-.18-1.24-1-2.4-2.34-2.4-1.13 0-1.8.83-1.8 1.92ZM24.1 26.51c0 .33.09.61.25.86.4.55 1.03.86 1.62 1.17.45.24.8.45 1.07.64.27.17.5.4.68.67 1.16 1.7-.92 3.15-2.45 3.15a3.24 3.24 0 0 1-2.07-.67 1.79 1.79 0 0 1-.04-.2L23 30.5c0-.04.01-.07.07-.08.06-.01.1 0 .13.05.27 1.12 1.15 2.26 2.4 2.26 1.38 0 1.85-1.67.9-2.59-1.03-1-3.34-1.4-3.34-3.18 0-1.33 1.27-1.97 2.45-1.97.46 0 1.51.06 1.8.5.04.03.06.07.07.15l.11 1.42c0 .04-.03.07-.1.08-.05 0-.08 0-.09-.05-.19-.95-1.08-1.86-2.08-1.86-.74 0-1.21.54-1.21 1.27ZM32 31.62c0 .83.13 1.17 1 1.17V33h-3v-.2c.86 0 1-.36 1-1.18v-5.24c0-.8-.16-1.17-1-1.17V25h3v.2c-.86 0-1 .42-1 1.22v5.2ZM49 31.62c0 .83.13 1.17 1 1.17V33h-3v-.2c.86 0 1-.36 1-1.18v-5.24c0-.8-.16-1.17-1-1.17V25h3v.2c-.86 0-1 .42-1 1.22v5.2ZM20.9 31.95c.05 0 .08.03.09.08.02.05.01.08-.03.1-.5.24-1 .87-1.96.87-.5 0-.95-.6-1-1.05-.5.55-1 1.05-2.01 1.05-1.02 0-1.99-.09-1.99-2.02 0-1.1 1.12-1.91 1.99-2.23l2.01-.8v-.7c0-1.34-.18-1.94-1.02-1.94-1.03 0-1.46.81-1.7 1.71a1.3 1.3 0 0 1-.24.47c-.09.11-.23.17-.42.17a.63.63 0 0 1-.43-.15.54.54 0 0 1-.17-.4c0-1.15 1.6-2.1 2.96-2.1C18 25 19 25.44 19 26.75v4.16c0 .83.5 1.25 1.05 1.25.22 0 .5-.07.82-.22h.03Zm-2.9-.4v-3.38l-1.66.72C15.28 29.29 15 30.5 15 31c0 .5.04 1.5 1 1.5.72 0 1.5-.5 2-.95ZM44 32.8v.2h-3v-.2c.88 0 1-.3 1-1.18V28.3c0-1.44-.43-2.85-2.1-2.85-1.1 0-2.18.6-2.9 1.38v4.79c0 .87.12 1.18 1 1.18v.2h-3v-.2c.87 0 1-.26 1-1.15v-5.1c0-.86-.14-1.05-1-1.05V25h2v1.5a4.9 4.9 0 0 1 3.33-1.5c1.66 0 2.67 1.12 2.67 2.75v3.9c0 .78.17 1.15 1 1.15Z" fill="#FAFDFB"/><path d="M47.4 21.13c-.37.28-.51.95-.3 1.63.22.71.75 1.2 1.24 1.16-.06-.44-.19-.94-.51-1.1-.56-.27-.54-1.05-.43-1.69Z" fill="#D01E2F"/><path d="M48.71 23.78c.38-.28.5-.94.3-1.62-.21-.68-.7-1.15-1.18-1.16-.11.51-.22 1.27.17 1.46.44.21.63.78.71 1.32Z" fill="#D01E2F"/><path d="M35 19c-3.99 1.2-4.25 3.83-3.88 5l2.22-3-1.66 3c2.65-.8 3.32-3.67 3.32-5Z" fill="#8BC448"/><path d="M28.22 18c-.9 2.63 1.23 3.76 2.4 4l-1.5-2.34 1.78 2.04c.6-1.75-1.54-3.2-2.68-3.7Z" fill="#8BC448"/></svg>