<!-- by TradingView --><svg width="56" height="56" viewBox="0 0 56 56" xmlns="http://www.w3.org/2000/svg"><path fill="#F0F3FA" d="M0 0h56v56H0z"/><path fill-rule="evenodd" d="M28 44a16 16 0 1 0 0-32 16 16 0 0 0 0 32Zm-5-14.33L21 30c-.12 1.41-.95 2-2.45 2-2.12 0-2.55-2.38-2.55-4v-1c0-1.64.43-4 2.55-4 1.53 0 2.34 1.09 2.45 2.5l2-.5c-.22-2.48-1.8-4-4.4-4-3.26 0-4.6 3.2-4.6 6.03v.96c0 2.82 1.3 6.01 4.55 6.01 2.56 0 4.28-1.83 4.44-4.33Zm11-2.5v.66c0 3.29-1.49 6.17-4.99 6.17-3.48 0-5.01-2.9-5.01-6.19v-.65c0-3.28 1.51-6.16 5-6.16s5 2.9 5 6.18Zm-2 .66v-.67c0-1.94-.69-4.16-3-4.16-2.3 0-3 2.23-3 4.16v.67c0 1.94.68 4.17 3 4.17 2.3 0 3-2.24 3-4.17ZM41 35v-1.5h-3.83l1.68-2.05c.88-1.03 1.85-2.27 1.85-3.7 0-1.65-1.1-2.75-2.76-2.75-1.77 0-2.94 1.3-2.94 3h1.5c0-.84.54-1.5 1.5-1.5.84 0 1.13.68 1.13 1.43 0 .9-.61 1.7-1.13 2.37l-.03.04L35 33.5V35h6Z" fill="#F68E1D"/></svg>