<!-- by TradingView --><svg width="56" height="56" viewBox="0 0 56 56" xmlns="http://www.w3.org/2000/svg"><path fill="#F0F3FA" d="M0 0h56v56H0z"/><path d="M44 28a16 16 0 1 1-32 0 16 16 0 0 1 32 0Zm-23 7.07 6.88-6.8 7.12 7.2V40h-3v-2c0-2.26-1.89-4-4-4-2.11 0-4 1.74-4 4v2h-3v-4.93Zm.8-5.51-3.79 3.74L20 35.17V41h5v-3c0-1.7 1.44-3 3-3s3 1.3 3 3v3h5v-5.44l2-1.83-3.75-3.8a58.6 58.6 0 0 0-1.23-6.72l4.97-4.9L35.54 16l-3.86 3.81A4.48 4.48 0 0 0 28 18c-1.58 0-2.87.83-3.7 1.89L20.48 16 18 18.3l4.99 5.04a77.2 77.2 0 0 0-1.19 6.23Zm1.14-1.12 2.58-2.55-1.74-1.76a51.66 51.66 0 0 0-.84 4.31Zm8.02-7.92A3.5 3.5 0 0 0 28 19c-1.27 0-2.33.7-2.98 1.6l2.9 2.93 3.04-3.01Zm1.23 3.5-1.92 1.9 2.83 2.85c-.23-1.59-.54-3.24-.9-4.75ZM28 28a2 2 0 1 0 0-4 2 2 0 0 0 0 4Z" fill="#E60000"/></svg>