<!-- by TradingView --><svg width="56" height="56" viewBox="0 0 56 56" xmlns="http://www.w3.org/2000/svg"><path fill="#F0F3FA" d="M0 0h56v56H0z"/><path d="m18.87 29.31-.37-.81 2-1.5h1.4l-1.81 1.4-.54.4-.68.51ZM18 30v-3h1v3h-1Zm2.5 0L19 28.5l1.01-.3L22 30h-1.5ZM23.93 28.2h1.57v.55h-1.57v-.54Zm.07 1.24h2V30h-3v-3h3v.56h-2v1.88ZM27 30v-3h1l2.4 2.16H30V27h1v3h-1l-2.4-2.16h.4V30h-1ZM33.5 30v-1.23l.25.42L32 27h1l1 1.2 1-1.2h1l-1.75 2.2.25-.43V30h-1ZM36 30l1.5-3h1l1.5 3h-1l-1-2.3-1 2.3h-1Zm.78-.5L37 29h1.83l.23.5h-2.28Z" fill="#11294D"/><path d="M43 30v-3h1.95c.7 0 1.97.16 1.97 1.09 0 .44-.33.77-.92.95-.3.08-.64.12-1.05.12h-1.37l.42-.3V30h-1Zm2.87 0-1.13-1.09h1.12L47 30h-1.13ZM44 28.94l-.42-.33h1.32c.64 0 .96-.2.96-.52 0-.33-.32-.52-.96-.52h-1.32l.42-.33v1.7ZM48.7 28.2h1.8v.55h-1.8v-.54Zm.3 1.24h2V30h-3v-3h3v.56h-2v1.88ZM9 24l-3-4v8l3-4Z" fill="#D02341"/><path d="M6 33v-3l9-11h2.5L6 33ZM18.5 18H16l4-5h2.5l-4 5Z" fill="#B9B9BD"/><path d="M6 35v3.5l5-5.5 4.5 6h3L11 29l-5 6Z" fill="#11294D"/><path d="M27 13h-3L12 28l8 11h3l-8-11 12-15Z" fill="#D02341"/></svg>