<!-- by TradingView --><svg width="56" height="56" viewBox="0 0 56 56" xmlns="http://www.w3.org/2000/svg"><path fill="#F0F3FA" d="M0 0h56v56H0z"/><path d="M8 31v1H4.83v-1H8Zm-3-6v7H4v-7h1ZM10 25v7H9v-7h1ZM11.48 25h1.02l1.5 5.27L15.5 25h1.02l-2.02 7h-1l-2.02-7ZM11 25h1v7h-1v-7Zm5 0h1v7h-1v-7ZM22 25h1v4.59c0 1.46-1.06 2.41-2.5 2.41s-2.5-.94-2.5-2.41V25h1v4.59c0 .8.66 1.41 1.5 1.41s1.5-.62 1.5-1.41V25ZM24 25h1.9c1.24 0 2.1.82 2.1 2 0 .86-.5 2-1.58 2h-1.67v-1H26c.63 0 1-.43 1-1 0-.59-.45-1-1.1-1H25v6h-1v-7Zm2.94 7-1.2-3.13h1.04L28 32h-1.06ZM33 25h1v4.59c0 1.46-1.06 2.41-2.5 2.41s-2.5-.94-2.5-2.41V25h1v4.59c0 .8.67 1.41 1.5 1.41.84 0 1.5-.62 1.5-1.41V25ZM39 25v7h-1v-7h1Zm2 0v1h-5v-1h5ZM46 31v1h-3.2v-1H46Zm-3-6v7h-1v-7h1Zm3 3v1h-3.2v-1H46Zm0-3v1h-3.2v-1H46ZM49.62 26.06 48.08 32H47l2.02-7h.7l-.1 1.06Zm1.3 5.94-1.56-5.94-.09-1.06h.7L52 32h-1.09Zm.07-3v1H48v-1h2.99Z" fill="#64BD4E"/></svg>