<!-- by TradingView --><svg width="56" height="56" viewBox="0 0 56 56" xmlns="http://www.w3.org/2000/svg"><path fill="#F0F3FA" d="M0 0h56v56H0z"/><path fill="#FFDE13" d="M13 12h30v19H13z"/><path d="M19 26h-4c0-2 .2-6.3 1-7.5C17 17 23 15 27 15s6.5 5 9 5c.8 0 2-.67 2.5-1 0 .8-1.33 1.67-2 2 2 1.2 3.83-.17 4.5-1-2 3-4.5 5.5-7 5.5S30 22 29 22c-.8 0-1 1-1 1.5V26h-4v-1.5c-.4 0-3.5-1-5-1.5v3Z" fill="#56555A"/><path fill-rule="evenodd" d="M43 31H13v13h30V31Zm-5 5a1 1 0 1 1-2 0 1 1 0 0 1 2 0Zm1 0a2 2 0 1 1-4 0 2 2 0 0 1 4 0Zm-22-2h1.44c.75 0 1.56.3 1.56 1.5 0 .6-.25 1.03-.61 1.27L20 38h-1.27l-.41-1H18v1h-1v-4Zm1.44 2H18v-1h.44c.38 0 .56.11.56.5 0 .37-.2.5-.56.5Zm5.56-.5V34h1v4h-1v-1.5h-1V38h-1v-4h1v1.5h1Zm4 2.5h-1v-4h1v4Zm3-2 2 2v-4h-1v2l-2-2v4h1v-2Zm-12 4c0-.2.04-.37.13-.52a.9.9 0 0 1 .37-.35c.15-.09.33-.13.53-.13.24 0 .45.06.62.18.18.13.3.3.35.5h-.55a.43.43 0 0 0-.17-.18.5.5 0 0 0-.26-.06.49.49 0 0 0-.37.15c-.1.1-.14.24-.14.41 0 .17.04.31.14.41.1.1.22.16.37.16a.5.5 0 0 0 .26-.07c.07-.04.13-.1.17-.19H21a.89.89 0 0 1-.35.5c-.17.13-.38.19-.62.19-.2 0-.38-.04-.53-.13a.93.93 0 0 1-.37-.35A1.01 1.01 0 0 1 19 40Zm3.5-.2v-.41H24V39h-2v2h2v-.39h-1.5v-.44H24v-.38h-1.5Zm7-.41v.4H31v.38h-1.5v.44H31V41h-2v-2h2v.39h-1.5ZM28 41v-2h-.5l-1 1.5-1-1.5H25v2h.5v-1.2l.74 1.2h.52l.74-1.2V41h.5Zm6 0h-.54l-.92-1.23V41H32v-2h.54l.92 1.24V39H34v2Zm3-1.61V39h-2v.39h.69V41h.54v-1.61H37Z" fill="#6E6D72"/></svg>