<!-- by TradingView --><svg width="56" height="56" viewBox="0 0 56 56" xmlns="http://www.w3.org/2000/svg"><path fill="#F0F3FA" d="M0 0h56v56H0z"/><path d="M27.19 47.75c-8.73-2.78-14.23-8.73-15.08-16.34-.36-3.22.24-10.5.64-14.53a4.08 4.08 0 0 1 3.24-3.65c3.95-.8 7.97-1.21 12-1.23 4.03.02 8.04.43 11.98 1.23a4.08 4.08 0 0 1 3.26 3.65l.02.26c.53 5.45 1 11.4.6 14.34-1.28 8.97-8.6 14.28-15.03 16.26l-.83.26-.8-.25Z" fill="url(#auff21j2d)"/><path d="M40.84 16.87a1.6 1.6 0 0 0-1.26-1.48 59.25 59.25 0 0 0-11.47-1.2c-3.86.02-7.7.43-11.48 1.2a1.6 1.6 0 0 0-1.25 1.48c-.29 3.05-.98 10.9-.64 14.05.8 7.1 6.13 11.8 12.49 14.08.32.12.64.22.96.31l2.2-.6c.42-.2 1.8-.83 2.22-1.1 4.1-2.57 7.61-7.81 8.86-12.69.78-3.07-.34-11-.63-14.05Z" fill="url(#buff21j2d)"/><path d="m38.78 20.88-.4.4a9.96 9.96 0 0 1-4.97 1.4h-.49c-3.07-.16-4.84-1.82-7.4-1.95h-.5a8.45 8.45 0 0 0-4.05.97l.4-.38a8.45 8.45 0 0 1 4.03-.97h.5c2.56.13 4.38 1.73 7.45 1.89h.5a9.85 9.85 0 0 0 4.92-1.36M39.08 30.63l-.39.38a7.94 7.94 0 0 1-4.93 1.97c-2.35 0-3.8-.91-5.03-1.28l.4-.38c1.22.37 2.68 1.17 5.03 1.17a7.93 7.93 0 0 0 4.92-1.85" fill="#C6C6C6"/><path d="m33 43.25-.4.38-7.21-13.7.39-.37L33 43.26Z" fill="url(#cuff21j2d)"/><path d="m26.9 42.06-.48.38-9.4-18.15.4-.46 9.47 18.23Z" fill="#C6C6C6"/><path d="m28.4 45.38-.42.4c-6.85-2.17-12.85-6.99-13.69-14.53-.35-3.18.35-11.12.64-14.2.03-.42.21-.8.51-1.11l.4-.38c-.3.3-.49.7-.52 1.1-.3 3.1-1 11.02-.64 14.2.84 7.55 6.88 12.35 13.72 14.52M21.36 19.95c0-.21-.1-.41-.28-.54l-2.83-2.08a.37.37 0 0 0-.2-.06c-.1 0-.19.03-.26.1l-.39.38c.07-.06.16-.1.25-.1.08 0 .15.02.21.06l2.83 2.09c.17.13.27.34.27.56v1.38l.4-.4v-1.4Z" fill="#C6C6C6"/><path d="M41.06 16.68a1.62 1.62 0 0 0-1.28-1.5 59.92 59.92 0 0 0-11.6-1.21c-3.9.03-7.79.43-11.6 1.21-.73.17-1.25.78-1.28 1.5-.3 3.09-1 11.02-.64 14.2.8 7.2 6.13 11.83 12.55 14.13l.96.3.23-.07h.01c.8-.26 1.6-.56 2.35-.9L19.12 22.4l-1.15-.83a.67.67 0 0 1-.28-.54v-3.4c0-.2.15-.35.35-.35.07 0 .14.02.2.06l2.83 2.05c.17.14.27.34.27.55v1.37a8.45 8.45 0 0 1 4.04-.97h.5c2.56.13 4.34 1.78 7.4 1.94h.5c2.22 0 3.78-.76 4.96-1.4.14 1.74.27 3.67.32 5.41l.04 1.73c-1.4 1.1-3.69 2.07-5 2.07-2.15 0-3.62-1.33-5.67-1.33-.95 0-1.9.27-2.69.79l7.23 13.7c.9-.51 1.75-1.08 2.55-1.71a15.44 15.44 0 0 0 6.13-10.67c.4-3.15-.3-11.1-.6-14.18ZM26.8 42.06l-.67-.29c-4.8-2.24-8.24-5.96-8.82-11.17-.15-1.42-.07-4.04.1-6.7l9.4 18.16Zm7-22.03h-.5c-3.07-.16-4.77-1.69-7.34-1.82h-.42c-.78 0-1.55.1-2.3.31L21 17.04c2.38-.32 4.78-.49 7.19-.5 3.45.02 6.9.35 10.3 1l.1 1.2a9.78 9.78 0 0 1-4.78 1.29Zm.04 19.57-3.94-7.44c-.2-.37-.47-.7-.8-.97 1.23.37 2.68 1.28 5.03 1.28a7.98 7.98 0 0 0 4.93-1.97v.1a13.05 13.05 0 0 1-5.22 9Z" fill="url(#duff21j2d)"/><path d="M28.18 13.72c3.92.03 7.82.43 11.65 1.21.83.2 1.44.9 1.48 1.74.14 1.54.39 4.3.55 7.06.16 2.76.24 5.56.04 7.16a15.69 15.69 0 0 1-6.22 10.83 21 21 0 0 1-2.59 1.73l-.22.13-7.45-14.13.19-.12a5.17 5.17 0 0 1 2.82-.83c1.06 0 1.96.34 2.83.66l.05.02c.9.33 1.77.65 2.8.65.6 0 1.46-.23 2.36-.6.85-.36 1.71-.84 2.38-1.34l-.04-1.6c-.05-1.61-.16-3.38-.29-5.02a9.89 9.89 0 0 1-4.74 1.25h-.5a12.14 12.14 0 0 1-3.98-1l-.14-.05c-1.1-.43-2.1-.83-3.29-.9h-.5a8.2 8.2 0 0 0-3.91.95l-.37.19v-1.78a.42.42 0 0 0-.17-.34l-2.82-2.05a.13.13 0 0 0-.06-.02c-.07 0-.1.05-.1.1v3.4c0 .13.06.26.18.34l1.2.86L31.1 44.47l-.25.1c-.76.34-1.56.64-2.37.9l-.04.02h-.01l-.26.09-.08-.03-.97-.3c-6.48-2.33-11.9-7.02-12.72-14.34a50.6 50.6 0 0 1 .08-7.18c.16-2.76.41-5.52.56-7.06.04-.84.64-1.54 1.47-1.73h.01a60.22 60.22 0 0 1 11.65-1.22Zm0 .5c-3.88.03-7.75.43-11.55 1.2-.62.15-1.05.67-1.08 1.27v.02c-.15 1.54-.4 4.3-.56 7.05a50.23 50.23 0 0 0-.08 7.1c.79 7.06 6.02 11.63 12.39 13.91.29.1.58.2.87.28l.19-.06h.01c.7-.23 1.39-.48 2.05-.76l-11.5-21.68-1.1-.78s.01 0 0 0a.92.92 0 0 1-.38-.75v-3.4a.6.6 0 0 1 .6-.6c.12 0 .24.04.34.1h.01l2.83 2.06c.24.18.38.46.37.76v.95a8.7 8.7 0 0 1 3.8-.81h.5c1.27.06 2.34.49 3.43.91l.16.07c1.15.45 2.33.88 3.82.96h.48c2.15 0 3.67-.74 4.85-1.37l.33-.18.03.38c.14 1.74.27 3.67.32 5.42l.04 1.86-.1.07a11.5 11.5 0 0 1-2.59 1.49c-.92.38-1.85.64-2.55.64a8.28 8.28 0 0 1-2.97-.68l-.02-.01c-.9-.33-1.72-.64-2.69-.64-.83 0-1.65.22-2.36.63l7 13.26c.8-.47 1.57-1 2.3-1.56 3.24-2.53 5.53-6 6.03-10.5.2-1.55.12-4.3-.04-7.07-.16-2.76-.4-5.52-.55-7.05v-.02a1.37 1.37 0 0 0-1.09-1.27 59.67 59.67 0 0 0-11.54-1.2Zm0 2.07c3.48.02 6.94.35 10.35 1l.19.03.01.2.04.44.06.75.01.16-.13.08a10.03 10.03 0 0 1-4.9 1.33h-.51c-1.58-.08-2.8-.52-3.94-.94l-.14-.05c-1.08-.4-2.07-.77-3.25-.83h-.42c-.75 0-1.5.1-2.22.3l-.11.03-2.92-1.9.67-.1c2.39-.32 4.8-.49 7.22-.5Zm-6.48.91 1.6 1.05c.73-.2 1.49-.3 2.25-.29h.44c1.26.07 2.32.46 3.39.86l.16.06c1.12.41 2.28.82 3.77.9h.5a9.53 9.53 0 0 0 4.5-1.19c0-.18-.03-.4-.04-.6l-.02-.25a56.66 56.66 0 0 0-10.06-.95 54 54 0 0 0-6.49.41Zm-4.48 5.78 10.13 19.58-.63-.27-.68-.3c-4.85-2.25-8.37-6.04-8.96-11.36-.16-1.45-.08-4.09.08-6.74l.06-.9Zm.39 1.85a42.6 42.6 0 0 0-.04 5.75c.57 5.09 3.94 8.75 8.68 10.96l.02.01-8.66-16.72Zm21.71 5.11V30.63A13.3 13.3 0 0 1 34 39.8l-.23.18-4.08-7.7a3.28 3.28 0 0 0-.74-.9l.24-.43c.34.1.7.24 1.07.4 1.02.4 2.2.87 3.88.87a7.73 7.73 0 0 0 4.77-1.9l.41-.38Zm-.56 1.13a8.06 8.06 0 0 1-4.62 1.65c-1.8 0-3.1-.53-4.14-.94l-.04-.01.17.27 3.8 7.18a12.77 12.77 0 0 0 4.83-8.15Z" fill="#fff"/><defs><linearGradient id="auff21j2d" x1="18.27" y1="13.66" x2="40.32" y2="36.78" gradientUnits="userSpaceOnUse"><stop offset=".02" stop-color="#335EFB"/><stop offset=".94" stop-color="#022867"/></linearGradient><linearGradient id="buff21j2d" x1="22.06" y1="14.19" x2="39.16" y2="33.83" gradientUnits="userSpaceOnUse"><stop stop-color="#015689"/><stop offset=".12" stop-color="#009DFE"/><stop offset=".27" stop-color="#009DFE"/><stop offset=".43" stop-color="#0581FB"/><stop offset=".54" stop-color="#0B61F4"/><stop offset=".71" stop-color="#1236D5"/><stop offset=".99" stop-color="#002445"/></linearGradient><linearGradient id="cuff21j2d" x1="1248.04" y1="3193.39" x2="1429.31" y2="3193.39"><stop stop-color="#C6C6C6"/></linearGradient><linearGradient id="duff21j2d" x1="20.07" y1="14.94" x2="39.08" y2="34.87" gradientUnits="userSpaceOnUse"><stop offset=".54" stop-color="#fff"/><stop offset=".66" stop-color="#FBFBFB"/><stop offset=".78" stop-color="#EEE"/><stop offset=".91" stop-color="#D8D8D8"/><stop offset="1" stop-color="#C6C6C6"/></linearGradient></defs></svg>