<!-- by TradingView --><svg width="56" height="56" viewBox="0 0 56 56" xmlns="http://www.w3.org/2000/svg"><path fill="#2CB34A" d="M0 0h56v56H0z"/><path d="M32.9 36c-.97 0-1.89-.13-2.77-.4A6.48 6.48 0 0 1 28 34.55l.95-2.2a6.68 6.68 0 0 0 3.97 1.31c.54 0 .98-.05 1.32-.16.34-.12.6-.28.75-.48.16-.2.24-.44.24-.7 0-.34-.12-.6-.37-.8-.26-.2-.59-.36-1-.48-.41-.13-.87-.25-1.38-.35-.49-.12-.99-.27-1.49-.44-.5-.16-.95-.38-1.36-.64a3.19 3.19 0 0 1-1.01-1.04 3.24 3.24 0 0 1-.38-1.66c0-.71.18-1.37.55-1.95.38-.6.94-1.07 1.68-1.42a6.6 6.6 0 0 1 2.84-.54c.76 0 1.5.1 2.23.29.74.18 1.38.45 1.94.82l-.85 2.21a6.87 6.87 0 0 0-3.34-.99c-.54 0-.98.07-1.32.2-.34.13-.6.3-.74.52-.15.2-.22.45-.22.72 0 .32.12.59.37.8.26.18.59.34 1 .46.41.12.87.24 1.36.36.5.12 1 .25 1.5.41.5.16.96.36 1.37.63A3.03 3.03 0 0 1 38 32.1c0 .71-.19 1.36-.57 1.94a4 4 0 0 1-1.7 1.42c-.74.36-1.69.54-2.83.54Z" fill="#FDFDFF"/><path d="M27.15 34.63c-7.74 3.62-14.47 4.5-15.89 1.8-1.64-3.13 4.53-9.88 13.77-15.1 9.24-5.2 18.07-6.89 19.7-3.76 1.1 2.08-1.26 5.76-5.68 9.53v-2.01c2.14-2.25 3.17-4.34 2.57-5.67-1.16-2.54-7.81-1.4-14.86 2.54-7.05 3.95-11.83 9.2-10.68 11.74.95 2.08 5.56 1.7 11.07-.67v1.6Z" fill="#F4343F"/></svg>