<!-- by TradingView --><svg width="56" height="56" viewBox="0 0 56 56" xmlns="http://www.w3.org/2000/svg"><path fill="#F0F3FA" d="M0 0h56v56H0z"/><path d="M4 33V20h4.6c2.11.03 3.4 1.46 3.4 3.5 0 1.27-.72 2.63-2.08 2.94v.02c1.5.28 2.08 1.68 2.08 3.07C12 31.78 10.97 33 8.87 33H4Zm3-3h1c.7 0 1.04-.25 1.04-1 0-.76-.36-1-1.04-1H7v2Zm0-5h1c.65 0 1.04-.23 1.04-1 0-.78-.39-1-1.04-1H7v2ZM13 33V23h3v2.5c.27-1.2.72-2.5 2.18-2.5.22 0 .4.03.53.08.13.04.23.09.29.16l-.28 3.21c-.1-.05-.23-.1-.4-.14a2.48 2.48 0 0 0-.57-.06c-1 0-1.75.96-1.75 1.93V33h-3ZM23 23v10h-3V23h3ZM28 20v9.11c0 .6.14 1.25.86 1.25.41 0 .7-.1.96-.33l.18 2.28c-.5.49-1.35.69-2.04.69-2 0-2.96-1.64-2.96-3.5v-5.75L28 20Zm2 3v3h-6v-1l4-5v3h2ZM35 26.75c0-.51.09-1.17-.53-1.17-.71 0-.91.7-.97 1.29l-2.44-.6c.19-2.02 1.6-3.27 3.61-3.27 2.21 0 3.33 1.52 3.33 3.67v3.23c0 .52.33.77.67.77.14 0 .25-.02.33-.07l-.14 2.1c-.32.2-.7.3-1.17.3-1.37 0-2.1-1.04-2.1-2.33v-.15l.28-.06c0 .51-.12.96-.36 1.35A2.43 2.43 0 0 1 33.36 33C31.83 33 31 31.86 31 30.4c0-1.41.64-2.32 1.93-2.65l2.58-.73-.01 1.63-1.06.33c-.45.12-.68.39-.68.92 0 .4.21.77.64.77.65 0 .6-.7.6-1.25v-2.67ZM40 33V23h3v2c.33-1.12.77-2 2.11-2 1.16 0 1.9.9 2.18 1.96.37-1.06 1.18-1.96 2.38-1.96 1.8 0 2.33 1.9 2.33 3.37V33h-3v-5.65c0-.48.09-1.35-.6-1.35-.89 0-.9 1.2-.9 1.82V33h-3v-5.65c0-.48.03-1.35-.66-1.35-.88 0-.84 1.2-.84 1.82v5.16L40 33Z" fill="#0078BF"/><path fill="#E62214" d="M4 35h48v1H4z"/><circle cx="21.5" cy="20.5" r="1.5" fill="#E62214"/></svg>