<!-- by TradingView --><svg width="56" height="56" viewBox="0 0 56 56" xmlns="http://www.w3.org/2000/svg"><path fill="#F0F3FA" d="M0 0h56v56H0z"/><path d="M30 20.5a.5.5 0 0 0-.5-.5h-3a.5.5 0 0 0-.5.5v12c0 .28.22.5.5.5h3a.5.5 0 0 0 .5-.5v-12Z" fill="#AC1F2D"/><path d="M32 21.5c0 .28.22.5.5.5h3a6.5 6.5 0 0 1 0 13h-15a6.5 6.5 0 0 1 0-13h3a.5.5 0 0 0 .5-.5v-1a.5.5 0 0 0-.5-.5h-7a8.5 8.5 0 0 0 0 17h23a8.5 8.5 0 0 0 0-17h-7a.5.5 0 0 0-.5.5v1Z" fill="#AC1F2D"/><path d="M26 15.5c0-.28.22-.5.5-.5h3c.28 0 .5.22.5.5v3a.5.5 0 0 1-.5.5h-3a.5.5 0 0 1-.5-.5v-3Z" fill="#F9BF12"/></svg>