<!-- by TradingView --><svg width="56" height="56" viewBox="0 0 56 56" xmlns="http://www.w3.org/2000/svg"><path fill="#F0F3FA" d="M0 0h56v56H0z"/><path d="M26.24 17.77c.24 1.24-.38 2.81-1.74 4.52-.66.82-1.54 2.14-1.91 2.9-.62 1.22-.68 1.59-.68 3.3v1.9l-.5-.46a7.13 7.13 0 0 1-1.09-1.75 4.7 4.7 0 0 1-.5-2.96 8.7 8.7 0 0 1 .57-2.7c.26-.58.42-1.12.35-1.18-.24-.24-1.87 1.81-2.6 3.32-1.89 3.87-1.3 7.78.79 11.34H36c-2.15-2.53-2.64-5.55-1.06-8.53 1.25-2.33 1.36-3.47.5-5.07-.55-1.04-2.59-3.03-3.12-3.03-.08 0-.1.59-.06 1.28.13 1.75-.22 2.59-1.74 4.34-.72.82-1.54 1.99-1.82 2.63l-.53 1.15-.24-.6c-.42-1.04-.29-2.15.46-3.61.84-1.7.97-3.72.33-5.01-.42-.8-2.07-2.55-2.42-2.55-.1 0-.13.34-.06.77Z" fill="#00164E"/><path d="M37.67 25.85a7.33 7.33 0 0 0-1.47 6.4c.23.91 1.33 2.77 1.64 2.75.27 0 1-1.82 1.14-2.82a7.28 7.28 0 0 0-.17-2.04c-.49-2-.54-2.86-.31-3.97.13-.57.2-1.12.13-1.16-.04-.07-.48.31-.96.84ZM21 37a8.28 8.28 0 0 0 2 2h11a12.4 12.4 0 0 0 2-2H21Z" fill="#00164E"/><path fill-rule="evenodd" d="M28 43a15 15 0 1 0 0-30 15 15 0 0 0 0 30Zm0 2a17 17 0 1 0 0-34 17 17 0 0 0 0 34Z" fill="#00164E"/></svg>