<!-- by TradingView --><svg width="56" height="56" viewBox="0 0 56 56" xmlns="http://www.w3.org/2000/svg"><path fill="#F0F3FA" d="M0 0h56v56H0z"/><path d="M5 31.6a9.09 9.09 0 0 0 2-.27l-.11.67h-3c.11-.27.11-1.1.11-1.66v-2.7c0-.55-.03-1.48-.11-1.64H5.1C5 26.19 5 27.09 5 27.63v3.97ZM10.88 26A3 3 0 0 1 14 29.02 2.95 2.95 0 0 1 11.12 32 3.02 3.02 0 0 1 8 29c0-1.63 1.23-3 2.88-3Zm.23 5.64c1.33 0 1.89-.92 1.89-2.14 0-1.4-.53-3.14-2.12-3.14-1.32 0-1.88.91-1.88 2.14 0 1.37.53 3.14 2.12 3.14ZM36.88 26A3 3 0 0 1 40 29.02 2.95 2.95 0 0 1 37.12 32 3.02 3.02 0 0 1 34 29c0-1.63 1.23-3 2.88-3Zm.23 5.64c1.33 0 1.89-.92 1.89-2.14 0-1.4-.53-3.14-2.12-3.14-1.32 0-1.88.91-1.88 2.14 0 1.37.53 3.14 2.12 3.14ZM15.65 26 19 30.52v-2.9c0-.54 0-1.12-.12-1.62h1.23c-.11.54-.11 1.08-.11 1.62V32h-.65L16 27.48v2.82c0 .57 0 1.15.11 1.7h-1.23c.12-.55.12-1.13.12-1.7v-2.68c0-.54-.03-1.26-.12-1.62h.77ZM47.65 26 51 30.52v-2.9c0-.54 0-1.12-.12-1.62h1.23c-.11.54-.11 1.08-.11 1.62V32h-.65L48 27.48v2.82c0 .57 0 1.15.11 1.7h-1.23c.12-.55.12-1.13.12-1.7v-2.68c0-.54-.03-1.26-.12-1.62h.77ZM27 31.2c0 .06 0 .13-.06.17-.64.44-1.55.63-2.32.63-1.8 0-3.62-1.02-3.62-3 0-1.85 1.82-3 3.53-3 .56 0 1.14.08 1.68.26l.3.75-.04.01a3.23 3.23 0 0 0-2-.66c-1.4 0-2.47.68-2.47 2.14 0 1.67 1.06 3.1 2.75 3.1.24 0 1.25-.02 1.25-.43 0-.52.04-1.13-.13-1.62h1.26c-.17.52-.13 1.1-.13 1.65ZM32 29h-3v1.36c0 .55 0 1.1.12 1.64h-1.24c.15-.52.12-1.1.12-1.64v-2.72c0-.53.03-1.12-.12-1.64h1.24c-.12.53-.12 1.1-.12 1.64v.94l3-.04v-.9c0-.53.03-1.12-.12-1.64h1.24c-.15.52-.12 1.1-.12 1.64v2.72c0 .54-.03 1.12.12 1.64h-1.24c.12-.5.12-1.09.12-1.64V29ZM42 30.38c0 .52-.03 1.11.13 1.62h-1.26c.16-.51.13-1.1.13-1.62v-2.7c0-.56-.04-1.13-.13-1.68h1.95c.98 0 2.18.52 2.18 1.61 0 .76-.64 1.37-1.33 1.66l1.57 2.04a4.7 4.7 0 0 0 .4.46l.19.13c.03.02.17.06.17.1h-1.3a1.98 1.98 0 0 0-.26-.47l-1.57-2.07c-.3.03-.55.03-.87-.02v.94Zm0-1.26c.3.05.5.06.74.02.25-.03.46-.11.63-.24.35-.24.63-.7.63-1.29 0-.75-.49-1.33-1.29-1.33-.25 0-.47.01-.71.1v2.74Z" fill="#722940"/><path d="M28.37 24c-8.93 0-14.63-1.67-16.37-2.5 10.12 2 24.06-.83 29.77-2.5L44 22.33C42.51 22.9 37.3 24 28.37 24ZM14 34h28v1H14z" fill="#81BD41"/></svg>