<!-- by TradingView --><svg width="56" height="56" viewBox="0 0 56 56" xmlns="http://www.w3.org/2000/svg"><path fill="#F0F3FA" d="M0 0h56v56H0z"/><path fill-rule="evenodd" d="M4 25c0-1.1.9-2 2-2h44a2 2 0 0 1 2 2v6a2 2 0 0 1-2 2H6a2 2 0 0 1-2-2v-6Zm12 1h.79c0 .35-.03.7-.05 1.06-.02.36-.05.73-.05 1.08l1.91-1.66c.22-.18.33-.35.33-.48h.92v.01c-.13.04-.26.1-.4.2-.13.08-.27.2-.42.33l-1.69 1.5 2.04 2.38a23.47 23.47 0 0 0 .37.39A2.42 2.42 0 0 0 20 31h-.96a.9.9 0 0 0-.12-.18 1.78 1.78 0 0 0-.17-.21l-2.06-2.4c0 .46.03.93.05 1.4.02.47.05.93.05 1.39H16v-5Zm9 0h-.5v3.25c0 .86-.55 1.37-1.4 1.37-.84 0-1.3-.5-1.3-1.37V26H21v3.25c0 1.17.92 1.75 2.03 1.75 1.13 0 1.97-.6 1.97-1.75V26Zm1.8 5H26v-5h1.46c.8 0 1.6.46 1.6 1.35 0 .6-.36 1.13-.92 1.37l1.25 1.7a3.96 3.96 0 0 0 .33.39l.14.1.04.03c.04.01.1.04.1.06h-1.03a1.64 1.64 0 0 0-.2-.4l-1.28-1.72a3.68 3.68 0 0 1-.69-.01V31Zm0-2.4c.23.04.4.05.6.02.19-.03.36-.1.5-.2.28-.2.44-.55.44-1.05 0-.6-.31-1.13-.97-1.13a2.25 2.25 0 0 0-.48.05l-.09.02v2.29Zm8.14 1.36-1.3-3.31h-.21l-1.18 3.27-1.23-3.24a1.41 1.41 0 0 1-.12-.56V26H30c0 .03.02.06.04.08l.03.03a3.08 3.08 0 0 1 .2.43l.13.29L32 31h.25l1.16-3.22L34.68 31h.25l1.75-4.34a13.42 13.42 0 0 1 .23-.5c.04-.05.09-.12.09-.16h-.65v.04l.01.02a.98.98 0 0 1-.03.3l-.11.35-1.28 3.25ZM38 26h.8v5H38v-5Zm3.7.36.3.01V31h1v-4.63h.3c.15-.01.28-.02.44 0a12 12 0 0 1 1.26.2l-.12-.57h-4.76l-.12.56a7.53 7.53 0 0 1 1.7-.2Zm7.8-.36h.5v3c0 1.15-.84 2-1.97 2-1.11 0-2.03-.58-2.03-1.75V26h.8v3.25c0 .86.46 1.37 1.3 1.37.85 0 1.4-.5 1.4-1.37V26Zm-38.76 1.16c.17-.17.51-.61.51-1.03 0-.4-.34-.17-.51 0 .17-.51.4-1.44 0-1.03-.41.41-.51.86-.51 1.03l.5 1.03ZM8.69 25.1c-.34.35-.92 1.14-.51 1.55l.51.51c.17 0 .51-.2.51-1.03 0-.82-.34-1.03-.51-1.03Zm-1.02 3.61c.1-.1.3-.23.53-.23l-.53.23Zm1.02-.52c-.14.1-.32.2-.5.3a.7.7 0 0 1 .5.22c.41.41.51.86.51 1.03l-1.02 1.03c.34-.17 1.13-.41 1.53 0 .35.34.69.23 1.03.12.17-.06.34-.12.51-.12-.51-.34-1.43-1.13-1.02-1.54.4-.42 1.2-.86 1.53-1.04l-.5-.51c-.18.34-.52.93-.52.51 0-.4-.34-.51-.51-.51 0-.69-.1-1.96-.52-1.55-.27.28-.1.71.04 1.05.11.28.2.5-.04.5H8.7c.14.07.32.28 0 .51Zm-2.56 0c.34-.17 1.13-.4 1.54 0 0 .18-.2.52-1.03.52-.82 0-.68-.34-.51-.52Zm1.54-.51c-.41 0-.86-.34-1.03-.52.34-.17 1.13-.4 1.54 0 .51.52 0 .52-.51.52ZM9.7 25.1c.18 0 .41.1 0 .52-.4.41-.17-.17 0-.52Zm-2.56 1.03c-.03.14.02.43.52.52.61.1 0-.52-.52-.52Zm5.64 1.03c-.41-.4-1.2-.17-1.54 0 .17.18.62.52 1.03.52.5 0 1.02 0 .5-.52Zm-1.03-.51c0-.17.1-.52.52-.52.5 0 .14.52-.52.52Zm.52 1.54c-.18.18-.41.52 0 .52.4 0 .17-.34 0-.52Z" fill="#166B94"/></svg>