<!-- by TradingView --><svg width="56" height="56" viewBox="0 0 56 56" xmlns="http://www.w3.org/2000/svg"><path fill="#F0F3FA" d="M0 0h56v56H0z"/><path d="M41 9c-7.6 6.8-9.83 19.5-10 25h-3.5C29.1 21.6 37.17 12.17 41 9Z" fill="url(#ahehptnw0)"/><path d="M30 15h-4l2 8 2-8Z" fill="#009951"/><path d="M21 35a1 1 0 0 1 1-1h12a1 1 0 1 1 0 2H22a1 1 0 0 1-1-1Z" fill="url(#bhehptnw0)"/><path d="M22 38a1 1 0 0 1 1-1h10a1 1 0 1 1 0 2H23a1 1 0 0 1-1-1Z" fill="url(#chehptnw0)"/><path d="M23 41c0-.55.37-1 .83-1h8.34c.46 0 .83.45.83 1s-.37 1-.83 1h-8.34c-.46 0-.83-.45-.83-1Z" fill="url(#dhehptnw0)"/><path d="M24 44.5c0-.83.67-1.5 1.5-1.5h5a1.5 1.5 0 0 1 0 3h-5a1.5 1.5 0 0 1-1.5-1.5Z" fill="url(#ehehptnw0)"/><path d="M15 9c7.6 6.8 9.83 19.5 10 25h3.5C26.9 21.6 18.83 12.17 15 9Z" fill="url(#fhehptnw0)"/><defs><linearGradient id="ahehptnw0" x1="35" y1="9" x2="35" y2="34" gradientUnits="userSpaceOnUse"><stop offset=".56" stop-color="#FFDE37"/><stop offset="1" stop-color="#FFD000"/></linearGradient><linearGradient id="bhehptnw0" x1="21" y1="35" x2="35" y2="35" gradientUnits="userSpaceOnUse"><stop stop-color="#133576"/><stop offset=".53" stop-color="#00539C"/><stop offset="1" stop-color="#133576"/></linearGradient><linearGradient id="chehptnw0" x1="22" y1="38" x2="34" y2="38" gradientUnits="userSpaceOnUse"><stop stop-color="#133576"/><stop offset=".53" stop-color="#00539C"/><stop offset="1" stop-color="#133576"/></linearGradient><linearGradient id="dhehptnw0" x1="23" y1="41" x2="33" y2="41" gradientUnits="userSpaceOnUse"><stop stop-color="#133576"/><stop offset=".53" stop-color="#00539C"/><stop offset="1" stop-color="#133576"/></linearGradient><linearGradient id="ehehptnw0" x1="24" y1="44.5" x2="32" y2="44.5" gradientUnits="userSpaceOnUse"><stop stop-color="#FFD000"/><stop offset=".53" stop-color="#FFDE3E"/><stop offset="1" stop-color="#FFD000"/></linearGradient><linearGradient id="fhehptnw0" x1="22" y1="9" x2="22" y2="34" gradientUnits="userSpaceOnUse"><stop stop-color="#0F4F90"/><stop offset=".56" stop-color="#00539C"/><stop offset="1" stop-color="#133576"/></linearGradient></defs></svg>