<!-- by TradingView --><svg width="56" height="56" viewBox="0 0 56 56" xmlns="http://www.w3.org/2000/svg"><path fill="#F0F3FA" d="M0 0h56v56H0z"/><path d="M29.62 32.2c-.11-.12-.2-.24-.27-.34-.6 2.16-1.52 4.55-1.76 5.33-.3.99-.4 1.52-.54 1.68-.15.16-.7 1.13.13 1.13s1.92 0 2.55-.05c.44-.03.65-.58.42-.96-.23-.37-.3-.56-.17-1.12.12-.56 1-2.17 1.38-2.84.18-.33.38-.77.44-1.23a28.74 28.74 0 0 0-2.17-1.59Z" fill="#1F263D"/><path d="M40.32 24.97c.3 0 .64-.02 1.04-.26.4.6 1.01 2.13 4.05 1.87.08 0 .08.04 0 .07-3.65 1.3-4.82-1.24-5.1-1.68Zm-.83-3.38c-.35-.07-.77-.28-1.04-.31.53-.09.86-.88 1.37-.84.4.04.36.98.48 1.3-.3-.12-.46-.07-.8-.15Zm7.31 4.5a7.18 7.18 0 0 1-3.27-.18l-.01-.09c-.2-1.29-.2-2.53-1.2-3.57-.8-.83-.24-1.4-.43-1.85-.44-1.02-1.66-3.39-2.39-3.71-.72-.33-1.97-.07-2.58.04l-.28.04a1.37 1.37 0 0 0-.35-.21h-.01c-.1-.05-.22-.08-.36-.12l-.49-.09h-.02a8.72 8.72 0 0 0-.62-.06c-1.14-.07-1.99-.4-2.4-.25a1.57 1.57 0 0 0-.4.28 8.8 8.8 0 0 0-.92.92c-.19.2-.37.4-.5.52-.44.44-.8.68-.45 1.9.37 1.22 1.67 2.09 2.43 2.63.77.54 1.54 1.13 1.95 1.38.4.25.65.14.9.25.23.1.6.31.88.09.29-.23.33-.64.2-1.23-.12-.6-.36-.98-.24-1.44.13-.45-.32-1.26-.28-1.8.02-.21.03-.43.01-.62.1.15.17.27.16.33-.03.58.54 1.47.44 2.16-.07.43.55 1.2.29 2.31-.08.32-.62.78-1 .69-.64-.15-1.4-.2-1.95-.56-.43-.28-.92-.75-1.68-1.29-.75-.54-2.28-1.45-2.72-2.86-.1-.37-.23-1.28.25-1.78l.93-.9.27-.25c-.21 0-.4.03-.59.07-1.32.28-3.08 2.07-6.8 1.13-2.81-.71-3.7.55-4.65 1.05-.95.5-2.55 1.95-3.55 3.67-.2.36-.36.73-.47 1.1-1.43 3.01-2.15 6.44-2.93 7.29-1.38-.06-2.05 1.24-2.89 1.99-.15.14-.08.39.14.37a4.69 4.69 0 0 0 2.64-1.04c1.24-1.1 2.09-4.35 2.83-5.8.05.42.15.8.25 1.13.4 1.28 2.43 3.85 2.93 4.96.5 1.1.95 2.38 1.2 3.22.25.83.56 2.45.56 2.84 0 .4-.28 1.2.3 1.23.37.03 2.2.03 2.92 0 .48-.01.38-.68.12-.95a6.26 6.26 0 0 1-1.05-1.54c-.56-1.14-.39-2.52-.54-3.57-.14-1.06.53-1.67.39-2.63a15.19 15.19 0 0 0-1.25-4.05c.36-.06.7.33.83.52.29.42 1.24 3.27 1.24 3.62 0 .39-.04.7-.04.7s.47.57 2.56.1c1.22-.27 2-1.23 3.67-1.86v-.1a4.41 4.41 0 0 0-.47-2c-.2-.38-.04-.7.06-1.02l.05-.02c.46.74 1.1 1.92 1.06 2.6v.3c0 .64.12.96.75 1.6v.01h.01c.02.02 1.93 1.12 2.81 2 .87.87 2.14 2.37 2.06 3.25 0 0 .04 1.24-.15 1.81-.2.57.06 1.15.77 1.14.72 0 1.16 0 1.35-.02a2.1 2.1 0 0 0 1.4-.52c.35-.32.02-.67-.1-.84-.12-.16-.8-.87-.8-1.27 0-.5 0-2.16-.45-3.06-.43-.88-1.74-3.19-2.12-5.1-.1-.52-.17-.88-.26-1.14-.16-.44-.21-.6.42-1.83.2-.37.46-.6.75-.75l.32-.1a3.6 3.6 0 0 1 1.61-.08c.78.1 1.27.43 1.24.64-.05.37.58.12.54-.35-.05-.43.63.2.9 1 .26.8.25 1.35.58 2.83.44 1.93-.03 6.03 2.47 6.58 1 .22 1.9-.24 2.24-.91.3-.57.37-1.58-.16-2.08-.22-.2-.3-.17-.44-.13-.13.04-.16.13-.08.37.07.24.09.12-.1.2-.18.07-.27.07-.12.28.38.53-.45 1.02-.77.72-1.01-.92-.02-4.07-.32-6.77.66-.05 1.7-.25 3.08-1.2.16-.11.09-.3-.1-.27Z" fill="#1F263D"/><path d="M14.76 28.86c-.4.21-.56 1.96-.39 2.88.3 1.62-.44 2.11-.93 3.08-.26.52-1 1.97-1.52 2.45-.77.71-.2 1.08.1 1.37.34.34.54.77.69.95.28.32.45.42 1.47.4.97 0 .93-.34.81-.9-.2-.97-.1-1.2-.1-1.47.01-.27.87-1.15 1.48-2.57.43-.54.73-1.11 1.07-1.65-.77-1.8-1.93-3.37-2.68-4.54ZM39.6 20.74c-.4-.15-.76.46-1.47.54.28.17.8-.07 1.1-.11 0 .21.12.39.28.4.16.02.3-.16.31-.4 0-.06.01-.36-.21-.43Z" fill="#1F263D"/></svg>