<!-- by TradingView --><svg width="56" height="56" viewBox="0 0 56 56" xmlns="http://www.w3.org/2000/svg"><path fill="#F0F3FA" d="M0 0h56v56H0z"/><path d="M10.94 33.31c-1.1 0-3.28-5.38 7.67-11.84 8.77-5.17 19.72-5.74 24.1-5.38-20.81 1.07-27.38 10.76-28.48 11.84-1.1 1.08-2.19 5.38-3.29 5.38Z" fill="url(#ated1wtwd)"/><path d="M46 18.24c-3.5 0-8.76 2.15-10.96 3.23 4.39-.86 8.4 1.8 9.86 3.23.88-1.72 1.1-5.02 1.1-6.46Z" fill="url(#bted1wtwd)"/><path d="M37.24 23.62c-6.14 0-13.52 2.87-16.44 4.3 11.4-1.71 17.9 1.44 19.72 3.24 1.75-.86 2.92-3.95 3.29-5.38-1.75-1.73-5.11-2.16-6.57-2.16Z" fill="url(#cted1wtwd)"/><path d="M25.19 30.08c-7.02 0-13.15 4.3-13.15 6.46s1.31 5.17 10.95 4.3c9.64-.85 14.98-6.1 16.44-8.6-1.83-.72-7.23-2.16-14.24-2.16Z" fill="url(#dted1wtwd)"/><defs><linearGradient id="ated1wtwd" x1="40.52" y1="16.09" x2="11.19" y2="32.67" gradientUnits="userSpaceOnUse"><stop stop-color="#788A72"/><stop offset=".5" stop-color="#A7C15E"/><stop offset="1" stop-color="#55884D"/></linearGradient><linearGradient id="bted1wtwd" x1="44.9" y1="18.24" x2="37.26" y2="20.46" gradientUnits="userSpaceOnUse"><stop stop-color="#277953"/><stop offset="1" stop-color="#6D8F6C"/></linearGradient><linearGradient id="cted1wtwd" x1="42.71" y1="26.85" x2="23" y2="27.97" gradientUnits="userSpaceOnUse"><stop stop-color="#3F8255"/><stop offset="1" stop-color="#99C041"/></linearGradient><linearGradient id="dted1wtwd" x1="17.52" y1="32.24" x2="31.67" y2="38.88" gradientUnits="userSpaceOnUse"><stop stop-color="#77A84C"/><stop offset="1" stop-color="#307C57"/></linearGradient></defs></svg>