<!-- by TradingView --><svg width="56" height="56" viewBox="0 0 56 56" xmlns="http://www.w3.org/2000/svg"><path fill="#737373" d="M0 0h56v56H0z"/><path fill="#545454" d="M13 15h9v26h-9zM23 15h10v26H23zM34 15h9v26h-9z"/><path d="M21 33v.2c-.67.01-1 .28-1 .94V40h-.26l-4.48-6.37v5.18c0 .73.21.91.91.94V40H14v-.25c.66-.03 1-.27 1-.94v-4.77c0-.24-.02-.42-.07-.53-.08-.23-.42-.3-.93-.31V33h1.9l3.84 5.34v-4.2c0-.71-.22-.93-.91-.94V33H21ZM24.61 33l3.56.01c.98 0 2.36.33 2.36 1.55 0 .97-.87 1.5-1.7 1.72v.02c1.02.12 2.28.56 2.28 1.78 0 1.41-1.5 1.92-2.68 1.92l-.74-.01-3.08.01v-.2c.64-.03 1-.22 1-.9V34c0-.66-.36-.79-1-.8V33Zm3.28.2c-.62 0-1.28.19-1.28.8v4.9c0 .63.67.87 1.29.87 1.13 0 2.1-.48 2.1-1.73 0-1.17-.95-1.59-2-1.59h-1.56V36.28h1.37c.44 0 .78-.07 1.02-.22.48-.3.63-.85.63-1.39 0-.98-.62-1.47-1.57-1.47ZM42 33v.2c-.43.08-.7.47-.86.85L38.58 40h-.17l-2.66-6.18c-.14-.3-.38-.6-.75-.62V33h2.56v.2c-.63.01-.91.19-.64.82l2.02 4.84-.17.17 1.9-4.44c.14-.35.22-.63.2-.82 0-.41-.33-.56-.94-.57V33H42Z" fill="#fff"/></svg>