<!-- by TradingView --><svg width="56" height="56" viewBox="0 0 56 56" xmlns="http://www.w3.org/2000/svg"><path fill="#034FA4" d="M0 0h56v56H0z"/><path fill-rule="evenodd" d="M13 13h3v14c5.03 0 9 3 9 6.81V13h3v21.08A8.83 8.83 0 0 1 36 27v2a6.3 6.3 0 0 0-6 6.5c0 3.14 2.29 5.12 6 5.5v2h-1.4c-3.24-.8-6.07-3.4-6.6-6.28V43h-3v-6.4c-.72 4.29-4.5 6.4-8.43 6.4H13V13Zm3 16c4.63 0 7 2.54 7 6 0 3.43-2.73 6-7 6V29Z" fill="#F0F3FA"/><path fill-rule="evenodd" d="M42 14H14v28h28V14Zm-29-1v30h30V13H13Z" fill="#F0F3FA"/></svg>