<!-- by TradingView --><svg width="56" height="56" viewBox="0 0 56 56" xmlns="http://www.w3.org/2000/svg"><path fill="#F0F3FA" d="M0 0h56v56H0z"/><rect x="8" y="21" width="11" height="14" rx="1" fill="#2053A2"/><path d="M22 23.5V21c-1.6 0-2 .74-2 1.5V27h2v-2h2v2.5c0 .91 1.33 1.14 2 1.14V21h-2v2.5h-2Z" fill="#2053A2"/><path fill-rule="evenodd" d="M30 27c2.5 0 3-1.34 3-3s-.78-3-3-3c-2.5 0-3 1.34-3 3s.5 3 3 3Zm0-1.5c.55 0 1-.67 1-1.5s-.45-1.5-1-1.5-1 .67-1 1.5.45 1.5 1 1.5ZM30 35c2.5 0 3-1.34 3-3s-.78-3-3-3c-2.5 0-3 1.34-3 3s.5 3 3 3Zm0-1.5c.55 0 1-.67 1-1.5s-.45-1.5-1-1.5-1 .67-1 1.5.45 1.5 1 1.5Z" fill="#2053A2"/><path d="M36 27h-2v-6h3l1 2.77L39 21h3v6c-1.6 0-2-.92-2-1.38v-1.85L38.5 27h-1L36 23.77V27ZM48 21h-5v6h5v-1.5h-3V25h1.5c.4 0 1-1 1-1.5H45v-1h2c.8 0 1-1.17 1-1.5ZM35.83 29H34l3 3.5V35h2v-2.5l3-3.5h-2.29L38 31l-1.41-1.65a1 1 0 0 0-.76-.35ZM43 30.5V29h5l-3 4.5h1.5c.8 0 1.33 1 1.5 1.5h-5v-1.5l2-3h-2Z" fill="#2053A2"/><path d="M15.98 20.13A2.07 2.07 0 0 0 14.23 19c-1.4 0-2.13 1.13-2.32 1.69l-.58.56c-.2.19-.59.79-.59 1.69 0 1.12 1.17 1.68 1.17 2.25 0 .45-.39.93-.58 1.12-.47 0-.2.38 0 .57.93 0 1.16.75 1.16 1.12-.39.38-1.16 1.24-1.16 1.69 0 .45.38.93.58 1.12-.2.19-.47.68 0 1.13l.58.56v.56h-.58v1.13c-.97.56-2.91 1.8-2.91 2.25 0 .56.58.56 1.74.56.93 0 1.94-.38 2.33-.56.2.19.81.56 1.74.56 1.17 0 2.33-.56 2.33-1.13 0-.45-.39-.93-.58-1.12v-.56c0-.45-.39-.56-.58-.56v-2.26c-.47-.45-.2-.93 0-1.12.46 0 .58-1.13.58-1.69v-1.12c0-.45-.78-.57-1.16-.57.46 0 .58-.37.58-.56.46 0 .58-.37.58-.56.46-.9.2-1.13 0-1.13.46 0 .58-.37.58-.56.39.57 1.28 1.58 1.74 1.13.47-.45-.58-1.32-1.16-1.69v-1.69c0-.56-1.16-.56-1.74-1.68Z" fill="#FCDE11"/><path d="M17.49 23.62v-1.8c0-.06-.02-.1-.11-.18-.08-.07-.19-.13-.33-.21l-.1-.06a2.79 2.79 0 0 1-1.18-1.14c-.42-.8-1.21-1-1.54-1-.62 0-1.1.25-1.45.57a2.5 2.5 0 0 0-.65.96l-.02.05-.62.6c-.15.14-.51.69-.51 1.53 0 .48.24.85.53 1.2l.13.16c.1.1.2.22.28.33.11.15.22.34.22.56 0 .28-.12.56-.25.77-.13.22-.29.4-.4.51l-.07.07h-.08a.77.77 0 0 0 .09.11c.48.03.81.24 1.01.52.21.28.28.6.28.83v.1l-.07.06a7.49 7.49 0 0 0-.99 1.23.73.73 0 0 0-.1.3c0 .17.07.36.18.55.12.18.25.33.33.41l.17.16-.17.16a.66.66 0 0 0-.18.34c-.02.13 0 .3.18.47l.65.63v.88h-.58v1.02l-.11.07c-.48.28-1.2.73-1.8 1.16a7.33 7.33 0 0 0-.95.82l-.05.08c0 .1.03.15.05.17.03.03.09.07.21.1a6.37 6.37 0 0 0 3.48-.47l.15-.08.11.12c.15.14.71.5 1.58.5.55 0 1.1-.14 1.5-.33.2-.1.36-.2.46-.32.1-.1.14-.2.14-.26 0-.16-.08-.36-.19-.54a2.19 2.19 0 0 0-.33-.42l-.06-.07v-.65c0-.15-.06-.23-.13-.27a.43.43 0 0 0-.22-.07h-.24v-2.39a.92.92 0 0 1-.24-.78c.04-.26.19-.47.31-.59l.07-.07h.1s.03 0 .09-.08c.05-.08.1-.21.15-.38.08-.32.1-.73.1-1v-1.12c0-.07-.05-.16-.28-.24-.2-.07-.47-.1-.64-.1v-.23c.14 0 .33.02.52.06.33.07.64.22.64.5v1.13c0 .57-.12 1.69-.58 1.69-.2.19-.47.68 0 1.13v2.25c.2 0 .58.1.58.56v.56c.2.19.58.67.58 1.13 0 .56-1.16 1.12-2.33 1.12-.93 0-1.55-.38-1.74-.56-.39.19-1.4.56-2.33.56C9.58 37 9 37 9 36.44c0-.45 1.94-1.69 2.9-2.25v-1.13h.59v-.56l-.58-.56c-.47-.45-.2-.94 0-1.13-.2-.18-.58-.67-.58-1.12 0-.45.77-1.32 1.16-1.69 0-.38-.23-1.13-1.16-1.13-.2-.18-.47-.56 0-.56.19-.18.58-.67.58-1.12 0-.24-.2-.47-.44-.74-.33-.39-.73-.85-.73-1.51 0-.9.4-1.5.59-1.69l.58-.56c.2-.57.93-1.69 2.32-1.69.39 0 1.28.23 1.75 1.13.31.6.8.88 1.18 1.1.32.19.56.33.56.58v1.69c.58.38 1.63 1.24 1.16 1.69-.4.38-1.11-.31-1.55-.87a5.3 5.3 0 0 1-.19-.26c0 .08-.02.19-.08.3a.51.51 0 0 1-.17.18.6.6 0 0 1-.33.09v-.23c.16 0 .23-.06.27-.12a.4.4 0 0 0 .08-.22v-.56l.42.44c.2.27.5.64.8.9.16.12.3.2.4.22.1.03.14.01.19-.03.04-.05.06-.1.04-.18a1.1 1.1 0 0 0-.24-.39c-.26-.3-.65-.6-.93-.77l-.1-.07Zm-.7 1.2c-.03-.15-.14-.2-.23-.2v.23l.02.04c.02.1 0 .32-.23.76l-.02.05v.05a.4.4 0 0 1-.08.22c-.04.06-.12.12-.27.12h-.24v.22a.4.4 0 0 1-.07.22c-.04.06-.12.12-.27.12v.23c.21 0 .35-.09.44-.2a.6.6 0 0 0 .14-.37c.46 0 .58-.37.58-.56.25-.48.28-.76.24-.93Z" fill="#231F20"/><path d="M14.97 31.02a3.79 3.79 0 0 1 0-1.25l.27.04c-.05.25-.09.77 0 1.16.08.39.25.74.58.92l-.13.23a1.57 1.57 0 0 1-.72-1.1Z" fill="#231F20"/><path fill-rule="evenodd" d="M14.2 22a4.48 4.48 0 0 0-2.77-.5.13.13 0 0 1-.15-.11.13.13 0 0 1 .1-.15 4.75 4.75 0 0 1 2.96.54c.64.37 1.23.78 1.69 1.1l.08.05a14.1 14.1 0 0 0 .84.53.1.1 0 0 0 .02 0h.68c.07 0 .13.06.13.14 0 .07-.06.13-.13.13h-.68a.5.5 0 0 1-.2-.05 14.2 14.2 0 0 1-.83-.53l-.07-.06c-.46-.32-1.04-.72-1.67-1.09Zm-1.14 1.67-.16.26c-.13.19-.31.3-.49.37a1.3 1.3 0 0 1-.44.09.13.13 0 0 1-.13-.14c0-.07.06-.13.13-.13.08 0 .2-.01.35-.07a.75.75 0 0 0 .35-.26 8.12 8.12 0 0 0 .23-.35l.26-.4c.1-.12.2-.24.32-.33a.63.63 0 0 1 .39-.16c.34 0 .62.09.73.14.07.03.1.11.06.18a.14.14 0 0 1-.18.06 1.58 1.58 0 0 0-.61-.12c-.06 0-.13.03-.22.1s-.18.17-.27.29a5.9 5.9 0 0 0-.32.47Zm-1.34 2.82c-.1-.02-.4.1-.42.13-.04.06-.1-.08-.1-.08a.13.13 0 0 1-.04-.18c.08-.11.39-.16.6-.14.2.03.43.15.71.42.06.05.06.13 0 .19a.14.14 0 0 1-.19 0c-.26-.26-.44-.33-.56-.34Zm3.3.57.42-.17c.07-.03.15.01.18.08a.13.13 0 0 1-.09.17 2.5 2.5 0 0 0-.46.2c-.13.07-.22.15-.25.21v.06c0 .01 0 .03.04.06h1.57c.08 0 .14.06.14.13s-.06.13-.14.13h-1.55a.74.74 0 0 0-.1.27c-.03.12 0 .21.1.28l1.49.92c.06.04.08.12.04.18a.14.14 0 0 1-.18.04 92.8 92.8 0 0 1-1.47-.9.5.5 0 0 0-.1-.01l-.08.01-.03.03v.03c0 .04.02.13.1.27.32.5.92.97 1.18 1.14.06.04.08.12.04.18a.14.14 0 0 1-.19.04 4.6 4.6 0 0 1-1.26-1.23 1.02 1.02 0 0 1-.13-.3.52.52 0 0 1-.35-.04.46.46 0 0 1-.18-.2l-.08-.16c-.2.02-.4-.02-.58-.07-.22-.07-.41-.17-.52-.24a.13.13 0 0 1-.04-.18.14.14 0 0 1 .18-.04 2 2 0 0 0 .46.2c.14.05.29.08.42.07a2.72 2.72 0 0 1-.08-.69c.01-.27.07-.57.25-.74.22-.22.52-.17.75-.07a2 2 0 0 1 .5.34Zm-.66 1.5a.39.39 0 0 1-.1.05.25.25 0 0 1-.2 0l-.02-.03a1.21 1.21 0 0 1-.14-.3c-.07-.2-.11-.49-.1-.74 0-.27.06-.47.16-.57.1-.1.25-.1.45 0 .14.05.27.14.38.23a.68.68 0 0 0-.21.24.32.32 0 0 0-.02.25c.01.05.04.1.08.13a.98.98 0 0 0-.13.34c-.02.1-.02.2.02.3a.4.4 0 0 0-.1.05.32.32 0 0 0-.07.05Zm-1.48.72c.05.06.05.14 0 .19-.1.1-.23.28-.36.53-.07.14-.13.3-.19.47a2.56 2.56 0 0 1 1.6.24c.07.03.09.12.05.18a.14.14 0 0 1-.18.05 2.29 2.29 0 0 0-1.02-.25c-.3 0-.4.04-.44.06a.16.16 0 0 0-.04.05l-.01.01-.08.1a.54.54 0 0 0-.07.15 1.2 1.2 0 0 0-.05.26c-.02.2.02.37.11.46.02.02.08.05.2.06a6.62 6.62 0 0 0 1.3-.1c.08-.01.15.04.16.1a.13.13 0 0 1-.1.16 6.9 6.9 0 0 1-1.39.1c-.13-.01-.27-.05-.36-.13-.18-.18-.2-.45-.19-.67.01-.11.03-.23.06-.32a.84.84 0 0 1 .1-.21 3.38 3.38 0 0 1 .7-1.49.14.14 0 0 1 .2 0Zm3.05 2.76c.04.06.02.14-.04.18-.15.1-.48.3-.94.3-.23 0-.44-.03-.6-.07a5.36 5.36 0 0 0-.33-.03H14v.02c-.01.02-.02.06-.02.13v.25l.06.45c.2-.08.47-.15.75-.18.35-.03.74.02 1.05.26.06.04.07.12.02.18a.14.14 0 0 1-.19.02 1.2 1.2 0 0 0-.86-.2c-.27.03-.53.1-.73.18a11.02 11.02 0 0 0 .06.31 5.71 5.71 0 0 1 1.3-.1c.14.02.29.06.4.12.03.03.05.07.05.11v.65l.14.78c0 .05-.02.1-.06.13a.14.14 0 0 1-.15 0 .77.77 0 0 0-.31-.08 8.84 8.84 0 0 0-1.55.1c-.05 0-.1 0-.13-.04a.13.13 0 0 1-.03-.12l.2-.78v-.5a7.84 7.84 0 0 0-.52 1.13c-.04.14-.04.23-.03.27.11.32.58.7 1.5.7.45 0 .9-.1 1.24-.25.34-.16.51-.36.51-.54 0-.07.06-.13.14-.13.07 0 .13.06.13.13 0 .34-.3.6-.66.77-.38.18-.87.28-1.36.28-.88 0-1.46-.33-1.7-.74-.25.13-.61.3-1 .44-.45.16-.95.3-1.36.3-.77 0-1.34-.18-1.54-.28a.13.13 0 0 1-.07-.17c.04-.07.12-.1.19-.06.16.08.68.25 1.42.25.36 0 .82-.13 1.27-.29.4-.14.77-.31 1.02-.44-.01-.1 0-.2.04-.3a8.38 8.38 0 0 1 .64-1.36l-.04-.23a1.37 1.37 0 0 0-.45.2l-.2.37a.14.14 0 0 1-.18.06.13.13 0 0 1-.06-.17l.34-.65a3.51 3.51 0 0 0-.76-.08.13.13 0 0 1-.13-.13c0-.08.06-.14.13-.14.45 0 .84.1 1 .14.03.01.06.04.07.08.02.03.02.07 0 .1v.02c.06-.03.13-.05.2-.06a7.8 7.8 0 0 1-.07-.76c0-.08 0-.16.03-.22a.3.3 0 0 1 .23-.2c.1 0 .2 0 .3.02l.15.03c.16.03.33.07.53.07.4 0 .67-.19.8-.27.05-.04.07.04.18.04Zm-1.68 2.7-.14.52a8.94 8.94 0 0 1 1.43-.07l.18.03-.08-.5a1.9 1.9 0 0 0-.71-.07c-.26.01-.5.05-.68.09Zm1.37-.3v-.39a.89.89 0 0 0-.21-.05 5.4 5.4 0 0 0-1.14.08v.39c.18-.04.4-.07.64-.08.24-.01.5 0 .71.05Zm-3.16-.25a.78.78 0 0 0-.35-.08.13.13 0 0 1-.14-.14c0-.07.06-.13.14-.13.13 0 .32.03.49.13.17.1.32.26.32.53 0 .05-.03.1-.08.12l-.25.12-.54.39-.81.53a4.34 4.34 0 0 1-1.06-.08.13.13 0 0 1-.1-.16c.02-.07.1-.11.17-.1.16.04.47.1.87.1l.35-.23c-.1 0-.2-.01-.27-.03-.2-.04-.24 0-.3-.07a.13.13 0 0 1 0-.19.14.14 0 0 1 .18 0c.02.02 0-.03.17 0 .15.03.37.04.67 0l.2-.15a.87.87 0 0 1-.4-.3.13.13 0 0 1 .04-.2.14.14 0 0 1 .2.05c.03.05.1.12.2.17.08.05.19.07.3.04l.18-.09a.33.33 0 0 0-.18-.23Z" fill="#231F20"/><path d="M16.2 24.91h-.04a.13.13 0 0 1-.13-.13c0-.07.06-.13.13-.13H16.28c.05.01.11.03.15.1.04.06.05.13.05.2 0 .06-.02.15-.05.26-.07.26-.14.45-.25.57a.52.52 0 0 1-.42.18.13.13 0 0 1-.14-.13c0-.07.06-.13.14-.13.1 0 .16-.02.21-.09a.9.9 0 0 0 .15-.3h-.1a.13.13 0 0 1-.13-.14c0-.07.06-.13.14-.13h.16a.81.81 0 0 0 .02-.13h-.01ZM13.86 23.47a1 1 0 0 1-.27-.66l-.4.52c.13 0 .13 1.19-.14 1.19-.21 0-.18-.53-.13-.8l-.14.27c0 .44.17 1.26.81 1.05.81-.26.54-1.31.27-1.57ZM12.38 31.61v-.66h1.21v.66h-1.21ZM14.13 31.87v-.79c.22 0 .73-.6.95-.92 0 .21.1.88.14 1.19l-1.09.52Z" fill="#231F20"/><path fill-rule="evenodd" d="M24 29h-4v6h4c.67 0 2-.3 2-1.5s-.83-1.5-1-1.5c.17 0 1-.3 1-1.5S24.67 29 24 29Zm-2 2.5v-1h1.33c.23 0 .67.1.67.5s-.44.5-.67.5H22Zm0 1v1h1.33c.23 0 .67-.1.67-.5s-.44-.5-.67-.5H22Z" fill="#2053A2"/></svg>