<!-- by TradingView --><svg width="56" height="56" viewBox="0 0 56 56" xmlns="http://www.w3.org/2000/svg"><path fill="#F0F3FA" d="M0 0h56v56H0z"/><path d="M12.54 32h-7c-.3 0-.54-.27-.54-.6v-6.8c0-.33.24-.6.54-.6h7c.25 0 .46.23.46.5v.6c0 .28-.2.4-.46.4H6.5v5h6.04c.25 0 .46.28.46.56v.43c0 .28-.2.51-.46.51Z" fill="url(#aenahigx1)"/><path d="M7 27.52c0-.29.2-.52.47-.52h4.06c.26 0 .47.23.47.52v.46c0 .29-.2.52-.47.52H7.47c-.26 0-.47-.23-.47-.52v-.46Z" fill="url(#benahigx1)"/><path d="M6.61 32h5.93c.25 0 .46-.2.46-.47v-.41c0-.15-.02-.62-.43-.62h-.1c.26.23.35.83.23.98H7.1c-.5 0-.56.32-.53.48l.04.04ZM5.22 31.45c.38-.32.76-.72.78-.78V28.8l-1 .76V31c0 .19.09.35.22.45ZM13 24.48c0-.19-.1-.35-.25-.43.23.23.07.82-.05.97H7.1c-.5 0-.56.32-.53.48l.02.02v-.02h5.95c.25 0 .46-.13.46-.48v-.54Z" fill="#034A78"/><path d="M14 24.77v6.38c0 .47.34.85.75.85h.05c.42 0 .7-.38.7-.85v-4.61l5.92 5.31c.1.1.23.15.37.15h.4c.34 0 .81-.3.81-.68v-5.09l5.66 5.63c.1.09.21.14.34.14h.47c.3 0 .53-.27.53-.6v-6.72c0-.38-.27-.68-.6-.68h-.18c-.34 0-.72.3-.72.68v4.85l-5.47-5.31a.77.77 0 0 0-.53-.22h-.24c-.46 0-.76.42-.76.94v4.92l-6.05-5.68A.63.63 0 0 0 15 24h-.33c-.38 0-.68.34-.68.77Z" fill="url(#cenahigx1)"/><path d="M18.39 26.97c-.7.02-1.34.18-1.92.4l4.95 4.48c.1.1.23.15.37.15h.4c.34 0 .81-.3.81-.68V28.7c-.43-.32-1.02-.63-1.5-.89v2.05l-3.11-2.89ZM27.52 28.58c-.48.32-.83.6-1.22.95l2.36 2.33c.1.09.21.14.34.14h.47c.3 0 .53-.27.53-.6v-4a7.7 7.7 0 0 0-1.5.53v1.6l-.98-.95ZM14 29.07v2.08c0 .47.34.85.75.85h.05c.42 0 .7-.38.7-.85v-3.32a6.7 6.7 0 0 0-1.5 1.24Z" fill="#1C6384"/><path d="M31.12 32h.26c.24 0 .46-.1.63-.3l4.49-5.27V29h-1.33a.62.62 0 0 0-.62.64c0 .38.28.68.62.68h1.33v.9c0 .43.41.78.8.78.39 0 .7-.35.7-.77v-6.4c0-.45-.34-.83-.76-.83h-.17c-.2 0-.4.09-.54.25-.86.98-4.02 4.57-5.85 6.59a.72.72 0 0 0-.18.48c0 .38.28.68.62.68Z" fill="url(#denahigx1)"/><path d="M31.38 32h-.26c-.34 0-.62-.3-.62-.68 0-.18.06-.35.18-.48l1.97-2.2c.68.14 1.39.06 1.97 0l-2.61 3.06c-.17.2-.4.3-.63.3ZM36.5 28.48V29h-1.33c-.34 0-.7.35-.7.73s.36.77.7.77h1.33v.73c0 .42.41.77.8.77.39 0 .7-.35.7-.77v-2.67l-1.5-.08Z" fill="#1C6384"/><path d="m44.4 25.43-3.18 2.5 3.45 2.57c.3.22.41.62.27.97a.8.8 0 0 1-.67.51l-.13.02a1 1 0 0 1-.72-.22l-4.21-3.4a.57.57 0 0 1 0-.89l4.25-3.33a.76.76 0 0 1 .84-.07c.5.27.56.99.1 1.34Z" fill="url(#eenahigx1)"/><path d="m40.86 27.55.27.3 3.07-2.3-.3-.3-3.04 2.3Z" fill="url(#fenahigx1)"/><path d="m44.55 30.4.12.1c.3.22.41.62.27.97a.8.8 0 0 1-.67.51l-.13.02a1 1 0 0 1-.72-.22l-3.13-2.52c.04-.1.06-.15.04-.17.83.49 2.6 1.56 3.06 1.94.57.48.81.39 1.1.19.18-.13.13-.52.06-.81Z" fill="#724A16"/><path d="M45.5 31.43V24.8c0-.44.33-.8.74-.8.4 0 .76.36.76.8v5.7h4.24c.42 0 .76.22.76.68 0 .45-.34.82-.76.82h-5.21c-.3 0-.53-.26-.53-.57Z" fill="url(#genahigx1)"/><defs><linearGradient id="aenahigx1" x1="4.9" y1="27.62" x2="13.09" y2="27.58" gradientUnits="userSpaceOnUse"><stop stop-color="#056191"/><stop offset=".52" stop-color="#23DAF6"/><stop offset=".99" stop-color="#0C94C1"/></linearGradient><linearGradient id="benahigx1" x1="9.68" y1="26.89" x2="9.46" y2="28.49" gradientUnits="userSpaceOnUse"><stop stop-color="#00AFEF"/><stop offset="1" stop-color="#07589A"/></linearGradient><linearGradient id="cenahigx1" x1="14.84" y1="25.99" x2="31.39" y2="26.2" gradientUnits="userSpaceOnUse"><stop stop-color="#20D6F4"/><stop offset=".18" stop-color="#0A91BD"/><stop offset=".46" stop-color="#0A729F"/><stop offset=".61" stop-color="#22DAF6"/><stop offset=".86" stop-color="#0884B2"/><stop offset=".94" stop-color="#17C3E6"/></linearGradient><linearGradient id="denahigx1" x1="33.76" y1="27.23" x2="38.12" y2="27.48" gradientUnits="userSpaceOnUse"><stop stop-color="#23DCF7"/><stop offset="1" stop-color="#135E81"/></linearGradient><linearGradient id="eenahigx1" x1="39.12" y1="27.72" x2="45" y2="27.46" gradientUnits="userSpaceOnUse"><stop offset=".09" stop-color="#854807"/><stop offset=".62" stop-color="#F8C626"/><stop offset="1" stop-color="#D49515"/></linearGradient><linearGradient id="fenahigx1" x1="41.25" y1="27.41" x2="42.65" y2="26.45" gradientUnits="userSpaceOnUse"><stop stop-color="#724510"/><stop offset="1" stop-color="#724510" stop-opacity="0"/></linearGradient><linearGradient id="genahigx1" x1="45.62" y1="25.27" x2="52.59" y2="29.14" gradientUnits="userSpaceOnUse"><stop stop-color="#11ADD7"/><stop offset=".2" stop-color="#13B5DC"/><stop offset=".45" stop-color="#1C6485"/><stop offset=".71" stop-color="#2FAEE4"/><stop offset="1" stop-color="#195977"/></linearGradient></defs></svg>