<!-- by TradingView --><svg width="56" height="56" fill="none" xmlns="http://www.w3.org/2000/svg"><path fill="#F0F3FA" d="M0 0h56v56H0z"/><path fill="#40474D" d="M4 26h1v5H4z"/><path fill-rule="evenodd" clip-rule="evenodd" d="M17 26h1v2h2v-2h1v5h-1v-2h-2v2h-1v-5ZM22 26v1h2v4h1v-4h2v-1h-5Z" fill="#40474D"/><path fill="#40474D" d="M5 31v-1h9v1z"/><path fill-rule="evenodd" clip-rule="evenodd" d="M16 30.127a2.5 2.5 0 0 1-1.901.873 2.502 2.502 0 0 1-2.504-2.5c0-1.38 1.12-2.5 2.504-2.5a2.5 2.5 0 0 1 1.91.884l-.694.74a1.499 1.499 0 1 0 .03 1.697h-.664v-.821H16.004v1.316H16v.31ZM27.597 26h.4v2.3H31V26h.393v5H31v-2.3h-3.003V31h-.4v-5ZM34.95 30.6a2.1 2.1 0 1 0 0-4.2 2.1 2.1 0 0 0 0 4.2Zm0 .4a2.5 2.5 0 1 0 0-5 2.5 2.5 0 0 0 0 5ZM39 26v2.794a1.797 1.797 0 1 0 3.594 0V26H43v2.794a2.203 2.203 0 1 1-4.407 0V26H39ZM45.818 26.001c.742-.023 1.332.348 1.547.548l-.272.295a1.919 1.919 0 0 0-1.262-.441c-.8.025-1.282.43-1.292.926-.005.216.134.412.456.596.319.182.769.32 1.269.433.444.1.752.312.94.581.187.267.246.574.224.847-.017.22-.129.524-.395.774-.27.254-.686.44-1.29.44-1.177 0-1.749-.516-1.889-.86l.37-.152c.06.146.449.61 1.519.61.519 0 .832-.157 1.017-.332a.838.838 0 0 0 .27-.512.892.892 0 0 0-.153-.583c-.123-.177-.339-.34-.7-.42-.51-.115-1.007-.264-1.38-.477-.37-.21-.667-.516-.658-.954.017-.814.79-1.29 1.68-1.319ZM48.608 26H52v.402h-3V28.3h2.57v.402H49v1.897h3V31h-3.392v-5Z" fill="#40474D"/><path d="M10.54 30.107v-1.118l-3.512 1.118h3.511ZM10.292 28.39v-1.635L7 27.852v1.676l3.292-1.137ZM10 26.079v-1.437l-2.753.964v1.471L10 26.08ZM9.74 23.043H7.406v1.6l2.334-.734v-.866ZM8.499 20c-.68.028-1.012.678-1.093 1H9.66c-.104-.345-.482-1.027-1.161-1ZM8.003 21.45h1v1h-1z" fill="#40474D"/><path fill-rule="evenodd" clip-rule="evenodd" d="m6.584 22.073-1.944-1.01.185-.355 2.647 1.375-2.651 1.3-.176-.36 1.94-.95ZM10.548 22.073l1.944-1.01-.185-.355-2.647 1.375 2.651 1.3.176-.36-1.94-.95Z" fill="#6FC5CC"/></svg>