<!-- by TradingView --><svg width="56" height="56" viewBox="0 0 56 56" xmlns="http://www.w3.org/2000/svg"><path fill="url(#aipd1sq1e)" d="M0 0h56v56H0z"/><path d="M40 26.08c0 2.61-1.68 3.92-4.63 3.92H33v1h2.37c3.39 0 5.69-1.8 5.69-4.85 0-3.12-2.3-5.16-5.69-5.16H31V33.7c0 4.38-3.22 8.3-7.6 8.3-4.25 0-7.4-3.36-7.4-8.22V17h-1v16.78c0 5.37 3.78 9.22 8.53 9.22 4.65 0 8.47-4.6 8.47-9.22V22h3.45c2.87 0 4.55 1.54 4.55 4.08ZM23.53 41c3.96 0 6.47-3.23 6.47-7.3V20h5.45C39.4 20 42 22.45 42 26.15S39.4 32 35.45 32H33v1h2.45c4.38 0 7.55-2.56 7.55-6.78 0-4.2-3.16-7.22-7.55-7.22H29v14.78c0 3.77-2.02 6.22-5.47 6.22-3.45 0-5.53-2.52-5.53-6.22V17h-1v16.78C17 37.7 19.5 41 23.53 41ZM45 26.08c0 5.3-4.23 8.92-9.63 8.92H33v-1h2.37c4.9 0 8.63-3.2 8.63-8 0-4.79-3.73-8-8.63-8H28v15.49c0 3.34-1.6 5.51-4.47 5.51-2.88 0-4.53-2.17-4.53-5.51V17h1v16.49c0 2.97 1.16 4.51 3.53 4.51 2.3 0 3.47-1.54 3.47-4.44V17h8.37c5.4 0 9.63 3.85 9.63 9.08Z" fill="#fff"/><defs><linearGradient id="aipd1sq1e" x1="10.42" y1="9.71" x2="68.15" y2="76.02" gradientUnits="userSpaceOnUse"><stop stop-color="#1A1E21"/><stop offset="1" stop-color="#06060A"/></linearGradient></defs></svg>