<!-- by TradingView --><svg width="56" height="56" viewBox="0 0 56 56" xmlns="http://www.w3.org/2000/svg"><path fill="#F0F3FA" d="M0 0h56v56H0z"/><path d="M13 13h30v30H13z"/><path fill-rule="evenodd" d="M42.5 13.5h-29v29h29v-29ZM13 13v30h30V13H13Z" fill="#C2B580"/><path d="M19 15h-3v5h3v-1h-2v-1h2v-1h-2v-1h2v-1ZM20 16v-1h4v1h-1.5v4h-1v-4H20ZM26 15h-1v5h1v-2h2v2h1v-5h-1v2h-2v-2Z" fill="#fff"/><path fill-rule="evenodd" d="M32.5 19a1.5 1.5 0 1 0 0-3 1.5 1.5 0 0 0 0 3Zm0 1a2.5 2.5 0 1 0 0-5 2.5 2.5 0 0 0 0 5Z" fill="#fff"/><circle cx="32.5" cy="17.5" r=".5" fill="#C2B580"/><path d="M38.1 20c-.39 0-.74-.07-1.06-.21a1.95 1.95 0 0 1-.74-.59 1.5 1.5 0 0 1-.3-.8h1.23c.02.18.1.33.27.45.16.13.36.19.6.19a.9.9 0 0 0 .53-.14c.14-.1.2-.21.2-.36 0-.16-.08-.27-.24-.35-.16-.08-.4-.17-.76-.26a6.63 6.63 0 0 1-.88-.27c-.23-.1-.43-.24-.6-.43-.16-.2-.24-.45-.24-.78 0-.27.08-.51.23-.73.16-.22.38-.4.66-.53.29-.13.63-.19 1.02-.19.57 0 1.03.15 1.37.44.34.28.53.67.57 1.16h-1.17a.62.62 0 0 0-.24-.45.85.85 0 0 0-.57-.18c-.22 0-.39.04-.51.12a.4.4 0 0 0-.17.34c0 .17.08.3.24.38.16.08.41.17.76.25.34.09.63.18.86.27.22.1.42.24.58.44.17.2.25.45.26.77 0 .28-.08.53-.23.75-.16.22-.38.4-.67.53-.28.12-.61.18-1 .18Z" fill="#fff"/><path d="M16 23a.95.95 0 0 1 .5-.87c.17-.09.34-.13.54-.13.23 0 .43.06.6.17.17.11.3.27.36.46h-.47a.47.47 0 0 0-.2-.2.6.6 0 0 0-.3-.08.63.63 0 0 0-.31.08.56.56 0 0 0-.22.23.73.73 0 0 0-.08.34c0 .13.03.24.08.34.05.1.12.18.22.23.09.05.2.08.32.08a.6.6 0 0 0 .29-.07.5.5 0 0 0 .2-.21H18a.88.88 0 0 1-.36.46c-.17.11-.37.17-.6.17-.2 0-.37-.04-.53-.13a.98.98 0 0 1-.38-.35A1 1 0 0 1 16 23ZM21.42 23.62h-.84l-.14.38H20l.75-2h.5l.75 2h-.45l-.13-.38Zm-.12-.32-.3-.84-.3.84h.6ZM35.42 23.62h-.84l-.14.38H34l.75-2h.5l.75 2h-.45l-.13-.38Zm-.12-.32-.3-.84-.3.84h.6ZM26 22.62c0 .1-.04.2-.1.3a.7.7 0 0 1-.33.22c-.15.06-.33.09-.56.09h-.51V24l-.5-.01V22h1.01c.21 0 .4.03.54.08.15.05.26.13.34.22.07.1.11.2.11.32Zm-1.01.28c.15 0 .26-.02.33-.07a.25.25 0 0 0 .11-.21c0-.2-.15-.3-.44-.3l-.49.02v.57h.49ZM28 22v2h.5v-2H28ZM32.31 22v.39h-.81V24H31v-1.61h-.69V22h2ZM38.43 23.62H39V24h-1v-2h.43v1.62Z" fill="#C2B580"/></svg>