<!-- by TradingView --><svg width="56" height="56" viewBox="0 0 56 56" xmlns="http://www.w3.org/2000/svg"><path fill="#F0F3FA" d="M0 0h56v56H0z"/><path d="M47 34.5C43.39 38.22 36.07 40 27.7 40 15.9 40 6 35 6 28.5S15.9 17 27.7 17c3.02 0 5.9.33 8.52.91l-.13.58c-2.58-.58-5.41-.9-8.4-.9-11.84 0-21.1 5.03-21.1 10.91s9.26 10.9 21.1 10.9c8.3 0 15.3-1.84 18.76-5.4H47v.5Z" fill="url(#agfbcjptf)"/><path d="m37.06 33.91-.06.25c0 .31.17.62.37.62h.06c2.45-.48 5.67.14 8.13.22.29-.13 1.44-.44 1.44-.81V34c-1.56-.04-3.45-.27-4.94-.27l-.03-.1c0-.09.06-.3.18-.62A221.3 221.3 0 0 1 47 22.27c.83-1.55 1.6-3.16 2.5-4.66.38-.46.49-.68.49-.77 0-.1-.11-.34-.23-.5-.17-.22-.31-.34-.45-.34 0 0-.67.63-.83.8-.94.79-5 2.65-6.06 3.67 0 .2.52.75.68.75 1.36-.75 2.93-1.42 3.93-2.24l.17.13-.05.21-.63 1.15c-1.74 4.12-3.63 8.17-5.5 12.23-.13.44-.16.56-.42 1.03l-2.81.09-.74.1Z" fill="url(#bgfbcjptf)"/><path d="m45.17 32.8.04.12c.1.06.16.08.22.08.05 0 .14-.03.18-.07.85-.67 1.51-2.19 1.93-3.32 0-.03 0-.06-.02-.1l-.05.12c-.5.98-.99 1.95-1.63 2.78-.08.1-.17.18-.2.18s-.05-.05-.05-.12v-.01c.26-1.57.87-3.03 1.5-4.38.12-.3.84-.34.98-.24l.02-.02c.02.02.04.03.08.03a.63.63 0 0 1-.03-.1c-.1-.37-.53-.06-.74-.17l-.01-.05c0-.08.07-.18.1-.25-.02-.05-.09-.14-.09-.2l-.04-.08c-.03 0-.1.08-.17.15-.07.1-.13.21-.23.44-.02.05-.04.08-.06.08l-.64.16-.02.06c-.01.02-.15.25-.06.25v.07c.14-.05.27-.1.4-.12l.07-.02c.03 0 .05.03.05.05l-.02.05c-.57 1.5-1.2 2.99-1.51 4.62Z" fill="url(#cgfbcjptf)"/><path d="M43 31.61c.37-.45.69-.9 1.05-1.39l.36-.47c.18-.24.27-.5.41-.75.1.03.21.15.21.25-.07.16-.1.27-.22.65l-.02.1c-.08.45-.14.9-.19 1.37l-.03.25v.1l.19-.17c.35-.38.8-.9 1.09-1.33.04-.05.06-.13.11-.14l.04.05-.09.14-1.33 1.67a.27.27 0 0 0-.07.16c-.05.3-.11.53-.25.8 0 .02-.04.05-.11.1-.15-.2-1.1-.56-1.1-.77 0-.1.16-.26.25-.3.22.05.85.3.93-.04l.27-1.85v-.06c0-.04 0-.05-.04-.06l-.09.1-1.31 1.64-.06-.05Z" fill="url(#dgfbcjptf)"/><path d="M22 22.14c0 .2.01.2.21.2h.45c.27 0 .49-.01.57-.04.07-.03.12-.07.16-.27l.06-.3c.03-.04.15-.04.17 0v1.49c-.02.04-.12.04-.17 0l-.07-.3c-.02-.13-.08-.23-.2-.28-.1-.03-.27-.04-.52-.04h-.45c-.2 0-.21.01-.21.2v1.05c0 .79 0 .9.4.94l.22.02c.04.03.03.17-.01.19H20.9c-.04-.02-.05-.14-.02-.19l.17-.02c.38-.05.4-.15.4-.94v-2.7c0-.79-.02-.9-.4-.95l-.1-.01c-.05-.03-.03-.17 0-.19h2.9l.01 1c-.02.04-.11.06-.16.01-.05-.33-.13-.6-.46-.71a2.91 2.91 0 0 0-.65-.05h-.4c-.2 0-.19.02-.19.3v1.59ZM24.4 23.01c0-.29 0-.33-.21-.46l-.08-.05c-.03-.03-.03-.1 0-.13.2-.06.7-.26.89-.37v2.13c0 .55.03.62.33.66l.17.02c.06.04.04.17-.02.19h-1.54c-.06-.02-.08-.15-.02-.19l.17-.02c.3-.04.32-.11.32-.66v-1.12Zm.8-2.63c0 .27-.21.39-.43.39-.26 0-.42-.17-.42-.37 0-.25.2-.4.44-.4.25 0 .4.17.4.38ZM27.52 29.01c0-.29 0-.33-.22-.46l-.07-.05c-.04-.03-.04-.1 0-.13.2-.06.58-.26.77-.37v2.13c0 .55.14.62.44.66l.17.02c.06.04.04.17-.01.19h-1.55c-.06-.02-.07-.15-.01-.19l.17-.02c.3-.04.31-.11.31-.66v-1.12Zm.68-2.63c0 .27-.21.39-.43.39-.26 0-.42-.17-.42-.37 0-.25.2-.4.44-.4.25 0 .4.17.4.38ZM26.42 22.95c0-.27 0-.3-.18-.43l-.07-.05c-.02-.02-.02-.1.01-.12.16-.06.6-.24.77-.35.03 0 .05.02.05.05v.4c0 .05 0 .07.02.07.24-.2.42-.42.67-.42.17 0 .31.11.31.28a.3.3 0 0 1-.3.33c-.06 0-.1-.03-.14-.05a.55.55 0 0 0-.3-.12c-.11 0-.12.07-.17.14-.07.1-.09.3-.09.55v.96c0 .5.02.6.2.61l.24.02c.05.04.04.16-.01.18h-1.39c-.04-.02-.06-.14-.01-.18l.13-.02c.25-.04.26-.1.26-.61v-1.24ZM23.42 28.95c0-.27 0-.3-.18-.43l-.07-.05c-.02-.02-.02-.1.01-.12.16-.06.6-.24.77-.35.03 0 .05.02.05.05v.4c0 .05 0 .07.02.07.24-.2.42-.42.67-.42.17 0 .31.11.31.28a.3.3 0 0 1-.3.33c-.06 0-.1-.03-.14-.05a.55.55 0 0 0-.3-.12c-.11 0-.12.07-.17.14-.07.1-.09.3-.09.55v.96c0 .5.02.6.2.61l.24.02c.05.04.04.16-.01.18h-1.39c-.04-.02-.06-.14-.01-.18l.13-.02c.25-.04.26-.1.26-.61v-1.24ZM25.37 28.95c0-.27.05-.3-.13-.43l-.07-.05c-.02-.02-.02-.1.01-.12.16-.06.6-.24.77-.35.03 0 .05.02.05.05v.4c0 .05 0 .07.02.07.24-.2.42-.42.67-.42.17 0 .31.11.31.28a.3.3 0 0 1-.3.33c-.06 0-.1-.03-.14-.05a.55.55 0 0 0-.3-.12c-.11 0-.12.07-.17.14-.07.1-.09.3-.09.55v.96c0 .5.02.6.2.61l.24.02c.05.04.04.16-.01.18h-1.39c-.04-.02-.06-.14-.01-.18l.13-.02c.25-.04.21-.1.21-.61v-1.24ZM29.86 22.13c.06.16.12.38.12.57-.03.05-.15.07-.18.03-.13-.32-.36-.52-.67-.52-.3 0-.49.17-.49.43 0 .3.32.45.59.59.4.21.77.45.77.96 0 .54-.53.81-1.1.81-.35 0-.62-.07-.8-.21-.07-.14-.11-.49-.1-.72.04-.04.14-.05.18 0 .13.38.37.72.8.72.28 0 .51-.15.51-.45 0-.33-.3-.5-.58-.66-.44-.23-.76-.48-.76-.87 0-.52.46-.81 1.04-.81.32 0 .6.07.67.13ZM31.1 22c-.1 0-.1.03-.1.21v1.5c0 .48.01.92.5.92.08 0 .15-.01.21-.04.07-.02.17-.12.19-.12.06 0 .09.1.08.15a1 1 0 0 1-.8.38c-.64 0-.77-.4-.77-.9v-1.92c0-.23 0-.18-.16-.18h-.21c-.04-.03-.05-.12-.02-.17.21-.07.4-.18.48-.26.1-.1.27-.4.34-.56.04-.02.13-.02.16.04v.45c0 .15-.02.16.1.16h.84c.09.07.07.29 0 .34h-.84ZM16.34 28.55c-.33 0-.34.02-.34.24v1.06c0 .79.03.9.42.94l.2.02c.04.03.03.17-.02.19h-1.67c-.04-.02-.05-.14-.01-.19l.11-.02c.39-.08.4-.15.4-.94v-2.7c0-.79-.04-.92-.4-.95l-.18-.01c-.04-.03-.03-.17.01-.19h1.67c.04.02.05.16.01.19l-.13.01c-.4.05-.41.16-.41.95V28c0 .23.01.24.34.24h1.97c.33 0 .35 0 .35-.24v-.86c0-.79-.02-.9-.42-.95l-.13-.01c-.04-.03-.03-.17.01-.19h1.64c.05.02.06.16.02.19l-.15.01c-.4.05-.4.16-.4.95v2.7c0 .79 0 .89.4.94l.17.02c.04.03.03.17-.01.19h-1.67c-.04-.02-.05-.14-.01-.19l.13-.02c.42-.06.4-.15.42-.94V28.8c0-.22-.02-.24-.35-.24h-1.97ZM21.6 29.43c.13-.04.14-.1.14-.2l.01-.33c.01-.27-.09-.62-.58-.62-.22 0-.5.1-.5.32-.02.11-.02.2-.09.24a.93.93 0 0 1-.45.13c-.07 0-.11-.03-.11-.1 0-.37.9-.87 1.48-.87.57 0 .85.3.82.83l-.04 1.24c-.02.33.05.62.36.62a.5.5 0 0 0 .2-.05l.1-.04c.04 0 .06.04.06.09 0 .03-.28.31-.67.31a.67.67 0 0 1-.52-.22c-.03-.04-.07-.1-.12-.1-.06 0-.15.06-.31.14-.18.09-.35.18-.58.18a.89.89 0 0 1-.55-.16.64.64 0 0 1-.25-.5c0-.28.15-.44.66-.6l.95-.31Zm-.48 1.25c.15 0 .4-.1.48-.18.1-.08.1-.18.1-.33l.02-.42c0-.08-.03-.1-.08-.1s-.18.03-.33.08c-.46.14-.7.25-.7.52 0 .12.1.43.5.43ZM25.1 36.43c.13-.04.14-.1.14-.2l.01-.33c.01-.27-.09-.62-.58-.62-.22 0-.5.1-.5.32-.02.11-.02.2-.09.24a.93.93 0 0 1-.45.13c-.07 0-.11-.03-.11-.1 0-.36.9-.87 1.48-.87.57 0 .85.3.82.83l-.04 1.24c-.02.33.05.62.36.62a.5.5 0 0 0 .2-.04l.1-.05c.04 0 .06.04.06.09 0 .03-.28.31-.67.31a.67.67 0 0 1-.52-.22c-.03-.04-.07-.1-.12-.1-.06 0-.15.06-.31.14-.18.09-.35.18-.58.18a.89.89 0 0 1-.55-.16.64.64 0 0 1-.25-.5c0-.28.15-.44.66-.6l.95-.31Zm-.48 1.25c.15 0 .4-.1.48-.18.1-.08.1-.18.1-.33l.02-.42c0-.08-.03-.1-.08-.1s-.18.03-.33.08c-.46.14-.7.25-.7.52 0 .12.1.43.5.43ZM19.28 33h2.04c.7 0 1.57.27 1.57 1.12 0 .66-.55 1.06-1.13 1.22v.02c.72.09 1.52.43 1.52 1.27 0 .96-.95 1.37-1.79 1.37h-2.2v-.14c.44-.03.71-.15.71-.6v-3.51c0-.45-.27-.6-.72-.6V33Zm1.85.14c-.43 0-.35.2-.35.6v3.51c0 .43-.07.59.36.59.99 0 1.4-.46 1.4-1.24 0-.8-.6-1.14-1.33-1.14h-.77V35.34h.64c.3 0 .52-.05.68-.15.32-.22.42-.6.42-1 0-.7-.3-1.05-1.05-1.05ZM30.86 28.13c.06.16.12.38.12.57-.03.05-.15.07-.18.03-.13-.32-.36-.52-.67-.52-.3 0-.49.17-.49.43 0 .3.32.45.59.59.4.21.77.45.77.96 0 .54-.53.81-1.1.81-.35 0-.62-.07-.8-.21a2 2 0 0 1-.1-.72c.04-.04.14-.05.18 0 .13.38.37.72.8.72.28 0 .51-.15.51-.45 0-.33-.3-.5-.58-.66-.44-.23-.76-.48-.76-.87 0-.52.46-.81 1.04-.81.32 0 .6.07.67.13ZM34.5 29.47c0 .9-.62 1.53-1.52 1.53-.83 0-1.48-.58-1.48-1.46 0-.9.69-1.54 1.54-1.54.8 0 1.46.6 1.46 1.47Zm-1.55-1.26c-.48 0-.83.45-.83 1.23 0 .65.3 1.35.93 1.35.64 0 .83-.66.83-1.2 0-.6-.25-1.38-.93-1.38ZM35.4 28.95c0-.27 0-.3-.17-.44l-.05-.04c-.03-.03-.03-.1 0-.12.15-.06.51-.24.64-.35.03 0 .06.01.07.05l-.01.33c0 .04.02.08.07.08.27-.18.57-.36.9-.36.52 0 .74.4.74.87v1.22c0 .5.01.58.24.61l.14.02c.05.04.03.16-.01.18h-1.2c-.04-.02-.05-.14 0-.18l.11-.02c.24-.04.25-.1.25-.61v-1.05c0-.4-.17-.7-.6-.7-.25 0-.46.11-.55.24-.08.12-.1.22-.1.43v1.08c0 .5.02.57.25.61l.11.02c.05.04.04.16 0 .18h-1.19c-.04-.02-.06-.14-.01-.18l.13-.02c.24-.03.25-.1.25-.61v-1.24M27 36c0-.28-.07-.36-.24-.49l-.06-.04c-.02-.03-.02-.1.01-.12.15-.06.51-.24.64-.35.02 0 .06.01.07.05l-.01.33c0 .04.02.08.07.08.26-.18.56-.36.89-.36.53 0 .75.4.75.87v1.22c0 .5.01.58.24.61l.14.02c.04.04.03.16-.01.18h-1.2c-.04-.02-.05-.14-.01-.18l.12-.02c.24-.04.24-.1.24-.61v-1.05c0-.4-.16-.7-.6-.7-.49 0-.57.27-.57.67v1.08c0 .5-.05.57.18.61l.11.02c.05.04.03.16-.01.18h-1.18c-.05-.02-.06-.14-.01-.18l.13-.02c.24-.03.31-.1.31-.61V36ZM31 33v4.4c0 .36.06.47.33.47V38H30v-.13c.32 0 .44-.11.44-.46v-3.64c0-.2-.03-.34-.1-.43-.06-.09-.17-.14-.34-.14v-.13a3.45 3.45 0 0 0 .67 0c.1-.02.25-.04.33-.07Zm1.78 1.72v.12c-.1.01-.19.04-.27.1a.92.92 0 0 0-.25.2l-.8.95.07-.18 1.07 1.62c.06.1.12.18.18.23.06.06.14.1.22.1V38h-1.1v-.13c.08 0 .13-.03.16-.07.03-.04.02-.1-.02-.15l-.66-1.07a.65.65 0 0 0-.2-.23c-.06-.03-.07-.05-.18-.05v-.13c.12-.02.15-.05.23-.08a.8.8 0 0 0 .22-.19l.42-.49c.12-.14.18-.25.18-.33a.18.18 0 0 0-.12-.18.68.68 0 0 0-.3-.06v-.12h1.15Z" fill="#2C2623"/><defs><linearGradient id="agfbcjptf" x1="11.54" y1="20.83" x2="41.86" y2="37.01" gradientUnits="userSpaceOnUse"><stop stop-color="#EE3127"/><stop offset=".35" stop-color="#F47E2D"/><stop offset="1" stop-color="#FCB024"/></linearGradient><linearGradient id="bgfbcjptf" x1="44.04" y1="15.44" x2="43.47" y2="35" gradientUnits="userSpaceOnUse"><stop stop-color="#EF4733"/><stop offset="1" stop-color="#FDB528"/></linearGradient><linearGradient id="cgfbcjptf" x1="47.5" y1="27" x2="47.5" y2="33" gradientUnits="userSpaceOnUse"><stop stop-color="#F78A24"/><stop offset="1" stop-color="#F9A21C"/></linearGradient><linearGradient id="dgfbcjptf" x1="44.5" y1="29" x2="44.5" y2="33" gradientUnits="userSpaceOnUse"><stop stop-color="#F68C2E"/><stop offset="1" stop-color="#FBAE2D"/></linearGradient></defs></svg>