<!-- by TradingView --><svg width="56" height="56" viewBox="0 0 56 56" xmlns="http://www.w3.org/2000/svg"><path fill="#F0F3FA" d="M0 0h56v56H0z"/><path d="M15.5 25H12l-3 4h3.5l3-4Z" fill="#FD6300"/><path d="M12 25h3.5l2.5 3h-3.5L12 25Z"/><path d="M12 30H8.5L7 32h3.5l1.5-2ZM51 29H11.32v.54H51V29Z" fill="#FD6300"/><path d="M5 29h7l-.56.54H5V29ZM21.5 25.95h-.1c-.07-.55-.34-.82-.86-.82h-.24v1.35c.16 0 .3-.04.38-.07.07-.06.15-.12.19-.23.04-.1.08-.25.08-.42H21v1.48h-.05a.9.9 0 0 0-.14-.51c-.1-.14-.35-.15-.51-.15v1.3h.43V28h-2.08v-.11H19V25.1h-.35V25h2.85v.95ZM26.63 27.46c-.09.37-.32.54-.73.54-.4 0-.71-.11-.86-.5-.04-.11-.04-.38-.04-.77 0-.23-.16-.28-.38-.28h-.32v1.44h.47V28h-2.14v-.11H23V25.1h-.38V25h2.71c.48 0 .97.1.97.69 0 .35-.18.6-.5.69.22.07.37.15.43.24.06.1.1.22.1.37 0 .08-.08.58.05.58.02 0 .04-.02.06-.05l.06-.12.13.06ZM25 26.04v-.61c0-.13-.02-.2-.06-.24-.04-.04-.19-.06-.34-.06h-.3v1.23h.28c.25 0 .42-.04.42-.32ZM29 25c.89 0 1.52.62 1.52 1.5S29.9 28 29.03 28s-1.51-.62-1.51-1.5c0-.87.62-1.5 1.48-1.5Zm.22 2.6v-2.17c0-.18-.07-.27-.2-.27-.16 0-.2.1-.2.29v2.2c0 .17.03.24.2.24.13-.02.2-.1.2-.29ZM35.6 28h-1.94v-.11H34v-2.47L33.25 28H33l-.9-2.58v1.59c0 .34.05.88.5.88V28h-1v-.11c.35 0 .4-.55.4-.8v-1.8l-.1-.18h-.29V25H33l.53 1.5L34 25h1.6v.11h-.3v2.8h.3V28ZM39.56 28h-2.9v-.11H37V25.1h-.34V25h2.8v1h-.1c-.05-.6-.52-.9-1.06-.9v1.29h.11c.14 0 .25-.06.37-.16.11-.11.15-.28.15-.53H39v1.48h-.07c0-.2-.06-.38-.15-.49a.47.47 0 0 0-.37-.17h-.11v1.39c.62 0 1.05-.29 1.17-.91h.09v1ZM40.72 25h2.15c.79 0 .92.77.92 1.47 0 .62-.1 1.53-.84 1.53h-2.23v-.11H41v-2.8h-.28V25Zm2.1 2.48v-1.93c0-.23 0-.42-.28-.42h-.24v2.8h.21c.28 0 .32-.13.32-.45ZM46.64 28h-2v-.11H45V25.1h-.36V25h2v.11h-.34v2.78h.34V28ZM49.42 28v-.11h.3l-.25-.8h-.9c-.02.1-.03.15-.03.23 0 .15.03.28.1.4.06.13.2.17.36.17V28h-1v-.11c.08-.04.15-.14.23-.25.08-.13.15-.27.2-.44l.68-2.2H50l.85 2.89H51V28h-1.58Zm.01-1L49 25.59 48.62 27h.81Z"/></svg>