<!-- by TradingView --><svg width="56" height="56" viewBox="0 0 56 56" xmlns="http://www.w3.org/2000/svg"><path fill="#F0F3FA" d="M0 0h56v56H0z"/><path fill-rule="evenodd" d="M5.43 22C4.64 22 4 22.7 4 23.58v5.84c0 .87.64 1.58 1.43 1.58h20.64c.79 0 1.43-.7 1.43-1.58v-5.84c0-.87-.64-1.58-1.43-1.58H5.43Zm1.44 2-2.29 5H5.9l.43-1H8.7l.5 1h1.33l-2.38-5H6.87Zm.62 1.28L6.73 27H8.3l-.8-1.72ZM12.2 24H11v5h1.2v-5Zm.8 0h1.2v5H13v-5Zm13.85 2.5c0 1.4-1.3 2.52-2.92 2.52-1.62 0-2.93-1.13-2.93-2.51 0-1.39 1.31-2.51 2.93-2.51 1.61 0 2.92 1.12 2.92 2.5Zm-1.25 0c0 .91-.75 1.64-1.67 1.64-.93 0-1.68-.73-1.68-1.63 0-.9.75-1.64 1.68-1.64.92 0 1.67.73 1.67 1.64Zm-5.02 1.06A3 3 0 0 1 17.93 29C16.3 29 15 27.88 15 26.5s1.31-2.5 2.93-2.5a3 3 0 0 1 2.63 1.41l-1.33.3c-.27-.5-.78-.84-1.36-.84a1.6 1.6 0 0 0-1.55 1.63c0 .9.7 1.63 1.55 1.63.64 0 1.2-.41 1.43-1l1.28.43Z" fill="#003896"/><path fill-rule="evenodd" d="M29.93 22c-.79 0-1.43.7-1.43 1.58v5.84c0 .87.64 1.58 1.43 1.58h20.64c.79 0 1.43-.7 1.43-1.58v-5.84c0-.87-.64-1.58-1.43-1.58H29.93Zm4.09 3c.78-.02.96.6.96.9h-.53c0-.13-.08-.36-.43-.38-.36-.02-.5.15-.49.26v.02c.01.1.03.24.78.45.62.17.79.57.8.75 0 .36-.18.99-1.1 1-.9.01-1.1-.66-1.09-1h.47c.07.42.45.53.63.52.17-.02.5-.1.5-.41 0-.24-.46-.4-.69-.46-.74-.2-.85-.52-.85-.8 0-.27.25-.83 1.04-.85Zm-4.24 0h-.51v3h.5v-3Zm11.93 0-.97 3h.56l.2-.67h.98l.22.67h.57l-1.02-3h-.54Zm.27.77-.33 1.05h.67l-.34-1.05ZM36 25h-.57v1.93a1.07 1.07 0 1 0 2.14 0V25H37v2a.5.5 0 1 1-1 0v-2Zm13.78 2.45v-.74h1.33v-.55h-1.33v-.61h1.5V25h-2.01v3h2.01v-.55h-1.5ZM38 25H39.34a.89.89 0 0 1 .28 1.73l.71 1.27h-.58l-.69-1.22h-.55V28H38v-3Zm.51 1.28h.72a.4.4 0 1 0 0-.78h-.72v.78Zm9.1 1.72c.54 0 1-.35 1.22-.86l-.59-.26c-.1.35-.36.6-.65.6-.4 0-.7-.44-.7-.98s.3-.98.7-.98c.27 0 .5.2.62.5l.6-.17c-.2-.5-.66-.85-1.2-.85-.73 0-1.33.67-1.33 1.5s.6 1.5 1.34 1.5Zm-17.26-3v3h.54v-1.84L31.94 28h.59v-3H32v1.9L30.89 25h-.54Zm13.32 3v-3h.54l1.11 1.9V25h.53v3h-.6l-1.04-1.84V28h-.54Z" fill="red"/><path d="M5.35 32.11 4.75 34h-.5l.83-2.27h.32l-.05.38Zm.5 1.89-.6-1.89-.05-.38h.31L6.35 34h-.5Zm-.02-.86v.36H4.65v-.36h1.18ZM7.08 31.73h.39l.57 1.64.58-1.64H9L8.2 34h-.32l-.8-2.27Zm-.21 0h.39l.07 1.6V34h-.46v-2.27Zm1.96 0h.39V34h-.46v-.67l.07-1.6ZM11.43 33.61V34h-1.19v-.39h1.2Zm-1.04-1.88V34h-.46v-2.27h.46Zm.89.91V33h-1.04v-.36h1.04Zm.15-.9v.35h-1.19v-.36h1.2ZM12 31.73h.85c.17 0 .32.03.44.08s.22.13.28.23c.07.1.1.22.1.37 0 .12-.02.22-.06.3a.58.58 0 0 1-.17.22.88.88 0 0 1-.25.13l-.15.08h-.72v-.36h.53c.08 0 .15-.01.2-.04.06-.03.1-.07.12-.12a.37.37 0 0 0 .04-.18.4.4 0 0 0-.04-.19.27.27 0 0 0-.12-.12.45.45 0 0 0-.2-.04h-.37V34H12v-2.27ZM13.26 34l-.5-1.03h.48l.52 1.03h-.5ZM14.83 31.73V34h-.46v-2.27h.46ZM16.87 33.23h.46c0 .15-.05.28-.12.4a.74.74 0 0 1-.3.27c-.14.07-.3.1-.48.1a.96.96 0 0 1-.38-.07.82.82 0 0 1-.3-.22.96.96 0 0 1-.18-.34 1.47 1.47 0 0 1-.06-.44v-.16c0-.16.02-.3.06-.44.05-.13.11-.25.2-.34.07-.1.17-.16.28-.21a.93.93 0 0 1 .38-.08 1 1 0 0 1 .48.1c.12.07.22.16.3.28.07.12.1.26.12.4h-.46a.6.6 0 0 0-.05-.22.3.3 0 0 0-.14-.15.52.52 0 0 0-.25-.04.44.44 0 0 0-.2.04.37.37 0 0 0-.14.13.65.65 0 0 0-.09.22c-.02.09-.03.2-.03.31v.16c0 .11.01.22.03.3a.7.7 0 0 0 .08.23c.04.06.08.1.14.13a.54.54 0 0 0 .45 0 .32.32 0 0 0 .14-.14.54.54 0 0 0 .06-.22ZM18.86 32.11 18.25 34h-.5l.84-2.27h.31l-.04.38Zm.5 1.89-.6-1.89-.06-.38h.32l.83 2.27h-.49Zm-.03-.86v.36h-1.18v-.36h1.18ZM22.19 31.73V34h-.46l-.9-1.53V34h-.46v-2.27h.46l.9 1.5v-1.5h.46ZM24.46 31.73V34H24v-2.27h.46ZM27 31.73V34h-.46l-.9-1.53V34h-.46v-2.27h.46l.9 1.5v-1.5H27ZM28.72 31.73V34h-.46v-2.27h.46Zm.69 0v.36h-1.82v-.36h1.82ZM31.5 33.61V34h-1.18v-.39h1.19Zm-1.03-1.88V34H30v-2.27h.47Zm.88.91V33h-1.03v-.35h1.03Zm.16-.9v.35h-1.2v-.36h1.2ZM32 31.73h.84c.17 0 .31.03.44.08.12.05.22.13.28.23.07.1.1.22.1.37 0 .12-.02.22-.06.3a.58.58 0 0 1-.17.22.88.88 0 0 1-.26.13l-.14.08h-.73v-.36h.54c.08 0 .15-.01.2-.04.05-.03.1-.07.12-.12a.37.37 0 0 0 .04-.18.4.4 0 0 0-.04-.19.27.27 0 0 0-.12-.12.45.45 0 0 0-.2-.04h-.38V34H32v-2.27ZM33.25 34l-.5-1.03h.48l.52 1.03h-.5ZM36.21 31.73V34h-.46l-.9-1.53V34h-.46v-2.27h.46l.9 1.5v-1.5h.46ZM37.86 32.11l-.6 1.89h-.5l.83-2.27h.32l-.05.38Zm.5 1.89-.6-1.89-.05-.38h.31l.84 2.27h-.5Zm-.02-.86v.36h-1.18v-.36h1.18ZM40.19 31.73V34h-.46v-2.27h.46Zm.68 0v.36h-1.82v-.36h1.82ZM42 31.73V34h-.46v-2.27H42ZM44.52 32.8v.1c0 .17-.02.33-.07.46a1 1 0 0 1-.2.35.84.84 0 0 1-.3.21.96.96 0 0 1-.38.08.96.96 0 0 1-.38-.08.86.86 0 0 1-.3-.21c-.09-.1-.16-.21-.2-.35a1.41 1.41 0 0 1-.07-.46v-.1c0-.17.02-.33.07-.46a1 1 0 0 1 .2-.35c.08-.09.18-.16.3-.21a.96.96 0 0 1 .38-.08c.14 0 .27.03.38.08.12.05.22.12.3.21a1 1 0 0 1 .2.35c.05.13.07.29.07.46Zm-.46.1v-.1c0-.12-.02-.23-.04-.32a.68.68 0 0 0-.1-.23.41.41 0 0 0-.15-.13.44.44 0 0 0-.2-.05.41.41 0 0 0-.36.19.7.7 0 0 0-.1.22c-.02.1-.03.2-.03.32v.1c0 .12.01.23.03.32a.7.7 0 0 0 .1.23c.04.06.1.1.15.14.06.03.13.04.21.04.08 0 .15-.01.2-.04a.41.41 0 0 0 .16-.14.72.72 0 0 0 .1-.23c.01-.1.03-.2.03-.32ZM47 31.73V34h-.45l-.9-1.53V34h-.46v-2.27h.46l.9 1.5v-1.5H47ZM48.63 32.11l-.6 1.89h-.5l.84-2.27h.3l-.04.38Zm.5 1.89-.6-1.89-.05-.38h.31l.84 2.27h-.5Zm-.02-.86v.36h-1.18v-.36h1.18ZM51.59 33.61V34h-1.13v-.39h1.13Zm-.98-1.88V34h-.46v-2.27h.46Z" fill="#003896"/></svg>