<!-- by TradingView --><svg width="56" height="56" viewBox="0 0 56 56" xmlns="http://www.w3.org/2000/svg"><path fill="#F0F3FA" d="M0 0h56v56H0z"/><path d="M22.32 17.69A24.78 24.78 0 0 0 24.24 7c2.4 2.78 1.61 7.5.95 9.46 0 0-1.51 4.3-2.45 7.06-.96 2.82-2.41 7.23-2.41 7.23-.7-2.8-.39-7.5 1.99-13.06Z" fill="#FF0015"/><path d="M24.24 22.3c4.1-8.12 2.88-13.18 1.71-14.8 3.7 3.34 4.44 9.31-.28 18.2-3.77 7.13-2.27 13.18-1.05 15.31-2.13-2.09-5.62-8.32-.38-18.7Z" fill="#DE2954"/><path d="M27.04 25.03c2.74-5.56 3.14-9.57 3-10.88 1.44 3.04 1.97 6.28-1.62 14.03-2.87 6.2-3.13 10.96-2.9 12.57-1.84-3.84-1.9-8.76 1.52-15.72Z" fill="#E45C70"/><path d="M29.4 29.16c2.8-5.71 3.28-9.7 3.17-10.98.46 1.1 2.63 5.4-1.22 12.79-3.08 5.92-3.59 11.59-3.46 13.68-1.51-3.36-1.97-8.35 1.52-15.49Z" fill="#F0A0AD"/><path d="M31.9 33.7c2.61-5.64 3.2-9.71 3.17-11.05 1.15 3.02 1.84 6.38-1.68 13.78-2.82 5.92-3.15 10.85-2.96 12.57-1.75-4.48-1.78-8.25 1.48-15.3Z" fill="#F5BEC1"/></svg>