<!-- by TradingView --><svg width="56" height="56" viewBox="0 0 56 56" xmlns="http://www.w3.org/2000/svg"><path fill="#F0F3FA" d="M0 0h56v56H0z"/><path d="M13 12h30v26H13V12Zm13.82 2.23c-3.17.34-5.34 2.35-5.72 5.47a6.58 6.58 0 0 0 6.81 7.56c4.44-.14 7.27-4.22 6.09-8.47-.9-3.2-3.82-4.94-7.18-4.56ZM16.95 29c.04.14.05.25.05.4v6.85c0 .25 0 .5-.08.75h3.24c.3 0 .7 0 .9-.04.95-.16 1.8-.98 1.8-1.98 0-1.06-.67-1.8-1.68-2.02.42-.13.86-.3 1.14-.66.33-.4.4-.95.36-1.45-.03-.49-.2-.98-.56-1.31-.43-.42-1.05-.53-1.63-.54h-3.54Zm6.96 0c.04.13.1.23.09.37v4.6c0 1.97 1.7 3 3.52 3.03 1.88 0 3.48-.97 3.48-2.96V29.4c0-.15.02-.26.05-.4h-1.11c.04.15.06.27.06.43v4.55c0 1.17-.72 2.01-1.92 2.02A1.98 1.98 0 0 1 26 34.04v-4.3c0-.26 0-.49.08-.74H23.9Zm10.27 0c0 .13-.02.22-.06.34l-2.57 7.24c-.05.15-.12.29-.2.42h1.1c0-.15.15-.45.22-.65.2-.59.3-.76.5-1.35h2.69c.22.67.38.87.6 1.53.04.13.13.34.13.47h2.33a1.69 1.69 0 0 1-.28-.55c-.85-2.4-1.7-4.43-2.55-6.83-.08-.21-.17-.4-.18-.62h-1.73Z" fill="#B22B40"/><path d="M26.9 14.92c.14-.23.32-.45.56-.57l.01 1.67c-.36.01-.72.04-1.08.08.13-.4.29-.81.51-1.18ZM27.85 14.35c.22.1.39.3.52.5.25.38.42.82.56 1.26a10.5 10.5 0 0 0-1.08-.09v-1.67ZM26.12 14.73c.2-.12.42-.2.64-.28-.38.5-.6 1.11-.78 1.72-.56.1-1.1.24-1.63.45.43-.76 1-1.45 1.77-1.89ZM28.55 14.45a4.54 4.54 0 0 1 2.43 2.17 8.97 8.97 0 0 0-1.63-.45 5.33 5.33 0 0 0-.8-1.72ZM23.12 16.2a6.38 6.38 0 0 1 2.38-1.52 5.71 5.71 0 0 0-1.62 2c-.03.07-.05.16-.13.2-.81.4-1.57.95-2.11 1.68a6.4 6.4 0 0 1 1.48-2.36ZM29.82 14.69a6.48 6.48 0 0 1 3.9 3.89 5.83 5.83 0 0 0-2.11-1.68.18.18 0 0 1-.1-.1 5.85 5.85 0 0 0-1.69-2.11ZM26.28 16.5c.4-.05.8-.09 1.2-.1v2.07c-.52 0-1.04.03-1.55.07.07-.68.18-1.37.35-2.04ZM27.86 16.4c.4.01.8.05 1.2.1.17.67.29 1.36.37 2.04-.52-.04-1.04-.06-1.56-.07l-.02-2.06ZM24.09 17.14a8.03 8.03 0 0 1 1.78-.57 15.3 15.3 0 0 0-.33 2c-.68.08-1.35.19-2 .35a8 8 0 0 1 .55-1.78ZM29.46 16.58c.62.12 1.22.3 1.8.57.25.56.44 1.16.56 1.77-.66-.16-1.33-.27-2-.34a15.1 15.1 0 0 0-.36-2ZM22.89 17.85c.21-.16.44-.31.68-.45-.2.53-.35 1.07-.44 1.63-.6.18-1.22.4-1.72.79.25-.8.81-1.47 1.48-1.97ZM31.78 17.42a4.94 4.94 0 0 1 1.9 1.79c.1.2.2.4.27.62a5.3 5.3 0 0 0-1.72-.8c-.1-.55-.25-1.1-.45-1.61ZM25.89 18.93c.53-.05 1.06-.07 1.6-.08v1.68h-1.67c0-.54.03-1.07.07-1.6ZM27.87 18.85c.53 0 1.06.03 1.6.08.05.53.07 1.07.08 1.6h-1.68v-1.68ZM23.46 19.33c.67-.18 1.36-.29 2.05-.37-.05.52-.07 1.04-.07 1.57h-2.07c0-.4.04-.8.1-1.2ZM29.85 18.97c.7.08 1.38.19 2.05.37.06.4.1.8.1 1.2l-2.07-.01c0-.52-.03-1.04-.08-1.56ZM21.85 19.97c.38-.23.8-.4 1.21-.53-.04.36-.07.72-.07 1.08H21.3c.11-.24.32-.4.54-.55ZM32.3 19.45c.43.14.86.3 1.24.55.2.13.4.3.52.53h-1.68c0-.36-.03-.72-.08-1.08ZM21.31 20.9H23c0 .37.04.73.08 1.08-.4-.13-.81-.28-1.18-.5a1.47 1.47 0 0 1-.58-.57ZM23.37 20.9h2.07c.01.53.04 1.05.08 1.57-.69-.08-1.37-.2-2.04-.37-.07-.4-.1-.8-.11-1.2ZM25.82 20.9h1.68v1.68c-.53 0-1.06-.03-1.6-.08-.04-.53-.07-1.06-.08-1.6ZM27.88 20.91h1.67c0 .53-.02 1.06-.07 1.6-.53.04-1.06.07-1.6.07v-1.67ZM29.87 22.47c.04-.52.06-1.04.06-1.56h2.08c-.01.4-.04.8-.1 1.2-.67.17-1.35.28-2.04.36ZM32.31 21.99c.05-.36.07-.72.08-1.08h1.67c-.17.34-.5.54-.81.7-.3.16-.62.28-.94.38ZM21.41 21.6c.51.4 1.12.62 1.73.8.1.56.25 1.1.46 1.63A5.28 5.28 0 0 1 22 22.7a3.6 3.6 0 0 1-.59-1.09ZM32.25 22.4c.6-.18 1.21-.4 1.72-.79a4.14 4.14 0 0 1-1.59 2.06c-.18.14-.38.26-.57.37.2-.53.34-1.08.44-1.64ZM23.55 22.5c.66.17 1.33.28 2 .35.08.68.2 1.36.36 2.02-.6-.12-1.18-.3-1.73-.55-.05 0-.07-.05-.09-.09a8.2 8.2 0 0 1-.54-1.72ZM29.83 22.85a15 15 0 0 0 2.01-.34 8.21 8.21 0 0 1-.53 1.72c-.01.04-.03.08-.08.1a8.1 8.1 0 0 1-1.73.54c.16-.66.26-1.34.33-2.02ZM21.66 22.88a5.74 5.74 0 0 0 1.82 1.52c.12.08.27.12.37.22.4.82.97 1.58 1.7 2.13a6.47 6.47 0 0 1-3.89-3.87ZM25.95 22.89a21 21 0 0 0 1.56.07v2.08c-.4 0-.8-.04-1.19-.1-.18-.67-.3-1.36-.37-2.05ZM27.89 22.96c.52 0 1.04-.03 1.56-.07-.08.7-.19 1.38-.36 2.05-.4.06-.8.1-1.2.1v-2.08ZM31.64 24.56c.8-.4 1.55-.96 2.1-1.68a6.4 6.4 0 0 1-3.87 3.88 5.69 5.69 0 0 0 1.61-2c.05-.07.07-.17.16-.2ZM24.4 24.83c.52.2 1.07.35 1.62.45.19.6.41 1.2.8 1.7a4.19 4.19 0 0 1-2.05-1.57 6.85 6.85 0 0 1-.37-.58ZM29.4 25.28c.55-.1 1.1-.25 1.62-.45a4.86 4.86 0 0 1-1.8 1.9c-.2.1-.4.2-.6.26.38-.5.6-1.1.77-1.71ZM26.44 25.34c.36.05.72.07 1.08.08v1.67a1.75 1.75 0 0 1-.68-.78c-.17-.3-.3-.64-.4-.97ZM27.9 25.42c.36 0 .72-.03 1.08-.08-.14.43-.3.85-.54 1.23-.13.2-.3.41-.53.52l-.01-1.67ZM19 29.67c.44.01.94-.06 1.34.13a1 1 0 0 1 .54.77c.07.44.03.9-.2 1.3-.09.16-.24.3-.44.36-.38.14-.84.1-1.24.1v-2.66ZM34.4 30.67l1.03 3h-2.02l1-3ZM19 33.18c.39 0 .79-.04 1.16.09.28.09.52.28.64.51.18.32.21.68.2 1.03-.02.3-.1.62-.33.86-.2.2-.52.32-.82.33H19v-2.82Z" fill="#B22B40"/><path d="M26.92 13.97a6.8 6.8 0 0 1 7.3 4.91 6.82 6.82 0 0 1-1.13 5.98 6.77 6.77 0 0 1-8.69 1.78 6.87 6.87 0 0 1-3.45-6.8 6.71 6.71 0 0 1 5.97-5.87Zm-.02.95c-.22.37-.38.77-.5 1.18.35-.04.71-.07 1.07-.08v-1.67c-.25.12-.43.34-.57.57Zm.95-.57v1.67c.36.01.73.04 1.08.09-.14-.44-.3-.88-.56-1.26-.13-.2-.3-.4-.52-.5Zm-1.73.38a4.87 4.87 0 0 0-1.77 1.89c.53-.2 1.07-.35 1.63-.45.18-.6.4-1.21.78-1.72a3.5 3.5 0 0 0-.64.28Zm2.43-.28c.4.5.62 1.11.8 1.72.56.1 1.1.25 1.63.45a4.54 4.54 0 0 0-2.43-2.17Zm-5.43 1.75a6.4 6.4 0 0 0-1.48 2.36 5.76 5.76 0 0 1 2.11-1.68c.08-.04.1-.13.13-.2.4-.77.93-1.47 1.62-2-.89.32-1.71.84-2.38 1.52Zm6.7-1.51c.73.54 1.28 1.3 1.68 2.1.02.05.06.09.1.1.82.4 1.57.96 2.11 1.69a6.5 6.5 0 0 0-3.89-3.9Zm-3.54 1.81c-.17.67-.28 1.36-.35 2.04.51-.04 1.03-.06 1.55-.07v-2.06c-.4 0-.8.04-1.2.1Zm1.57-.1.02 2.07c.52 0 1.04.03 1.56.07a14.2 14.2 0 0 0-.38-2.03c-.4-.06-.8-.1-1.2-.1Zm-3.76.74a8 8 0 0 0-.56 1.78c.66-.16 1.33-.27 2.01-.34.07-.68.17-1.35.33-2-.61.11-1.21.3-1.78.56Zm5.37-.56c.17.66.28 1.33.35 2 .68.07 1.35.18 2.01.34a8.17 8.17 0 0 0-.57-1.77 8.17 8.17 0 0 0-1.79-.57Zm-6.57 1.27a4.08 4.08 0 0 0-1.48 1.97c.5-.39 1.11-.61 1.72-.8.1-.55.24-1.1.44-1.62-.24.14-.47.29-.68.45Zm8.89-.43c.2.52.35 1.06.45 1.61.6.19 1.21.4 1.72.8a3.57 3.57 0 0 0-.27-.62 4.94 4.94 0 0 0-1.9-1.8Zm-5.89 1.5c-.04.54-.07 1.07-.07 1.6h1.67v-1.67c-.54 0-1.07.03-1.6.08Zm1.98-.07v1.68h1.68c0-.53-.03-1.07-.08-1.6-.54-.05-1.07-.07-1.6-.08Zm-4.4.48c-.06.4-.1.8-.1 1.2h2.07c0-.53.02-1.05.07-1.57-.7.08-1.38.2-2.05.37Zm6.38-.36c.05.52.07 1.04.08 1.56H32c0-.4-.04-.8-.1-1.2-.67-.17-1.36-.28-2.05-.36Zm-8 1c-.22.14-.43.31-.54.55h1.68c0-.36.03-.72.07-1.08-.42.14-.83.3-1.21.53Zm10.45-.52c.05.36.07.72.08 1.08h1.68a1.4 1.4 0 0 0-.52-.53c-.38-.25-.81-.41-1.24-.55ZM21.3 20.91c.13.24.35.42.58.56.37.23.77.38 1.18.51a10.4 10.4 0 0 1-.08-1.07h-1.68Zm2.06 0c.01.4.04.8.1 1.19.68.17 1.36.29 2.05.37a21.8 21.8 0 0 1-.08-1.56h-2.07Zm2.45 0c.01.53.04 1.06.09 1.6.53.04 1.06.07 1.6.07l-.01-1.67h-1.68Zm2.06 0v1.67c.54 0 1.07-.03 1.6-.07.05-.54.07-1.07.07-1.6h-1.67Zm1.99 1.56c.69-.08 1.37-.2 2.04-.37.06-.4.09-.79.1-1.19h-2.08c0 .52-.02 1.04-.06 1.56Zm2.44-.48c.32-.1.64-.22.94-.37.31-.17.64-.37.81-.7h-1.67c-.01.35-.03.71-.08 1.07Zm-10.9-.39c.13.4.33.77.59 1.1.43.55.99 1 1.6 1.33a8.92 8.92 0 0 1-.46-1.63c-.6-.18-1.22-.4-1.73-.8Zm10.84.8c-.1.56-.24 1.11-.44 1.64.2-.11.39-.23.57-.37a4.14 4.14 0 0 0 1.59-2.06c-.5.39-1.12.61-1.72.8Zm-8.7.1c.12.6.3 1.18.54 1.73.02.04.04.08.09.1.55.24 1.14.42 1.73.54-.16-.66-.28-1.34-.35-2.02-.68-.07-1.35-.18-2.01-.34Zm6.28.35c-.07.68-.17 1.36-.33 2.02a8.1 8.1 0 0 0 1.73-.54c.05-.02.07-.06.08-.1.24-.55.42-1.13.53-1.72a15 15 0 0 1-2 .34Zm-8.17.03a6.5 6.5 0 0 0 3.9 3.87 5.92 5.92 0 0 1-1.7-2.13c-.1-.1-.26-.14-.38-.22a5.74 5.74 0 0 1-1.82-1.52Zm4.29 0c.08.7.2 1.39.37 2.06.4.06.8.1 1.2.1l-.01-2.08a21 21 0 0 1-1.56-.07Zm1.94.08v2.08c.4 0 .8-.04 1.2-.1.17-.67.28-1.36.36-2.05-.52.04-1.04.07-1.56.07Zm3.75 1.6c-.1.03-.11.13-.16.2a5.69 5.69 0 0 1-1.6 2 6.38 6.38 0 0 0 3.86-3.88 5.77 5.77 0 0 1-2.1 1.68Zm-7.24.27c.11.2.24.4.38.58.5.7 1.2 1.31 2.04 1.58-.39-.5-.61-1.11-.8-1.71-.55-.1-1.1-.25-1.62-.45Zm5 .45c-.18.6-.4 1.2-.79 1.71.21-.07.42-.16.61-.26a4.86 4.86 0 0 0 1.8-1.9c-.53.2-1.07.35-1.63.45Zm-2.96.06c.1.33.23.66.4.97.16.3.36.62.68.78v-1.67c-.36 0-.72-.03-1.08-.08Zm1.46.08v1.67c.24-.1.4-.31.54-.52.24-.38.4-.8.54-1.23-.36.05-.72.07-1.08.08Z" fill="#FFDD21"/><path fill-rule="evenodd" d="M43 39H13v5h30v-5Zm-23.93 1.14v.55h-.15a.73.73 0 0 0-.7-.4c-.51.01-.94.4-.93 1.23 0 .82.48 1.15.93 1.13.35-.01.61-.2.7-.3h.22c-.01.43-.5.63-.92.65-.65.03-1.77-.31-1.75-1.48.01-1.17 1.04-1.52 1.75-1.52.39 0 .73.1.85.14ZM21 40h1.65v.42h-1v.85h1v.44h-1v.9h1V43H21v-3Zm10.01 0h-1.65v3H31v-.38H30v-.9h1.01v-.45H30v-.85h1.01V40Zm-6.44 0-.34 3h.42l.19-1.83.89 1.83h.26l.87-1.83.18 1.83h.72l-.43-3h-.3L26 42 25 40h-.44ZM33 43v-3h.42l1.8 1.96V40h.43v3h-.49l-1.74-1.9V43H33Zm6.46-3H37.1v.43h.9V43h.6v-2.57h.86V40Z" fill="#1B366F"/></svg>