<!-- by TradingView --><svg width="56" height="56" viewBox="0 0 56 56" xmlns="http://www.w3.org/2000/svg"><path fill="#F0F3FA" d="M0 0h56v56H0z"/><path d="M27 11.5h2s0-1.5-1-1.5-1 1.5-1 1.5Z" fill="#3B3B40"/><path d="M37 22c0 .5 1.5 1 3 1s2.6-.5 2.6-1.32c-.03-.15-2.89-9.42-14.43-9.68h-.4c-11.52.28-14.36 9.55-14.4 9.7-.04.76 1.13 1.3 2.63 1.3s2.53-.04 3-1.01c.14.41.99 1.01 3 1.01 2.71 0 3-1 3-1s.5 1 3 1 3-1 3-1 .55.96 3 1c1.73 0 2.71-.55 3-1Z" fill="#DA2726"/><path d="M14 21.5h4s-.56 1-2 1-2-1-2-1ZM26 21.5h4s-.56 1-2 1-2-1-2-1ZM38 21.5h4s-.56 1-2 1-2-1-2-1ZM27.5 12c-1.42.42-7.28 3.74-8.5 10h6v-3s-.13-1.62 1-4c.36-.76.89-2.17 1.5-3ZM28.5 12c1.4.47 7.3 3.6 8.5 10h-6v-3.5s-.1-3.66-2.5-6.5Z" fill="#EEDD02"/><path d="M27.5 37s.1 1.48 1.5 1.5c1.55.02 1.5-1.5 1.5-1.5h-1s.02.5-.5.5-.5-.5-.5-.5V23h-1v14Z" fill="#3B3B40"/><path d="M27.33 29.33s1.19-.9.43-2.08c-.83-1.3-2.08-.42-2.08-.42l.55.83s.4-.3.7.14c.28.44-.15.7-.15.7L18.5 34l.55.83 8.28-5.5Z" fill="#3B3B40"/><path d="M28.68 29.33s-.68-.51-.68-1.28c0-.24.07-.51.25-.8.84-1.3 2.08-.42 2.08-.42l-.55.83s-.4-.3-.7.14c-.28.44.15.7.15.7L37.5 34l-.55.83-8.28-5.5ZM20 26h.6v.83l.64-.83H22l-.75.83L22 28h-.7l-.5-.8-.21.24V28H20v-2ZM34.4 26.72h.6s-.08-.72-.98-.72-1.02.68-1.02 1c0 .08-.06 1 1 1 .9 0 1-.63 1-.63l-.48-.22s-.2.4-.52.4-.4-.3-.4-.55c0-.24.1-.53.4-.53.3-.01.4.25.4.25ZM42.5 35.5l-1 2s1.44.72 2 0-1-2-1-2ZM13.5 35.5l1 2s-1.5 1-2 0 1-2 1-2Z" fill="#3B3B40"/><path d="M13.68 35s-.43-4.83 2.32-8.27c-1.58-1.32-3-4.37-3-4.37s-2.32 6.14.68 12.64ZM15.5 38s4.5 6 12.33 6c-3.43-2.86-3.33-4-3.33-4s-2.4.86-9-2ZM15 37s4.36 2.06 9 2a7.34 7.34 0 0 1-2.34-3.5S19.6 37 15 37Z" fill="#05A3DE"/><path d="M14 35.5s.04-4.85 2.61-7.94a5.04 5.04 0 0 0 1.89 2.93S15.94 31.6 14 35.5ZM14.5 36.52s2.17.45 6.5-1.52c-1.78-1.13-2-4-2-4s-3.55 2.36-4.5 5.52Z" fill="#05A3DE"/><path d="M42.32 35s.43-4.83-2.32-8.27c1.58-1.32 3-4.37 3-4.37s2.32 6.14-.68 12.64ZM40.5 38s-4.5 6-12.33 6c3.43-2.86 3.33-4 3.33-4s2.4.86 9-2ZM32 39c4.64.06 9-2 9-2-4.6 0-6.66-1.5-6.66-1.5S33.78 37.6 32 39Z" fill="#DA2726"/><path d="M42 35.5s-.04-4.85-2.61-7.94c-.34 1.86-1.89 2.93-1.89 2.93s2.56 1.11 4.5 5.01ZM35 35c4.33 1.97 6.5 1.52 6.5 1.52C40.55 33.36 37 31 37 31s-.22 2.87-2 4Z" fill="#DA2726"/></svg>