<!-- by TradingView --><svg width="56" height="56" viewBox="0 0 56 56" xmlns="http://www.w3.org/2000/svg"><path fill="#DD6E1D" d="M0 0h56v56H0z"/><path d="m36.69 11 5.12 8.96a5.97 5.97 0 0 1-5.12 8.96 5.97 5.97 0 0 1-5.13-8.96L36.69 11ZM9 29l5.08-8.97a5.9 5.9 0 0 1 10.26-.05A6 6 0 0 1 19.26 29H9Z" fill="#137C9A"/><path d="M19.13 45 14 36.04a5.97 5.97 0 0 1 5.13-8.96c4.55 0 7.4 4.98 5.12 8.96L19.13 45ZM17.9 12h10.22a5.98 5.98 0 0 1 5.25 8.9 5.9 5.9 0 0 1-10.25.15L17.9 12Z" fill="#137C9A"/><path d="M20.32 13.5h7.9a4.54 4.54 0 0 1 4 6.75 4.5 4.5 0 0 1-7.81.11l-4.09-6.86Z" fill="#FAF69B"/><path d="M38.31 44H28.05a5.97 5.97 0 0 1-5.25-8.88 5.9 5.9 0 0 1 10.26-.15L38.3 44Z" fill="#137C9A"/><path d="m11.51 27.5 3.88-6.81a4.5 4.5 0 0 1 7.8-.04 4.56 4.56 0 0 1-3.88 6.85h-7.8Z" fill="#FAF69B"/><path d="m47 27-5.02 9.03a5.9 5.9 0 0 1-10.26.13c-2.32-3.96.47-9.1 5.02-9.16H47Z" fill="#137C9A"/><path d="m44.5 28.5-3.83 6.88a4.5 4.5 0 0 1-7.8.1 4.66 4.66 0 0 1 3.9-6.98h7.73ZM36.69 13.94l3.9 6.82a4.55 4.55 0 0 1-3.9 6.83 4.55 4.55 0 0 1-3.91-6.83l3.9-6.82ZM19.13 42.06l-3.91-6.82a4.55 4.55 0 0 1 3.9-6.83c3.48 0 5.65 3.8 3.91 6.83l-3.9 6.82ZM35.91 42.54h-7.95a4.55 4.55 0 0 1-4-6.77 4.5 4.5 0 0 1 7.8-.11l4.15 6.88Z" fill="#FAF69B"/></svg>