<!-- by TradingView --><svg width="56" height="56" viewBox="0 0 56 56" xmlns="http://www.w3.org/2000/svg"><path fill="#F0F3FA" d="M0 0h56v56H0z"/><path d="M18.89 23.41c0 4.6 2.16 8.67 5.47 11.14-.84 3.96-3.7 7.1-7.36 8.07V21.64c.67.18 1.32.43 1.93.75-.03.34-.04.68-.04 1.02ZM17 18.57c.85.2 1.67.48 2.45.85 1.41-4.85 5.3-8.54 10.11-9.42H17v8.57ZM33.99 10H34v3h-3.1c-4.4 0-8.11 3.32-9.15 7.81a14.2 14.2 0 0 1 5.41 12.07c.63.3 1.29.52 1.98.66a15.1 15.1 0 0 1-.07-1.41c0-6.57 4.24-12.07 9.93-13.5V10h-5.01ZM39 21.71c-4.24 1.26-7.36 5.45-7.36 10.42 0 .54.04 1.08.11 1.6H34v3.1c-.42.07-.85.13-1.29.16A10.27 10.27 0 0 0 39 42.55V21.7Zm0 23.92a13.28 13.28 0 0 1-9.16-8.76c-1.1-.17-2.16-.5-3.15-.94-1.3 4.9-5.02 8.69-9.69 9.76V46h22v-.37Zm-14.44-14.6c-.25-2.63-1.37-4.99-3.06-6.72a10.73 10.73 0 0 0 3.06 6.73Z" fill="#991F36"/><path d="M29.14 33.53c.1 1.16.35 2.28.7 3.34a12.3 12.3 0 0 0 2.87.12c-.47-1.01-.8-2.12-.96-3.28h-.84c-.6 0-1.2-.06-1.77-.18ZM27.16 32.87a9.4 9.4 0 0 1-2.6-1.83 11.77 11.77 0 0 1-.2 3.5c.72.55 1.5 1.01 2.33 1.39.26-.98.42-2 .47-3.06Z" fill="#991F36"/></svg>