<!-- by TradingView --><svg width="56" height="56" viewBox="0 0 56 56" xmlns="http://www.w3.org/2000/svg"><path fill="#9D292A" d="M0 0h56v56H0z"/><path d="M19.33 15.9c-2.2-2.87-5.04-3.58-6.2-3.58.17 2.92 2.7 5.52 3.8 6.6-2.87 2.4-2.84 5.87-2.52 7.7a5.4 5.4 0 1 1-.04 2.6 7.91 7.91 0 0 0 2.28 7.83c-2.9 2.8-3.64 5.5-3.65 6.51 2.46.26 5.18-2.27 6.23-3.57a8.25 8.25 0 0 0 7.06 2.18l-.33-.54a5.4 5.4 0 1 1 3.67.2l-.19.34c3.3.9 6.14-1.08 7.18-2.18 2.82 3.3 5.3 4.05 6.2 4 .23-2.9-2-5.24-2.77-6.05-.16-.17-.25-.27-.25-.3 1.86-1.8 2.6-5.6 2.73-7.28l-.6.26a5.4 5.4 0 1 1-.15-5.5l.75.49c.07-3.21-1.72-6.16-2.63-7.23 3-2.75 3.27-5.4 3.03-6.38-2.24.06-4.87 2.44-6.07 4-2.06-2.18-5.87-2.57-7.44-2.45l.29.48a5.4 5.4 0 1 1-3.53.23l.39-.71a11.11 11.11 0 0 0-7.24 2.35Z" fill="#fff"/></svg>