<!-- by TradingView --><svg xmlns="http://www.w3.org/2000/svg" width="56" height="56" viewBox="0 0 56 56"><path fill="#F0F3FA" d="M0 0h56v56H0z"/><path d="M30.01 31.24l-3.34-7.86h6.76l-3.42 7.86z" fill="#ED1C23"/><path d="M17.94 32.62A6.92 6.92 0 0 1 13.77 34 6.64 6.64 0 0 1 7 27.5c0-3.6 3.03-6.5 6.77-6.5 1.56 0 3 .5 4.15 1.37l-2.05 2.19c-.6-.35-1.3-.56-2.07-.56-2.1 0-3.8 1.57-3.8 3.5s1.7 3.5 3.8 3.5c.86 0 1.64-.26 2.27-.7l1.87 2.32zM19 21.68V21h2.69l4.01 7.96.93-1.4-3.2-6.56H37v.68l-6.25 11.93a.62.62 0 0 1-1.1-.01L28.1 30.4l-1.83 3.27a.62.62 0 0 1-1.08-.01L19 21.68zM27.94 24l2.4 5 2.5-5h-4.9zm21.6 7.46A7.19 7.19 0 0 1 44 34c-3.87 0-7-2.91-7-6.5 0-3.6 3.13-6.5 7-6.5 1.62 0 3.12.51 4.3 1.37L46 24.47A4.31 4.31 0 0 0 44 24c-2.2 0-4 1.62-4 3.62s1.8 3.62 4 3.62c1.2 0 2.27-.48 3-1.23V27h2.5v4.41h-.05l.1.05z" fill="#293388"/></svg>