<!-- by TradingView --><svg width="56" height="56" viewBox="0 0 56 56" xmlns="http://www.w3.org/2000/svg"><path fill="#F0F3FA" d="M0 0h56v56H0z"/><path d="M27.37 22.61c-4.47 0-8.46 1.85-11 4.73.62.33 4.38-2.58 10.91-2.68h.19c6.52 0 10.3 3 10.92 2.68a14.65 14.65 0 0 0-11-4.73h-.02Z" fill="#EF1933"/><path d="M33.24 19.11a5.64 5.64 0 0 1-.22-1.98s.09.13.21.22c.1.06.3.14.3.14a5.51 5.51 0 0 0-1.23-4c-.7-.82-1.7-.97-2.42-.38-.17.14-.43.44-.43.44s.51.44.38 1.14c-.11.6-.55.68-.55.68s-.25-1.89-1.59-1.68c.32-.82 1-.56 1.07-.35.03-.07.19-.76-.27-.81-.37-1.07-1.65-.23-1.99.02-.35.25-.84-.02-.84-.02s.27.52.52.58c-.36.51-.6 1.36-.2 2.18l-.03.04c-.35.15-1.23.27-1.38-.74-.09-.64.4-1.05.4-1.05-.1-.2-.18-.33-.35-.47-.72-.6-1.44-.4-2.18.43a5.36 5.36 0 0 0-1.23 3.99l.24-.12c.15-.11.26-.24.26-.24s-.08 1.1-.37 1.91c-.24.71-.45 1.22-.76 1.78 0 0 .77-.17 2.06-1.18 1.19-.92 1.54-1.56 1.54-1.56s.04.12.03.38c-.02.23-.1.54-.1.54s1.32-.53 1.66-1.8c.07-.29.22-.3.2-.03-.24 2.13-1.89 3.31-3.67 3.83-.11.05.28.25.44.33.88.4 2.05.35 2.14.28.32-.2.59-.48.72-.84.1-.23.06-.02.06-.02s-.06.29.09.74c.06.18.13.38.12.58-.02.26 0 .09-.2.27-.21.19-.3.5-.3.5l.52-.05.6-.04c.4-.02.66.01.83.17.02.02.1-.1.05-.28-.08-.3-.55-.47-.93-.47 0 0-.05-.29.1-.48.33-.46.5-.5.75-1.21l.1-.32c.11.51.26.89.5 1.25.26.33.21.79.11.82-.22.09-.35.5-.35.5s.33 0 .77.03c.45.03.96.11 1.09.26 0 0 .13-.17 0-.39-.13-.2-.48-.39-.84-.46 0 0-.04-.42.1-.7.85-1.55.61-3.17.6-3.52.32.68 1.13.76 1.13.76s-.08-.5-.08-.7c0-.22.03-.48.03-.48s.5 1.26 1.3 2c1.32 1.22 2.09 1.34 2.09 1.34a6.5 6.5 0 0 1-.6-1.76ZM47 33.2h2v-1.44h-2v-1.32h1.8C49.84 30.44 50 29 50 29h-4.5v7H50v-1.47h-3v-1.34ZM39 30.45h2V36h1.5v-5.55h1.96V29H39v1.45ZM35.39 29c-.8 0-1.56.35-2.11 1a3.74 3.74 0 0 0-.9 2.5c0 .98.32 1.83.9 2.5.56.65 1.32 1 2.1 1 .94 0 1.82-.5 2.4-1.35.4-.6.6-1.33.6-2.15 0-.97-.29-1.85-.86-2.5-.58-.65-1.33-1-2.13-1Zm0 5.53c-.87 0-1.5-.86-1.5-2.03 0-1.18.63-2.04 1.5-2.04s1.5.85 1.5 2.04c0 1.18-.63 2.03-1.5 2.03ZM30 33.88v.55c-.27.1-.49.14-.73.14-1.08 0-1.77-.86-1.77-2.11 0-1.18.73-2.07 1.8-2.07.62 0 1.5.25 2.04.84v-1.62c-.59-.43-1.4-.61-2.12-.61-1.87 0-3.22 1.5-3.22 3.51 0 2.02 1.35 3.49 3.16 3.49.72 0 1.39-.2 2.19-.65V32h-2.02s.67 1 .67 1.88ZM23.5 29v3.73L19.26 29H19v7h1.5v-3.77L24.74 36H25v-7h-1.5ZM15.09 29l-3.16 7s1.44-.02 1.98-1.14l.24-.49c.3 0 .77.03 1.52.28.83.29 1.24.83 2 1.1.72.26.96.25.96.25l-3.05-7h-.5Zm-.41 4.02.65-1.5.86 1.98a5.7 5.7 0 0 0-1.51-.48ZM8.63 29H6s0 .32.34.83c.47.72.66.43.66 1.02V36h1.63c.87 0 1.58-.09 2.27-.52a3.32 3.32 0 0 0 1.6-2.98c0-2.1-1.37-3.5-3.87-3.5Zm.1 5.5H8.5v-4.01h.23c1.42 0 2.27.8 2.27 2.02s-.85 2-2.27 2Z" fill="#161C66"/><path fill-rule="evenodd" d="M17.94 38c.75.02 1.31.23 1.5.33v1.1c-.23-.21-.9-.42-1.19-.43-.28 0-.67.04-.67.35 0 .25.24.4.36.43.57.15 1.72.68 1.72 1.61 0 1.16-1.16 1.63-2.16 1.6a3.3 3.3 0 0 1-1.41-.26V41.6c.03.08.69.4 1.28.4.59 0 .75-.25.75-.4 0-.14-.07-.34-.62-.53-.54-.2-1.46-.55-1.5-1.56-.04-1 1-1.54 1.94-1.5ZM22 38h-1.5v3.3c0 .94.75 1.7 1.7 1.7h1.1c.94 0 1.7-.76 1.7-1.7V38h-1.4v3.2a.8.8 0 0 1-1.6 0V38Zm8 4.54c-.46.29-1.03.46-1.64.46-2.06 0-2.82-1.12-2.82-2.5 0-1.37.9-2.49 2.82-2.49.52 0 1 .12 1.42.34v1.33a1.5 1.5 0 0 0-1.21-.6c-.82 0-1.48.62-1.48 1.4 0 .77.4 1.4 1.48 1.4v-1.4H30v2.06Zm.31.46 1.64-5h1.96l1.51 5h-1.65l-.3-1.22h-1.39L31.8 43h-1.48Zm2.06-2.27.5-1.75.38 1.75h-.88ZM37.26 38H36v5h1.53v-2h.17l.94 2h1.62l-1.03-2.18a1.5 1.5 0 0 0-.7-2.82h-1.27Zm.7 2.22h-.43V39h.44a.61.61 0 0 1 0 1.22Z" fill="#161C66"/></svg>