<!-- by TradingView --><svg width="56" height="56" viewBox="0 0 56 56" xmlns="http://www.w3.org/2000/svg"><path fill="#F0F3FA" d="M0 0h56v56H0z"/><path d="M11.33 33C10 33 10 32.7 10 31.29v-4.25c0-.6-.1-2.2.22-2.55.3-.28.86-.49 1.16-.49 1.5-.01 2.77 3.02 2.85 4.13-.02.37.02.75.02 1.12 0 1.62-.9 3.71-2.92 3.75Zm6.63-3.26c.13-.9-.09-1.92-.4-2.77a5.7 5.7 0 0 0-3.43-3.47l-.92-.28c-.97-.25-1.31-.22-2.28-.22H6v.48c.07.02.14.02.23.05.76.3.77 1.4.77 2.1V32c0 .3-.04.73-.13 1-.16.5-.6.39-.85.55l-.02.42c2.1.07 4.8.03 7.01.03 2.86 0 4.45-1.69 4.95-4.26ZM43 27.66V25.7c0-.51 0-1.69.35-1.69 1.15 0 2.22.13 2 1.65-.11.78-1.64 2.01-2.35 2.01Zm5.53-2.54c.1-.63.02-1.28-.53-1.62-.78-.5-1.8-.5-2.82-.5H39v.46l.45.18c.46.99.55 1.45.55 2.58v6.5c-.03.3-.45.77-.75.73-.15.04-.23.04-.25.2v.2c.02.17-.02.11.08.15h4.63l.02-.44c-.43-.18-.66-.21-.73-.67V29l.27-.19c.28-.02.26-.16.48.1.4.5 1.02 1.35 1.3 1.95.24.48.81 1.75.6 2.3-.12.26-.27.24-.46.4V34H50v-.44c-.13-.07-.23-.17-.36-.23-.09-.05-3.1-5.65-3.1-5.84 1-.34 1.8-1.26 1.99-2.37ZM20.55 29.48c-.01-.3.57-1.72.82-2.14.11.07.04.07.17.18.16.62.66 1.77.71 2.32V30l-.23-.07c-.2-.06-1.45-.34-1.47-.45Zm2.3 2.43c.17.44.72 1.22.02 1.6l-.14.1c-.27.05-.23.08-.21.39h4.43l.05-.15-.02-.2c-.46-.07-.55-.41-.75-.76-.25-.45-1.25-3.63-1.36-3.95-.25-.86-.8-2.13-.96-2.93-.07-.38.13-.5.34-.63v-.18l-.09-.2h-3.91c-.1.05-.05-.02-.09.1 0 .26-.04.33.2.39.64.29-1.47 5.19-1.6 5.53-.17.55-.85 2.67-1.62 2.56l-.12.08c-.02.16-.04.29.1.34h2.79c.07-.02.1-.13.09-.21 0-.08-.02-.15-.04-.17a.41.41 0 0 0-.25-.1c-.26-.01-.32-.34-.3-.65.02-.4.54-1.83.71-2.25.6-.01 2.47.58 2.74 1.3ZM31.55 29.48c-.02-.3.57-1.72.82-2.14.1.07.03.07.16.18.16.62.66 1.77.71 2.32V30l-.23-.07c-.2-.06-1.44-.34-1.46-.45Zm2.3 2.43c.16.44.72 1.22.02 1.6l-.14.1c-.27.05-.24.08-.22.39h4.43l.05-.15-.01-.2c-.47-.07-.56-.41-.75-.76-.25-.45-1.25-3.63-1.36-3.95-.25-.86-.8-2.13-.96-2.93-.08-.38.12-.5.33-.63v-.18l-.08-.2h-3.92c-.1.05-.05-.02-.09.1 0 .26-.03.33.2.39.64.29-1.46 5.19-1.59 5.53-.18.55-.86 2.67-1.62 2.56l-.13.08c-.02.16-.03.29.1.34h2.8c.07-.02.09-.13.08-.21 0-.08-.02-.15-.04-.17a.41.41 0 0 0-.24-.1c-.27-.01-.32-.34-.3-.65.01-.4.53-1.83.7-2.25.6-.01 2.47.58 2.74 1.3ZM27.5 25a3.5 3.5 0 1 0 0-7 3.5 3.5 0 0 0 0 7Z" fill="#AC0208"/></svg>