<!-- by TradingView --><svg width="56" height="56" viewBox="0 0 56 56" xmlns="http://www.w3.org/2000/svg"><path fill="#F0F3FA" d="M0 0h56v56H0z"/><path d="M4 26.47v.33c.64-.32 1.71-1.66 2.5-2.26l.03.19c-.22.06-.82.73-.96 1.03l.1.25c.45-.2.33-.53 1.32-1.35a26.95 26.95 0 0 1 8.46-4.96c1.23-.47 2.87-.83 4.02-1.34l-.02-.22-1.4.17c.57-.45 1.4-.43 2.12-.74.6-.27.73-.44 1.49-.64.43-.12.32-.04.34-.38-.5-.3-2.81.67-3.57.72.6-.34 1.32-.51 1.96-.76.57-.22.48-.2.55-.44-.84-.43-3.84 1.18-4.72 1.38.4-.33 1.54-.75 1.8-1.19-.64-.46-8.48 4.14-9.22 4.95-.21.23-.12.3-.25.58-.12.26-.57.45-.8.74-.35.42.06.4-.62.92-2.7 2.02-2.17 2.1-3.13 3.02Z" fill="#E13730"/><path d="M5.67 26c-.21.48-.33.3-.23.83.54.1.42-.15 1.36-.85.2.27.2.7.68.3.27-.45 1.59-1.2 2.06-1.5.75-.48 1.47-.9 2.26-1.32.82-.44 4.19-2.07 5.07-2.07.34-.2.86-.34.69-.94-.2-.27-1.14.15-1.55.15l.06-.09c.58-.83 2.25-1.02 3.3-1.3 1.09-.3.17-.82.12-.85-1.16.51-2.8.87-4.02 1.34a26.82 26.82 0 0 0-8.45 4.96c-1.02.81-.9 1.15-1.35 1.35Z" fill="#F7BF29"/><path d="M7.47 26.28c-.02.27-.02.05.1.14l.74-.35c-.15.2-.26.3-.28.62.43.12.75-.11 1.12-.3.28.15.1-.01.27.29l.43-.07.14.39c.51-.05.94-.42 1.37-.66.98-.52 1.91-.8 2.97-1.17.26-.16.76-.5 1-.74.26-.05.7-.09.91-.16.47-.17.28-.33.24-.75l.5-.14.1-.46c.64-.16.72-.1.82-.8.49-.07 1.1.02.9-.58l-.12-.08c-.14-.04-.07-.04-.25-.04l-1.4.2-.16-.23c-.88 0-4.25 1.63-5.07 2.07-.79.42-1.51.84-2.26 1.31-.48.3-1.8 1.06-2.07 1.5ZM10 28l4.43-2s1.22.15 1.82 1c.44-.38.75-1 1.75-1 2.1 0 2 2 2 2v6h-1.5c-.4 0-.5-.29-.5-.63v-3.82c0-.31 0-1.55-.77-1.55-.78 0-1.23 1.03-1.23 1.03V34h-1.03s-.8-.05-.97-.45v-4.63s0-.92-.68-.92-1.32.61-1.32.61v4.42s0 .73-.33.81c-.83.2-1.67.16-1.67.16v-6ZM24.5 31l4.5-1.5c-.2-1.28-1.11-3.5-3.56-3.5S22 28 22 30c0 2.5 1.26 4 3.81 4C28.1 34 29 31.5 29 31.5s-1.75-.5-2.19-.5c-.17 0-.2.15-.24.34-.05.3-.12.66-.76.66-1.03 0-1.31-1-1.31-1Zm2.5-2-3 .82s-.12-1.38 1.05-1.74c1.33-.4 1.95.92 1.95.92ZM41.5 31l4.5-1.5c-.2-1.28-1.11-3.5-3.56-3.5S39 28 39 30c0 2.5 1.26 4 3.81 4C45.1 34 46 31.5 46 31.5s-1.75-.5-2.19-.5c-.17 0-.2.15-.24.34-.05.3-.12.66-.76.66-1.03 0-1.31-1-1.31-1Zm2.5-2-3 .82s-.12-1.38 1.05-1.74c1.33-.4 1.95.92 1.95.92ZM31.02 27.35S32.5 27 33 27l.01 2.5c0 .85.36 1.52 1.01 1.5 1-.03.98-.63.98-.63v-2.24c0-.89-.02-1.73.23-1.82C35.78 26.13 37 26 37 26v7.54s.13 2.4-3.32 2.46H31s-.03-1.71.5-1.8c.64-.1 1.7.3 2.54.04.82-.27 1-.65.96-1.92-.02.66-.5.68-1.48.68-2.5 0-2.52-2-2.52-2l.02-3.65ZM48 34h2v-4.7s.5-1.7 1.78-1.03c.3-1.47.2-2.27.2-2.27s-1.62.47-1.98 1l.02-1S48 26 48 28.01V34Z" fill="#384083"/></svg>