<!-- by TradingView --><svg width="56" height="56" viewBox="0 0 56 56" xmlns="http://www.w3.org/2000/svg"><path fill="#F0F3FA" d="M0 0h56v56H0z"/><path fill-rule="evenodd" d="M38 10H18v36h20V10Zm-18.5 1.5h17v33h-17v-33ZM19 45V11h18v34H19Zm16.5-32.5h-15v31h15v-31ZM20 12v32h16V12H20Zm15 7.6V19H21v.6h14Zm-9.94-6h-3.5v.25h.18c.24.05.26.24.26.33v3.16c.01.3-.15.4-.26.42h-.19V18h3.46l.05-1.59h-.23c-.08 1.06-.76 1.34-1.1 1.35h-.53c-.18 0-.2-.17-.2-.25v-1.55h.25c.4.02.52.58.52.86H24v-2.04h-.23c.04.71-.31.91-.52.92H23v-1.57c0-.23.12-.28.2-.28h.57c.89.06 1.14.94 1.15 1.37h.22l-.08-1.62Zm.44 0h2.02v.24h-.18c-.12 0-.35.07-.34.36v1.73l1.41-1.77c.06-.1.1-.32-.26-.32H28v-.24h1.71v.24h-.28c-.14 0-.5.09-.75.36l-.68.83 1.25 2.32c.08.13.3.4.52.42h.16V18H28v-.23h.11c.12 0 .32-.08.15-.33l-.88-1.62-.38.47v1.15c.01.1.07.33.27.33h.25V18H25.5v-.23h.3c.08-.02.2-.13.2-.33V14.15c-.02-.11-.05-.3-.25-.3h-.25v-.25Zm6.67 4.4c1.2 0 2.18-1 2.18-2.23a2.2 2.2 0 0 0-2.18-2.22c-1.2 0-2.17 1-2.17 2.22A2.2 2.2 0 0 0 32.17 18Zm0-.23c.94 0 1.19-.9 1.19-2 0-1.09-.3-1.98-1.18-1.98-.88 0-1.18.89-1.18 1.99s.25 2 1.18 1.99Zm-5.34 3c-.02-.12-.18-.32-.6-.11-.39-.02-1.22.08-1.52.57-.1.09-.26.39-.07.9l1 3.54-.12.05c.03.69.52 2.13 2.18 2.37v.65c-.6-.02-1.76.1-1.73.72.03.78 1.04 1.72 1.73 2.27v2.02l-1.2 1.1c-.15.14-.42.53-.38.97-.03.19-.03.66.22 1.04.25.37.98 1.23 1.32 1.62v2.04c-.11.02-.27.08 0 .18l.06.64c-.26.02-.79.14-.78.5 0 .43.63.5 1.03.52.4.01.98-.22.93-.53-.04-.3-.4-.5-.84-.52l.05-.73c.35-.1 1.05-.38 1.05-.76s-.74-1.4-1.1-1.85v-3.75c.4-.2 1.17-.73 1.13-1.31-.05-.73-.5-1.21-1.13-1.66v-1.87c.54-.01 1.62-.21 1.54-.9l-.02-.16c-.08-.72-.09-.8-1.72-3.77a.87.87 0 0 0 0-.63c0-.04 0-.16.1-.3.11-.19.01-.33-.1-.4-.12-.06-.27-.15-.26-.45 0-.25.06-.57.08-.7.03-.12.01-.36-.25-.36a.9.9 0 0 0-.32.09c.01.12-.02.38-.22.49-.24.13-.2.75-.15.94l.1.1v.55c.08.06.32.3.54.83l1.38 3.27c.13.23.19.7-.65.73v-.67c.15-.02.46-.08.55-.16-.02 0-.16-.3-.22-.45-.09.07-.36.19-.74.2-.49 0-1.3-.5-1.68-1.87a2.55 2.55 0 0 1-.24-.62l-.9-3.25c-.1-.3-.02-.93 1.12-1.02l.42.07c.12.08.36.17.41-.17Zm.85 10.27v-1.58c-.28 0-.86.1-.94.5-.08.42.6.9.94 1.08Zm.37 2.45v-1.45c.2.16.6.54.6.82 0 .28-.4.53-.6.63Zm-.4 1.2v2.87c-.33-.3-.98-1.05-.95-1.58.03-.67.47-1.01.95-1.3Zm1.03 4.8-.58-.71v1.46c.8-.27.72-.62.58-.75Zm.61-18.86c-.4-.12-.52.05-.53.15.07.36.33.22.45.1h.25c1.24.04 1.31.96 1.2 1.41l-.9 3.26a.69.69 0 0 0-.3.45c-.05.24-.22.62-.3.78l.3.5c.17-.18.35-.7.42-.93l1-3.67c.11-.39.13-.8.12-.97-.08-.9-1.17-1.1-1.71-1.08Z" fill="#FF7225"/></svg>