<!-- by TradingView --><svg width="56" height="56" viewBox="0 0 56 56" xmlns="http://www.w3.org/2000/svg"><path fill="#F0F3FA" d="M0 0h56v56H0z"/><path fill-rule="evenodd" d="M41 13H15v30h26V13Zm-27-1v32h28V12H14Zm3 2v12.09c3.31-1.2 6.11-.35 7.1.21.8-1.33 2.62-4.08 5.2-4.08s2.6 2.6 2.6 4.04v.04c3.55-.02 6.44 2.57 7.1 4.77V14H17Zm-1 13h6.33c.75 1.06 1.5 3.75-1.51 6H16v-6Zm22 5a4 4 0 1 1-8 0 4 4 0 0 1 8 0Zm-12.73-1.82c1.1.84 3.13.02 4.51-1.84 1.38-1.85 1.6-4.03.5-4.87-1.1-.84-3.13-.01-4.51 1.84-1.39 1.86-1.6 4.04-.5 4.87Z" fill="#1489CC"/></svg>