<!-- by TradingView --><svg width="56" height="56" viewBox="0 0 56 56" xmlns="http://www.w3.org/2000/svg"><path fill="#F0F3FA" d="M0 0h56v56H0z"/><path fill-rule="evenodd" d="M43 12H13v32h30V12Zm-1 1H14v30h28V13Z" fill="#145239"/><path d="M38.24 26 16.7 15c7.26 5.12 6.84 9.53 5.97 11h15.56Z" fill="#FAC635"/><path d="M38.24 31 16.7 20c7.26 5.12 6.84 9.53 5.97 11h15.56Z" fill="#F06139"/><path d="M38.24 36 16.7 25c7.26 5.12 6.89 9.47 5.8 11h15.73ZM19.65 41c.86 0 1.57-.66 1.65-1.5h-.56a1.1 1.1 0 1 1-.35-.97l-1.57.89.23.42 1.62-.9.5-.28A1.65 1.65 0 1 0 19.64 41ZM26.49 41c.86 0 1.56-.66 1.64-1.5h-.56a1.1 1.1 0 1 1-.35-.97l-1.57.9.24.42 1.61-.9.5-.28A1.65 1.65 0 1 0 26.48 41ZM23 37h-.6v2.76c0 1.02.77 1.25 1.15 1.24H24v-.56h-.35a.63.63 0 0 1-.65-.68v-1.37h1v-.55h-1V37ZM29.53 37.8H29V41h.53v-1.71c.08-.93.85-1.06 1.22-.98v-.5c-.78-.06-1.14.28-1.22.46v-.47ZM36.96 41c.3 0 .58-.08.82-.22V40a1.04 1.04 0 0 1-1.87-.64 1.05 1.05 0 0 1 2.09-.1V41h.62v-1.72A1.65 1.65 0 1 0 36.95 41ZM32.98 37.74c-.75 0-1.36.61-1.36 1.36V41h.56v-1.9a.8.8 0 0 1 1.6 0V41h.56v-1.9c0-.75-.6-1.36-1.36-1.36Z" fill="#145239"/></svg>