<!-- by TradingView --><svg width="56" height="56" viewBox="0 0 56 56" xmlns="http://www.w3.org/2000/svg"><path fill="#F0F3FA" d="M0 0h56v56H0z"/><path fill-rule="evenodd" d="M41.84 13.7H14.16c-.25 0-.46.2-.46.46v27.68c0 .25.2.46.46.46h27.68c.25 0 .46-.2.46-.46V14.16c0-.25-.2-.46-.46-.46ZM14.16 13c-.64 0-1.16.52-1.16 1.16v27.68c0 .64.52 1.16 1.16 1.16h27.68c.64 0 1.16-.52 1.16-1.16V14.16c0-.64-.52-1.16-1.16-1.16H14.16Z" fill="#68B92E"/><path d="M14.57 23.72c0-3.25 5.02-5.46 7.53-6.16l2.04 1.68c-1.78.48-5.45 2.04-5.98 4.48-.53 2.44 2.03 4.96 3.38 5.92-4.62-5.76 2.24-8.79 5.76-8.97l1.26 1.29c-4.38.9-5.83 3.2-5.89 4.54-.17 3.82 2.3 5.62 3.56 6.04-5.56-1.53-11.66-4.76-11.66-8.82Z" fill="#1D114F"/><path d="M41.61 25.36c0 3.25-5.02 5.46-7.53 6.16l-2.03-1.67c1.77-.48 5.45-2.05 5.98-4.49.52-2.43-2.04-4.96-3.38-5.91 4.61 5.76-2.24 8.78-5.77 8.96l-1.25-1.28c4.37-.91 5.83-3.21 5.88-4.55.17-3.82-2.3-5.61-3.55-6.03 5.56 1.52 11.65 4.75 11.65 8.81Z" fill="#68B92E"/><path d="M15 36h3.56v.67H16v.93h2.24v.68H16V40h-1v-4ZM19 36h1v4h-1z" fill="#1D114F"/><path fill-rule="evenodd" d="M23.5 36H21v4h2.5a2 2 0 1 0 0-4Zm-.21.67H22v2.66h1.29c.65 0 1.18-.49 1.18-1.08v-.5c0-.6-.53-1.08-1.18-1.08Z" fill="#1D114F"/><path d="M28.17 36c1.6 0 1.96.77 1.94 1.16h-1.06c-.02-.17-.23-.52-.88-.55-.66-.04-.92.21-.97.34-.07.13.1.44 1.43.62 1.33.18 1.64.83 1.63 1.13 0 .48-.41 1.3-2.1 1.3-1.67-.01-2.14-.87-2.16-1.3l1.05-.06c.01.2.27.67 1.12.7.85.02 1.05-.36 1.04-.5 0-.13.16-.38-1.43-.64-1.27-.2-1.59-.78-1.6-1.04 0-.39.39-1.16 1.99-1.16Z" fill="#1D114F"/><path fill-rule="evenodd" d="M33.5 40c1.7.03 2.5-.9 2.5-2s-.76-2.01-2.5-2c-1.74 0-2.5.9-2.5 2s.8 1.96 2.5 2Zm0-.65c1.02.03 1.5-.6 1.5-1.35 0-.75-.45-1.36-1.5-1.36S32 37.24 32 38c0 .74.48 1.33 1.5 1.35Z" fill="#1D114F"/><path d="M37 36v4h1v-2.49L39.99 40H41v-4h-1v2.51L37.99 36H37Z" fill="#1D114F"/></svg>