<!-- by TradingView --><svg width="56" height="56" viewBox="0 0 56 56" xmlns="http://www.w3.org/2000/svg"><path fill="#F0F3FA" d="M0 0h56v56H0z"/><path d="M9 18.28A2.33 2.33 0 0 1 11.37 16h33.26c1.31 0 2.37 1.02 2.37 2.28v19.44A2.33 2.33 0 0 1 44.63 40H11.37A2.33 2.33 0 0 1 9 37.72V18.28Z" fill="#21824B"/><path d="M13.09 28H14v-4h4.04c.6 0 .96-.45.96-1.02v-.4h-5v-2.14h4.91c.6 0 1.09-.46 1.09-1.03V19h-6.91c-.6 0-1.09.46-1.09 1.03v6.94c0 .57.49 1.03 1.09 1.03ZM21 26.86c-.08 1 1.36 1.13 2.08 1.06 0-2.74.3-5.33.44-6.28l2.23 4.99c.56 1.2 1.84 1.54 2.21 1.3.3-.2.59-.8.7-1.07 1.2-2.79 1.91-4.76 2.17-5.22l.45 5.22c.06 1.04 1.52 1.14 2.25 1.06l-.57-6.48c-.17-2.38-1.78-2.62-2.45-2.36-.54.2-1.13 1.31-1.35 1.84l-1.86 4.64-2.11-5.08c-.57-1.44-2.49-1.53-3.38-1.4-.56 2.08-.77 6.05-.8 7.78ZM36.44 19H35v7.83c0 .65.54 1.17 1.21 1.17H37v-6.6l2.9 4.07c1.33 2.16 2.5 2.53 3.12 2.53H44v-7.83A1.2 1.2 0 0 0 42.79 19H42V25c-.81-1.39-2.67-4.02-2.76-4.15-1.02-1.54-2.3-1.87-2.8-1.84Z" fill="#FEDB33"/><path d="M43.98 28.34c-11.9-.18-24.55 2.1-29.39 3.25l2.28.43a149.27 149.27 0 0 1 27.1-3.52v-.16Z" fill="#fff"/><path d="M44 28.64c-16.13 1.03-26.34 4.3-30.95 5.63l2.29.44c10.97-3.58 23.3-5.62 28.65-5.91v-.16Z" fill="#FEDB33"/><path d="M43.97 28.91c-17.14 2.05-28.76 7.32-32.08 8.2l2.28.44c10.95-4.35 24.28-7.94 29.8-8.48v-.16Z" fill="#fff"/></svg>