<!-- by TradingView --><svg width="56" height="56" viewBox="0 0 56 56" xmlns="http://www.w3.org/2000/svg"><path fill="#F0F3FA" d="M0 0h56v56H0z"/><path d="M19 14h12c7.11 0 13 5.83 13 13v9c-1.45-.33-2.9-1-4.53-1.67-5.98-2.33-9.2-9.33-14.7-15.5A19.03 19.03 0 0 0 19 14Zm19.02 28H25c-7.11 0-13-5.83-13-13V18c1.78.83 3.88 2 5.66 3.17 4.85 3 11.15 12.83 15.67 17.5 1.3 1.33 3.07 2.5 4.69 3.33Z" fill="#57232D"/><path d="m14 17 3-2s4.54 2.17 8.23 7.17c3.69 5 10.75 15 18.61 16.16a2 2 0 0 1 .16.8c-.02 1.84-2.86 2.87-3 2.87 0 0-4.86-1.17-9.67-7.67C26.5 27.83 23.63 22 14 17Z" fill="#F5DF07"/></svg>