<!-- by TradingView --><svg width="56" height="56" viewBox="0 0 56 56" xmlns="http://www.w3.org/2000/svg"><path fill="#F0F3FA" d="M0 0h56v56H0z"/><path d="M26.17 11h3c.05 0 .1.03.13.08.03.06.03.12 0 .17l-1.35 2.18h1.24l-2.41 4.97a.08.08 0 0 1-.1.04.08.08 0 0 1-.05-.08L27 14.9h-1.77l.94-3.91Zm3.66 34h-3a.16.16 0 0 1-.13-.08.16.16 0 0 1 0-.17l1.35-2.18h-1.24l2.41-4.97a.08.08 0 0 1 .1-.04c.03 0 .06.04.05.08L29 41.1h1.78L29.83 45Zm-6.07-33.5-2.84.94.33 4 1.69-.55.72 3.39c.01.04.05.06.09.06.04 0 .07-.03.07-.07l.73-5.48-1.18.4.6-2.5a.16.16 0 0 0-.05-.16.16.16 0 0 0-.16-.03Zm11.32 32.06-2.84.94a.16.16 0 0 1-.16-.03.16.16 0 0 1-.04-.16l.6-2.5-1.19.4.73-5.48c0-.04.03-.07.07-.07.04 0 .08.02.09.06l.72 3.4 1.7-.57.32 4.01Zm-16.12-30-2.42 1.76 1.53 3.72 1.44-1.05L21.23 21c.02.04.06.05.1.04a.08.08 0 0 0 .05-.1l-.97-5.43-1.01.73-.19-2.56c0-.06-.03-.11-.09-.14a.16.16 0 0 0-.16.02Zm20.5 27.12-2.42 1.76a.16.16 0 0 1-.16.02.16.16 0 0 1-.1-.14l-.18-2.56-1 .73-.98-5.44c0-.04.02-.08.06-.09.03-.01.07 0 .1.04l1.71 3 1.44-1.04 1.53 3.72ZM14.95 17.05l-1.76 2.42 2.6 3.07 1.05-1.44 2.56 2.33c.03.03.07.03.1 0a.08.08 0 0 0 .03-.1l-2.6-4.87-.73 1-.97-2.37a.16.16 0 0 0-.13-.1.16.16 0 0 0-.15.06ZM42.8 36.53l-1.76 2.42a.16.16 0 0 1-.15.06.16.16 0 0 1-.13-.1l-.97-2.37-.73 1-2.6-4.88a.08.08 0 0 1 .03-.1.08.08 0 0 1 .1 0l2.56 2.34 1.05-1.44 2.6 3.07ZM12.19 21.66l-.92 2.85 3.43 2.1.54-1.7 3.17 1.43c.03.02.07 0 .1-.03a.08.08 0 0 0-.01-.1l-3.99-3.83-.38 1.19-1.66-1.96a.16.16 0 0 0-.16-.06.16.16 0 0 0-.12.11Zm32.54 9.83-.92 2.85a.16.16 0 0 1-.12.1.16.16 0 0 1-.16-.05l-1.66-1.96-.38 1.2-3.99-3.84a.08.08 0 0 1 0-.1.08.08 0 0 1 .1-.03l3.16 1.42.54-1.7 3.43 2.11Zm-33.71-4.74-.02 3 3.9.96v-1.78l3.45.4c.04 0 .08-.02.1-.06a.08.08 0 0 0-.05-.1l-4.96-2.44v1.25l-2.18-1.36a.16.16 0 0 0-.16 0 .16.16 0 0 0-.08.13Zm33.98-.5-.02 3c0 .06-.03.1-.08.14a.16.16 0 0 1-.16 0l-2.18-1.37v1.25l-4.96-2.44a.08.08 0 0 1-.04-.1.08.08 0 0 1 .09-.06l3.44.4.01-1.78 3.9.97Zm-33.52 5.9.92 2.84 4.01-.3-.55-1.7 3.4-.7c.03-.01.06-.05.06-.09a.08.08 0 0 0-.07-.08l-5.47-.76.38 1.19-2.49-.61a.16.16 0 0 0-.15.04.16.16 0 0 0-.04.16ZM43.6 21l.92 2.85c.02.06 0 .11-.04.16a.16.16 0 0 1-.15.04l-2.5-.61.4 1.19-5.48-.76a.08.08 0 0 1-.07-.08c0-.04.03-.08.06-.08l3.4-.71-.55-1.7 4-.3ZM13.58 37.06l1.75 2.42 3.72-1.53L18 36.5l3.01-1.73a.08.08 0 0 0-.05-.15l-5.44.98.73 1-2.56.2c-.06 0-.1.03-.13.09a.16.16 0 0 0 .02.16Zm27.09-20.54 1.75 2.42c.04.05.05.1.02.16a.16.16 0 0 1-.13.1l-2.56.19.73 1-5.44.98a.08.08 0 0 1-.09-.06.08.08 0 0 1 .04-.1l3-1.72-1.04-1.44 3.72-1.53ZM17.08 41.08l2.42 1.75 3.06-2.6-1.44-1.05 2.33-2.57a.08.08 0 0 0 0-.1.08.08 0 0 0-.1-.02l-4.87 2.6 1.01.74-2.37.97a.16.16 0 0 0-.1.13c0 .06.01.11.06.15ZM36.5 13.17l2.42 1.75c.05.04.07.1.06.15 0 .06-.04.1-.1.13l-2.37.97 1 .73-4.86 2.61a.08.08 0 0 1-.1-.02.08.08 0 0 1 0-.1l2.33-2.57-1.44-1.05 3.06-2.6ZM21.7 43.84l2.85.9 2.1-3.42-1.7-.55 1.4-3.17a.08.08 0 0 0-.12-.09l-3.82 4 1.19.38-1.95 1.67a.16.16 0 0 0-.06.15c.02.06.05.1.11.13Zm9.73-32.59 2.85.91c.05.02.1.07.1.13.02.06 0 .11-.05.15l-1.95 1.67 1.19.38-3.82 4a.08.08 0 0 1-.1 0 .08.08 0 0 1-.03-.1l1.41-3.16-1.7-.55 2.1-3.43ZM28.54 20h-1.4l-.45 1.84h.84l-.18 1.62a.04.04 0 0 0 .08.02l1.13-2.34h-.59l.64-1.02a.07.07 0 0 0 0-.08.07.07 0 0 0-.06-.04Zm.32 16h-1.4a.07.07 0 0 1-.07-.04.07.07 0 0 1 0-.08l.64-1.02h-.6l1.14-2.34c.01-.02.03-.03.05-.02.02 0 .03.02.03.04l-.18 1.62h.84L28.86 36ZM26 20.23l-1.33.45.15 1.88.8-.26.34 1.6c0 .01.02.03.04.03s.03-.02.03-.04l.35-2.58-.56.19.28-1.18c0-.02 0-.05-.02-.07a.07.07 0 0 0-.08-.02Zm5.33 15.1-1.33.44c-.03 0-.06 0-.08-.02a.07.07 0 0 1-.02-.07l.28-1.18-.56.19.35-2.58a.04.04 0 0 1 .07 0l.34 1.59.8-.26.15 1.88ZM23.75 21.2l-1.14.83.72 1.75.67-.49.81 1.42c.01.01.03.02.05.01.02 0 .03-.02.02-.04l-.45-2.56-.48.35-.08-1.2a.07.07 0 0 0-.05-.07.07.07 0 0 0-.07 0Zm9.64 12.77-1.13.83a.07.07 0 0 1-.08 0 .07.07 0 0 1-.05-.06l-.08-1.2-.48.34-.45-2.56c0-.02 0-.04.02-.04.02-.01.04 0 .05.01l.8 1.42.68-.5.72 1.76ZM21.86 22.85l-.83 1.14 1.22 1.44.5-.68 1.2 1.1H24a.04.04 0 0 0 .01-.05l-1.22-2.3-.35.48-.45-1.12a.07.07 0 0 0-.06-.04c-.03 0-.05 0-.07.03ZM34.96 32l-.82 1.14a.07.07 0 0 1-.07.03.07.07 0 0 1-.06-.04l-.45-1.12-.35.47-1.22-2.3v-.04a.04.04 0 0 1 .06 0l1.2 1.1.5-.68 1.22 1.44Zm-14.4-7-.43 1.35 1.6.99.27-.8 1.49.67a.04.04 0 0 0 .04-.06l-1.88-1.8-.18.55-.78-.92a.07.07 0 0 0-.07-.02.07.07 0 0 0-.06.05Zm15.31 4.63-.43 1.34c0 .03-.03.05-.06.05s-.05 0-.07-.02l-.78-.92-.18.55-1.88-1.8a.04.04 0 0 1 0-.05.04.04 0 0 1 .04 0l1.5.66.25-.8 1.61 1Zm-15.86-2.23L20 28.82l1.84.46v-.84l1.62.18c.02 0 .04 0 .04-.02s0-.04-.02-.05l-2.33-1.15v.6l-1.03-.65a.07.07 0 0 0-.07 0 .07.07 0 0 0-.04.06ZM36 27.18v1.4c0 .04-.02.06-.05.07a.07.07 0 0 1-.07 0l-1.03-.64v.59l-2.33-1.15a.04.04 0 0 1-.02-.05c0-.01.02-.03.04-.02l1.62.18v-.84l1.84.46Zm-15.77 2.77.43 1.34 1.89-.15-.26-.8 1.6-.32a.04.04 0 0 0 0-.08l-2.58-.36.18.56-1.17-.29c-.03 0-.06 0-.08.02a.07.07 0 0 0-.01.08Zm15.11-5.24.43 1.34c.01.03 0 .06-.01.08a.07.07 0 0 1-.08.02l-1.17-.3.18.57-2.57-.36a.04.04 0 0 1 0-.08l1.6-.33-.27-.8 1.89-.14Zm-14.13 7.55.83 1.14 1.75-.72-.5-.68 1.42-.8c.02-.02.03-.04.02-.05a.04.04 0 0 0-.04-.03l-2.56.46.34.47-1.2.1a.07.07 0 0 0-.07.04.07.07 0 0 0 .01.07Zm12.75-9.66.83 1.14c.01.02.02.05 0 .07a.07.07 0 0 1-.06.05l-1.2.09.34.47-2.56.46c-.01 0-.03 0-.04-.03 0-.01 0-.03.02-.04L32.7 24l-.49-.68 1.75-.72Zm-11.1 11.55 1.14.83 1.44-1.23-.68-.49 1.1-1.2a.04.04 0 0 0-.05-.07l-2.29 1.23.48.35-1.12.45a.07.07 0 0 0-.05.06c0 .03.01.06.03.07ZM32 21.02l1.14.83c.02.01.03.04.03.07 0 .02-.02.05-.05.06l-1.12.45.48.35-2.3 1.23-.04-.01a.04.04 0 0 1 0-.05l1.1-1.21-.68-.5L32 21.03Zm-6.96 14.43 1.34.43.99-1.61-.8-.26.66-1.5-.01-.04a.04.04 0 0 0-.05 0l-1.8 1.89.56.18-.91.78a.07.07 0 0 0-.03.07c0 .03.02.05.05.06Zm4.58-15.33 1.34.43c.03 0 .04.03.05.06 0 .02 0 .05-.02.07l-.92.78.55.18-1.79 1.88a.04.04 0 0 1-.05 0 .04.04 0 0 1-.01-.04l.66-1.5-.8-.25.99-1.61Z" fill="url(#alrqfnguj)"/><defs><linearGradient id="alrqfnguj" x1="45.5" y1="27.5" x2="11" y2="27.5" gradientUnits="userSpaceOnUse"><stop stop-color="#5BAC5F"/><stop offset="1" stop-color="#01ADFF"/></linearGradient></defs></svg>