<!-- by TradingView --><svg width="56" height="56" viewBox="0 0 56 56" xmlns="http://www.w3.org/2000/svg"><path fill="#F0F3FA" d="M0 0h56v56H0z"/><path d="m29.22 43.32 1.74-.8c.36 0 1.18.18 1.64.93.57.94 2.3.9 2.48.72.2-.2-1.33-1.85-1.75-2.19l.68-.49c.36.6 1.64 1.65 3.9 1.02l-2.1-2.07.57-.3c.74.46 2.48 1.17 3.55.3l-2.02-1.47.5-.67c1.14.23 3.46.41 3.55-.8l-2.4-.67.37-.75c.86.16 2.74.15 3.44-1.2l-2.22-.5.42-.9c.87.01 2.69-.3 3.02-1.66H42.3v-.67c.87-.29 2.62-1.18 2.7-2.5l-2.32.58v-.9c.8-.45 2.32-1.65 2.14-2.83l-2 .75v-1.27c.62-.32 1.78-1.3 1.46-2.7l-1.6 1.19-.38-1.03c.5-.64 1.41-2.24 1.07-3.5l-1.6 1.64-.46-1.16c.44-.55 1.22-1.93.77-3.07l-1.42 1.53-.64-1.05c.29-.49.73-1.77.2-3l-1.05 1.69-.84-.64c.25-.83.51-2.65-.45-3.28l-.6 2.23-.88-.79c.1-.86.03-2.67-1.1-3.04v2.39c-.39-.51-1.25-1.46-1.57-1.16-.32.3.81 1.23 1.42 1.66l-1.84.94c0 .35.59.84 2.86 0l1.11.7-1.97.35c.28.45 1.2 1.2 2.57.64l.95.83-2.01.27c.18.54.95 1.47 2.61.97l.79.9-2.15.13c.08.54.71 1.56 2.6 1.34l.42 1.14-1.92-.42c-.02.62.4 1.87 2.3 2l.48 1.26-1.93-.84c-.06.65.24 2.04 1.93 2.4l.13 1.41-2.06-1.71c-.14.7.06 2.32 1.93 3.13v.9l-1.93-1.51c-.08.61.08 2.14 1.29 3.27v.83l-1.76-1.92c-.21.8-.28 2.62 1.11 3.45l-.26.72L38.72 32a4.6 4.6 0 0 0 .5 3.76l-.5.78-.81-2.35a3.7 3.7 0 0 0-.4 3.71l-.63.58-.5-2.4c-.38.04-1.07.77-.73 3.29l-.57.55-.23-2.55a3.22 3.22 0 0 0-1.23 3.25l-.84.5.23-2.82c-.52.19-1.57.92-1.59 2.32-.03.25-.24.82-.77 1.12L28 42.82l-2.65-1.08c-.54-.3-.74-.87-.78-1.12a2.54 2.54 0 0 0-1.59-2.32l.23 2.82-.83-.5c.31-1.76-.7-2.9-1.24-3.25l-.23 2.55-.56-.55c.33-2.52-.35-3.25-.74-3.3l-.5 2.41-.62-.58a3.7 3.7 0 0 0-.4-3.7l-.82 2.34-.5-.78a4.6 4.6 0 0 0 .5-3.76l-1.67 2.07-.27-.72c1.4-.83 1.33-2.65 1.11-3.45l-1.75 1.92V31a4.15 4.15 0 0 0 1.29-3.27l-1.93 1.5v-.9c1.87-.8 2.06-2.42 1.93-3.12l-2.07 1.71.14-1.4a2.27 2.27 0 0 0 1.93-2.41l-1.93.84.48-1.26c1.9-.13 2.32-1.38 2.3-2l-1.92.42.42-1.14c1.88.22 2.51-.8 2.59-1.34l-2.14-.12.78-.9c1.67.5 2.44-.44 2.62-.98l-2.01-.27.94-.83c1.38.56 2.3-.2 2.58-.64l-1.98-.35 1.11-.7c2.28.84 2.86.35 2.87 0l-1.85-.94c.61-.43 1.75-1.37 1.43-1.66-.32-.3-1.19.65-1.58 1.16V10c-1.12.37-1.2 2.18-1.09 3.04l-.89.8-.6-2.24c-.96.63-.7 2.45-.44 3.28l-.85.64-1.04-1.69a3.54 3.54 0 0 0 .2 3l-.65 1.05-1.42-1.53c-.44 1.14.33 2.52.78 3.07l-.47 1.16-1.6-1.65c-.34 1.27.58 2.87 1.07 3.5l-.38 1.04-1.6-1.18c-.32 1.4.85 2.37 1.47 2.69v1.27l-2-.75c-.18 1.18 1.34 2.38 2.13 2.83v.9L11 28.66c.07 1.31 1.83 2.2 2.7 2.49v.67h-2.3c.34 1.36 2.15 1.67 3.02 1.66l.42.9-2.21.5c.7 1.35 2.58 1.36 3.43 1.2l.38.75-2.4.68c.09 1.2 2.4 1.02 3.55.79l.5.67-2.03 1.47c1.07.87 2.82.16 3.55-.3l.58.3-2.1 2.07c2.26.63 3.53-.41 3.9-1.02l.68.5c-.42.33-1.95 1.99-1.76 2.18.2.18 1.91.22 2.48-.72a2.04 2.04 0 0 1 1.65-.94c.6.3 1.18.56 1.74.81a123.33 123.33 0 0 0-6.2 2.68c.88 0 3.42-.48 7.42-2.15 4 1.67 6.54 2.14 7.42 2.15a123.4 123.4 0 0 0-6.2-2.68ZM24 14.02c0-.56.46-1.02 1.02-1.02h5.96c.56 0 1.02.46 1.02 1.02V15h-1.5v-.5h-5v4h5V17H28v-1h4v2.98c0 .56-.46 1.02-1.02 1.02h-5.96c-.56 0-1.02-.46-1.02-1.02v-4.96Zm0 8c0-.56.46-1.02 1.02-1.02h5.96c.56 0 1.02.46 1.02 1.02V23h-1.5v-.5h-5v4h5V25H28v-1h4v2.98c0 .56-.46 1.02-1.02 1.02h-5.96c-.56 0-1.02-.46-1.02-1.02v-4.96ZM38 29v1H18v-1h20Zm-14.93 2.78c.75-.5 1.37-.54 1.83-.44.48.1.83.37 1 .57l.03.04.05.03a4.3 4.3 0 0 0 4.7.04c.84-.5 1.48-.5 1.92-.38.46.14.76.43.89.64l.05.08.08.06c.34.25.92.53 1.57.59a2.3 2.3 0 0 0 2.02-.84l-.76-.64a1.3 1.3 0 0 1-1.18.48 2.3 2.3 0 0 1-1-.36 2.62 2.62 0 0 0-1.4-.97 3.41 3.41 0 0 0-2.7.48c-1.63.95-3.04.42-3.55.06-.3-.34-.82-.71-1.51-.86a3.34 3.34 0 0 0-2.6.58c-.92.62-1.66.58-2.17.42a2.5 2.5 0 0 1-.89-.5l-.07-.07-.6.8.01.02.08.06a3.74 3.74 0 0 0 1.17.65c.79.25 1.84.24 3.03-.54ZM26.31 34a2.1 2.1 0 0 0-2.4-.01 3.1 3.1 0 0 1-1.67.51 5.64 5.64 0 0 1-1.4-.1l.2-.98c.26.05.7.1 1.15.08.47-.02.87-.12 1.13-.31a3.1 3.1 0 0 1 3.55-.02c.32.22.85.39 1.4.4.56.03 1.06-.1 1.39-.37.6-.5 1.33-.56 1.94-.4.6.17 1.14.58 1.4 1.13.03.1.22.24.65.21.2-.01.39-.06.55-.12a.78.78 0 0 0 .3-.2l.78.63c-.18.23-.45.39-.7.5-.27.1-.57.17-.87.19-.54.03-1.32-.1-1.63-.8-.1-.23-.38-.47-.75-.57-.35-.1-.73-.05-1.04.2-.58.49-1.36.64-2.06.6a3.85 3.85 0 0 1-1.92-.57Zm-3.63 2.34c.23-.16.66-.38 1.15-.44.48-.06 1 .03 1.47.42a4.1 4.1 0 0 0 2.75.93 4.11 4.11 0 0 0 2.18-.64c.3-.21.87-.37 1.48-.35.6 0 1.1.19 1.33.46l.76-.64c-.5-.6-1.34-.8-2.07-.82a3.63 3.63 0 0 0-2.07.53c-.32.22-.93.45-1.63.46a3.1 3.1 0 0 1-2.09-.7 2.86 2.86 0 0 0-2.23-.64c-.68.09-1.27.37-1.62.62l.59.81Z" fill="#9A6C47"/></svg>