<!-- by TradingView --><svg width="56" height="56" viewBox="0 0 56 56" xmlns="http://www.w3.org/2000/svg"><path fill="#F0F3FA" d="M0 0h56v56H0z"/><path d="M27.45 36.5c-9.86 0-17.25 1.73-19.7 2.5 4.19-1.03 11.2-1.8 19.7-1.9 8.49-.1 17.2 1.23 20.48 1.9-2.72-.9-10.8-2.5-20.48-2.5Z" fill="url(#afmmoaed5)"/><path d="M24.88 26c-8.16.23-16.65 1.74-19.88 2.47 4.67-1.64 12.12-2.46 16.7-2.77a38.94 38.94 0 0 1-5.1-2.43 5.43 5.43 0 0 1-4-2.95 8.59 8.59 0 0 1 4 2.71c1.41.74 4.48 2.26 5.8 2.63l1.43-.07-4.54-4.69 8.79-8.9 8.8 8.9-4.54 4.69 1.63.06c1.43-.47 4.2-1.85 5.52-2.54a8.59 8.59 0 0 1 4-2.72 5.43 5.43 0 0 1-4 2.96c-.94.64-3.46 1.75-4.89 2.34 6.51.45 13.48 2.11 16.4 2.97-9-1.92-16.92-2.57-19.76-2.66l5.01-5.1-8.17-8.23-8.14 8.23 4.94 5.1Zm-6.91-2.66c-1.59-.56-2.28-2.4-2.42-3.26a5 5 0 0 1 2.38 3.12l.04.14Zm-4.61.29c.89-.15 2.96-.23 4.15.59-.01 0-.07 0-.16.03-.54.15-2.42.69-3.99-.62Zm-1.97 1.06a5.1 5.1 0 0 1 4.74 1.08 6.1 6.1 0 0 1-4.74-1.08ZM8.83 25.7c.65-.36 2.45-.8 4.4.38-.68.3-2.5.65-4.4-.38Zm-2.69 1.95c.51-.58 2.12-1.6 4.46-1.03-1.11.27-3.56.86-4.46 1.03Zm9.44-2.69c.9-.24 2.95-.54 4.07.23-.78.39-2.68.88-4.07-.23Zm2.02-3.7s.37 2.25 2.53 3.11c-.74-2.1-2-2.95-2.53-3.12Zm2.19 1.18s.23 2.01 2.54 2.77c-.75-1.95-2-2.6-2.54-2.77Zm20.76-2.3c-.15.86-.84 2.7-2.43 3.26.01 0 .03-.05.05-.13.12-.46.54-2.04 2.38-3.12Zm-1.96 4.15c1.18-.82 3.25-.74 4.14-.6-1.57 1.31-3.45.78-4 .63a.56.56 0 0 0-.14-.03Zm6.11.46a5.1 5.1 0 0 0-4.74 1.09c.87.2 3.04.25 4.74-1.09Zm2.57 1.03a4.62 4.62 0 0 0-4.4.38c.67.3 2.5.64 4.4-.38Zm2.68 1.94c-.51-.57-2.12-1.59-4.46-1.02 1.12.27 3.57.86 4.46 1.02Zm-9.44-2.68c-.89-.25-2.95-.55-4.07.23.78.38 2.69.88 4.07-.23Zm-2.02-3.7s-.37 2.25-2.53 3.1c.74-2.08 2-2.94 2.53-3.1Zm-2.18 1.18s-.24 2.01-2.55 2.76c.76-1.94 2-2.6 2.55-2.76Z" fill="url(#bfmmoaed5)"/><path d="m20.47 20.89 5.42 5.52c-9.1.27-17.52 1.86-20.58 2.63l2.36 9.15c2.52-.9 10.23-2.35 20.52-2.35 10.36 0 17.8 1.88 20.23 2.66l2.44-9.17c-5.2-1.68-15.93-2.65-20.64-2.92l5.48-5.52-7.66-7.68-7.57 7.68Z" fill="url(#cfmmoaed5)"/><path fill-rule="evenodd" d="M15.5 34.6a2.7 2.7 0 0 0 2.72-2.68 2.7 2.7 0 0 0-2.72-2.68 2.7 2.7 0 0 0-2.71 2.68 2.7 2.7 0 0 0 2.71 2.68Zm0-1.15c.86 0 1.55-.69 1.55-1.53 0-.84-.7-1.53-1.55-1.53-.85 0-1.55.69-1.55 1.53 0 .84.7 1.53 1.55 1.53Z" fill="#fff"/><path d="M29.65 21.96v-.21h-3.13v3.56l.2.21v-3.56h2.93ZM31.82 18.67l-.21-.22v4.89l.2-.21v-4.46ZM26.7 19.8v-3.5l-.22.17v3.33h.22Z"/><path d="m26.3 16.64-1.57 1.62v5.22l1.57 1.63v-3.53h3.56v3.53l1.62-1.63v-5.22l-1.62-1.62V20H26.3v-3.36Z" fill="#fff"/><path d="M26.08 17.57v-.42L24.9 18.3v5.14l.24.24v-5.15l.93-.96ZM30 20.17h-3.68v.3h3.98v-2.99l-.3-.3v3ZM30.3 21.6H30v3.08l.3-.26V21.6Z" fill="#E2CC7F"/><path d="M10.68 30.23a.23.23 0 0 1 .2-.27l.63-.12c.13-.02.25.06.27.19l.82 4.66a.23.23 0 0 1-.19.27l-.64.11a.23.23 0 0 1-.27-.19l-.31-1.8-1.57.38.37 1.77a.23.23 0 0 1-.18.28l-.63.13a.23.23 0 0 1-.28-.18l-.97-4.63a.23.23 0 0 1 .18-.27l.63-.14c.13-.03.25.05.28.18l.37 1.75 1.6-.38-.3-1.74ZM18.53 29.15l.46 4.68c.02.14.14.23.27.21l.61-.1c.12-.01.2-.12.2-.25L19.82 31l2.26 2.73c.05.06.13.1.21.08l.63-.1c.12-.02.2-.13.2-.25l-.27-4.64a.23.23 0 0 0-.25-.22l-.6.06a.23.23 0 0 0-.2.24l.16 2.75-2.28-2.76a.23.23 0 0 0-.2-.08l-.74.08a.23.23 0 0 0-.2.26ZM25 29.76v.68h1.56c.13 0 .23.1.23.24v.76c0 .13-.1.24-.23.24H25v.8h1.56c.13 0 .23.1.23.23v.77c0 .13-.1.24-.23.24h-2.54a.24.24 0 0 1-.23-.24v-4.72c0-.14.1-.24.23-.24H26.58c.13 0 .23.1.23.24v.76c0 .13-.1.24-.23.24H25ZM39.38 30.44l-.07.68 1.55.15c.13.01.22.13.21.26l-.07.76a.23.23 0 0 1-.25.21l-1.56-.15-.07.8 1.55.15c.13 0 .22.12.2.26l-.06.76a.23.23 0 0 1-.26.21l-1.78-.17-.74-.07a.24.24 0 0 1-.21-.26l.45-4.7a.23.23 0 0 1 .25-.22l.5.05h.01l2.04.2c.12.01.22.13.2.26l-.07.76a.23.23 0 0 1-.25.22l-1.57-.16ZM28.58 31.79l-1.38-3.12a.12.12 0 0 1 .1-.17h1.02c.05 0 .1.03.11.08l.74 1.83.79-1.84a.12.12 0 0 1 .1-.07h1.05c.09 0 .15.1.1.17L29.7 31.8v1.74c0 .06-.06.12-.12.12h-.89a.12.12 0 0 1-.11-.12v-1.74ZM32.86 28.66l-1-.06a.12.12 0 0 0-.12.14l1.12 4.96c.01.05.06.09.11.09h.66c.04 0 .09-.03.1-.08l.95-2.7.35 2.81c0 .06.05.1.11.1h.72c.05 0 .09-.02.1-.07l1.83-4.65a.12.12 0 0 0-.1-.16l-.94-.08c-.05 0-.1.03-.12.07l-.93 2.39-.4-2.5c0-.05-.04-.09-.1-.1l-.77-.06c-.05 0-.1.03-.12.08l-.88 2.41-.46-2.5a.12.12 0 0 0-.11-.1ZM42.32 29.59a.2.2 0 0 0-.23.17l-.76 4.74a.2.2 0 0 0 .16.23l.75.12 1.71.3a.2.2 0 0 0 .24-.16l.13-.75a.2.2 0 0 0-.17-.23l-1.53-.28.6-3.79a.2.2 0 0 0-.16-.23l-.74-.12ZM45.97 30.25a.2.2 0 0 0-.24.15l-1.02 4.7a.2.2 0 0 0 .15.23l.74.17 1.7.4a.2.2 0 0 0 .23-.15l.18-.74a.2.2 0 0 0-.15-.24l-1.52-.37.82-3.75a.2.2 0 0 0-.15-.24l-.74-.16Z" fill="#fff"/><path d="M27.4 28.67h.86v.2h-.61l1.33 3v1.58h-.2v-1.58l-1.38-3.2Zm-3.4.01h2.61v.23l-2.37.04.13 4.54h-.26L24 28.7Zm-1.98.16.12 2.99.25.24-.14-3.04h.47l-.04-.25-.66.06Zm-3.28.26.76-.1.17.25-.66.08.45 4.45-.28.06-.44-4.74Zm-1.39 1.1a2.54 2.54 0 0 0-4.1 1.96c0 .65.26 1.24.67 1.68a2.48 2.48 0 0 1-.97-1.96 2.54 2.54 0 0 1 4.4-1.68Zm-5.69.09-.07-.24-.73.13.35 1.92-1.76.44.07.26 2-.53-.37-1.89.51-.1Zm-3.57.48.75-.21.07.24-.53.14 1.02 4.4-.3.1-1-4.67Zm3.25 2.4.26-.05.36 1.77-.24.07-.38-1.8Zm4.3.5a1.8 1.8 0 0 1-1.13-.3c.35.33.84.51 1.36.48a1.79 1.79 0 0 0 1.66-1.9 1.75 1.75 0 0 0-.78-1.34c.31.3.52.7.55 1.15.07.98-.67 1.83-1.66 1.9Zm25.4-4.15-2.61-.25-.34 4.8.26.02.3-4.53 2.36.18.03-.22ZM24.88 30.7h1.6v.23h-1.6v-.23Zm15.96.83-1.59-.15-.02.22 1.6.16.01-.23Zm-15.9 1.21h1.6v.23h-1.6v-.23Zm15.77.83-1.6-.16-.01.23 1.59.15.02-.22Zm-9.74-4.88h-.84l-.88 1.95.16.38.96-2.05h.46l.14-.28Zm.94.1h.83v.25h-.56l1.02 4.56h-.19l-1.1-4.8Zm3.18.15-.62-.08-.99 2.75h.35l.85-2.39.41.05v-.33Zm1.68.15.8.1-.07.27-.5-.07-.9 2.4h-.37l1.04-2.7Zm-1.91 1.83.33 2.83h.2l-.35-2.83h-.18Zm7.42-1.14.76.15-.05.28-.5-.09-.71 4.44-.28-.06.78-4.72Zm4.4.85-.76-.19-1.04 4.67.27.07.97-4.39.49.12.06-.28Zm-2.62 3.62-1.46-.33-.08.23 1.48.33.06-.23Zm1.95.33 1.44.42-.07.23-1.46-.42.1-.23Z" fill="url(#dfmmoaed5)"/><defs><linearGradient id="afmmoaed5" x1="9.97" y1="38.44" x2="39.64" y2="37.77" gradientUnits="userSpaceOnUse"><stop offset=".13" stop-color="#C1A65E"/><stop offset=".62" stop-color="#F1E59A"/><stop offset="1" stop-color="#8C7134"/></linearGradient><linearGradient id="bfmmoaed5" x1="6.92" y1="25.8" x2="46.85" y2="25.65" gradientUnits="userSpaceOnUse"><stop offset=".06" stop-color="#AF914A"/><stop offset=".55" stop-color="#F1E39E"/><stop offset=".77" stop-color="#9C7E3B"/><stop offset="1" stop-color="#CBA959"/></linearGradient><linearGradient id="cfmmoaed5" x1="6.43" y1="33.14" x2="49.79" y2="32.9" gradientUnits="userSpaceOnUse"><stop stop-color="#79171A"/><stop offset=".5" stop-color="#E0282E"/><stop offset="1" stop-color="#79181A"/></linearGradient><linearGradient id="dfmmoaed5" x1="8.98" y1="32.76" x2="47.45" y2="33.38" gradientUnits="userSpaceOnUse"><stop offset=".12" stop-color="#A27F2B"/><stop offset=".5" stop-color="#EFE198"/><stop offset=".88" stop-color="#A78128"/></linearGradient></defs></svg>