<!-- by TradingView --><svg width="56" height="56" viewBox="0 0 56 56" xmlns="http://www.w3.org/2000/svg"><path fill="#F0F3FA" d="M0 0h56v56H0z"/><path d="M35.52 22.22v.34c-.05 2.03-2.55 3.52-3.8 4.02-.85.34-2.61 1.3-2.85 2.42h16.1a16.96 16.96 0 0 0-5.1-13.17 5.96 5.96 0 0 1-4.35 6.38ZM26.75 29a5.02 5.02 0 0 0-2.95-2.42 6.04 6.04 0 0 1-3.87-4.02c-.27-1.3.4-4.2 1.13-5.56h6.96a5.95 5.95 0 0 1 3.02-5.73A17 17 0 0 0 11.02 29h15.73Z" fill="#C2C1C1"/><path d="M35.52 22.22A6.02 6.02 0 0 1 28.04 17h6.52c.31.95.92 3.24.96 5.22ZM36.06 43c.81-.44 1.58-.94 2.31-1.5H29V43h7.06Zm-3.83 1.5H29v.5c1.1-.06 2.19-.23 3.23-.5ZM27 43v-1.5h-9.37c.73.56 1.5 1.06 2.3 1.5H27Zm-3.23 1.5H27v.5c-1.1-.06-2.19-.23-3.23-.5ZM29 40h11.07a17.1 17.1 0 0 0 1.7-2H29v2Zm-2-2v2H15.93a17.1 17.1 0 0 1-1.7-2H27Zm2-1.5h13.74c.37-.64.7-1.3.98-2H29v2Zm-2-2v2H13.26c-.37-.64-.7-1.3-.98-2H27Zm2-1.5h15.26c.25-.8.44-1.64.56-2.5H29V33Zm-2-2.5V33H11.74c-.25-.8-.44-1.64-.56-2.5H27Z" fill="#E77817"/></svg>