<!-- by TradingView --><svg width="56" height="56" viewBox="0 0 56 56" xmlns="http://www.w3.org/2000/svg"><path fill="#F0F3FA" d="M0 0h56v56H0z"/><path d="M7 34h1v-3c.15.12 1.9 2.82 2 3h1v-5h-1v3a34.38 34.38 0 0 1-2.03-3H7v5ZM33 34h1v-3c.15.12 1.9 2.82 2 3h1v-5h-1v3a34.37 34.37 0 0 1-2.03-3H33v5ZM22.71 31H22v-1h.58c.33 0 .86 0 .86.5s-.4.5-.73.5ZM21 33.99h1v-2c.28 0 .85.02 1 .33.15.34.67 1.6.76 1.68l1.24-.01-1-2c.24-.28.5-.5.5-1.5 0-.96-.65-1.49-1.5-1.49h-2v4.99ZM38 34h1V32.4c.06-.09.37-.57.45-.62.21.56.3.73.93 2.2h1.12c-1-2-1.33-2.6-1.5-3 .14-.17 1.5-1.88 1.5-1.99h-1c-.4.59-1.09 1.45-1.5 2v-2h-1v5ZM48 33v-3c1.1 0 1.49.4 1.5 1.5.01 1.03-.45 1.5-1.5 1.5Zm-1 1h1.24c1.52 0 2.26-.99 2.26-2.5 0-1.04-.38-2.2-1.5-2.44-.42-.08-1.5-.06-2-.06v5ZM17 34h3v-1h-2v-1h1.57v-1H18v-1h2v-1h-3v5ZM43 34h3v-1h-2v-1h1.57v-1H44v-1h2v-1h-3v5ZM12 30h1.5v4h1v-4H16v-.99c-.37 0-3.53-.02-4 0v1ZM26 34h3v-1h-2v-4h-1v5ZM5 34h1v-5H5v5ZM29.5 34.84c.13-.08 2.53-3.84 2.8-4.26l-1.45.42c.19-.67.3-1.35.52-2h-1.38c-.16 1.22-.36 2.18-.49 3.27.2-.01 1-.2 1.2-.27-.17.44-1.18 2.51-1.2 2.84Z" fill="#3E4095"/><path d="M30.15 28.64h1.22c.01-.1.26-.98.26-1-.02-.04-1.06-.01-1.2-.01l-.28 1.01Z" fill="#D73D45"/><path d="M9.8 26.47c0 .4.45.53.9.53.43 0 .97-.43 1.39-.73 0 .13-.02.68.03.73h1.02l.2-3.8h-.88c-.08-.02-.14.04-.16.13-.18.64.24 1.66-.72 2.33-.47.33-.75.22-.64-.4.1-.65.03-1.53.06-2.06H9.96c-.1.16-.15 2.92-.15 3.27ZM15.8 23.86h-.07c0-.18.05-.44.05-.67h-1.03c-.12.13-.23 3.72-.23 3.8h1c.15-.71.03-1.46.4-2.08.12-.22.67-.64.91-.6.22.06.17.35.17.51-.07.73-.21 1.45-.21 2.17h1c.15-.1.2-1.98.21-2.37.02-.22 0-.66 0-.92 0-.36-.38-.5-.65-.5-.62 0-1.39.66-1.56.66ZM6.33 24.8c-.3-.03.17-.76.66-.84.37-.06.8.26.15.65-.2.12-.49.18-.81.2Zm.44 2.2c.44 0 1.03-.1 1.43-.26.18-.08.08-.52.07-.7-.44.02-2.2.6-2.1-.55.35-.08.67-.06 1-.14.6-.14 1.33-.53 1.37-1.13.03-.7-.61-1.03-1.27-1.03-.52.02-1.07.23-1.46.53A2.33 2.33 0 0 0 5 25.57c.02.3.08.61.3.88.34.42.98.55 1.47.55ZM26.33 24.8c-.3-.03.17-.76.66-.84.37-.06.8.26.15.65-.2.12-.49.18-.81.2Zm.44 2.2c.44 0 1.03-.1 1.43-.26.18-.08.08-.52.07-.7-.44.02-2.2.6-2.1-.55.35-.08.67-.06 1-.14.6-.14 1.33-.53 1.37-1.13.03-.7-.61-1.03-1.27-1.03-.52.02-1.07.23-1.46.53a2.33 2.33 0 0 0-.81 1.85c.02.3.08.61.3.88.34.42.98.55 1.47.55ZM21.84 24.37c0 1.14 1.38 1.17 1.38 1.64 0 .22-.37.24-.5.24-.42 0-.87-.39-1.03-.39-.03.15-.04.66-.04.81.02.2.4.32.86.33.52 0 1.12-.16 1.34-.57.1-.18.14-.35.15-.52 0-.57-.15-.74-.43-.99-.28-.24-.88-.47-.88-.68 0-.27.24-.3.42-.29.34.05.65.18.84.2.08-.18.05-.36.05-.6s-.6-.36-.78-.36c-.7 0-1.38.35-1.38 1.18ZM32 27c.53 0 .72.02 1.02-.08.21-.06.25-6.12.21-6.16-.05-.07-.22-.1-.4-.1-.18 0-.57.03-.58.1A82.6 82.6 0 0 0 32 27ZM29.85 27c.54 0 .73.02 1.03-.08.2-.06.25-6.12.2-6.16-.04-.07-.22-.1-.4-.1-.18 0-.56.04-.58.1-.13.43-.25 5.16-.25 6.24ZM19.1 22.53c-.05.11-.2 4.42-.16 4.47H20c.13-1.2.11-3.31.11-4.47H19.1ZM19.03 20.49l-.03.97c.15.02.84.08.93-.02.03-.02.06-.84.07-.93-.26-.1-.71-.12-.97-.02Z" fill="#00AFEE"/></svg>