<!-- by TradingView --><svg width="56" height="56" viewBox="0 0 56 56" xmlns="http://www.w3.org/2000/svg"><path fill="#F0F3FA" d="M0 0h56v56H0z"/><path d="M38.42 18.44v-4.8l-3.5 2.02 3.5 2.78ZM39 18.77V13.7l3 2.2V21l-3-2.23ZM8.3 25.5l1.88 1.74V25.5l19.45-10.75L44.2 25.22l-.37 1.96 2.04-2.03L29.63 13 8.3 25.5Z" fill="#324F9D"/><path d="m7.99 30.52 2.9 3.74-.71-3.74L29.4 19.8l14.48 10.5-.93 3.95 2.65-4.14-16.2-12.11-21.41 12.5Z" fill="#CBB26F"/><path d="M17 29.57V39h2V28.74l-2 .83ZM21 29.57V39h2V28.74l-2 .83Z" fill="#324F9D"/><path d="m24 26.3-4 2.09v1.83l4-1.72v-2.2ZM25.4 25.99 24.78 39h1.78l.46-9.93L28.2 39h1.21l1.26-9.81.36 9.81h1.84l-.84-12.53L29.51 25l-.75 7.84-.8-7.84-2.56.99Z" fill="#324F9D"/><path fill-rule="evenodd" d="M38.9 33.28c-.07-2.57-3.3-5.26-4.9-6.28v12h2.25c1.73-.09 2.73-.92 2.75-2.32a3.17 3.17 0 0 0-.93-2.26c.66-.1.83-.8.83-1.14ZM36 33v-2.46c.32.21.97.82 1 1.56.03.73-.66.9-1 .9Zm0 1.56v2.55c.32.05.96-.1 1-1.04a1.5 1.5 0 0 0-1-1.5Z" fill="#324F9D"/><path fill="#CBB26F" d="M7 38h8v1H7zM41 38h8v1h-8z"/></svg>