<!-- by TradingView --><svg width="56" height="56" viewBox="0 0 56 56" xmlns="http://www.w3.org/2000/svg"><path fill="#F0F3FA" d="M0 0h56v56H0z"/><path d="M13.55 19.82c-2.1-3.08-4.57-3.27-5.55-2.98 5.22 7.14 6.41 11.67 6.95 13.63.43 1.57.18 2.59 0 2.9-.3.74.12 1.38.37 1.61.27.75.12 2.8 0 3.3-.19.77 1.03 4.54 12.59 4.71 9.5.15 12.75-2.77 12.95-4.11-.08-.63-.15-2.22.2-3.58.34-1.36-.09-2.34-.34-2.65A40.07 40.07 0 0 1 48 17.19c-2.51-.35-4.17 1.55-4.69 2.55-2.67.13-5.04 1.92-5.9 2.8a3.63 3.63 0 0 1 1.85 1.94c.09.63-.1 1.91-1.55 1.97-1.45.05-2.37-1.62-2.65-2.46-.25.54-1.04 1.62-2.2 1.62-1.18 0-1.49-1.08-1.5-1.62.16-1.87 2.04-1.98 2.95-1.8-.62-2.56-1.88-3.43-2.1-3.62v-.01c-.22-.2-.45-.39-1.3-2.5a15.96 15.96 0 0 0-2.6-4.06c-.92.78-2.4 2.9-2.76 4.07-.3.93-.88 1.7-1.14 1.96-1.88 2.03-2.27 3.85-2.23 4.5 2.65-.6 3.02.59 3.08 1.2.06.6-.35 1.8-1.45 1.88-.88.06-1.78-1.06-2.12-1.62-.8 1.62-2.69 2.98-3.71 2.09-1.02-.9.75-2.37 1.16-2.75.33-.3.14-.66 0-.8-2.32-2.16-4.7-2.7-5.59-2.71Z" fill="#252120"/><path fill-rule="evenodd" d="m16.77 39.64 1.48-.85c1 .52 3.48 1.6 5.48 1.86-.91-.32-2.95-1.24-3.77-2.4l.9-.42c.53.27 1.95.84 3.42.96-.16-.01-1.67-.9-1.88-1.39l1.54-.38 1.88.64-.8-.76c.9-.14 3.27-.32 5.49 0l-.71.76c.37-.14 1.18-.46 1.48-.64l1.83.38a4.63 4.63 0 0 1-1.83 1.4c.74-.14 2.41-.52 3.14-.97l1.21.42a10.1 10.1 0 0 1-3.92 2.4c1.19-.2 3.94-.84 5.53-1.86l2.04 1.11c-.9.86-4.33 2.53-10.89 2.36-8-.2-10.7-1.77-11.62-2.62Zm11.17-2.25c-.47 0-1.1.19-1.36.28h2.58c-.21-.1-.75-.28-1.22-.28ZM26 39.09a6.25 6.25 0 0 1 2.03-.48c.7 0 1.5.32 1.82.48H26Zm-.53 1.85a8.2 8.2 0 0 1 2.62-.62c.9 0 1.94.42 2.34.62h-4.96Z" fill="#CFA964"/><path fill-rule="evenodd" d="M16.18 38.84c.14-1.01.33-3.27 0-4.2-.16-.19-.43-.72-.19-1.33.3-.75.2-2.05 0-2.6-.16-.43-.57-1.82-.75-2.47-.04-.08-.05-.28.22-.4.28-.1 1.25-.55 1.7-.76H15.6c-.14.01-.43.18-.53.77l-.61-1.5 1.63-.7c-.25-.1-.95-.21-1.78.26a41.34 41.34 0 0 0-4.85-8.13c.55.03 2.05.56 3.65 2.4.1.09.46.3 1.04.45.71.19 2.98 1.2 4.2 2.21-.44.5-1.3 1.7-1.25 2.5.07 1.01.77 1.74 1.8 1.74 1.02 0 1.95-.63 2.79-1.86.39.45 1.4 1.32 2.31 1.23 1.15-.1 2.03-.93 2.04-2.65.02-1.73-1.53-2.32-2.82-2.26-.04-.35.22-1.37 1.63-2.64.2-.19.67-.73.9-1.4.3-.82 1.6-3.97 2.48-4.46.49.5 1.66 2.12 2.39 4.47.1.3.45 1 1 1.4.69.48 1.71 1.22 1.95 3.22l-.29.13c0-.1-.07-.37-.36-.57-.74.01-2.22.46-2.21 2.1.01 2.06 1.57 2.66 2.21 2.66.65 0 1.35-.4 2.12-1.37.34.82 1.36 2.43 2.74 2.29a2.47 2.47 0 0 0 2.26-2.62c-.05-.95-1.06-1.82-1.66-2.22.7-.77 2.94-2.3 6.38-2.17l-.92-.36c.4-.7 1.57-2.1 3.1-2.2-1.77 2.34-5.69 8.6-7.14 14.89l.55.8c.18.27.44 1.1 0 2.26-.02 1.02-.13 3.15-.4 3.49-1.9-1.04-7.03-3.3-11.79-3.3-5.36 0-9.8 1.82-11.98 2.9ZM27.9 15.63l-.72 3.2a1.6 1.6 0 0 1-.24-1.4c.2-.68.72-1.48.96-1.8Zm-15.87 4.66c-.14.07-.45.16-.48 0-.05-.2-.02-.34.23-.46.25-.13.5-.04.53.06.04.1-.03.23-.28.4Zm1.64 1.07H12.6l-.15.61 1.2-.6Zm-.18 1.5h1.05l-1.2.6.15-.6Zm28.25.2h1.05l.15.62-1.2-.61ZM13.86 24.3c.2-.22 1.2-.1 1.68 0l-1.4.56-.28-.56Zm26.86.2c.48-.08 1.49-.21 1.68 0l-.29.57-1.39-.56Zm1.01 1.42c-.19-.22-1.2-.1-1.67 0l1.39.56.28-.56Zm-2.57 1.49c.55-.1 1.69-.22 1.9 0l-.32.56-1.58-.56Zm-24.92-5.8c.64-.06 2.08.14 2.77 1.36-.57-.24-1.93-.87-2.77-1.36Zm1.6 7.14 1.1-.44 1.38.13-2.22.96-.26-.65Zm23.48-.23 1.1.44-.26.65-2.22-.96 1.38-.13Zm-22.9 1.67 1.85-.65 2.28.15-3.83 1.32-.3-.82Zm21.57-.44 1.85.65-.3.82-3.83-1.32 2.28-.15Zm5.89-8.26-1.35.09.95.49.4-.58Zm-2.05.37c-.68-.05-2.13.12-2.5 1.21.1 0 1.64-.65 2.5-1.2Zm-12.82-3.04-.73-3.19c.24.32.77 1.12.96 1.8a1.6 1.6 0 0 1-.23 1.4Zm2.43 1.56-2.17 1.87c.03-.3.18-.97.56-1.2a9.23 9.23 0 0 1 1.6-.67Zm-4.57 1.87-2.16-1.87c.38.12 1.24.43 1.6.66.38.24.53.9.56 1.21Zm1.17-2.01c-.19.01-.54-.03-.45-.28a.5.5 0 0 1 .45-.3c.13 0 .4.07.42.3.02.22-.27.28-.42.28Zm-.45 1.39c-.1.24.26.29.45.28.15 0 .44-.06.42-.28-.02-.23-.3-.3-.42-.31a.5.5 0 0 0-.45.3Zm-.42 1.7.91-.45.9.45h-1.81Zm.91 1.02-1.43.65h2.84l-1.41-.65ZM26.1 27l1.92-.65 1.88.65h-3.8Zm1.93 1-3.26 1h6.46l-3.2-1Z" fill="#CFA964"/><path fill-rule="evenodd" d="M16.69 34.28c1.3-.87 5.4-2.76 11.43-2.76 5.68 0 9.9 1.8 11.08 2.76l-.13 3.77a27.39 27.39 0 0 0-10.95-2.83 24.78 24.78 0 0 0-11.13 2.56l-.3-3.5Zm11.3-2.19c.1.46.27 1.57 0 2.29a1.94 1.94 0 0 1 0-2.29Zm3.42.44c-.11.42-.27 1.4 0 2.05a1.6 1.6 0 0 0 0-2.05Zm-6.87.01c.11.42.27 1.4 0 2.05a1.6 1.6 0 0 1 0-2.05Zm10.79.8a5 5 0 0 0 0 2.05c.2-.32.49-1.19 0-2.05Zm-14.71.01a5 5 0 0 1 0 2.05 2.08 2.08 0 0 1 0-2.05Zm17.53 2.87c.1-.36.24-1.21 0-1.7-.22.3-.53 1.07 0 1.7Zm-20.36.01c-.1-.36-.23-1.21 0-1.7.23.3.54 1.07 0 1.7Zm1.19-.56c-.1-.2-.17-.71-.18-.94.29-.18.55-.15.65-.1-.1.46-.36.88-.47 1.04Zm18.17-.95c-.02.23-.08.74-.18.94a2.9 2.9 0 0 1-.47-1.05c.1-.04.36-.07.65.1Zm-15.27-.94 1.17-.44v.06c.05.28.11.77-.21.94l-.96.35v-.9Zm11.02-.45 1.17.44v.9l-.96-.34c-.33-.17-.26-.66-.22-.95v-.05Zm-6.22-.58-.97.23v.96l.97-.17v-1.02Zm3.56.22-.97-.23v1.02l.97.17v-.96Z" fill="#252120"/></svg>