<!-- by TradingView --><svg width="56" height="56" viewBox="0 0 56 56" xmlns="http://www.w3.org/2000/svg"><path fill="#F0F3FA" d="M0 0h56v56H0z"/><path d="M9.7 21h4.72c-.34.82-.4 2.26-.42 2.88v10.04c-.1 6.06-4.07 6.46-6 5.9 3.13-1.17 4-4.86 4-6.89V22.7c-1-.03-2.91.28-3.57.44l.49-1.39c.16-.58.6-.74.78-.74ZM18.8 26c-1.05.01-2 .33-2.34.5l-.52 2c.87-.7 1.88-.86 2.28-.85A1.75 1.75 0 0 1 20 29.39v1.14c-1.19.5-5.03 1.49-5 3.96.03 1.98 1.83 2.5 2.72 2.51H20v-1.09c-.27.09-2.95.55-3-1.33-.04-1.5 2-2.47 3-2.77v3.73c-.01.89.68 1.44 1.02 1.46h1.35a6.1 6.1 0 0 1-.36-2.09v-5.66c-.22-2.72-1.9-3.27-3.21-3.25ZM39.6 33.38c-.36 0-.68.11-.8.16l-.18.67c.3-.24.64-.29.78-.29.47.02.6.39.6.57v.38c-.4.17-1.7.49-1.7 1.3.01.66.63.83.93.83H40v-.36c-.1.03-.98.18-1-.44-.02-.5.66-.81 1-.9v1.22c0 .3.23.47.35.48h.46c-.1-.16-.12-.56-.13-.69v-1.86c-.07-.9-.64-1.08-1.09-1.07ZM26 26h-2.53c.33.45.52 1.14.53 1.43V37h2.44a2.82 2.82 0 0 1-.44-1.43V26Z" fill="#00481A"/><path fill="#AE870E" d="M24 22h2v2h-2z"/><path d="M34.13 26h-6.1l-.42 2.36c.62-.57 2.08-.76 2.73-.78h.98c-.42 1.5-3.02 6.9-4.27 9.42h6.52l.56-2.38c-.63.68-2.14.9-2.81.93h-1.31L34.13 26Z" fill="#00481A"/><path fill-rule="evenodd" d="M43 15h-8v8h8v-8Zm-9-1v10h10V14H34Z" fill="#AE870E"/><path fill-rule="evenodd" d="M46 18h-8v8h8v-8Zm-9-1v10h10V17H37Z" fill="#AE870E"/><path fill="#00481A" d="M39 19h3v3h-3z"/><path fill-rule="evenodd" d="M36.38 31.93h-1.33c.13.2.2.67.2.88v3.27c.01.33-.13.75-.2.92h1.03c1.17-.06 2-.49 1.98-1.42 0-.75-.64-1.17-.96-1.3.58-.28.73-.82.74-1.06 0-1.06-.97-1.3-1.46-1.3Zm.63 1.3c0-.68-.68-.83-1.01-.82v1.74c.34-.02 1.02-.24 1.01-.92ZM36 34.53c.4-.02 1.22.15 1.23.92.01.76-.68.99-1.23 1.04v-1.97Z" fill="#00481A"/><path d="M41.56 34.45a3.8 3.8 0 0 0-.18-.98h.86v.62l.58-.58c.1-.04.33-.04.43-.04.77 0 .94.65.92.98v1.91c0 .23.08.52.11.64h-.93c.1-.14.12-.48.12-.64v-1.7c-.02-.8-.83-.57-1.23-.36v2.13c0 .22.1.47.15.57h-1.01c.09-.14.16-.44.18-.57v-1.98ZM45.83 32l-1 .24c.12.18.17.53.17.68v3.62c0 .11-.11.35-.16.46h1c-.06-.1-.13-.35-.15-.46v-1.3l.86 1.3c.11.22.16.4.17.46h.98a12.1 12.1 0 0 1-1.3-1.86c.3-.55.9-1.31 1.2-1.62h-1.05c.01.11-.05.31-.08.4l-.78 1.22v-2.13c-.02-.34.09-.82.14-1.01Z" fill="#00481A"/></svg>