<!-- by TradingView --><svg width="56" height="56" viewBox="0 0 56 56" xmlns="http://www.w3.org/2000/svg"><path fill="#F0F3FA" d="M0 0h56v56H0z"/><path d="m19.7 39.29 8.27-5.88.04-5.57L19.7 39.3Z" fill="#fff"/><path d="m20.55 38.7 7.46-5.28v-4.58L27 30.26V33l-5.24 3.97c.02 0-.62.87-1.21 1.73Z" fill="#C4C6CF"/><path d="m19.7 39.29 3-9.72L28 27.84 19.7 39.3ZM36.27 39.29l-8.25-5.88v-5.57l8.25 11.45Z" fill="#EF1828"/><path d="m36.3 39.29-3-9.72-5.28-1.73 8.27 11.45Z" fill="#fff"/><path d="M14.47 23H25l3 4.85L14.48 23Z" fill="#EF1828"/><path d="M41.5 23H31.2l-3.1 4.84L41.5 23Z" fill="#fff"/><path d="M14.61 23h2.37c3.38.66 6.82 2.4 10.07 3.54l.96 1.33L14.61 23Z" fill="#600"/><path d="m14.47 23 8.21 6.58 5.22-1.74L14.48 23Z" fill="#fff"/><path d="m41.52 23-8.2 6.57-5.23-1.73L41.52 23Z" fill="#EF1828"/><path d="m41.52 23-8.2 6.56-5.29-1.71 2.57-.2 2.64.85s3.24-2.92 5.6-4.65l2.68-.85Z" fill="#600"/><path d="M28.02 13.74 25 23l3.02 4.86V13.74Z" fill="#fff"/><path d="m24.85 23-.03.07 3.2 4.8V16.43L27 18.22v6.28L25.82 23h-.97Z" fill="#C4C6CF"/><path d="m28.01 13.74 3.2 9.26-3.19 4.86V13.74Z" fill="#EF1828"/><path d="M28.7 15.73 31.2 23l-3.19 4.86.65-2.34 1.77-2.63L28.75 18l-.05-2.28Z" fill="#600"/><path d="M39.18 23c-2.91.9-7.86 2.9-10.27 3.65l-.88 1.2L41.49 23h-2.31Z" fill="#C4C6CF"/><path d="m38.7 24-1.68 1.28-6.1 2.47-2.89.1L38.71 24Z" fill="#FBC0A8"/><path d="m33.3 29.57-.5.71 1.86 5.64-5.22-7.18-1.09-.43L36.3 39.3l-2.96-9.72h-.02Z" fill="#C4C6CF"/><path d="M28.02 33H29l5.95 4.44 1.32 1.85-8.25-5.87V33ZM20 38.27l2.91-4.98 2.96-3.96 1.82-1.25.32-.24L19.7 39.3l.3-1.02Z" fill="#600"/><path d="m27.4 28.68-4.02 1.55-1.63 5.12L20 38.27l2.7-8.7L28 27.84l-.6.84Z" fill="#FBC0A8"/><path d="m16.34 23.6 2.6 2.06 3.76 3 2.84-.89 2.45.1-5.31 1.71-8.2-6.58 1.86.6Z" fill="#C4C6CF"/><path d="m15.96 23.47 8.76.12L25 23H14.47l1.5.47Z" fill="#FBC0A8"/><path d="M23.22 14.5h-1.87s-8.88 2.3-8.88 13.1c0 10.81 8.98 16.07 15.46 16.07 6.47 0 15.74-5.12 15.74-16.07s-9.08-13.06-9.08-13.06-1.89.2-2.24 0c-.36-.18.37-2.32.5-2.58.11-.26.8-1.56 1.17-1.18.38.4.57 1.85 1.14 2.34.57.5 9.17 4.6 9.17 14.5 0 9.91-7.85 16.72-16.29 16.72a16.27 16.27 0 0 1-16.38-16.69c0-10.24 8.37-13.65 8.91-14.1.55-.45.97-1.04 1.23-1.92.26-.88.71-1 .9-.83.2.17 1.66 3.03.52 3.7Z" fill="#CFB464"/><path d="M32 15c-.76-.88.25-3.56.77-4.27.38-.52.93-.95 1.59-.55.92.57.48 1.96 1.61 2.65C52.05 22.73 44.95 45 28.1 45 18.33 45 11 37.32 11 27.6c0-9.5 6.88-13.36 8.82-14.45.42-.24.64-.43.92-.86.16-.26.3-.57.42-.92.17-.55.45-1.14 1.02-1.33.3-.14.8.08 1.05.33l-.44.57c-.19-.17-.66-.23-.92.67a3.77 3.77 0 0 1-1.23 1.92c-.52.47-8.9 3.86-8.9 14.1A16.27 16.27 0 0 0 28.1 44.3c8.44 0 16.22-6.78 16.22-16.69 0-9.9-8.6-13.98-9.16-14.48-.57-.5-.78-1.88-1.12-2.32-.66-.69-1.96 2.8-1.71 3.4-.17.16-.17.59-.34.78Z" fill="url(#ac5t3j2om)"/><path d="M21.5 14.98c-.9.26-8.34 2.9-8.34 12.58 0 8.2 6.45 15.39 14.84 15.39 16.7 0 20.26-24.23 6.6-27.95H32c.17-.19.2-.63.33-.8.48.15 2.3.09 2.3.09s9.09 2.34 9.09 13.29-9.24 16.1-15.72 16.1a15.75 15.75 0 0 1-15.55-16.12c0-10.81 8.95-13.3 8.95-13.3h1.8c.95-.57-.06-2.76-.42-3.33l.45-.56c.4.42.87 1.52 1 2.07.32 1.16.22 1.92-.85 2.56l-1.88-.02Z" fill="url(#bc5t3j2om)"/><defs><linearGradient id="ac5t3j2om" x1="28" y1="10" x2="28" y2="45" gradientUnits="userSpaceOnUse"><stop stop-color="#D8C87F"/><stop offset=".5" stop-color="#C8B545"/><stop offset="1" stop-color="#594D09"/></linearGradient><linearGradient id="bc5t3j2om" x1="20.04" y1="10.37" x2="39.04" y2="43.62" gradientUnits="userSpaceOnUse"><stop offset=".08" stop-color="#CFBA57"/><stop offset=".12" stop-color="#5B4E09"/><stop offset=".48" stop-color="#C9B440"/><stop offset="1" stop-color="#D9CA8A"/></linearGradient></defs></svg>