<!-- by TradingView --><svg width="56" height="56" viewBox="0 0 56 56" xmlns="http://www.w3.org/2000/svg"><path fill="#F0F3FA" d="M0 0h56v56H0z"/><circle cx="28" cy="28" r="17" fill="#F3FF07"/><circle cx="28" cy="28" r="16" fill="#F30407"/><path fill-rule="evenodd" d="M28 43a10.5 10.5 0 1 0 0-21 10.5 10.5 0 0 0 0 21Zm6.95-15.76a2.5 2.5 0 0 1-1.16 1.6c.26.25.58.86-.21 1.31-.1.58.01 1.86 1.37 1.86 1.29 0 1.37-1.26 1.2-1.94-.3-.2-.73-.71-.11-1.23-.29-.22-.9-.85-1.09-1.6ZM21.82 29c.43.23 1.68.58 3.26.1-.35 1.08-.95 3.8-.53 5.95-.16.4-.8 1.22-2.14 1.3-1.66.09-2.9-.97-3.65-2.64.5.19 1.77.35 2.83-.5l.59.82.41-.44c.07-.97 0-3.25-.77-4.59Zm3.55 3.22c.26.21 1 .52 1.95 0-.22.47-.58 1.55-.23 2.12h1.16c.13-.33.32-1.2 0-2.12h.06A3 3 0 0 0 30 32c.37 1.46.43 4.38-2.23 4.36-3.33-.03-2.95-3.5-2.41-4.13Zm7.88-2.84a3.67 3.67 0 0 1-2.8-.18c.94 2.7.18 5.92-.31 7.2h2.69c-.52-3.44.06-6.11.42-7.02Zm.24 2.85c.76.49 2.15.2 2.75 0a4.52 4.52 0 0 0-.43 4.24H33.5c.64-1.47.27-3.44 0-4.24Z" fill="#F3FF07"/></svg>