<!-- by TradingView --><svg width="56" height="56" viewBox="0 0 56 56" xmlns="http://www.w3.org/2000/svg"><path fill="#F0F3FA" d="M0 0h56v56H0z"/><path d="M28 11c7.17 0 13 9.12 13 20.34v.3c-.4.13-.84.22-1.3.22-1.13 0-2.6-1.06-2.6-2.6 0-5.44-3.94-14.96-9.1-14.96s-9.1 9-9.1 14.95c0 1.55-1.17 2.6-2.15 2.6-.64.02-1.24-.2-1.75-.44v-.15C15 20.12 20.83 11 28 11Z" fill="#151B2E"/><path d="M41 33.57v2.6c-2.6 1.31-3.9-1.3-6.5-1.3s-2.6 2.61-6.5 2.61-3.9-2.6-6.43-2.6c-2.52 0-3.97 2.6-6.57 1.3v-2.61c2.6 1.3 3.9-1.3 6.57-1.3 2.68 0 4.68 2.6 6.43 2.6s3.9-2.6 6.5-2.6 3.9 2.6 6.5 1.3Zm-1.3 6.52c-.37 1.05-.79 1.7-1.3 2.6-1.68-.82-1.3-1.3-3.9-1.3-2.6 0-2.6 2.61-6.5 2.61s-3.9-2.6-6.5-2.6-2.66.55-3.9 1.3c-.44-.9-.93-1.56-1.3-2.61 1.3 1.3 2.75-1.3 5.27-1.3 2.53 0 3.83 2.6 6.43 2.6 2.6 0 3.9-2.6 6.5-2.6s3.9 2.6 5.2 1.3Z" fill="#00B5C2"/></svg>