<!-- by TradingView --><svg width="56" height="56" viewBox="0 0 56 56" xmlns="http://www.w3.org/2000/svg"><path fill="#F0F3FA" d="M0 0h56v56H0z"/><path fill="#FFC000" d="M4 24h28v8H4z"/><path fill="#353334" d="M32 24h20v8H32zM5.96 30l.93-4h.87l-.72 3h1.34l-.24 1H5.96ZM9.45 26h.87l-.95 4H8.5l.95-4ZM10.63 30v-4h.81v2.87L12.73 26h.88l-1.99 4h-1ZM16.14 26H13.8l-.95 4h2.31l.2-.84h-1.44l.2-.82h1.35l.24-.85h-1.4l.16-.65h1.43l.24-.84Z"/><path d="M38.66 26h-2.33l-.95 4h2.31l.2-.84h-1.44l.2-.82H38l.24-.85h-1.4l.16-.65h1.43l.23-.84ZM34.4 26h1.58l-.24.84h-1.31l-.18.74h1.2l-.25.84h-1.15L33.68 30h-.88l.96-4h.65ZM41.4 26h-2.33l-.95 4h2.31l.2-.84h-1.44l.2-.82h1.35l.24-.85h-1.4l.16-.65h1.43l.23-.84Z" fill="#FFC000"/><path d="M17.74 26c.88 0 .94.76.86 1.15l-.8.06c.06-.17-.06-.48-.38-.47-.3 0-.58.49 0 .64.59.15.94.45.94.94 0 .5-.33 1.62-1.58 1.68-1 .05-1.08-.86-1-1.33l.8-.05c-.01.44.15.62.4.62.25-.01.4-.29.44-.38.04-.1.03-.39-.37-.5-.4-.1-.88-.37-.83-.91.05-.55.4-1.44 1.52-1.45Z" fill="#353334"/><path d="M45.91 26c.88 0 .94.76.86 1.15l-.8.06c.06-.17-.06-.48-.37-.47-.31 0-.59.49 0 .64.58.15.93.45.93.94 0 .5-.33 1.62-1.58 1.68-1 .05-1.07-.86-1-1.33l.81-.05c-.02.44.14.62.4.62.25-.01.4-.29.44-.38.04-.1.03-.39-.37-.5-.4-.1-.89-.37-.84-.91.05-.55.41-1.44 1.52-1.45Z" fill="#FFC000"/><path d="M21.7 26h-2.57l-.26 1h.88l-.71 3h.85l.68-3h.9l.23-1Z" fill="#353334"/><path fill-rule="evenodd" d="M21.97 29.94c.74.23 1.58-.21 2.12-1.54.44-1.07.32-2.09-.54-2.35-.73-.22-1.58.29-2.12 1.54-.43 1.08-.27 2.1.54 2.35Zm.42-.81c.32.08.7-.22.95-.99.2-.62.16-1.17-.2-1.27-.33-.08-.7.26-.96.99-.2.62-.14 1.18.21 1.27Z" fill="#353334"/><path d="M27.12 28.7c-.54 1.1-1.31 1.45-1.99 1.24-.81-.24-.97-1.27-.53-2.35.53-1.25 1.38-1.76 2.12-1.54.49.15.74.55.78 1.07l-.87.3c-.02-.29-.12-.5-.34-.55-.32-.08-.7.26-.94.99-.2.62-.15 1.18.2 1.27.3.07.64-.17.89-.8l.68.38Z" fill="#353334"/><path d="M50.85 29.14c-.15.66-.47.91-.8.84-.4-.08-.57-.66-.47-1.31.13-.76.48-1.1.84-1.03.24.05.39.27.46.56l-.38.23c-.03-.16-.1-.27-.2-.29-.16-.02-.3.2-.35.63-.03.37.05.69.22.71.14.03.27-.14.33-.51l.35.17Z" fill="#FFC000"/><path d="m27.13 30 .97-4h.82l-.38 1.5L29.8 26h1.14l-1.35 1.5.5 2.5H29l-.18-1.66-.62.7-.22.96h-.85Z" fill="#353334"/><path fill-rule="evenodd" d="M41.82 26h1.44c.3 0 .86.24.76 1.2-.12 1.2-.5 2.65-1.87 2.8h-1.3l.97-4Zm.65 1c.24-.02.7.03.64.47-.08.55-.23 1.45-.84 1.53h-.32l.52-2Z" fill="#FFC000"/><path d="m48.49 30 .38-2.37h.38l-.3 1.83h.53l-.1.54h-.9Z" fill="#FFC000"/><path fill-rule="evenodd" d="M47.78 27.63 47.39 30h.39l.14-.84c.22.01.62-.14.7-.78.11-.75-.28-.75-.37-.75h-.47Zm.28.5-.1.55c.11 0 .32-.04.34-.28.03-.25-.15-.28-.24-.27Z" fill="#FFC000"/></svg>