<!-- by TradingView --><svg width="56" height="56" viewBox="0 0 56 56" xmlns="http://www.w3.org/2000/svg"><path fill="#F0F3FA" d="M0 0h56v56H0z"/><path d="m25.12 12.4 2.9-1.4 2.87 1.4-2.86 2.78-2.9-2.77ZM25.11 43.6l2.91 1.4 2.87-1.4-2.87-2.78-2.9 2.77ZM14.96 19l1.09-2.98L19 15v4h-4.04ZM41.04 19l-1.09-2.98L37 15v4h4.04ZM12.48 30.96l-1.44-2.9 1.36-2.9L15.2 28l-2.72 2.96ZM43.52 30.96l1.44-2.9-1.36-2.9L40.8 28l2.72 2.96ZM19 41.19l-2.96-1.1-1-3.09H19v4.19ZM37 41.19l2.96-1.1 1-3.09H37v4.19Z" fill="#0A4879"/><path d="m20.67 18 1.62-4.03 3.88 1.58L23.75 18h-3.08ZM35.33 18l-1.62-4.03-3.87 1.58 2.4 2.45h3.09ZM15.82 25.97l-1.75-3.95L18 20.3v3.44l-2.18 2.22ZM40.18 26.27l1.75-3.95L38 20.6v3.44l2.18 2.22ZM18 35.38l-4.06-1.6 1.53-3.9 2.53 2.4v3.1ZM38 35.65l3.97-1.6-1.53-3.9-2.44 2.4v3.1ZM26.2 40.38l-3.92 1.56-1.5-3.94h3.01l2.4 2.38ZM29.8 40.38l3.92 1.56 1.5-3.94h-3.01l-2.4 2.38Z" fill="#C51E25"/><path d="m25.85 18.46 2.29-2.38 2.3 2.26-2.4 1.05-2.19-.93ZM25.84 37.54l2.29 2.38 2.3-2.26-2.4-1.05-2.19.93ZM19.5 22.83v-3.3l3.22-.06-.95 2.45-2.28.9ZM36.5 22.82v-3.3l-3.22-.05.95 2.45 2.28.9ZM18.47 30.25l-2.36-2.3 2.26-2.32 1.03 2.41-.93 2.2ZM37.53 30.44l2.36-2.3-2.26-2.32-1.03 2.41.93 2.21ZM22.77 36.58l-3.3-.02v-3.31l2.45 1.1.85 2.23ZM33.23 36.58l3.3-.02v-3.23l-2.45 1.01-.85 2.24Z" fill="#F18022"/></svg>