<!-- by TradingView --><svg width="56" height="56" viewBox="0 0 56 56" xmlns="http://www.w3.org/2000/svg"><path fill="#F0F3FA" d="M0 0h56v56H0z"/><path fill="#005821" d="M6 27h44v1H6z"/><path d="m34.45 14 .63 2.82-2.99.78-2.73-1.49-3.82.93-1.57 3.38h.61a3.48 3.48 0 0 1 3.21-1.9c1.79.1 2.52 1.04 2.65 1.48h5.3l1.87 8.09h-5.16l-1.27-1.26-.9 1.26H26.5l-1.36-1.26-.56 1.26H19.2l.66-2.7 4.33-1.2 3.2 1.96 4.06-1.4 1.19-3.3h-.54a5.97 5.97 0 0 1-3.51 1.9c-1.66.2-2.63-1.19-2.91-1.9h-5.01L22.3 14h4.2l2.08 1.46L29.82 14h4.63Zm-6.4 8.98a1.55 1.55 0 1 0 0-3.1 1.55 1.55 0 1 0 0 3.1Z" fill="#25A351"/><path fill="url(#ayngdatyw)" d="M6 28h44v10H6z"/><path d="M35.08 35.18 34.45 37h-4.63l-1.24-.94-2.08.94h-4.2l-1.64-4.82h5c.29-.46 1.26-1.35 2.92-1.24 1.66.12 3.03.88 3.51 1.24h.54l-1.2-2.13-4.04-.91-3.21 1.27-4.33-.79-.66-1.74h5.4l.55.82 1.36-.82h3.77l.91.82 1.27-.82h5.16l-1.75 4.97h-5.41c-.14.38-.87 1.15-2.66 1.22-1.78.06-2.88-.79-3.2-1.22h-.62l1.57 2.18 3.82.6 2.73-.96 2.99.5Z" fill="url(#byngdatyw)"/><path d="m34.49 17.64.6-.86-3 .81-.31.74 2.7-.69Z" fill="#072105"/><path d="m31.8 18.35.3-.76-2.75-1.5-.08.83 2.52 1.43Z" fill="#228438"/><path d="m25.8 17.81-.26-.78 3.81-.92-.07.82-3.48.88Z" fill="#2E673F"/><path d="m25.83 17.82-.28-.8-1.59 3.4h.6l1.27-2.6Z" fill="#014513"/><path d="m21.36 22-.71-.57 5.03.02c.02.11.22.43.29.55h-4.61Z" fill="#001400"/><path d="M28.48 23.56a2.34 2.34 0 0 1-2.13-1.08c.8.83 1.75.92 2.13.87 1.46-.15 2.68-1.01 3.14-1.44-.23.3-1.6 1.61-3.14 1.65Z" fill="#0E431D"/><path d="M32.65 21.44h-.56l-.57.56h.92l.2-.56Z" fill="#0E431D"/><path d="m31.18 24.6.99-2.6h.29l-1.03 2.74-4 1.43v-.25l3.75-1.32Z" fill="#52E77C"/><path d="M24.55 24.17h-.4l3.3 2.02v-.3l-2.9-1.72Z" fill="#045910"/><path d="M26.25 20.9c0 .57.21.95.32 1.08-.16-.67.11-2.06 1.43-2.06 1.14 0 1.54.9 1.59 1.36.12-.98-.47-1.9-1.6-1.88-1.11 0-1.72.8-1.73 1.5Z" fill="#031C05"/><path d="M24.51 32h4v1.53h-.32c-.04-.37-.36-1.11-1.19-1.09v3.5c0 .2.16.62.72.7V37h-2.44v-.36c.24-.04.75-.24.72-.7v-3.5c-.36 0-1.12.2-1.17 1.1h-.32V32Zm-11.9 5v-.35c.2-.04.59-.21.6-.66v-3.06a.57.57 0 0 0-.6-.57V32h1.92l1.12 3.34L16.66 32h2.02v.36c-.23 0-.7.13-.68.63v3.12c0 .18.15.54.68.54V37H16.3v-.35c.24-.02.73-.15.71-.54v-3.58L15.56 37h-.52l-1.45-4.47v3.46c.02.22.16.66.6.66V37h-1.57Zm6.7-5h2.31v.4a.59.59 0 0 0-.62.55v2.28c0 .4.27 1.22 1.06 1.2 1-.01 1.1-.9 1.11-1.2v-2.2c0-.21-.12-.63-.58-.63V32h1.56v.4c-.18 0-.52.13-.52.63v2.2c.02.57-.28 1.72-1.64 1.77-1.7.05-1.99-1.02-1.99-1.68v-2.44c0-.16-.17-.48-.68-.48V32Zm12.31 0h-2.3v.4c.5 0 .68.32.68.48v2.44c0 .66.28 1.73 1.99 1.68 1.36-.05 1.66-1.2 1.64-1.77v-2.2c0-.5.34-.63.51-.63V32h-1.56v.4c.47 0 .59.42.59.63v2.2c-.01.3-.12 1.19-1.11 1.2-.8.02-1.06-.8-1.06-1.2v-2.28a.59.59 0 0 1 .62-.55V32Zm2.49 5v-.37c.13 0 .44-.16.61-.68L36.1 32h.63l1.43 3.95c.08.19.31.6.63.68V37h-2.14v-.37h.22c.17 0 .48-.1.3-.56l-.22-.6h-1.58l-.2.6c-.06.19-.07.56.48.56V37H34.1Zm1.4-2h1.26l-.68-1.83-.58 1.83Zm3.75-3h2.47v.4c-.24 0-.74.13-.73.67v2.9c0 .22.14.65.58.66.56.02 1.22-.45 1.42-1.35h.44L43.21 37h-3.95v-.37c.24.02.74-.1.74-.65V32.9c0-.16-.16-.5-.74-.5V32Z" fill="#005921"/><defs><linearGradient id="ayngdatyw" x1="28" y1="30.5" x2="28" y2="38" gradientUnits="userSpaceOnUse"><stop stop-color="#B3EECD"/><stop offset=".93" stop-color="#F0F3FA"/></linearGradient><linearGradient id="byngdatyw" x1="28.4" y1="37" x2="28.4" y2="27.88" gradientUnits="userSpaceOnUse"><stop offset=".27" stop-color="#EAF7F0"/><stop offset="1" stop-color="#499662"/></linearGradient></defs></svg>