<!-- by TradingView --><svg width="56" height="56" viewBox="0 0 56 56" xmlns="http://www.w3.org/2000/svg"><path fill="#F0F3FA" d="M0 0h56v56H0z"/><path d="M8 36V21.93C8 20.87 8.78 20 9.74 20c.5 0 .94.23 1.26.61.32-.38.77-.61 1.26-.61.96 0 1.74.87 1.74 1.93V36h-1V21.67c0-.36-.37-.67-.7-.67-.32 0-.8.3-.8.67V36h-1V21.68c0-.36-.4-.68-.72-.68-.33 0-.78.32-.78.68V36H8Zm27-1.93V20h-1v14.16c0 .36-.67.84-1.05.84-.37 0-.95-.48-.95-.84V20h-1v14.07c0 1.06.9 1.93 2 1.93s2-.87 2-1.93ZM17 36V20h3v1h-2v6h2v1h-2v7h2v1h-3Zm28 0h3v-1h-2v-7h2v-1h-2v-6h2v-1h-3v16ZM25 22a2 2 0 0 1 4 0v3h-1v-3.22c0-.43-.45-.78-1-.78s-1 .35-1 .78v12.44c0 .43.45.78 1 .78s1-.35 1-.78V30h1v4a2 2 0 0 1-4 0V22Zm13 14h1V21.4c0-.22.19-.4.4-.4h.94c.34 0 .66.27.66.58V36h1v-7.15c0-.6-.34-1.1-.8-1.22.6-.1.8-.6.8-1.23v-5.25c0-.64-.54-1.15-1.21-1.15H38v16Z" fill="#231F20"/></svg>