<!-- by TradingView --><svg width="56" height="56" viewBox="0 0 56 56" xmlns="http://www.w3.org/2000/svg"><path fill="#F0F3FA" d="M0 0h56v56H0z"/><ellipse cx="28" cy="28" rx="22" ry="13" fill="#F48633"/><path fill-rule="evenodd" d="m39.7 22.74 1.15 1.83c.17.3.45 1.16.17 2.3l-.46 2.75c-.1.37-.41 1.16-.86 1.38h2a2.4 2.4 0 0 1-.43-1.72l.13-.73c.13-.8.31-1.81.41-2.17l3.62 5.8c-.22-1.08-.52-3.38-.1-4.72.41-1.34.74-2.86.85-3.46H44.6c.21.25.58.92.38 1.65-.2.74-.59 2.05-.78 2.55l-3.34-5.46H39.7ZM9.82 28.5c-.25 1.41-.87 2.3-1.15 2.5h1.7c0-.84 0-1.68.3-3.29.26-1.28.5-.68.6-.22l.63 3.37 1.7-3.15v2.52c.11 1.3 1.19.68 1.71.21h-.74c-.28 0-.26-.48-.24-1.2l.02-.74c0-.89.5-3.2.74-4.23-.41.1-.9.64-1.1.9l-1.81 2.96c-.13-.42-.5-1.63-.91-3.16-.42-1.52-1.9-1.57-2.6-1.41 1.65.55 1.81 1.7 1.7 2.21l-.55 2.73Zm7.7 2.33c1.3.56 2.92-.34 3.6-2 .7-1.67.2-3.48-1.1-4.04-1.31-.55-2.93.35-3.62 2.01-.69 1.67-.2 3.48 1.11 4.03Zm.7-.35c.94.17 1.9-.86 2.17-2.32.27-1.45-.27-2.77-1.2-2.95-.93-.17-1.9.86-2.16 2.32-.27 1.45.27 2.77 1.2 2.95Zm21.27-1.66c-.69 1.69-2.3 2.6-3.61 2.03-1.3-.56-1.8-2.38-1.12-4.07.7-1.68 2.31-2.6 3.62-2.03 1.3.56 1.8 2.39 1.11 4.07Zm-.73-.67c-.27 1.47-1.24 2.52-2.17 2.34-.93-.17-1.47-1.5-1.2-2.98.27-1.47 1.23-2.52 2.16-2.34.93.18 1.47 1.51 1.2 2.98ZM29.8 24.6l-1.9.17.85.74c-.11.72-.41 2.45-.7 3.6-.28 1.15-.93 1.67-1.23 1.8.86.16 2.2.06 2.77 0-.59-.46-.7-.98-.68-1.18l.89-5.13Zm3.82 1.43v-1.45c-.93-.34-2.82-.5-2.9 1.58-.01.27.09.97.59 1.59l.39.46c.42.47.7.8.73 1.46.04.85-1.64 1.34-2.07-.7l-.35 1.8c1.17.38 3.48.54 3.38-1.8 0-.3-.23-1.11-1.17-1.92-1.18-1.02-.72-2.09.09-2.05.64.03 1.14.7 1.31 1.03Zm-11.06 3.42c-.2.99-.72 1.44-.95 1.55h1.65c.57 0 .64-.1.6-.16-.55-.21-.63-.6-.6-.77l.6-4.96c1.23-.02 1.7.64 1.77 1.07.05.35-.9 1.38-1.38 1.85.8 3.98 8.34 8.9 13.93 8.51 4.56-.31 6.18-3.08 6.47-4.44-3 3.42-6.6 3.42-6.77 3.42-7.47.18-12.25-4.83-12.9-7.49 1.26-.83 1.46-1.64 1.4-1.94-.16-1.8-2.55-1.64-3.72-1.34.29.66.15 3.47-.1 4.7Z"/></svg>