<!-- by TradingView --><svg width="56" height="56" viewBox="0 0 56 56" xmlns="http://www.w3.org/2000/svg"><path fill="#F0F3FA" d="M0 0h56v56H0z"/><path fill-rule="evenodd" d="M19.67 12H15v4h1v10.24l-1 1.06v3.54c-.93.33-2.98 1.52-3.91 2.07l1.52 3.06L8 38.37l3.4.72L9.49 42l9.79-2.5-.76-1.6.88-.42c5.42-1.08 14.97.01 19.07.7l-.7 1.45 9.96 2.07-2.14-2.87L49 38l-3.97-1.67-.41-2.04.54-1.24-2.84-2-4.98-6.96c-2.95-.67-5.37-3.28-6.34-4.77V16h1v-4h-7v4h1v3.56c-.62-.55-4.37-5.05-6.33-7.56Zm-1.14 27.3h-4.21l3.57-1.14.64 1.13Zm20.5-.98-.46.9h3.7l-3.24-.9Z" fill="#36519B"/><path d="M16.16 13.16h3.17l4.3 5.45c.98 1.24 3.4 3.9 4.52 3.9 1.48 0 2.24-1 2.59-1.74 1.07 1.45 3.62 3.9 6.03 4.28l3.36 4.82H16.19v-2.22l.96-1.1V14.83h-1v-1.68Zm3.7 5.13v8.57h7l-7-8.57Z" fill="#C7C4E2"/><path d="M16 13h3.4l4.34 5.52c.5.61 1.34 1.58 2.2 2.4.43.4.86.77 1.25 1.03.4.27.73.41.96.41 1.4 0 2.11-.94 2.45-1.66l.11-.22.15.2c.53.71 1.43 1.68 2.49 2.51a7.95 7.95 0 0 0 3.44 1.71l.07.01L40.42 30H16v-2.41l1-1.1V15h-1v-2Zm.3.3v1.39h1v11.9l-.96 1.11v2.02h23.5l-3.16-4.53a8.33 8.33 0 0 1-3.52-1.76c-.99-.78-1.84-1.67-2.4-2.38a2.9 2.9 0 0 1-2.6 1.61c-.34 0-.73-.19-1.13-.46-.41-.27-.86-.65-1.3-1.07-.87-.82-1.73-1.8-2.22-2.42l-4.25-5.4h-2.95Zm3.4 4.57L27.18 27H19.7v-9.13Zm.3.84v8h6.54l-6.54-8Z" fill="#F0F3FA"/><path d="M20.84 25.84v-4.62l3.83 4.62h-3.83Z" fill="#C7C4E2"/><path d="m20.69 20.8 4.3 5.2h-4.3v-5.2Zm.31.83v4.06h3.35L21 21.63Z" fill="#F0F3FA"/><path d="M30.84 13.16h-4.69v1.69h1v5.4c.12.34.41 1 1.32.96.9-.04 1.22-.65 1.39-.95v-5.41h.98v-1.69Z" fill="#C7C4E2"/><path d="M26 13h5v2h-1v5.33c-.17.3-.54.99-1.53 1.03-.5.03-.83-.15-1.06-.38a1.9 1.9 0 0 1-.4-.67L27 15h-1v-2Zm.3.31v1.39h1v5.53c.06.16.15.37.32.54.17.17.43.31.84.3.78-.04 1.08-.55 1.25-.85V14.7h.98V13.3H26.3Z" fill="#F0F3FA"/><path d="M27.84 31.13c-9.53.05-15.78 2.43-17.7 3.61l2.62 5.12a56.55 56.55 0 0 1 15.08-2.37c8.3.14 14.19 1.64 16.1 2.37l2.2-5.27c-2.13-1.17-8.77-3.5-18.3-3.46Z" fill="#F15C25"/><path d="m13.55 33.93-1.81.61.14.38c.52-.1.8.3.86.53l.92 2.96c-.22.12-.34.32-.27.47.1.19.54.06.8-.07.23-.1.65-.34.58-.53-.06-.18-.35-.13-.5-.08l-.88-2.68 3.35 2.43.96-.36-1.14-3.66c-.14-.34.14-.58.3-.65l-.12-.33-1.5.53.1.3c.42-.11.58.15.6.3l.62 1.99-3.01-2.14ZM41.45 33.52l-1.83-.54-.09.4c.5.2.5.7.43.93l-.83 2.99c-.25-.03-.47.07-.48.23-.02.22.41.36.7.41.24.05.72.1.76-.1.05-.2-.22-.32-.36-.36l.71-2.73 1.46 3.95 1 .26 1.03-3.7c.06-.36.43-.39.6-.36l.07-.35-1.53-.43-.07.32c.4.14.4.45.34.59l-.57 2-1.34-3.51ZM18.48 37.4v-.33c.18-.02.55-.16.6-.55l.52-3.03c.04-.16.03-.48-.3-.48h-.26l.04-.47 1.72-.18 2.1 3.9c.16.04.5.15.53.34.03.23-.62.35-1 .38l-.08.01c-.26.04-1.04.17-1.16-.06-.12-.22.2-.37.36-.41l-.36-.7h-1.43l-.16.78c0 .12.04.38.35.38v.3l-1.46.13Zm1.59-3.43-.16 1.29h.95l-.8-1.3ZM25.48 31.68c.76.01 1.32.4 1.51.58l-.24.7c-.7-.66-1.5-.82-1.5-.26 0 .57.86.87.86.9 1.06.6 1.27 1.43 1.24 1.76-.1 1.71-2.4 1.44-2.92 1.37-.42-.05-.53-.45-.53-.64v-.63c.12-.03.37-.1.42-.1.1.61.43.84.84.86.41.02.7-.3.74-.64.02-.34-.32-.63-.8-.88-.47-.26-1.3-.78-1.34-1.54-.04-.76.77-1.5 1.72-1.48ZM28.09 34.13c.1-2 1.84-2.48 2.69-2.47.9 0 1.61.47 1.56 1.05-.04.47-.33.35-.47.24-.09-.19-.4-.56-.97-.59-.7-.03-1.37.45-1.37 1.87 0 1.43.8 1.84 1.53 1.84.58 0 .83-.26.88-.4.02-.1.12-.28.3-.24.18.05.17.23.15.32-.28.97-1.07.98-1.49 1.02-.42.05-2.95-.15-2.81-2.64ZM38.28 34.85c0 .75-.29 2.37-2.3 2.44-2.77.09-3.12-2.19-3.05-2.73v-.05c.06-.48.27-2.2 2.53-2.28a2.67 2.67 0 0 1 2.82 2.62Zm-2.96 1.95c.72.12 1.43-.7 1.6-1.83.17-1.13-.28-2.14-1-2.25-.72-.11-1.44.7-1.6 1.83-.17 1.13.28 2.14 1 2.25Z" fill="#F0F3FA"/></svg>