<!-- by TradingView --><svg width="56" height="56" viewBox="0 0 56 56" xmlns="http://www.w3.org/2000/svg"><path fill="#F0F3FA" d="M0 0h56v56H0z"/><path d="M35.2 32.78c-.62 5.2-1.6 10.8-2.4 12.93 0 0-2.16 1.35-5.1 1.29-3.42.05-5.36-1.43-5.36-1.43.14.06.3.11.46.14.72.42 2.4 1.19 4.86 1.15 2.88.06 5-1.27 5-1.27.75-2.02 1.69-7.25 2.3-12.21l.24-.6Z" fill="#CDA453"/><path d="M34.95 33.38c-.6 4.96-1.54 10.2-2.29 12.21 0 0-2.12 1.33-5 1.27a9.55 9.55 0 0 1-4.86-1.15c1.55.35 6.82.4 12.15-12.33Z" fill="url(#agpgksms4)"/><path d="M19 23.72h.38c-.02-2.08.86-7.95 1.15-12.23a169.9 169.9 0 0 1 1.96-.21 58.9 58.9 0 0 1 3.68-.3c.54-.3 1.15-.82 1.66-1.21h-1.2c-.95 0-2.67.14-4.13.29a162.2 162.2 0 0 0-2.49.26l-.16.02h-.06l-.4.06-.04.41a133 133 0 0 0-.35 8.53v4.38Z" fill="#CCA256"/><path d="M27.23 9.98c-1.1.93-5.24 4.86-7.86 13.74a172 172 0 0 1 .33-13.12s5.06-.55 7.53-.62Z" fill="url(#bgpgksms4)"/><path d="M23.2 17.14s3.57-5.22 6.94-5.22c3.38 0 4.35 4.07 4.35 7.99.17 4.06-1.57 10.35-3.84 15.35 0 0 5.65-8.23 5.65-18 0-3.93-1.38-8.26-4.4-8.26-4.34 0-8.7 8.14-8.7 8.14Z" fill="url(#cgpgksms4)"/><path d="M19.15 31.83c0 2.88.82 9.4 4.85 9.4 7.68 0 12.3-16.7 12.98-22.26.43 6.5-5.45 25.8-13.55 25.8-5.66 0-4.28-12.94-4.28-12.94Z" fill="url(#dgpgksms4)"/><path d="M31.71 25.37s.85-.68.94-1.37c.2-1.69-2.14-4.01-5.65-4.01v11.56s5.56-.2 6-4.4c.12-1.2-1.29-1.78-1.29-1.78ZM29 22.32c1.22 0 1.95.8 1.95 1.4.04.41-.22.79-.64.94H29v-2.34Zm2.13 5.9c-.67.9-2.13 1.03-2.13 1.03v-2.77c2.04-.19 2.18.17 2.29.42.13.28.12.92-.16 1.33Z" fill="url(#egpgksms4)"/><path d="M26 19.99v11.56a9.2 9.2 0 0 1-1.82-.19l-2.6-6.84v5.8A7.64 7.64 0 0 1 20 29.1V22.4a7.03 7.03 0 0 1 1.88-1.43l2.12 5.3v-6.13c.57-.11 1.42-.16 2-.16Z" fill="url(#fgpgksms4)"/><defs><linearGradient id="agpgksms4" x1="22.8" y1="40.12" x2="34.95" y2="40.12" gradientUnits="userSpaceOnUse"><stop stop-color="#0850C6"/><stop offset=".38" stop-color="#047EDE"/><stop offset="1" stop-color="#03BBE3"/></linearGradient><linearGradient id="bgpgksms4" x1="26.16" y1="9.68" x2="18.75" y2="19.12" gradientUnits="userSpaceOnUse"><stop stop-color="#02C4F9"/><stop offset=".69" stop-color="#0091EA"/><stop offset="1" stop-color="#0084EB"/></linearGradient><linearGradient id="cgpgksms4" x1="41.38" y1="12.42" x2="23.93" y2="29.79" gradientUnits="userSpaceOnUse"><stop stop-color="#02457F"/><stop offset=".28" stop-color="#035490"/><stop offset=".59" stop-color="#00ACF7"/><stop offset="1" stop-color="#004982"/></linearGradient><linearGradient id="dgpgksms4" x1="19" y1="31.87" x2="37" y2="31.87" gradientUnits="userSpaceOnUse"><stop offset=".1" stop-color="#D2AE66"/><stop offset=".17" stop-color="#CDA453"/><stop offset=".36" stop-color="#F2E8D3"/><stop offset=".39" stop-color="#F8F2E6"/><stop offset=".65" stop-color="#E1C897"/><stop offset=".8" stop-color="#D6B472"/><stop offset=".92" stop-color="#CFA85B"/><stop offset="1" stop-color="#CDA453"/></linearGradient><linearGradient id="egpgksms4" x1="26.21" y1="25.16" x2="30.83" y2="25.24" gradientUnits="userSpaceOnUse"><stop stop-color="#00ACEF"/><stop offset="1" stop-color="#005BA2"/></linearGradient><linearGradient id="fgpgksms4" x1="21.18" y1="23.51" x2="25.82" y2="30.5" gradientUnits="userSpaceOnUse"><stop stop-color="#035895"/><stop offset=".62" stop-color="#01AAE9"/><stop offset="1" stop-color="#0367A3"/></linearGradient></defs></svg>