<!-- by TradingView --><svg width="56" height="56" viewBox="0 0 56 56" xmlns="http://www.w3.org/2000/svg"><path fill="#F0F3FA" d="M0 0h56v56H0z"/><path fill-rule="evenodd" d="M28 39c12.15 0 22-4.92 22-11s-9.85-11-22-11c-3.73 0-7.24.46-10.32 1.28L13.58 33h-2.03l-.2-3.38L10.35 33H8.4l2.35-8h1.9l.29 3.43 2.56-9.48C9.76 20.93 6 24.25 6 28c0 6.08 9.85 11 22 11Zm-7.58-9.46.43-1.52c.23-.68.16-2.03-1.9-2.02-2.06.01-2.78.94-3.03 1.7l-.87 2.83c-.28.85-.3 2.54 1.86 2.47 2.58-.09 3.1-1.99 3.33-2.9l.02-.04.01-.06h-2.1l-.3 1.29c-.06.18-.25.56-.57.53-.31-.02-.26-.48-.2-.71l.5-1.57h2.82Zm-2.54-1.06.3-1.01c.02-.1.13-.3.34-.28.26.03.25.27.23.36l-.23.93h-.64Zm20.54-.46L38 29.54h-2.82l-.5 1.57c-.06.23-.11.69.2.71.32.03.51-.35.57-.53l.3-1.29h2.1l-.03.1c-.24.91-.75 2.81-3.33 2.9-2.15.07-2.14-1.62-1.86-2.47l.87-2.83c.25-.76.97-1.69 3.03-1.7 2.06-.01 2.13 1.34 1.9 2.02Zm-2.67-.55-.3 1.01h.64l.23-.93c.02-.09.03-.33-.23-.36-.21-.02-.32.18-.34.28ZM22.12 26h2.27l-1.88 7h-2.27l1.88-7Zm1.28 7 1.86-7h2.13l-.13.68c.54-.5 1.87-1.21 2.86 0 .28-.27 1.04-.78 1.8-.66.95.15.95.9.8 1.65-.11.6-.97 3.8-1.39 5.33h-2.18l1.43-5.1c.05-.22.09-.66-.2-.69-.29-.02-.48.45-.54.69L28.43 33h-2.2l1.4-5.1c.08-.23.14-.69-.13-.69s-.45.25-.54.55L25.57 33H23.4Zm16.4-6.43.36-1.1h2.2l-.3 1.1h.66l-.36 1.01h-.62l-1.06 3.78c-.19.48.08.61.24.62h.3l-.3 1h-1.77c-1.02-.12-.9-1.13-.7-1.62l1.1-3.78h-.51l.28-1.01h.49ZM43.67 25l-2.3 8h2.17l1.44-4.96c.04-.18.2-.56.5-.55.3.02.24.45.17.67L44.27 33h2.19l1.47-5.06c.2-.52.26-1.58-1.04-1.58-.3.03-1 .13-1.5.37l.5-1.73h-2.23Z" fill="#080087"/><circle cx="23.78" cy="22.15" r="3.22" fill="#E14154"/><circle cx="23.78" cy="22.15" r="1.83" fill="#FB8482"/><circle cx="23.78" cy="22.15" r=".76" fill="#FFD1CF"/></svg>