<!-- by TradingView --><svg width="56" height="56" viewBox="0 0 56 56" xmlns="http://www.w3.org/2000/svg"><path fill="#F0F3FA" d="M0 0h56v56H0z"/><path d="M7 25.67 12.02 33H15V23h-2v7.47L8.13 23H5v10h2v-7.33ZM19 25.67 24 33h3V23h-2v7.47L20.1 23H17v10h2v-7.33ZM37 27h-7v-.46c0-.76.28-1.03.89-1.29.39-.14 1.61-.25 2.57-.25H37v-2h-3.83a10 10 0 0 0-2.09.14c-1.27.26-2.16.87-2.65 1.77a6.9 6.9 0 0 0-.43 2.86V33h2v-4h7v-2ZM42.33 23H39v10h2v-7.5l3 7.5h2l3-7.5V33h2V23h-3.3L45 30.8 42.33 23Z" fill="#007D36"/></svg>