<!-- by TradingView --><svg width="56" height="56" viewBox="0 0 56 56" fill="none" xmlns="http://www.w3.org/2000/svg">
<rect width="56" height="56" fill="#F0F3FA"/>
<path fill-rule="evenodd" clip-rule="evenodd" d="M5.00336 23V33H7V26.4562C7.16753 26.9541 7.97229 27.9576 8.22619 28.254L12 33H14.0034V23H12V29.682C11.8147 29.1386 11.3273 28.5027 11.0051 28.0823L11.0051 28.0823L11.0051 28.0823L11.0051 28.0823L11.0051 28.0823L11.005 28.0822C10.9119 27.9607 10.8326 27.8572 10.7784 27.7792L7 23H5.00336ZM19.5036 33C21.4366 33 23.0036 31.433 23.0036 29.5C23.0036 27.567 21.4366 26 19.5036 26C17.5706 26 16.0036 27.567 16.0036 29.5C16.0036 31.433 17.5706 33 19.5036 33ZM19.498 31C20.3253 31 20.996 30.3284 20.996 29.5C20.996 28.6716 20.3253 28 19.498 28C18.6707 28 18 28.6716 18 29.5C18 30.3284 18.6707 31 19.498 31ZM36 29.5C36 31.433 34.433 33 32.5 33C30.567 33 29 31.433 29 29.5C29 27.567 30.567 26 32.5 26C34.433 26 36 27.567 36 29.5ZM33.9924 29.5C33.9924 30.3284 33.3217 31 32.4944 31C31.6671 31 30.9964 30.3284 30.9964 29.5C30.9964 28.6716 31.6671 28 32.4944 28C33.3217 28 33.9924 28.6716 33.9924 29.5ZM50.9997 29.5L50.9999 29.615V29.6159V29.616V29.6162V29.6164C51.0001 29.7431 51.0003 29.8715 50.9983 30H46.0823C46.0869 30.5421 46.4559 31.5543 47.5903 31.5543C48.026 31.5543 48.65 31.4225 49.0153 30.7831L50.6923 31.497C50.6793 31.5187 50.6658 31.5402 50.6518 31.5613C50.0244 32.5022 48.7156 33 47.4999 33C45.5669 33 44 31.433 44 29.5C44 27.567 45.5669 26 47.4999 26C49.4328 26 50.9997 27.567 50.9997 29.5ZM47.5553 27.4999C46.5924 27.4887 46.1839 28.2687 46.1378 28.6799H48.8561C48.8238 28.278 48.5182 27.5111 47.5553 27.4999ZM27 24H25V26H24V28H25V33H27V28H28V26H27V24ZM38 26H40V27.1282C40.7131 26.3798 41.9189 25.789 43.9752 26.0722C43.7358 26.3243 43.1252 27.0648 42.5985 28.01C41.9769 29.1256 41.0352 29.5249 40 28.837V33H38V26ZM40 28.7245V28.4444C41.2931 28.3088 42.2483 27.2357 42.5985 26.6394C41.9333 28.3959 40.688 28.7607 40 28.7245Z" fill="#144D2A"/>
</svg>
