<!-- by TradingView --><svg width="56" height="56" viewBox="0 0 56 56" xmlns="http://www.w3.org/2000/svg"><path fill="#F0F3FA" d="M0 0h56v56H0z"/><circle cx="28" cy="28" r="13" fill="url(#adsp5dad5)"/><ellipse cx="28" cy="36.96" rx="4" ry="3.96" fill="url(#bdsp5dad5)" fill-opacity=".15"/><circle cx="28" cy="37" r="2" fill="#1DFFFE" fill-opacity=".5"/><ellipse cx="28.03" cy="37" rx="3.03" ry="3" fill="#1DFFFE" fill-opacity=".3"/><path d="M39.56 26.5c0 6.35-5.2 11.5-11.62 11.5a11.56 11.56 0 0 1-11.62-11.5c0-4.44 2.27-8.28 5.98-10.2 1.61-.82 3.7-1.3 5.64-1.3 1.65 0 3.15.3 4.32.7 4.58 1.54 7.3 5.74 7.3 10.8Z" fill="url(#cdsp5dad5)" fill-opacity=".93"/><path d="M27.72 18.12v.15l.87-.4c.04-.07-.5-.6-.57-.71a1.26 1.26 0 0 0-.11-.16c-.02-.02-.18-.02-.23 0l.04 1.12ZM37.13 31.5c.1-.18.2-.52.36-.64l.22.23c.06.14-.2.46-.3.53-.62.36-.32 1.52-.82 1.94l-.64.33c-.19.08-.15-.37-.11-.46.12-.34.46-.68.46-1.09 0-.22.12-.38.22-.56l.6-.28ZM23.9 16.76a2.5 2.5 0 0 1-.09-1.06 13.39 13.39 0 0 1 6.06-.57l-.79.32c-.44-.03-1.3-.26-1.7-.1-.08.03-.15.3-.18.38l-.97.48c-.63-.04-1.27-.06-1.9-.08-.1.21-.07.38-.05.6 0 .01-.36.04-.39.03ZM25.64 40c1.78 0 3.78.78 5.35.38a5.92 5.92 0 0 1-2.99.62c-2.08 0-4.15-1-2.36-1ZM20 37.73l.38.65a2.95 2.95 0 0 1-.4-.4c-.28-.32-.65-.58-.87-.94a10.5 10.5 0 0 0-1.08-1.48c-.32-.86-.4-1.78-1.13-2.37-.4-1.06-1.07-1.86-1.67-2.81a12.9 12.9 0 0 1-.03-4.7c.11-.14.15-.17.32-.24.27-.1.41-.43.67-.53l.66.39c.13.1.19.56.24.73.3.42.6.32 1 .61l-.03.34.36.93.82.08.86.8c.23.18.66.41.71.7l-.6.68-.13 1.11c-.13 1.2-.74 1.86-1.05 2.98.22.54-.1.88.16 1.47L19 36c-.05.07.03.3.08.45.16.44.68.87.92 1.28ZM18.24 20.76l-.36.08-.77.26-.05-.13a12.98 12.98 0 0 1 5.35-4.69l-.05.5-.53.27c-.05.43-.02 1-.32 1.32l-.24-.28c-.1-.12-.4.02-.54.07-.17.07-.2.34-.26.5l-.55.26c-.39.2-.77.36-1.04.71-.1.13-.24.19-.39.25-.11.29-.12.6-.25.88Z"/><path d="M40.24 23.28c.44 1.08.62 2.67.72 3.72h-.18a19.68 19.68 0 0 0-.87-3.02h-.3c-.24-.34-.48-.67-.74-.99h-.01c-.5-.21-1.02-.4-1.53-.58-.19-.24-.38-.57-.64-.73-.09-.04-.18.28-.17.34.04.2.56.98.8 1.04.16.04.13-.34.52-.11.4.24.59.35.6.39.14.48-.1 1.03-.33 1.52-.08.19-.41.85-.68.83-.3-.02-.7-.46-.92-.64-.26-.3-.39-.52-.6-1.03-.2-.27-.45-.52-.51-.85-.08-.39-.09-.74-.56-.66l-.26-.71c.15-.07.03-.8-.07-.87-.23-.17-.64-.14-1.06-.1-.5.05-1 .1-1.2-.21-.08-.12-.13-.25-.19-.38.32-.18.65-.32.98-.47.42.06 1.1.26 1.47.1.33-.13-.32-.36-.38-.39-.07-.26-.07-.27-.34-.33-.52-.14-.8-.27-1.28-.07l.23.25c-.02.19-.2.33-.32.48-.4 0-.62-.02-.8-.4-.39-.05-.8-.5-1.12-.46-.05 0-.12.09-.15.13-.05.06.95 1.06 1.36.74a2 2 0 0 0-.12.23c-.04.1-.43.13-.53.18 0 0-.9-.84-1.03-.93-.23-.16-.27-.2-.3-.19-.4.08-.96.07-1.26.39-.1.1-.62 1.05-.9.73-.1-.12-.42 0-.56.06l-.02.01-.42-.18c.14-.4.24-1.02.77-1.02.47 0 .48-.04.55-.32.07-.23.41-.54.67-.53.2 0 .41-.08.62-.11.1-.01.12-.53.13-.63.07-.35.8.48.32-.42-.02-.03-.43-.04-.58-.22-.03-.08.06-.25.13-.37.17-.33 1.15-.44 1.5-.55a5.6 5.6 0 0 0 2.53.12c3.2 1.37 5.74 4 7.03 7.2Z"/><path d="m30.97 21.25-.7-.2c.01-.12.4-.6.4-.6-.09-.08-.2-.14-.3-.2-.25.08-.52 0-.78-.06l-.39.28-.75-.24a3 3 0 0 1-1.27.3l-.89.85h-.01c-.41.26-.86.54-.99 1.03l-.48.17c-.22.43-.33.63-.26 1.1-.05.37-.26.86-.21 1.2.13.75.94 1.25 1.48 1.7.42.28.67.45 1.17.3.18.04.57.24.75.17.27-.11.57-.17.85-.28.05-.02.2.12.24.15l.18-.1.52.26c.1-.05.2-.1.29-.17l.37.64a3.4 3.4 0 0 1-.29.78c.24.38.45.75.65 1.15.14.27.38.63.3.97-.04.19-.22.36-.32.52l.1 1.82.69 1.5c-.14.52-.02.79 0 1.3l.38-.03.78-.5.9-.07c.24-.28.48-.57.7-.86.12-.12.69-.5.72-.65.03-.16-.14-.48-.2-.65.27-.4.67-.7 1.13-1.17l.41-.84c.18-.36.25-.5.25-.62 0-.24-.11-.5-.15-.75-.06-.33.05-.66.12-.98l.32-.16c.49-.2.77-.93 1.04-1.36.04-.29.24-.79.14-1.04-.02-.04-.28 0-.33 0-2.46.95-1.02.28-1.99-1.6-.13-.25-.17-.51-.3-.76-.16-.34-.3-.7-.4-1.06l-.26-.72c-.34.14-1.09-.38-1.38-.5-.3.11-.68-.07-.98-.15l-.22.12v.37c-.12.04-.85-.32-1.03-.36Z" fill="url(#ddsp5dad5)"/><path d="M24.75 26.4H22s.16-.9-.84-.9c-.44 0-.85.19-.85.58 0 .54.47.6.95.73 1.6.44 3.74.25 3.74 2.5 0 1.68-1.85 2.69-3.92 2.69C16.6 32 17 29 17 29h2.56s-.12 1.5 1.38 1.5c.85 0 1.05-.38 1.05-.94 0-1.23-4.69-.82-4.69-3.17 0-1.57 1.77-2.39 3.85-2.39 3.82 0 3.6 2.4 3.6 2.4Z" fill="#F0F3FA"/><path d="M33 29.63V27l2.4 4.9-2.4-2.27Z" fill="#FEE00C"/><path d="M25 32v-8h3.6l1.62 2H28v1h2.7l1.58 2H28v1h4.78l2 2H25ZM39 24h-9.22l1.66 2H33l3 6v-6h2.53l.47-2Z" fill="#F0F3FA"/><path d="M37.06 11.88s2.26-1.15 3.3-1.88A10.61 10.61 0 0 1 42 15.75c0 1.2-.1 2.38-.34 3.47-2.35-2.1-5.89-3.35-9.5-3.79l1.97-1.5s-2.7-.93-5.94-.93c-4.18 0-8.01 1.21-10.75 3.81a14.97 14.97 0 0 0-4.4 9.74 17.72 17.72 0 0 0 1.99 9.13S12 31.41 12 26.06c0-3.94 1.2-7.67 3.81-10.63A16.57 16.57 0 0 1 28.2 10c5.8 0 8.87 1.88 8.87 1.88Z" fill="url(#edsp5dad5)"/><path d="M17.9 43.94 15.4 46a9.54 9.54 0 0 1-1.4-5.06c0-1.82.45-3.68.9-4.94 1.84 2.13 4.4 4.06 7.59 4.44l-1.72 1.06s3.27 1.5 6.45 1.5C35.2 43 43 37.31 43 27.88c0-3.96-1.94-6.88-1.94-6.88S44 24.06 44 29.31C44 39.5 36.15 46 27.21 46c-6.1 0-9.32-2.06-9.32-2.06Z" fill="url(#fdsp5dad5)"/><defs><linearGradient id="adsp5dad5" x1="28" y1="15" x2="23.51" y2="42.07" gradientUnits="userSpaceOnUse"><stop offset=".3" stop-color="#033E66"/><stop offset=".46" stop-color="#0170BB"/><stop offset=".6" stop-color="#07A8FE"/><stop offset=".81" stop-color="#48E0FF"/><stop offset=".85" stop-color="#0DDDFC"/></linearGradient><linearGradient id="bdsp5dad5" x1="28" y1="33" x2="28" y2="40.92"><stop offset=".68" stop-color="#fff"/></linearGradient><linearGradient id="cdsp5dad5" x1="25.37" y1="15" x2="27.88" y2="38.01" gradientUnits="userSpaceOnUse"><stop offset=".1" stop-color="#fff"/><stop offset=".55" stop-color="#fff" stop-opacity="0"/></linearGradient><linearGradient id="ddsp5dad5" x1="26.11" y1="23.12" x2="31.06" y2="35.62" gradientUnits="userSpaceOnUse"><stop offset=".14" stop-color="#2B343D"/><stop offset=".68"/></linearGradient><linearGradient id="edsp5dad5" x1="35.86" y1="13.46" x2="12.3" y2="29.46" gradientUnits="userSpaceOnUse"><stop stop-color="#126894"/><stop offset=".5" stop-color="#0F71A1"/><stop offset="1" stop-color="#126996"/></linearGradient><linearGradient id="fdsp5dad5" x1="19.9" y1="42.29" x2="43.47" y2="26.27" gradientUnits="userSpaceOnUse"><stop stop-color="#126894"/><stop offset=".5" stop-color="#0F71A1"/><stop offset="1" stop-color="#126996"/></linearGradient></defs></svg>