<!-- by TradingView --><svg width="56" height="56" viewBox="0 0 56 56" xmlns="http://www.w3.org/2000/svg"><path fill="#F0F3FA" d="M0 0h56v56H0z"/><path d="M28 11c10.07 0 16 6.36 16 16.97C44 38.64 38.07 45 28 45s-16-6.36-16-17.03C12 17.36 17.93 11 28 11Z" fill="#F5D400"/><path d="M28 43.08c-8.59 0-12.05-7.31-12.05-15.11S19.41 12.86 28 12.86s12.05 7.31 12.05 15.11S36.59 43.08 28 43.08Z" fill="#F2B300"/><path d="M34.49 21.67c4.26 4.14 6.54 9.9 1.85 14.46-4.7 4.5-10.63 2.27-14.83-1.8-4.26-4.14-6.54-9.9-1.85-14.46 4.63-4.55 10.63-2.33 14.83 1.8Z" fill="#E86E18"/><path d="M23.43 23.6c3.09-3 7.23-4.44 10.44-1.33 3.27 3.12 1.73 7.14-1.3 10.14-3.09 2.94-7.23 4.43-10.44 1.32-3.27-3.18-1.73-7.2 1.3-10.14Z" fill="#D30021"/><path d="M28 32c-2.66 0-5.31-1.13-5.31-4.03 0-2.84 2.65-3.97 5.31-3.97 2.66 0 5.31 1.13 5.31 3.97 0 2.9-2.65 4.03-5.31 4.03Z" fill="#371071"/></svg>