<!-- by TradingView --><svg width="56" height="56" viewBox="0 0 56 56" xmlns="http://www.w3.org/2000/svg"><path fill="#F0F3FA" d="M0 0h56v56H0z"/><path fill-rule="evenodd" d="M45 28c0 9.36-7.64 17-17 17s-17-7.64-17-17 7.64-17 17-17 17 7.64 17 17Zm1 0a18 18 0 1 1-36 0 18 18 0 0 1 36 0Zm-18.54 9.53v2.92a12.4 12.4 0 0 1-7.04-2.56 5.03 5.03 0 0 1 4.07-1.53c1.22.11 2.29.66 2.97 1.17Zm-2.87-2.25a6.14 6.14 0 0 0-5 1.9c-.59-.53-1.12-1.11-1.59-1.74 2.11-1.95 4.13-2.44 5.79-2.3 1.58.13 2.89.83 3.67 1.49v1.6a7.05 7.05 0 0 0-2.87-.95Zm-.71-3.22c-1.95-.16-4.21.42-6.5 2.47-.27-.46-.53-.93-.75-1.43 1.88-2.57 4.12-3.43 6.08-3.27a9.46 9.46 0 0 1 4.75 1.92v1.53a7.84 7.84 0 0 0-3.58-1.22Zm-1.09-3.31c-2.21-.18-4.6.56-6.64 3.1-.2-.62-.36-1.27-.46-1.93l.19-.21c2.4-2.58 4.8-3.2 6.86-3a9.03 9.03 0 0 1 4.72 2.02v1.7a10.27 10.27 0 0 0-4.67-1.68Zm.06-3.12c-2.27-.22-4.83.44-7.3 2.86a12.77 12.77 0 0 1 .27-3.12l.3-.15c5.16-3.08 9.5-1.02 11.34.5v1.66a9.95 9.95 0 0 0-4.61-1.75Zm4.6-1.26c-2.23-1.52-6.4-3-11.23-.45.3-.85.69-1.66 1.15-2.42l.6-.24c5.52-1.7 8.47.2 9.49 1.36v1.75Zm0-3.22c-1.58-1.23-4.51-2.32-9-1.16.62-.72 1.3-1.38 2.06-1.95l1.1-.19c3.43-.2 4.82.45 5.55 1.12.17.15.23.28.3.47v1.7Zm.55-5.6c-1.9 0-3.7.42-5.32 1.18 2.3-.02 3.7.4 4.64 1 .35-.66.93-1.48 1.73-2.14-.35-.03-.7-.05-1.05-.05Zm.16 2.91a8.2 8.2 0 0 1 2.28-2.68c1.36.27 2.63.76 3.8 1.43-2.66-.54-4.82.4-6.05 1.29l-.03-.04Zm7.4.3 1.28.47c.24.23.47.48.68.74a10.44 10.44 0 0 0-8.98 1.33v-1.71a6.7 6.7 0 0 1 7.02-.82ZM38 21.28l.65.27c.45.74.83 1.53 1.12 2.36a10.7 10.7 0 0 0-11.23.47v-1.7a9.34 9.34 0 0 1 9.46-1.4Zm1.88 3.95.32.23a12.51 12.51 0 0 1 .25 2.97 7.88 7.88 0 0 0-6.93-2.85c-1.93.2-3.7 1-4.98 1.85v-1.7a9.66 9.66 0 0 1 11.34-.5Zm.2 4.44.22.32c-.1.66-.26 1.31-.47 1.94-2.18-2.46-4.6-3.2-6.8-3.04a9.6 9.6 0 0 0-4.49 1.54v-1.67c1.19-.9 3.05-1.9 5.09-2.1 2.11-.2 4.44.42 6.44 3Zm-.74 3.36.04.05c-.21.49-.46.95-.73 1.4a7.25 7.25 0 0 0-6.05-2.4c-1.57.12-3 .69-4.06 1.3v-1.62a8.62 8.62 0 0 1 4.56-1.8c1.96-.12 4.2.55 6.24 3.07Zm-6.66.13a6.2 6.2 0 0 1 5.35 2.25c-.48.64-1.02 1.24-1.62 1.79a5.47 5.47 0 0 0-4.72-1.83c-1.18.1-2.3.5-3.15.95v-1.66a8.71 8.71 0 0 1 4.14-1.5Zm-.9 3.3a4.4 4.4 0 0 1 3.8 1.43 12.4 12.4 0 0 1-7.04 2.57v-2.9c.77-.48 1.97-1 3.24-1.1ZM28 41a13 13 0 1 0 0-26 13 13 0 0 0 0 26Z" fill="#98BF14"/></svg>