<!-- by TradingView --><svg width="56" height="56" viewBox="0 0 56 56" xmlns="http://www.w3.org/2000/svg"><path fill="#F0F3FA" d="M0 0h56v56H0z"/><path d="M28 11c9.26 0 17 7.74 17 17 0 9.38-7.62 17-17 17-9.26 0-17-7.74-17-17 0-9.38 7.62-17 17-17Zm0 1c-8.7 0-16 7.32-16 16s7.31 16 16.01 16C36.6 44 44 36.57 44 27.99 44 19.4 36.56 12 28 12Z" fill="#DAE28B"/><path d="M23 31h-9v1h9v-1ZM23 33h-9v1h9v-1ZM41 31h-8v1h8v-1ZM41 33h-8v1h8v-1Z" fill="#D8BBAD"/><path d="M33 37v-2h2v1h-1v1h-1ZM37 36h-2v1h2v-1Z" fill="#777684"/><path d="M38 21a6 6 0 0 1-8 5.66V37h-4V21a6 6 0 0 1 12 0Zm-5.5 3a2.5 2.5 0 1 0 0-5 2.5 2.5 0 0 0 0 5Z" fill="#405266"/><path fill-rule="evenodd" d="M30 37h-4V21a6 6 0 1 1 4 5.66V37Zm1-9v10h-6V21a7 7 0 1 1 7 7h-1Zm4-6.5a2.5 2.5 0 1 1-5 0 2.5 2.5 0 0 1 5 0Z" fill="#D39643"/></svg>