<!-- by TradingView --><svg width="56" height="56" viewBox="0 0 56 56" xmlns="http://www.w3.org/2000/svg"><path fill="#F0F3FA" d="M0 0h56v56H0z"/><path d="M23.43 38.85c.55 0 .92-.22.98-.66.06-.34-.1-.59-.59-.95l-.52-.4a2.8 2.8 0 0 1-.88-.9 1.5 1.5 0 0 1-.13-.96A2.26 2.26 0 0 1 24.63 33c.39 0 .88.06 1.23.18.34.13.54.3.51.69-.01.24-.23.6-.47.6-.36 0-.7-.32-1.28-.34-.46-.03-.76.17-.86.53-.08.25 0 .52.25.72l1.07.83c.63.47.9 1 .78 1.77-.2 1.25-1.18 2.01-2.57 2.02-.41 0-.92-.06-1.28-.19s-.55-.31-.53-.7c.01-.26.18-.63.49-.63.37 0 .9.36 1.32.36h.14ZM28.27 38.85c.55 0 .91-.22.98-.66.05-.34-.1-.59-.59-.95l-.52-.4a2.8 2.8 0 0 1-.88-.9 1.5 1.5 0 0 1-.13-.96A2.26 2.26 0 0 1 29.46 33c.4 0 .88.06 1.23.18.35.13.54.3.52.69-.01.24-.24.6-.47.6-.36 0-.7-.32-1.28-.34-.46-.03-.76.17-.87.53-.07.25 0 .52.25.72l1.07.83c.64.47.9 1 .79 1.77-.2 1.25-1.18 2.01-2.58 2.02-.4 0-.91-.06-1.27-.19s-.56-.31-.54-.7c.02-.26.18-.63.49-.63.37 0 .9.36 1.32.36h.15ZM45.06 38.85c.55 0 .91-.22.98-.66.05-.34-.1-.59-.6-.95l-.52-.4c-.52-.4-.73-.62-.87-.9a1.5 1.5 0 0 1-.13-.96A2.26 2.26 0 0 1 46.25 33c.4 0 .88.06 1.23.18.35.13.54.3.52.69-.02.24-.24.6-.47.6-.37 0-.7-.32-1.28-.34-.47-.03-.76.17-.87.53-.07.25 0 .52.25.72l1.07.83c.64.47.9 1 .79 1.77-.2 1.25-1.18 2.01-2.58 2.02-.4 0-.92-.06-1.27-.19-.36-.13-.56-.31-.54-.7.02-.26.18-.63.49-.63.37 0 .9.36 1.32.36h.15ZM21 37.53c-.24 1.54-1.13 2.46-2.78 2.47h-.23c-1.55 0-2.18-.9-1.94-2.45l.59-3.83s.13-.7.85-.7c.82 0 .7.69.7.69l-.7 4.55c-.05.42.06.88.71.88.65 0 1.03-.33 1.12-.89l.71-4.55s.05-.7.9-.7c.73 0 .65.69.65.69L21 37.53ZM37.89 35.47c.24-1.54 1.13-2.46 2.78-2.47h.23c1.55 0 2.17.9 1.93 2.45l-.59 3.83s-.13.72-.85.72c-.81 0-.7-.7-.7-.7l.7-4.56c.05-.42-.06-.88-.7-.88-.66 0-1.03.33-1.13.89l-.7 4.55s-.06.7-.92.7c-.72 0-.64-.69-.64-.69l.59-3.84ZM35.54 34.74l-.55 3.51c-.1.56-.55.88-1.2.88-.65 0-.83-.45-.78-.87l.54-3.51c.1-.56.55-.88 1.2-.88.65 0 .84.45.79.87Zm-.5-1.74h-.38c-1.65.01-2.54.93-2.78 2.48l-.31 2.07c-.24 1.54.38 2.46 1.94 2.45h.37c1.65-.01 2.54-.93 2.78-2.48l.32-2.07c.23-1.54-.4-2.46-1.94-2.45M11.04 39.92c2.02.39 3.9-.79 4.13-1.23.18-.36 0-.92-.5-.87-.56.05-1.6 1.24-3.28.92-1.67-.32-2.18-2.1-1.56-3.9.42-1.21 1.6-2.51 3.1-2.62a4.3 4.3 0 0 1 2.04.4c.55.24.87-.02 1-.4.3-.84-1.83-1.22-2.72-1.22a5.13 5.13 0 0 0-4.96 3.54c-.85 2.42.2 4.9 2.75 5.38Z" fill="#93A4A8"/><path d="M33.55 22.34a.5.5 0 0 0-.47-.34h-3.7c-.26 0-.47.23-.47.5s.2.5.47.5h2.28c.11 0 .14.09.09.16l-3.44 4.9c-.07.1-.12.2-.14.32-.02.1-.02.2.02.3.07.2.25.32.47.32h3.73c.26 0 .47-.21.47-.48 0-.28-.21-.52-.47-.52h-2.3c-.11 0-.14-.08-.07-.19l3.4-4.86c.08-.09.13-.2.15-.31a.6.6 0 0 0-.02-.3ZM42 14l-2.66 17a22.7 22.7 0 0 0-4.49-.91c-1-.12-2.16-.2-3.5-.22-3.28-.05-5.65.59-8 .85l.64-3.33c.02-.07.09-.1.15-.07a2 2 0 0 0 .82.16c1.02 0 1.6-.14 2.2-.59 1.13-.84 2.6-4.89-1.57-4.89h-.84c-1 0-1.25.42-1.44 1.36l-1.4 7.46c-3.28 0-5.27-.63-5.91-1.05L18.59 14H42ZM25.06 26.28c-.5 0-.86-.07-.78-.56l.42-2.2c.06-.32.25-.52.64-.52h.52c1.07 0 1.26.67 1.07 1.68-.22 1.22-.84 1.61-1.87 1.6Z" fill="#E70027"/></svg>