<!-- by TradingView --><svg width="56" height="56" viewBox="0 0 56 56" xmlns="http://www.w3.org/2000/svg"><path fill="#F0F3FA" d="M0 0h56v56H0z"/><path d="M33.87 22.65 36.11 11h-.22l-2.36 11.65h.34Z" fill="#4B2625"/><path d="M35.9 11 26.1 22.7H11v.3h15.45l9.28-11.07.17-.93Z" fill="#E74F3F"/><path d="M33.56 22.63H48V23H26.38l9.35-11.07-2.17 10.7Z" fill="url(#ayqfw3xgg)"/><path fill="#542727" d="M11 23h37v.41H11z"/><path d="M11.01 24h36.67l-14.4 3.14-3.8 17.8-3.07-13.55-.33-.6-14.1 10.13 10.35-13.78L11.01 24Z" fill="url(#byqfw3xgg)"/><path d="m11.01 24.4 11.35 2.8c.14-.23-.06-.4-.17-.46-3.56-.96-11.12-2.7-11.18-2.76v.43ZM47.98 24l-14.63 3.31L29.5 46l-3.37-14.97-13.96 10.16-.18-.3 13.7-10.1c.6-.33.85.13.9.4l2.9 13.3 3.45-17c.07-.37.3-.58.41-.64L46.4 24h1.59Z" fill="#482525"/><defs><linearGradient id="ayqfw3xgg" x1="37.2" y1="11.89" x2="28.45" y2="23.13" gradientUnits="userSpaceOnUse"><stop stop-color="#9E2C33"/><stop offset=".45" stop-color="#C43A38"/><stop offset=".7" stop-color="#EA574F"/><stop offset="1" stop-color="#F6BCB1"/></linearGradient><linearGradient id="byqfw3xgg" x1="28.83" y1="22.86" x2="28.09" y2="34.39" gradientUnits="userSpaceOnUse"><stop stop-color="#EE5545"/><stop offset="1" stop-color="#9D2D33"/></linearGradient></defs></svg>