<!-- by TradingView --><svg width="56" height="56" viewBox="0 0 56 56" xmlns="http://www.w3.org/2000/svg"><path fill="#F0F3FA" d="M0 0h56v56H0z"/><path fill-rule="evenodd" d="M26.22 9.84c-.37.32-.47.69-.31 1.1.03.1 0 .16-.11.18l-3.04.64c-.1.02-.19 0-.26-.07l-.65-.67c-.12-.13-.22-.12-.28.04-.03.06-.07.32-.14.8-.09.6-.34.8-.65 1.06l-.32.29c-.1.1-.2.1-.3 0a3.54 3.54 0 0 0-.96-.7c-.17-.08-.23-.04-.18.13.46 1.47.78 2.3.97 2.51a5.3 5.3 0 0 1 1.21 2.17c.16.54.56.76 1.18.65 3.49-.59 6.43-.46 9.55-.03a.4.4 0 0 0 .33-.1c.34-.32.57-.65.7-1.01.2-.59.47-1.1.82-1.52.41-.51.59-1.03.78-1.59.1-.3.2-.6.35-.92.2-.43.08-.5-.34-.24l-.7.45c-.1.07-.21.07-.32 0l-.72-.45a.34.34 0 0 1-.1-.1.32.32 0 0 1-.06-.12L32.46 11a.13.13 0 0 0-.03-.06.15.15 0 0 0-.06-.04.17.17 0 0 0-.15.01l-1.05.68a.37.37 0 0 1-.27.05l-2.75-.53c-.1-.03-.15-.09-.13-.18.12-.53-.07-.96-.56-1.3-.1-.07-.1-.13.02-.18.05-.03.1-.03.17-.01.14.04.25 0 .34-.09a.45.45 0 0 0 .09-.5c-.12-.3-.46-.57-1.03-.83a.32.32 0 0 0-.35.04c-.32.24-.54.42-.65.54-.36.36-.3.68.14.97.12.08.13.17.03.26Zm1.02 2.09c0 .16-.15.3-.33.3-.18 0-.33-.14-.33-.3 0-.16.15-.3.33-.3.18 0 .33.14.33.3Zm-2.21.37a.9.9 0 0 1 .37-.08h.42l.06-.01.05-.04a.12.12 0 0 0 .03-.05v-.06l-.04-.14c-.02-.07-.07-.1-.15-.1a8.01 8.01 0 0 0-2.76.48.14.14 0 0 0-.04.04c-.02.06-.02.1 0 .15 0 .03.03.05.06.07.04.02.07.03.11.02.75-.1 1.17.18 1.27.83.12.75.15 1.46.1 2.13 0 .06.03.1.1.1h.76c.03 0 .05-.02.04-.05l-.8-2.44a.65.65 0 0 1 .13-.64.8.8 0 0 1 .29-.21Zm3.57 2.77c.06-.27.2-.75.43-1.44.14-.39.17-.68.11-.88-.1-.39-.45-.56-1.02-.5-.15 0-.22-.05-.22-.18v-.14c0-.12.07-.17.2-.16.86.06 1.71.2 2.55.43.08.03.13.06.16.11.01.04.02.07 0 .1-.02.08-.07.11-.15.1-.76-.08-1.18.28-1.27 1.1-.07.7-.07 1.24.01 1.63.08.36-.08.5-.5.42-1-.2-1.46-.74-1.37-1.62.01-.05.05-.08.1-.09.05 0 .08.01.11.03.04.02.06.05.06.09.07.4.13.7.19.88.06.22.18.33.34.33.15 0 .24-.08.27-.2Zm3.47-2.76-.06-.23c-.02-.08-.08-.11-.17-.1a.84.84 0 0 0-.47.23.19.19 0 0 0-.04.07v.09c0 .03.02.05.04.08l.08.05c.2.1.36.13.45.1.15-.05.21-.15.17-.3Zm-10.22-.15c-.12.16-.1.35.04.44.14.09.36.03.48-.12.12-.16.1-.35-.05-.44-.14-.09-.35-.03-.47.12Zm11.22 1.22a.6.6 0 0 0-.18-.21l-.17-.13a7.16 7.16 0 0 1-.19-.13c-.24-.19-.28-.15-.14.1l.37.67c.08.13.18.14.3.02.08-.08.08-.18.01-.32Zm-11.96.42a.12.12 0 0 1-.06.05.14.14 0 0 1-.08 0 .12.12 0 0 1-.07-.03.1.1 0 0 1-.02-.07c0-.21.12-.38.35-.5.17-.1.21-.06.13.1l-.25.45Zm4.87 1.49c-.1-.02-.12-.34-.05-.72.08-.38.22-.68.31-.66.1.01.12.33.05.71-.08.38-.21.68-.31.67Zm-2.42-.33c.16.29.34.5.41.47.07-.03 0-.3-.16-.58-.16-.28-.35-.49-.42-.46-.07.03 0 .29.17.57Zm6.7-.45-.4.73c-.04.09-.02.11.08.06.38-.19.54-.44.47-.77-.03-.14-.09-.15-.15-.02Zm-8.61.29c.15.17.24.34.34.52.08.15.16.3.28.45.07.1.06.16-.02.2a.67.67 0 0 1-.3.05c-.16 0-.24-.07-.27-.2l-.2-.96c-.04-.22.02-.24.17-.06Zm9.69.68v-.73l-.02-.04a.07.07 0 0 0-.03-.02h-.05a.07.07 0 0 0-.03.03c-.17.22-.16.48 0 .79.09.14.13.13.13-.03Zm-8.78-.52a.4.4 0 0 0 .03-.09c.02-.06.04-.06.07 0 .1.18.1.37.03.55-.05.1-.1.1-.14 0a.57.57 0 0 1 .01-.46Zm10.01.5-.27-.03c-.1-.01-.1-.06-.02-.13a.52.52 0 0 0 .07-.08c.05-.05.06-.1.05-.16a.18.18 0 0 0-.12-.12c-.06-.02-.1-.01-.14.03l-.5.62a.2.2 0 0 0-.04.17c.01.06.05.11.1.15l.14.05c.2.06.34.04.43-.06.08-.1.19-.2.32-.26.16-.1.16-.15-.02-.18Zm-5.61 1.4c.31 0 .57-.22.57-.5 0-.27-.26-.5-.57-.5-.31 0-.57.23-.57.5 0 .28.26.5.57.5Zm-3.07-.24c.07.14-.03.32-.23.4-.2.1-.43.05-.5-.09-.08-.13.02-.32.23-.4.2-.09.42-.05.5.09Zm6.16.38c.16.12.4.12.51 0 .12-.13.08-.33-.08-.45s-.39-.12-.5 0c-.12.13-.09.32.07.45Z" fill="#CC171E"/><path d="M29.1 26H22v-4h7.1c2.77 0 7.9 1.53 7.9 7 0 4.93-3.76 7.13-6 7l6 8h-4.74L24 32h4.74c1.31 0 4.26-.27 4.26-3s-2.58-3-3.9-3ZM27 18c1.55 0 3.1.26 4.65.77.25.08.37.32.35.7 0 .07-.03.14-.06.23-.04.1-.1.18-.17.23a.27.27 0 0 1-.24.04 19.1 19.1 0 0 0-4.53-.72 19.26 19.26 0 0 0-4.53.74.27.27 0 0 1-.24-.04.48.48 0 0 1-.17-.22.85.85 0 0 1-.06-.23c-.02-.39.1-.62.35-.7 1.55-.52 3.1-.79 4.65-.8ZM22.08 21a.1.1 0 0 1-.06-.02l-.02-.03v-.1c0-.22.38-.44 1.06-.6.68-.15 1.6-.24 2.56-.24l2.76-.01a14.55 14.55 0 0 1 2.56.25c.34.07.6.17.79.27.18.1.27.21.27.32v.1c0 .01 0 .02-.02.03a.1.1 0 0 1-.06.02l-9.84.01ZM24.5 44a2.5 2.5 0 1 0 0-5 2.5 2.5 0 0 0 0 5Z" fill="#CC171E"/></svg>