<!-- by TradingView --><svg width="56" height="56" viewBox="0 0 56 56" xmlns="http://www.w3.org/2000/svg"><path fill="#F0F3FA" d="M0 0h56v56H0z"/><path d="M29.6 26h-.76l-.63.93-.63-.93h-.77l1.02 1.5L26.8 29h.77l.63-.93.63.93h.77l-1.02-1.5 1.02-1.5ZM5 26h1.65a1 1 0 0 1 .4 1.92L7.6 29h-.75l-.5-1h-.67v1H5v-3Zm.68 1.41h.88a.41.41 0 0 0 0-.82h-.88v.82Z" fill="#191D63"/><path fill-rule="evenodd" d="M9.88 29c.79 0 1.43-.67 1.43-1.5S10.67 26 9.88 26c-.8 0-1.44.67-1.44 1.5S9.08 29 9.88 29Zm0-.6c.42 0 .77-.4.77-.9s-.35-.9-.77-.9c-.43 0-.78.4-.78.9s.35.9.78.9Z" fill="#191D63"/><path d="M13 27.82 11.77 26h.8l.81 1.23.77-1.23h.83l-1.3 1.82V29H13v-1.18ZM15.05 29l1.24-3h.63l1.27 3h-.77l-.24-.64h-1.16l-.24.64h-.73Zm1.2-1.23h.7l-.36-.93-.35.93ZM37.4 29l1.26-3h.64l1.28 3h-.77l-.25-.64h-1.17l-.24.64h-.75Zm1.21-1.23h.72l-.36-.93-.36.93ZM19.7 26H19v3h.7v-3Zm1.62 2.42H19.7V29h1.62v-.58ZM24.37 26h-.7v3h.7v-1.26h.94v-.59h-.94V26ZM26 28.42h-1.63V29H26v-.58ZM24.37 26H26v.58h-1.63V26ZM49.38 26h-.7v3H51v-.58h-1.63v-.68h.94v-.59h-.94v-.57H51V26h-1.63ZM34 26h.67v3H34v-3Zm2 0h.67v3H36v-1.28h-1.33v-.58H36V26ZM32.97 28.35c-.26.4-.7.65-1.19.65-.8 0-1.44-.67-1.44-1.5s.64-1.5 1.44-1.5c.5 0 .93.26 1.19.65l-.55.32a.75.75 0 0 0-.64-.38c-.43 0-.78.4-.78.91 0 .5.35.9.78.9.28 0 .53-.17.67-.43l.52.38ZM41.3 26v3h.7v-1.86L43.35 29H44v-3h-.7v1.79L41.94 26h-.63ZM46.46 29a1.48 1.48 0 0 0 1.47-1.54h-1.11l-.23.54h.58a.8.8 0 0 1-.68.4c-.45 0-.82-.4-.82-.9s.37-.9.82-.9a.8.8 0 0 1 .67.38l.55-.27a1.45 1.45 0 0 0-1.25-.71c-.8 0-1.46.67-1.46 1.5s.66 1.5 1.46 1.5Z" fill="#191D63"/><path d="M19 24v1.72h.33V25h5.35v.72H25V24h-6ZM19 31v-1.66h.33V30h5.35v-.66H25V31h-6Z" fill="#D8A901"/></svg>