<!-- by TradingView --><svg width="56" height="56" viewBox="0 0 56 56" xmlns="http://www.w3.org/2000/svg"><path fill="#F0F3FA" d="M0 0h56v56H0z"/><path d="M19.6 35.76 19 41l4.5-2 1.5 4.5 3-3.5 3.5 3.5 1-4.5 4.5 2-.32-5.72-.92.03a10.37 10.37 0 0 1-15.02.41l-1.14.04Z" fill="#ED1C24"/><path d="M35.89 35.4a10.5 10.5 0 0 1-15.25.43l.23-.22a10.16 10.16 0 0 0 14.77-.43l.25.23Z" fill="#1C458C"/><path d="M13.5 36h29.07l-14.4-8.08L13.5 36Z" fill="#F0F3FA"/><path d="M28 12v16l-14.5 8 3.04-5L12 29l4.67-2.5L13 22h5.2l-1.7-5.42 5.15 2.06L22 13l3.65 3.2L28 12ZM17.5 29.44l7-11.44a10.44 10.44 0 0 0-7.08 10c-.02.48.01.96.08 1.44Zm12.91-12.82 4.09-3.16.51 5.2 4.8-1.16-1.56 4.45L43 23l-3.24 3.43L44 29l-4.92 2.7-.84-1c.21-.88.34-1.79.34-2.73 0-4.95-3.25-9.11-7.69-10.37l-.48-.98Z" fill="#1C458C"/><path d="M28 12v16l14.5 8L28 12Z" fill="#ED1C24"/><path d="M28 11c4.7 0 8.95 1.9 12.02 4.98A16.95 16.95 0 0 1 45 28c0 4.7-1.9 8.95-4.98 12.02A16.95 16.95 0 0 1 28 45c-4.7 0-8.95-1.9-12.02-4.98A16.95 16.95 0 0 1 11 28c0-4.7 1.9-8.95 4.98-12.02A16.95 16.95 0 0 1 28 11Zm11.68 5.34A16.5 16.5 0 1 0 16.3 39.7a16.5 16.5 0 0 0 23.37-23.35Z" fill="#1C458C"/><path d="M13.38 36h29.09v.5H13.38V36Z" fill="#1C458C"/></svg>