<!-- by TradingView --><svg width="56" height="56" viewBox="0 0 56 56" xmlns="http://www.w3.org/2000/svg"><path fill="#F0F3FA" d="M0 0h56v56H0z"/><path fill-rule="evenodd" d="m12.4 35 4.82-10.43L21.88 35h-2.22l-.62-1.3H15.2l-.54 1.3H12.4Zm3.46-3 1.27-2.93L18.3 32h-2.44ZM9.1 25c2.4.01 3.07 2.01 3.1 3h-2.02c0-.79-.72-1-1.08-1.01-.37.01-1.11.24-1.11 1 0 .75 1.2 1.26 1.81 1.42 1.98.61 2.43 2.01 2.4 2.64-.03 1-.7 2.98-3.1 2.95-2.4-.03-3.07-2.03-3.1-3H8c0 .27.32 1.05 1.11 1.05.7 0 1.08-.6 1.08-.91v-.01c0-.14.04-.74-1.99-1.45-1.8-.62-2.2-2.06-2.19-2.7.03-1 .7-3 3.1-2.98ZM25 25h-2v10h2v-4h3v4h2V25h-2v4h-3v-4Zm20 10a5 5 0 1 0 0-10 5 5 0 0 0 0 10Zm0-2a3 3 0 1 0 0-6 3 3 0 0 0 0 6Zm-8.98 2c1.4 0 2.68-.58 3.6-1.52l-1.47-1.39a3 3 0 1 1 0-4.18l1.41-1.44A4.99 4.99 0 0 0 31.02 30a5 5 0 0 0 5 5Z" fill="#616163"/><path d="M50 23.41v-3.66l-1.33 1.86 1.33 1.8Z" fill="#616163"/><path fill-rule="evenodd" d="M43.32 19.66 41.78 24h1.15l.24-.72h1.53l.23.72h1.3l.94-1.39.73 1.4h1.25l-1.4-2.34L50 18.8V18h-.7l-2.13 2.71-.23-.33c-.26-.4-1.2-.64-1.64-.72l1.24 2.01-.77 1.14-1.14-3.15h-1.3Zm.65 1.09-.54 1.65h1.03l-.5-1.65Zm-5.49.13c-.01-.44-.34-1.33-1.54-1.34-1.19 0-1.52.89-1.53 1.34-.01.28.2.92 1.08 1.2 1 .31 1 .58.99.64 0 .15-.19.41-.54.41-.39 0-.55-.32-.55-.44h-.98c.01.43.34 1.3 1.53 1.31 1.2.02 1.53-.87 1.54-1.31.01-.28-.2-.9-1.19-1.18-.3-.07-.9-.3-.9-.63 0-.34.37-.44.55-.45.18 0 .54.1.54.45h1Zm1.25-1.25h-1V24h1v-4.37Zm.27.01h2.42v.94H41v.83h1.11v.94H41V24h-1v-4.36Z" fill="#E07638"/></svg>