<!-- by TradingView --><svg width="56" height="56" viewBox="0 0 56 56" xmlns="http://www.w3.org/2000/svg"><path fill="#27304F" d="M0 0h56v56H0z"/><path d="M11.83 26a2.83 2.83 0 0 0 0 4l7 7c1.16-1.31 2.63-5.05-.93-7.79a6.62 6.62 0 0 1-2.32-6.96L11.83 26Zm6.6-6.6c-.27 2.44.4 3.86.99 4.7l2.33 3.08c4.16 4.83 1.06 9.37-1.37 11.37L26 44.17c1.1 1.1 2.9 1.1 4 0l3.77-3.77c-1.1-.19-2.57-1.28-2.77-4.53V27h-3v8h1.66v1h-3.48c-.7-.02-2.18-1.1-2.18-3.75V27h-1v-2h1v-1.77l4-4.5V25h3.85c1.87 0 3.15 1.14 3.15 4.14v10.03L44.17 30c1.1-1.1 1.1-2.9 0-4L30 11.83a2.83 2.83 0 0 0-4 0l-7.57 7.57Zm11.14 1.41 2.69-2.69 2.69 2.7-2.7 2.68-2.68-2.69Z" fill="#fff"/></svg>