<!-- by TradingView --><svg width="56" height="56" viewBox="0 0 56 56" xmlns="http://www.w3.org/2000/svg"><path fill="#F0F3FA" d="M0 0h56v56H0z"/><path d="M8.89 25c.97 0 1.49-.38 1.6-.47.03-.03.34-.31.8-.05.12.05.17.14.2.25.06.2-.03.38-.2.55l-.31.26c-.49.34-1.38.74-1.98.74-.54 0-1.52-.23-2.2-.83-.52-.43-.8-1.06-.8-1.95 0-1.54.88-2.63 2.17-3.4 1.72-1 4.1-1.44 5.64-1.44 1.83 0 5.13 1.15 7.36 1.95 1 .36 1.94.72 3 .72.7 0 1.5-.2 1.5-1.24 0-.8-.38-1.43-1-1.89a5.15 5.15 0 0 0-2.9-.77 7.9 7.9 0 0 0-4.52 1.63c-.42-.2-.84-.52-.58-1.06.1-.2 1.15-.97 2.52-1.48.8-.3 1.7-.52 2.61-.52 1.32 0 2.72.37 3.75 1.17a3.62 3.62 0 0 1 1.49 2.95c0 1.18-.54 2-1.29 2.58a5.84 5.84 0 0 1-3.32 1.09c-.83 0-1.6-.17-2.12-.32l-.03 5.62c0 1.28-1.14 1.91-1.69 2.17v3.27a9.18 9.18 0 0 0 5.73-3.24l.57-.69c.09.45.15.9.15 1.35-.03.97-.7 2.09-1.8 3a9.07 9.07 0 0 1-3.99 1.93c-.54.11-1.09.14-1.6.11a9.28 9.28 0 0 1-5.73-2.26 6.77 6.77 0 0 1-2.15-5.13c0-4.06 4.01-6.9 5.67-7.87-.83-.38-2.32-.9-4.18-.9a4.8 4.8 0 0 0-2.72.75c-.8.55-1.14 1.3-1.14 1.78 0 .43.11.86.4 1.14.23.35.6.5 1.09.5Zm7.9 9.41v-11.7c-.66.25-1.75.96-2.58 2.25a7.34 7.34 0 0 0-1.17 4.13 5.45 5.45 0 0 0 3.75 5.32Z" fill="#FFD109"/><path d="M10.77 24.85s-.58.6-1.84.6c-1.26 0-1.89-.95-1.89-2.03 0-1.1 1.23-2.98 4.2-2.98 2.99 0 5.1 1.32 5.1 1.32s-6.15 3.03-6.15 7.9c0 4.87 4.3 6.81 7.44 6.96 3.61.14 7.39-2.98 6.99-5.01C21.82 34.96 18 35 18 35v-4s1.87-.54 1.87-1.91V23s1.23.42 2.54.42c1.32 0 4.18-.75 4.18-3.24 0-2.5-2.52-3.7-4.8-3.7a8.1 8.1 0 0 0-4.72 1.78.24.24 0 0 0-.03.13c.01.14.17.22.17.22S19.3 17 21.76 17c2.46 0 4.28 1.18 4.28 3.12 0 1.95-1.97 1.66-2.82 1.58-.86-.09-6.76-2.7-9.37-2.7-2.6 0-7.32 1.27-7.32 4.53 0 1.8 1.71 2.35 2.54 2.35.76 0 1.92-.8 1.97-1 .03-.09-.23-.08-.27-.03ZM18 22.5l.5.11v6.7s-.21.92-.5 1.2c-.03-4.69 0-8.01 0-8.01Zm-1-.5v13s-4.35-.99-4.35-5.91c0-4.93 3.5-7.06 4.35-7.09ZM27.5 36.96c-.12.07-.32.05-.41-.06-.09-.1-.06-.28.06-.35.02 0 3.92-2.58 14.26-2.55 2.41 0 5.18.13 8.33.49.15.02.26.15.26.28-.03.13-.17.23-.32.23-16.4-1.9-22.16 1.96-22.19 1.96Z" fill="red"/><path d="M24.04 29v1.73s.79-1.22 1.48-1.22c.52 0 .52 1.49.52 1.49s-1.74-.3-1.97.7c-.24.99 1.15 1.5 1.85.99.06.25.1.31.1.31h1.02s-.13 0-.26-.37c-.14-.34 0-2.33 0-2.75 0-.4-1.06-1.3-2.12-.37-.36-.4-.62-.51-.62-.51ZM27.04 29.2l.66.4.21 2.89-.45.51h1.8l-.8-.6v-2.37s.17-.6.71-.6c.55 0 .55.66.55.66v2.65l1.32-.08-.66-.55v-2.4s-.12-.71-.87-.71c-.73 0-.9.49-.9.49l-.13-.49-1.44.2ZM31.54 28.52s-.62 1.05-.85 1.22c-.23.17-.09.26-.09.26h.43v2.15s0 .85.94.85c.93 0 .8-.83.8-1.14 0-.31-.29-.08-.29-.08s-.08.96-.5.94c-.4-.03-.32-.55-.32-.55V30h.82l-.05-.42-.77-.03v-.94l-.12-.09ZM33.04 29v1.78s.34.09.34 0 .43-1.18 1-1.18c.54 0 .42.78.42.78V31s-1.76 0-1.76.86c.03.94.94 1.2 1.65.88.2.23-.03.26.34.26s.6-.17.6-.17l-.28-.23.17-2.53c0-.09.08-.79-.72-.9-.8-.08-1.16.48-1.16.48l-.26-.65h-.34Z" fill="red"/><path d="m35.56 28.33.48.2.31 4-.56.47h1.56l-.54-.55.09-4.44-1.54-.01.2.33ZM37.4 29.44h1.23v3.13l.4.43h-1.42l.43-.46v-2.62l-.63-.48ZM39.23 29.38v1.74l.8-1.4h.65L39.18 33h2.41l-.03-1.9-.57 1.44h-.95l1.58-3.3-2.4.14ZM44.04 31h-1.62s.11 1.69.8 1.52c.68-.2.82-1.06.82-1.06V33l-.43-.26s-.11.26-.48.26-1.37-.8-1.37-2.02c0-1.23.88-1.98 1.28-1.98s1 .5 1 2ZM44.27 29.55l.57.45.08 2.29-.6.71h1.72s-.1-.4-.15-.46l-.48-.25.05-1.86s.23-.45.43-.43c.17.03.03.6.34.55.31-.06.57-.12.51-.52-.05-.4-.54-.68-1.02-.31-.49.37-.29-.26-.29-.26l-1.16.09ZM47.04 31.83v1.7s.43 0 .43-.02l.1-.66s.44.43.9.4c.45-.03 1.02-.48 1.02-1 0-.9-1.8-.76-1.83-1.68-.02-.9.46-.9.63-.9.17 0 .71.22.77 1.16.31.17.37-.03.37-.03s-.13-1.8-.18-1.8c-.06 0-.36.5-.36.5s-.17-.32-.71-.3c-.54.04-1.17.43-1.14 1.35.03 1.08 1.85 1.33 1.85 1.82 0 .48-.31.57-.63.51-.34-.06-.82-.51-.85-1.08-.31-.12-.37.03-.37.03ZM38.57 28.22c0-.02-.04-.2-.26-.22-.2-.02-.52.35.06 1 .66.02 1-1.15.2-.78ZM38.64 27.17c0-.03-.03-.14-.2-.17-.17 0-.43.26.03.74.33.02.56-.26.57-.45 0-.14-.11-.23-.4-.12Z" fill="red"/><ellipse cx="25.18" cy="31.97" rx=".63" ry=".57" fill="#F0F3FA"/><ellipse cx="34.1" cy="31.96" rx=".63" ry=".57" fill="#F0F3FA"/><path d="M43.47 30.64h-.92c0-.38.1-1.14.5-1.15.4 0 .45.76.42 1.15Z" fill="#F0F3FA"/></svg>