<!-- by TradingView --><svg width="56" height="56" viewBox="0 0 56 56" fill="none" xmlns="http://www.w3.org/2000/svg">
<rect width="56" height="56" fill="#F0F3FA"/>
<path fill-rule="evenodd" clip-rule="evenodd" d="M20 9H24V18.7268C22.4456 19.3476 21.0788 20.2939 20 21.4727V9ZM20 34.4687V47.0013H24V37.2147C22.4456 36.5938 21.0788 35.6475 20 34.4687ZM32 37.4433V47.0013H36V35.0962C34.8802 36.1292 33.5184 36.9379 32 37.4433ZM36 20.8452V9H32V18.4981C33.5184 19.0035 34.8802 19.8123 36 20.8452Z" fill="#025C1F"/>
<path fill-rule="evenodd" clip-rule="evenodd" d="M30 9H26V18.1932C26.6342 18.0665 27.2901 18 27.9615 18C28.6601 18 29.3419 18.072 30 18.2089V9ZM30 37.7911C29.3419 37.928 28.6601 38 27.9615 38C27.2901 38 26.6342 37.9335 26 37.8068V47.0013H30V37.7911Z" fill="#B4975B"/>
<path fill-rule="evenodd" clip-rule="evenodd" d="M28 36C33.0723 36 37 32.3218 37 28C37 23.6782 33.0723 20 28 20C22.9277 20 19 23.6782 19 28C19 32.3218 22.9277 36 28 36ZM28 37C33.5228 37 38 32.9706 38 28C38 23.0294 33.5228 19 28 19C22.4772 19 18 23.0294 18 28C18 32.9706 22.4772 37 28 37Z" fill="#B4975B"/>
<path fill-rule="evenodd" clip-rule="evenodd" d="M24.6047 26.3006V24H29V23H24V23H23V31H24.6047V27.4421H29V28H27.8989V27.6641H26.397V28.0025V29.3408V34H28.0017V29.3408H29V31H30.6047V29.3408H31.1361C32.4901 29.3408 33.5878 28.2431 33.5878 26.889C33.5878 25.535 32.4901 24.4373 31.1361 24.4373H26.397V26H27.8989V25.6632H30.8316C31.4769 25.6632 32 26.1863 32 26.8316C32 27.4769 31.4769 28 30.8316 28H30.6047V26H29V26.3006L24.6047 26.3006Z" fill="#B4975B"/>
</svg>
