<!-- by TradingView --><svg width="56" height="56" viewBox="0 0 56 56" xmlns="http://www.w3.org/2000/svg"><path fill="#F0F3FA" d="M0 0h56v56H0z"/><path d="M4 24h9.5L11 32H4v-8Z" fill="#EDD1A8"/><path d="m17 24-1 2.5h-1L13 32h2.19l1-3h.85l.5 3H20l-.6-3.7c.1-.03 1.1-.31 1.68-.85.1-.1.2-.23.3-.32.3-.38.4-.7.48-.87.2-.6.15-1.02.06-1.26a1.38 1.38 0 0 0-.72-.74 4.86 4.86 0 0 0-2.07-.26H17Zm.54 1.32h1.1c.51 0 .76.07.88.33.11.2 0 .44 0 .51-.16.42-.5.65-.73.75-.3.11-.68.09-.7.09H17l.54-1.68ZM25.69 24 21 32h1.68l.89-1.58H26V32h2v-8h-2.31Zm.31 2.12v2.58h-1.46L26 26.12ZM31.3 24 29 32h2l1.5-5 1 5H35l2.5-8h-2l-1 4c-.1-1.08-.9-3-1.16-4H31.3ZM38.56 24 36 32h5.44l.56-2h-3.32l.32-1h2.46l.54-2h-2.31l.31-1h3.5l.5-2h-5.44ZM51.5 24h-2c-.67.72-1.22 1.43-1.8 2.22L47 24h-2.5l1.5 4-3.5 4h1.98c.78-.87 1.24-1.63 2.02-2.5.5 2.5.3 1.65.5 2.5h2.5c-.42-1.46-.87-2.52-1.3-4 1-1 3.3-4 3.3-4Z" fill="#009748"/><path d="M16.3 24H11l-.64 2h2.14l-2.14 6h2.14l2-6h1l.8-2Z" fill="#FF9A00"/></svg>