<!-- by TradingView --><svg width="56" height="56" viewBox="0 0 56 56" xmlns="http://www.w3.org/2000/svg"><path fill="url(#abmtyfb2e)" d="M0 0h56v56H0z"/><path d="M4 23h5v1H7v7H6v-7H4v-1Zm4 8v-3.12C8 26.28 9.42 25 11.17 25h.17v1h-.11C10.15 26 9 27.05 9 28.02V31H8Zm34-3.12V31h1v-2.98c0-.97 1.15-2.02 2.23-2.02h.1v-1h-.16C43.42 25 42 26.29 42 27.88ZM17 31v-3.08c0-.98-1-1.92-1.98-1.92S13 26.94 13 27.92v.17c0 .98 1.04 1.91 2.02 1.91.2-.01.67-.09.92-.2l.4.94c-.28.08-.94.26-1.36.26h-.08a2.9 2.9 0 0 1-2.9-2.89V28a3 3 0 0 1 6 0V31h-1Zm30-3.1V34h-1v-6.02A2.99 2.99 0 0 1 49 25c1.66 0 3 1.33 3 2.98v.12A2.9 2.9 0 0 1 49.1 31h-.08c-.42 0-1.08-.18-1.36-.27l.43-.9c.24.12.7.17.89.18.98 0 2.02-.94 2.02-1.92v-.17c0-.98-1.04-1.91-2.02-1.91-.99 0-1.98.93-1.98 1.9ZM25 31v-1h3.61c.2 0 .37-.32.37-.51a.33.33 0 0 0-.19-.3l-2.98-1.47c-.5-.26-.81-.74-.81-1.27 0-.8.71-1.45 1.6-1.45h3.14v1h-3.32c-.25 0-.4.22-.4.45 0 .15.09.3.23.37l2.93 1.47c.5.26.82.74.82 1.27 0 .8-.7 1.44-1.58 1.44H25Zm9.48-5.61a3 3 0 1 0 0 5.23 4.12 4.12 0 0 1-.57-.84 2 2 0 1 1 0-3.57c.15-.3.34-.57.57-.82Zm1.54.36.75.81a1.89 1.89 0 1 0 2.41-.04l.76-.81a3 3 0 1 1-3.92.04Zm2.7.25h-1.25l1.1-2h1.3l-1.16 2ZM19 31v-3.7c0-1.27 1.12-2.3 2.5-2.3s2.5 1.03 2.5 2.3V31h-1v-3.64c0-.93-.92-1.36-1.55-1.36S20 26.58 20 27.36V31h-1Z" fill="#fff"/><defs><linearGradient id="abmtyfb2e" x1="10.42" y1="9.71" x2="68.15" y2="76.02" gradientUnits="userSpaceOnUse"><stop stop-color="#1A1E21"/><stop offset="1" stop-color="#06060A"/></linearGradient></defs></svg>