<!-- by TradingView --><svg width="56" height="56" viewBox="0 0 56 56" xmlns="http://www.w3.org/2000/svg"><path fill="#004A71" d="M0 0h56v56H0z"/><path fill-rule="evenodd" d="M30.34 37c8.28 0 13.8-2.33 15.54-3.5-14.03 5.97-35.5 1.38-35.5-5.92s16.07-9.06 21.09-9.06c3.12 0 5.9.42 7.57.77a1 1 0 1 0-.04-.3c-1.51-.48-4.52-.99-9.79-.99C19.76 18 7 21.13 7 27.58S20 37 30.34 37ZM14 23.74v5.61c0 1.46 1.06 2.65 2.37 2.65h5.26c1.31 0 2.37-1.19 2.37-2.65v-5.61c0-.41-.3-.74-.66-.74h-.25c-.36 0-.65.33-.65.74v5.46c0 .73-.53 1.32-1.19 1.32h-4.49c-.65 0-1.18-.59-1.18-1.32v-5.46c0-.41-.3-.74-.66-.74h-.26c-.37 0-.66.33-.66.74Zm12-.08v7.76c0 .32.26.58.57.58h7.22c2.1 0 3.21-1.27 3.21-2.56 0-1.04-.52-1.7-.79-1.89.27-.3.79-1.09.79-1.86 0-1.9-1.65-2.53-2.47-2.6h-7.96a.57.57 0 0 0-.57.57Zm8.1.66h-6.48v2.57h6.47c.7 0 1.27-.58 1.27-1.28 0-.71-.57-1.29-1.27-1.29Zm0 3.73h-6.48v2.56h6.47c.7 0 1.27-.57 1.27-1.28 0-.7-.57-1.28-1.27-1.28Zm3.9 1.61v-6.08c0-.32.26-.58.57-.58h.56c.32 0 .57.26.57.58v5.84c0 .57.45 1.03 1 1.03h6.73c.31 0 .57.26.57.58v.39c0 .32-.26.58-.57.58h-7.15A2.31 2.31 0 0 1 38 29.66Z" fill="#fff"/></svg>