<!-- by TradingView --><svg width="56" height="56" viewBox="0 0 56 56" fill="none" xmlns="http://www.w3.org/2000/svg">
<rect width="56" height="56" fill="#F0F3FA"/>
<rect x="17" y="11" width="22" height="34" fill="#00A551"/>
<path d="M19 41.9145L27.7202 11.401L37 41.9145V44.53H19V41.9145Z" fill="#F0F3FA"/>
<path fill-rule="evenodd" clip-rule="evenodd" d="M21.1906 40C21.2133 38.374 21.865 34.8367 24.2894 33.4371C23.9172 33.1283 23.3005 32.3215 23.8109 31.5641C24.3213 30.8066 25.178 30.8642 25.5426 30.9877V24.5454H27V34.425C25.7924 34.4251 23.6149 35.4883 24.4717 40H21.1906ZM25.3868 31.6441C25.0716 31.4586 24.3823 31.2635 24.1467 31.9661C23.911 32.6687 24.4929 32.9419 24.8133 32.9907L25.1698 32.6541L24.8133 32.3027C24.5342 32.415 24.0599 32.5047 24.3947 31.9661C24.5084 31.8099 24.866 31.5914 25.3868 31.9661V31.6441Z" fill="#00A551"/>
<path fill-rule="evenodd" clip-rule="evenodd" d="M34.7011 40C34.6789 38.374 34.0431 34.8367 31.6778 33.4371C32.0409 33.1283 32.6426 32.3215 32.1447 31.5641C31.6467 30.8066 30.8109 30.8642 30.4552 30.9877V24.5454H29V34.425C30.1782 34.4251 32.3358 35.4883 31.5 40H34.7011ZM30.505 31.6441C30.8202 31.4586 31.5095 31.2635 31.7451 31.9661C31.9808 32.6687 31.3989 32.9419 31.0785 32.9907L30.722 32.6541L31.0785 32.3027C31.3576 32.415 31.8319 32.5047 31.4971 31.9661C31.3834 31.8099 31.0258 31.5914 30.505 31.9661V31.6441Z" fill="#00A551"/>
<path d="M25.9952 19.2272V28.8424H26.5048V18.9007L25.9952 19.2272Z" fill="#00A551"/>
<path fill-rule="evenodd" clip-rule="evenodd" d="M26.5548 18.8093V28.8924H25.9452V19.1999L26.5548 18.8093ZM26.0452 19.2545V28.7924H26.4548V18.9921L26.0452 19.2545Z" fill="black"/>
<path d="M29.9768 19.2272V28.8585H29.4672V18.9007L29.9768 19.2272Z" fill="#00A551"/>
<path fill-rule="evenodd" clip-rule="evenodd" d="M29.4172 18.8093V28.9085H30.0268V19.1999L29.4172 18.8093ZM29.9268 19.2545V28.8085H29.5172V18.9921L29.9268 19.2545Z" fill="black"/>
<path d="M27.4882 24.0268L27.6161 14.4821L28.1279 15.9561L28.5118 24.0268H27.4882Z" fill="#00A551"/>
<path fill-rule="evenodd" clip-rule="evenodd" d="M27.5661 14.4815L27.6633 14.4657L28.1775 15.9465L28.5642 24.0768H27.4375L27.5661 14.4815ZM27.6623 14.7676L27.5388 23.9768H28.4593L28.0783 15.9657L27.6623 14.7676Z" fill="black"/>
<rect x="27.4882" y="24.0268" width="1.02363" height="5.35636" rx="0.511813" fill="#35363A"/>
<path fill-rule="evenodd" clip-rule="evenodd" d="M28 31.3316C28.3714 31.3316 28.7223 30.9699 28.7223 30.4574C28.7223 29.9448 28.3714 29.5831 28 29.5831C27.6286 29.5831 27.2777 29.9448 27.2777 30.4574C27.2777 30.9699 27.6286 31.3316 28 31.3316ZM28 31.5316C28.5094 31.5316 28.9223 31.0507 28.9223 30.4574C28.9223 29.8641 28.5094 29.3831 28 29.3831C27.4906 29.3831 27.0777 29.8641 27.0777 30.4574C27.0777 31.0507 27.4906 31.5316 28 31.5316Z" fill="#35363A"/>
<path d="M28.678 35.3504L29.1535 35.8261L29.8257 35.9839L29.9856 36.6203L30.4843 37.0743L30.2858 37.701L30.4772 38.3296L29.9734 38.7786L29.8063 39.4134L29.1323 39.5644L28.6515 40.0353L27.9878 39.8478L27.322 40.0286L26.8465 39.5529L26.1743 39.3951L26.0144 38.7587L25.5157 38.3046L25.7142 37.678L25.5228 37.0493L26.0266 36.6003L26.1937 35.9655L26.8677 35.8146L27.3485 35.3437L28.0122 35.5312L28.678 35.3504Z" fill="#00A551"/>
<path fill-rule="evenodd" clip-rule="evenodd" d="M22.4994 41H21V44H22.4994C23.3278 44 23.9994 43.3284 23.9994 42.5C23.9994 41.6716 23.3278 41 22.4994 41ZM22.3513 41.5513H21.7V43.4486H22.3513C22.8753 43.4486 23.3 43.0239 23.3 42.5C23.3 41.976 22.8753 41.5513 22.3513 41.5513Z" fill="#00A551"/>
<path d="M24.3 41H25V44H24.3V41Z" fill="#00A551"/>
<path fill-rule="evenodd" clip-rule="evenodd" d="M30.9705 44C31.9645 44 32.7703 43.3284 32.7703 42.5C32.7703 41.6716 31.9645 41 30.9705 41C29.9765 41 29.1707 41.6716 29.1707 42.5C29.1707 43.3284 29.9765 44 30.9705 44ZM30.9705 43.5183C31.5565 43.5183 32.0316 43.0624 32.0316 42.5C32.0316 41.9376 31.5565 41.4817 30.9705 41.4817C30.3844 41.4817 29.9093 41.9376 29.9093 42.5C29.9093 43.0624 30.3844 43.5183 30.9705 43.5183Z" fill="#00A551"/>
<path fill-rule="evenodd" clip-rule="evenodd" d="M28.8744 43.1211C28.591 43.6396 27.9638 44 27.2356 44C26.2416 44 25.4358 43.3284 25.4358 42.5C25.4358 41.6716 26.2416 41 27.2356 41C27.9574 41 28.58 41.3542 28.8668 41.8654C28.7185 41.9008 28.4266 41.9772 28.1612 42.0478C27.9823 41.7485 27.6321 41.5452 27.2293 41.5452C26.6448 41.5452 26.1709 41.9735 26.1709 42.5019C26.1709 43.0302 26.6448 43.4585 27.2293 43.4585C27.6518 43.4585 28.0165 43.2348 28.1863 42.9112C28.3973 42.9748 28.6593 43.0549 28.8744 43.1211Z" fill="#00A551"/>
<path d="M33 41V44H33.7V42.0062L35.2182 44H36.0006V41H35.3V43.0093L33.7916 41H33Z" fill="#00A551"/>
</svg>
