<!-- by TradingView --><svg width="56" height="56" viewBox="0 0 56 56" xmlns="http://www.w3.org/2000/svg"><path fill="#F0F3FA" d="M0 0h56v56H0z"/><path d="M6.2 26c.39-3.5.03-4.8-.2-5 2.43.42 1.96 5.23 2 6.2.04.97.05 4.07 2.76 4.07 2.17 0 4.4-2.98 5.24-4.47v6a.2.2 0 0 1-.2.2h-1.6a.2.2 0 0 1-.2-.2v-1.4a5.64 5.64 0 0 1-3.98 1.6c-3.31-.2-4.3-2.6-3.82-7Z" fill="#334752"/><path d="M23.8 28c-.39 3.5-.03 4.8.2 5-2.43-.42-1.96-5.23-2-6.2-.04-.97-.05-4.07-2.76-4.07-2.17 0-4.4 2.98-5.24 4.47v-6c0-.11.09-.2.2-.2h1.6c.11 0 .2.09.2.2v1.4a5.64 5.64 0 0 1 3.98-1.6c3.31.2 4.3 2.6 3.82 7Z" fill="#74A700"/><rect x="26" y="21" width="2" height="12" rx=".2" fill="#334752"/><rect x="26" y="17" width="2" height="2" rx=".2" fill="#334752"/><path d="M32 21v-1.8c0-.11.09-.2.2-.2h1.6c.11 0 .2.09.2.2V21h2.8c.11 0 .2.09.2.2v1.6a.2.2 0 0 1-.2.2H34v6.3c-.06 2.2 1.63 2.32 2.74 2.06.13-.03.26.07.26.2v1.07c0 .07-.04.14-.12.17-.4.14-1.06.2-1.51.2-2.75-.02-3.4-2.12-3.37-3.17V23h-1.38a.2.2 0 0 1-.2-.2v-1.6c0-.11.1-.2.2-.2H32ZM43.07 33 38.5 21.28a.2.2 0 0 1 .19-.27h1.96a.2.2 0 0 1 .19.13L44.26 30l3.59-8.89a.2.2 0 0 1 .19-.12h1.66a.2.2 0 0 1 .19.28l-7.15 17.6a.2.2 0 0 1-.18.12h-1.91a.2.2 0 0 1-.19-.28l2.6-5.71ZM24 35h.5v1.3c.2-.19.46-.3.74-.3.68 0 1.23.67 1.23 1.5s-.55 1.5-1.23 1.5c-.28 0-.53-.1-.74-.3v.01l-.24.29H24v-4Zm.5 3.24c.16.2.38.31.62.31.47 0 .86-.47.86-1.05 0-.58-.39-1.05-.86-1.05a.8.8 0 0 0-.62.31v1.48Z" fill="#334752"/><path fill-rule="evenodd" d="M28.1 36.3c.14-.12.52-.3 1.02-.3.6 0 1.06.32 1.09 1.18v1.15c0 .09.07.3.24.38V39c-.2 0-.61-.06-.7-.38-.1.12-.42.35-.86.38-.56.03-.88-.42-.89-.88-.01-.46.47-1.2 1.68-1 .02-.22-.08-.68-.56-.67-.49 0-.72.19-.78.28l-.24-.44Zm1.59 1.22v.66c-.06.11-.28.33-.68.36-.4.04-.51-.3-.51-.46 0-.26.24-.73 1.19-.56Z" fill="#334752"/><path d="M32.24 39v-3h.37l.16.42c.26-.35.67-.43.84-.42.75 0 .91.65.9.98V39H34v-1.89c-.01-.3-.16-.64-.57-.64a.87.87 0 0 0-.66.33V39h-.53ZM36.48 39v-4H37v2.28L38.04 36h.63l-.9 1.06L38.9 39h-.58l-.89-1.59-.43.43V39h-.52Z" fill="#334752"/></svg>