<!-- by TradingView --><svg width="56" height="56" viewBox="0 0 56 56" xmlns="http://www.w3.org/2000/svg"><path fill="#F0F3FA" d="M0 0h56v56H0z"/><path fill-rule="evenodd" d="M16.48 13.01s-1.55-.1-1.87.3c-.36.39-1.61 1.83-1.61 4.4 0 2.2 1.06 2.36 1.06 2.36s-1.03.95-1.06 1.44v.35c0 2.09 0 12.47.02 12.93.04.49 1.98 4.62 6.11 6.94 1.39.78 2.7 1.4 3.87 1.97 2.33 1.12 4.14 2 5 3.3.86-1.3 2.67-2.17 5-3.3 1.18-.56 2.5-1.19 3.88-1.97 4.14-2.32 6.14-6.45 6.11-6.94-.03-.44 0-8.84 0-12.06L43 21.5c-.03-.5-1.07-1.44-1.07-1.44S43 19.9 43 17.7c0-2.57-1.24-4-1.6-4.4-.35-.39-1.9-.29-1.9-.29-1.03-.03-.74 1.02-.13 1.58.61.55.95 1.07.95 2.13 0 1.06-.91 1.62-2.14 1.6-1.23-.04-1.6-2.13-1.6-2.66 0-1.6-.79-2.13-1.08-2.13-.26 0-1.07.53-1.07 2.13 0 .53-.46 2.65-1.6 2.65-1.08 0-2.69-.53-2.69-1.6 0-.67.75-1.73 1.28-2.48.3-.42.53-.75.52-.86a4.22 4.22 0 0 1-.24-.09c-.29-.12-.67-.27-1.1-.28-.56 0-1.19.25-1.8 1-.45.55-.68 1-.8 1.66-.1-.66-.33-1.1-.82-1.66-.59-.73-1.2-1-1.75-1-.47 0-.88.17-1.18.29l-.2.08c-.01.13.24.48.56.93.53.74 1.25 1.74 1.25 2.38 0 1.1-1.61 1.63-2.68 1.63s-1.6-1.84-1.6-3.18c0-1.07-.82-1.54-1.08-1.54-.26 0-1.07.47-1.07 1.54 0 .78-.38 3.12-1.6 3.18-1.24.03-2.15-.53-2.15-1.6 0-1.05.32-1.6.93-2.12.62-.6.9-1.62-.13-1.59Zm12.6 28.68s.53 1.06 1.6 1.06 1.25-.18 1.6-1.06h-3.2Zm-5.37 0h3.22s-.54 1.06-1.6 1.06c-1.08 0-1.26-.18-1.62-1.06Zm4.29-6.9s-.94.95-1.13 2.1c-.2 1.1-.48 2.67-1.82 2.67s-2.4-.84-2.1-2.19c.15-.7.65-.97 1.1-1.2.39-.22.74-.4.74-.85 0-.36-.96-.56-1.46-.53-.76.03-1.64.3-1.97.97a6.52 6.52 0 0 0-.32 5.42c-1.75-.46-6.75-4.4-7.04-6.4V22.58c-.15-2.01 2.82-2.46 4.34-2.57h6.16c1 0 3 0 3.4-.96.04-.2.07-.42.1-.72.03.3.06.56.1.72.16.81 1.37.9 2.79.96h4.61c1.8 0 6.58 0 6.5 2.57v12.22c-.3 2-5.2 5.9-6.97 6.37.93-2.23.07-4.31-.48-5.4-.34-.7-1.29-.97-2.06-.97-.46-.01-1.28.14-1.28.53 0 .23.3.46.64.73.44.34.96.74 1.12 1.32.3 1.35-.79 2.2-2.26 2.2-1.3 0-1.37-.97-1.44-1.94-.02-.25-.03-.5-.07-.75-.13-1.14-1.2-2.1-1.2-2.1ZM16 23h4.5v.53h-.77s-.3.1-.3.65v6.63S19.15 33 21.29 33C22.9 33 23 31 23 31v-6.48s-.1-.99-1.23-.99V23H25v.73s-1-.24-1 .9v6.18c0 .3-.03 3.2-3.19 3.19-3.27 0-3.66-1.53-3.81-3.07v-6.6c0-.28.01-.8-1-.8V23Zm15.24 0H26.4v.57a.93.93 0 0 1 1.07.91v7.93c0 1.15-1.46 1.06-1.46 1.06V34h5.72v-.53c-1.47.07-1.72-1.06-1.72-1.06v-2.98l.34-.01c2.83-.1 5.16-.17 5.16-3.23C35.5 23 31.34 23 31.24 23Zm1.05 3.19c0 2.12-2.29 2.12-2.29 2.12v-4.25c.54 0 2.29 0 2.29 2.13Zm1.48 6.4v.86c0 .21.02.45.28.45h.12v.1H33v-.1h.09c.27 0 .28-.24.28-.45v-1.93c0-.29-.06-.46-.37-.46V31h1.02c.51 0 1 .25 1 .84 0 .48-.3.8-.8.8-.08 0-.15-.01-.23-.03l-.22-.03Zm0-.14h.31c.32 0 .48-.3.48-.58 0-.32-.18-.7-.55-.7h-.04c-.05 0-.11 0-.2.02v1.26Zm4.27.73H38l-.02.05c-.13.36-.24.64-.7.64h-.03c-.3 0-.53 0-.53-.36V31.5c0-.26 0-.4.32-.4V31h-1v.1c.3 0 .32.05.32.4v1.99c0 .18.01.41-.22.41h-.1v.1h1.81l.2-.82Zm3-1.18h-.06c-.15-.46-.46-.88-.98-.88-.4 0-.7.29-.85.65-.09.22-.12.46-.12.77 0 .64.33 1.27 1.04 1.27.42 0 .7-.26.94-.59l.06.03c-.15.25-.3.43-.49.56-.18.12-.4.19-.67.19-.82 0-1.34-.68-1.34-1.46 0-.27.06-.55.19-.77.24-.5.67-.77 1.21-.77.22 0 .43.1.64.19.03 0 .05.02.06.03l.06.03c.09 0 .14-.08.18-.15l.07-.1.06 1Zm-4.47-13.68c0 .59-.48 1.06-1.07 1.06-.6 0-1.07-.47-1.07-1.06 0-.58.48-1.06 1.07-1.06.6 0 1.07.48 1.07 1.06Zm-15 0c0 .59-.48 1.06-1.07 1.06-.6 0-1.07-.47-1.07-1.06 0-.58.48-1.06 1.07-1.06.6 0 1.07.48 1.07 1.06Z" fill="#341E80"/></svg>