<!-- by TradingView --><svg width="56" height="56" viewBox="0 0 56 56" xmlns="http://www.w3.org/2000/svg"><path fill="#F0F3FA" d="M0 0h56v56H0z"/><path d="M17.47 32.6A7.15 7.15 0 0 1 12.1 35 7.06 7.06 0 0 1 5 28c0-3.87 3.18-7 7.11-7a7.14 7.14 0 0 1 5.73 2.85l-1.68 2.43a4.5 4.5 0 1 0-.13 3.72h-2.46l.25-2h6.13l-.64 7h-1.84v-2.4Zm.63-5.1h2.54l.37-3h2.81c.48.01 1.44.23 1.44 1.36 0 1.42-1.5 1.64-2.2 1.64h-2.19l-.42 2.5h1.68l2.34 5h11.48l.3-2.5h-5.87l.32-3h5.38l.36-2.5h-5.48l.26-2.5h5.98l.5-2.5H29.1l-1.64 12.77-2.77-5.15c1.51-.64 3.23-2.06 3.23-4.43 0-2.61-2.95-3.22-4.43-3.19h-4.77l-.63 5.5ZM40.75 35l1.67-13H51l-.5 2.5h-5.97l-.28 2.5h5.5l-.36 2.5h-5.41l-.6 5.5h-2.63Zm-2.06-13-1.52 13h2.51l1.53-13h-2.52Z" fill="#237650"/></svg>