<!-- by TradingView --><svg width="56" height="56" viewBox="0 0 56 56" xmlns="http://www.w3.org/2000/svg"><path fill="#991988" d="M0 0h56v56H0z"/><path fill-rule="evenodd" d="M20.24 18.28a.52.52 0 0 0-.68-.23.5.5 0 0 0-.23.67l5.1 10.06-3.31 6.86a.2.2 0 0 1-.36 0l-8.8-17.36a.52.52 0 0 0-.68-.23.5.5 0 0 0-.23.67l9.7 18.92a.2.2 0 0 0 .36 0l3.81-7.87.49.95-4.02 8.19a.2.2 0 0 0 0 .18l1.32 2.56a.2.2 0 0 0 .36 0l3.89-7.87.36.71-4 7.79a.5.5 0 0 0 .22.67c.25.12.56.02.69-.23l3.64-7.14 1.05 2.06a.2.2 0 0 0 .35 0l9.08-18.53a.2.2 0 0 1 .18-.11h.59a.2.2 0 0 1 .18.29L29.66 38.9a.2.2 0 0 0 0 .18l1.32 2.56a.2.2 0 0 0 .36 0L42.5 19.1a.2.2 0 0 1 .18-.11h.58a.2.2 0 0 1 .18.3L31.59 42.27a.5.5 0 0 0 .22.67c.26.12.56.02.69-.23L44.98 18.3a.2.2 0 0 0-.18-.29h-2.65a.2.2 0 0 0-.18.11L31.34 39.65a.2.2 0 0 1-.36 0l-.29-.56a.2.2 0 0 1 0-.18l10.16-20.62a.2.2 0 0 0-.18-.29H38a.2.2 0 0 0-.18.11l-8.55 17.53a.2.2 0 0 1-.36 0l-.53-1.06 8.31-16.29a.2.2 0 0 0-.17-.29h-2.65a.2.2 0 0 0-.18.11l-6.73 13.63-.51-1.03 6.11-12.42a.2.2 0 0 0-.17-.29h-2.66a.2.2 0 0 0-.18.11l-4.62 9.58-4.7-9.41Zm5.2 10.4.49.98 5.1-10.37a.2.2 0 0 0-.19-.29h-.58a.2.2 0 0 0-.18.11l-4.64 9.58Zm.5 3.09-3.52 7.14a.2.2 0 0 0 0 .18l.3.56a.2.2 0 0 0 .35 0l3.38-6.87-.51-1.01Zm1.53.97.37.75 7.31-14.2a.2.2 0 0 0-.18-.29h-.58a.2.2 0 0 0-.18.11l-6.74 13.63Z" fill="#FFF3FF"/></svg>