<!-- by TradingView --><svg width="56" height="56" viewBox="0 0 56 56" xmlns="http://www.w3.org/2000/svg"><path fill="#B2BE36" d="M0 0h56v56H0z"/><path d="m8 32.7.01.3.01 1h4.91c.3 0 .54-.1.75-.3a1 1 0 0 0 .32-.75V30h-1.5v3h-3v-3s-1.38-.1-1.48.95l-.01 1.42-.01.33ZM21.87 30H15v4h1.5v-3h1.75v3h1.5v-3h1.75v3H23v-2.95a.99.99 0 0 0-.33-.75c-.22-.2-.49-.3-.8-.3ZM37.87 30H31v4h1.5v-3h1.75v3h1.5v-3h1.75v3H39v-2.95a.99.99 0 0 0-.33-.75c-.22-.2-.49-.3-.8-.3ZM30 31v-1h-4.93c-.3 0-.54.1-.76.3a1 1 0 0 0-.31.75v1.9A1.06 1.06 0 0 0 25.07 34H30v-1h-4.5v-.5H30v-1h-4.5V31H30ZM48 33h-6.5v-.5H46v-1h-4.5V31H46c-.11-.7-.5-1-1.4-1h-3.52c-.3 0-.55.1-.76.3a1 1 0 0 0-.32.75v1.9c0 .29.1.54.32.74.21.2.47.31.76.31H48v-1Z" fill="#FEFFFD"/><path d="M40.49 14a7.5 7.5 0 0 0-5.86 12.18l2.14-3.06c.3-.5.6-1 1.26-1h.13c.93 0 1.7-.89 2.12-.89.1 0 .16.04.22.13.15.43-.83.7-1.05 1.23.2.45.55.76.88.84.07.03.15.04.24.04.4 0 .93-.22 1.12-.4.21-.2.82-1.27 1.27-1.27.08 0 .15.03.21.1-.43.93-.88 1.52-.86 1.52-.57.4-1 .65-1.41.84a.43.43 0 0 1-.19.03c-.51 0-1.57-.49-2.4-.49-.15 0-.29.02-.42.06-.6.16-1.58 1-3.14 2.46a7.48 7.48 0 0 0 13.24-4.82 7.5 7.5 0 0 0-7.5-7.5Z" fill="url(#aknat3zzi)"/><path d="M40.5 14a7.5 7.5 0 0 0-5.86 12.18v.01l.09.1.06.08A7.5 7.5 0 1 0 40.5 14Zm0 14.9a7.4 7.4 0 0 1-5.67-2.63l-.12-.15a7.41 7.41 0 1 1 5.78 2.79Z" fill="#fff"/><path d="m47.6 22.19-5.34-.3 4.8-2.5-5.02 1.9 2.58-3.09.97-1.16-1.13 1.07-2.87 2.73 1.71-5.4-2.27 5.14-.18-4.37-.06-1.33-.37 5.7-2.28-5.15 1.79 5.4-3.98-3.8 3.58 4.27-5.07-1.9 4.87 2.5-5.75.62 5.82.12.27.88 1.41.21.74-.47.44-.75 5.33-.32Z" fill="url(#bknat3zzi)"/><path d="M40.9 24.2c.4-.2.82-.44 1.38-.83-.02 0 .42-.57.85-1.47-.43-.5-1.22.9-1.46 1.14-.22.2-.96.49-1.32.35a1.36 1.36 0 0 1-.86-.83c.22-.51 1.18-.77 1.02-1.19-.32-.54-1.2.79-2.34.74-.68-.03-1 .47-1.3.98l-2.08 2.97.12.15c1.52-1.43 2.48-2.24 3.06-2.4.92-.28 2.48.6 2.93.39Z" fill="#231F20"/><defs><linearGradient id="aknat3zzi" x1="38.84" y1="14.32" x2="40.72" y2="22.48" gradientUnits="userSpaceOnUse"><stop stop-color="#E4E6BD"/><stop offset=".02" stop-color="#E1E3B5"/><stop offset=".14" stop-color="#D5D894"/><stop offset=".27" stop-color="#CAD078"/><stop offset=".39" stop-color="#C1C95F"/><stop offset=".52" stop-color="#BBC44B"/><stop offset=".66" stop-color="#B6C13D"/><stop offset=".82" stop-color="#B4BF37"/><stop offset="1" stop-color="#B3BE35"/></linearGradient><linearGradient id="bknat3zzi" x1="33.82" y1="21.91" x2="46.82" y2="22.09" gradientUnits="userSpaceOnUse"><stop offset=".26" stop-color="#fff"/><stop offset=".32" stop-color="#FFFFFB"/><stop offset=".37" stop-color="#FEFDEF"/><stop offset=".42" stop-color="#FEFCDB"/><stop offset=".48" stop-color="#FDF9BF"/><stop offset=".53" stop-color="#FCF59B"/><stop offset=".59" stop-color="#FAF16F"/><stop offset=".64" stop-color="#F8EC3C"/><stop offset=".65" stop-color="#F8EB32"/></linearGradient></defs></svg>