<!-- by TradingView --><svg width="56" height="56" viewBox="0 0 56 56" xmlns="http://www.w3.org/2000/svg"><path fill="url(#a)" d="M0 0h56v56H0z"/><path d="M42 28.26c0 1.11.81 1.73 1.86 1.74h.49A1.7 1.7 0 0 0 46 28.26v-1.43c0-.1.03-.19.09-.26a.33.33 0 0 1 .23-.1h2.03a.31.31 0 0 1 .23.1c.06.07.1.16.1.26V32H50v-5.18c0-.48-.17-.94-.48-1.29a1.64 1.64 0 0 0-1.16-.53H46.3a1.55 1.55 0 0 0-1.16.53c-.3.35-.48.81-.48 1.29v1.22c0 .33-.27.58-.6.58-.36 0-.74-.18-.74-.58v-1.22c0-.48-.17-.94-.48-1.29A1.64 1.64 0 0 0 41.7 25h-2.04a1.55 1.55 0 0 0-1.17.53c-.3.35-.48.81-.48 1.29V32h1.33v-5.17c0-.1.03-.19.1-.26a.33.33 0 0 1 .23-.1h2.02a.33.33 0 0 1 .23.1c.06.07.09.16.09.26v1.43ZM28.5 29l1.03 1.53h6.19c.2 0 .28-.18.28-.36v-3.34c0-.19-.09-.36-.28-.36h-6.19L28.5 28h-2.58l-1.03-1.53H18.7a.3.3 0 0 0-.23.1.4.4 0 0 0-.1.26v3.34c0 .1.04.19.1.26a.33.33 0 0 0 .23.1h6.2L25.91 29h2.58ZM7.92 30.53a.4.4 0 0 1-.3-.13.5.5 0 0 1-.03-.64.42.42 0 0 1 .29-.16l6.92-.77a1.6 1.6 0 0 0 1.06-.59c.27-.34.43-.77.43-1.22v-.2c0-.48-.18-.94-.48-1.29a1.64 1.64 0 0 0-1.17-.53H6v1.47h8.37c.1 0 .21.04.3.13.07.08.12.2.12.31a.5.5 0 0 1-.1.33.4.4 0 0 1-.28.16l-6.93.77c-.4.05-.78.26-1.05.59-.28.34-.43.77-.43 1.22v.2c0 .48.17.94.48 1.29a1.64 1.64 0 0 0 1.17.53H16v-1.47H7.92Zm19.3-.86L25.51 32H18.7a1.55 1.55 0 0 1-1.17-.53 2 2 0 0 1-.53-1.29v-3.36c0-.48.22-.94.53-1.29A1.64 1.64 0 0 1 18.7 25h6.83l1.68 2.33L28.9 25h6.84a1.55 1.55 0 0 1 1.16.53c.31.35.48.81.48 1.29v3.36c0 .48-.17.94-.48 1.29a1.64 1.64 0 0 1-1.16.53h-6.84l-1.68-2.33Z" fill="#fff"/><defs><linearGradient id="a" x1="10.39" y1="4.59" x2="39.92" y2="56" gradientUnits="userSpaceOnUse"><stop stop-color="#2A4B8E"/><stop offset="1" stop-color="#192249"/></linearGradient></defs></svg>