<!-- by TradingView --><svg width="56" height="56" viewBox="0 0 56 56" fill="none" xmlns="http://www.w3.org/2000/svg">
<rect width="56" height="56" fill="#F0F3FA"/>
<path fill-rule="evenodd" clip-rule="evenodd" d="M31.3831 9C31.3831 9 9.09967 20.5287 9 30.3842C8.98948 31.424 9.29928 32.4452 9.83304 33.4323C14.6801 42.3508 30.8619 35.6057 32.2787 34.7813C33.2481 34.2566 43.8371 29.3102 36.6783 16.7943C35.3361 14.546 33.993 11.9229 31.3831 9Z" fill="#D3D800"/>
<path fill-rule="evenodd" clip-rule="evenodd" d="M37.2062 14C37.2062 14 8.16939 21.4635 11.2266 32.7334C13.9109 42.5107 31.1356 39.7492 32.7015 39.3013C33.82 39.0028 45.2285 36.7638 41.202 22.8816C40.3818 20.344 39.0704 17.4332 37.2062 14Z" fill="#B3B788"/>
<path fill-rule="evenodd" clip-rule="evenodd" d="M35.3485 14.5216C27.4978 16.7124 11.0019 22 11.0019 31.2778C11.0019 33.5 12.1881 35.8306 13.9613 37.2748C20.7866 39.6747 31.0245 35.3998 32.1621 34.7998C33.1479 34.2748 43.9167 29.3248 36.6364 16.8C36.2572 16.2 35.7277 15.1216 35.3485 14.5216Z" fill="#999E03"/>
<path fill-rule="evenodd" clip-rule="evenodd" d="M42.5942 21.0022C42.5942 21.0022 12.943 20.5601 12.943 32.1285C12.943 42.1494 27.7422 43.9915 31.7063 43.9915C32.81 43.9915 44.2887 44.802 43.9944 30.5811C43.9944 27.9285 43.4772 24.7601 42.5942 21.0022Z" fill="#575755"/>
<path fill-rule="evenodd" clip-rule="evenodd" d="M18 30L18 35H19L19 32L20.5 34L22 31.9333V35H23V30H21.7162L20.5 32L19.2838 30H18Z" fill="#F0F3FA"/>
<path fill-rule="evenodd" clip-rule="evenodd" d="M27.1925 35H26L28.385 30H29.5774L31.9623 35H30.5463L30.1194 34H27.6803L27.1925 35ZM28.1681 33H29.6926L28.9812 31.3333L28.1681 33Z" fill="#F0F3FA"/>
<path fill-rule="evenodd" clip-rule="evenodd" d="M38.8644 30.6084L38.3221 31.3396C38.3221 31.3396 36.4238 30.3425 36.356 31.2067C36.2882 32.0043 39 31.7384 39 33.4002C39 34.3972 38.0509 35.0619 36.9661 34.9954C36.2882 34.9954 35.5424 34.7296 35 34.1978L35.6102 33.4666C35.6102 33.4666 37.6441 34.5302 37.7797 33.666C37.9153 32.7355 35.1356 33.3337 35.1356 31.4725C35.1356 30.409 36 30.0102 37.0339 30.0102C37.5 30.0102 38.4577 30.2096 38.8644 30.6084Z" fill="#F0F3FA"/>
</svg>
