<!-- by TradingView --><svg width="56" height="56" viewBox="0 0 56 56" xmlns="http://www.w3.org/2000/svg"><path fill="#F0F3FA" d="M0 0h56v56H0z"/><path d="M9 38.63 23 38l19 3H11.84L9 38.63Z" fill="#7C7B7B"/><path d="M39.56 40 35.7 28.85l-5.47 5.8-.99-3.15 8.81-12.4.1-.1 1.16 1.94 1.08 1.54L42 38.42 39.56 40ZM35 14.98a2 2 0 1 1 0 .01" fill="#EA8D00"/><path d="M18 14.97a1.99 1.99 0 0 1 3.11-1.63A2 2 0 1 1 18 14.99M15.97 22.08l4.19-2.25 9.56 11.66.87 3.51h-4.77l1.37-3.74-5.04-4.1-2.67 10.86-2.62 1.5-.89-17.44Z" fill="#CE470A"/></svg>