<!-- by TradingView --><svg width="56" height="56" viewBox="0 0 56 56" xmlns="http://www.w3.org/2000/svg"><path fill="#FFC325" d="M0 0h56v56H0z"/><ellipse cx="28" cy="28" rx="24" ry="10" fill="#006891"/><path d="M14.69 23 12.1 33h2.59l1.59-6.1V33h2.08l3.21-6.1-1.46 6.1h2.42l2.42-10h-3.8l-2.79 5.79V23H14.7ZM34.63 23l-2.52 10h2.4l1.32-5.46L37.5 33h2.53l2.55-10h-2.55l-1.62 5.6-1.2-5.6h-2.58Z" fill="#fff"/><path d="m25.26 25 .8-2h7.87l-.78 2h-2.47l-1.46 6h-2.74l1.59-6h-2.81Z" fill="#FFC325"/><path d="m26.42 31.5-.4 1.5h2.77l.27-1.5h-2.64Z" fill="#F43E2F"/></svg>