<!-- by TradingView --><svg width="56" height="56" viewBox="0 0 56 56" xmlns="http://www.w3.org/2000/svg"><path fill="#F0F3FA" d="M0 0h56v56H0z"/><path fill-rule="evenodd" d="M5 24v8h1v-7h2.67c.76 0 1.33.74 1.33 1.5S9.43 28 8.67 28H7v1h.7l2.04 3H11l-2.1-3c1.2-.1 2.1-1.27 2.1-2.5 0-1.7-1-2.5-2.28-2.5H5Zm19.61 0H21v8h3.81c.8 0 2.19-.73 2.19-2.21a2.2 2.2 0 0 0-1.35-2.02c.84-.58.87-1.36.85-1.68A1.96 1.96 0 0 0 24.61 24ZM22 31v-6h1.89c.52 0 1.61.22 1.61 1.18 0 1.05-1 1.32-1.47 1.32H23v1h1.36c.56 0 1.64.13 1.64 1.26 0 .9-.84 1.2-1.27 1.24H22Zm19.34-4.62h-1.1v-.02c-.07-.47-.19-1.4-1.48-1.4-1.3 0-1.71.82-1.76 1.23-.05.27.32.93 2.24 1.4 1.92.47 2.22 1.67 2.26 2.22.07 1-.46 2.19-2.74 2.19-2.27 0-3.12-1.6-3.26-2.41h1.34c0 1.15 1.28 1.42 1.92 1.41.6.01 1.74-.19 1.74-1.09 0-.8-.78-1.04-1.82-1.35-.4-.12-.83-.25-1.27-.42A2.04 2.04 0 0 1 36 26.19c.03-.73.46-2.19 2.76-2.19s2.51 1.59 2.58 2.38Zm8.4 0h1v-.03c-.08-.8-.2-2.35-2.48-2.35-2.3 0-2.73 1.46-2.76 2.19 0 .44.13 1.44 1.4 1.95.45.17.88.3 1.28.42 1.03.31 1.82.54 1.82 1.35 0 .9-1.13 1.1-1.74 1.09-.64.01-1.92-.26-1.92-1.41H45c.14.8.99 2.41 3.26 2.41 2.27 0 2.8-1.2 2.74-2.19-.04-.55-.34-1.75-2.26-2.22-1.92-.47-2.3-1.13-2.24-1.4.05-.4.46-1.22 1.76-1.22 1.29 0 1.4.92 1.47 1.4ZM30.74 24C29.23 24 28 25.31 28 26.93v2.14C28 30.7 29.23 32 30.75 32h.5c1.52 0 2.75-1.31 2.75-2.93v-2.14C34 25.3 32.77 24 31.25 24h-.5Zm.25 1c-1.1 0-2 .9-2 2.02v1.96c0 1.11.9 2.02 2 2.02s2-.9 2-2.02v-1.96c0-1.11-.9-2.02-2-2.02Zm13-1h-1v8h1v-8Z" fill="#243A6F"/><path d="M13 24h6v1h-6v-1Zm0 3.5h6v1h-6v-1Zm6 3.5h-6v1h6v-1Z" fill="#8FC040"/></svg>