<!-- by TradingView --><svg xmlns="http://www.w3.org/2000/svg" width="56" height="56"><path fill="#F0F3FA" d="M0 0h56v56H0z"/><path d="M14.06 24.39c0 6.5 4.82 7.72 7.26 7.61 6.43 0 6.71-5.7 6.68-7-.09-3.6.6-6.8 4.94-7 3.91-.18 10.04 4.56 10.04 10.04 0 4.38-.68 7.05-1.02 7.84A17.06 17.06 0 0044 28.04C44 17.9 35.37 12 28.33 12c-7.04 0-14.27 4.26-14.27 12.39z" fill="#EC1B2E"/><path d="M42 31.61c0-6.5-4.56-7.72-7-7.61-6.43 0-7 5.7-7 7 0 3.65-.6 6.8-4.94 7-3.91.18-10.04-4.56-10.04-10.04 0-4.38.68-7.05 1.02-7.84A17.06 17.06 0 0012 27.96C12 38.1 20.63 44 27.67 44 34.71 44 42 39.74 42 31.61z" fill="#00529C"/></svg>