<!-- by TradingView --><svg width="56" height="56" viewBox="0 0 56 56" xmlns="http://www.w3.org/2000/svg"><path fill="#F0F3FA" d="M0 0h56v56H0z"/><path fill-rule="evenodd" d="M4 24v8.48c0 .29.25.52.55.52H7.3c1.57-.02 4.71-1 4.71-4.75-.06-1.44-1.12-4.25-4.85-4.25H4Zm1 1v7h2.25C8.5 32 11 31.28 11 28.45c0-2.72-2.5-3.43-3.75-3.45H5Zm10-1v9h5.52c.21 0 .48-.2.48-.5a.5.5 0 0 0-.48-.5H16v-3h4.56c.2 0 .44-.22.44-.5s-.25-.5-.44-.5H16v-3h4.53c.2 0 .47-.2.47-.5s-.27-.5-.47-.5H15Zm26.52 9H36v-9h5.53c.2 0 .47.2.47.5s-.27.5-.47.5H37v3h4.56c.2 0 .44.22.44.5s-.25.5-.44.5H37v3h4.52c.21 0 .48.2.48.5s-.27.5-.48.5ZM24 24.4v8.22c0 .2.27.38.5.38.23 0 .5-.17.5-.38v-6.84l6.15 7.05c.1.1.23.17.38.17.26 0 .47-.2.47-.43v-8.19c0-.2-.27-.38-.5-.38-.23 0-.5.17-.5.38v6.87l-6.2-7.1a.46.46 0 0 0-.36-.15c-.24 0-.44.18-.44.4Zm21-.4v8.57c0 .24.2.43.44.43h3.75c.93 0 2.81-.57 2.81-2.6 0-1.62-1.2-2.07-1.91-2.14 1.15-.35 1.42-1.54 1.41-2.04 0-1.84-2.08-2.25-3.01-2.22H45Zm1 1v3h2.67c.61.02 1.83-.28 1.83-1.66 0-1.09-1.22-1.35-1.83-1.34H46Zm0 4v3h2.97c.68.02 2.03-.28 2.03-1.66 0-1.09-1.35-1.35-2.03-1.34H46Z"/><path d="M45.06 19.57c-.56.18-1.47.98-1.9 1.4a.09.09 0 0 1-.11.02c-.04-.03-.05-.07-.03-.1.44-.58 1.2-1.7 1.13-2.06a4.94 4.94 0 0 0-1.13-1.44.05.05 0 0 1 0-.08.07.07 0 0 1 .08 0c.88.56 1.56.71 1.8.72.4-.06 1.25-.68 1.66-1.01a.09.09 0 0 1 .1 0c.04.02.05.06.02.1-.6.74-.8 1.36-.83 1.58.03.4.73 1.14 1.13 1.5.03.02.03.07 0 .1a.08.08 0 0 1-.1 0 4.68 4.68 0 0 0-1.82-.73Z"/></svg>