<!-- by TradingView --><svg width="56" height="56" viewBox="0 0 56 56" xmlns="http://www.w3.org/2000/svg"><path fill="#F0F3FA" d="M0 0h56v56H0z"/><path d="M9 21v2.5h5.85c.99 0 1.65.63 1.65 1.63 0 1-.66 1.87-1.65 1.87H9v8h3.5v-5h3.2c2.33 0 4.3-2.25 4.3-4.63A4.4 4.4 0 0 0 15.7 21H9Z" fill="#C0A570"/><path d="M13 30.5h2.7c2.61 0 4.8-2.4 4.8-5.13 0-2.7-2.16-4.87-4.8-4.87H8.5V24h6.35c.29 0 .59.08.83.27.24.2.39.5.39.86 0 .32-.13.64-.32.89-.18.24-.5.48-.9.48H8.5v9H13v-5Zm.5 5.5H8V26h6.85c.4 0 .72-.47.72-.87s-.32-.63-.72-.63H8V20h7.7c2.92 0 5.3 2.4 5.3 5.37S18.62 31 15.7 31h-2.2v5ZM23.76 24.88c-1.14-1.22-.95-3.11-.72-3.88H27v1.03c0 .59.36 1.16.74 1.6l3.07 3.58A4.72 4.72 0 0 1 27.28 35H22v-3h4.44a1.77 1.77 0 0 0 1.26-3 357.78 357.78 0 0 1-3.94-4.12Z" fill="#C0A570"/><path d="M27.78 22.8a1.38 1.38 0 0 1-.28-.77V20.5h-4.87l-.11.4a5.34 5.34 0 0 0-.18 1.95c.07.79.34 1.68 1.01 2.41.68.74 2.35 2.47 3.95 4.13.38.4.41.92.25 1.33a1.2 1.2 0 0 1-1.11.78H21.5v4h5.78a5.24 5.24 0 0 0 3.95-8.65l-3.07-3.58a8.8 8.8 0 0 0-.06-.07c-.1-.1-.22-.25-.32-.4ZM21 36v-5h5.44c.62 0 .94-.81.5-1.26A357.4 357.4 0 0 1 23 25.6a4.57 4.57 0 0 1-1.15-2.7c-.08-.86.04-1.65.2-2.15l.22-.75H28v2.03c0 .3.25.6.46.83l.08.09 3.07 3.58A5.74 5.74 0 0 1 27.28 36H21ZM38.18 35 33.5 21h4.68l2.2 9.34L43.13 21h4.37l-4.58 14h-4.74Z" fill="#C0A570"/><path fill-rule="evenodd" d="M39.02 20H32l5.42 16h6.28L49 20h-6.66l-1.84 6.2-1.48-6.2Zm3.7.5-2.27 7.63-1.83-7.63H32.7l5.08 15h5.56l4.97-15h-5.6Z" fill="#C0A570"/></svg>