<!-- by TradingView --><svg width="56" height="56" viewBox="0 0 56 56" xmlns="http://www.w3.org/2000/svg"><path fill="#F0F3FA" d="M0 0h56v56H0z"/><path d="M19.2 19.24s1.83-1.64 4.41-3.45c3.21-2.26 7.6-4.79 11.15-4.79 4.05 0 8.24 3.69 8.24 8.24 0 4.55-4.2 8.24-8.24 8.24-3.54 0-8.23-3.91-11.15-5.49-2.58-1.82-4.4-2.75-4.4-2.75Zm9.12 0c1.81 1.16 4.34 3.6 6.44 3.6 1.83 0 3.24-2.05 3.24-3.6 0-1.54-1.4-3.09-3.24-3.09-2.1 0-4.63 1.94-6.44 3.1Z" fill="#040AA2"/><path d="M36.8 25.42s-2.08.76-4.66 2.58c-3.21 2.26-7.36 5.67-10.9 5.67-4.05 0-8.24-3.7-8.24-8.25s4.2-8.24 8.24-8.24c3.54 0 8.2 2.38 11.42 4.64a24.98 24.98 0 0 1 4.13 3.6Zm-9.12 0c-1.81-1.15-3.82-3.09-6.44-3.09a3.11 3.11 0 0 0-3.24 3.1c0 1.54 1.2 3.09 3.24 3.09 2.43 0 4.63-1.94 6.44-3.1Z" fill="#D5DFEC"/><path d="M19.2 30.63s1.82-1.65 4.4-3.48c3.2-2.27 7.58-4.82 11.12-4.82 4.04 0 8.22 3.72 8.22 8.3s-4.18 8.3-8.22 8.3c-3.54 0-7.65-3.5-10.86-5.78a19.85 19.85 0 0 0-4.65-2.52Zm9.1 0c1.8 1.16 4.2 3.04 6.42 3.04 1.83 0 3.28-1.44 3.28-3.04a3.3 3.3 0 0 0-3.28-3.15c-1.82 0-4.62 1.99-6.42 3.15Z" fill="#17215A"/><path d="M36.47 36.1c.43.34.43.97 0 1.32-.78.64-2.1 1.69-3.7 2.8C29.49 42.46 25.02 45 21.4 45c-4.13 0-8.4-3.69-8.4-8.24 0-4.55 4.27-8.24 8.4-8.24 3.62 0 8.1 2.52 11.37 4.78 1.6 1.1 2.92 2.15 3.7 2.8Zm-7.95.66c-1.85-1.16-4.96-3.1-7.24-3.1a3.12 3.12 0 0 0-3.28 3.1c0 1.54 1.2 3.09 3.28 3.09 2.28 0 5.4-1.94 7.24-3.1Z" fill="#040AA2"/></svg>