<!-- by TradingView --><svg width="56" height="56" viewBox="0 0 56 56" xmlns="http://www.w3.org/2000/svg"><path fill="#F0F3FA" d="M0 0h56v56H0z"/><path d="M9 28.6c0-11.32 10-13.78 15-13.59C13.85 16.37 12 24.5 12 28h5v-3h2v3h3v2h-3v2h-2v-2H9v-1.4Z"/><path d="M37.57 23.33C36.66 16.44 28.62 13.57 25 13v3.44c8.69 0 12.19 4.6 12.57 6.9Z" fill="#67C1ED"/><path d="M11.29 32.52C12.24 39.4 18.14 44 23.86 44v-3.44c-9.1 0-12.18-5.75-12.57-8.04Z" fill="#006898"/><path d="M37.57 37.11c-3.43 5.17-8 5.74-12.57 5.74 5.94-1.38 8.95-4.4 9.14-5.74h3.43Z" fill="#029DC7"/><circle cx="29.5" cy="22.5" r=".5" fill="#006898"/><path d="M29 24h1v9h-1v-9ZM38 21h1v12h-1zM41 25c-1.37 0-2 1.43-2 2v-3h2c1.83 0 3 1.28 3 3v6h-1v-6c0-1-.63-2-2-2ZM46 21h-1v9.6c0 1.9 1.61 2.4 2.5 2.4H49v-1h-1.5c-1.07 0-1.5-.5-1.5-1.4V25h2v-1h-2v-3ZM37 33.57c0 .8-.48 2.4-2.4 2.4H32V35h2.6c.4 0 1.4-.47 1.4-1.43V32c-.2.4-1 1-2 1-1.5 0-3-1.82-3-4.81 0-2.87 1.8-4.19 3-4.19h3v9.57ZM34 32c1.1 0 2-1.57 2-3.5s-.9-3.5-2-3.5-2 1.57-2 3.5.9 3.5 2 3.5ZM25.22 24H28v1h-2.78c-.78 0-1.22.86-1.22 1.5s.6 1.2 1.5 1.5c1.13.37 2.5 1.05 2.5 2.5 0 1.22-.65 2.5-2.22 2.5H23v-1h2.78c.74 0 1.22-.86 1.22-1.5 0-.91-.9-1.3-1.5-1.5-1.1-.37-2.5-1-2.5-2.5s.85-2.5 2.22-2.5Z"/></svg>