<!-- by TradingView --><svg width="56" height="56" viewBox="0 0 56 56" xmlns="http://www.w3.org/2000/svg"><path fill="#F0F3FA" d="M0 0h56v56H0z"/><path d="M14.66 28.84A14.4 14.4 0 0 0 25.13 44C19.3 43.7 9 35.76 12.84 24.46c4.16-12.2 17.32-10.53 18.03-9.58-2.61-.95-15.5 1.33-16.21 13.96Z" fill="#ED1B24"/><path d="M32.6 14.53c-8.07-3.09-15.41 1.87-18.07 4.73 2.28-4.08 9.67-9.4 18.84-6.36 7.33 2.44 10.1 9.98 10.56 13.45-.41-2.65-3.25-8.72-11.32-11.82Z" fill="#BBA76A"/><path fill-rule="evenodd" d="M22 35.5v-1.66c.97.7 2.7 1.34 3.47.57.67-.68-.03-1.12-.86-1.64-.78-.5-1.68-1.06-1.68-1.96 0-1.88 2.27-2.81 3.61-2.81 1.08 0 1.76.26 1.96.38l-.36 1.35c-.73-.46-2.1-.93-2.67 0-.37.6.2.9.92 1.26.79.41 1.75.9 1.75 1.98 0 2.04-2.44 3.03-3.88 3.03a4.76 4.76 0 0 1-2.26-.5Zm9.76-7.5h2.96l.9 7.2.47.8h-3.57c.24-.14.72-.56.68-1.1 0-.14-.04-.47-.09-.9h-2.63l-.67 1.2c-.05.23-.04.7.31.8h-2.54c.22-.18.74-.7 1.1-1.3l3.4-5.9c.05-.14.03-.5-.32-.8Zm-.72 5H33l-.34-2.9-1.62 2.9Zm7.66-4.16c.07-.38-.2-.72-.35-.84h4.03c1.33 0 1.63.98 1.62 1.46 0 1.17-1.08 1.84-1.62 2.03.98.16 1.21 1.1 1.2 1.55 0 2.2-1.9 2.89-2.85 2.96H36.5c.36-.07.65-.65.76-.93l1.44-6.23Zm2.17.21-.48 1.8c.01.05.07.15.23.15.2 0 1.11-.41 1.11-1.32 0-.5-.31-.68-.51-.68-.16 0-.3.04-.35.05ZM40.12 32h.6c.24-.01.74.18.74 1.04 0 1.07-.84 1.96-1.44 1.96-.4 0-.47-.25-.46-.38l.56-2.62Z" fill="#ED1B24"/></svg>