<!-- by TradingView --><svg width="56" height="56" viewBox="0 0 56 56" xmlns="http://www.w3.org/2000/svg"><path fill="#F0F3FA" d="M0 0h56v56H0z"/><path d="M22.57 16.8c-.76-.36-2.69-.38-3.55-.34a5.72 5.72 0 0 1 1.9-.46c.66 0 1.38.54 1.65.8ZM21.62 18.88l1.43-1.38c.51.46 1.37 1.51.7 2.07-.66.55-1.7-.23-2.13-.7ZM20.2 16.8h-1.66l-1.04.7c1.61-.1 3.06.57 3.3.57 0 0 .59.12.82-.23.24-.34-.47-1.03-1.42-1.03ZM19.49 19c-.76-.47-2.44-.54-2.99-.5l.5-.5c.71 0 1.78.07 2.49.3.71.23.95 1.27 0 .7Z" fill="#D1D2D4"/><path d="M9.65 27.16c-.48-1.29-.2-3.15 0-3.91l-.71.23-.72.23a5.94 5.94 0 0 0 0 3.22c.36 1.26 2.02 1.84 1.43.23Z" fill="url(#atgw10owc)"/><path d="m12.97 21.87-2.85 1.15c-.21.38-.24 1.6-.24 2.53 0 1.43 1.07 1.6 1.78 1.38.57-.18 1.07-1.04.95-1.73-.1-.55.2-2.45.36-3.33Z" fill="url(#btgw10owc)"/><path d="m14.75 21.18-1.19.46c-.36 1.6-.36 3.56.36 3.45.57-.1.79-2.65.83-3.91Z" fill="url(#ctgw10owc)"/><path d="m13.56 26.7-2.96 1.72c.47 1.04 1.77 1.84 2.96 1.5.95-.28.4-2.26 0-3.22Z" fill="url(#dtgw10owc)"/><path d="M12.37 18.88c-1.22.38-3.72 1.63-3.9 3.56.47-.73 1.91-2.46 3.9-3.56Z" fill="url(#etgw10owc)"/><path d="M9.65 21.75a13.1 13.1 0 0 1 4.03-3.33c-2.85 2.53-3.12 3.19-3.32 3.45-.36.46-1.19.57-.71-.12Z" fill="url(#ftgw10owc)"/><path d="M12.14 20.14c.76-.92 3-2.15 4.03-2.64-1.42 1.15-4.39 4.48-4.74 4.48-.36 0-.24-.69.7-1.84Z" fill="url(#gtgw10owc)"/><path d="M13.92 20.26c.57-1.02 2.84-2.73 3.9-3.45-1.65 1.15-3.12 3.6-3.31 3.8-.24.22-1.3.91-.6-.35Z" fill="url(#htgw10owc)"/><path d="m18.9 16.58-.17.07c-.65.39-2.25 2.13-3.03 3.03.53-1.55 2.14-2.62 3.03-3.03a.57.57 0 0 1 .17-.07Z" fill="#FFC60B"/><path d="M21.56 27h2.88c.52 0 1.56.24 1.56 1.18v4.32h-4v.6c0 .9.5.9 1 .9h2v2h-3.44c-.67 0-1.56-.9-1.56-1.66v-6.16c0-.4.67-1.18 1.56-1.18Zm.44 3.5h2v-1c0-.16-.14-.5-.5-.5h-1c-.15 0-.5.22-.5.5v1ZM35 27h-5v9h2v-7h2.5c.4 0 .5.34.5.5V36h2v-7.5c0-.85-1.25-1.5-2-1.5ZM42.25 25H40l2.75 5.38L40 36h2.38L44 32.94 45.63 36H48l-2.75-5.62L48 25h-2.38L44 28.06 42.25 25Z"/><defs><linearGradient id="atgw10owc" x1="13.32" y1="18.76" x2="13.44" y2="30" gradientUnits="userSpaceOnUse"><stop offset=".33" stop-color="#FBA819"/><stop offset="1" stop-color="#D03440"/></linearGradient><linearGradient id="btgw10owc" x1="13.32" y1="18.76" x2="13.44" y2="30" gradientUnits="userSpaceOnUse"><stop offset=".33" stop-color="#FBA819"/><stop offset="1" stop-color="#D03440"/></linearGradient><linearGradient id="ctgw10owc" x1="13.32" y1="18.76" x2="13.44" y2="30" gradientUnits="userSpaceOnUse"><stop stop-color="#FFC60B"/><stop offset=".33" stop-color="#FBA819"/><stop offset="1" stop-color="#D03440"/></linearGradient><linearGradient id="dtgw10owc" x1="13.32" y1="18.76" x2="13.44" y2="30" gradientUnits="userSpaceOnUse"><stop offset=".33" stop-color="#FBA819"/><stop offset="1" stop-color="#D03440"/></linearGradient><linearGradient id="etgw10owc" x1="13.32" y1="18.76" x2="13.44" y2="30" gradientUnits="userSpaceOnUse"><stop stop-color="#FFC60B"/><stop offset=".33" stop-color="#FBA819"/></linearGradient><linearGradient id="ftgw10owc" x1="13.32" y1="18.76" x2="13.44" y2="30" gradientUnits="userSpaceOnUse"><stop stop-color="#FFC60B"/><stop offset=".33" stop-color="#FBA819"/></linearGradient><linearGradient id="gtgw10owc" x1="13.32" y1="18.76" x2="13.44" y2="30" gradientUnits="userSpaceOnUse"><stop stop-color="#FFC60B"/><stop offset=".33" stop-color="#FBA819"/></linearGradient><linearGradient id="htgw10owc" x1="13.32" y1="18.76" x2="13.44" y2="30" gradientUnits="userSpaceOnUse"><stop stop-color="#FFC60B"/><stop offset=".33" stop-color="#FBA819"/></linearGradient></defs></svg>