<!-- by TradingView --><svg width="56" height="56" viewBox="0 0 56 56" xmlns="http://www.w3.org/2000/svg"><path fill="#F0F3FA" d="M0 0h56v56H0z"/><path d="M24.4 37c-.41 0-.9-.25-.9-.72v-2.56c0-.46.5-.72.9-.72h4.1v.5h-3.99c-.14 0-.51 0-.51.5v2c0 .5.36.5.51.5h3.99v.5h-4.1Z" fill="#8C8C8C"/><path fill-rule="evenodd" d="M6.5 37H16l6-5h14V13L6.5 37ZM24 30h8v-6.5L24 30Z" fill="url(#adt2hjktw)"/><path d="M31 29h-4.5l4-3h.5v3Z" fill="#86C338"/><path d="M27 29h-.5l4-3h.5l-4 3Z" fill="url(#bdt2hjktw)"/><path d="M6.5 37H5l30-24h1L6.5 37Z" fill="url(#cdt2hjktw)"/><path fill="#86C338" d="M35.5 34h1v3h-1z"/><path d="M35.5 33h1v.5h-1V33ZM30.15 37c-.41 0-.65-.26-.65-.72V36h.5v.26c0 .08.08.24.17.24h3.66c.1 0 .17-.17.17-.24v-.82c0-.08-.07-.14-.17-.14h-3.6c-.41 0-.73-.26-.73-.72v-.86c0-.46.32-.72.73-.72h3.62c.41 0 .65.26.65.72V34H34v-.26c0-.08-.06-.24-.15-.24h-3.58c-.09 0-.2.16-.2.24v.82c0 .09.1.14.18.14h3.6c.41 0 .65.26.65.72v.86c0 .46-.24.72-.65.72h-3.7ZM38.58 37c-.42 0-1.08-.2-1.08-.72v-2.56c0-.52.67-.72 1.08-.72h3.84c.4 0 1.08.2 1.08.72v2.56c0 .52-.67.72-1.08.72h-3.84Zm.05-.5h3.79c.11 0 .58 0 .58-.26v-2.52c0-.22-.5-.22-.6-.22h-3.8c-.1 0-.6 0-.6.26v2.52c0 .22.52.22.63.22ZM44.5 37v-4h.65L49 36.5V33h.5v4h-.64L45 33.5V37h-.5ZM23 33v4h-.5v-1.21h-2.52L18.3 37h-.8l5.5-4Zm-2.45 2.37h1.95v-1.43l-1.95 1.43Z" fill="#8C8C8C"/><defs><linearGradient id="adt2hjktw" x1="36" y1="16.5" x2="9.75" y2="35.66" gradientUnits="userSpaceOnUse"><stop stop-color="#50B33F"/><stop offset="1" stop-color="#7FC141"/></linearGradient><linearGradient id="bdt2hjktw" x1="30.5" y1="26" x2="27" y2="29" gradientUnits="userSpaceOnUse"><stop stop-color="#85BB4C"/><stop offset="1" stop-color="#5EB740"/></linearGradient><linearGradient id="cdt2hjktw" x1="35.5" y1="12.5" x2="6" y2="36" gradientUnits="userSpaceOnUse"><stop stop-color="#8AC947"/><stop offset=".49" stop-color="#87BB4C"/><stop offset="1" stop-color="#50B541"/></linearGradient></defs></svg>