<!-- by TradingView --><svg width="56" height="56" viewBox="0 0 56 56" xmlns="http://www.w3.org/2000/svg"><path fill="url(#azvtijtkm)" d="M0 0h56v56H0z"/><path d="M28.66 17.97c-2.43-3.95 0-7.74 1.14-8.97-2.01 2.07-3.1 3.93-3.63 5.54-2.45 2.6-3.44 4.86-3.71 6.7-4.46 4.96-3.62 8.6-2.82 10.45.84 1.97 3.58 5.1 5.63 7.45a80 80 0 0 1 1.76 2.05A17.79 17.79 0 0 1 29.88 47c.38-1.94.8-5.8-.57-7.92a38.72 38.72 0 0 0-3.01-3.8c-1.49-1.73-3.12-3.63-4.39-5.7-2.05-3.32-.64-6.54.53-8.2a7.42 7.42 0 0 0 .57 3.98c.85 1.97 3.59 5.1 5.64 7.44a80 80 0 0 1 1.76 2.06 17.79 17.79 0 0 1 2.84 5.8c.38-1.93.8-5.8-.57-7.91-.75-1.16-1.83-2.43-3-3.8-1.5-1.74-3.12-3.64-4.4-5.7-2.25-3.66-.32-7.19.88-8.66a7.54 7.54 0 0 0 .23 5.5c.84 1.96 3.58 5.1 5.63 7.44a80 80 0 0 1 1.76 2.05 17.79 17.79 0 0 1 2.85 5.8c.38-1.93.8-5.8-.57-7.9a38.71 38.71 0 0 0-3.01-3.8c-1.49-1.74-3.12-3.64-4.39-5.7Z" fill="url(#bzvtijtkm)"/><defs><linearGradient id="azvtijtkm" x1="10.42" y1="9.71" x2="68.15" y2="76.02" gradientUnits="userSpaceOnUse"><stop stop-color="#1A1E21"/><stop offset="1" stop-color="#06060A"/></linearGradient><linearGradient id="bzvtijtkm" x1="28" y1="9" x2="28" y2="47" gradientUnits="userSpaceOnUse"><stop stop-color="#D0A64C"/><stop offset=".33" stop-color="#E6BB72"/><stop offset=".49" stop-color="#ECC17D"/><stop offset=".72" stop-color="#CD9643"/><stop offset="1" stop-color="#C0842C"/></linearGradient></defs></svg>