<!-- by TradingView --><svg width="56" height="56" viewBox="0 0 56 56" xmlns="http://www.w3.org/2000/svg"><path fill="#F0F3FA" d="M0 0h56v56H0z"/><path d="M15.09 31.57V39c-1.68-1.15-2.08-3.58-2.12-4.66-1.06.74-3.97-1.28-3.97-5.8C9 19.28 17.67 15 22 14c-11.78 5.61-9.55 14.05-6.91 17.57Z" fill="#14254D"/><path d="M15.09 32.81v-1.24c-1.8-2.4-3.35-7.07-.51-11.58-1.93.94-4.91 3.58-4.88 7.76.02 3.37 2.73 4.68 5.39 5.06Z" fill="#184266"/><path d="M15.09 31.87v-.3a10.4 10.4 0 0 1-1.34-9.97 7.44 7.44 0 0 0-3.04 6.17c.02 2.83 2.27 3.85 4.38 4.1Z" fill="#1D5D83"/><path d="M13.1 24.18c-.2 1.9.13 3.74.76 5.21-.93-.27-1.69-.94-1.7-2.18 0-1.4.46-2.4.94-3.03Z" fill="#20759D"/><path d="M40.91 31.57V39c1.68-1.15 2.08-3.58 2.12-4.66 1.06.74 3.97-1.28 3.97-5.8C47 19.28 38.33 15 34 14c11.78 5.61 9.55 14.05 6.91 17.57Z" fill="#14254D"/><path d="M40.91 32.81v-1.24c1.8-2.4 3.35-7.07.51-11.58 1.94.94 4.91 3.58 4.88 7.76-.02 3.37-2.73 4.68-5.39 5.06Z" fill="#184266"/><path d="M40.91 31.87v-.3a10.4 10.4 0 0 0 1.34-9.97 7.44 7.44 0 0 1 3.05 6.17c-.02 2.83-2.28 3.85-4.39 4.1Z" fill="#1D5D83"/><path d="M42.9 24.18c.2 1.9-.13 3.7-.75 5.18.92-.27 1.68-.9 1.69-2.15 0-1.4-.46-2.4-.94-3.03Z" fill="#20759D"/><path d="m23 22.32-1.56-2.08c-.04.17-.04.68.22 1.4.27.73 1 .76 1.33.68Z" fill="url(#atxo3rlod)"/><path d="M23.77 22.05c-.5-1.1-1.56-2.48-2.04-3.04.11-.62.46-1.15.62-1.34a11.43 11.43 0 0 1 2.08 4.38h-.66Z" fill="url(#btxo3rlod)"/><path d="M25.4 22.36c-.13-1.5-1.44-4.3-2.08-5.5l1.25-.65a15.09 15.09 0 0 1 1.5 6.15h-.67Z" fill="url(#ctxo3rlod)"/><path d="M26.72 23.97c.63-2.66-.4-6.75-.99-8.46.17-.25.74-.68 1.62-.44 1.17 3.24.38 7.63-.16 9.42-.12-.17-.4-.52-.47-.52Z" fill="url(#dtxo3rlod)"/><path d="M29.05 16.6c.36 3.55-.92 7.34-1.61 8.78l.08.7c2.6-3 3.15-7.65 3.1-9.6-.87-.25-1.4-.03-1.57.11Z" fill="url(#etxo3rlod)"/><path d="M27.17 27.54 27 27.3c1.23-.87 3.96-4.08 5.08-9.94 0 .38.2 1.35 1.1 2.2-1.34 4.02-4.56 7-6 7.98Z" fill="url(#ftxo3rlod)"/><path d="M34.34 20.14c-1.64 4.1-5.31 6.96-6.94 7.88l.14.22c3.96-1.2 7.87-6.53 8.06-6.9.19-.36.3-.82-.1-1.04-.34-.18-.91-.18-1.16-.16Z" fill="url(#gtxo3rlod)"/><path d="m27.73 29.03-.07-.25c1.02-.23 3.6-1.17 5.82-3.16.29.77.23 1.22.17 1.35-1.95 1.43-4.76 1.97-5.92 2.06Z" fill="url(#htxo3rlod)"/><path d="M32.41 28.77c-1.37.5-3.48.83-4.36.92 0 .92 1.9 1.01 2.68 1.01.76 0 .6-.36.84-.86.2-.4.64-.64.84-.71v-.36Z" fill="url(#itxo3rlod)"/><path d="M34.56 27.9c-.57.7-1.58 1.5-2.02 1.83.27.48 1.3-.06 1.71-.3.4-.23.21-.37.19-.71a.96.96 0 0 1 .23-.63l-.11-.19Z" fill="url(#jtxo3rlod)"/><path fill-rule="evenodd" d="M15.5 39v-7h1.77l.75 2.97.78-2.97h1.7v7H19v-4.48L18.28 39h-.58l-.7-4.48V39h-1.5Zm9 0h-1.36l-.13-1h-1.04l-.11 1H20.5l1.08-7h1.85l1.07 7Zm0 0v-7H26v3h1v-3h1.5v7H27v-3h-1v3h-1.5Zm-1.62-2h-.8l.37-3.2.43 3.2ZM29 32v5.94c0 .58.58 1.06 1.29 1.06h1.42c.71 0 1.29-.48 1.29-1.06V32h-1.5v5.54c0 .26-.18.48-.5.48s-.5-.22-.5-.48V32H29Zm4.5 7v-7H36c.55 0 1 .42 1 .94v1.96c0 .14-.1.44-.5.59.17.08.5.3.5.58v2c0 .51-.45.93-1 .93h-2.5Zm1.5-6h.27c.13 0 .23.2.23.43v1.14c0 .24-.1.43-.23.43H35v-2Zm0 3h.27c.13 0 .23.2.23.43v1.14c0 .24-.1.43-.23.43H35v-2Zm2.5-4v7h3v-1H39v-2h1v-1h-1v-2h1.5v-1h-3Z" fill="#063351"/><defs><linearGradient id="atxo3rlod" x1="21.47" y1="20.28" x2="23.02" y2="22.01" gradientUnits="userSpaceOnUse"><stop stop-color="#14254D"/><stop offset=".56" stop-color="#1CAFE0"/><stop offset="1" stop-color="#14254D"/></linearGradient><linearGradient id="btxo3rlod" x1="22.08" y1="18.24" x2="23.88" y2="21.76" gradientUnits="userSpaceOnUse"><stop stop-color="#14254D"/><stop offset=".51" stop-color="#16A9DB"/><stop offset="1" stop-color="#14254D"/></linearGradient><linearGradient id="ctxo3rlod" x1="24.14" y1="16.81" x2="25.86" y2="21.92" gradientUnits="userSpaceOnUse"><stop stop-color="#14254D"/><stop offset=".49" stop-color="#17B2E5"/><stop offset="1" stop-color="#14254D"/></linearGradient><linearGradient id="dtxo3rlod" x1="26.84" y1="15" x2="26.84" y2="24.49" gradientUnits="userSpaceOnUse"><stop offset=".12" stop-color="#14254D"/><stop offset=".46" stop-color="#17AFE2"/><stop offset=".92" stop-color="#14254D"/></linearGradient><linearGradient id="etxo3rlod" x1="30.2" y1="16.81" x2="27.53" y2="25.28" gradientUnits="userSpaceOnUse"><stop stop-color="#14254D"/><stop offset=".49" stop-color="#15AADC"/><stop offset="1" stop-color="#14254D"/></linearGradient><linearGradient id="ftxo3rlod" x1="32.84" y1="19.47" x2="28.07" y2="26.1" gradientUnits="userSpaceOnUse"><stop stop-color="#14254D"/><stop offset=".42" stop-color="#1AA2D2"/><stop offset="1" stop-color="#14254D"/></linearGradient><linearGradient id="gtxo3rlod" x1="28.16" y1="27.43" x2="35.27" y2="20.74" gradientUnits="userSpaceOnUse"><stop stop-color="#14254D"/><stop offset=".51" stop-color="#16ACDE"/><stop offset="1" stop-color="#14254D"/></linearGradient><linearGradient id="htxo3rlod" x1="28.57" y1="28.41" x2="33.43" y2="26.6" gradientUnits="userSpaceOnUse"><stop stop-color="#14254D"/><stop offset=".49" stop-color="#16A9DB"/><stop offset="1" stop-color="#14254D"/></linearGradient><linearGradient id="itxo3rlod" x1="28.37" y1="29.98" x2="32.11" y2="29.04" gradientUnits="userSpaceOnUse"><stop stop-color="#14254D"/><stop offset=".47" stop-color="#18B0E3"/><stop offset="1" stop-color="#14254D"/></linearGradient><linearGradient id="jtxo3rlod" x1="32.8" y1="29.78" x2="34.49" y2="28.15" gradientUnits="userSpaceOnUse"><stop stop-color="#14254D"/><stop offset=".47" stop-color="#18B0E3"/><stop offset="1" stop-color="#14254D"/></linearGradient></defs></svg>