<!-- by TradingView --><svg width="56" height="56" viewBox="0 0 56 56" xmlns="http://www.w3.org/2000/svg"><path fill="#F0F3FA" d="M0 0h56v56H0z"/><path d="M4 21v2h1v9h2v-9h1v-2H4Zm7.5 2.92c-.47.08-1.42.46-1.45 1.4l-.05.03V24H8v8h2v-5.13c.3-.24.77-.45 1.5-.45v-2.5Zm2.5 2.55h-2v-.93c.06-.51.75-1.54 2.55-1.54 1.8 0 2.38.96 2.45 1.44V32h-2v-.84c-.51.76-1.12.84-1.46.84-.35 0-1.54-.27-1.54-2.09 0-1.45.7-2.14 1.05-2.3A6.25 6.25 0 0 0 15 26.47v-.64c0-.3-.2-.53-.49-.53a.51.51 0 0 0-.51.53v.64Zm1 3.8v-2.32l-1 .86v1.46c0 .16.07.48.45.48s.52-.32.55-.48ZM18 32v-8h2v.9c.36-.45.9-.9 1.5-.9 1.1 0 1.5.74 1.5 1.68V32h-2v-5.82c0-.28-.26-.5-.53-.5a.49.49 0 0 0-.47.4V32h-2Zm9-5.55h2c0-.83-.38-2.45-2.45-2.45-2.56 0-2.55 2.05-2.55 2.27v.01c0 .17 0 1.06 1.2 2.06.45.37.8.6 1.09.78.47.3.7.46.7.88-.03.14-.2.63-.54.63-.42 0-.45-.27-.45-.58v-.62h-2v1.14c.12.48.77 1.43 2.45 1.43 2.1 0 2.55-1.8 2.55-2.28 0-.49-.33-1.45-1.58-2.22-1.26-.77-1.42-1.27-1.42-1.57 0-.3.1-.53.45-.53.34 0 .55.53.55 1.05Z"/><path fill-rule="evenodd" d="M52 21H28v3h2v.87c.45-.39 1.16-.87 1.81-.87 1.03 0 1.19.81 1.19 1.57v4.81l-.04.23c-.08.57-.2 1.39-1.15 1.39-.8 0-1.43-.53-1.81-1v4h22V21Zm-18 5.47h2v-.64c0-.3.5-.52.82-.52.31 0 .68.23.68.52v.64c-.22.2-1.12.7-2.35 1.14-.38.16-1.15.85-1.15 2.3 0 1.82 1.3 2.09 1.69 2.09.38 0 1.25-.08 1.81-.84V32h2v-6.56c-.07-.48-.72-1.44-2.7-1.44-1.98 0-2.74 1.03-2.8 1.54v.93Zm3.5 1.45v2.28c-.04.16-.26.48-.83.48s-.68-.32-.67-.48v-1.43l1.5-.85ZM30 29.87c0 .27.22.5.5.5a.5.5 0 0 0 .5-.5v-3.8a.5.5 0 0 0-.5-.5.5.5 0 0 0-.5.5v3.8ZM42.8 24c-2.13 0-2.8 1.21-2.8 2.7v2.6c0 1.49.67 2.7 2.8 2.7h.22c2.12 0 2.98-1.21 2.98-2.7 0 1.49.67 2.7 2.8 2.7h.22c2.12 0 2.98-1.21 2.98-2.7v-2.6c0-1.49-.86-2.7-2.98-2.7h-.22c-2.13 0-2.8 1.21-2.8 2.7 0-1.49-.86-2.7-2.98-2.7h-.22Zm3.2 3v2h-2v.65c0 .24-.15.85-1 .85-1 0-1-.6-1-.85v-3.3c0-.24.2-.85 1-.85s1 .6 1 .85V27h2Zm3-1.5c-.55 0-1 .5-1 .78v3.46c0 .28.45.76 1 .76s1-.48 1-.76v-3.46c0-.29-.45-.78-1-.78Z" fill="#0060A8"/><path fill="#B3B2B1" d="M5 33h23v2H5z"/></svg>