<!-- by TradingView --><svg width="56" height="56" viewBox="0 0 56 56" xmlns="http://www.w3.org/2000/svg"><path fill="#F0F3FA" d="M0 0h56v56H0z"/><path d="M20.29 21h-1.56l-.33 1.67h1.56l.33-1.67Z" fill="#26406C"/><path d="M19.7 24.23h-1.56l-.32 1.5h1.55l.34-1.5Z" fill="#376ABB"/><path d="M19.1 27.18h-1.56l-.32 1.67h1.55l.34-1.67Z" fill="#26406C"/><path d="M18.49 30.2h-1.57l-.32 1.57h1.55l.34-1.57Z" fill="#376ABB"/><path d="M17.89 33.31h-1.57L16 35h1.55l.34-1.69Z" fill="#26406C"/><path d="M14.53 33.46h-1.3L12.98 35h1.29l.27-1.54Z" fill="#376ABB"/><path d="M15.16 30.35h-1.29l-.27 1.42h1.29l.27-1.42Z" fill="#26406C"/><path d="M15.78 27.33H14.5l-.27 1.38h1.29l.27-1.38Z" fill="#376ABB"/><path d="M16.35 24.2h-1.3l-.26 1.38h1.28l.28-1.38Z" fill="#26406C"/><path d="M16.96 21.22h-1.3l-.27 1.38h1.3l.27-1.38Z" fill="#376ABB"/><path d="M13.7 21.36h-1.03l-.21 1.1h1.02l.22-1.1Z" fill="#26406C"/><path d="M13.15 24.23h-1.03l-.22 1.08h1.03l.22-1.08Z" fill="#376ABB"/><path d="M12.53 27.47h-1.04l-.21 1.07h1.03l.22-1.07Z" fill="#26406C"/><path d="M11.95 30.49h-1.03l-.22 1.1h1.03l.22-1.1Z" fill="#376ABB"/><path d="M11.33 33.6H10.3l-.22 1.1h1.03l.22-1.1Z" fill="#26406C"/><path d="M8.06 33.71h-.81l-.17.87h.8l.18-.87Z" fill="#376ABB"/><path d="M8.65 30.7h-.81l-.17.86h.8l.18-.87Z" fill="#26406C"/><path d="M9.24 27.53h-.8l-.18.86h.81l.17-.86Z" fill="#376ABB"/><path d="M9.87 24.46h-.8l-.17.85h.8l.17-.85Z" fill="#26406C"/><path d="M10.45 21.48h-.81l-.17.87h.8l.18-.87Z" fill="#376ABB"/><path d="M7.18 21.54h-.67l-.14.72h.67l.14-.72Z" fill="#26406C"/><path d="M6.61 24.53h-.68l-.14.78h.68l.14-.78Z" fill="#376ABB"/><path d="M6 27.6h-.67l-.14.72h.67l.15-.72Z" fill="#26406C"/><path d="M5.37 30.7h-.68l-.14.71h.67l.15-.72Z" fill="#376ABB"/><path d="M4.82 33.79h-.68L4 34.5h.67l.15-.72ZM22.65 21h2.92l-2.7 14h-2.92l2.7-14ZM32.42 21h7.14l-.54 2h-6.34c-.56 0-2.68.31-3 1.91-.26 1.28.56 2.09 1.34 2.09h4.46c1.4 0 3.23.22 2.67 3.45-.56 3.24-3.29 4.6-4.92 4.55H25.4l.49-2h6.8c1.28-.08 2.27-1.13 2.56-2.55.24-1.13-.96-1.47-1.63-1.45h-2.6c-4.46 0-5.24-2.25-3.7-5.69.93-2.1 3.7-2.31 5.1-2.31ZM37.75 35l8.37-14h2.92L52 35h-3.1l-.72-4h-5.24l-2.23 4h-2.96Zm6.3-6h3.78l-.92-5.11L44.06 29Z" fill="#26406C"/></svg>