<!-- by TradingView --><svg width="56" height="56" viewBox="0 0 56 56" fill="none" xmlns="http://www.w3.org/2000/svg">
<rect width="56" height="56" fill="#F0F3FA"/>
<path fill-rule="evenodd" clip-rule="evenodd" d="M45 28C45 37.3888 37.3888 45 28 45C18.6112 45 11 37.3888 11 28C11 18.6112 18.6112 11 28 11C37.3888 11 45 18.6112 45 28ZM43 28C43 36.2843 36.2843 43 28 43C19.7157 43 13 36.2843 13 28C13 19.7157 19.7157 13 28 13C36.2843 13 43 19.7157 43 28ZM19.0408 24.573L18.5438 18.9431L21 18.1164V20.1242L24 19.6321V17.7424L26.3714 17.4077V19.5262H29.6226V17.4077L32 17.7424V19.6321L35 20.1242V18.1164L37.533 18.9431L36.8289 24.573C36.1663 24.1793 33.5571 23.3919 28.4215 23.3919C23.2859 23.3919 20.0279 24.1793 19.0408 24.573ZM19.3514 25.0847C22.5612 24.3104 30.5006 23.2265 36.5805 25.0847L35.4001 26.1674C32.6321 25.3472 25.5472 23.9824 19.3514 25.0847ZM20.3853 26.5889C20.1661 30.0128 19.0151 35.1609 18.467 37.3069H18.9759C20.6359 31.3227 25.7228 28.4869 28.0587 27.817C32.1303 29.6034 33.7746 36.451 34.0878 39.6515L37.2981 37.3069C36.3585 35.1038 35.5755 29.2436 35.3015 26.5889C34.5054 26.2539 31.9424 25.584 28.0587 25.584C24.1751 25.584 21.3249 26.2539 20.3853 26.5889ZM27.9804 28.4123C23.6583 31.7171 22.6299 37.1331 22.656 39.4281H22.996C24.0232 33.5962 26.7469 30.8609 27.9804 30.2222C30.8414 31.5135 32.4899 36.8975 32.9566 39.4281H33.3048C32.6158 32.4911 29.4681 29.1938 27.9804 28.4123Z" fill="#1C328C"/>
</svg>
