<!-- by TradingView --><svg width="56" height="56" viewBox="0 0 56 56" xmlns="http://www.w3.org/2000/svg"><path fill="#F0F3FA" d="M0 0h56v56H0z"/><path d="M29.4 36.84c-6.32 0-9.37-2.83-9.47-2.93-.4.28-1.16 1.54-1.03 4.3.16 3.44 8.25 5.74 8.44 5.74C42.51 43.95 44 29.78 44 29.46c0-.31 0-1.63-.35-1.63-.28 0-.55.32-.65.48-1.52 3.62-7.26 8.53-13.6 8.53Z" fill="url(#a0eokxhld)"/><path d="M19.93 33.91c.1.1 3.15 2.93 9.48 2.93s12.07-4.9 13.6-8.53v-.02c.13.35-.15 1.07-.34 1.45-3.2 6.29-9.01 8.34-14.06 8.34-4.04 0-7.91-2.06-9.41-2.89.22-.73.52-1.13.73-1.28Z" fill="url(#b0eokxhld)"/><path d="M27 19.52c-2.11.5-4.49 2.35-5.41 3.21 3.44-7.78 11.72-9 13.79-8.55a5.02 5.02 0 0 1 2.84 1.6c.5.98 1.33 3.95.88 8.56a6.65 6.65 0 0 1-6.04 6.18c1.14-1.33 3.03-4.74 1.55-7.79-1.86-3.8-4.99-3.84-7.62-3.21Z" fill="url(#c0eokxhld)"/><path opacity=".7" d="M22.21 29.52c.54 12.65 13.02 12.47 13.4 12.5-2.22 1.43-5.5 1.92-6.87 1.98-2.52-1.27-7.93-4.44-9.37-6.92-1.8-3.1-1.15-17.31 5.37-20.37 5.23-2.44 10.26-2.43 12.08-2.02-11.74-.22-14.66 9.86-14.61 14.83Z" fill="url(#d0eokxhld)"/><path d="M30.96 43.68c-3.58.66-6.95-.18-8.19-.68-1.86-.54-5.25-8-6.37-12.1-1.13-4.1 5.07-16.15 11.77-16.93 5.36-.63 8.08.26 8.77.78a14.45 14.45 0 0 0-16.13 15.11c0 10.14 6.76 13.44 10.15 13.82Z" fill="url(#e0eokxhld)"/><path d="M18.78 31.11c0 6.7 3.35 10.96 5.03 12.25-9.6-3.3-11.87-11.39-11.8-15.02C12 15.84 23.07 12 27.98 12c3.94 0 7.6 1.85 8.96 2.75C25.13 12 18.78 22.73 18.78 31.1Z" fill="url(#f0eokxhld)"/><path d="M29.16 12.05c-2.67.09-6.59.86-9.94 3.45-5.57 4.3-6.32 9.64-6.32 12.25 0 2.52 1.28 9.28 8.07 12.1a11.92 11.92 0 0 0 2.84 3.5C14.2 40.08 11.94 31.98 12 28.35 12 15.84 23.07 12 27.98 12c.4 0 .78.02 1.17.05Z" fill="url(#g0eokxhld)"/><path opacity=".2" d="M34.48 25.8c-1.37 2.43-5.31 4.51-7.12 5.25 3.2 0 7.12-3.13 9.47-6.06 1.88-2.34 1.4-7.43.9-9.7-.08-.06-.33-.3-.82-.57-.49-.28-1.36-.08-1.7.04 2.68 4.35.97 7.99-.73 11.03Z" fill="#FFA664"/><path d="M27.41 31.06c-.2.06 0 .28.14.38a12.24 12.24 0 0 0 14.73-8.94c0-1.14 0-2.05-1.08-3.63a24.1 24.1 0 0 0-3.64-3.72c.54 1.46 1.02 5.44-1.38 9.63-3 5.23-8.51 6.2-8.77 6.28Z" fill="url(#h0eokxhld)"/><path d="M27.4 31.29c1.74-.31 4.89-1.18 6.85-2.83 2.53-2.14 5.44-5 5.7-11.08-.87-.9-1.84-1.78-2.39-2.23.54 1.46 1.02 5.44-1.38 9.63-2.83 4.93-7.89 6.08-8.67 6.26l-.1.02c-.13.04-.1.14-.02.23Z" fill="url(#i0eokxhld)"/><defs><linearGradient id="a0eokxhld" x1="27.99" y1="43.6" x2="41.41" y2="28.85" gradientUnits="userSpaceOnUse"><stop stop-color="#FF8710"/><stop offset="1" stop-color="#FF4700"/></linearGradient><linearGradient id="b0eokxhld" x1="21.76" y1="35.45" x2="35.74" y2="35.22" gradientUnits="userSpaceOnUse"><stop stop-color="#FFB974"/><stop offset="1" stop-color="#FFB974" stop-opacity="0"/></linearGradient><linearGradient id="c0eokxhld" x1="32.78" y1="15.05" x2="31.67" y2="26.89" gradientUnits="userSpaceOnUse"><stop stop-color="#FF3B00"/><stop offset="1" stop-color="#F89241"/></linearGradient><linearGradient id="d0eokxhld" x1="29.09" y1="15.14" x2="27.63" y2="44" gradientUnits="userSpaceOnUse"><stop stop-color="#FBB480"/><stop offset="1" stop-color="#FBB480" stop-opacity="0"/></linearGradient><linearGradient id="e0eokxhld" x1="26.6" y1="13.75" x2="26.6" y2="43.92" gradientUnits="userSpaceOnUse"><stop stop-color="#FFB26E"/><stop offset="1" stop-color="#FF5624"/></linearGradient><linearGradient id="f0eokxhld" x1="24.49" y1="12" x2="24.49" y2="43.36" gradientUnits="userSpaceOnUse"><stop stop-color="#FF9B25"/><stop offset="1" stop-color="#FF3B00"/></linearGradient><linearGradient id="g0eokxhld" x1="20.58" y1="12" x2="20.58" y2="43.36" gradientUnits="userSpaceOnUse"><stop stop-color="#FFBC89"/><stop offset="1" stop-color="#FFBC89" stop-opacity="0"/></linearGradient><linearGradient id="h0eokxhld" x1="40.8" y1="19.48" x2="30.4" y2="30.85" gradientUnits="userSpaceOnUse"><stop stop-color="#FB9B20"/><stop offset="1" stop-color="#FE3C00"/></linearGradient><linearGradient id="i0eokxhld" x1="36.69" y1="17.69" x2="28.05" y2="28.81" gradientUnits="userSpaceOnUse"><stop stop-color="#FF7D27"/><stop offset="1" stop-color="#F8906D"/></linearGradient></defs></svg>