<!-- by TradingView --><svg width="56" height="56" viewBox="0 0 56 56" fill="none" xmlns="http://www.w3.org/2000/svg">
<rect width="56" height="56" fill="#F0F3FA"/>
<path d="M8.60883 28.4448L6.21136 22.8931C6.00496 22.3996 5.67043 22.1448 5.12618 22.1448C5.05047 22.1448 5 22.1207 5 22.0724C5 22.0242 5.07571 22 5.25237 22C6.11084 22 6.91471 22 7.77287 22C7.92429 22 8 22.0242 8 22.0724C8 22.1207 7.94953 22.1448 7.84858 22.1448C7.66135 22.1448 7.42271 22.1648 7.42271 22.4104C7.42271 22.5069 7.49842 22.7483 7.64984 23.1104L9.29022 27H9.34069C9.8959 25.6966 10.5016 24.4138 11.2082 22.7242C11.2587 22.5793 11.2839 22.4586 11.2839 22.3862C11.2839 22.1609 10.9337 22.169 10.7792 22.169C10.6782 22.169 10.6278 22.1448 10.6278 22.0966C10.6278 22.0242 10.7287 22 10.9054 22C11.5379 22 12.1663 22 12.7981 22C12.9243 22 13 22.0242 13 22.0724C13 22.1207 12.9495 22.1448 12.8486 22.1448C12.2901 22.1448 12.0656 22.629 11.8644 23.0862C11.6625 23.5448 11.2839 24.3655 10.7287 25.5483L9.46688 28.3242C9.39912 28.4538 9.25353 29 9.03785 29C8.83793 29 8.66457 28.5781 8.60883 28.4448Z" fill="#2B2A29"/>
<path d="M15 25.9861V24.6493C15 23.5556 15 22.8993 14.9768 22.7049C14.9412 22.2588 14.5211 22.1458 14.1396 22.1458C14.0465 22.1458 14 22.1215 14 22.0729C14 22.0243 14.0698 22 14.1861 22C14.9775 22 15.8838 22 16.6744 22C16.814 22 16.8605 22.0243 16.8605 22.0729C16.8605 22.1215 16.814 22.1458 16.721 22.1458C16.352 22.1458 16.0515 22.3451 16.0233 22.7292C16 22.9236 16 23.5799 16 24.6736V25.9618C16 27.1644 16.3304 28.5868 17.7674 28.5868C19.339 28.5868 19.5233 27.0066 19.5233 25.816V24.6736C19.5233 23.5799 19.5233 22.9236 19.5 22.7292C19.4658 22.2997 19.1819 22.1458 18.8023 22.1458C18.7093 22.1458 18.6628 22.1215 18.6628 22.0729C18.6628 22.0243 18.7326 22 18.8489 22C19.5166 22 19.915 22 20.5814 22C20.6977 22 20.7675 22.0243 20.7675 22.0729C20.7675 22.1215 20.7209 22.1458 20.6047 22.1458C20.2497 22.1458 20.0531 22.3061 20.0233 22.6806C20 22.875 20 23.5313 20 24.625V25.5972C20 27.2834 19.5831 29 17.5814 29C15.6365 29 15 27.7822 15 25.9861Z" fill="#2B2A29"/>
<path d="M25 25.1303H25.0461C25.5757 24.5634 26.2336 23.8733 26.9243 23.0845C27.2237 22.7148 27.3618 22.4683 27.3618 22.3697C27.3618 22.2711 27.3158 22.1972 27.2467 22.1726C27.1776 22.1479 27.1316 22.1233 27.1316 22.074C27.1316 22.0247 27.1776 22 27.2697 22C27.9068 22 28.2248 22 28.8618 22C28.9539 22 29 22.0247 29 22.074C29 22.1233 28.9539 22.1479 28.8618 22.1479C28.2799 22.1479 28.1221 22.5698 27.7303 22.9613C26.8783 23.8486 26.2566 24.5564 25.8651 25C26.0033 25.1972 26.3947 25.6233 27.0164 26.3627C27.5745 27.029 28.0257 27.6939 28.6875 28.2606C28.9178 28.4578 29.125 28.6056 29.3553 28.7042C29.5625 28.8028 29.7467 28.8275 29.8849 28.8275C29.9539 28.8275 30 28.8521 30 28.9014C30 28.9754 29.9309 29 29.7928 29C29.3577 29 28.875 29 28.4589 29C27.5137 28.8876 26.7896 27.5816 26.2566 26.9296C25.6579 26.1902 25.2533 25.7465 25.1382 25.574L25.0461 25.4261H25C25 26.3791 25 27.3322 25 28.2852C25.0352 28.7368 25.3634 28.8275 25.7599 28.8275C25.8289 28.8275 25.875 28.8521 25.875 28.9014C25.875 28.9754 25.8289 29 25.7138 29C24.9377 29 24.2228 29 23.4474 29C23.3322 29 23.2632 28.9754 23.2632 28.9014C23.2632 28.7947 23.625 28.8028 23.7007 28.8028C23.8388 28.7782 23.9539 28.6056 24 28.2852C24 26.4202 24 24.5552 24 22.6902C23.9653 22.2439 23.5227 22.1479 23.1382 22.1479C23.0461 22.1479 23 22.1233 23 22.074C23 22.0247 23.0691 22 23.1842 22C23.9297 22 24.7982 22 25.5428 22C25.6579 22 25.727 22.0247 25.727 22.074C25.727 22.1233 25.6809 22.1479 25.6118 22.1479C25.2368 22.1479 25 22.3436 25 22.7148C25 23.52 25 24.3251 25 25.1303Z" fill="#2B2A29"/>
<path d="M33 26.338V24.7113C33 23.6021 33 22.9366 32.9754 22.7395C32.9429 22.3479 32.7118 22.1726 32.3361 22.1726C32.2377 22.1726 32.1639 22.1479 32.1639 22.074C32.1639 22.0247 32.2377 22 32.3853 22C33.1645 22 33.8114 22 34.5902 22C34.7131 22 34.7869 22.0247 34.7869 22.074C34.7869 22.1479 34.7377 22.1726 34.6639 22.1726C34.2991 22.1726 34.058 22.3124 34.0246 22.7148C34 22.912 34 23.5775 34 24.6866V26.3134C34 27.4225 34.0246 28.088 34.0492 28.3345C34.0902 28.7865 34.4764 28.8275 34.8525 28.8275C34.9508 28.8275 35 28.8521 35 28.9014C35 28.9754 34.9508 29 34.8279 29C33.958 29 33.2542 29 32.3853 29C32.2623 29 32.1885 28.9754 32.1885 28.9014C32.1885 28.8521 32.2623 28.8275 32.3853 28.8275C32.7154 28.7448 32.8899 28.7721 32.9262 28.3345C33 28.088 33 27.4225 33 26.338Z" fill="#2B2A29"/>
<path d="M40 24.7113V26.338C40 27.0282 40 27.4965 40.0253 27.7183C40.0505 28.0634 40.101 28.2606 40.202 28.3345C40.3536 28.4824 40.8283 28.5317 41.4596 28.5317C42.0404 28.5317 42.4192 28.4331 42.5707 28.2606C42.7222 28.1127 42.798 27.9155 42.8232 27.6937C42.8485 27.5951 42.8737 27.5458 42.9242 27.5458C42.9747 27.5458 43 27.5951 43 27.6937C43 28.0634 42.9495 28.4085 42.8485 28.7535C42.7979 28.8768 42.6975 28.9754 42.5965 29C41 29 39.5588 29 38.394 29C38.2677 29 38.1919 28.9754 38.1919 28.9014C38.1919 28.8521 38.2677 28.8275 38.394 28.8275C38.7624 28.7376 38.8771 28.7443 38.9495 28.2852C38.9748 28.0387 39 27.3732 39 26.3134V24.6866C39 23.5775 39 22.912 38.9748 22.7148C38.9242 22.2706 38.694 22.1479 38.2677 22.1479C38.1667 22.1479 38.1162 22.1232 38.1162 22.0739C38.1162 22.0246 38.1919 22 38.3182 22C39.1942 22 39.8566 22 40.7323 22C40.8586 22 40.9344 22.0246 40.9344 22.0739C40.9344 22.1232 40.8839 22.1479 40.7576 22.1479C40.358 22.1479 40.0648 22.2269 40.0253 22.6901C40.0253 22.9613 40 23.6021 40 24.7113Z" fill="#2B2A29"/>
<path d="M46 26.2874V24.6777C46 23.5801 46.0053 22.878 45.9788 22.6829C45.9355 22.2039 45.554 22.1463 45.1587 22.1463C45.0529 22.1463 45 22.122 45 22.0732C45 22.0244 45.0793 22 45.2116 22C46.525 22 47.8386 22 49.1534 22C49.5 22 49.5 22 49.7883 22C49.7883 22.4039 49.6997 22.8413 49.6561 23.2439C49.6296 23.3171 49.6031 23.3415 49.5502 23.3415C49.4973 23.3415 49.4709 23.3171 49.4709 23.2439C49.4709 23.127 49.4472 22.9808 49.3915 22.878C49.3121 22.7073 49.1005 22.5854 48.7301 22.5366C48.492 22.5122 47.8201 22.4878 47.0793 22.4878C47.0264 22.4878 47 22.5122 47 22.5854L47 24.9025C47 24.9756 47.0265 25 47.0794 25C48.0053 25 48.1005 25 48.2857 25C48.5402 25 48.7428 24.7073 48.9206 24.7073C48.9735 24.7073 49 24.7317 49 24.7805C49 24.7805 49 24.8537 48.9735 24.9756C48.9471 25.122 48.9471 25.2683 48.9206 25.4634C48.8942 25.8049 48.8677 26.0244 48.8677 26.0732C48.8677 26.1951 48.8413 26.2439 48.7884 26.2439C48.7354 26.2439 48.709 26.2195 48.709 26.1464C48.709 26.0732 48.6825 25.9756 48.6561 25.8293C48.6032 25.6098 48.418 25.5122 48.1005 25.4634C47.9153 25.439 47.8201 25.439 47.0529 25.439C47 25.439 47 25.4634 47 25.5366V27.7317C47.0265 28.0488 47.0794 28.2683 47.2381 28.3659C47.3704 28.4634 47.9365 28.5122 48.4127 28.5122C49.084 28.5122 49.654 28.4488 49.8148 27.7073C49.8413 27.6098 49.8677 27.561 49.9206 27.561C49.9735 27.561 50 27.6098 50 27.7317C50 28.0976 49.9471 28.439 49.8677 28.7561C49.8413 28.8781 49.7884 28.9268 49.7354 28.9512C49.6825 28.9756 49.5503 29 49.3386 29C48.0065 29 46.5422 29 45.2116 29C45.0794 29 45 28.9756 45 28.9025C45 28.8537 45.0794 28.8293 45.2116 28.8293C45.586 28.743 45.8483 28.7576 45.9259 28.2927C45.9788 28.0244 46 27.3606 46 26.2874Z" fill="#2B2A29"/>
<path fill-rule="evenodd" clip-rule="evenodd" d="M46 17.2525C46 17.2525 36.9004 15.1189 35.5729 20C35.5729 20 33.9075 19.9123 34.004 18.7432C34.1006 17.574 38.059 14.1836 46 17.2525Z" fill="#F57F12"/>
<path fill-rule="evenodd" clip-rule="evenodd" d="M5 36H50V37H5V36Z" fill="#F57F12"/>
<path d="M7 31.7899V31.1092C7 30.6303 7 30.3529 7 30.2773C7 30.1513 6.93023 30.0756 6.83721 30.0504C6.81395 30.0504 6.76744 30.0504 6.69767 30.0504C6.65116 30.0504 6.62791 30.0504 6.62791 30.0252C6.62791 30 6.65116 30 6.69767 30C6.76744 30 6.86047 30 7 30C7.13953 30 7.2093 30 7.23256 30C7.27907 30 7.37209 30 7.48837 30C7.60465 30 7.69767 30 7.76744 30C8.06977 30 8.30233 30.0756 8.44186 30.2269C8.55814 30.3529 8.62791 30.5042 8.62791 30.7059C8.62791 30.9832 8.53488 31.2101 8.37209 31.3866C8.2093 31.563 8 31.6639 7.72093 31.6639C7.67442 31.6639 7.65116 31.6639 7.65116 31.6639C7.62791 31.6639 7.60465 31.6387 7.60465 31.6387C7.60465 31.6134 7.62791 31.5882 7.69767 31.5882C7.81395 31.5882 7.90698 31.5378 8.02326 31.4118C8.13954 31.2857 8.18605 31.1345 8.18605 30.9328C8.18605 30.6807 8.11628 30.479 7.97674 30.3529C7.88372 30.2521 7.74419 30.2017 7.60465 30.2017C7.53488 30.2017 7.48837 30.2017 7.46512 30.2269C7.44186 30.2269 7.44186 30.2521 7.44186 30.3025V31.8655C7.44186 32.3193 7.44186 32.5966 7.46512 32.6975C7.48837 32.8235 7.53488 32.8992 7.60465 32.8992C7.67442 32.8992 7.74419 32.9244 7.7907 32.9244C7.83721 32.9244 7.83721 32.9244 7.83721 32.9496C7.83721 32.9748 7.81395 33 7.76744 33C7.67442 33 7.55814 33 7.44186 33C7.30233 33 7.23256 33 7.2093 33C7.18605 33 7.11628 33 7 33C6.88372 33 6.7907 33 6.74419 33C6.69767 33 6.67442 32.9748 6.67442 32.9496C6.67442 32.9244 6.69767 32.9244 6.74419 32.9244C6.7907 32.9244 6.81395 32.9244 6.86047 32.9244C6.90698 32.8992 6.95349 32.8487 6.97674 32.6975C7 32.521 7 32.2437 7 31.7899Z" fill="#2B2A29"/>
<path d="M10 31.8051V31.1186C10 30.6356 10 30.3559 10 30.2797C10 30.1525 9.92742 30.0763 9.83064 30.0508C9.80645 30.0508 9.75806 30.0508 9.68548 30.0508C9.6371 30.0508 9.6129 30.0508 9.6129 30.0254C9.6129 30 9.6371 30 9.68548 30C9.75806 30 9.85484 30 10 30C10.121 30 10.1935 30 10.2177 30C10.2661 30 10.3387 30 10.4839 30C10.629 30 10.7016 30 10.75 30C11.0645 30 11.2823 30.0508 11.4516 30.178C11.5242 30.2288 11.5726 30.2797 11.621 30.3814C11.6694 30.4831 11.7177 30.6102 11.7177 30.7119C11.7177 31.0169 11.5484 31.322 11.2097 31.6017C11.4758 31.9576 11.6452 32.161 11.6694 32.1864C11.8145 32.3898 11.9355 32.5169 12.0323 32.6441C12.1774 32.7966 12.3226 32.8729 12.4435 32.9237C12.4677 32.9237 12.4919 32.9237 12.5403 32.9237C12.5887 32.9237 12.6129 32.9492 12.6129 32.9492C12.6129 32.9746 12.5887 33 12.5403 33H12.1774C12.0081 33 11.8629 32.9746 11.7661 32.9237C11.6452 32.8475 11.4758 32.6695 11.2581 32.339C11.1613 32.1864 11.0161 31.9831 10.8952 31.7797C10.871 31.7542 10.8468 31.7542 10.8226 31.7542H10.4839C10.4597 31.7542 10.4597 31.7542 10.4597 31.7797V31.8305C10.4597 32.2881 10.4597 32.5678 10.4839 32.6695C10.5081 32.7966 10.5565 32.8729 10.629 32.8983C10.7016 32.8983 10.7742 32.9237 10.8226 32.9237C10.8468 32.9237 10.871 32.9237 10.871 32.9492C10.871 32.9746 10.8468 33 10.7984 33C10.7016 33 10.6048 33 10.4597 33C10.3145 33 10.2419 33 10.2419 33C10.2177 33 10.1694 33 10.0484 33C9.92742 33 9.85484 33 9.78226 33C9.73387 33 9.70968 32.9746 9.70968 32.9492C9.70968 32.9237 9.73387 32.9237 9.78226 32.9237C9.83064 32.9237 9.85484 32.9237 9.90323 32.9237C9.95161 32.8983 10 32.8475 10.0242 32.6949C10 32.5424 10 32.2627 10 31.8051ZM10.4597 30.2034V31.3983C10.4597 31.4492 10.4597 31.4746 10.4839 31.4746C10.5565 31.5 10.6532 31.5254 10.7742 31.5254C10.8952 31.5254 10.9919 31.5 11.0403 31.4492C11.1855 31.3475 11.2581 31.1441 11.2581 30.8644C11.2581 30.6102 11.1855 30.4322 11.0645 30.2797C10.9677 30.178 10.8226 30.1271 10.7016 30.1271C10.5806 30.1271 10.5081 30.1271 10.4839 30.1525C10.4597 30.178 10.4597 30.178 10.4597 30.2034Z" fill="#2B2A29"/>
<path d="M14.4766 33C13.9844 33 13.6094 32.8293 13.3516 32.5122C13.1172 32.2439 13 31.9024 13 31.5122C13 31.122 13.1172 30.8049 13.3516 30.5122C13.6328 30.1707 14.0078 30 14.5234 30C14.9687 30 15.3438 30.122 15.6016 30.3902C15.8594 30.6585 16 31 16 31.439C16 31.878 15.8594 32.2439 15.6016 32.5366C15.2969 32.8537 14.9219 33 14.4766 33ZM14.6172 32.8049C14.8281 32.8049 14.9922 32.7317 15.1328 32.6098C15.3438 32.4146 15.4609 32.0732 15.4609 31.5854C15.4609 31.1707 15.3672 30.8293 15.1563 30.561C14.9453 30.3171 14.7109 30.1951 14.4062 30.1951C14.1484 30.1951 13.9609 30.2683 13.7969 30.439C13.6094 30.6341 13.5156 30.9512 13.5156 31.3902C13.5156 31.8049 13.6094 32.122 13.8203 32.3902C14.0078 32.6829 14.2891 32.8049 14.6172 32.8049Z" fill="#2B2A29"/>
<path d="M17 31.7899V31.1093C17 30.6303 17 30.353 17 30.2773C17 30.1513 16.9302 30.0756 16.8372 30.0504C16.814 30.0504 16.7674 30.0504 16.6977 30.0504C16.6512 30.0504 16.6279 30.0504 16.6279 30.0252C16.6279 30 16.6512 30 16.6977 30C16.7674 30 16.8605 30 17 30C17.1163 30 17.2093 30 17.2326 30C17.2791 30 17.3721 30 17.4884 30C17.6047 30 17.6977 30 17.7674 30C18.0698 30 18.3023 30.0756 18.4419 30.2269C18.5581 30.353 18.6279 30.5042 18.6279 30.7059C18.6279 30.9832 18.5349 31.2101 18.3721 31.3866C18.2093 31.563 18 31.6639 17.7209 31.6639C17.6744 31.6639 17.6512 31.6639 17.6512 31.6639C17.6279 31.6639 17.6047 31.6387 17.6047 31.6387C17.6047 31.6135 17.6279 31.5883 17.6977 31.5883C17.814 31.5883 17.907 31.5378 18.0233 31.4118C18.1395 31.2857 18.186 31.1345 18.186 30.9328C18.186 30.6807 18.1163 30.479 17.9767 30.353C17.8837 30.2521 17.7442 30.2017 17.6047 30.2017C17.5349 30.2017 17.4884 30.2017 17.4651 30.2269C17.4419 30.2269 17.4419 30.2521 17.4419 30.3025V31.8656C17.4419 32.3193 17.4419 32.5967 17.4651 32.6975C17.4884 32.8235 17.5349 32.8992 17.6047 32.8992C17.6744 32.8992 17.7442 32.9244 17.7907 32.9244C17.8372 32.9244 17.8372 32.9244 17.8372 32.9496C17.8372 32.9748 17.814 33 17.7674 33C17.6744 33 17.5581 33 17.4419 33C17.3023 33 17.2326 33 17.2093 33C17.186 33 17.1163 33 17 33C16.8837 33 16.7907 33 16.7442 33C16.6977 33 16.6744 32.9748 16.6744 32.9496C16.6744 32.9244 16.6977 32.9244 16.7442 32.9244C16.7907 32.9244 16.814 32.9244 16.8605 32.9244C16.907 32.8992 16.9535 32.8488 16.9767 32.6975C17 32.521 17 32.2437 17 31.7899Z" fill="#2B2A29"/>
<path d="M20 30.2773C20 30.1513 19.9259 30.0756 19.8272 30.0504C19.8025 30.0504 19.7531 30.0504 19.679 30.0504C19.6296 30.0504 19.6049 30.0504 19.6049 30.0252C19.6049 30 19.6296 30 19.679 30C20.0271 30 21.1049 30 21.4568 30C21.5353 30 21.4473 30.4168 21.4321 30.479C21.4321 30.5042 21.4074 30.5799 21.3827 30.5799C21.358 30.5799 21.358 30.5042 21.358 30.479C21.358 30.4538 21.358 30.4286 21.358 30.4034C21.358 30.3782 21.358 30.353 21.3333 30.3277C21.3086 30.2521 21.2099 30.2017 21.0864 30.1765C20.9877 30.1765 20.8148 30.1513 20.5432 30.1513C20.5185 30.1513 20.5185 30.1765 20.5185 30.2017V31.2353C20.5185 31.2605 20.5185 31.2857 20.5432 31.2857C20.8889 31.2857 21.1111 31.2857 21.1605 31.2857C21.2099 31.2857 21.2346 31.2857 21.2593 31.2857C21.3086 31.2857 21.3333 31.2605 21.3333 31.2353C21.358 31.2101 21.3827 31.1849 21.4074 31.1849C21.4321 31.1849 21.4321 31.1849 21.4321 31.2101C21.4321 31.2101 21.4321 31.2353 21.4321 31.2857C21.4321 31.3362 21.4074 31.4118 21.4074 31.4874C21.4074 31.6387 21.3827 31.7143 21.3827 31.7395C21.3827 31.7899 21.3827 31.8151 21.358 31.8151C21.3333 31.8151 21.3333 31.7899 21.3333 31.7647C21.3333 31.7395 21.3333 31.6891 21.3086 31.6387C21.284 31.5378 21.2099 31.4874 21.0864 31.4874C21.0123 31.4874 20.8395 31.4874 20.5432 31.4874C20.5185 31.4874 20.5185 31.5126 20.5185 31.5378V32.4706C20.5185 32.6219 20.5432 32.6975 20.6173 32.7479C20.6667 32.7983 20.7901 32.7983 20.9877 32.7983C21.1605 32.7983 21.284 32.7731 21.358 32.7479C21.4568 32.6975 21.5062 32.5967 21.5309 32.4454C21.5309 32.395 21.5556 32.395 21.5802 32.395C21.6049 32.395 21.6049 32.4202 21.6049 32.4706C21.6049 32.6219 21.5802 32.7731 21.5556 32.8992C21.5309 32.9496 21.5309 32.9748 21.5062 32.9748C21.4815 32.9748 21.4321 33 21.358 33C20.8395 33 20.321 33 19.8025 33C19.7531 33 19.7284 32.9748 19.7284 32.9496C19.7284 32.9244 19.7531 32.9244 19.8025 32.9244C19.8519 32.9244 19.9506 32.9244 20 32.9244C20 32.042 20 31.1597 20 30.2773Z" fill="#2B2A29"/>
<path d="M23 31.8051V31.1187C23 30.6356 23 30.3559 23 30.2797C23 30.1526 22.9274 30.0763 22.8306 30.0509C22.8065 30.0509 22.7581 30.0509 22.6855 30.0509C22.6371 30.0509 22.6129 30.0509 22.6129 30.0254C22.6129 30 22.6371 30 22.6855 30C23.0403 30 23.3952 30 23.75 30C24.195 30 24.7177 30.1827 24.7177 30.7119C24.7177 31.017 24.5484 31.322 24.2097 31.6017C24.4758 31.9576 24.6452 32.161 24.6694 32.1865C24.8145 32.3898 24.9355 32.517 25.0323 32.6441C25.1774 32.7966 25.3226 32.8729 25.4435 32.9237C25.4677 32.9237 25.4919 32.9237 25.5403 32.9237C25.5887 32.9237 25.6129 32.9492 25.6129 32.9492C25.6129 32.9746 25.5887 33 25.5403 33H25.1774C25.0081 33 24.8629 32.9746 24.7661 32.9237C24.6452 32.8475 24.4758 32.6695 24.2581 32.339C24.1613 32.1865 24.0161 31.9831 23.8952 31.7797C23.871 31.7543 23.8468 31.7543 23.8226 31.7543H23.4839C23.4597 31.7543 23.4597 31.7543 23.4597 31.7797V31.8305C23.4597 32.2881 23.4597 32.5678 23.4839 32.6695C23.5081 32.7966 23.5565 32.8729 23.629 32.8983C23.7016 32.8983 23.7742 32.9237 23.8226 32.9237C23.8468 32.9237 23.871 32.9237 23.871 32.9492C23.871 32.9746 23.8468 33 23.7984 33C23.4597 33 23.121 33 22.7823 33C22.7339 33 22.7097 32.9746 22.7097 32.9492C22.7097 32.9237 22.7339 32.9237 22.7823 32.9237C22.8306 32.9237 22.8548 32.9237 22.9032 32.9237C22.9516 32.8983 23 32.8475 23.0242 32.6949C23 32.5424 23 32.2627 23 31.8051ZM23.4597 30.2034V31.3983C23.4597 31.4492 23.4597 31.4746 23.4839 31.4746C23.5565 31.5 23.6532 31.5254 23.7742 31.5254C23.8952 31.5254 23.9919 31.5 24.0403 31.4492C24.1855 31.3475 24.2581 31.1441 24.2581 30.8644C24.2581 30.5287 24.0896 30.1271 23.7016 30.1271C23.5806 30.1271 23.5081 30.1271 23.4839 30.1526C23.4597 30.178 23.4597 30.178 23.4597 30.2034Z" fill="#2B2A29"/>
<path d="M27 31.8656L27 30.1765L26.3429 30.2017C26.1143 30.2017 25.9714 30.2521 25.9143 30.3277C25.8857 30.3782 25.8571 30.4286 25.8286 30.4538C25.8286 30.479 25.8 30.5042 25.7714 30.5042C25.7429 30.5042 25.7429 30.479 25.7429 30.4538C25.7429 30.3782 25.7714 30.3025 25.8286 30.0756C25.8571 30.0252 25.8571 30 25.8857 30C26.0643 30 28.7182 30.0252 28.7143 30.0252C28.7429 30.0252 28.7429 30.0504 28.7429 30.1008C28.7429 30.1261 28.7429 30.1261 28.7429 30.2521C28.7429 30.3782 28.7429 30.4538 28.7429 30.479C28.7429 30.5294 28.7143 30.5294 28.7143 30.5294C28.6857 30.5294 28.6571 30.5042 28.6571 30.4538V30.4034C28.6286 30.2521 28.4571 30.2017 28.1429 30.1765H27.5714L27.5714 31.8656C27.5714 32.3193 27.5714 32.5966 27.6 32.6975C27.6286 32.8235 27.6857 32.8992 27.7714 32.8992C27.8571 32.8992 27.9429 32.9244 28 32.9244C28.0571 32.9244 28.0571 32.9244 28.0571 32.9496C28.0571 32.9748 28.0286 33 27.9714 33C27.5429 33 27.1143 33 26.6857 33C26.6286 33 26.6 32.9748 26.6 32.9496C26.6 32.9244 26.6286 32.9244 26.6857 32.9244C26.7429 32.9244 26.7714 32.9244 26.8286 32.9244C26.8857 32.8992 26.9429 32.8487 26.9714 32.6975C26.9714 32.5714 27 32.2941 27 31.8656Z" fill="#2B2A29"/>
<path d="M31.1463 31.5C31.122 31.475 31.0244 31.3 30.8537 31C30.6585 30.7 30.5366 30.475 30.4878 30.375C30.3902 30.225 30.3171 30.125 30.2195 30.1C30.1707 30.075 30.0976 30.05 30.0488 30.05C30 30.05 30 30.05 30 30.025C30 30 30.0244 30 30.0732 30C30.374 30 30.6748 30 30.9756 30C31.0244 30 31.0244 30 31.0244 30.025C31.0244 30.05 31 30.05 30.9512 30.075C30.9268 30.075 30.9024 30.1 30.9024 30.15C30.9024 30.175 30.9268 30.225 30.9512 30.275C30.9512 30.3 31.1707 30.675 31.6098 31.45C31.7805 31.125 31.9756 30.775 32.1707 30.375C32.1951 30.3 32.2195 30.225 32.2195 30.175C32.2195 30.125 32.1951 30.1 32.1463 30.075C32.0976 30.075 32.0732 30.05 32.0732 30.025C32.0732 30 32.0976 30 32.1463 30C32.4065 30 32.6667 30 32.9268 30C32.9756 30 33 30 33 30.025C33 30.05 32.9756 30.075 32.9268 30.075C32.8781 30.075 32.8293 30.1 32.7561 30.125C32.7073 30.15 32.6341 30.225 32.5366 30.325C32.4878 30.4 32.3415 30.6 32.1463 30.95C31.9512 31.275 31.8293 31.5 31.8049 31.575C31.6862 31.8183 31.6993 32.5002 31.7805 32.75C31.8049 32.85 31.8537 32.9 31.9268 32.9C32 32.9 32.0732 32.925 32.122 32.925C32.1707 32.925 32.1951 32.925 32.1951 32.95C32.1951 32.975 32.1707 33 32.122 33C31.7724 33 31.4228 33 31.0732 33C31.0244 33 31 32.975 31 32.95C31 32.925 31.0244 32.925 31.0732 32.925C31.0976 32.925 31.1463 32.925 31.1951 32.925C31.2683 32.9 31.3171 32.85 31.3171 32.7C31.3171 32 31.3546 31.8558 31.1463 31.5Z" fill="#2B2A29"/>
<path d="M36.4935 31.5126V31.8404C36.4935 32.2941 36.4935 32.5714 36.5195 32.6723C36.5454 32.7983 36.5974 32.874 36.6753 32.8992C36.7532 32.8992 36.8311 32.9244 36.8831 32.9244C36.935 32.9244 36.961 32.9244 36.961 32.9496C36.961 32.9748 36.935 33 36.8831 33C36.5021 33 36.0952 33 35.7143 33C35.6623 33 35.6363 32.9748 35.6363 32.9496C35.6363 32.9244 35.6623 32.9244 35.7143 32.9244C35.8777 32.9244 35.9435 32.8752 35.974 32.6975C36 32.5967 36 32.3193 36 31.8656V31.1849C36 30.7059 36 30.3782 36 30.3025C36 30.1765 35.9221 30.1009 35.8182 30.0756C35.7922 30.0756 35.7403 30.0756 35.6623 30.0756C35.6104 30.0756 35.5844 30.0756 35.5844 30.0504C35.5844 30.0252 35.6104 30 35.6883 30C36.0406 30 37.3506 30 37.5844 30C37.5844 30.0504 37.5584 30.1008 37.5584 30.1513C37.5584 30.2521 37.5584 30.353 37.5325 30.479C37.5325 30.5042 37.5065 30.5294 37.4805 30.5294C37.4545 30.5294 37.4545 30.5042 37.4286 30.479C37.4286 30.4034 37.4286 30.353 37.4026 30.3277C37.3766 30.2521 37.2727 30.2017 37.1429 30.2017H36.5195C36.4935 30.2017 36.4935 30.2269 36.4935 30.2521L36.4935 31.2857C36.4935 31.3109 36.4935 31.3109 36.5195 31.3109H37.0389C37.1428 31.3109 37.2208 31.3109 37.2208 31.3109C37.2987 31.3109 37.3506 31.2857 37.3766 31.2353C37.4026 31.2101 37.4285 31.1849 37.4285 31.1849C37.4545 31.1849 37.4545 31.1849 37.4545 31.2101C37.4545 31.2101 37.4545 31.2353 37.4545 31.2857C37.4545 31.3362 37.4285 31.3866 37.4285 31.437C37.4285 31.5378 37.4026 31.6387 37.4026 31.7143C37.4026 31.7647 37.3766 31.7899 37.3506 31.7899C37.3247 31.7899 37.3247 31.7647 37.3247 31.7143C37.3247 31.6891 37.2987 31.6387 37.2987 31.6135C37.2727 31.5378 37.1948 31.4874 37.0909 31.4622C37.013 31.4622 36.8571 31.4622 36.5195 31.4622C36.4935 31.4874 36.4935 31.4874 36.4935 31.5126Z" fill="#2B2A29"/>
<path d="M39 31.7143C39 31.2437 39 30.7479 39 30.2773C39 30.1513 38.9269 30.0756 38.8293 30.0504C38.8049 30.0504 38.7561 30.0504 38.683 30.0504C38.6342 30.0504 38.6098 30.0504 38.6098 30.0252C38.6098 30 38.6342 30 38.683 30C39.0244 30 39.3659 30 39.7074 30C39.7561 30 39.7805 30 39.7805 30.0252C39.7805 30.0504 39.7561 30.0504 39.7318 30.0504C39.7074 30.0504 39.6586 30.0504 39.6098 30.0504C39.5122 30.0756 39.4879 30.1513 39.4635 30.2773C39.4635 30.7395 39.4635 31.2269 39.4635 31.6891C39.4635 32.2304 39.6157 32.7983 40.2439 32.7983C40.9277 32.7983 41 32.1359 41 31.6134C41 31.1681 41 30.7227 41 30.2773C41 30.1513 40.9269 30.0756 40.8293 30.0504C40.8049 30.0504 40.7561 30.0504 40.683 30.0504C40.6342 30.0504 40.6098 30.0252 40.6098 30C40.5 30 41.4197 30 41.5366 30C41.5854 30 41.6098 30 41.6098 30.0252C41.6098 30.0504 41.5854 30.0504 41.5366 30.0504C41.5122 30.0504 41.4635 30.0504 41.4147 30.0504C41.3171 30.0756 41.2927 30.1513 41.2683 30.2773C41.2683 30.6975 41.2683 31.1176 41.2683 31.5378C41.2683 32.2662 41.0244 33 40.1464 33C39.3322 33 39 32.4835 39 31.7143Z" fill="#2B2A29"/>
<path d="M43.3 30.7805V32.4634C43.3 32.7303 43.321 32.8409 43.5538 32.9024C43.623 32.9024 43.6692 32.9268 43.6692 32.9512C43.6692 32.9756 43.6461 33 43.5769 33C43.3 33 43.023 33 42.7461 33C42.7 33 42.6769 32.9756 42.6769 32.9512C42.6769 32.9268 42.7 32.9268 42.7692 32.9268C43.0287 32.9268 43 32.6283 43 32.439V30.122C43 30.0244 43.023 30 43.0461 30C43.0692 30 43.1153 30.0488 43.1846 30.122C43.8312 30.8053 44.1273 31.5109 44.7462 32.2195H44.7692L44.7231 30.4146C44.7231 30.299 44.7177 30.1201 44.5846 30.0732C44.5385 30.0488 44.4923 30.0488 44.4 30.0488C44.3538 30.0488 44.3538 30.0488 44.3538 30.0244C44.3538 30 44.3769 30 44.4462 30C44.7077 30 44.9692 30 45.2308 30C45.2769 30 45.3231 30 45.3231 30.0244C45.3231 30.0488 45.3 30.0488 45.2538 30.0488C45.0355 30.0488 45 30.2125 45 30.3902V32.878C45 32.9512 44.9769 33 44.9538 33C44.9308 33 44.8846 32.9756 44.8385 32.9268C44.1817 32.2327 43.953 31.4707 43.3 30.7805Z" fill="#2B2A29"/>
<path d="M47 30.275C47 30.15 46.9291 30.075 46.8346 30.05C46.811 30.05 46.7637 30.05 46.6929 30.05C46.6456 30.05 46.622 30.05 46.622 30.025C46.622 30 46.6456 30 46.6929 30C47.063 30 47.433 30 47.8031 30C48.7499 30 49.4961 30.3404 49.4961 31.45C49.4961 32.404 48.9162 33 47.9921 33C47.8976 33 47.7575 33 47.5669 33C47.5 33 47.0157 33 46.7402 33C46.6929 33 46.6693 32.975 46.6693 32.95C46.6693 32.925 46.6929 32.925 46.7402 32.925C46.7874 32.925 46.811 32.925 46.8583 32.925C46.9055 32.9 46.9764 32.85 47 32.65C47 31.8589 47 31.0667 47 30.275ZM47.4488 31.025C47.4488 31.4583 47.4488 31.8917 47.4488 32.325C47.4488 32.5 47.4724 32.6 47.496 32.625C47.5669 32.725 47.7322 32.775 47.9685 32.775C48.758 32.775 49 32.2797 49 31.525C49 30.7202 48.5372 30.15 47.7322 30.15C47.6141 30.15 47.5196 30.15 47.496 30.175C47.4724 30.2 47.4488 30.225 47.4488 30.25C47.4488 30.35 47.4488 30.625 47.4488 31.025Z" fill="#2B2A29"/>
</svg>
