<!-- by TradingView --><svg width="56" height="56" viewBox="0 0 56 56" xmlns="http://www.w3.org/2000/svg"><path fill="#F0F3FA" d="M0 0h56v56H0z"/><path d="M27.3 12c1.3.07 5.72.6 6.75 4.7a.15.15 0 0 1-.13.2c-.86.1-4.78.7-6.46 3.14-.09.12-.28.06-.28-.1.03-.85.26-2.64 1.56-4.52.51-.75-.96-2.5-1.56-3.16a.15.15 0 0 1 .12-.26Z" fill="#6ABF5C"/><path d="M35.38 13.79c1.1.7 4.66 3.37 3.5 7.45a.15.15 0 0 1-.2.1c-.8-.34-4.5-1.77-7.17-.5-.14.06-.27-.1-.2-.23a8.58 8.58 0 0 1 3.6-3.15c.83-.39.43-2.63.24-3.51a.15.15 0 0 1 .23-.16Z" fill="#F2B111"/><path d="M41.5 19.37c.6 1.17 2.35 5.25-.7 8.2a.15.15 0 0 1-.22-.02c-.52-.69-3.01-3.77-5.96-4-.15-.02-.2-.22-.06-.3.76-.4 2.42-1.1 4.7-.92.9.07 1.68-2.08 1.95-2.93a.15.15 0 0 1 .28-.03Z" fill="#0E3C64"/><path d="M44 27.26c-.06 1.3-.58 5.73-4.69 6.77a.15.15 0 0 1-.18-.13c-.11-.86-.73-4.78-3.16-6.46-.13-.08-.07-.28.09-.27.85.02 2.64.24 4.53 1.53.75.52 2.5-.95 3.16-1.56.1-.09.26-.01.25.12Z" fill="#E85124"/><path d="M42.23 35.35c-.7 1.1-3.35 4.67-7.43 3.52a.15.15 0 0 1-.1-.2c.34-.8 1.75-4.51.48-7.18-.06-.13.09-.27.22-.2a8.58 8.58 0 0 1 3.16 3.6c.39.82 2.64.42 3.51.23.14-.03.24.11.16.23Z" fill="#5FC6C4"/><path d="M36.67 41.47c-1.16.6-5.24 2.38-8.2-.66a.15.15 0 0 1 .01-.22c.7-.53 3.77-3.03 4-5.98.01-.15.21-.19.28-.06.41.76 1.12 2.42.95 4.7-.07.9 2.08 1.67 2.93 1.95.13.04.15.21.03.27Z" fill="#0E3C64"/><path d="M28.79 44c-1.31-.05-5.73-.56-6.78-4.66a.15.15 0 0 1 .13-.19c.86-.11 4.77-.74 6.44-3.18.09-.12.28-.06.28.09a8.57 8.57 0 0 1-1.53 4.54c-.5.74.97 2.49 1.57 3.15.1.1.02.26-.11.25Z" fill="#6ABF5C"/><path d="M20.7 42.26c-1.1-.7-4.69-3.34-3.55-7.42a.15.15 0 0 1 .2-.1c.8.33 4.51 1.74 7.18.46.13-.07.27.09.2.21a8.58 8.58 0 0 1-3.6 3.17c-.81.4-.4 2.65-.2 3.52.02.13-.12.23-.24.16Z" fill="#F2B111"/><path d="M14.55 36.71c-.6-1.16-2.38-5.23.64-8.2a.15.15 0 0 1 .23.01c.52.7 3.03 3.76 5.98 3.99.15 0 .2.2.06.28a8.57 8.57 0 0 1-4.69.96c-.9-.07-1.67 2.08-1.94 2.94a.15.15 0 0 1-.28.02Z" fill="#0E3C64"/><path d="M12 28.84c.05-1.3.55-5.73 4.65-6.8.09-.01.17.05.19.14.1.86.75 4.77 3.2 6.43.12.09.06.28-.1.28a8.57 8.57 0 0 1-4.54-1.51c-.75-.51-2.48.97-3.14 1.58-.1.09-.27.02-.26-.12Z" fill="#E85124"/><path d="M13.72 20.74c.7-1.1 3.33-4.69 7.42-3.56.08.02.13.12.1.2-.33.8-1.73 4.52-.44 7.18.06.13-.09.27-.22.2a8.57 8.57 0 0 1-3.18-3.59c-.4-.81-2.64-.4-3.52-.2a.15.15 0 0 1-.16-.23Z" fill="#5FC6C4"/><path d="M19.25 14.59c1.16-.61 5.23-2.4 8.2.6.07.07.06.18-.01.24-.69.53-3.75 3.04-3.96 6-.01.14-.21.19-.29.05a8.57 8.57 0 0 1-.97-4.68c.07-.9-2.09-1.67-2.94-1.93-.13-.05-.15-.22-.03-.28Z" fill="#0E3C64"/></svg>