<!-- by TradingView --><svg width="56" height="56" viewBox="0 0 56 56" fill="none" xmlns="http://www.w3.org/2000/svg">
<rect width="56" height="56" fill="#0083C3"/>
<path fill-rule="evenodd" clip-rule="evenodd" d="M12 22H4V24H7V34H9V24H12V22Z" fill="#F0F3FA"/>
<path fill-rule="evenodd" clip-rule="evenodd" d="M20 32.5714V22H22V34H21.2903C20.5806 34 20 33.3571 20 32.5714Z" fill="#F0F3FA"/>
<path fill-rule="evenodd" clip-rule="evenodd" d="M23 34V22H25V34H23Z" fill="#F0F3FA"/>
<path fill-rule="evenodd" clip-rule="evenodd" d="M29.5 25H27.5L25 29L28 34H30L27 29L29.5 25Z" fill="#F0F3FA"/>
<path fill-rule="evenodd" clip-rule="evenodd" d="M33.5703 25H34.4298C36.4132 25 38 26.7419 38 28.9194V30.0806C38 32.2581 36.4132 34 34.4298 34H33.5703C31.5868 34 30 32.2581 30 30.0806V28.9194C30 26.7419 31.5868 25 33.5703 25ZM32 29C32 28.0565 32.5 27 34.0372 27C35.5 27 35.9256 28.0565 36 29V30C36 30.9435 35.5 32 34.0372 32C32.5 32 32 30.9435 32 30V29Z" fill="#F0F3FA"/>
<path fill-rule="evenodd" clip-rule="evenodd" d="M18.9999 28.538V30.024H13.3967C13.67 31.1562 14.49 32 15.8567 32C17.2233 32 18.1799 31.5754 18.1799 31.5754L18.5899 33.3632C18.5899 33.3632 17.8383 34 15.5833 34C10.8618 34 10.9861 29.9471 11.0038 29.3702C11.0045 29.3459 11.0051 29.3278 11.0051 29.3164C11.0051 29.0334 11.0051 25 15 25C18.9949 25 18.9999 28.538 18.9999 28.538ZM16.745 28.5H13.3967C13.3967 28.5 13.6701 27 15.0367 27C16.4717 27 16.745 28.5 16.745 28.5Z" fill="#F0F3FA"/>
<path fill-rule="evenodd" clip-rule="evenodd" d="M39 25L39 34H41V28.7016C41 28.7016 41.1967 27 42.6721 27C43.9836 27 44 28.629 44 28.629V34H46V28.5565C46 28.5565 46.2787 27 47.5246 27C48.7705 27 49 28.3387 49 28.3387V34H51V27.3952C51 27.25 51 25 48.5082 25C46.5 25 46 26 46 26C46 26 45.3607 25 43.459 25C41.4918 25 40.8361 26.0726 40.8361 26C40.8361 25.9274 41 25 41 25H39Z" fill="#F0F3FA"/>
</svg>
