<!-- by TradingView --><svg width="56" height="56" viewBox="0 0 56 56" xmlns="http://www.w3.org/2000/svg"><path fill="#F0F3FA" d="M0 0h56v56H0z"/><path d="M27 30H10l9.42-8.52L27 30ZM46 30H29l7.94-8.62L46 30ZM34 18H22l6.02-6L34 18Z" fill="#6394AA"/><path fill-rule="evenodd" d="M18.88 19h18.37l-9.12 10-9.25-10Zm4.5 2h9.36l-4.64 5-4.72-5Z" fill="#F58220"/><path fill-rule="evenodd" d="M10 33h2.08a3.46 3.46 0 0 1 3.42 3.5c0 1.93-1.53 3.5-3.42 3.5H10v-7Zm1.5 1.5h.81c.93 0 1.69.9 1.69 2s-.76 2-1.69 2h-.81v-4ZM19 33h4v1.5h-2.5v1.2H23v1.5h-2.5v1.3H23V40h-4v-7Zm11 7h-3.5v-7H28v5.5h2V40Zm7.5-7H32v1.5h2V40h1.5v-5.5h2V33Zm5.65 0h-1.17l-2.8 7h1.5l.4-1h3l.45 1H46l-2.85-7Zm.28 4.5H41.7l.83-2.05.9 2.05Z" fill="#231F20"/></svg>