<!-- by TradingView --><svg width="56" height="56" viewBox="0 0 56 56" xmlns="http://www.w3.org/2000/svg"><path fill="#F0F3FA" d="M0 0h56v56H0z"/><path d="M17.76 11h20.48c.97 0 1.76.79 1.76 1.76v7.36l-3.92-7.86-4.76 5.27 3.22 7.79-7.41-3.16-4.41 5.12 3.7 7.72-7.76-3.09L16 34.93V12.76c0-.97.79-1.76 1.76-1.76ZM22 25a3 3 0 1 0 0-6 3 3 0 0 0 0 6Z" fill="#29267D"/><path d="M30.29 43.24 16 38.08v5.1c0 1 .8 1.82 1.77 1.82h20.46A1.8 1.8 0 0 0 40 43.18V31.8l-1.75 2.37L31.67 31l3.27 7.08-4.65 5.16Z" fill="#94908D"/></svg>