<!-- by TradingView --><svg width="56" height="56" viewBox="0 0 56 56" fill="none" xmlns="http://www.w3.org/2000/svg">
<rect width="56" height="56" fill="#F0F3FA"/>
<path fill-rule="evenodd" clip-rule="evenodd" d="M43.9109 34C44.6148 32.1342 45 30.1121 45 28C45 25.8879 44.6148 23.8658 43.9109 22H36.9003C36.3218 22 36 22.7223 36 23.2781V24H31V19.0063C31 18.4506 31.4689 18 32.0473 18H41.7492C38.6581 13.7573 33.6511 11 28 11C22.3489 11 17.3419 13.7573 14.2508 18H24.0712C24.6403 18 25 18.4506 25 19.0063V24H20V23.2781C20 22.7223 19.8658 22 19.2967 22H12.0891C11.3852 23.8658 11 25.8879 11 28C11 30.1121 11.3852 32.1342 12.0891 34H19.0997C19.6782 34 20 33.2813 20 32.7255V32.0036H25V36.9973C25 37.553 24.5311 38.0036 23.9527 38.0036H14.2534C17.3447 42.2442 22.3505 45 28 45C33.6511 45 38.6581 42.2427 41.7492 38H32.0473C31.4689 38 31 37.5494 31 36.9937V32H36V32.7219C36 33.2777 36.3218 34 36.9003 34H43.9109ZM18 26.6386C18 26.2859 18.302 26 18.6746 26H37.3254C37.698 26 38 26.2859 38 26.6386V29.3614C38 29.7141 37.698 30 37.3254 30H18.6746C18.302 30 18 29.7141 18 29.3614V26.6386Z" fill="#F89828"/>
</svg>
