<!-- by TradingView --><svg width="56" height="56" viewBox="0 0 56 56" xmlns="http://www.w3.org/2000/svg"><path fill="#231F20" d="M0 0h56v56H0z"/><path d="m21.52 36.46-.37 1.19 4.94 2.8c.39.2 1.31.6 1.89.6.58 0 1.57-.4 1.99-.6l5.04-2.8-.56-1.2V25.7l.45-1.14h-2.48l-1.1 1.14h1.42c.47 0 .84.37.84.82V37c-2.39 2.02-4.73 2.72-5.6 2.82-1.63 0-4.3-1.88-5.43-2.82v-10.5c0-.45.37-.82.84-.82h1.37l-1.08-1.14h-2.53l.37 1.4v10.5Z" fill="#fff"/><path d="M13.61 27.25c.06.31.2.8.61.8.58 0 .91-.7.83-1.23l-.13-.44c.1.02.3.14.34.44.05.3.02.5 0 .57.24-.08.78-.33 1.06-.7.35-.45 0-1-.12-1.04-.1-.03-.31-.21-.4-.3.27.1.86.3 1 .3.17 0 .95-.34.92-.83-.02-.4-.2-.9-.28-1.1.19.3.56.93.56.96 0 .02.17-.1.39-.27.42-.31 1.06-.79 1.3-.86.28-.1.72.41.9.68.1.07.32.2.55.14.28-.07-.18-1.12-.92-2a3.55 3.55 0 0 0-1.73-1.12c-.15-.05-.44-.03-.43.48-.19-.2-.69-.59-1.26-.57-.57.03-.52.49-.43.71-.28-.09-.95-.23-1.32-.09-.45.18-1.15 1.4-1.47 4.3-.08-.92 0-3.07.85-4.3-.02 0-.04-.03-.08-.05-.14-.11-.4-.3-.92.05-.5.35-.63.82-.62 1.02l.39.12c-.29.06-.92.42-1.1 1.31-.18.9-.08 1.12 0 1.12l.53-.3c-.15.15-.44.58-.4 1.15.03.57.24.77.34.79l.7.91c.15.08.41.03.34-.65Zm5.6.97a10.4 10.4 0 0 1 0-2.54c.52-.4.8.15 1 .52l.14.24c.07.08.14.12.22.15.14.07.3.15.53.55.3.54.23 4.08.2 5.08v.25c0 .27-.66 2.24-.73 2.3-.05.05-.22-.26-.3-.42l-.11-1.1c-.12.04-.41 0-.59-.5-.18-.47.15-.66.33-.69-.1-.03-.36-.23-.49-.72-.11-.46.03-.64.13-.69-.06 0-.16-.13-.24-.67a2.2 2.2 0 0 1 .11-1.2 3.7 3.7 0 0 0-.2-.56Zm-3.11-.65c.09.24 1.14.64 1.2.64-.2 0-.63.08-.72.4-.1.39-.16 1.04.24 1.08.33.03.46.28.49.4-.16.13-.51.47-.62.75-.11.29.5.53.8.62l-.33.54c.07.16.26.55.48.8.23.23.54.1.66 0-.1.18-.3.63-.23.92.08.3.46.65.64.79l.33-.1c-.02 1.25.83 1 .81.9 0-.09-.16-.74-.23-1.06-.06-.1-.2-.35-.23-.63a1.38 1.38 0 0 0-.09-.47c-.12-.07-.32-.23-.16-.36.16-.12-.07-.83-.2-1.16l-.23-.97.13-.79-.13-.48.13-.38-.13-.4c.04-.11.13-.46.13-1.04 0-.48-.1-.97-.17-1.29-.03-.15-.06-.26-.06-.32 0-.14-.4-.21-.6-.24l-.54.15-1.37 1.35c-.04.04-.08.16 0 .35ZM42.39 27.25c-.06.31-.2.8-.61.8-.58 0-.91-.7-.83-1.23l.13-.44c-.1.02-.3.14-.34.44-.05.3-.02.5 0 .57a2.56 2.56 0 0 1-1.06-.7c-.35-.45 0-1 .12-1.04.1-.03.31-.21.4-.3-.27.1-.86.3-1 .3-.17 0-.95-.34-.92-.83.02-.4.2-.9.28-1.1-.19.3-.56.93-.56.96 0 .02-.17-.1-.39-.27-.42-.31-1.06-.79-1.3-.86-.28-.1-.72.41-.9.68-.1.07-.32.2-.55.14-.28-.07.18-1.12.92-2a3.55 3.55 0 0 1 1.73-1.12c.15-.05.44-.03.43.48.19-.2.69-.59 1.26-.57.57.03.52.49.43.71.28-.09.95-.23 1.32-.09.45.18 1.15 1.4 1.47 4.3.08-.92 0-3.07-.85-4.3.02 0 .04-.03.08-.05.14-.11.4-.3.92.05.5.35.63.82.62 1.02l-.39.12c.29.06.92.42 1.1 1.31.18.9.08 1.12 0 1.12l-.53-.3c.15.15.44.58.4 1.15-.03.57-.24.77-.34.79l-.7.91c-.15.08-.41.03-.34-.65Zm-5.6.97c.15-.31.07-2.29 0-2.54-.52-.4-.8.15-1 .52l-.14.24c-.07.08-.14.12-.22.15-.14.07-.3.15-.53.55-.3.54-.23 4.08-.2 5.08v.25c0 .27.66 2.24.73 2.3.05.05.22-.26.3-.42l.11-1.1c.12.04.41 0 .59-.5.18-.47-.15-.66-.34-.69.12-.03.37-.23.5-.72.11-.46-.03-.64-.13-.69.06 0 .16-.13.24-.67a2.2 2.2 0 0 0-.11-1.2c.02-.09.09-.32.2-.56Zm3.11-.65c-.09.24-1.14.64-1.2.64.2 0 .63.08.72.4.1.39.16 1.04-.24 1.08a.54.54 0 0 0-.49.4c.16.13.51.47.62.75.11.29-.5.53-.8.62l.33.54c-.07.16-.26.55-.48.8-.23.23-.54.1-.66 0 .1.18.3.63.23.92-.08.3-.46.65-.64.79l-.33-.1c.02 1.25-.83 1-.81.9 0-.09.16-.74.23-1.06.06-.1.2-.35.23-.63.02-.28.07-.43.09-.47.12-.07.32-.23.16-.36-.16-.12.07-.83.2-1.16l.23-.97-.13-.79.13-.48-.13-.38.13-.4a3.1 3.1 0 0 1-.13-1.04c0-.48.1-.97.17-1.29.03-.15.06-.26.06-.32 0-.14.4-.21.6-.24l.54.15 1.37 1.35c.04.04.08.16 0 .35ZM16.77 38.23c-1.15 0-1.42-.39-1.5-.42-.28.9.94 1.4 1.6 1.54.05.03.12.12-.1.3-.21.16-1.2.53-1.67.7-.04.18.2.54 1.52.54 1.65 0 1.4-1.09 1.4-1.54 0-.44.28-.73.72-.73.45 0 .5.08.5.33 0 .24.21.29.44.4.17.1.78-.04 1.06-.11l-1.06-.4c-.04-.39-.14-1.2-.23-1.23-.1-.04-1.52.62-2.68.62ZM39.39 38.23c1.15 0 1.42-.39 1.5-.42.28.9-.94 1.4-1.59 1.54-.06.03-.12.12.09.3.21.16 1.2.53 1.67.7.04.18-.2.54-1.52.54-1.65 0-1.4-1.09-1.4-1.54 0-.44-.28-.73-.72-.73-.45 0-.5.08-.5.33 0 .24-.21.29-.43.4-.18.1-.79-.04-1.07-.11l1.07-.4c.04-.39.14-1.2.22-1.23.1-.04 1.52.62 2.68.62Z" fill="#fff"/><path d="m21.38 38.1 4.73 2.58c.34.21 1.2.64 1.87.64.66 0 1.56-.43 1.92-.64l4.72-2.58v1.11c-.64.06-2.32.44-3.95 1.47-.2.1-.54.27-.84.4l1.9-.71c1.02-.38 1.63-.81 2.98-.81 1.08 0 2.07.32 2.43.48l.21 1.28c.04.23-.02 1.28-.36 1.28-.35 0-1.2-.6-2.28-.6-1.08 0-4.21 2-6.73 2-2.52 0-5.31-2-6.6-2-1.28 0-2.3.7-2.5.6-.2-.1-.34-.92-.34-1.28s.14-1.55.24-1.59c.1-.04 1.12-.31 2.13-.31 1.02 0 2.56.48 3.58.95.81.37 1.8.79 2.2.95a32.2 32.2 0 0 0-2.2-1.12l-3.1-1.1v-1ZM23.02 29.04V27.1c.15.27.62.82 1.3.82.87 0 .72-.26 1.82-.26.88 0 1.21.5 1.27.74v1.76c-.21-.27-.76-.81-1.27-.81-.63 0-.82.32-1.81.32-.8 0-1.2-.43-1.3-.64ZM23.02 32.66v-1.92c.15.27.62.81 1.3.81.87 0 .72-.26 1.82-.26.88 0 1.21.5 1.27.74v1.77c-.21-.27-.76-.82-1.27-.82-.63 0-.82.32-1.81.32-.8 0-1.2-.42-1.3-.64ZM23.02 36.29v-1.93c.15.28.62.82 1.3.82.87 0 .72-.26 1.82-.26.88 0 1.21.5 1.27.74v1.76c-.21-.27-.76-.81-1.27-.81-.63 0-.82.32-1.81.32-.8 0-1.2-.43-1.3-.64Z" fill="#fff"/><path d="M27.97 28.15v11.4c1.18-.27 3.8-1.14 5.15-2.55h-1.47c-.12-.02-.37-.4-.37-.82v-3.02a.66.66 0 0 0-.68-.6v4.2c-.4 0-1.26.14-1.6.67V28.7c-.06-.17-.34-.51-.94-.51l-.03-.08-.06.05Zm.18-.15h3.77c.37 0 1.1.37 1.1 1.85 0 1.49-.73 1.97-1.1 2.02h-.64v.4h.75c.3-.01.97.17.97 1.1V36.36c.02.17.05.48.15.6l.12-.13V26.75c0-.45-.38-.75-.84-.75h-1.88l-2.4 2Zm2.17.86v2.76c.3-.07.89-.46.89-1.43s-.6-1.29-.89-1.33ZM33.09 22.98c.07.05.09.14.03.21a35.66 35.66 0 0 1-1.52 1.89 2.23 2.23 0 0 1-.29.24.26.26 0 0 1-.12.04.83.83 0 0 0-.27.07c-.1.03-.19.08-.24.11l-2.65 2-.1-.07c-.77-.57-2.38-1.76-2.64-1.93a.48.48 0 0 0-.31-.1.6.6 0 0 1-.38-.11 101.76 101.76 0 0 1-1.9-2.13.15.15 0 0 1 .03-.22.16.16 0 0 1 .23.02 100.37 100.37 0 0 0 1.83 2.08c.07.05.1.05.2.05h.02a.8.8 0 0 1 .46.16c.26.17 1.76 1.28 2.56 1.87l2.47-1.87h.01c.07-.05.17-.1.3-.15.1-.04.23-.08.35-.09l.04-.02.17-.16.48-.55c.36-.44.76-.96 1.02-1.3a.16.16 0 0 1 .22-.04Zm-1.94 2.08Z" fill="#fff"/><path d="M32.6 22.71c.07.05.08.13.04.2a32.33 32.33 0 0 1-1.39 1.7 2 2 0 0 1-.25.23.24.24 0 0 1-.12.03.75.75 0 0 0-.24.06l-.22.1-2.4 1.82-.09-.06c-.7-.52-2.16-1.6-2.4-1.76a.44.44 0 0 0-.28-.08c-.09 0-.2-.01-.34-.1a91.57 91.57 0 0 1-1.72-1.93.14.14 0 0 1 .03-.2.15.15 0 0 1 .2.02 91.07 91.07 0 0 0 1.66 1.88c.06.04.1.05.18.05h.02c.1 0 .24.02.42.14.23.15 1.6 1.16 2.32 1.7l2.24-1.7c.07-.04.17-.1.27-.14.1-.03.22-.07.33-.08 0 0 .02 0 .03-.02l.15-.14c.12-.13.28-.3.44-.5.33-.4.7-.87.93-1.19a.15.15 0 0 1 .2-.03Zm-1.75 1.89Z" fill="#fff"/><path d="M27.1 23.68c.37.31.38.36.4.46 0 .03 0 .06.02.1.23.14.22.05.21-.06v-.07c0-.12.1-.65.21-.76.1-.11-.05-.33-.1-.33-.03 0-.07.08-.12.18-.07.13-.15.3-.2.26-.08-.06-.19-.2-.14-.36.06-.15.05-.52-.14-.69-.2-.17-.55-.18-.72-.1-.1.05-.03.1.1.2.07.03.14.08.22.15.23.19.1.44.07.36-.02-.04-.06-.06-.11-.09a.36.36 0 0 1-.1-.06c-.08-.07-.42-.13-.55-.1-.1.04-.05.1.04.22l.1.11c.06.1.12.13.23.19.11.06.28.16.57.39Zm-1.55.2c.03.2.26.28.47.33.1.03.2.06.26.1.26-.07.2-.2.14-.3l-.01-.02a.52.52 0 0 0-.15-.13c-.1-.08-.23-.17-.26-.29-.05-.19-.28-.31-.38-.27-.1.04-.11.27-.07.58Zm-1.13-1.06c-.05.08-.08.27.17.38.3.13.28-.05.27-.15v-.01c0-.1-.18-.31-.44-.22Zm2.73 1.76c-.26-.1-.22-.3-.17-.38.25-.1.43.13.44.22v.01c0 .1.03.28-.27.15Zm.27.5c-.05.09-.09.28.17.39.3.13.28-.05.27-.15v-.02c-.01-.09-.19-.3-.44-.21Zm-.74.16c-.26-.1-.22-.3-.17-.38.25-.09.43.13.44.22v.02c0 .1.03.27-.27.14Zm2.39-1.56c-.38.31-.39.36-.4.46l-.03.1c-.23.14-.22.05-.21-.06v-.07c0-.12-.1-.65-.2-.76-.11-.11.04-.33.1-.33.02 0 .06.08.1.18.08.13.16.3.21.26.08-.06.19-.2.14-.36-.06-.15-.05-.52.14-.69.2-.17.55-.18.72-.1.1.05.03.1-.1.2-.07.03-.14.08-.22.15-.23.19-.1.44-.07.36.02-.04.06-.06.11-.09a.35.35 0 0 0 .1-.06c.08-.07.42-.13.55-.1.1.04.05.1-.04.22l-.1.11a.62.62 0 0 1-.23.19c-.11.06-.28.16-.57.39Zm1.54.2c-.03.2-.26.28-.47.33-.1.03-.2.06-.26.1-.26-.07-.2-.2-.14-.3l.01-.02c.02-.04.08-.08.15-.13.1-.08.23-.17.26-.29.05-.19.28-.31.38-.27.1.04.11.27.07.58Zm1.13-1.06c.05.08.08.27-.17.38-.3.13-.28-.05-.27-.15v-.01c0-.1.18-.31.44-.22ZM29 24.58c.26-.1.22-.3.17-.38-.25-.1-.43.13-.44.22v.01c0 .1-.03.28.27.15Zm-.27.5c.05.09.09.28-.17.39-.3.13-.28-.05-.27-.15v-.02c.01-.09.19-.3.44-.21Zm.74.16c.26-.1.22-.3.17-.38-.25-.09-.43.13-.44.22v.02c0 .1-.02.27.27.14Z" fill="#fff"/><path fill-rule="evenodd" d="M26.04 18.36v-.54c.1-.53.86-1.27 1.2-1.27.32 0 .4-.16.4-.24v-.27h.68v.27c-.02.06.01.2.31.24.37.06 1.35.73 1.35 1.27v.54h-.41c-.06-.17-.2-.41-.42-.63v2.34c.28-.24.45-.52.53-.71l.58.6c-.1.31-.7.92-2.23.92s-2.12-.61-2.22-.91l.33-.61c.12.18.34.46.65.7v-2.18a1.8 1.8 0 0 0-.31.48h-.44Zm2.84 1.9v-2.74a1.5 1.5 0 0 0-.4-.18v3.1c.14-.04.28-.1.4-.17Zm-.81-2.97h.13v3.2a1.69 1.69 0 0 1-.52-.02v-3.13c.12-.03.25-.05.39-.05Zm-1 .34v2.6c.1.07.22.12.34.17v-2.97c-.13.05-.25.12-.35.2Z" fill="#fff"/><path d="M20.2 18.53c-.29-.35-.7-.82-.75-.92l-.04-.05c-.11-.18-.37-.58-.37-1.1 0-.46.13-.76.2-.85-.1-.04-.35-.08-.5.11-.2.24-.37.3-.4.18l-.02-.06c-.03-.1-.06-.18.02-.31a.41.41 0 0 1 .1-.1c.08-.07.12-.1-.24-.2-.5-.13-.29-.75.04-.75.34 0 .68.03.74.15.06.13.22.44.36.52l.12.08c.12.1.23.18.17-.08-.05-.2-.16-.3-.25-.36-.06-.05-.1-.1-.1-.16 0-.15.09-.26.22-.29.13-.02.35 0 .32.14 0 .05-.02.09-.03.13-.04.1-.07.2.03.21.08.02.18-.04.3-.1.1-.05.2-.12.33-.15.27-.09.57-.09.67-.09.08 0 .46.1.64.15v-.78c0-.14.1-.44.43-.44.4 0 .53.44.5.44-.04 0-.2.25-.3.4l-.06.1-.01.02c-.09.12-.14.2.01.23h.02c.16.04.3.07.43-.33l.05-.2c.1-.39.22-.82.7-.82.56 0 .61.45.27.77-.3.3.12.22.3.2l.03-.01c.12-.02.62.25.31.39-.18.08-.4.1-.56.12-.1.01-.2.02-.22.05-.03.02 0 .02.07.02.12.01.32.03.28.2-.06.2-.48.27-.68.3-.04.12-.1.4 0 .55l.17.2c.13.15.27.3.3.42.05.17.01.44-.23.27-.23-.17-.42-.34-.6-.5l-.01-.01c-.18-.16-.39-.42-.4-.6-.02-.19-.27-.64-.37-.64-.1 0-.28.04-.28.17s-.1.2-.15.2h-.04c-.07.01-.22.04-.34-.07l-.04-.03c-.14-.13-.32-.3-.44-.3l-.08-.02c-.11-.01-.24-.03-.37.05-.17.1-.64.57-.57.74.02.05.06.1.1.15.09.15.2.3.07.45-.17.19-.18.4 0 .4s.36.1.24.2c-.07.07-.2.13-.31.18l-.16.07c-.02.02.04.04.13.08.17.07.44.17.43.36-.02.22.08.22.2.2h.16c.17-.02.43-.04.38.16-.06.24-.11.35-.27.33-.17-.03-.34.1-.2.23l.06.06c.1.1.2.19.14.24a.4.4 0 0 0-.06.06c-.07.1-.17.21-.28 0l-.3-.36Zm-1.98-.66c0-.32.28-.67.42-.8.1.16.32.5.44.59a9.45 9.45 0 0 1 1.47 1.56c.2.23.4.45.39.65-.01.28-.47.22-.7.2l-.08-.01c-.14-.02-.16-.29-.19-.52 0-.09-.01-.17-.03-.23-.03-.15-.12-.3-.22-.44l-.11-.19c-.09-.16-.23-.2-.48-.25l-.28-.08-.2-.05c-.3-.07-.43-.1-.43-.43Zm4.38 3.2a3.13 3.13 0 0 1-.84-.28c-.07-.02-.13-.04-.13-.12 0-.13.21-.5.5-.71.14-.1.18-.23.22-.37.05-.17.1-.33.33-.39.34-.07.5-.02.56 0h.03c.04 0-.33.4-.41.47-.08.08-.14.29-.07.29.04 0 .18-.12.31-.23.12-.1.23-.2.27-.2.06-.01.3.22.25.32v.01l-.01.01c-.08.16-.4.8-.66.8-.21 0-.4-.16-.47-.25v.31c0 .05.04.1.08.16.06.08.12.15.04.18Zm2.67.89c-.17.23-.48.09-.53 0a1.68 1.68 0 0 1-.05-.33c0-.13-.1-.59-.19-.64-.03-.02-.1-.02-.16-.01-.13 0-.3.02-.39-.1-.08-.1-.07-.23-.07-.35 0-.08 0-.15-.03-.2-.07-.12.02-.55.1-.63.09-.08.3.16.42.29l.01.01c.12.13.31.1.36 0l.02-.07c.05-.14.13-.4.44-.32.27.08.22.43.2.66-.02.1-.03.16 0 .18.03.03.23.05.42.08.17.02.34.04.39.06.1.05-.03.4-.1.4s-.12.02-.3.41c-.13.32-.33.17-.42.06.02.09.01.3-.12.5Zm-1.03-.4c.17.1.07.36 0 .48-.08.05-.34-.05-.35-.13-.02-.07-.18-.34-.23-.34-.04 0-.1.09-.18.21l-.15.2c-.16.22-.5.06-.6 0-.1-.04-.08-.48.1-.72.17-.25.62-.15.77-.07l.28.16c.11.08.24.15.36.22Zm-5.89-5.14c-.09.2.21.4.25.41.07-.12.2-.4.22-.55.02-.18-.38-.07-.47.14Zm3.02 3.03c.12.06.4.16.53.04.17-.15.27-.24.32-.44l.05-.29c.02-.14.04-.29.07-.38.07-.15.25-.51.32-.48.02 0 .07.1.12.22.07.15.15.32.23.39.06.05.13.07.2.09.06.01.11.03.13.08v.03c.05.13.13.4.35.53.24.15.84.41.94.2v-.02c.1-.2.25-.5-.11-.68-.18-.09-.33-.13-.46-.17-.13-.04-.24-.07-.32-.14a4.87 4.87 0 0 0-.04-.04c-.13-.12-.26-.24-.14-.4l.19-.18c.17-.16.37-.35.34-.48-.04-.2-.2-.35-.53-.42h-.06c-.3-.07-.52-.11-.68-.24-.08-.07-.15-.22-.22-.38-.08-.17-.16-.34-.26-.4l-.12-.1c-.18-.11-.4-.27-.6-.3-.2-.04-.72-.02-.94 0h-.1c-.08 0-.42.26-.21.4l.14.1c.1.11.2.2.45.1l.28-.14c.13-.08.2-.12.35-.07.23.09.54.25.59.32l.03.05c.08.12.24.34.13.36-.1.02-.2-.01-.32-.05a3.33 3.33 0 0 0-.12-.04h-.01c-.17-.05-.3-.08-.4 0-.05.04-.06.07-.06.1-.01.07-.02.12-.2.12h-.16c-.22-.02-.4-.03-.43.11l-.02.13c-.04.16-.08.35.09.35a1 1 0 0 0 .66-.24c.22-.18.57-.27.64-.18v.02c.06.08.1.13-.11.26-.08.05-.16.07-.23.08-.12.03-.18.04-.05.2.09.1.2.16.27.2.11.07.18.1.12.18a2.41 2.41 0 0 1-.5.45c-.1.04-.17.08-.14.25l.02.13c.02.17.03.27.23.18l.33-.18c-.03.19-.1.56-.16.56a.53.53 0 0 1-.11-.03c-.1-.03-.22-.07-.3-.04-.12.02-.05.2 0 .28Zm2.65-3.02c.03.3.3.36.42.4h.01c.23 0 .22-.24.22-.4v-.14c.01-.08.09-.12.2-.18.08-.04.18-.1.3-.19.25-.2.07-.4 0-.4-.1 0-.1-.24 0-.52.07-.24-.18-.28-.34-.3l-.07-.02c-.12-.03-.23.17-.29.28l-.02.04c-.05.1-.26.44-.43.51-.14.06-.17.2-.2.31v.06c-.02.06.01.12.06.2.05.08.12.19.14.35Zm1.5-1.2c.13.08.22.46.27.74.05.28.08.45 0 .52l-.06.05c-.09.07-.21.17-.21.34 0 .22-.1.7-.17.81-.03.05 0 .08.03.13.04.06.1.13-.03.24-.22.2-.76.3-.9.24l-.08-.02c-.1-.03-.2-.05-.08-.22.1-.11.23-.2.33-.29a.77.77 0 0 0 .19-.15c.02-.05-.01-.1-.06-.15-.06-.08-.13-.17-.08-.3.05-.13.15-.16.25-.2.06-.02.12-.04.16-.09.1-.11.25-.51.32-.71.03-.1 0-.31-.03-.5a1.1 1.1 0 0 1-.02-.38c.04-.12.13-.09.17-.06ZM35.86 18.53c.3-.35.7-.82.77-.92 0-.02.02-.03.03-.05.12-.18.38-.58.38-1.1 0-.46-.13-.76-.2-.85.1-.04.34-.08.5.11.2.24.36.3.4.18l.02-.06c.03-.1.06-.18-.02-.31a.41.41 0 0 0-.1-.1c-.08-.07-.12-.1.23-.2.5-.13.3-.75-.04-.75-.33 0-.67.03-.73.15-.06.13-.22.44-.37.52l-.12.08c-.12.1-.23.18-.16-.08.05-.2.16-.3.24-.36.06-.05.1-.1.1-.16 0-.15-.09-.26-.21-.29-.13-.02-.35 0-.33.14 0 .05.02.09.04.13.03.1.06.2-.04.21-.07.02-.17-.04-.29-.1-.1-.05-.2-.12-.33-.15-.27-.09-.57-.09-.68-.09-.08 0-.46.1-.64.15v-.78c0-.14-.1-.44-.42-.44-.4 0-.53.44-.5.44.03 0 .19.25.3.4l.05.1.02.02c.08.12.13.2-.02.23h-.02c-.15.04-.3.07-.42-.33l-.06-.2c-.1-.39-.22-.82-.7-.82-.56 0-.6.45-.27.77.31.3-.12.22-.29.2l-.04-.01c-.12-.02-.62.25-.3.39.18.08.4.1.55.12.11.01.2.02.23.05.02.02-.01.02-.07.02-.12.01-.33.03-.28.2.05.2.47.27.67.3.05.12.11.4 0 .55l-.16.2c-.13.15-.27.3-.3.42-.06.17-.02.44.22.27.23-.17.42-.34.6-.5l.02-.01c.18-.16.38-.42.4-.6.02-.19.26-.64.37-.64.1 0 .27.04.27.17s.11.2.15.2h.04c.07.01.23.04.35-.07l.04-.03c.14-.13.32-.3.44-.3l.08-.02c.1-.01.24-.03.37.05.16.1.64.57.56.74l-.09.15c-.1.15-.2.3-.08.45.17.19.18.4 0 .4s-.36.1-.24.2c.07.07.21.13.32.18l.15.07c.02.02-.04.04-.12.08-.17.07-.45.17-.43.36.02.22-.09.22-.2.2h-.17c-.16-.02-.43-.04-.38.16.06.24.12.35.28.33.16-.03.33.1.2.23l-.06.06c-.11.1-.2.19-.14.24l.06.06c.07.1.16.21.27 0l.3-.36Zm2-.66c0-.32-.28-.67-.42-.8-.1.16-.33.5-.45.59-.14.1-.97.9-1.2 1.23-.07.11-.17.22-.27.33-.2.23-.39.45-.38.65 0 .28.46.22.7.2l.07-.01c.14-.02.17-.29.19-.52 0-.09.02-.17.03-.23.03-.15.13-.3.22-.44l.11-.19c.1-.16.23-.2.48-.25l.28-.08.2-.05c.3-.07.44-.1.44-.43Zm-4.4 3.2a3.13 3.13 0 0 0 .86-.28c.06-.02.12-.04.12-.12 0-.13-.21-.5-.5-.71-.13-.1-.17-.23-.21-.37-.06-.17-.1-.33-.34-.39-.34-.07-.49-.02-.55 0h-.04c-.04 0 .34.4.42.47.08.08.13.29.06.29-.03 0-.17-.12-.3-.23-.13-.1-.24-.2-.27-.2-.07-.01-.3.22-.25.32v.02c.08.16.41.8.66.8.22 0 .4-.16.47-.25v.31c0 .05-.04.1-.08.16-.06.08-.11.15-.04.18Zm-2.66.89c.17.23.48.09.54 0 .01-.07.05-.23.05-.33 0-.13.09-.59.18-.64.03-.02.1-.02.17-.01.13 0 .3.02.38-.1.08-.1.08-.23.08-.35 0-.08 0-.15.03-.2.06-.12-.03-.55-.11-.63-.08-.08-.3.16-.41.29l-.02.01c-.11.13-.3.1-.35 0l-.03-.07c-.05-.14-.13-.4-.44-.32-.26.08-.22.43-.19.66.01.1.02.16 0 .18-.03.03-.23.05-.43.08-.17.02-.34.04-.38.06-.1.05.03.4.1.4s.11.02.29.41c.14.32.34.17.42.06-.01.09-.01.3.12.5Zm1.04-.4c-.18.1-.08.36 0 .48.07.05.33-.05.35-.13.01-.07.17-.34.23-.34.03 0 .1.09.18.21l.14.2c.16.22.51.06.61 0 .1-.04.08-.48-.1-.72-.17-.25-.63-.15-.77-.07l-.28.16-.36.22Zm5.88-5.14c.09.2-.2.4-.25.41-.06-.12-.2-.4-.21-.55-.03-.18.37-.07.46.14Zm-3.02 3.03c-.12.06-.4.16-.53.04-.17-.15-.26-.24-.31-.44a3.04 3.04 0 0 1-.05-.29c-.02-.14-.04-.29-.08-.38-.06-.15-.25-.51-.31-.48-.03 0-.08.1-.13.22-.07.15-.15.32-.22.39-.07.05-.14.07-.2.09-.06.01-.12.03-.14.08v.03c-.04.13-.13.4-.35.53-.24.15-.83.41-.93.2l-.01-.02c-.1-.2-.25-.5.11-.68.18-.09.33-.13.46-.17.14-.04.24-.07.32-.14l.04-.04c.14-.12.27-.24.15-.4l-.2-.18c-.16-.16-.36-.35-.33-.48.04-.2.2-.35.53-.42h.05c.3-.07.52-.11.68-.24.08-.07.15-.22.22-.38.08-.17.16-.34.26-.4l.13-.1c.17-.11.4-.27.6-.3.2-.04.71-.02.94 0h.1c.07 0 .41.26.2.4l-.13.1c-.11.11-.2.2-.46.1l-.27-.14c-.13-.08-.2-.12-.36-.07-.22.09-.54.25-.58.32l-.04.05c-.08.12-.24.34-.13.36.1.02.2-.01.33-.05l.11-.04h.02c.16-.05.29-.08.4 0 .04.04.05.07.06.1 0 .07.01.12.19.12H35c.22-.02.41-.03.43.11l.03.13c.03.16.08.35-.1.35a1 1 0 0 1-.66-.24c-.22-.18-.57-.27-.63-.18l-.01.02c-.06.08-.1.13.11.26.08.05.17.07.24.08.11.03.18.04.05.2-.1.1-.2.16-.28.2-.1.07-.17.1-.11.18.1.15.3.31.41.4l.09.05c.09.04.17.08.13.25l-.01.13c-.03.17-.04.27-.23.18l-.34-.18c.03.19.1.56.16.56l.12-.03c.1-.03.22-.07.3-.04.11.02.05.2 0 .28Zm-2.65-3.02c-.03.3-.3.36-.42.4-.24 0-.23-.24-.22-.4v-.14c-.02-.08-.1-.12-.2-.18-.08-.04-.18-.1-.3-.19-.25-.2-.08-.4 0-.4.09 0 .1-.24 0-.52-.07-.24.17-.28.33-.3l.07-.02c.13-.03.23.17.29.28l.02.04c.05.1.27.44.43.51.14.06.17.2.2.31l.01.06c.02.06-.02.12-.06.2a.78.78 0 0 0-.15.35Zm-1.5-1.2c-.13.08-.21.46-.27.74-.05.28-.07.45 0 .52l.06.05c.1.07.22.17.22.34 0 .22.1.7.17.81.03.05 0 .08-.03.13-.05.06-.1.13.03.24.21.2.76.3.89.24l.08-.02c.11-.03.2-.05.08-.22-.1-.11-.22-.2-.33-.29a.77.77 0 0 1-.18-.15c-.03-.05 0-.1.05-.15.06-.08.13-.17.08-.3-.05-.13-.15-.16-.24-.2-.07-.02-.13-.04-.17-.09-.1-.11-.24-.51-.31-.71-.04-.1 0-.31.02-.5.03-.16.05-.31.03-.38-.04-.12-.13-.09-.17-.06ZM25.43 14.45c-.08.31.23.34.38.38.37 0 .31-.38.36-.49.06-.1.13-.05.32 0 .2.05.25-.15.3-.05.06.1.1.45.1.72 0 .26.37.24.54.14.16-.1.11-.23.17-.4.05-.15.26-.14.36-.12.06-.13.15-.39 0-.39s-.3.14-.36.21c-.05-.01-.17-.08-.17-.26-.01-.18-.31-.2-.46-.19.04-.29-.33-.43-.48-.37-.15.06-.3.24-.47.28-.17.04-.51.24-.6.54Z" fill="#fff"/><path d="M30.5 14.45c.07.31-.25.34-.39.38-.37 0-.31-.38-.36-.49-.06-.1-.13-.05-.32 0-.2.05-.25-.15-.3-.05-.06.1-.1.45-.1.72 0 .26-.37.24-.54.14-.16-.1-.11-.23-.17-.4-.05-.15-.26-.14-.36-.12-.06-.13-.15-.39 0-.39s.3.14.36.21c.05-.01.17-.08.17-.26.01-.18.31-.2.46-.19-.04-.29.33-.43.48-.37.15.06.3.24.47.28.17.04.51.24.6.54ZM27.9 13.94c-.36-.1-.56-.4-.62-.5h1.34c-.09.21-.35.6-.71.5ZM27.9 12.03c-.36.2-.56.8-.62.99h1.34c-.09-.4-.35-1.18-.71-.99Z" fill="#fff"/><path opacity=".7" fill="#231F20" d="M26 42h4v1h-4z"/></svg>