<!-- by TradingView --><svg width="56" height="56" viewBox="0 0 56 56" xmlns="http://www.w3.org/2000/svg"><path fill="#F0F3FA" d="M0 0h56v56H0z"/><path d="M29.77 13 28 14.77 26.24 13H13v30h13.24L28 41.24 29.77 43H43V13H29.77Z" fill="#363067"/><path d="m41.6 25.92.3-.3a.3.3 0 0 0-.4-.42l-.31.3a.29.29 0 0 0 .41.42Zm-.84-.84 1.14-1.15a.3.3 0 0 0-.4-.4l-1.15 1.14a.29.29 0 0 0 .41.4Zm-.84-.84 1.98-1.98a.3.3 0 0 0-.4-.42l-1.99 1.99a.29.29 0 0 0 .41.4Zm-.84-.84 2.82-2.82a.29.29 0 1 0-.4-.41l-2.83 2.82a.29.29 0 0 0 .41.4Zm-.84-.84 3.67-3.67a.29.29 0 1 0-.4-.42l-3.68 3.68a.29.29 0 0 0 .41.4Zm-.85-.85 4.5-4.5a.29.29 0 1 0-.42-.4l-4.49 4.49a.29.29 0 0 0 .41.41Zm-.84-.84 5.34-5.33a.3.3 0 0 0-.41-.42l-5.34 5.34a.29.29 0 0 0 .41.4Zm-.85-.85 4.5-4.5a.29.29 0 0 0-.42-.4L35.3 19.6a.29.29 0 0 0 .41.4Zm-.85-.85 3.68-3.67a.3.3 0 0 0-.42-.42l-3.67 3.68a.29.29 0 0 0 .41.4Zm-.84-.84 2.83-2.82a.3.3 0 0 0-.42-.41l-2.82 2.82a.29.29 0 0 0 .41.4Zm-.84-.84 1.98-1.98a.29.29 0 1 0-.4-.41l-1.99 1.98a.29.29 0 0 0 .41.4Zm-.84-.84 1.15-1.14a.3.3 0 0 0-.41-.41l-1.15 1.14a.29.29 0 0 0 .41.41Zm-.84-.84.3-.3a.3.3 0 0 0-.4-.41l-.3.3a.29.29 0 0 0 .4.41ZM18.5 39h1L18 34h-1l-2 5h1l.47-1.27h1.68L18.5 39Zm-1-4 .5 2h-1.3l.8-2Zm2.5-1v5h1v-2h2v-1h-2v-1h2v-1h-3Zm7.8 1.52c0-.88-.7-1.52-1.59-1.52H24v5h1v-1.86h.82L26.7 39h1l-.84-1.98c.62-.21.94-.67.94-1.35v-.15ZM25 35h1c.48 0 .72.11.72.56v.1c0 .44-.24.68-.74.68H25V35Zm4 4h1v-5h-1v5Zm4.67-.03c.19-.02.38-.05.56-.09l.18-.82a5.94 5.94 0 0 1-1.03.1c-1 0-1.38-.44-1.38-1.41v-.46c0-.54.14-1.22.76-1.38a3.22 3.22 0 0 1 1.48.06l.18-.8a3.68 3.68 0 0 0-1.2-.17c-.45 0-.82.06-1.1.17-.9.36-1.12 1.22-1.12 2.12v.5c0 1.45.66 2.21 2.13 2.21.17 0 .35 0 .54-.03ZM39 39h1l-2-5h-1l-1.7 5h1l.4-1h1.7l.6 1Zm-1.5-3.94.63 1.94H37l.5-1.94ZM14 27v6h3.8l.2-1h-3v-5h-1Zm9 6h1.5l-2.03-6H21l-2 6h1.5l.5-1.48h1.5L23 33Zm-1.23-4.77.72 2.3h-1.44l.72-2.3ZM28.23 33c.73 0 1.27-.14 1.62-.43.35-.29.52-.7.52-1.22v-.13c0-.31-.07-.59-.22-.83a1.24 1.24 0 0 0-.63-.53c.24-.12.42-.28.54-.49.12-.2.17-.44.17-.7v-.14c0-.22-.03-.42-.1-.6a1.24 1.24 0 0 0-.34-.5 1.62 1.62 0 0 0-.6-.31 2.78 2.78 0 0 0-.84-.12H26v6h2.23ZM27 30.38h1.22c.59 0 .88.27.88.8v.14c0 .24-.07.43-.22.55-.14.11-.6.13-.88.13h-1v-1.62ZM27 28h1c.54 0 .97.2.97.65v.11c0 .22-.06.39-.2.5a.85.85 0 0 1-.55.16H27V28Zm8.51 5h1.35l-2.1-6h-1.38l-2.04 6h1.27l.46-1.48h1.99L35.5 33Zm-1.45-4.77.72 2.3h-1.44l.72-2.3ZM37 27v1h2v5h1v-5h1.85l.15-1h-5Z" fill="#E0E3EB"/><path opacity=".5" fill="#D9D9D9" d="M29 40h12v2H29z"/></svg>