<!-- by TradingView --><svg width="56" height="56" viewBox="0 0 56 56" fill="none" xmlns="http://www.w3.org/2000/svg">
<rect width="56" height="56" fill="#163647"/>
<path fill-rule="evenodd" clip-rule="evenodd" d="M7.68965 26.8694H9C8.96552 26.0796 8.44138 24.5 6.62069 24.5C4.34483 24.5 4 26.4108 4 27.5573C4 28.7038 4.72415 30.5 6.62069 30.5C8.51724 30.5 9 28.7803 9 28.1688H7.68965C7.6092 28.5255 7.28277 29.2389 6.62069 29.2389C5.7931 29.2389 5.5 28.2452 5.5 27.5573C5.5 26.8694 5.55173 25.7229 6.62069 25.7229C7.47586 25.7229 7.68965 26.4873 7.68965 26.8694ZM26 24.5H28.08L29.2933 28.2742L30.3911 24.5H32.5V30.5H31V26.6613L29.8133 30.5H28.6289L27.5 26.6613V30.5H26V24.5ZM46 26.8694H44.6897C44.6897 26.4873 44.4759 25.7229 43.6207 25.7229C42.5517 25.7229 42.5 26.8694 42.5 27.5573C42.5 28.2452 42.7931 29.2389 43.6207 29.2389C44.2828 29.2389 44.6092 28.5255 44.6897 28.1688H46C46 28.7803 45.5172 30.5 43.6207 30.5C41.7242 30.5 41 28.7038 41 27.5573C41 26.4108 41.3448 24.5 43.6207 24.5C45.4414 24.5 45.9655 26.0796 46 26.8694ZM11 24.5H9.5V30.5H11V28L13 28V30.5H14.5V24.5H13V26.5L11 26.5V24.5ZM15 24.5V30.5H16.5V28.5H17.9312C18.2 28.7133 18.3623 28.8689 18.3719 29.0507V30.5H19.6548V28.8393C19.6548 28.4456 19.444 28.1479 19.2002 27.943C19.7309 27.4918 19.9537 26.7884 20 26.3594C20 25.0009 19.1922 24.5537 18.7883 24.5H15ZM17.6595 25.5H16.5V27.5H17.6595C18.1237 27.5 18.5 27.0523 18.5 26.5C18.5 25.9477 18.1237 25.5 17.6595 25.5ZM25.5 27.5C25.5 29.1569 24.2688 30.5 22.75 30.5C21.2312 30.5 20 29.1569 20 27.5C20 25.8431 21.2312 24.5 22.75 24.5C24.2688 24.5 25.5 25.8431 25.5 27.5ZM24.0787 27.5C24.0787 28.5543 23.4838 29.4091 22.75 29.4091C22.0162 29.4091 21.4213 28.5543 21.4213 27.5C21.4213 26.4456 22.0162 25.5909 22.75 25.5909C23.4838 25.5909 24.0787 26.4456 24.0787 27.5ZM49.25 30.5C50.7688 30.5 52 29.1569 52 27.5C52 25.8431 50.7688 24.5 49.25 24.5C47.7312 24.5 46.5 25.8431 46.5 27.5C46.5 29.1569 47.7312 30.5 49.25 30.5ZM49.25 29.3066C50.0605 29.3066 50.7175 28.4977 50.7175 27.5C50.7175 26.5022 50.0605 25.6934 49.25 25.6934C48.4395 25.6934 47.7824 26.5022 47.7824 27.5C47.7824 28.4977 48.4395 29.3066 49.25 29.3066ZM33 30.5V24.5H41V25.5H39.5V30.5H38V25.5H34.5V26.9963H37V27.9963H34.5V29.5H36.7743V30.5H33Z" fill="#08131A"/>
<path fill-rule="evenodd" clip-rule="evenodd" d="M7.68965 26.3694H9C8.96552 25.5796 8.44138 24 6.62069 24C4.34483 24 4 25.9108 4 27.0573C4 28.2038 4.72415 30 6.62069 30C8.51724 30 9 28.2803 9 27.6688H7.68965C7.6092 28.0255 7.28277 28.7389 6.62069 28.7389C5.7931 28.7389 5.5 27.7452 5.5 27.0573C5.5 26.3694 5.55173 25.2229 6.62069 25.2229C7.47586 25.2229 7.68965 25.9873 7.68965 26.3694ZM26 24H28.08L29.2933 27.7742L30.3911 24H32.5V30H31V26.1613L29.8133 30H28.6289L27.5 26.1613V30H26V24ZM46 26.3694H44.6897C44.6897 25.9873 44.4759 25.2229 43.6207 25.2229C42.5517 25.2229 42.5 26.3694 42.5 27.0573C42.5 27.7452 42.7931 28.7389 43.6207 28.7389C44.2828 28.7389 44.6092 28.0255 44.6897 27.6688H46C46 28.2803 45.5172 30 43.6207 30C41.7242 30 41 28.2038 41 27.0573C41 25.9108 41.3448 24 43.6207 24C45.4414 24 45.9655 25.5796 46 26.3694ZM11 24H9.5V30H11V27.5L13 27.5V30H14.5V24H13V26L11 26V24ZM15 24V30H16.5V28H17.9312C18.2 28.2133 18.3623 28.3689 18.3719 28.5507V30H19.6548V28.3393C19.6548 27.9456 19.444 27.6479 19.2002 27.443C19.7309 26.9918 19.9537 26.2884 20 25.8594C20 24.5009 19.1922 24.0537 18.7883 24H15ZM17.6595 25H16.5V27H17.6595C18.1237 27 18.5 26.5523 18.5 26C18.5 25.4477 18.1237 25 17.6595 25ZM25.5 27C25.5 28.6569 24.2688 30 22.75 30C21.2312 30 20 28.6569 20 27C20 25.3431 21.2312 24 22.75 24C24.2688 24 25.5 25.3431 25.5 27ZM24.0787 27C24.0787 28.0543 23.4838 28.9091 22.75 28.9091C22.0162 28.9091 21.4213 28.0543 21.4213 27C21.4213 25.9456 22.0162 25.0909 22.75 25.0909C23.4838 25.0909 24.0787 25.9456 24.0787 27ZM49.25 30C50.7688 30 52 28.6569 52 27C52 25.3431 50.7688 24 49.25 24C47.7312 24 46.5 25.3431 46.5 27C46.5 28.6569 47.7312 30 49.25 30ZM49.25 28.8066C50.0605 28.8066 50.7175 27.9977 50.7175 27C50.7175 26.0022 50.0605 25.1934 49.25 25.1934C48.4395 25.1934 47.7824 26.0022 47.7824 27C47.7824 27.9977 48.4395 28.8066 49.25 28.8066ZM33 30V24H41V25H39.5V30H38V25H34.5V26.4963H37V27.4963H34.5V29H36.7743V30H33Z" fill="#EBB01F"/>
<rect opacity="0.5" x="21" y="33" width="14" height="2" fill="white"/>
<path fill-rule="evenodd" clip-rule="evenodd" d="M12.4741 22.8633C14.4747 20.4464 20.5035 15.5852 28.5086 15.5852C36.511 15.5852 42.2207 20.4436 44.0612 22.8543L44.5293 22.5002C42.6112 19.9879 36.744 15 28.5086 15C20.2761 15 14.0949 19.985 12.0203 22.4912L12.4741 22.8633ZM12.474 33.1368C14.4747 35.5537 20.5035 40.4149 28.5086 40.4149C36.511 40.4149 42.2206 35.5566 44.0612 33.1458L44.5293 33.4999C42.6112 36.0122 36.7439 41.0001 28.5086 41.0001C20.276 41.0001 14.0949 36.0151 12.0203 33.5089L12.474 33.1368Z" fill="white"/>
</svg>
