<!-- by TradingView --><svg width="56" height="56" viewBox="0 0 56 56" xmlns="http://www.w3.org/2000/svg"><path fill="#F0F3FA" d="M0 0h56v56H0z"/><path d="m25.93 14.07.8-3.07h2.64l.7 3.07v.08c.56.08 1.1.2 1.64.35l.03-.07 1.88-2.53 2.4 1.06-.5 3.14-.03.07c.3.2.6.4.9.62l.05-.06 2.67-1.67 1.86 1.87-1.62 2.74-.06.05c.33.45.63.9.9 1.39l.07-.03 3.12-.45.94 2.46-2.58 1.85-.07.03c.07.32.13.65.18.98l3.15.68v2.63l-3.15.78c-.05.34-.1.68-.18 1l2.7 1.76-.95 2.46-3.22-.4a14 14 0 0 1-.92 1.43l1.76 2.7-1.85 1.87-2.79-1.66a14 14 0 0 1-.93.64l.66 3.15-2.41 1.07-1.99-2.56c-.55.15-1.1.27-1.68.35L29.37 45h-2.63l-.78-3.15c-.58-.08-1.14-.2-1.7-.35l-1.98 2.56-2.41-1.07.66-3.15a14 14 0 0 1-.93-.64l-2.79 1.66L14.96 39l1.76-2.7c-.33-.45-.64-.93-.92-1.42l-3.22.4-.94-2.46 2.7-1.76c-.08-.32-.14-.65-.19-.98h-.08l-3.07-.8v-2.64l3.07-.7h.08c.05-.32.1-.64.18-.96l-.07-.03-2.58-1.85.94-2.46 3.12.45.07.03c.27-.48.57-.94.9-1.39l-.06-.05-1.61-2.74 1.85-1.87 2.67 1.67.06.06c.29-.22.58-.43.89-.62l-.03-.07-.5-3.14 2.4-1.06 1.88 2.53.03.07c.53-.15 1.08-.27 1.64-.35v-.08ZM28 35a7 7 0 1 0 0-14 7 7 0 0 0 0 14Z" fill="#DC042B"/></svg>