<!-- by TradingView --><svg width="56" height="56" viewBox="0 0 56 56" xmlns="http://www.w3.org/2000/svg"><path fill="#F0F3FA" d="M0 0h56v56H0z"/><path d="m27 19 1 1.5 1-1.5h-2ZM27 24l1-1.5 1 1.5h-2Z" fill="#919191"/><path d="M25.5 22.5v-2l1.5 1-1.5 1ZM30.5 22.5v-2l-1.5 1 1.5 1ZM12 24v3h-.31c-.17-1.28-.44-2.16-.93-2.47a1.75 1.75 0 0 0-.97-.24h-.5c-.69 0-.79.23-.79.85v6.36c0 .9.3 1.21 1.16 1.23V33H6v-.25c.75-.05 1-.43 1-1.15v-6.3c0-.7-.25-1.02-1-1.05V24h6Zm-1.73 4.42v.26H8.1v-.26h2.16Zm.26-1.67-.04 3.6h-.22c-.03-.28-.06-.55-.14-.8a1.34 1.34 0 0 0-.39-.63c-.17-.16-.92-.24-1.24-.24v-.26c.24 0 .94-.05 1.1-.16.14-.11.26-.25.35-.42a4.22 4.22 0 0 0 .32-1.1h.26ZM16 26v.17c-.55.01-.5.15-.5.73v4.2c0 .58-.05.7.5.73V32h-2.5v-.17c.3-.03.5-.14.5-.73v-4.2c0-.58-.2-.72-.5-.73V26H16ZM23 26v.17c-.39.03-.67.14-.74.43-.03.13-.05.33-.05.58V32h-.39L18 27.08v3.65c0 .27.02.48.06.63.07.3.23.4.75.45V32H17v-.2c.42-.04.67-.15.73-.42.04-.15.06-.34.06-.59v-3.9c0-.53-.25-.7-.79-.72V26h1.6l3.4 4.21v-2.96c0-.28-.02-.49-.06-.63-.07-.3-.21-.42-.75-.45V26H23ZM43 26v.17c-.39.03-.67.14-.74.43-.03.13-.05.33-.05.58V32h-.39L38 27.08v3.65c0 .27.02.48.06.63.07.3.23.4.75.45V32H37v-.2c.42-.04.67-.15.73-.42.04-.15.06-.34.06-.59v-3.9c0-.53-.25-.7-.79-.72V26h1.6l3.4 4.21v-2.96c0-.28-.02-.49-.06-.63-.07-.3-.21-.42-.75-.45V26H43ZM24 26h2.54c.85 0 2.01.29 2.01 1.34 0 .85-.83 1.33-1.56 1.48v.02c.87.08 2.01.46 2.01 1.52 0 1.22-1.22 1.64-2.26 1.64H24v-.17c.52-.03.5-.2.5-.73v-4.2c0-.51.02-.71-.5-.73V26Zm2.4.17c-.5 0-.4.18-.4.63V31c0 .48-.04.8.44.8.9 0 1.06-.44 1.06-1.3 0-.9-.31-1.54-1.19-1.54h-.78V28.8h.74c.82 0 .73-.58.73-1.31 0-.84.08-1.33-.6-1.33ZM33 26c1.75 0 3 1.19 3 2.95A2.95 2.95 0 0 1 33 32c-1.76 0-3-1.19-3-2.95A2.95 2.95 0 0 1 33 26Zm-.03.15c-1.38 0-1.42 1.85-1.42 2.9 0 1.06.11 2.8 1.48 2.8 1.37 0 1.47-1.8 1.47-2.85 0-1.06-.16-2.85-1.53-2.85ZM46.53 24c2.96 0 4.47 1.94 4.47 4.5 0 2.5-1.64 4.5-4.58 4.5H43v-.25c.8-.06 1-.41 1-1.1v-6.3c0-.65-.18-1.07-1-1.1V24h3.53Zm-.11.23c-.8 0-.92.5-.92 1.12v6.36c0 .63.14 1.06.93 1.06 2.6 0 3.07-2.45 3.07-4.27 0-1.81-.53-4.27-3.08-4.27Z" fill="#14336A"/><path d="M14 24.5h11v.5H14v-.5ZM31 24.5h11v.5H31v-.5Z" fill="#919191"/></svg>