<!-- by TradingView --><svg width="56" height="56" viewBox="0 0 56 56" xmlns="http://www.w3.org/2000/svg"><path fill="#C62228" d="M0 0h56v56H0z"/><path d="M23.38 26.55H13.7a.25.25 0 0 0-.25.23c-.02.18.19.23.3.22.9-.02 2.9-.06 3.73.02.83.08 1.01.64 1 .92l.04 5.16c0 .52-.58 1.4-1.62 1.43-1.03.04-1.32-.37-1.43-.66-.1-.29.28-.5.78-.87.5-.38.65-.91.65-1.2 0-.3-.08-1.3-1.92-1.42-1.85-.12-2.1 1.77-2.08 1.97.03.21-.48 3 4 3 3.63 0 4.1-1.55 4.09-2.31 0-1.36-.02-4.27 0-5.04a.99.99 0 0 1 .85-1h1.45c.23 0 .4.06.42-.21.02-.22-.22-.25-.34-.24Z" fill="#FEFBFB"/><path d="M23.51 26.3h-9.77c-.28 0-.88.01-.88.41 0 .41.37.53.71.58h3.32c.86 0 1.11.21 1.11.79v5c0 .73-.44 1.07-1.1 1.16-.27.04-.5-.05-.58-.24a.38.38 0 0 1 .17-.5s.04-.02.08-.07l.14-.18c.1-.16.23-.36.34-.59.23-.46.4-1.01.36-1.46-.03-.42-.3-.79-.74-1.06a3.44 3.44 0 0 0-1.6-.47 2.76 2.76 0 0 0-1.87.74c-.56.5-.95 1.22-.9 2.1.06.9.3 1.64 1.03 2.2.73.55 1.97.92 4.06.99 1.65.05 2.66-.3 3.24-.75.58-.44.76-.97.75-1.31.01-1.65.03-5.04 0-5.56-.02-.4.2-.81.65-.79.29.01.98.03 1.46 0 .43-.02.54-.33.53-.72-.01-.2-.36-.28-.5-.27Zm.8.26c.02.55-.21 1-.8 1.03-.5.03-1.2.01-1.5 0-.26-.02-.35.26-.34.47.03.53.02 3.94 0 5.57.01.44-.2 1.07-.86 1.56-.66.5-1.73.86-3.43.8-2.11-.06-3.43-.43-4.23-1.05-.82-.62-1.09-1.47-1.14-2.42a2.86 2.86 0 0 1 1-2.33c.61-.55 1.4-.85 2.07-.82.63.04 1.26.22 1.74.52.49.3.84.74.89 1.29.04.52-.16 1.13-.4 1.61a4.66 4.66 0 0 1-.52.84c-.05.05-.1.1-.16.13-.06.04-.06.08-.05.11.01.03.08.1.29.08.5-.07.94-.31.94-.88v-5c-.02-.12-.2-.48-.92-.48H13.54c-.5-.08-.98-.3-.98-.88 0-.6.7-.71 1.17-.71h9.77c.33-.02.8.19.81.56Z" fill="#FEFBFB"/><path d="M29 26c2.38 0 5.5 1.15 5.5 4.5S31.02 35 28.9 35c-2.12 0-5.79-1.04-5.9-4.32C22.9 27.3 26.83 26 29 26Zm-.08.56c-1.22.02-3.42.72-3.42 3.94 0 3 2 4 3.5 4s3-.94 3-4c0-3-1.87-3.95-3.08-3.94ZM19.82 17.08c.7.17 1.39.36 2.07.58.42.14 1.24.31 1.5.73a.7.7 0 0 1 .12.39c0 .25-.24.33-.28.54.05.17.16.34.24.49.16.29.38.66.62 1.04a22.4 22.4 0 0 0 1.25 1.87c.2.24.42.4.62.54l.12.08c.22.16.44.35.46.67 0 .12-.05.22-.13.3a1 1 0 0 1-.3.17c-.22.1-.54.17-.89.23-.7.12-1.57.17-2.25.17-.45 0-.96-.13-.95-.67 0-.24.16-.6.07-.83 0 0 0-.02-.05-.04a2.15 2.15 0 0 0-.94.1c-.55.14-1.13.37-1.33.5-.06.03-.07.06-.06.16.02.1.07.24.14.4.1.24.24.47.3.72.04.25-.06.4-.28.48-.12.04-.28.08-.46.11a30.98 30.98 0 0 1-3.56.2c-.37 0-.43-.35-.28-.64.22-.44.67-.55.98-.9.12-.12.26-.3.4-.5.32-.43.68-.98 1.04-1.55.6-.96 1.74-2.26 1.91-3.44.05-.35-.34-.63-.46-.93-.11-.27-.1-.5 0-.66.08-.16.16-.36.38-.31Zm.01.31a.33.33 0 0 0-.14.14c-.24.45.57 1 .5 1.5-.17 1.22-1.32 2.54-1.95 3.55-.37.58-.73 1.13-1.04 1.56a6.98 6.98 0 0 1-.6.72c-.27.22-.6.3-.77.65-.05.09-.1.2.03.21a30.78 30.78 0 0 0 3.5-.2c.17-.03.31-.07.4-.1.1-.03.11-.04.1-.14a1.13 1.13 0 0 0-.06-.18c-.13-.32-.34-.62-.38-.97-.02-.16.03-.35.2-.45.23-.14.84-.39 1.4-.53.43-.12.84-.2 1.12-.09.1.04.19.1.23.22.11.3-.05.62-.06.93 0 .35.39.37.66.37.67 0 1.52-.05 2.2-.16a4 4 0 0 0 .84-.22c.1-.04.16-.08.2-.11.04-.04.04-.06.04-.06-.01-.17-.12-.28-.35-.45l-.1-.07c-.2-.15-.46-.32-.68-.6a22.5 22.5 0 0 1-1.9-2.96c-.1-.17-.3-.43-.28-.64.01-.22.27-.34.28-.54a.4.4 0 0 0-.08-.22c-.21-.34-1-.5-1.34-.6-.67-.23-1.44-.43-1.97-.56ZM36.3 17.86l-1.78.22c-.7.08.23.9.31 1.22.04.14.15.87.17 1.7.02 1.02-.07 2.2-.36 2.6-.42.57.03.74.3.75.85.22 2.66.7 3.19.9.65.24 1.05.42 1.3.42.27 0 1.07-1.1 1.25-1.32.32-.35.4-1.35-.54-.53-.74.66-1.44.63-1.7.53a16.7 16.7 0 0 1-1.72-.53c-.28-.13-.35-.46-.35-.6v-4.05c0-.4.08-.73.12-.85.16-.5-.07-.51-.2-.46Z" fill="#FEFBFB"/><path d="m36.69 17.3-2.75.35a.33.33 0 0 0-.16.08.16.16 0 0 0-.04.11c0 .61.72 1.07.9 1.63.05.14.08.39.08.67s0 .62-.02.97a12.7 12.7 0 0 1-.21 1.82c-.1.39-.6 1.07-.44 1.48.2.51 2.33.55 2.65.62.85.2 1.53.42 2.04.6.34.11.7.27 1.05.33.05 0 .13-.01.24-.09.1-.07.23-.18.36-.33.25-.3.52-.71.77-1.15.25-.42.27-.7.22-.87-.06-.18-.21-.3-.43-.38a.29.29 0 0 0-.15 0c-.7.13-1.24.74-1.91.94a.7.7 0 0 1-.29.04 3.88 3.88 0 0 1-.9-.3c-.32-.15-.65-.32-.85-.43l-.08-.04v-.1l.11-4c.02-.37.46-1.54.24-1.8-.1-.12-.28-.16-.43-.15Zm.66-.04c.35.43-.15 1.43-.17 2-.03.69-.09 2.84-.11 3.91.2.1.47.25.75.37.33.15.64.26.82.28.03 0 .09 0 .16-.02.7-.21 1.23-.82 1.95-.96.1-.01.2-.02.3.02.26.1.51.27.6.57.1.3.03.66-.23 1.11-.26.44-.54.88-.81 1.2-.14.15-.28.29-.42.38-.13.1-.29.15-.45.13-.37-.06-.74-.22-1.1-.34a20.9 20.9 0 0 0-2-.59c-.71-.16-2.52.05-2.86-.8-.22-.54.3-1.14.42-1.66a12.44 12.44 0 0 0 .17-3.3c-.2-.61-.93-1.02-.93-1.72 0-.11.04-.22.12-.3a.62.62 0 0 1 .32-.19l2.77-.35c.2-.01.51.03.7.26ZM20.41 18l1.72.57c.23.12.28.2.23.46-.04.24-.07.33-.05.42.02.1.1.2.3.5.27.46 1.38 2.17 1.9 2.97.13.29.36.37.53.43.12.05.22.08.24.18.07.28-.26.43-1.23.43l-.53.01c-.49.03-.56.03-.52-.44.05-.61-.47-1-.87-.93l-2.6.48c-.33.2-.95.67-.82 1.02.12.1.36.3.36.47 0 .16-1.35.53-2.02.7-.13-.03-.31-.13 0-.34.32-.21 2.37-3.71 3.36-5.43.06-.09.3-.45 0-.81-.3-.37-.4-.7 0-.7Zm.84 2.16-.8 1.71 1.65-.26-.85-1.45Z" fill="#FEFBFB"/><path d="m20.92 21.54.36-.77.35.64-.71.13ZM27.1 18.5h1.05c.73 0 1.49.02 1.2.32-.24.24-.33 1.32-.35 1.59v2.14c0 .5.42.64.64.65a29.7 29.7 0 0 1 1.83 0c.77.03 1.46-1.56 1.8-1.14.32.41-.57 2.16-1.19 1.91-.62-.25-3.93-.25-4.54-.2-.6.05-.54-.27-.54-.4 0-.16.15-.46.28-.6v-1.98c0-.61 0-1.74-.28-1.79-.51-.1-.5-.5.1-.5Z" fill="#FEFBFB"/><path d="M27 20.45a9.3 9.3 0 0 1-.3 2.88c-.1.27-.07.44 0 .56.06.12.2.21.38.27.84.27 2.04 0 2.9 0 .86 0 1.67.23 2.51.33.85.09 1.3-2.04 1.32-2.58 0-.14.04-.83-.23-.82-.07 0-.24.08-.49.37-1.04 1.22-1.96 1.39-2.83 1.37-.22 0-.4-.04-.52-.11a.44.44 0 0 1-.2-.32c-.14-.9-.1-2.2.31-2.93.23-.4.2-1.18-.4-1.18h-2.54c-.4 0-.5.05-.63.35-.14.53.71 1.02.71 1.8ZM26.9 18h2.59c1 0 .94 1.03.61 1.62-.38.68-.4 1.9-.28 2.73 0 .05.02.09.07.11.05.04.16.07.36.08.84.01 1.62-.11 2.61-1.27.26-.31.48-.47.7-.48.26 0 .4.2.46.4.07.2.08.47.07.74-.03.71-.6 2.97-1.64 2.85-.83-.1-1.63-.33-2.48-.33-.9 0-2.11.28-3 0a.92.92 0 0 1-.54-.41c-.12-.22-.13-.49-.02-.8.19-.58.28-1.35.28-2.8 0-.63-.83-1.3-.72-1.87.07-.35.52-.57.93-.57Z" fill="#FEFBFB"/><path fill-rule="evenodd" d="M28.77 33.53c1.33 0 2.5-1.31 2.5-3.06 0-1.74-1.17-3.06-2.5-3.06s-2.5 1.32-2.5 3.06c0 1.75 1.17 3.06 2.5 3.06Zm0 .3c1.54 0 2.79-1.5 2.79-3.36 0-1.86-1.25-3.36-2.79-3.36s-2.79 1.5-2.79 3.36c0 1.86 1.25 3.36 2.79 3.36Z" fill="#FEFBFB"/><path d="M28.83 25.66h-.01c-1.97-.02-6.44 1.25-6.44 5.53 0 3.2 4.12 4.34 6.72 4.34 2.81 0 5.93-1.95 5.93-4.98 0-4.22-4.13-5.02-6.2-4.9Zm6.5 4.89c0 3.2-3.25 5.28-6.23 5.28-2.77 0-7.02-1.26-7.02-4.64 0-4.5 4.55-5.83 6.74-5.83 2.18 0 6.5.76 6.5 5.19Z" fill="#FEFBFB"/><path d="M37.11 26.28h-2.9c-.64 0-.15.25.64.86.63.5 2.17 2.6 2.87 3.59v3.1c-.35.61-.69.32-1.18.63-.4.25-.17.38 0 .41 1.52.03 4.7.07 5.21 0 .51-.06.21-.3 0-.41-.83 0-1.09-.42-1.11-.63-.06-.93-.14-2.87 0-3.19.16-.4 2.08-2.75 2.6-3.36.53-.62.35-.35.89-.65.43-.24.18-.4 0-.44-1.25-.01-3.8-.02-3.99 0-.23.01-.13.24 0 .44s.46.18.5.51c.03.33-1.51 2.23-1.95 2.2-.45-.03-1.22-1.3-1.48-1.73-.26-.43-.25-.48 0-.88.2-.32.02-.43-.1-.45Z" fill="#FEFBFB"/><path d="M39.97 26.75c.15.24.32.5.2.8l-.12.23c-.26.43-.65.91-1.1 1.16a.5.5 0 0 1-.23.07.58.58 0 0 1-.37-.17c-.37-.32-.59-.8-.85-1.2-.1-.14-.15-.23-.15-.35 0-.23.33-.4.35-.69 0-.37-.27-.48-.6-.48h-3.16c-.28.02-.35.1-.35.11-.03.1.1.23.14.29.27.3.78.66 1.18.9l2.33 3.28v.04c.07.54.16 1.84 0 2.66-.05.25-.1.42-.15.53-.11.2-.27.22-.45.29-.2.08-.48.33-.43.56.02.08.07.18.12.22h6.01c.09-.1.13-.27.1-.4-.02-.16-.13-.31-.38-.4a1.91 1.91 0 0 1-.96-.75l-.02-.04v-2.7c.7-1.04 1.45-2.1 2.3-3.02.25-.28.6-.7 1.01-.63h.01c.26.03.32-.54.28-.69a1 1 0 0 0-.2-.37h-4.16c-.36 0-.53.45-.35.75Zm.35-1.04h4.28c.16.16.3.35.36.58.1.35-.05.94-.45 1.06-.4.11-.54.13-.91.54-.77.83-1.79 2.26-2.23 2.92v2.52c.1.15.39.46.79.6.34.1.53.35.57.61a.76.76 0 0 1-.23.7l-.04.03h-6.23c-.15 0-.27-.24-.3-.43-.08-.38.26-.77.6-.9.1-.04.24-.03.3-.15.03-.07.07-.2.12-.45.15-.75.07-1.97 0-2.52l-2.22-3.15c-.4-.25-.93-.62-1.22-.96-.13-.15-.27-.36-.2-.57.06-.21.29-.3.61-.32h3.16c.53 0 .92.18.92.8 0 .32-.12.5-.35.7l.01.01.08.14c.2.3.58 1.24.98 1.24.01 0 .13-.04.27-.16a4.22 4.22 0 0 0 .9-1.11c.09-.2-.07-.37-.17-.53-.3-.5-.01-1.2.6-1.2Z" fill="#FEFBFB"/><path fill-rule="evenodd" d="M41.57 37.08C45 34.68 47 31.45 47 28s-2-6.68-5.43-9.08C38.14 16.52 33.34 15 28 15s-10.14 1.52-13.57 3.92C11 21.32 9 24.55 9 28s2 6.68 5.43 9.08C17.86 39.48 22.66 41 28 41s10.14-1.52 13.57-3.92ZM28 42c11.05 0 20-6.27 20-14s-8.95-14-20-14S8 20.27 8 28s8.95 14 20 14Z" fill="#FEFBFB"/></svg>