<!-- by TradingView --><svg width="56" height="56" viewBox="0 0 56 56" xmlns="http://www.w3.org/2000/svg"><path fill="#F0F3FA" d="M0 0h56v56H0z"/><path d="M7 34H4l6.5-11L17 34h-2.75l-3.75-6.5L7 34Z" fill="#30373B"/><path d="M17 23h-3l6.5 11L27 23h-2.75l-3.75 6.5L17 23Z" fill="#6C777E"/><path d="M25.5 31H24l3-5 3 5h-1.5L27 28.5 25.5 31ZM30.5 26H29l3 5 3-5h-1.5L32 28.5 30.5 26ZM40 26h-4v5h4v-1h-3v-1h2.5v-1H37v-1h3v-1ZM42 31h-1v-5l4 3v-3h1v5l-4-3v3ZM47 26h5l-1 1h-3v3h3v-1h-2v-1h3v3h-5v-5Z" fill="#30373B"/></svg>