<!-- by TradingView --><svg width="56" height="56" viewBox="0 0 56 56" xmlns="http://www.w3.org/2000/svg"><path fill="#F0F3FA" d="M0 0h56v56H0z"/><path fill="#404F64" d="M13 13h30v30H13z"/><path d="m43 23.67-2.4-2.1L22.27 43H35l8-12.4v-6.93Z" fill="#fff"/><path d="M28.66 35.53c.05.75.54 1.66 2.22 1.94 2.26.38 3.64-.54 4.05-1.04l-3.64-3.89-.3.28-2.33 2.7Z" fill="url(#ak0i2lepb)"/><path d="m28.24 20.37-5.5 4.99L34.47 37l4.34-6.25-10.57-10.4Z" fill="url(#bk0i2lepb)"/><path d="M26.5 13 13 20.73v13.82l21.58-18.8L32.2 13h-5.7Z" fill="#fff"/><defs><linearGradient id="ak0i2lepb" x1="31.57" y1="34.65" x2="31.03" y2="37.13" gradientUnits="userSpaceOnUse"><stop stop-color="#DADADA"/><stop offset="1" stop-color="#fff"/></linearGradient><linearGradient id="bk0i2lepb" x1="25.21" y1="22.99" x2="27.94" y2="25.81" gradientUnits="userSpaceOnUse"><stop stop-color="#DADADA"/><stop offset="1" stop-color="#fff"/></linearGradient></defs></svg>