<!-- by TradingView --><svg xmlns="http://www.w3.org/2000/svg" width="56" height="56"><path fill="#0C3B41" d="M0 0h56v56H0z"/><path d="M23.34 15H17.3l-6 15.31L8 39h1.08l3.04-8H22.3l1 3h-7.67l-.11.34-1.7 4.66h1.07l1.45-4h7.3l1.45 4h1.07l-1.7-4.66L20 20.92l-3 9.07-4.5.01 5.49-14h4.67l8.8 23H35c5.6 0 10.04-3.37 11.5-8.36a13 13 0 00.35-5.64H35v1h10.96a12.7 12.7 0 01-.33 4H35v1h4.39l-.17.24A4.46 4.46 0 0135.5 33c-3.3 0-4.5-3-4.5-6s1.2-6 4.5-6a4.46 4.46 0 013.89 2h1.16a5.5 5.5 0 00-5.05-3c-4.03 0-5.5 3.41-5.5 7s1.47 7 5.5 7a5.5 5.5 0 005.05-3h4.78c-1.5 4.2-5.4 7-10.33 7h-2.85L25.6 20.88A11.49 11.49 0 0135 16c4.93 0 8.82 2.8 10.33 7h1.05c-1.56-4.8-5.9-8-11.38-8a12.5 12.5 0 00-9.83 4.77L23.34 15zm-1.37 15h-3.92L20 24.08 21.97 30z" fill="#fff"/></svg>