<!-- by TradingView --><svg width="56" height="56" viewBox="0 0 56 56" xmlns="http://www.w3.org/2000/svg"><path fill="#F0F3FA" d="M0 0h56v56H0z"/><path d="M41 26.22V30H14v-3.78c0-4.6 6.41-8.15 10.7-8.15.52-.05 2.45-.12 8.27 0 5.82.11 8.03 5.43 8.03 8.15ZM41 31H14v2.18c2.47.3 8.18.82 13.55.82 5.42 0 11.07-.82 13.45-1.26V31Z"/><path d="M9 33.92c0-.6.57-.84 1.28-.74 3.05.45 10.76 1.32 17.27 1.32 8.13 0 17.4-1.76 18.12-1.76.7 0 1-.3 1.28.44.23.6-.38.94-.71 1.04-4 .9-12.42 1.78-18.7 1.78-6.13 0-17.26-1.04-17.54-1.19-.57-.3-1-.3-1-.89Z"/></svg>