<!-- by TradingView --><svg width="56" height="56" viewBox="0 0 56 56" xmlns="http://www.w3.org/2000/svg"><path fill="#F0F3FA" d="M0 0h56v56H0z"/><path d="m40.77 23.8-.25-.73c-.2-.6.06-1.27.59-1.49l8.54-3.54c.88 0 1.89 1.98.99 2.85l-8.6 3.56c-.5.21-1.07-.08-1.27-.65Z" fill="url(#ayfyvnpdj)"/><path d="M33.45 20.9 5 25.93l4.06-3.52 19.81-3.52 4.58 2Z" fill="url(#byfyvnpdj)"/><path d="M40.5 29 34 35H17l15-6h8.5Z" fill="url(#cyfyvnpdj)"/><path d="M12.78 23.22c.04.26-.83.6-1.95.74-1.11.14-2.05.04-2.08-.23-.04-.27.83-.6 1.95-.74 1.11-.15 2.05-.04 2.08.23Z" fill="url(#dyfyvnpdj)"/><path d="M20.72 21.7c.04.26-.84.6-1.95.74-1.12.14-2.05.04-2.09-.23-.03-.27.84-.6 1.96-.74 1.11-.15 2.04-.04 2.08.23Z" fill="url(#eyfyvnpdj)"/><path d="M29.38 20.3c.04.24-.84.55-1.96.68-1.13.13-2.06.03-2.1-.21-.04-.25.84-.55 1.96-.68s2.06-.04 2.1.2Z" fill="url(#fyfyvnpdj)"/><path d="M33.45 20.9 5 25.93 7.03 36l28.45-5.03-2.03-10.07Z"/><path d="M40.74 24.86c0 .66.22 1.48.48 2.23a2.06 2.06 0 0 1-1.32 2.64l-3.07 1.31a.5.5 0 0 1-.4-.93l3.11-1.32h.02c.6-.2.9-.78.7-1.38a8.52 8.52 0 0 1-.54-2.55c0-.77.29-1.5.91-1.9.24-.15.53 0 .61.26.1.26-.07.54-.25.76-.19.23-.25.55-.25.88Z" fill="#717C81"/><path d="m29.15 27.9.7-.64c.75.68 1.56 1.24 2.65 1.24.72-.05 1.5-.46 1.5-.46 0 .62-1 1.38-1.5 1.38a4.87 4.87 0 0 1-3.35-1.51Z" fill="url(#gyfyvnpdj)"/><path d="M21.28 30.28A2.07 2.07 0 0 1 20 28.5h1c0 .18.14.7.72.97l-.44.81Z" fill="url(#hyfyvnpdj)"/><path d="m17 32.5-1-5.83h1l.98 5.39-.98.44Z" fill="url(#iyfyvnpdj)"/><path d="M10 31.25v-.92c1.13.3 3.5.26 3.5 1.67 0 1.49-.5 2-1.5 2H8v-1h2.5c2 0 2-.15 2-1 0-.46-1.55-.5-2.5-.75Z" fill="url(#jyfyvnpdj)"/><path d="m11 34-1-3.67h.96L12 34h-1Z" fill="url(#kyfyvnpdj)"/><path d="M11.1 28.5a5.29 5.29 0 0 0-2.48-.03c-.18.04-1.63.76-1.42 1.14-.6-1.1.43-1.66 1.3-2.11 2-1 4.5-.31 4.5 1.46 0 1.18-1 2.29-3 2.29v-.92c1.17 0 2.63-1.4 1.1-1.82Z" fill="url(#lyfyvnpdj)"/><path d="M17 26.67v1.83c0 1-1.13 1.9-2.08 2.35-1.24.6-2.78 1.07-4.08 1.3-.28.06-1.85.28-1.84.74V33H8c0-1.2 1.53-1.54 2.65-1.74 1.2-.22 2.66-.67 3.8-1.22.56-.27 1.55-.83 1.55-1.54v-1.83c0-.46.5-.92.5-.92s.38.24.5.92ZM9 33v-.11.11Z" fill="url(#myfyvnpdj)"/><path d="M19.07 31.6c-.6-.36-2.2-1.26-2.47-1.6l.9-.5c.22.27 1.63 1.04 2.1 1.32.49.28 1.2.55 1.6.43-.5.46-1.54.68-2.13.34Z" fill="url(#nyfyvnpdj)"/><path d="M16 26.5v-.92c1.47 0 3.5.94 3.5 2.42 0 1.46-1.4 2-2.9 2 1-.5 1.9-.99 1.9-2 0-.96-1.6-1.5-2.5-1.5Z" fill="url(#oyfyvnpdj)"/><path d="m23.5 30.8-1-3.22.69-1.02 1 3.66-.69.57Z" fill="url(#pyfyvnpdj)"/><path d="M23.52 27.64c.37-.48.72-.66 1.06-.97h1c-.32.3-.92 1.08-1.24 1.5-.47.61-.17.56.56.53.56-.03 1.28-.13 1.68-.2l.42.92c-.43.08-1.43.16-2.06.2-.54.02-1.3.05-1.71-.34-.52-.47-.04-1.2.3-1.64Z" fill="url(#qyfyvnpdj)"/><path d="M26.63 26.9c.24-.15.53-.23.87-.23.9 0 1.5.37 1.5.91 0 1.04-.6 1.84-1.5 1.84h-.04c-.22 0-.54 0-.8-.08a.97.97 0 0 1-.47-.3.83.83 0 0 1-.19-.54v-.02c0-.22 0-.64.16-1.01.09-.2.23-.41.47-.57Zm.37 1.57.17.02.33.01c.1 0 .47-.11.5-.84-.06-.02-.2-.08-.5-.08-.16 0-.24.04-.29.07a.36.36 0 0 0-.12.16c-.08.19-.09.43-.09.66Z" fill="url(#ryfyvnpdj)"/><path fill-rule="evenodd" d="M29.53 25.3c0 .51.06 1.07.13 1.52.1-.05.2-.12.29-.22.26-.26.52-.73.52-1.56 0-.88-.19-1.04-.47-1.04-.57 0-.47.9-.47 1.3Zm.34 2.46c.29-.1.59-.28.85-.54.46-.47.78-1.17.78-2.18C31.5 24.1 31 23 30 23c-1.5 0-1.5 1.13-1.5 2.3 0 .8.12 1.67.24 2.2.2.86 1 2.44 1.26 2.83l.4-1.39a4.54 4.54 0 0 1-.53-1.18Z" fill="url(#syfyvnpdj)"/><defs><linearGradient id="ayfyvnpdj" x1="46.49" y1="21.33" x2="47.63" y2="23.76" gradientUnits="userSpaceOnUse"><stop stop-color="#232324"/><stop offset=".2" stop-color="#A6AEB6"/><stop offset=".47" stop-color="#D0D2D9"/><stop offset=".77" stop-color="#6A747B"/></linearGradient><linearGradient id="byfyvnpdj" x1="30.91" y1="19.89" x2="6.54" y2="23.99" gradientUnits="userSpaceOnUse"><stop stop-color="#D1D4D9"/><stop offset="1" stop-color="#D1D5D9"/></linearGradient><linearGradient id="cyfyvnpdj" x1="33.45" y1="29.46" x2="34.24" y2="34.44" gradientUnits="userSpaceOnUse"><stop stop-color="#313032"/><stop offset=".19" stop-color="#54585E"/><stop offset=".42" stop-color="#BDC9D0"/><stop offset=".64" stop-color="#7F8C93"/><stop offset="1" stop-color="#28282A"/></linearGradient><linearGradient id="dyfyvnpdj" x1="13.6" y1="22.57" x2="9.8" y2="23.82" gradientUnits="userSpaceOnUse"><stop stop-color="#AFBFC5"/><stop offset=".52" stop-color="#6F787E"/><stop offset="1" stop-color="#3E3F43"/></linearGradient><linearGradient id="eyfyvnpdj" x1="20.71" y1="21.56" x2="16.91" y2="22.81" gradientUnits="userSpaceOnUse"><stop stop-color="#AFBFC5"/><stop offset=".52" stop-color="#6F787E"/><stop offset="1" stop-color="#3E3F43"/></linearGradient><linearGradient id="fyfyvnpdj" x1="28.86" y1="20.54" x2="25.12" y2="21.9" gradientUnits="userSpaceOnUse"><stop stop-color="#AFBFC5"/><stop offset=".52" stop-color="#6F787E"/><stop offset="1" stop-color="#3E3F43"/></linearGradient><linearGradient id="gyfyvnpdj" x1="29.5" y1="28.04" x2="32.9" y2="29.63" gradientUnits="userSpaceOnUse"><stop stop-color="#9BAAB4"/><stop offset="1" stop-color="#FCFCFC"/></linearGradient><linearGradient id="hyfyvnpdj" x1="20.86" y1="28.5" x2="20.86" y2="30.28" gradientUnits="userSpaceOnUse"><stop stop-color="#95A2AA"/><stop offset="1" stop-color="#FDFDFD"/></linearGradient><linearGradient id="iyfyvnpdj" x1="16.95" y1="26.56" x2="16.95" y2="32.28" gradientUnits="userSpaceOnUse"><stop stop-color="#F7F2F3"/><stop offset="1" stop-color="#A6B4BC"/></linearGradient><linearGradient id="jyfyvnpdj" x1="8.2" y1="32.63" x2="12.69" y2="32.08" gradientUnits="userSpaceOnUse"><stop stop-color="#A1B0B8"/><stop offset="1" stop-color="#E6DFE4"/></linearGradient><linearGradient id="kyfyvnpdj" x1="10.18" y1="30.33" x2="10.18" y2="33.79" gradientUnits="userSpaceOnUse"><stop stop-color="#8B99A0"/><stop offset="1" stop-color="#FEFEFE"/></linearGradient><linearGradient id="lyfyvnpdj" x1="7.2" y1="28.04" x2="10.94" y2="31.1" gradientUnits="userSpaceOnUse"><stop stop-color="#88949B"/><stop offset="1" stop-color="#FEFEFE"/></linearGradient><linearGradient id="myfyvnpdj" x1="8.7" y1="32.63" x2="16.8" y2="27.42" gradientUnits="userSpaceOnUse"><stop stop-color="#849299"/><stop offset=".32" stop-color="#FDFDFE"/><stop offset=".77" stop-color="#F3ECEE"/><stop offset="1" stop-color="#94A1A9"/></linearGradient><linearGradient id="nyfyvnpdj" x1="16.7" y1="29.88" x2="18.57" y2="31.41" gradientUnits="userSpaceOnUse"><stop stop-color="#8E9CA4"/><stop offset="1" stop-color="#FDFDFD"/></linearGradient><linearGradient id="oyfyvnpdj" x1="17.7" y1="25.75" x2="17.7" y2="30.33" gradientUnits="userSpaceOnUse"><stop stop-color="#F9F9F8"/><stop offset="1" stop-color="#9AA8B0"/></linearGradient><linearGradient id="pyfyvnpdj" x1="22.84" y1="26.67" x2="22.84" y2="30.9" gradientUnits="userSpaceOnUse"><stop stop-color="#F7F6F7"/><stop offset=".4" stop-color="#768289"/><stop offset="1" stop-color="#F7F5F6"/></linearGradient><linearGradient id="qyfyvnpdj" x1="24.5" y1="26.67" x2="25.35" y2="29.46" gradientUnits="userSpaceOnUse"><stop stop-color="#FAFAFA"/><stop offset=".45" stop-color="#ABBAC1"/><stop offset=".62" stop-color="#727D84"/><stop offset=".75" stop-color="#949FA7"/><stop offset=".94" stop-color="#FAF9FA"/></linearGradient><linearGradient id="ryfyvnpdj" x1="27" y1="26.67" x2="27.85" y2="29.46" gradientUnits="userSpaceOnUse"><stop stop-color="#FAFBFB"/><stop offset=".64" stop-color="#9BA9B2"/><stop offset=".77" stop-color="#ACBAC2"/><stop offset="1" stop-color="#F6F6F7"/></linearGradient><linearGradient id="syfyvnpdj" x1="29.5" y1="23" x2="29.5" y2="30.33" gradientUnits="userSpaceOnUse"><stop stop-color="#77838B"/><stop offset=".15" stop-color="#B7C6CC"/><stop offset=".29" stop-color="#EEE3E8"/><stop offset=".54" stop-color="#F7F6F8"/><stop offset=".76" stop-color="#FBFBFC"/><stop offset="1" stop-color="#F1E3E7"/></linearGradient></defs></svg>