<!-- by TradingView --><svg width="56" height="56" viewBox="0 0 56 56" xmlns="http://www.w3.org/2000/svg"><path fill="#F0F3FA" d="M0 0h56v56H0z"/><path fill-rule="evenodd" d="M4 30v-6h.4L7 28.14 9.6 24h.4v6h-.5v-4.68l-2.3 3.55h-.43L4.5 25.32V30H4Zm9.64-3.5c.68 0 1.1.14 1.36.29v2.33c-.3.2-.75.38-1.36.38a1.5 1.5 0 0 1-1.6-1.44c0-.3.07-1.56 1.6-1.56Zm0-.5c.59 0 1.04.16 1.36.33V26h.5v4H15v-.3c-.32.16-.79.3-1.36.3-1.2 0-2.14-.5-2.14-1.94 0-1.45.9-2.06 2.14-2.06Zm4.86 0H18v4h.5v-2.85c.28-.25.9-.63 1.75-.63.96 0 1.26.55 1.25.83V30h.5v-2.65c0-.78-.47-1.35-1.52-1.35-.83 0-1.66.39-1.97.58l-.01.1V26ZM32 26h.5v.67l.01-.09c.31-.2 1.14-.58 1.97-.58 1.05 0 1.52.57 1.52 1.35V30h-.5v-2.65c.01-.28-.29-.83-1.25-.83-.85 0-1.47.38-1.75.63V30H32v-4Zm15.5 3.63c-.4.18-.97.37-1.55.37-1.04 0-1.54-.57-1.54-1.35V26H45v2.65c-.01.28.23.83 1.18.83.55 0 1-.16 1.32-.34V26h.5v4h-.5v-.37Zm-23.5-.5V26.5h-1V26h1v-2h.5v2H26v.5h-1.5v2.34c0 .32.32.65.67.65.27 0 .67-.14.83-.2v.53c-.14.06-.5.18-.83.18-.92 0-1.16-.58-1.17-.86Zm5 .87a2 2 0 0 0 1.76-1.04l-.41-.3A1.5 1.5 0 0 1 27.5 28H31a2 2 0 1 0-2 2Zm1.41-2.5a1.5 1.5 0 0 0-2.82 0h2.82Zm9.82-.96c.62 0 1.02.1 1.27.23v2.4c-.3.18-.7.33-1.27.33a1.66 1.66 0 0 1-1.73-1.44c0-.3.24-1.52 1.73-1.52Zm0-.54c.54 0 .96.14 1.27.3V26h.5v4.17c.03.61-.37 1.83-2.3 1.83-.91 0-1.51-.14-1.7-.21v-.7c.19.14.79.4 1.7.4 1.15 0 1.8-.64 1.8-1.42v-.34a3 3 0 0 1-1.27.27c-1.16 0-2.23-.5-2.23-1.94C38 26.6 39.02 26 40.23 26Z"/><path fill-rule="evenodd" d="M50 26a2 2 0 1 0 0-4 2 2 0 0 0 0 4Zm0-.5a1.5 1.5 0 1 0 0-3 1.5 1.5 0 0 0 0 3Z" fill="#ED1C24"/></svg>