<!-- by TradingView --><svg width="56" height="56" viewBox="0 0 56 56" xmlns="http://www.w3.org/2000/svg"><path fill="#F0F3FA" d="M0 0h56v56H0z"/><circle cx="28" cy="28" r="17" fill="#004993"/><path d="M42.55 28.09c.26-8.94-7.06-13.22-10.76-14.24 3.91 2.32 7.92 6.14 8.06 11.4.14 5.26-3.45 10.7-9.13 10.94-5.68.23-7.5-3.91-7.5-5.68 0-1.77.94-2.93 2.76-3.54 1.81-.6 4.28.89 4.28-1.72 0-2.27-2.2-3.18-4.29-3.07-6.44.33-7.4 5.35-7.4 8.33.56 8.52 8.7 10.59 12.15 10.52 2.75-.05 11.5-1.77 11.83-12.94Z" fill="#F0F3FA"/><path d="M13.5 27.81c-.25 8.94 7.07 13.22 10.76 14.24-3.91-2.32-7.91-6.14-8.05-11.4-.14-5.26 3.44-10.7 9.12-10.94 5.68-.23 7.5 3.91 7.5 5.68 0 1.77-.94 2.93-2.75 3.54-1.82.6-4.28-.89-4.28 1.72 0 2.27 2.18 3.18 4.28 3.07 6.44-.33 7.4-5.35 7.4-8.33-.56-8.52-8.7-10.58-12.15-10.52-2.75.05-11.5 1.77-11.82 12.94Z" fill="#009FE3"/></svg>