<!-- by TradingView --><svg width="56" height="56" viewBox="0 0 56 56" xmlns="http://www.w3.org/2000/svg"><path fill="#F0F3FA" d="M0 0h56v56H0z"/><path d="M27 36v2.4l-2-1.27v-2.42l2 1.3Z" fill="#6CC164"/><path d="M30 17.74V23l5-3.1V15l-5 2.74ZM36 30.74v6.56l5-3.7V27l-5 3.74ZM20 35.26v5.64l5-2.98V32.2l-5 3.06Z" fill="#002654"/><path d="M28 29.98v3.65l3-1.93V28l-3 1.98ZM28 34.69v1.82l1.58-.96V33.7l-1.58.99Z" fill="#A7A9AB"/><path d="M33 29.69v1.82l1.53-.96V28.7l-1.53.99ZM21 25.04v1.62l1.5-.85v-1.65l-1.5.88Z" fill="#6CC164"/><path d="M24 24.5V28l3-1.84v-3.54l-3 1.89ZM26 20.4v1.54l1.5-.81v-1.57l-1.5.84Z" fill="#A7A9AB"/><path d="M28.58 23.4v1.1l.95-.59v-1.12l-.95.6Z" fill="#C49DC8"/><path d="M29 24.83v2.1l2-1.11v-2.13l-2 1.14ZM33 21.98v2.27l2-1.2v-2.3l-2 1.23ZM12 22.98v2.62l2-1.38v-2.65l-2 1.41Z" fill="#002654"/><path d="M11 26.56v1.05l1-.55v-1.07l-1 .57Z" fill="#002655"/><path d="M12.68 27.16v1.25l1.06-.66v-1.27l-1.06.68Z" fill="#002654"/><path d="M13.58 31.3v1.38l-1.17-.73v-1.4l1.17.75Z" fill="#700D23"/><path d="M11 33.32v.91l-1-.48v-.92l1 .5Z" fill="#AB68AB"/><path d="M13.42 36.4v.69l-.58-.37v-.7l.58.37Z" fill="#9D605C"/><path d="M19.5 34.52V41l-5-3.42V31l5 3.52Z" fill="#700C22"/><path d="M19 30.96v2.57l-2-1.36v-2.61l2 1.4Z" fill="#700D23"/><path d="M15.77 30.13V31l-.74-.46v-.89l.74.48Z" fill="#9F605C"/><path d="M20 32.56v.97l-1-.51v-1l1 .54Z" fill="#A7A9AD"/><path d="M22 34.92v1.51l-1-.8V34.1l1 .82Z" fill="#A7A9AB"/><path d="M24 31.89v4.13l-4-2.18v-4.19l4 2.24Z" fill="#A7A9AB"/><path d="M35.5 33.75v5.88l-5-3.1v-5.98l5 3.2ZM38 39.31V42l-2-1.42v-2.72l2 1.45ZM29.97 33.15v1.56l-1.31-.82V32.3l1.31.84ZM30.04 31.49v.91l-.78-.48v-.93l.78.5Z" fill="#700C22"/><path d="M28.4 30.87v.71l-.6-.37v-.72l.6.38Z" fill="#9F605C"/><path d="M30.6 28.96v1.34l-1.12-.71v-1.36l1.13.73ZM25.78 25.98v1.34l-1.13-.7v-1.36l1.13.72ZM26.56 22.03v1.4l-1.18-.74v-1.4l1.18.74Z" fill="#700C22"/><path d="M30.5 18.9v2.27l-1.92-1.2v-2.3l1.92 1.24Z" fill="#6CC164"/><path d="M33.99 20.28v1.38l-1.17-.73v-1.4l1.17.75ZM35.39 22.76v.94l-.8-.5v-.95l.8.51Z" fill="#A7A9AB"/><path d="M38 23.4V26l-2-1.37V22l2 1.4Z" fill="#700C22"/><path d="M40 24.7V26l-1-.68V24l1 .7Z" fill="#700D23"/><path d="M42.13 23.72v1.37l-1.16-.72v-1.4l1.16.75Z" fill="#AF6BAF"/><path d="M41 25.35V26l-.5-.34V25l.5.35Z" fill="#9F605C"/><path d="M43 21.93v.64l-.68-.34v-.66l.68.36ZM41.64 19.22v.57l-.48-.3v-.57l.48.3Z" fill="#700C22"/><path d="M35 21.85v4.22l-4-2.23v-4.28l4 2.3Z" fill="#A7A9AB"/><path d="M40.5 18.16V24l-5-3.08V15l5 3.16Z" fill="#700C22"/><path d="M25.98 23.76v.9l-.77-.47v-.92l.77.5Z" fill="#9D5D59"/><path d="M25 19.53v5.56l-5-2.93v-5.64l5 3.01Z" fill="#700C22"/><path d="M20 15.46v2.69l-2-1.42V14l2 1.46Z" fill="#700D23"/><path d="M17 16.44v1.3l-1-.69v-1.31l1 .7Z" fill="#B98B85"/><path d="M18.88 18.61v.85l-.72-.45v-.86l.72.46Z" fill="#700D23"/><path d="M27.39 24.52v.82l-.7-.44v-.82l.7.44Z" fill="#720B22"/><path d="M39.72 38.86v1.34l-1.14-.7v-1.37l1.14.73Z" fill="#9F605C"/><path d="M37.5 36.9v.96l-.82-.51v-.98l.82.52Z" fill="#700D23"/><path d="M14.05 29.83v.72l-.62-.38v-.73l.62.39Z" fill="#710D22"/><path d="M9 25.63v1.15l1-.61V25l-1 .63Z" fill="#768BAE"/><path d="M9 28.57v.57l.49-.3v-.58l-.48.3Z" fill="#012754"/><path d="M11 28.57v.57l.5-.3v-.58l-.5.3Z" fill="#022755"/><path d="M24 29.95v2.37l2-1.25v-2.41l-2 1.29Z" fill="#002654"/><path d="M26 31.76v1.16l1-.61v-1.17l-1 .62Z" fill="#768BAE"/><path d="M42 31.48v2.72l2-1.44V30l-2 1.48Z" fill="#035297"/><path d="M42 27.7V29l1-.68V27l-1 .7ZM44.23 26.59v.66l.58-.35v-.67l-.58.36ZM46.42 26.59v.66l.58-.35v-.67l-.58.36ZM46 28.93v1.15l1-.6V28.3l-1 .62Z" fill="#002654"/><path d="M44 28.7V30l1-.68V28l-1 .7Z" fill="#768BAE"/><path d="M14 22.43V29l5.5-3.88V19L14 22.43Z" fill="#002654"/><path d="M20 32.64V35l2-1.25v-2.4l-2 1.28Z" fill="#035297"/><path d="M31.7 34.07v1.82l1.58-.96v-1.85l-1.59.99Z" fill="#A7A9AB"/><path d="M22.3 21.03v1.54l1.33-.81v-1.57l-1.33.84Z" fill="#A5A7AB"/></svg>