<!-- by TradingView --><svg width="56" height="56" viewBox="0 0 56 56" xmlns="http://www.w3.org/2000/svg"><path fill="#F0F3FA" d="M0 0h56v56H0z"/><path d="M8.36 22h-2.4v.23c.38 0 .41.4.38.6l-2.33 9.65c-.06.26.13.52.4.52H6.7c.04 0 .08-.04.08-.08v-.15c0-.04-.04-.08-.08-.09-.25-.05-.26-.32-.23-.46l.97-4.15c.01-.04.05-.07.08-.07h3.06c.05 0 .1.05.08.1l-1.1 4.38c-.06.26.13.52.4.52h2.43v-.31c-.35.01-.36-.46-.32-.7l2.26-9.47a.42.42 0 0 0-.4-.52h-2.21a.08.08 0 0 0-.09.08v.06c0 .05.04.08.08.1.15.06.2.27.2.39v.02l-.82 3.29c0 .03-.04.06-.07.06h-3a.08.08 0 0 1-.08-.1l.81-3.38a.42.42 0 0 0-.4-.52ZM14.6 24v.32c.36 0 .39.31.36.47l-1.46 6.25c-.3 1.5.7 1.93 1.25 1.96h1.73c.74 0 1.23-.7 1.38-1.04-.24.82.1 1.03.31 1.04h2.27v-.3c-.41.02-.42-.3-.37-.47l1.86-7.81a.33.33 0 0 0-.31-.42h-2.36v.32l.39.27-1.22 5.22c-.16.49-.3 1.14-1.5 1.19-.94.04-1.02-.53-.93-.84l1.28-5.75a.33.33 0 0 0-.31-.41H14.6Z" fill="#003062"/><path fill-rule="evenodd" d="M27.74 22h2.3c.22 0 .37.2.32.42l-2.3 9.56c-.06.21-.07.66.34.72v.3h-2.39c-.17-.06-.41-.4 0-1.34-.13.01-.41.15-.51.54-.13.5-.52.8-1.7.8-1.17 0-2.4-.38-2.42-2.37-.02-1.98 1.1-6.63 4.8-6.63h1.56l.31-1.62h-.3V22Zm-.4 4-1.02 4.13c-.12.3-.56.91-1.36.87-.99-.06-1.38-.57-1.36-1.33.02-.76.46-3.5 2.36-3.67h1.38ZM31.53 24h4.12c.96 0 1.66.93 1.42 1.9l-1.52 6.17c-.06.18-.06.54.38.6V33H33.6c-.16-.04-.46-.23-.34-.73l.34-1.15a3.7 3.7 0 0 0-.64 1.15c-.2.58-1.04.73-1.43.73h-1c-.49 0-1.44-.38-1.44-1.88 0-1.89.85-3.92 2.84-4.12h2.2c.17-.03.47-.1.53-.68.02-.21-.16-.32-.33-.32h-2.66a.5.5 0 0 1-.47-.63l.33-1.37Zm2.68 4.54L33.63 31H31.9c-.2-.03-.62-.23-.58-.81.05-.73.41-1.58 1.29-1.65h1.59Z" fill="#003062"/><path d="M41.1 24H44l-.15 1.1c-.12.47-.58.88-.8.9h-1.84c-1.38.07-1.9 2.81-2.05 3.78-.12.78.5 1.15.83 1.22h1.61a1.71 1.71 0 0 0 1.3-.8h.35l-.43 1.8c-.07.36-.96 1.14-3.32.98-2.27-.16-2.97-1.25-2.03-5.27C38.23 24.5 40.2 24 41.1 24Z" fill="#003062"/><path fill-rule="evenodd" d="M49.73 24c.72 0 2.33.57 2.27 2.13-.08 1.96-1.1 5.16-2.16 5.98-1.06.81-2.19.89-2.53.89h-1.47c-.95-.03-2.73-.7-2.2-3.18l.96-3.38c.3-.93 1.37-2.35 3.09-2.44h2.04Zm-.9 2c.4 0 1.16.3.95 1.19-.26 1.09-.72 2.86-1.16 3.31-.45.46-.88.5-1.06.5h-.67c-.4-.01-1.07-.39-.85-1.77l.56-1.87c.13-.52.57-1.3 1.28-1.36h.96Z" fill="#003062"/></svg>