<!-- by TradingView --><svg width="56" height="56" viewBox="0 0 56 56" xmlns="http://www.w3.org/2000/svg"><path fill="#F0F3FA" d="M0 0h56v56H0z"/><path d="M15.43 16.75c-1.2.38-2.48 2.76-2.97 3.9 17.42-1.18 25.08 7.62 26.73 12.17 0-1.95-.33-3.4-.5-3.9.5-.97 4.46-4.38 2.98-4.87-1.49-.48-2.48.49-3.47.49-.99 0-.5-.97-.99-1.46-.5-.49-.99-.98-1.98-.98s.5-1.46-.5-1.94c-.98-.5-.98-1.95-.49-2.44.5-.49-.5-1.46-1.48-1.46-1 0-2.48-.49-2.97-.98-.5-.48-1 0-1.49.98-.5.97-1.49.97-1.98 0-.4-.78-1.49-.98-1.98-.98-1.98-.97 0-.97 0-1.95 0-.97-1.98.5-3.47.5-1.48 0-1.98 0-2.47-.5-.5-.48-1.49 1.47-1.98 1.47-.5 0 .5 1.46-1 1.95Z" fill="url(#ai0w2ng10)"/><path d="M37.21 34.28v-2.92C26.51 19.28 13.28 22.1 8 25.03c1.98-.98 2.89-.98 4.46-.98 1.48 0 2.47 3.41 2.97 3.9.5.49.5-.49.99-.49.5 0 .99 0 1.48.49.5.49 1.49-.97 2.48-.97s.99.48.99.97.99 0 1.98 0 0 .97 0 1.95c0 .78.66 1.3.99 1.46 6.73-1.17 11.39 1.46 12.87 2.92Z" fill="#1F3763"/><path d="M37.21 35.74c-5.15-4.28-12.05-3.08-14.85-1.94 2.97-.5 2.97.48 2.97.97s-.5.97-.5 1.46-.99 1.46.5 2.44c1.48.97.5 1.46.5 2.43 0 .98 1.48 1.95 1.48 2.44S26.81 45 28.8 45c1.98 0 4.45-1.95 4.45-2.92 0-.98 0-.49 1-1.46.98-.98 0-.98 0-1.95 0-.78 1.97-1.63 2.96-1.95v-.98Z" fill="#949398"/><defs><linearGradient id="ai0w2ng10" x1="13.45" y1="17.23" x2="41.59" y2="25.76" gradientUnits="userSpaceOnUse"><stop stop-color="#C59F5C"/><stop offset=".3" stop-color="#C5A45F"/><stop offset=".58" stop-color="#F1D891"/><stop offset=".82" stop-color="#C89E48"/><stop offset="1" stop-color="#B88E30"/></linearGradient></defs></svg>