<!-- by TradingView --><svg width="56" height="56" viewBox="0 0 56 56" xmlns="http://www.w3.org/2000/svg"><path fill="url(#afvz4ytox)" d="M0 0h56v56H0z"/><circle cx="28" cy="25" r="8" fill="#F0F3FA"/><path fill-rule="evenodd" d="M27.49 31.4c11.04 1.31 20.22.4 20.5-2.04.28-2.44-8.44-5.47-19.48-6.77-11.04-1.3-20.22-.38-20.5 2.05-.28 2.44 8.44 5.47 19.48 6.77Zm0-.83c8.65 1.01 15.99-.59 16.25-1.97.26-1.38-6.58-4.32-15.23-5.33-8.65-1-15.83.29-16.09 1.67-.26 1.38 6.42 4.62 15.07 5.63Z" fill="#F0F3FA"/><path d="M27.76 36.04c6.5 0 11.77-5.3 11.77-11.85 0-2.27-.64-4.39-1.74-6.19 2 2.23 3.21 5.18 3.21 8.42C41 33.37 35.4 39 28.5 39a12.54 12.54 0 0 1-12.45-13.71 11.8 11.8 0 0 0 11.71 10.75Z" fill="#F0F3FA"/><defs><linearGradient id="afvz4ytox" x1="28" y1="0" x2="28" y2="56" gradientUnits="userSpaceOnUse"><stop stop-color="#014171"/><stop offset="1" stop-color="#000311"/></linearGradient></defs></svg>