<!-- by TradingView --><svg width="56" height="56" viewBox="0 0 56 56" xmlns="http://www.w3.org/2000/svg"><path fill="#003375" d="M0 0h56v56H0z"/><path d="M16 32v-8h6.5v2H18v1h4v2h-4v1h5v2h-7ZM4 32v-8h2.41l3.1 4.09 3-4.09H15v8h-2v-5.56l-3.49 4.39L6 26.43V32H4Zm19-6v-2h8v2h-3v6h-2v-6h-3Zm17 6v-8h2v8h-2Zm-4.16-8L40 32h-2.35l-.5-1h-4.97l-.53 1H29.5l4.24-8h2.1Zm-2.6 5h2.88l-1.4-2.76L33.25 29ZM43 32v-8h6.87c.66.07 2.13.46 2.13 2.5 0 1.41-1.06 2.12-1.87 2.38L52 32h-2.4l-1.68-3H45v3h-2Zm6.23-6H45v1h4.23c.43 0 .77-.22.77-.5s-.34-.5-.77-.5Z" fill="#fff"/></svg>