<!-- by TradingView --><svg width="56" height="56" viewBox="0 0 56 56" fill="none" xmlns="http://www.w3.org/2000/svg">
<rect width="56" height="56" fill="#F0F3FA"/>
<path fill-rule="evenodd" clip-rule="evenodd" d="M27 13L41 27L27 41L13 27L27 13Z" fill="#BAA47D"/>
<path fill-rule="evenodd" clip-rule="evenodd" d="M7 22H9V31H7V22Z" fill="url(#paint0_linear_5099_144049)"/>
<path fill-rule="evenodd" clip-rule="evenodd" d="M34 22H36V31H34V22Z" fill="url(#paint1_linear_5099_144049)"/>
<path fill-rule="evenodd" clip-rule="evenodd" d="M12 22H10V24H12V31H14V24H16V22H14H12Z" fill="url(#paint2_linear_5099_144049)"/>
<path fill-rule="evenodd" clip-rule="evenodd" d="M29 22H27V24H29V31H31V24H33V22H31H29Z" fill="url(#paint3_linear_5099_144049)"/>
<path fill-rule="evenodd" clip-rule="evenodd" d="M25 22H23V29V31H25H28V29H25V22Z" fill="url(#paint4_linear_5099_144049)"/>
<path fill-rule="evenodd" clip-rule="evenodd" d="M39 22H37V29V31H39H42V29H39V22Z" fill="url(#paint5_linear_5099_144049)"/>
<path fill-rule="evenodd" clip-rule="evenodd" d="M45 22H43V24V25.5V27.5V29V31H45H48V29H45V27.5H48V25.5H45V24H48V22H45Z" fill="url(#paint6_linear_5099_144049)"/>
<path fill-rule="evenodd" clip-rule="evenodd" d="M22 32H21V37V38H22H24V37H22V32Z" fill="url(#paint7_linear_5099_144049)"/>
<path fill-rule="evenodd" clip-rule="evenodd" d="M25 34H26V38H25V34Z" fill="url(#paint8_linear_5099_144049)"/>
<path fill-rule="evenodd" clip-rule="evenodd" d="M25 32H26V33H25V32Z" fill="url(#paint9_linear_5099_144049)"/>
<path fill-rule="evenodd" clip-rule="evenodd" d="M34 34H35V38H34V34Z" fill="url(#paint10_linear_5099_144049)"/>
<path fill-rule="evenodd" clip-rule="evenodd" d="M34 32H35V33H34V32Z" fill="url(#paint11_linear_5099_144049)"/>
<path fill-rule="evenodd" clip-rule="evenodd" d="M38 32H37V33H36V34H37V38H38V34H39V33H38V32Z" fill="url(#paint12_linear_5099_144049)"/>
<path fill-rule="evenodd" clip-rule="evenodd" d="M47 32H46V34.2624C45.7069 34.0952 45.3659 34 45 34C43.8846 34 43 34.8846 43 36C43 37.1154 43.8846 38 45 38C45.3659 38 45.7069 37.9048 46 37.7376V38H47V36V32ZM46 35.2987V36.7012C45.7766 37.0165 45.4092 37.2252 45 37.2252C44.3317 37.2252 43.7748 36.6683 43.7748 36C43.7748 35.3317 44.2946 34.7747 45 34.7747C45.4092 34.7747 45.7766 34.9835 46 35.2987Z" fill="url(#paint13_linear_5099_144049)"/>
<path fill-rule="evenodd" clip-rule="evenodd" d="M43 35.0097C42.6251 34.3884 41.917 34 41.1256 34C39.9177 34 38.9597 34.8932 39.0013 35.9806C39.0013 37.1068 39.9593 38 41.1673 38C41.5421 38 41.917 37.8835 42.2502 37.7282V36.7961C42.0003 37.1068 41.6255 37.301 41.1673 37.301C40.9647 37.301 40.7691 37.2584 40.5915 37.1826L42.4157 35.5119C42.4161 35.5128 42.4165 35.5137 42.4169 35.5146L43 35.0097ZM41.803 34.8877C41.6102 34.7915 41.3923 34.7379 41.1673 34.7379C40.4175 34.7379 39.7633 35.3204 39.7633 36.0194C39.7633 36.2457 39.8318 36.4597 39.9499 36.6457L41.803 34.8877Z" fill="url(#paint14_linear_5099_144049)"/>
<path fill-rule="evenodd" clip-rule="evenodd" d="M27 34V38H28V35.5517C28 35.4138 28.0333 34.7241 28.6184 34.7241C29.4868 34.7241 29.5 35.3103 29.5 35.3793V38H30.5V35.5517C30.5 35.4138 30.3947 34.6897 31.2237 34.6897C32.0526 34.6897 32 35.5517 32 35.5517V38H33V35.3448C33 35.069 32.6053 34 31.4605 34C30.3158 34 30 34.5862 30 34.5862C30 34.5862 29.6447 34 28.8158 34C27.9868 34 27.75 34.4483 27.75 34.4483L27.5526 34L27 34Z" fill="url(#paint15_linear_5099_144049)"/>
<path fill-rule="evenodd" clip-rule="evenodd" d="M20 28V26.2016L18.7138 28H20ZM22 28V30V31H20V30H17.2835L16.5683 31H14L20 22.0643V22H20.0432H22V28Z" fill="url(#paint16_linear_5099_144049)"/>
<defs>
<linearGradient id="paint0_linear_5099_144049" x1="8" y1="22" x2="8" y2="31" gradientUnits="userSpaceOnUse">
<stop stop-color="#181B1E"/>
<stop offset="1" stop-color="#181B1E"/>
</linearGradient>
<linearGradient id="paint1_linear_5099_144049" x1="35" y1="22" x2="35" y2="31" gradientUnits="userSpaceOnUse">
<stop stop-color="#181B1E"/>
<stop offset="1" stop-color="#181B1E"/>
</linearGradient>
<linearGradient id="paint2_linear_5099_144049" x1="13" y1="22" x2="13" y2="31" gradientUnits="userSpaceOnUse">
<stop stop-color="#181B1E"/>
<stop offset="1" stop-color="#181B1E"/>
</linearGradient>
<linearGradient id="paint3_linear_5099_144049" x1="30" y1="22" x2="30" y2="31" gradientUnits="userSpaceOnUse">
<stop stop-color="#181B1E"/>
<stop offset="1" stop-color="#181B1E"/>
</linearGradient>
<linearGradient id="paint4_linear_5099_144049" x1="25.5" y1="22" x2="25.5" y2="31" gradientUnits="userSpaceOnUse">
<stop stop-color="#181B1E"/>
<stop offset="1" stop-color="#181B1E"/>
</linearGradient>
<linearGradient id="paint5_linear_5099_144049" x1="39.5" y1="22" x2="39.5" y2="31" gradientUnits="userSpaceOnUse">
<stop stop-color="#181B1E"/>
<stop offset="1" stop-color="#181B1E"/>
</linearGradient>
<linearGradient id="paint6_linear_5099_144049" x1="45.5" y1="22" x2="45.5" y2="31" gradientUnits="userSpaceOnUse">
<stop stop-color="#181B1E"/>
<stop offset="1" stop-color="#181B1E"/>
</linearGradient>
<linearGradient id="paint7_linear_5099_144049" x1="22.5" y1="32" x2="22.5" y2="38" gradientUnits="userSpaceOnUse">
<stop stop-color="#181B1E"/>
<stop offset="1" stop-color="#181B1E"/>
</linearGradient>
<linearGradient id="paint8_linear_5099_144049" x1="25.5" y1="34" x2="25.5" y2="38" gradientUnits="userSpaceOnUse">
<stop stop-color="#181B1E"/>
<stop offset="1" stop-color="#181B1E"/>
</linearGradient>
<linearGradient id="paint9_linear_5099_144049" x1="25.5" y1="32" x2="25.5" y2="33" gradientUnits="userSpaceOnUse">
<stop stop-color="#181B1E"/>
<stop offset="1" stop-color="#181B1E"/>
</linearGradient>
<linearGradient id="paint10_linear_5099_144049" x1="34.5" y1="34" x2="34.5" y2="38" gradientUnits="userSpaceOnUse">
<stop stop-color="#181B1E"/>
<stop offset="1" stop-color="#181B1E"/>
</linearGradient>
<linearGradient id="paint11_linear_5099_144049" x1="34.5" y1="32" x2="34.5" y2="33" gradientUnits="userSpaceOnUse">
<stop stop-color="#181B1E"/>
<stop offset="1" stop-color="#181B1E"/>
</linearGradient>
<linearGradient id="paint12_linear_5099_144049" x1="37.5" y1="32" x2="37.5" y2="38" gradientUnits="userSpaceOnUse">
<stop stop-color="#181B1E"/>
<stop offset="1" stop-color="#181B1E"/>
</linearGradient>
<linearGradient id="paint13_linear_5099_144049" x1="45" y1="32" x2="45" y2="38" gradientUnits="userSpaceOnUse">
<stop stop-color="#181B1E"/>
<stop offset="1" stop-color="#181B1E"/>
</linearGradient>
<linearGradient id="paint14_linear_5099_144049" x1="41" y1="34" x2="41" y2="38" gradientUnits="userSpaceOnUse">
<stop stop-color="#181B1E"/>
<stop offset="1" stop-color="#181B1E"/>
</linearGradient>
<linearGradient id="paint15_linear_5099_144049" x1="30" y1="34" x2="30" y2="38" gradientUnits="userSpaceOnUse">
<stop stop-color="#181B1E"/>
<stop offset="1" stop-color="#181B1E"/>
</linearGradient>
<linearGradient id="paint16_linear_5099_144049" x1="18" y1="22" x2="18" y2="31" gradientUnits="userSpaceOnUse">
<stop stop-color="#181B1E"/>
<stop offset="1" stop-color="#181B1E"/>
</linearGradient>
</defs>
</svg>
