<!-- by TradingView --><svg width="56" height="56" viewBox="0 0 56 56" fill="none" xmlns="http://www.w3.org/2000/svg">
<rect width="56" height="56" fill="#F0F3FA"/>
<path fill-rule="evenodd" clip-rule="evenodd" d="M10 20H7L4 29H13L10 20ZM10 27L8.56521 23L7 27H10Z" fill="#123E8D"/>
<path fill-rule="evenodd" clip-rule="evenodd" d="M23 20H35V22H23V20Z" fill="#123E8D"/>
<path fill-rule="evenodd" clip-rule="evenodd" d="M29 24H35V26H29V24Z" fill="#123E8D"/>
<path fill-rule="evenodd" clip-rule="evenodd" d="M29 27H35V29H29V27Z" fill="#123E8D"/>
<path fill-rule="evenodd" clip-rule="evenodd" d="M29 29V24H31V29H29Z" fill="#123E8D"/>
<path fill-rule="evenodd" clip-rule="evenodd" d="M42 20.1279V22.5288C42 22.5288 41.3143 22 40.4 22C39.4286 22 38 22.5 38 24.4758C38 26.4516 39.3714 27 40.4 27C41.4286 27 42 26.2949 42 26.2949V28.53C42 28.53 41.5429 29 40.3429 29C39.1429 29 36 27.9424 36 24.2996C36 20.6567 39.9429 19.5991 42 20.1279Z" fill="#123E8D"/>
<path fill-rule="evenodd" clip-rule="evenodd" d="M44 29V20H46V29H44Z" fill="#123E8D"/>
<path fill-rule="evenodd" clip-rule="evenodd" d="M50 29V20H52V29H50Z" fill="#123E8D"/>
<path fill-rule="evenodd" clip-rule="evenodd" d="M45 24H50V26H45V24Z" fill="#123E8D"/>
<path fill-rule="evenodd" clip-rule="evenodd" d="M14 20H16.8333C18.6462 20 20.2128 21.2669 20.7767 23H18.5395C18.1236 22.3975 17.4596 22 16.6875 22H16V27H16.6875C17.9047 27 18.9441 25.9749 18.9978 24.611L20.3596 26.8097C19.5962 28.1226 18.2261 29 16.6667 29H14V20Z" fill="#123E8D"/>
<path fill-rule="evenodd" clip-rule="evenodd" d="M26 27.9763V29H28V24.6588L26 27.9763ZM26 23H28V22H26V23Z" fill="#123E8D"/>
<path fill-rule="evenodd" clip-rule="evenodd" d="M20 24H27L23.5 30L20 24Z" fill="#E21D22"/>
<path fill-rule="evenodd" clip-rule="evenodd" d="M4 31H52V32H4V31Z" fill="#123E8D"/>
<path fill-rule="evenodd" clip-rule="evenodd" d="M4 37H52V38H4V37Z" fill="#123E8D"/>
<path fill-rule="evenodd" clip-rule="evenodd" d="M16.3478 33.9808L17 33.8654C17 33.8654 16.6739 33 15.5652 33C14.4565 33 14 33.75 14 34.4423C14 35.1346 14.3913 36 15.6304 36C16.8696 36 17 35.4808 17 35.4808V34.5H15.5652V35H16.5V35.25C16.5 35.25 16.1522 35.4808 15.5652 35.4808C14.9783 35.4808 14.5 35.0769 14.5 34.5C14.5 33.9231 14.9783 33.5 15.5 33.5C16 33.5 16.3478 33.9808 16.3478 33.9808Z" fill="#123E8D"/>
<path fill-rule="evenodd" clip-rule="evenodd" d="M21 36V33H22.5C23.1667 33 23.5 33.2353 23.5 33.8824C23.5 34.5294 23 34.7059 23 34.7059C23.4 34.8823 24 36 24 36H23.3003C22.567 34.5294 21.5 34.7647 21.5 34.7647V36H21ZM21.5001 34.2354V33.4707L22.4667 33.4707C22.4667 33.4707 23 33.4707 23 33.8237C23 34.2354 22.6 34.2354 22.6 34.2354L21.5001 34.2354Z" fill="#123E8D"/>
<path fill-rule="evenodd" clip-rule="evenodd" d="M30 34.5C30 33.6923 29.3478 33 28.5 33C27.6522 33 27 33.6923 27 34.5C27 35.3077 27.6522 36 28.5 36C29.3478 36 30 35.3077 30 34.5ZM29.413 34.4998C29.413 33.9806 29.0217 33.519 28.4999 33.519C28.0434 33.519 27.5869 33.9806 27.5869 34.4998C27.5869 35.019 27.9782 35.4806 28.4999 35.4806C29.0217 35.4806 29.413 35.019 29.413 34.4998Z" fill="#123E8D"/>
<path fill-rule="evenodd" clip-rule="evenodd" d="M33 33H33.5V34.9038C33.5 35.1923 33.7143 35.4808 34 35.4808C34.2381 35.4808 34.5 35.25 34.5 34.9038V33H35V34.8462C35 35.4808 34.5714 36 34.0476 36H33.9524C33.4286 36 33 35.4808 33 34.8462V33Z" fill="#123E8D"/>
<path fill-rule="evenodd" clip-rule="evenodd" d="M40 34.26V33.42V33H40.5H41.2571C41.6571 33 42 33.36 42 33.78V33.84C42 34.26 41.6571 34.62 41.2571 34.62H40.5V36H40V34.62V34.26ZM40.5 34.26H41.2C41.4286 34.26 41.6 34.08 41.6 33.84C41.6 33.6 41.4286 33.42 41.2 33.42H40.5V34.26Z" fill="#123E8D"/>
</svg>
