<!-- by TradingView --><svg width="56" height="56" viewBox="0 0 56 56" xmlns="http://www.w3.org/2000/svg"><path fill="#F0F3FA" d="M0 0h56v56H0z"/><path fill-rule="evenodd" d="M9 25h1a2 2 0 0 1 2 2v2a2 2 0 0 1-2 2H9a2 2 0 0 1-2-2v-2c0-1.1.9-2 2-2Zm3 6.24c-.53.47-1.23.76-2 .76H9a3 3 0 0 1-3-3v-2a3 3 0 0 1 3-3h1a3 3 0 0 1 3 3v5c-.33 0-1-.1-1-.5v-.26Z" fill="#052460"/><path d="M21 22v7a3 3 0 0 1-3 3h-1a3 3 0 0 1-3-3v-2a3 3 0 0 1 3-3h1c.77 0 1.47.29 2 .76V22.5c0-.17.2-.5 1-.5Zm-1 5a2 2 0 0 0-2-2h-1a2 2 0 0 0-2 2v2c0 1.1.9 2 2 2h1a2 2 0 0 0 2-2v-2Z" fill="#052460"/><path fill-rule="evenodd" d="M34 25h-1a2 2 0 0 0-2 2v2c0 1.1.9 2 2 2h1a2 2 0 0 0 2-2v-2a2 2 0 0 0-2-2Zm-1-1a3 3 0 0 0-3 3v2a3 3 0 0 0 3 3h1a3 3 0 0 0 3-3v-2a3 3 0 0 0-3-3h-1ZM46 25h1a2 2 0 0 1 2 2v2a2 2 0 0 1-2 2h-1a2 2 0 0 1-2-2v-2c0-1.1.9-2 2-2Zm-3 2a3 3 0 0 1 3-3h1a3 3 0 0 1 3 3v2a3 3 0 0 1-3 3h-1c-.77 0-1.47-.29-2-.76v2.26c-.17.17-.6.5-1 .5v-7Z" fill="#052460"/><path d="M39 32h-1v-4.5c0-2.8 2-3.5 3-3.5h1v1h-1c-1.6 0-2 1.67-2 2.5V32ZM25 25h1a2 2 0 0 1 1.73 1h1.1A3 3 0 0 0 26 24h-1a3 3 0 0 0-3 3v2a3 3 0 0 0 3 3h1a3 3 0 0 0 2.83-2h-1.1A2 2 0 0 1 26 31h-1a2 2 0 0 1-2-2v-2c0-1.1.9-2 2-2Z" fill="#052460"/></svg>