<!-- by TradingView --><svg width="56" height="56" viewBox="0 0 56 56" xmlns="http://www.w3.org/2000/svg"><path fill="#F0F3FA" d="M0 0h56v56H0z"/><path d="M6.22 23H4c.4.28.65.68.72.84L7.65 31c.99-2.28 3-6.94 3.13-7.35.13-.4.54-.6.72-.65H9.53c.33 0 .4.43.38.65l-2.06 4.9a96.42 96.42 0 0 1-1.94-4.9.59.59 0 0 1 .3-.65Zm9.2 0h-1.95c.42 0 .52.43.53.65v5.08c.06.76.65 2.27 2.44 2.27s2.5-1.51 2.56-2.27v-5.08c0-.3.15-.55.3-.65h-1.8c.31 0 .47.43.5.65v5.08A1.5 1.5 0 0 1 16.44 30c-1.1 0-1.4-.83-1.44-1.27v-5.08c0-.28.25-.55.41-.65Zm6.92 8 .66-.65V23.8c-.16-.2-.43-.62-.43-.62h-.34V23h1.63L28 28.28v-4.93l-.48-.23V23h1.93v.12l-.45.23V31l-5-6.29v5.64l.55.65h-2.21ZM41 30.35l-.67.65h2.21l-.54-.65V24.7L47 31v-7.65l.44-.23V23h-1.93v.12l.49.23v4.93L41.85 23h-1.63v.2h.34l.44.61v6.54Zm-9.85.65.38-.32L34.77 23l3.2 7.68.4.32H36.3l.34-.32-2.1-5.24-2.05 5.24.38.32h-1.73Zm18.15-8v.21l.7.24v7.05l-.7.31V31h2.4v-.19l-.7-.18v-7.18l.7-.24V23h-2.4Zm2.7 9H4v.5h48V32Z" fill="#9F701F"/></svg>