<!-- by TradingView --><svg width="56" height="56" viewBox="0 0 56 56" xmlns="http://www.w3.org/2000/svg"><path fill="#F0F3FA" d="M0 0h56v56H0z"/><path fill-rule="evenodd" d="M14 17h12c1.33 0 4 .6 4 3s-2 3-3 3c1 0 4 1 4 3 0 1.2-.67 1.83-1 2h8c1.67 0 5 .8 5 4s-2.33 4-3.5 4c1.17 0 3.5.4 3.5 2v3h-4v-3c0-.33-.5-1-2.5-1H30v4h-3V30H14V17Zm4 7h6c1.5 0 3 .42 3 2 0 1.5-1 2-3 2h-6v-4Zm6-5h-6v3h6c.67 0 2-.3 2-1.5S24.67 19 24 19Zm6 11v5h7c.67 0 2-.5 2-2.5S37.67 30 37 30h-7Z" fill="#014696"/><path fill-rule="evenodd" d="M13 16h12c1.33 0 4 .6 4 3s-2 3-3 3c1 0 4 1 4 3 0 1.2-.67 1.83-1 2h8c1.67 0 5 .8 5 4s-2.33 4-3.5 4c1.17 0 3.5.4 3.5 2v3h-4v-3c0-.33-.5-1-2.5-1H29v4h-3V29H13V16Zm4 7h6c1.5 0 3 .42 3 2 0 1.5-1 2-3 2h-6v-4Zm6-5h-6v3h6c.67 0 2-.3 2-1.5S23.67 18 23 18Zm6 11v5h7c.67 0 2-.5 2-2.5S36.67 29 36 29h-7Z" fill="#A4ACD3"/></svg>