<!-- by TradingView --><svg width="56" height="56" viewBox="0 0 56 56" xmlns="http://www.w3.org/2000/svg"><path fill="#F0F3FA" d="M0 0h56v56H0z"/><circle cx="31.5" cy="28.5" r="1" fill="#00ABE4"/><path fill-rule="evenodd" d="M36.5 24.65V32H38v-5.5h1.5V25H38v-.32c0-.67.67-1.18 1.4-1.18H41V22h-1.63c-1.59 0-2.87 1.19-2.87 2.65ZM4 23v9h1.5v-4.67l2.94 3.3 3.06-3.3V32H13v-9l-4.56 5.21L4 23Zm11.02 6H20c.04-1.27-.52-4-3.11-4-3.24 0-3.39 2.74-3.39 3.82 0 1.08.9 3.9 5.05 3.01v-1.56c-.3.05-1 .15-1.3.15h-.02c-.42 0-2.2 0-2.2-1.42Zm.06-1.4h3.34a1.7 1.7 0 0 0-1.66-1.23c-1.07 0-1.56.82-1.68 1.23ZM52 29h-4.98c0 1.42 1.8 1.42 2.21 1.42h.03c.3 0 .99-.1 1.3-.15v1.56c-4.17.88-5.06-1.93-5.06-3.01 0-1.08.15-3.82 3.39-3.82 2.59 0 3.15 2.73 3.1 4Zm-1.58-1.4h-3.34c.12-.41.61-1.23 1.68-1.23a1.7 1.7 0 0 1 1.66 1.23ZM20.5 23v9H22v-5.5h1.45a5.85 5.85 0 0 1 1.28-1.5H22v-2h-1.5Zm3.5 9v-4c0-1.66 1.33-3 2.96-3h1.82l-1.14 1.5h-.6c-.85 0-1.54.81-1.54 1.67V32H24Zm7.48 0a3.49 3.49 0 0 0 3.34-4.5h-1.63a1.99 1.99 0 0 1-1.7 2.99c-1.1 0-1.98-.9-1.98-1.99 0-1.1.88-1.99 1.97-1.99h.02v-.01h4V25H31.48A3.49 3.49 0 0 0 28 28.5c0 1.93 1.56 3.5 3.48 3.5Zm9.02-7H42v7h-1.5v-7Zm4-2H43v9h1.5v-9Z" fill="#0062AA"/></svg>