<!-- by TradingView --><svg width="56" height="56" viewBox="0 0 56 56" xmlns="http://www.w3.org/2000/svg"><path fill="#F0F3FA" d="M0 0h56v56H0z"/><path d="M8 30h4v.64H8.63v2.03h3.02v.6H8.63v2.1H12V36H8v-6ZM17 30h.68L20 33.28 22.31 30H23v6h-.7v-4.86l-2.3 3.2-2.32-3.18V36H17v-6ZM27.63 30H27v6h.63v-6ZM45.31 30h-.6L42 36h.7l.6-1.37h3.35l.63 1.37H48l-2.69-6Zm-1.71 4 1.4-3.19L46.4 34h-2.8ZM36.14 33.56c1.8-.34 1.63-1.78 1.63-1.78 0-1.87-2.25-1.78-2.25-1.78H33v6h.66v-2.36h1.72l1.8 2.36H38l-1.86-2.44Zm-2.46-.5v-2.43h2.06s1.35.06 1.35 1.14c0 1.09-1 1.29-1.4 1.29h-2Z" fill="#7F8084"/><path d="m24.58 22.54-.23.12-.05.02-.32.15c.52.04 4.17.18 8.44-3.21-.26.2-4.15 3.14-7.84 2.92Z" fill="#F0B31D"/><path d="M28.74 22.3s-2.33 1.1-5.32.76c-.24.09-.49.17-.74.24.76.1 2.64.26 4.36-.22 2.22-.61 4.5-1.93 6.47-3.6-.19.16-2.49 1.82-4.77 2.82Z" fill="#F0B31D"/><path d="M29.23 22.86c-2.97 1.05-5.19 1.2-7.27.64h-.01c-.33.07-.66.13-1 .18.75.24 2.8.76 5.35.34 3.24-.54 7.11-3.18 8.8-4.95 0 0-2.9 2.74-5.87 3.79Z" fill="#F0B31D"/><path d="M20.2 23.76a11.66 11.66 0 0 1-1.33.02A13.4 13.4 0 0 0 25.02 25c3.19-.05 6.86-1.82 10.55-5.3-1.47 1.35-3.94 3.26-6.79 4.14-4.5 1.4-6.9.39-8.58-.1Z" fill="#F0B31D"/><path d="M28.33 24.98c-5.93 1.71-9.76-.95-10.17-1.25-.6-.06-1.2-.17-1.78-.33.9.62 3.05 1.92 5.74 2.39 3.54.61 6.81-.31 9.64-1.93 2.82-1.63 6.85-5.38 8.06-7.35 0 0-5.2 6.65-11.49 8.47Z" fill="#F0B31D"/><path d="M34.94 22.52c-4.1 2.93-7.66 4.48-12.4 3.71-4.5-.72-6.68-2.83-6.9-3.05-.94-.32-1.82-.75-2.64-1.29.83.85 3.67 3.53 6.99 4.45 3.96 1.1 7.61.92 11.43-1.2C35.25 23.02 38.56 20.36 43 14c0 0-3.96 5.6-8.06 8.52Z" fill="#F0B31D"/></svg>