<!-- by TradingView --><svg width="56" height="56" viewBox="0 0 56 56" xmlns="http://www.w3.org/2000/svg"><path fill="#F0F3FA" d="M0 0h56v56H0z"/><path d="m46 28-6.39.91a11.8 11.8 0 0 0 0-1.83l6.39.91Zm-1.2-6.09-5.47 3.36c-.14-.6-.33-1.17-.56-1.73l6.04-1.63Zm-2.5-4.5-4.36 4.5c-.32-.52-.68-1.01-1.08-1.48l5.44-3.02c.43.5-.35-.57 0 0Zm-4.24-4.23-2.5 5.96c-.46-.4-.95-.76-1.47-1.08l3.97-4.88Zm-4.76-2.12-.84 6.17c-.56-.23-1.14-.42-1.73-.56l2.57-5.61ZM28 10l.92 6.39a11.85 11.85 0 0 0-1.83 0l.92-6.39Zm-5.82 1.06 3.1 5.61c-.6.14-1.17.33-1.73.56l-1.37-6.17Zm-4.76 2.64 4.5 4.36c-.52.32-1.01.68-1.48 1.08l-3.02-5.44Zm-3.7 3.7 5.43 3.03c-.4.47-.75.96-1.07 1.48l-4.36-4.5Zm-2.65 4.51 6.18 1.63c-.24.56-.43 1.14-.57 1.73l-5.61-3.36ZM10.01 28c-.02.33 0-.33 0 0l6.39.92a11.8 11.8 0 0 1 0-1.83l-6.39.91Zm1.06 5.3 5.61-2.58c.14.6.33 1.18.57 1.74l-6.18.84Zm2.12 4.63 4.89-3.84c.32.52.68 1.01 1.07 1.48l-5.96 2.36Zm3.7 4.36 3.55-5.43c.47.4.96.75 1.48 1.07l-5.03 4.36Zm4.76 2.65 1.9-6.18c.56.24 1.14.43 1.74.57l-3.64 5.61Zm6.36 1.06-.92-6.39a11.85 11.85 0 0 0 1.83 0L28.01 46c-.33.02.33 0 0 0-.34 0 .32.02 0 0Zm5.29-1.06-2.57-5.61c.6-.14 1.17-.33 1.73-.57l.84 6.18c-.61.25.65-.16 0 0Zm5.3-2.65-4.51-4.36c.52-.32 1.01-.68 1.48-1.07l3.02 5.43Zm3.7-3.45-5.44-3.27c.4-.47.76-.96 1.08-1.48l4.36 4.75c-.35.56.43-.5 0 0Zm2.64-5.01-6.17-1.37c.23-.56.42-1.14.56-1.74l5.61 3.1Z" fill="#1B1B1B"/><circle cx="28" cy="28" r="11" fill="#B20000"/><path fill-rule="evenodd" d="M22.18 28c-.16 0-.26 0-.37-.02-.25-.07-.47-.28-1.22-1.04a3.36 3.36 0 0 1-1.06-2.12c.7.7 2.12 2.23 2.12 2.65 0 .53 2.11-3.18 2.11-3.7 0-.53-1.58-2.65-2.11-2.65-.53 0-.53-1.06 0-1.06a.6.6 0 0 0 .46-.2l.05-.04c.02 0 .02.07.02.24 0 .53 1.58 3.18 2.11 3.18.27 0 .53-.8.8-1.6.26-.79.53-1.58.8-1.58.33 0-.18 1.47-.6 2.7-.25.7-.47 1.34-.47 1.53 0 .53 1.6 3.18 2.12 2.65a29 29 0 0 0 2.12-3.18c-.7-.88-2.12-2.75-2.12-3.17 0-.27 0-.4.07-.46.06-.07.2-.07.46-.07.42 0 .18.35 0 .53.53.88 1.7 2.65 2.12 2.65.42 0 1.59-1.77 2.12-2.65-.53.88-1.6 2.75-1.6 3.17 0 .53 1.6 3.71 2.13 3.71.42 0 1.58-2.12 2.11-3.18l1.06 1.6c-.03-.04-.07-.08-.1-.14-.22-.25-.56-.67-.96-.4 0 0-1.06.7-1.06 1.06 0 0 .53-.53 1.06-.53.43 0 1.6 1.06 2.12 1.6-.35.17-1.16.63-1.59 1.05-.35.35-.7.23-1.06.12-.17-.06-.35-.12-.53-.12-.53 0 .53.53 1.06.53.2 0 .25 0 .29-.03a.27.27 0 0 0 .04-.04c.07-.06.2-.2.73-.46.85-.42 1.06-.18 1.06 0-.56.28-.98.86-1.32 1.34-.3.43-.55.78-.8.78-.42 0-1.59-1.77-2.11-2.65-.53 1.06-1.6 3.28-1.6 3.7 0 .43 1.42 2.3 2.12 3.18.53-1.06 1.7-3.17 2.12-3.17.36 0 .24.47.12.94-.06.23-.12.47-.12.64 0 .53-.53.53-1.06.53s-.53.53-.53 1.06v1.06c-.7.7-2.22 2.12-2.64 2.12-.28 0 .18-.6.68-1.24.44-.56.9-1.16.9-1.4 0-.54-2.11-3.18-2.64-3.18-.53 0-1.59 2.64-1.59 3.17 0 .53.53 1.59 1.06 2.12s.53 1.06 0 1.06-1.59-3.18-1.59-3.7c0-.54 1.59-3.18 2.12-3.18s-5.3-6.89-5.83-6.89c-.26 0-.52.8-.79 1.6-.26.79-.53 1.58-.8 1.58Zm7.4-3.7L28 27.46l2.12 3.7 1.59-3.7-2.12-3.18Zm4.77 2.11 1.06 1.06-1.06.53-1.02-1.08 1.02-.5Z" fill="#fff"/><path fill-rule="evenodd" d="M29.59 25.35c-.35.53-1.06 1.7-1.06 2.12 0 .53 1.59 3.18 1.59 2.65 0-.27.26-.66.53-1.06.26-.4.53-.8.53-1.06 0-.53-1.06-2.65-1.6-2.65Zm0 3.7c.53-.52.53-.52.53-1.05s0-1.06-.53-1.06c-.18.88-.43 2.54 0 2.12ZM26.41 21.65c-.35.53-1.06 1.7-1.06 2.11 0 .53 1.6 3.18 1.6 2.65 0-.26.26-.66.52-1.06.27-.4.53-.8.53-1.06 0-.53-1.06-2.64-1.59-2.64Zm0 3.7c.53-.53.53-.53.53-1.06s0-1.05-.53-1.05c-.17.88-.42 2.54 0 2.11ZM21.65 21.65c-.36.53-1.06 1.7-1.06 2.11 0 .53 1.59 3.18 1.59 2.65 0-.26.26-.66.53-1.06.26-.4.53-.8.53-1.06 0-.53-1.06-2.64-1.6-2.64Zm0 3.7c.53-.53.53-.53.53-1.06s0-1.05-.53-1.05c-.18.88-.43 2.54 0 2.11ZM32.24 29.06c-.36.53-1.06 1.7-1.06 2.12 0 .53 1.58 3.17 1.58 2.64 0-.26.27-.66.53-1.06.27-.4.53-.79.53-1.05 0-.53-1.06-2.65-1.58-2.65Zm0 3.7c.52-.52.52-.52.52-1.05s0-1.06-.52-1.06c-.18.88-.43 2.54 0 2.11ZM31.7 21.65c-.35.53-1.05 1.7-1.05 2.11 0 .53 1.59 3.18 1.59 2.65 0-.26.26-.66.52-1.06.27-.4.53-.8.53-1.06 0-.53-1.05-2.64-1.58-2.64Zm0 3.7c.54-.53.54-.53.54-1.06s0-1.05-.53-1.05c-.18.88-.43 2.54 0 2.11ZM29.63 33.04c-.36.53-1.06 1.7-1.06 2.11 0 .53 1.59 3.18 1.59 2.65 0-.26.26-.66.53-1.06.26-.4.53-.8.53-1.06 0-.53-1.06-2.64-1.6-2.64Zm0 3.7c.53-.53.53-.53.53-1.06s0-1.05-.53-1.05c-.18.88-.43 2.54 0 2.11ZM24.3 18.47c-.54.35-1.6 1.17-1.6 1.59 0 .53.54 2.12 1.06 2.12.53 0 1.6-1.6 1.6-2.12 0-.53-.54-1.59-1.07-1.59Zm0 1.06c-.54 0-1.38.32-.54 1.59.53-.18 1.49-.64 1.06-1.06l-.53-.53Z" fill="#FEFEFE"/><path d="M25.88 18.47c-.17.35-.42 1.06 0 1.06.53 0 .53-1.06 0-1.06Z" fill="#fff"/><path d="M29.59 22.7c-.43 0-.88-1.4-1.06-2.11.53-.53 1.06.53 1.06 1.06s.53-1.06 1.06-1.06-.53 2.12-1.06 2.12Z" fill="#FEFEFE"/><path d="M20.59 21.65c-.53.53-1.28 1.9-1.06 2.11.13.14 1.59-1.58 1.06-2.11ZM37 26.94c-.42 0-.53-.35-.53-.53.53 0 .53-.53 1.06-.53s0 1.06-.53 1.06ZM32.76 21.12c-.42 0-.52-.36-.52-.53 1.05-.53 1.58.53 1.05 1.06s0-.53-.53-.53ZM23.24 28c-.43 0 .17-1.41.52-2.12.53 0 1.6 1.06 1.6 1.6 0 .52-.54 0-1.07 0s-.53.52-1.05.52ZM26.94 30.12c-.42-.85-.18-1.06 0-1.06.53.7 1.59 2.22 1.59 2.65 0 .53-1.06 2.11-1.06 2.64 0 .53-.53-.53-.53-1.06 0-.42.7-1.23 1.06-1.58a6.79 6.79 0 0 1-1.06-1.6Z" fill="#fff"/></svg>