<!-- by TradingView --><svg width="56" height="56" viewBox="0 0 56 56" fill="none" xmlns="http://www.w3.org/2000/svg">
<rect width="56" height="56" fill="#F0F3FA"/>
<path fill-rule="evenodd" clip-rule="evenodd" d="M12 13H44L38 45H18L12 13Z" fill="#002849"/>
<path fill-rule="evenodd" clip-rule="evenodd" d="M19 17H28.5H38L37.1186 21H19.6856L19 17Z" fill="#F0F3FA"/>
<path fill-rule="evenodd" clip-rule="evenodd" d="M30.3684 23C30.579 23 30.7895 23 31 23V27C30.7895 27 30.579 27 30.3684 27C27.5263 27 25 29.2697 25 32C25 34.7303 27.5263 37 30.3684 37C30.579 37 30.7895 37 31 37V41C30.7895 41 30.579 41 30.3684 41C25.2105 41 21 36.9551 21 32C21 26.9438 25.2105 23 30.3684 23Z" fill="#F0F3FA"/>
</svg>
