<!-- by TradingView --><svg width="56" height="56" viewBox="0 0 56 56" fill="none" xmlns="http://www.w3.org/2000/svg">
<rect width="56" height="56" fill="#00A950"/>
<path fill-rule="evenodd" clip-rule="evenodd" d="M40 30H35V34H31V39H35V43H40V39H44V34H40V30Z" fill="#FFDA1A"/>
<path fill-rule="evenodd" clip-rule="evenodd" d="M16 21V42H20.8378C24.2555 42 27.3823 41.3089 30.0423 40H30V33H34V29H38.565C38.8505 27.6711 39 26.2523 39 24.7491C39 17.3258 34.3282 13 27 13H17L15 20H27.4865C30.5676 20 32 21.512 32 25C32 30.5074 27.5405 34.9493 23 35.5V21H16Z" fill="#F0F3FA"/>
</svg>
