<!-- by TradingView --><svg width="56" height="56" viewBox="0 0 56 56" xmlns="http://www.w3.org/2000/svg"><path fill="#F0F3FA" d="M0 0h56v56H0z"/><path d="M31.84 22.37c-.42-.43-.54-.85-.54-1.49 0-1.07.9-1.88 2.02-1.88 1.11 0 2.18.81 2.18 1.88 0 .93-.72 1.5-1.6 2.03l1.35 1.39a4.12 4.12 0 0 0 2.13-3.42c0-2.17-1.92-3.88-4.06-3.88a3.87 3.87 0 0 0-3.88 3.88c0 1.04.4 1.99 1.04 2.69l.31.32A5.4 5.4 0 0 0 33.32 34c1.96 0 3.74-1.1 4.66-2.8l2.48 2.8H43L31.84 22.37ZM33.32 32a3.43 3.43 0 0 1-3.47-3.38 3.4 3.4 0 0 1 2.43-3.22l4.3 4.38A3.47 3.47 0 0 1 33.31 32Z" fill="#B18967"/><circle cx="39" cy="27" r="1" fill="#B18967"/><path fill-rule="evenodd" d="M25 34v-1.26a5.5 5.5 0 1 1 2-4.24V34h-2Zm0-5.5a3.5 3.5 0 1 1-7 0 3.5 3.5 0 0 1 7 0Z" fill="#3D464D"/><path d="M12.83 30c-.57 1.18-1.8 2-3.22 2a3.53 3.53 0 0 1-3.57-3.5c0-1.93 1.6-3.5 3.57-3.5 1.42 0 2.65.82 3.22 2H15a5.6 5.6 0 0 0-5.4-4C6.52 23 4 25.46 4 28.5S6.51 34 9.6 34a5.6 5.6 0 0 0 5.4-4h-2.17ZM47 32c-1.6 0-2.57-.55-2.8-1.65l-.02-.35H42l.02.4c.31 2.18 2.13 3.6 4.98 3.6 2.86 0 5-1.4 5-3.47 0-2.39-2.03-2.87-4.7-3.25-2.3-.33-2.8-.7-2.8-1.28 0-.72 1.15-1 2.5-1 1.4 0 2.34.38 2.57 1.36l.03.1h2.18l-.02-.15C51.5 24.27 49.69 23 47 23c-3.15 0-4.5 1.47-4.5 3 0 2.01 1.65 2.82 4.46 3.18 2.72.33 3.04.7 3.04 1.32 0 .76-1.24 1.5-3 1.5Z" fill="#3D464D"/></svg>