<!-- by TradingView --><svg width="56" height="56" viewBox="0 0 56 56" fill="none" xmlns="http://www.w3.org/2000/svg">
<rect width="56" height="56" fill="#F0F3FA"/>
<path d="M11.5 30C11.5013 30.9192 11.5 31.5714 11.5 32.3931C10.7317 32.6866 9.83148 33 9 33C8.2228 33 7.37012 32.7977 6.79597 32.3931C6.22882 31.9885 5.78771 31.423 5.47262 30.6966C5.15754 29.9609 5 28.9931 5 28C5 26.9977 5.15754 26.2184 5.47262 25.4552C5.78771 24.6828 6.23232 24.0805 6.80647 23.6483C7.38062 23.2161 8.2228 23 9 23C9.28708 23 9.37264 23.023 9.5897 23.069C9.80676 23.115 10.0693 23.1839 10.3774 23.2759C10.721 23.3661 11.1533 23.6138 11.5 23.5C11.5 23.8281 11.5 23.7857 11.5 24.5C11.514 24.9322 11.5 25.8089 11.5 26C11.3547 26 11.1077 26 11 26C10.7269 24.3356 10.1623 23.5517 9 23.5517C7.16977 23.5517 6 25.8342 6 28C6 30.2299 7.13761 32.5 9 32.5C9.58115 32.5 10.0028 32.2322 10.3459 31.8276C10.696 31.423 10.846 30.8552 11 30H11.5Z" fill="black"/>
<path d="M13 33C13 32.8207 13 32.365 13 32.5C13.5748 32.4214 14 32.2029 14 31.2891V25C14 23.9447 13.6809 23.5778 13 23.5V23C14.8728 23 16.5575 23 18.4304 23C18.4654 23.3494 18.5137 23.8506 18.5557 24.2276C18.5977 24.6046 18.6432 25.0046 18.6922 25.4276C18.6362 25.4368 18.5767 25.4414 18.5137 25.4414C18.4577 25.4414 18.4016 25.4368 18.3456 25.4276C18.1636 24.8115 18.0504 24.4759 17.8054 24.2276C17.5533 23.9609 17.0573 24 16.5182 24H14.9953V27.6345H15.5241C15.8602 27.6345 16.5879 27.5833 16.7629 27.5281C16.938 27.4637 17.0675 27.3304 17.1515 27.1281C17.2355 26.9166 17.4568 26.4506 17.5058 26C17.6302 26 17.8835 26 18 26C18 27.261 18 30 18 30C18 30 17.6634 30 17.5058 30C17.4638 29.5126 17.246 28.9258 17.162 28.7143C17.078 28.4936 16.952 28.3557 16.7839 28.3005C16.6229 28.2453 15.8252 28.2414 15.5241 28.2414H14.9953V31.0965C14.9953 32.1686 15.2168 32.4209 16 32.5C16 32.365 16 32.8207 16 33C14.9007 33 14.0993 33 13 33Z" fill="black"/>
<path d="M21 24.5V31C21 32.1239 21.2002 32.2941 22 32.3793C22 32.2857 22 33 22 33C20.9182 33 20.0818 33 19 33C19 33 19 32.4064 19 32.5C19.6672 32.4087 20 31.9765 20 31V24.5C20 23.4198 19.6962 23.6791 19 23.6029C19 23.7379 19 23 19 23C20.0624 23 20.9375 23 22 23C22 23 22 23.7143 22 23.5793C21.3087 23.6566 21 23.487 21 24.5Z" fill="black"/>
<path d="M23 27C23 27 23 27 23 26.8177C23.2895 26.7897 23.5148 26.8074 23.5148 26.3618V23.7123C23.5148 23.1742 23.3391 23.2714 23 23.2393C22.9923 23 23 23 23.0077 23C23.5318 23 23.9759 23 24.5 23C24.5 23.0729 24.5 23.1823 24.5 23.2393C24.254 23.2631 23.9931 23.204 23.9931 23.6382L23.9994 24.7607H25.9983V23.7123C25.9983 23.2493 25.6901 23.2074 25.4253 23.1823C25.4253 23.1094 25.4253 23.0573 25.4253 23C25.9477 23 26.4702 23 26.9926 23C26.9977 23 26.9977 23 26.9926 23.1823C26.6972 23.2103 26.4855 23.1877 26.4855 23.6382V26.2877C26.4855 26.7842 26.6568 26.7861 26.9977 26.8177C27.0028 27 26.9977 27 26.9977 27C26.4753 27 25.9528 27 25.4304 27C25.4304 26.9323 25.4304 26.8802 25.4304 26.8177C25.6525 26.7962 25.9983 26.7812 25.9983 26.3618L26 25H24L23.9994 26.3333C23.9994 26.7997 24.2399 26.786 24.5 26.8107C24.5 26.8888 24.5 26.9201 24.5 26.993C23.9776 26.993 23.5224 27 23 27Z" fill="black"/>
<path d="M29.7961 25.4728C29.7961 25.7698 29.7377 26.0325 29.6209 26.2608C29.504 26.489 29.3394 26.6692 29.127 26.8012C28.9145 26.9305 28.7114 26.9951 28.422 26.9951C28.1352 26.9951 27.8418 26.9319 27.6373 26.8053C27.4328 26.6788 27.2748 26.5042 27.1633 26.2814C27.0544 26.0586 27 25.8056 27 25.5223C27 25.228 27.0584 24.9667 27.1753 24.7385C27.2921 24.5074 27.4567 24.3273 27.6692 24.198C27.8842 24.066 28.2132 24 28.5 24C28.7841 24 28.9504 24.0633 29.1548 24.1898C29.3593 24.3163 29.5173 24.4909 29.6288 24.7137C29.7403 24.9337 29.7961 25.1868 29.7961 25.4728ZM29.3022 25.5141C29.3022 25.3463 29.2863 25.1826 29.2544 25.0231C29.2225 24.8636 29.1708 24.7192 29.0991 24.59C29.03 24.4607 28.9384 24.3589 28.8242 24.2847C28.7101 24.2077 28.5707 24.1692 28.406 24.1692C28.2387 24.1692 28.0967 24.2077 27.9798 24.2847C27.8657 24.3617 27.7727 24.4634 27.701 24.59C27.632 24.7165 27.5802 24.8581 27.5457 25.0149C27.5138 25.1716 27.4979 25.3312 27.4979 25.4934C27.4979 25.653 27.5138 25.8125 27.5457 25.972C27.5802 26.1288 27.6333 26.2718 27.705 26.401C27.7767 26.5303 27.871 26.6348 27.9878 26.7146C28.1073 26.7916 28.2507 26.8301 28.418 26.8301C28.5826 26.8301 28.7207 26.793 28.8322 26.7187C28.9464 26.6444 29.038 26.5454 29.107 26.4217C29.1761 26.2952 29.2252 26.1535 29.2544 25.9967C29.2863 25.84 29.3022 25.6791 29.3022 25.5141Z" fill="black"/>
<path d="M30 26.9951C30 26.9291 30.0047 26.9951 30 26.8053C30.1248 26.7916 30.3942 26.7792 30.4473 26.7682C30.5004 26.7545 30.5336 26.727 30.5469 26.6857C30.5601 26.6417 30.5668 26.5716 30.5668 26.4753V24.5569C30.5668 24.1799 30.2331 24.1943 30 24.1733C30.0047 24 30 24.0495 30 24C30.4063 24 30.993 24 31.3992 24C31.3992 24.0495 31.3992 24.117 31.3992 24.1733C31.1948 24.1913 31.0049 24.153 31.0049 24.5033V26.4217C31.0049 26.5152 31.0049 26.5908 31.0049 26.6486C31.0076 26.7036 31.0102 26.7407 31.0129 26.76H31.5785C31.7989 26.76 31.895 26.7091 32.0012 26.6073C32.0889 26.5193 32.1805 26.3653 32.2761 26.1453C32.3185 26.137 32.3597 26.137 32.3995 26.1453C32.3677 26.313 32.3411 26.4643 32.3199 26.5991C32.3013 26.7311 32.2854 26.9043 32.2721 26.9951C31.5525 26.9951 30.7196 26.9951 30 26.9951Z" fill="black"/>
<path d="M33.8876 24C34.5545 24 35.5 24.296 35.5 25.4976C35.5 26.5549 34.4511 26.9951 33.8717 26.9951C33.4893 26.9951 33.1069 26.9951 32.7245 26.9951C32.7192 26.9539 32.7192 26.8521 32.7245 26.8053C32.9283 26.7829 33 26.8246 33 26.4753V24.5528C33 24.1758 32.9576 24.1943 32.7245 24.1733C32.7192 24.132 32.7192 24.0468 32.7245 24C33.1122 24 33.4999 24 33.8876 24ZM33.413 24.231C33.413 25.0424 33.417 25.8895 33.417 26.7105C33.5394 26.7105 33.7994 26.7105 33.9348 26.7105C34.4 26.7105 34.7224 26.5249 34.8754 26.137C34.9551 25.9417 35 25.7451 35 25.4976C35 25.1125 34.8993 24.7811 34.7081 24.5528C34.5196 24.3245 34.2394 24.2104 33.8677 24.2104C33.8013 24.2104 33.7376 24.2132 33.6765 24.2187C33.6181 24.2242 33.4396 24.2283 33.413 24.231Z" fill="black"/>
<path d="M36.3366 24.5033V26.4753C36.3366 26.8632 36.5799 26.7851 36.821 26.8053C36.821 26.8957 36.821 26.9291 36.821 26.9951C36.4108 26.9951 35.9103 27 35.5 27C35.5 26.9064 35.5 26.8888 35.5 26.8102C35.7051 26.7881 36 26.8297 36 26.4753V24.5528C36 24.1685 35.7363 24.1937 35.5 24.1733C35.5 24.0995 35.4947 24.0468 35.5 24C35.9102 24 36.4108 24 36.821 24C36.821 24.0495 36.821 24.1053 36.821 24.1733C36.6165 24.1913 36.3366 24.153 36.3366 24.5033Z" fill="black"/>
<path d="M39.5 27L37.7007 24.5528V26.3185C37.7007 26.7412 37.8395 26.7757 38.1189 26.8053C38.1242 26.8493 38.1242 26.9511 38.1189 26.9951C37.7803 26.9951 37.4418 26.9951 37.1032 26.9951C37.0953 26.9539 37.0953 26.8521 37.1032 26.8053C37.3536 26.7693 37.4348 26.773 37.4348 26.3722V24.6807C37.4348 24.2366 37.2894 24.2007 37 24.1692C36.9973 24.1279 36.9973 24.044 37 24C37.2686 24 37.5 24 37.8799 24L39.5217 26.2484V24.6642C39.5217 24.2295 39.272 24.1985 39 24.1774V24C39.3532 24 39.6468 24 40 24V24.1733C39.7478 24.2059 39.7817 24.2126 39.7817 24.6106V27H39.5Z" fill="black"/>
<path d="M41.9976 27C41.6976 27 41.4281 26.9422 41.205 26.8267C40.982 26.7112 40.808 26.5434 40.6832 26.3234C40.5611 26.1034 40.5 25.8394 40.5 25.5313C40.5 25.2233 40.5611 24.9551 40.6832 24.7269C40.808 24.4986 40.982 24.3212 41.205 24.1947C41.4307 24.0682 41.6949 24.0049 41.9976 24.0049C42.0985 24.0049 42.2061 24.0131 42.3203 24.0296C42.4344 24.0434 42.5327 24.0627 42.615 24.0874C42.6655 24.1012 42.7119 24.1135 42.7544 24.1245C42.7969 24.1355 42.8394 24.141 42.8819 24.141C42.9137 24.141 42.9456 24.1369 42.9775 24.1287C42.9828 24.2497 42.9881 24.3748 42.9934 24.5041C42.9987 24.6333 43.0067 24.7681 43.0173 24.9084C42.9615 24.9166 42.9151 24.9194 42.8779 24.9166C42.8248 24.6636 42.7279 24.4766 42.5871 24.3556C42.4464 24.2318 42.2592 24.1699 42.0255 24.1699C41.8396 24.1699 41.6803 24.2057 41.5475 24.2772C41.4174 24.3459 41.3112 24.4408 41.2289 24.5618C41.1492 24.6829 41.0908 24.8231 41.0536 24.9826C41.0165 25.1394 40.9979 25.3072 40.9979 25.4859C40.9979 25.7472 41.0364 25.9783 41.1134 26.179C41.1904 26.3798 41.3072 26.5379 41.4639 26.6535C41.6232 26.7662 41.8224 26.8226 42.0614 26.8226C42.1357 26.8226 42.218 26.8157 42.3083 26.802C42.3986 26.7855 42.4849 26.7607 42.5672 26.7277V26.2079C42.5672 26.1226 42.5632 26.0566 42.5553 26.0099C42.5499 25.9604 42.5327 25.9246 42.5035 25.9026C42.4769 25.8806 42.4331 25.8655 42.372 25.8572C42.3136 25.8462 42.2326 25.8366 42.1291 25.8284C42.1211 25.7844 42.1211 25.7404 42.1291 25.6963C42.1848 25.6963 42.2525 25.6977 42.3322 25.7005C42.4119 25.7005 42.4915 25.7018 42.5712 25.7046C42.6535 25.7046 42.7212 25.7046 42.7743 25.7046C42.8566 25.7046 42.9509 25.7032 43.0571 25.7005C43.166 25.6977 43.2589 25.6963 43.3359 25.6963C43.3413 25.7376 43.3413 25.7802 43.3359 25.8242C43.2271 25.838 43.1487 25.8517 43.1009 25.8655C43.0531 25.8792 43.0239 25.9067 43.0133 25.948C43.0027 25.9893 42.9974 26.0594 42.9974 26.1584V26.2904C42.9974 26.4197 43 26.5283 43.0053 26.6163C43.0133 26.7043 43.02 26.7676 43.0253 26.8061C42.6562 26.9354 42.3189 27 41.9976 27Z" fill="black"/>
<path d="M45.2079 26.9951C44.9878 26.9951 44.7502 26.9333 44.5268 26.9167C44.4551 26.9085 44.4113 26.9043 44.3953 26.9043C44.3927 26.6761 44.3807 26.3997 44.3595 26.0751C44.3807 26.0724 44.402 26.071 44.4232 26.071C44.4471 26.071 44.4684 26.071 44.4869 26.071C44.5374 26.313 44.621 26.5001 44.7379 26.6321C44.8574 26.7641 45.014 26.8301 45.2079 26.8301C45.3805 26.8301 45.5212 26.782 45.6301 26.6857C45.739 26.5867 45.7934 26.4574 45.7934 26.2979C45.7934 26.1769 45.7629 26.0779 45.7018 26.0009C45.6434 25.9239 45.565 25.8592 45.4668 25.807C45.3712 25.752 45.269 25.7011 45.1601 25.6543C45.0326 25.5966 44.9105 25.5361 44.7936 25.4728C44.6795 25.4068 44.5852 25.3229 44.5108 25.2211C44.4365 25.1194 44.3993 24.9874 44.3993 24.8251C44.3993 24.6518 44.4405 24.5033 44.5228 24.3796C44.6078 24.2558 44.7206 24.1623 44.8614 24.099C45.0021 24.033 45.1574 24 45.3274 24C45.3805 24 45.4349 24.0028 45.4907 24.0083C45.5491 24.0138 45.6088 24.022 45.6699 24.033C45.7469 24.044 45.8053 24.0509 45.8452 24.0536C45.8877 24.0564 45.9155 24.0578 45.9288 24.0578C45.9368 24.0578 45.9514 24.0578 45.9726 24.0578C45.9939 24.055 46.0111 24.0523 46.0244 24.0495C46.0297 24.1705 46.035 24.2957 46.0403 24.4249C46.0457 24.5542 46.0536 24.689 46.0642 24.8292C46.0111 24.8375 45.9673 24.8402 45.9328 24.8375C45.8717 24.5982 45.796 24.4263 45.7058 24.3218C45.6155 24.2145 45.4867 24.1609 45.3194 24.1609C45.1734 24.1609 45.0486 24.2022 44.945 24.2847C44.8414 24.3644 44.7897 24.4841 44.7897 24.6436C44.7897 24.7288 44.8082 24.8045 44.8454 24.8705C44.8853 24.9365 44.9503 24.9997 45.0406 25.0603C45.1309 25.1208 45.2557 25.1854 45.415 25.2542C45.5026 25.2927 45.5903 25.3353 45.6779 25.382C45.7682 25.4288 45.8505 25.4852 45.9248 25.5512C45.9992 25.6144 46.0589 25.6928 46.1041 25.7863C46.1492 25.8771 46.1718 25.9857 46.1718 26.1123C46.1718 26.2993 46.1266 26.4588 46.0364 26.5908C45.8602 26.843 45.5151 26.9951 45.2079 26.9951Z" fill="black"/>
<path d="M46.5287 26.6774C46.5287 26.5922 46.5566 26.5207 46.6123 26.4629C46.6681 26.4024 46.7358 26.3722 46.8155 26.3722C46.9057 26.3722 46.9774 26.4038 47.0305 26.467C47.0863 26.5276 47.1142 26.5977 47.1142 26.6774C47.1142 26.76 47.0863 26.8315 47.0305 26.892C46.9774 26.9525 46.9164 26.9951 46.8261 26.9951C46.7464 26.9951 46.6681 26.9539 46.6123 26.8961C46.5566 26.8356 46.5287 26.7627 46.5287 26.6774Z" fill="black"/>
<path d="M47.3049 26.9951C47.2996 26.9511 47.2996 26.8493 47.3049 26.8053C47.3792 26.7971 47.439 26.7875 47.4841 26.7765C47.5292 26.7655 47.5678 26.7462 47.5996 26.7187C47.6315 26.6884 47.662 26.6444 47.6912 26.5867C47.7204 26.5262 47.755 26.4423 47.7948 26.335L48.6551 24H48.8662L49.7226 26.3722C49.7598 26.4712 49.7903 26.5496 49.8142 26.6073C49.8381 26.6623 49.8647 26.7022 49.8939 26.727C49.9231 26.7517 49.9602 26.7696 50.0054 26.7806C50.0505 26.7888 50.1129 26.7971 50.1926 26.8053C50.1979 26.8493 50.1979 26.9511 50.1926 26.9951C49.7956 26.9951 49.3986 26.9951 49.0017 26.9951C48.9937 26.9539 48.9937 26.8521 49.0017 26.8053C49.1318 26.7916 49.2221 26.7792 49.2725 26.7682C49.323 26.7545 49.3482 26.7215 49.3482 26.6692C49.3482 26.6472 49.3442 26.6224 49.3362 26.5949C49.3283 26.5674 49.3176 26.5331 49.3044 26.4918L49.0773 25.8565H48.1811L47.982 26.4258C47.9634 26.478 47.9488 26.5221 47.9382 26.5578C47.9302 26.5908 47.9262 26.6211 47.9262 26.6486C47.9262 26.7091 47.9528 26.7476 48.0059 26.7641C48.0617 26.7778 48.1519 26.7916 48.2767 26.8053C48.282 26.8521 48.2767 26.9951 48.2767 26.9951C47.9528 26.9951 47.6288 26.9951 47.3049 26.9951ZM48.2409 25.6832H49.0176L48.6272 24.5858L48.2409 25.6832Z" fill="black"/>
<path d="M50.4145 26.6774C50.4145 26.5922 50.4424 26.5207 50.4981 26.4629C50.5539 26.4024 50.6216 26.3722 50.7013 26.3722C50.7916 26.3722 50.8632 26.4038 50.9164 26.467C50.9721 26.5276 51 26.5977 51 26.6774C51 26.76 50.9721 26.8315 50.9164 26.892C50.8632 26.9525 50.7916 26.9951 50.7013 26.9951C50.6216 26.9951 50.5539 26.9539 50.4981 26.8961C50.4424 26.8356 50.4145 26.7627 50.4145 26.6774Z" fill="black"/>
<rect x="23" y="29" width="5" height="4" fill="#D0D0D0"/>
<rect x="30" y="29" width="5" height="4" fill="#E05455"/>
<rect x="37" y="29" width="6" height="4" fill="#D0D0D0"/>
<rect x="45" y="29" width="6" height="4" fill="#D0D0D0"/>
</svg>
