<!-- by TradingView --><svg width="56" height="56" viewBox="0 0 56 56" xmlns="http://www.w3.org/2000/svg"><path fill="#F0F3FA" d="M0 0h56v56H0z"/><path d="M19.06 35C17 35 16 33.75 16 31.76v-3.5c0-2 1-3.26 3.06-3.26 1.82 0 2.94.96 2.94 2.8V29h-2v-1.32c0-.55-.32-1.18-1-1.18-.7 0-1 .65-1 1.21v4.58c0 .55.32 1.21 1 1.21.68 0 1-.67 1-1.21V31h2v1.1c0 1.87-1.09 2.9-2.94 2.9ZM40.06 35C38 35 37 33.75 37 31.76v-3.5c0-2 1-3.26 3.06-3.26 1.82 0 2.94.96 2.94 2.8V29h-2v-1.32c0-.55-.32-1.18-1-1.18-.7 0-1 .65-1 1.21v4.58c0 .55.32 1.21 1 1.21.68 0 1-.67 1-1.21V31h2v1.1c0 1.87-1.09 2.9-2.94 2.9ZM23 35l2.1-10h2.82L30 35h-2.27l-.38-2h-1.64l-.38 2H23Zm2.93-3.43h1.19l-.6-3.9-.59 3.9ZM44 35l2.1-10h2.82L51 35h-2.27l-.38-2h-1.64l-.38 2H44Zm2.94-3.43h1.18l-.6-3.9-.59 3.9ZM31 35V25h5v1.5h-3V29h3v1.5h-3V35h-2Z"/><circle cx="26.5" cy="19.5" r="4.5" fill="#00076D"/><circle cx="15.5" cy="18.5" r="3.5" fill="#00076D"/><circle cx="10" cy="25" r="3" fill="#00076D"/><circle cx="9.5" cy="32.5" r="2.5" fill="#00076D"/><circle cx="13" cy="37" r="2" fill="#00076D"/><circle cx="17.5" cy="38.5" r="1.5" fill="#00076D"/><circle cx="22" cy="38" r="1" fill="#00076D"/><circle cx="24.5" cy="36.5" r=".5" fill="#00076D"/></svg>