<!-- by TradingView --><svg width="56" height="56" viewBox="0 0 56 56" xmlns="http://www.w3.org/2000/svg"><path fill="#F9A825" d="M0 0h56v56H0z"/><path d="M21 12.52c0-.89-.66-1.52-1.5-1.52s-1.5.63-1.5 1.52v17.65a8.6 8.6 0 0 0 1.65 4.66 9.8 9.8 0 0 0 4.05 3.21l2.8 1.14v5.3c0 .89.66 1.52 1.5 1.52s1.5-.63 1.5-1.52v-5.3l2.8-1.14a9.78 9.78 0 0 0 4.1-3.27 8.58 8.58 0 0 0 1.6-4.75v-17.5c0-.89-.66-1.52-1.5-1.52s-1.5.63-1.5 1.52V17l-5.5 2.37v-2.8c0-.89-.66-1.57-1.5-1.57s-1.5.68-1.5 1.57v2.8L21 17v-4.48Z" fill="#fff"/></svg>